<?xml version="1.0" encoding="utf-8"?>
<!-- Generator: Adobe Illustrator 23.0.3, SVG Export Plug-In . SVG Version: 6.00 Build 0)  -->
<svg version="1.1" id="Layer_1" xmlns="http://www.w3.org/2000/svg" xmlns:xlink="http://www.w3.org/1999/xlink" x="0px" y="0px"
	 viewBox="0 0 432 432" style="enable-background:new 0 0 432 432;" xml:space="preserve">
<path d="M415.63,175.88c0.64,0.9,1.37,1.77,2.04,2.63c1.39,1.7,2.96,3.27,4.72,4.59c2.67,2,7.5,3.32,8.94-0.92
	c0.67-1.98,0.09-3.95-0.98-5.66c-0.27-0.43-0.57-0.84-0.88-1.23c-0.33-0.39-0.69-0.75-1.06-1.1c-0.73-0.69-1.49-1.29-2.18-1.79
	c-4.27-3.04-9.18-4.19-14.09-3.75c-0.01,0-0.03,0.01-0.05,0.01l-1.99-5.98l-0.99-2.98c-0.33-0.99-0.75-1.96-1.12-2.94l-2.27-5.85
	c-0.77-1.94-1.68-3.83-2.5-5.75c1.7,1.56,3.48,3.13,5.14,4.78c2.34,2.36,4.63,5.21,7.32,7.35c2.5,2.1,6.33,2.63,7.37-1.4
	c0.32-1.16,0.15-2.29-0.23-3.38c-0.39-1.09-1.04-2.13-1.81-3.1c-0.77-0.96-1.67-1.85-2.57-2.62c-0.45-0.39-0.89-0.75-1.33-1.08
	c-0.45-0.33-0.89-0.62-1.29-0.89c-2.29-1.52-4.68-2.62-7.14-3.33c-2.47-0.71-4.95-1.05-7.58-1l-2.59-5.17l-1.29-2.58l-1.41-2.52
	l-2.82-5.04c-0.45-0.85-0.97-1.66-1.48-2.48l-1.52-2.45c1.18,0.27,2.32,0.69,3.44,1.19c1.12,0.5,2.24,1.07,3.28,1.72
	c2.11,1.27,4.22,2.65,6.49,3.7c1.01,0.47,2.16,0.88,3.36,1.17c1.18,0.3,2.4,0.49,3.58,0.47c2.37-0.03,4.59-0.86,5.86-3.17
	c1.36-2.43,0.73-4.49-0.65-6.08c-1.39-1.59-3.59-2.67-5.6-3.13c-1.79-0.43-3.68-0.66-5.51-0.79c-1.84-0.13-3.68-0.12-5.49-0.01
	c-3.63,0.22-7.18,0.9-10.6,1.9l-0.02,0.01c-0.27-0.42-0.52-0.86-0.8-1.28l-0.86-1.24l-1.71-2.48l-1.7-2.48
	c-0.56-0.83-1.13-1.66-1.75-2.45c-2.45-3.19-4.75-6.47-7.37-9.51c1.27,0.36,2.8,0.79,4.4,1.16c1.57,0.39,3.18,0.73,4.68,0.83
	c2.99,0.19,5.47-0.55,5.73-3.75c0.15-2.05-0.63-3.36-2.01-4.01c-1.38-0.66-3.28-0.74-5.26-0.5c-3.97,0.49-8.27,2.29-9.7,3.12
	c-0.1,0.06-0.19,0.13-0.26,0.21c-1.29-1.64-2.74-3.14-4.11-4.7l-2.08-2.32c-0.7-0.77-1.37-1.56-2.12-2.29
	c-2.93-2.95-5.76-6-8.86-8.78c1.48,0.33,3.13,0.75,4.77,1.1c1.6,0.39,3.2,0.7,4.65,0.73c2.9,0.05,5.22-1,5.55-4.94
	c0.19-2.4-0.66-3.8-2.1-4.44c-1.47-0.62-3.49-0.52-5.59-0.04c-4.21,0.95-8.75,3.43-10.27,4.35c-0.1,0.06-0.18,0.13-0.25,0.21
	c-8.22-7.4-16.97-14.21-26.17-20.37c-0.41-0.27-0.81-0.54-1.21-0.81c1.53-0.03,3.08-0.02,4.63,0.02c1.54,0.02,3.07,0.24,4.61,0.43
	c1.54,0.19,3.1,0.35,4.65,0.34c3.2-0.04,7.2-1.84,6.31-5.62c-0.46-1.93-1.96-3.24-3.74-4.02c-0.89-0.39-1.86-0.65-2.8-0.79
	c-0.95-0.15-1.91-0.12-2.75-0.03c-5.61,0.65-10.46,4.24-14.95,7.02c-8.17-5.14-16.7-9.72-25.45-13.9c1.1,0.12,2.23,0.33,3.4,0.48
	c1.18,0.15,2.39,0.28,3.6,0.35c2.42,0.15,4.86,0.1,6.94-0.15c4.18-0.58,7.28-2.53,6.49-7.36c-0.41-2.4-1.98-3.62-3.92-4.05
	c-1.97-0.39-4.26-0.07-6.11,0.39c-1.77,0.44-3.46,1.05-5.12,1.71c-1.67,0.68-3.33,1.46-4.97,2.13c-1.65,0.68-3.3,1.27-5,1.64
	c-0.85,0.19-1.71,0.32-2.58,0.39c-0.88,0.09-1.79,0.13-2.72,0.08c-0.8-0.32-9.2-3.65-15.2-6.04c0.04,0.01,0.08,0.01,0.12,0.01
	c2.28,0.26,4.55,0.3,6.72-0.01c0.89-0.13,1.82-0.39,2.69-0.78c0.87-0.36,1.68-0.83,2.35-1.43c1.35-1.19,2.15-2.83,1.64-4.89
	c-0.23-0.91-0.68-1.65-1.27-2.24c-0.61-0.56-1.36-0.98-2.19-1.27c-1.66-0.59-3.61-0.69-5.26-0.54c-2.73,0.21-5.45,1.17-7.89,2.25
	c-0.35,0.15-2.17,1.19-3.88,2.21c-0.85,0.51-1.68,1.02-2.29,1.4c-0.61,0.38-1.01,0.65-1.02,0.68c-0.5-0.53-1.13-0.32-1.47,0.14
	l-5.28-0.69l-2.64-0.34c-0.88-0.12-1.77-0.16-2.65-0.24l-5.3-0.43l-2.64-0.21l-2.65-0.08c-0.23-0.16-0.45-0.32-0.69-0.48
	c1.07-0.26,2.13-0.56,3.19-0.91c1.06-0.33,2.1-0.66,3.12-1.08c2.05-0.81,4.02-1.84,5.82-3.12c1.37-0.97,2.73-2.53,3.3-4.12
	c0.57-1.61,0.37-3.37-1.44-4.67c-1.68-1.23-3.73-1.27-5.69-0.76c-1.95,0.51-3.8,1.55-5.17,2.61c-4.2,3.17-6.8,7.51-7.9,12.32
	c-0.01,0.01,0,0.03-0.01,0.05c-2.09-0.11-4.2-0.01-6.29,0.02l-6.28,0.13l-6.26,0.43l-3.13,0.21c-1.04,0.06-2.08,0.23-3.11,0.33
	c1.01-0.57,2.02-1.21,3.04-1.74l3.09-1.62c1.48-0.77,3.08-1.49,4.66-2.26c0.79-0.37,1.58-0.8,2.35-1.18
	c0.77-0.38,1.52-0.8,2.23-1.25c2.77-1.76,4.45-5.26,0.94-7.45c-1.01-0.63-2.13-0.89-3.28-0.89c-1.15,0.02-2.34,0.35-3.5,0.79
	c-2.31,0.9-4.45,2.38-5.97,3.53c-0.54,0.41-1.06,0.83-1.55,1.27c-0.49,0.45-0.96,0.93-1.41,1.42c-0.89,0.97-1.7,2-2.42,3.07
	c-1.44,2.14-2.53,4.46-3.31,6.92c-0.96,0.12-1.92,0.2-2.87,0.35l-2.85,0.48l-5.7,0.95c-0.95,0.14-1.89,0.37-2.83,0.57l-2.82,0.61
	c-1.88,0.42-3.77,0.78-5.63,1.25c1.25-2.09,3.01-3.74,4.87-5.41c0.94-0.83,1.88-1.66,2.82-2.49c0.47-0.42,0.93-0.85,1.38-1.29
	c0.45-0.44,0.9-0.85,1.33-1.3c1.51-1.58,3.01-3.77,3.72-6.05c0.7-2.28,0.61-4.64-1.2-6.55c-1.87-1.98-4.04-2.13-5.99-1.35
	c-1.94,0.87-3.64,2.66-4.7,4.45c-1.91,3.24-3.29,6.59-4.2,10.13c-0.91,3.55-1.37,7.16-1.47,10.74l0.01,0.03
	c-1.94,0.53-3.89,1.01-5.82,1.57l-5.74,1.82l-2.87,0.9c-0.95,0.32-1.89,0.69-2.83,1.03l-5.65,2.07c1.48-2.14,3.6-5.17,4.71-8
	c1.09-2.82,1.16-5.43-1.79-6.62c-3.81-1.52-5.79,1.63-6.55,5.5c-0.77,3.91-0.36,8.63-0.01,10.24c0.02,0.12,0.07,0.22,0.12,0.32
	l-5.76,2.41c-1.9,0.85-3.77,1.77-5.65,2.65l-2.82,1.33c-0.95,0.43-1.85,0.96-2.77,1.43l-5.52,2.9c1.56-2.57,3.72-5.61,4.65-8.4
	c0.46-1.41,0.64-2.68,0.23-3.85c-0.4-1.15-1.4-2.21-3.22-2.96c-4.43-1.78-6.25,1.7-6.64,5.94c-0.22,2.1-0.04,4.52,0.2,6.55
	c0.25,2.04,0.6,3.75,0.81,4.63c0.02,0.11,0.07,0.21,0.12,0.3c-4.82,2.71-9.46,5.72-14.08,8.77l-6.8,4.76l-6.59,5.05
	c-0.38,0.3-0.79,0.57-1.15,0.89c0.44-1.47,0.95-2.9,1.48-4.35c0.53-1.42,1.18-2.84,1.81-4.28c0.32-0.72,0.63-1.45,0.92-2.17
	c0.31-0.71,0.59-1.42,0.83-2.15c0.98-3.01,0.52-7.34-3.39-7.7c-1-0.09-1.93,0.11-2.77,0.51c-0.42,0.2-0.82,0.45-1.2,0.74
	c-0.37,0.31-0.71,0.65-1.02,1.03c-1.27,1.49-2.11,3.42-2.47,5.07c-1.21,5.41,0.86,11.3,2.09,16.4l-2.79,2.31
	c-0.94,0.76-1.8,1.61-2.7,2.41c-1.78,1.63-3.61,3.21-5.37,4.88l-5.19,5.08c-0.88,0.83-1.71,1.72-2.53,2.6l-2.49,2.64
	c0.49-0.97,1-2.02,1.48-3.11c0.5-1.08,0.93-2.25,1.42-3.34c0.93-2.22,1.69-4.51,2.03-6.62c0.17-1.06,0.24-2.07,0.17-3.01
	c-0.07-0.94-0.24-1.77-0.61-2.52c-0.73-1.49-2.16-2.58-4.6-2.96c-4.8-0.66-6.31,4.65-6.57,8.42c-0.21,3.67,0.34,7.29,0.56,10.8
	c0.06,0.88,0.08,1.74,0.1,2.63c0.02,0.89,0.01,1.77-0.06,2.64c-0.14,1.75-0.49,3.48-1.2,5.19c-0.63,0.71-7.11,8.87-10.91,13.67
	c0.19-0.39,0.37-0.78,0.54-1.18c0.92-2.11,1.58-4.31,2.04-6.41c0.68-3.49-0.49-8.24-4.65-8.54c-1.85-0.12-3.32,0.82-4.42,2.2
	c-0.55,0.69-1.03,1.47-1.37,2.31c-0.34,0.84-0.59,1.71-0.76,2.53c-0.56,2.72-0.59,5.54-0.36,8.17c0.03,0.37,0.49,2.45,0.95,4.4
	c0.23,0.98,0.47,1.92,0.65,2.63c0.09,0.35,0.17,0.64,0.23,0.85c0.06,0.21,0.1,0.32,0.11,0.33c-0.67,0.3-0.68,0.96-0.36,1.42
	c-0.4,0.79-0.82,1.57-1.21,2.37l-1.1,2.43l-2.2,4.84c-0.77,1.6-1.36,3.27-2.03,4.91l-1.96,4.93c-0.23,0.17-0.46,0.32-0.69,0.49
	c0.24-2.16,0.3-4.38,0.13-6.59c-0.16-2.21-0.6-4.44-1.18-6.51c-0.94-3.17-4.04-7.05-7.77-4.5c-0.86,0.6-1.51,1.36-1.88,2.26
	c-0.38,0.9-0.57,1.89-0.61,2.9c-0.09,2.03,0.36,4.13,0.88,5.73c0.77,2.45,2.07,4.67,3.66,6.58c1.59,1.9,3.49,3.49,5.61,4.77
	c0.01,0.01,0.03,0.01,0.04,0.02c-2.83,7.91-4.88,16.05-6.72,24.19c-0.47-2.27-0.86-4.54-1.27-6.86c-0.28-1.65-0.53-3.41-0.73-5.14
	c-0.19-1.73-0.43-3.45-0.86-5.1c-0.85-3.2-3.68-5.88-6.8-3.2c-1.78,1.55-2.35,3.95-2.23,6.42c0.17,2.48,0.94,4.99,1.57,6.79
	c0.91,2.56,2.13,4.84,3.78,6.88c1.61,2.03,3.49,3.78,5.6,5.28c-1.48,7.58-2.32,15.25-2.97,22.91c-1.55-1.83-2.65-4.02-3.67-6.29
	c-0.51-1.15-1.02-2.3-1.53-3.45c-0.48-1.14-0.98-2.27-1.58-3.36c-1.05-1.93-2.69-4.03-4.65-5.4c-1.96-1.37-4.24-2.01-6.6-0.87
	c-2.45,1.18-3.24,3.2-3.08,5.3c0.12,2.09,1.38,4.27,2.75,5.83c2.5,2.81,5.33,5.16,8.37,7.11c1.51,0.97,3.09,1.85,4.74,2.63
	c1.64,0.78,3.31,1.47,5,2.07l0.03,0l-0.26,6.02l-0.07,1.5l0,1.51l0.01,3.01c0.01,2.01,0,4.01,0.03,6.02l0.3,6.01
	c-1.59-2.07-3.91-5.03-6.21-6.95c-2.28-1.91-4.71-2.78-6.84-0.34c-0.7,0.78-1.03,1.55-1.11,2.29c-0.08,0.74,0.09,1.45,0.44,2.13
	c0.72,1.35,2.19,2.53,3.92,3.5c3.47,1.94,8,3.01,9.64,3.19c0.12,0.01,0.23,0,0.34-0.02c0.75,8.3,1.62,16.57,3.27,24.73
	c-1-1.14-2.07-2.45-3.2-3.7c-1.13-1.25-2.18-2.45-3.35-3.33c-2.3-1.75-4.79-2.27-7.39,0.72c-3.22,3.68-0.36,6.47,3.58,8.16
	c3.96,1.72,9.08,2.38,10.85,2.53c0.12,0.01,0.22,0,0.32-0.02c2.31,10.82,5.39,21.47,9.22,31.85c0.17,0.46,0.34,0.91,0.51,1.37
	c-1.26-0.87-2.51-1.78-3.75-2.73c-1.24-0.92-2.32-2.01-3.47-3.06c-1.14-1.06-2.31-2.1-3.57-3c-2.62-1.85-6.91-2.74-8.41,0.84
	c-0.76,1.83-0.31,3.77,0.67,5.45c0.99,1.68,2.49,3.11,4.01,3.93c4.93,2.77,10.99,2.7,16.22,3.1c3.64,8.94,7.82,17.67,12.46,26.19
	c-1.56-1.53-3.29-3.24-5.18-4.78c-0.94-0.77-1.91-1.51-2.88-2.17c-0.95-0.67-1.88-1.29-2.82-1.79c-3.73-1.98-7.39-2.22-9.58,2.16
	c-1.09,2.19-0.49,4.08,0.79,5.59c1.36,1.47,3.42,2.55,5.18,3.26c1.69,0.68,3.42,1.18,5.16,1.61c1.72,0.45,3.55,0.77,5.27,1.2
	c1.73,0.42,3.42,0.91,5.02,1.6c0.8,0.34,1.57,0.74,2.32,1.2c0.74,0.46,1.52,0.95,2.24,1.54c0.53,0.83,7.11,10.42,10.62,15.54
	c-0.65-0.61-1.32-1.21-1.95-1.81c-1.69-1.55-3.51-2.91-5.45-3.94c-0.8-0.42-1.71-0.75-2.63-0.95c-0.91-0.22-1.84-0.31-2.74-0.23
	c-1.79,0.17-3.4,1.03-4.2,2.99c-0.35,0.87-0.42,1.73-0.28,2.56c0.15,0.82,0.53,1.59,1.02,2.32c1,1.45,2.51,2.68,3.94,3.52
	c2.33,1.43,5.1,2.25,7.7,2.81c0.37,0.08,2.46,0.32,4.43,0.49c0.99,0.09,1.95,0.17,2.67,0.21c0.36,0.03,0.67,0.03,0.88,0.04
	c0.22,0.01,0.34,0,0.35,0c0.09,0.72,0.73,0.92,1.27,0.75l3.85,3.68c0.65,0.61,1.27,1.24,1.94,1.82l2.01,1.75l4.01,3.48l1,0.87
	l1.04,0.82l2.08,1.65c0.09,0.27,0.18,0.52,0.27,0.8c-1.01-0.43-2.04-0.82-3.1-1.16c-0.53-0.17-1.06-0.33-1.6-0.48
	c-0.53-0.15-1.05-0.32-1.59-0.45c-2.13-0.56-4.32-0.89-6.53-0.93c-3.34-0.04-8.03,1.74-6.68,6.01c1.29,3.98,6.43,5,9.87,4.89
	c5.24-0.06,9.89-2.02,13.61-5.26c0.01-0.01,0.02-0.03,0.04-0.03l5.12,3.67l2.55,1.83c0.86,0.59,1.76,1.15,2.63,1.72l5.27,3.41
	c1.78,1.09,3.61,2.12,5.4,3.18c-2.29-0.27-4.64-0.51-6.97-0.84c-3.28-0.53-6.8-1.51-10.23-1.65c-3.26-0.23-6.67,1.6-5.14,5.47
	c0.89,2.2,3.09,3.37,5.45,4.04c2.38,0.65,4.95,0.77,6.9,0.66c2.74-0.11,5.32-0.62,7.73-1.48c2.4-0.86,4.64-2.08,6.74-3.65l5.13,2.68
	c0.86,0.44,1.7,0.91,2.57,1.33l2.62,1.22l5.23,2.44c1.76,0.78,3.56,1.47,5.33,2.22c-2.23,0.93-4.68,1.35-7.15,1.6
	c-2.45,0.21-4.97,0.32-7.42,0.8c-2.18,0.43-4.7,1.38-6.59,2.76c-1.9,1.42-3.21,3.38-2.88,6.01c0.16,1.38,0.68,2.38,1.41,3.11
	c0.73,0.73,1.66,1.18,2.69,1.42c2.06,0.47,4.47,0.06,6.37-0.74c6.91-3.04,12.51-7.94,16.86-13.56l0.01-0.03
	c0.92,0.4,1.88,0.7,2.83,1.05l2.84,1.02l2.83,1.02l1.42,0.51l1.44,0.44c3.85,1.15,7.64,2.45,11.55,3.37c-1.23,0.46-2.73,1-4.24,1.65
	c-1.5,0.62-3,1.28-4.27,2.08c-2.53,1.6-4.11,3.65-2.44,6.4c1.08,1.75,2.47,2.36,3.99,2.07c1.51-0.28,3.09-1.33,4.55-2.69
	c2.93-2.72,5.34-6.71,6.02-8.23c0.05-0.11,0.07-0.22,0.09-0.33c2,0.57,4.06,0.94,6.09,1.38c2.04,0.42,4.06,0.9,6.11,1.26l6.15,1.01
	c1.03,0.16,2.05,0.35,3.08,0.5l3.1,0.36c-0.7,0.3-1.44,0.62-2.2,0.94c-0.76,0.32-1.54,0.66-2.3,0.96c-1.52,0.63-3,1.32-4.2,2.16
	c-2.38,1.67-3.64,3.89-1.58,7.26c1.26,2.05,2.78,2.66,4.32,2.36c1.55-0.32,3.13-1.63,4.54-3.25c2.85-3.26,5.05-7.95,5.74-9.59
	c0.05-0.11,0.07-0.21,0.08-0.31c11,1.14,22.08,1.5,33.15,1.12c0.49-0.03,0.97-0.06,1.45-0.08c-0.61,0.47-1.23,0.94-1.85,1.4
	c-0.63,0.46-1.26,0.86-1.9,1.29c-2.52,1.64-5.46,2.99-7.94,4.86c-2.57,1.89-4.74,5.58-1.79,8.23c0.38,0.33,0.78,0.6,1.21,0.8
	c0.43,0.19,0.87,0.31,1.33,0.38c0.92,0.14,1.89,0.07,2.84-0.15c1.9-0.44,3.72-1.48,4.97-2.59c0.52-0.46,1-0.95,1.45-1.47
	c0.45-0.53,0.87-1.1,1.26-1.69c0.78-1.17,1.46-2.42,2.07-3.69c1.22-2.55,2.18-5.23,3.18-7.65c9.62-0.68,19.26-1.77,28.76-3.7
	c-1.95,0.98-4.09,2.21-6.14,3.52c-2.06,1.24-4.02,2.64-5.54,4.14c-3.03,3.02-4.4,6.39-0.92,9.82c1.74,1.69,3.71,1.68,5.54,0.89
	c0.91-0.39,1.79-0.98,2.59-1.65c0.8-0.66,1.53-1.41,2.14-2.17c2.33-2.84,4.02-6.09,5.91-9.05c0.95-1.46,1.93-2.95,3.07-4.29
	c1.14-1.34,2.44-2.53,4.02-3.5c0.84-0.19,9.83-2.58,16.2-4.29c-0.16,0.09-0.32,0.18-0.48,0.27c-0.99,0.59-1.94,1.22-2.84,1.9
	c-0.9,0.69-1.78,1.33-2.57,2.09c-2.59,2.43-4.45,6.97-1.25,9.65c1.43,1.18,3.17,1.28,4.87,0.81c0.85-0.23,1.69-0.6,2.47-1.05
	c0.77-0.48,1.48-1.04,2.1-1.61c2.05-1.88,3.72-4.15,5.08-6.42c0.2-0.3,1.05-2.25,1.82-4.11c0.38-0.93,0.75-1.84,1.01-2.52
	c0.13-0.34,0.24-0.62,0.31-0.82c0.07-0.2,0.11-0.32,0.11-0.33c0.72,0.15,1.12-0.38,1.12-0.95l2.37-1.21
	c0.79-0.41,1.55-0.87,2.32-1.31l4.62-2.64c0.76-0.45,1.55-0.86,2.29-1.34l2.24-1.43l4.48-2.85c0.28,0,0.56,0,0.85,0.01
	c-1.45,1.61-2.81,3.38-3.97,5.27c-0.58,0.95-1.11,1.93-1.59,2.93c-0.48,1.01-0.93,1.98-1.28,3.02c-1.09,3.12-0.86,8.09,3.65,8.2
	c1.05,0.02,2.01-0.25,2.86-0.71c0.83-0.5,1.57-1.2,2.2-2c1.27-1.59,2.12-3.57,2.64-5.17c0.4-1.23,0.67-2.47,0.83-3.71
	c0.14-1.26,0.16-2.52,0.07-3.75c-0.17-2.47-0.78-4.88-1.75-7.16c0-0.02-0.02-0.03-0.02-0.04c6.93-4.74,13.37-10.13,19.64-15.63
	c-0.95,2.11-1.98,4.18-3,6.3c-0.74,1.5-1.57,3.07-2.43,4.58c-0.86,1.51-1.68,3.05-2.29,4.63c-1.18,3.09-0.47,6.92,3.63,6.58
	c2.35-0.2,4.21-1.83,5.57-3.88c1.32-2.11,2.17-4.58,2.71-6.42c0.39-1.3,0.66-2.6,0.83-3.89c0.18-1.28,0.2-2.62,0.15-3.9
	c-0.11-2.59-0.6-5.11-1.42-7.56c2.87-2.58,5.48-5.43,8.18-8.17c1.37-1.35,2.6-2.84,3.89-4.27l3.82-4.32c0.19,2.4-0.24,4.8-0.75,7.23
	c-0.52,2.43-1.13,4.92-1.49,7.34c-0.29,2.17-0.2,4.83,0.57,7.1c0.78,2.26,2.25,4.12,4.82,4.59c2.68,0.49,4.51-0.67,5.62-2.45
	c1.1-1.79,1.38-4.28,1.19-6.34c-0.36-3.73-1.25-7.29-2.56-10.66c-1.36-3.41-3.11-6.6-5.13-9.55l-0.02-0.02
	c1.26-1.57,2.54-3.11,3.78-4.69l3.58-4.85l1.79-2.42l1.68-2.5l3.36-4.98c0.06,2.6,0.12,6.3,0.88,9.24c0.77,2.92,2.25,5.07,5.34,4.3
	c3.98-1,3.73-4.71,2.08-8.29c-1.7-3.64-4.78-7.19-6.01-8.31c-0.09-0.08-0.18-0.14-0.28-0.18l3.26-5.32l3.02-5.46l1.51-2.73
	l1.39-2.79l2.78-5.58c0.24,2.99,0.26,6.72,1.14,9.52c0.45,1.41,1.09,2.57,2.09,3.27c1.01,0.7,2.43,0.97,4.32,0.5
	c4.64-1.16,4.08-5.03,1.91-8.7c-2.22-3.72-6.04-7.29-7.39-8.46c-0.09-0.08-0.18-0.13-0.27-0.17c1.11-2.53,2.31-5.03,3.26-7.63
	l1.52-3.86c0.51-1.29,1.04-2.56,1.46-3.88l2.71-7.84l2.37-7.96c0.13-0.47,0.3-0.93,0.41-1.4c0.5,1.44,0.93,2.9,1.35,4.39
	c0.4,1.46,0.71,2.99,1.04,4.53c0.17,0.77,0.34,1.54,0.54,2.3c0.17,0.75,0.36,1.5,0.59,2.23c0.97,3.02,3.88,6.25,7.26,4.24
	c1.7-1.03,2.6-2.82,2.7-4.79c0.15-1.95-0.3-4.01-0.98-5.55c-2.2-5.09-7.33-8.64-11.33-12.04c1.29-4.66,2.12-9.42,3.15-14.14
	l1.17-7.16l0.3-1.79c0.11-0.6,0.2-1.2,0.26-1.8l0.43-3.61c0.84,4.32,1.76,9.64,3.73,13.47c1.01,1.91,2.11,3.43,3.59,4.21
	c1.47,0.78,3.26,0.81,5.47-0.32c2.2-1.13,2.73-3.02,2.54-5c-0.2-1.99-1.19-4.06-2.18-5.67c-1.93-3.09-4.58-5.69-6.83-8.4
	c-1.15-1.36-2.16-2.74-3.08-4.24c-0.93-1.5-1.68-3.1-2.14-4.9c0.06-0.82,0.62-9.65,1.05-16.42c0.02,0.07,0.03,0.15,0.05,0.23
	c0.3,1.12,0.52,2.23,0.87,3.3c0.33,1.07,0.73,2.11,1.2,3.09c1.56,3.22,5.33,6.37,8.85,4.17c3.1-1.98,2.45-6.5,1.17-9.54
	c-1.13-2.53-2.85-4.82-4.6-6.81c-0.25-0.28-1.78-1.7-3.27-3.01c-0.73-0.66-1.5-1.28-2.07-1.74c-0.29-0.23-0.53-0.42-0.7-0.55
	c-0.17-0.13-0.27-0.21-0.29-0.2c0.36-0.64-0.04-1.18-0.58-1.36l-0.92-5.25l-0.23-1.31l-0.29-1.3l-0.59-2.6l-1.17-5.18
	c-0.18-0.87-0.44-1.71-0.67-2.57l-0.71-2.56c0.09-0.27,0.17-0.53,0.25-0.8C414.38,174.05,414.98,174.97,415.63,175.88z
	 M47.33,116.59c0.03,0.02,0.06,0.04,0.09,0.06c-0.06,0.04-0.12,0.07-0.18,0.11C47.27,116.7,47.3,116.65,47.33,116.59z
	 M414.18,185.03c0.28,1.31,0.63,2.61,0.86,3.93l0.69,3.96c-0.15-0.01-0.32,0.02-0.5,0.11c-2.17,1.14-4.4,2.3-6.42,3.68
	c-1.01,0.69-1.97,1.43-2.84,2.25c-0.87,0.82-1.73,1.73-2.43,2.74c-0.83,1.18-1.71,2.86-2.1,4.55c-0.19,0.84-0.26,1.69-0.13,2.48
	c0.13,0.79,0.38,1.53,0.94,2.16c2.03,2.36,5.57,0.95,7.63-0.71c1.56-1.22,2.78-2.72,3.84-4.37c0.76-1.19,1.43-2.45,2.06-3.76
	c-0.39,6.09-1.27,20.16-1.34,21.1c-0.06,0.17-0.08,0.35-0.04,0.56c-0.11,1.48-0.23,2.96-0.34,4.44c-5.38-0.15-10.77,0.81-15.75,2.83
	c-1.3,0.53-2.94,1.34-4.02,2.4c-1.1,1.06-1.56,2.37-0.7,3.97c0.88,1.65,2.81,1.97,4.87,1.74c2.06-0.23,4.26-1.02,5.61-1.51
	c3.57-1.31,6.77-3.35,9.58-5.99c-1.02,10.09-2.94,20.04-5.31,29.84c-0.44-0.18-0.98-0.06-1.29,0.44c-0.07,0.12-0.15,0.24-0.22,0.36
	c-2.67-0.1-5.33,0.06-7.91,0.46c-2.6,0.4-5.06,1.07-7.57,1.94c-1.56,0.56-3.66,1.43-4.87,2.57c-1.22,1.14-1.51,2.58,0.39,4.37
	c1.44,1.36,3.4,2.1,5.45,2.33c1.03,0.12,2.08,0.11,3.1-0.01c1.01-0.12,1.96-0.35,2.84-0.67c1.95-0.71,3.65-1.85,5.16-3.25
	c1.51-1.4,2.88-3.04,3.98-4.79c-3.05,11.46-6.98,22.66-11.8,33.48c-0.19-0.03-0.39,0.01-0.58,0.09c-0.67-1.07-2.67-1.48-4.69-1.65
	c-2.02-0.17-4.07-0.09-4.91-0.08c-0.98,0.02-2.23,0.05-3.55,0.16c-1.35,0.1-2.8,0.26-4.13,0.56c-2.68,0.6-4.91,1.72-5.29,4.06
	c-0.9,4.4,4.63,6.62,8.43,6.25c2.43-0.21,4.65-0.91,6.85-1.87c2.17-0.98,4.3-2.24,6.2-3.75c-0.88,1.88-1.85,3.73-2.76,5.6l-1.39,2.8
	c-0.45,0.94-1,1.83-1.49,2.74l-3.02,5.47c-1.04,1.81-2.17,3.56-3.24,5.35c-2.18-1.02-4.43-1.78-6.72-2.28c-2.29-0.5-4.6-0.7-7-0.67
	c-1.81,0.04-4.17,0.31-5.97,1.14c-0.9,0.42-1.66,0.97-2.14,1.73c-0.51,0.74-0.77,1.65-0.61,2.84c0.46,3.79,5.4,5.33,8.68,5.45
	c0.9,0.04,1.79,0,2.68-0.1c0.86-0.12,1.72-0.31,2.56-0.55c1.69-0.48,3.35-1.18,4.98-1.97l-3.02,4.48c-0.25,0.37-0.5,0.75-0.76,1.12
	l-0.81,1.09l-1.61,2.17l-3.22,4.35l-3.42,4.21c-0.07-0.05-0.16-0.1-0.26-0.14c-4.53-1.53-10.72-5.01-15.56-4.7
	c-2.91,0.2-5.66,2.31-5.3,5.45c0.47,3.65,3.1,5.27,6.56,5.63c0.86,0.09,1.78,0.12,2.7,0.05c0.91-0.07,1.85-0.21,2.78-0.39
	c1.87-0.36,3.73-0.91,5.39-1.5l-3.49,3.94c-0.59,0.65-1.15,1.33-1.76,1.96l-1.84,1.89l-3.67,3.79c-0.6,0.65-1.25,1.24-1.89,1.84
	l-1.92,1.81c-2.78-3.26-6.53-5.56-10.62-6.63c-1.44-0.36-3.83-0.87-6-0.85c-2.16,0.02-4.1,0.57-4.83,2.36
	c-0.75,1.76-0.01,3.55,1.32,5.09c1.32,1.53,3.21,2.79,4.62,3.4c3.61,1.53,7.5,1.28,11.39,0.46l-1.5,1.28l-4.29,3.68l-1.07,0.92
	l-1.11,0.87l-2.23,1.74c-1.49,1.15-2.96,2.34-4.47,3.47l-4.62,3.27c-1.59-1.79-3.34-3.65-5.24-5.26c-1.9-1.62-3.92-2.96-6.14-3.85
	c-2.64-1.01-6.58-1.4-7.81,1.68c-1.46,3.34,1.86,7.19,4.51,8.96c2.51,1.69,5.34,2.4,8.34,2.73c-4.46,2.96-9.14,5.57-13.84,8.18
	c-0.04-0.15-0.12-0.3-0.26-0.44c-3.54-3.44-7.21-7.1-11.88-8.44c-1.35-0.35-3.26-0.75-4.98-0.61c-1.73,0.13-3.31,0.74-4.15,2.22
	c-0.78,1.38-0.59,2.75,0.1,4c0.69,1.26,1.84,2.32,2.94,3.02c1.62,1.04,3.43,1.77,5.34,2.29c0.96,0.26,1.94,0.47,2.93,0.64
	c0.26,0.05,0.52,0.08,0.78,0.12c-5.42,1.47-19.03,5.1-19.97,5.31c-0.18-0.01-0.35,0.03-0.54,0.13c-1.44,0.33-2.9,0.66-4.34,1
	c-0.76-2.59-1.78-5.09-3.04-7.44c-1.26-2.35-2.75-4.53-4.48-6.62c-1.83-2.16-5.05-5.31-7.51-2.57c-0.64,0.71-0.89,1.53-0.88,2.41
	c0.01,0.89,0.3,1.85,0.73,2.79c0.85,1.9,2.27,3.67,3.15,4.81c2.34,3.01,5.28,5.45,8.65,7.34l-7.47,1.39
	c-1.24,0.26-2.5,0.4-3.75,0.58l-3.75,0.54c-1.25,0.17-2.5,0.38-3.75,0.53l-3.77,0.37l-3.77,0.38l-1.88,0.19l-1.89,0.1
	c0.04-0.47-0.24-0.96-0.82-1.1c-0.13-0.04-0.27-0.07-0.41-0.11c-1.46-5.16-3.85-9.94-7.05-13.98c-1.01-1.27-2.49-3.06-3.96-3.86
	c-1.47-0.82-2.93-0.71-4.05,1.69c-1.72,3.65-0.36,8.38,1.94,11.34c2.55,3.3,6.45,5.19,10.46,6.24c-11.84,0.62-23.72,0.37-35.5-0.83
	c-0.03-0.19-0.13-0.37-0.27-0.53c0.8-0.96,0.58-2.99,0.11-4.98c-0.47-1.99-1.17-3.93-1.44-4.73c-0.64-1.87-1.68-4.75-3.08-7.04
	c-0.71-1.13-1.5-2.19-2.4-2.9c-0.9-0.71-1.92-1.09-3.09-0.93c-4.48,0.62-4.87,6.56-3.32,9.98c1.94,4.3,5.34,8.08,9.4,10.63
	c-4.15-0.4-8.23-1.19-12.35-1.84l-1.54-0.25l-1.53-0.33l-3.06-0.65l-3.06-0.64l-1.53-0.32c-0.51-0.11-1.01-0.26-1.51-0.39
	c0.58-4.79,0.14-9.57-1.45-14.01c-0.6-1.69-1.62-3.76-2.94-5.29c-1.33-1.5-3.02-2.28-5.19-1.21c-3.48,1.69-3.41,6.81-2.49,9.92
	c0.49,1.71,1.27,3.29,2.24,4.78c0.97,1.49,2.13,2.92,3.41,4.15c-1.76-0.41-3.45-1.01-5.18-1.52l-5.17-1.59
	c-1.71-0.57-3.4-1.21-5.1-1.81l-2.55-0.91c-0.85-0.31-1.71-0.59-2.54-0.95c0.03-0.09,0.05-0.18,0.05-0.3
	c0.07-4.82,1.51-11.87-0.33-16.26c-0.57-1.29-1.52-2.53-2.72-3.22c-1.19-0.69-2.62-0.87-4.08-0.16c-3.35,1.62-4.07,4.6-3.33,7.96
	c0.37,1.67,1.09,3.43,2,5.14c0.46,0.84,0.94,1.71,1.47,2.47c0.53,0.77,1.08,1.5,1.63,2.18l-2.44-1c-0.81-0.35-1.59-0.74-2.39-1.1
	l-4.78-2.22c-1.61-0.71-3.15-1.55-4.71-2.37l-4.68-2.44c1.12-1.83,1.93-3.79,2.44-5.84c0.52-2.07,0.73-4.21,0.63-6.35
	c-0.08-1.53-0.35-3.92-1.06-5.94c-0.73-1.98-1.8-3.74-3.7-3.91c-3.81-0.37-5.98,5.19-6.25,8.26c-0.19,1.97,0.06,3.89,0.6,5.74
	c0.57,1.82,1.45,3.54,2.45,5.23l-1.7-0.99l-2.44-1.43l-2.37-1.53l-4.75-3.07c-0.8-0.5-1.56-1.06-2.33-1.61l-2.3-1.65
	c-1.52-1.11-3.1-2.16-4.59-3.33c2.43-4.15,4.97-8.99,5.2-13.67c0.07-1.39-0.14-3.04-0.75-4.38c-0.58-1.38-1.58-2.42-3.23-2.56
	c-3.67-0.31-6.3,4.01-7.14,7.05c-0.41,1.45-0.58,2.92-0.58,4.4c0.01,1.47,0.16,3,0.5,4.43c-4.08-3.45-8.18-6.92-12-10.69
	c0.13-0.08,0.25-0.21,0.34-0.39c2.17-4.41,4.42-8.94,4.36-13.91c-0.03-1.44-0.32-3.31-1.01-4.89c-0.17-0.4-0.38-0.77-0.59-1.12
	c-0.21-0.36-0.45-0.69-0.72-0.99c-0.54-0.59-1.21-1.01-2.03-1.2c-3.05-0.69-5.07,2.52-5.74,5.06c-0.5,1.87-0.7,3.87-0.57,5.83
	c0.06,0.86,0.16,1.72,0.29,2.59c-3.23-4.73-10.56-15.4-11.07-16.2c-0.05-0.17-0.14-0.32-0.3-0.47c-0.39-0.63-0.81-1.24-1.18-1.89
	l-1.11-1.93c4.46-3.06,8.24-6.99,11.04-11.52c0.73-1.19,1.57-2.8,1.81-4.28c0.28-1.51-0.02-2.89-1.68-3.67
	c-1.71-0.8-3.47,0.07-4.99,1.47c-1.52,1.39-2.81,3.31-3.62,4.5c-1.08,1.59-1.99,3.28-2.72,5.05c-0.73,1.77-1.21,3.57-1.56,5.45
	c-0.63-1.1-1.29-2.18-1.89-3.3l-1.76-3.37c-1.16-2.25-2.41-4.45-3.44-6.76c-1.07-2.29-2.18-4.56-3.23-6.85l-2.95-6.97
	c0.46-0.11,0.83-0.52,0.77-1.11c-0.01-0.14-0.02-0.28-0.04-0.42c4.44-2.98,8.29-6.76,11.19-11.07c0.93-1.37,2.03-3.27,2.37-4.92
	c0.35-1.65-0.19-3.01-2.8-3.34c-3.98-0.51-8.07,2.25-10.21,5.35c-0.6,0.86-1.08,1.78-1.47,2.73c-0.19,0.48-0.37,0.96-0.52,1.46
	c-0.13,0.49-0.24,0.98-0.33,1.48c-0.37,2.01-0.43,4.11-0.38,6.2c-4.28-11.05-7.71-22.43-10.17-34.02c0.17-0.09,0.3-0.23,0.41-0.42
	c1.19,0.46,3.01-0.37,4.77-1.42c1.75-1.06,3.4-2.32,4.08-2.83c1.59-1.18,4.02-3.05,5.8-5.1c0.89-1.02,1.59-2.09,1.97-3.17
	c0.41-1.08,0.47-2.17-0.03-3.23c-1.93-4.08-7.71-2.62-10.5-0.1c-1.78,1.59-3.28,3.48-4.53,5.56c-1.19,2.07-2.05,4.32-2.72,6.66
	c-0.37-2.05-0.79-4.09-1.14-6.14l-0.87-6.18l-0.44-3.09l-0.3-3.11l-0.6-6.23c4.68-0.92,9.16-2.82,12.91-5.7
	c1.42-1.09,3.15-2.71,4.09-4.43c0.98-1.74,1.27-3.59-0.4-5.32c-2.64-2.79-7.51-1.13-10.21,0.71c-1.49,0.99-2.77,2.23-3.91,3.61
	c-1.11,1.39-1.99,2.92-2.83,4.53l-0.14-2.7l-0.07-1.35l0-1.35l-0.02-5.41l-0.01-2.71c-0.02-0.9,0.07-1.8,0.09-2.71l0.24-5.42
	c0.09,0,0.19-0.01,0.29-0.04c2.28-0.71,5.16-1.28,7.98-2.06c2.83-0.77,5.54-1.75,7.37-3.31c1.1-0.94,1.91-2.24,2.15-3.6
	c0.24-1.36,0.04-2.75-1.08-3.92c-2.53-2.67-5.61-2.43-8.61-0.69c-3.07,1.71-5.72,4.98-7.7,7.88l0.47-5.25l0.12-1.31l0.18-1.3
	l0.36-2.61l0.72-5.23c0.27-1.74,0.64-3.46,0.95-5.19c4.17,1,8.55,0.65,12.48-0.88c1.37-0.56,3.62-1.55,5.35-2.83
	c1.74-1.29,2.98-2.87,2.52-4.74c-0.44-1.87-2.08-2.88-4.07-3.35c-1.96-0.47-4.25-0.38-5.73-0.03c-3.82,0.88-6.82,3.37-9.49,6.31
	l0.46-1.91l1.31-5.49l0.33-1.38c0.12-0.46,0.26-0.9,0.39-1.36l0.78-2.71l1.57-5.44l1.83-5.36c2.34,0.51,4.85,0.99,7.33,1.19
	c1.24,0.1,2.48,0.13,3.68,0.05c0.6-0.04,1.19-0.1,1.78-0.19c0.6-0.09,1.18-0.2,1.76-0.35c2.74-0.73,6.17-2.71,5.35-5.93
	c-0.79-3.57-5.72-4.73-8.92-4.62c-2.98,0.12-5.73,1.2-8.35,2.69l1.48-3.73l0.74-1.87l0.83-1.83c1.12-2.43,2.2-4.89,3.35-7.32
	c0.12,0.1,0.27,0.17,0.47,0.2c4.89,0.72,10.01,1.53,14.59-0.12c1.31-0.5,3.05-1.32,4.38-2.44c1.33-1.12,2.26-2.54,2.07-4.23
	c-0.33-3.15-3.98-4.06-6.57-3.9c-1.93,0.11-3.82,0.58-5.67,1.28c-0.98,0.38-1.97,0.81-2.94,1.29c2.72-3.44,11.05-14.04,11.38-14.42
	l1.17-1.34c0.15-0.1,0.27-0.23,0.37-0.42c0.98-1.12,1.95-2.24,2.93-3.36c2.14,1.65,4.43,3.07,6.83,4.23
	c2.39,1.16,4.89,2.06,7.52,2.72c2.75,0.67,7.2,1.32,7.58-2.35c0.23-1.88-1.11-3.26-2.93-4.29c-1.81-1.04-4.02-1.65-5.39-2.04
	c-3.66-1.05-7.47-1.3-11.31-0.84l5.22-5.53c1.76-1.81,3.61-3.54,5.41-5.33c1.76-1.81,3.69-3.45,5.56-5.15l2.8-2.54
	c0.94-0.84,1.94-1.62,2.9-2.43c0.25,0.41,0.76,0.63,1.3,0.4c0.13-0.05,0.26-0.11,0.39-0.16c2.1,1.65,4.34,3.09,6.67,4.28
	c2.34,1.21,4.72,2.11,7.27,2.87c1.59,0.46,3.8,0.99,5.46,0.78c1.66-0.21,2.74-1.21,2.26-3.76c-0.36-1.95-1.51-3.7-3.04-5.09
	c-1.52-1.4-3.43-2.45-5.21-2.95c-2-0.58-4.04-0.65-6.09-0.41c-1.02,0.12-2.05,0.32-3.07,0.57c-1.03,0.24-1.99,0.61-2.97,0.97
	c9.2-7.48,18.97-14.24,29.22-20.18c0.14,0.13,0.32,0.22,0.52,0.26c-0.08,1.26,1.29,2.76,2.83,4.08c1.54,1.32,3.24,2.46,3.93,2.94
	c0.81,0.57,1.82,1.24,2.98,1.97c1.15,0.72,2.42,1.43,3.67,1.97c2.52,1.08,4.98,1.47,6.66-0.19c3.32-3.02,0.13-8.08-3.15-9.99
	c-2.09-1.25-4.32-2.03-6.66-2.51c-2.34-0.49-4.78-0.67-7.22-0.61l5.53-2.9l2.76-1.46l2.82-1.33l5.65-2.67l5.76-2.42
	c1.17,2.1,2.54,4.04,4.11,5.79c0.78,0.87,1.61,1.69,2.49,2.46c0.88,0.78,1.82,1.53,2.79,2.21c1.48,1.03,3.56,2.2,5.49,2.58
	c0.97,0.19,1.91,0.18,2.74-0.14c0.85-0.28,1.59-0.88,2.16-1.93c1.85-3.34-1.23-7.49-3.82-9.51c-0.7-0.56-1.45-1.05-2.22-1.49
	c-0.77-0.42-1.57-0.76-2.4-1.06c-1.65-0.6-3.4-1.02-5.19-1.32l5.07-1.86c0.84-0.33,1.7-0.59,2.56-0.86l2.58-0.81l5.17-1.63
	l5.24-1.39c0.03,0.09,0.07,0.18,0.13,0.27c2.77,3.93,5.71,10.33,9.81,12.95c1.23,0.77,2.72,1.15,4.09,0.98
	c0.68-0.09,1.34-0.31,1.92-0.7c0.58-0.38,1.09-0.87,1.48-1.58c1.77-3.21,0.59-6.07-1.99-8.41c-1.29-1.2-2.9-2.1-4.63-2.93
	c-1.72-0.81-3.56-1.47-5.24-1.97c6.85-1.55,13.77-2.86,20.75-3.73c0.33,4.27,2,8.35,4.68,11.64c0.48,0.59,1.13,1.32,1.87,2.05
	c0.37,0.37,0.77,0.73,1.19,1.08c0.42,0.36,0.85,0.72,1.29,1.04c1.77,1.28,3.66,2,5.3,1c3.3-2,1.78-7.74,0.19-10.36
	c-1.01-1.69-2.34-3.07-3.87-4.23c-1.53-1.14-3.26-2.17-5.06-2.87c0.65-0.07,1.3-0.18,1.96-0.21l5.63-0.38
	c1.88-0.11,3.76-0.32,5.65-0.31l5.66-0.11l2.83-0.06l2.83,0.08c0.48,4.78,1.28,10.18,3.85,14.07c1.56,2.25,4.5,5.02,7.3,3.28
	c3.16-1.93,2.73-6.96,1.62-9.91c-1.04-2.81-2.91-5.14-5.14-7.2l8.01,0.64c0.67,0.06,1.34,0.09,2,0.18l1.99,0.26l3.99,0.52
	c-0.06,0.14-0.08,0.32-0.05,0.51c0.43,2.41,0.84,4.88,1.53,7.22c0.69,2.33,1.63,4.65,3.12,6.6c0.87,1.14,2.2,2.48,3.69,3.35
	c0.75,0.42,1.52,0.78,2.3,0.94c0.78,0.15,1.57,0.11,2.35-0.23c2.87-1.24,2.62-5.02,1.67-7.47c-0.69-1.81-1.71-3.54-2.96-5.05
	c-0.92-1.11-1.95-2.15-3.03-3.16c4.29,1.7,18.79,7.46,19.75,7.85c0.14,0.11,0.31,0.18,0.52,0.2l2.07,0.83
	c0.68,0.31,1.35,0.61,2.03,0.92c-1.82,5.09-2.57,10.5-2.19,15.81c0.1,1.39,0.37,3.19,1.04,4.52c0.67,1.36,1.72,2.33,3.52,1.98
	c1.85-0.35,2.76-2.09,3.18-4.11c0.42-2.02,0.33-4.33,0.29-5.77c-0.06-1.93-0.31-3.82-0.76-5.69c-0.46-1.82-1.12-3.59-1.94-5.31
	l3.47,1.55l3.4,1.71l3.4,1.69l1.7,0.84l1.66,0.92l6.63,3.66l6.47,3.93c-0.31,0.36-0.37,0.91,0.03,1.35l0.27,0.32
	c-1.82,4.98-2.75,10.34-2.56,15.52c0.06,1.65,0.27,3.86,0.98,5.37c0.69,1.54,1.92,2.33,4.23,1.07c3.52-1.92,5.22-6.56,5.12-10.33
	c-0.05-4.27-2.25-7.86-4.79-11.21c9.96,6.44,19.4,13.64,28.22,21.56c-0.09,0.18-0.12,0.37-0.1,0.59c-1.21,0.3-2.23,2.07-3.02,3.96
	c-0.79,1.88-1.37,3.87-1.63,4.68c-0.58,1.89-1.45,4.83-1.67,7.52c-0.18,2.66,0.12,5.21,2.2,6.32c3.98,2.15,7.79-2.43,8.56-6.11
	c0.49-2.33,0.59-4.73,0.37-7.14c-0.1-1.22-0.33-2.39-0.63-3.55c-0.3-1.16-0.66-2.32-1.08-3.45c6.15,5.61,11.8,11.75,17.28,18.04
	c-3.29,3.53-5.74,7.66-7.06,12.19c-0.5,1.71-0.91,4-0.73,6.01c0.2,1.99,1.12,3.62,3.5,4.03c3.81,0.68,6.75-3.51,7.83-6.57
	c0.61-1.67,0.9-3.41,0.99-5.19c0.08-1.77,0-3.61-0.32-5.36l0.86,1.04c0.28,0.35,0.54,0.72,0.82,1.08l1.62,2.16l3.26,4.32l3.06,4.46
	l1.53,2.23l0.77,1.12l0.71,1.15c-0.07,0.05-0.15,0.12-0.21,0.21c-2.88,3.86-8.18,8.72-9.25,13.35c-0.67,2.81,0.3,6.17,3.52,6.73
	c3.67,0.65,6-1.34,7.36-4.49c0.68-1.57,1.12-3.42,1.39-5.33c0.13-0.95,0.22-1.92,0.27-2.87c0.02-0.93,0-1.85-0.05-2.71
	c0.46,0.75,0.94,1.49,1.39,2.24l1.29,2.3l2.58,4.6l0.65,1.15l0.59,1.18l1.18,2.36l2.37,4.72c-3.94,1.63-7.31,4.5-9.66,8.07
	c-0.83,1.28-2.01,3.38-2.62,5.42c-0.56,2.03-0.77,4.09,0.69,5.34c2.87,2.53,7.89-0.69,9.91-3.02c1.31-1.49,2.23-3.18,2.88-5
	c0.64-1.82,0.91-3.72,1.09-5.68l0.8,1.8c0.37,0.86,0.78,1.71,1.13,2.59l1.02,2.63l2.05,5.27c0.67,1.76,1.21,3.57,1.83,5.35
	c0.58,1.8,1.23,3.57,1.76,5.39c-4.41,1.92-9.31,4.35-12.25,8c-0.87,1.08-1.69,2.55-1.96,3.98c-0.33,1.45-0.15,2.89,1.1,3.96
	c2.78,2.42,7.45,0.46,9.93-1.5c1.19-0.93,2.19-2.02,3.06-3.22c0.88-1.2,1.62-2.52,2.19-3.88c0.39,1.28,0.66,2.59,0.96,3.9
	L414.18,185.03z M107.47,119.65c-44.08,0-25.81,92.9-23.53,103.43c4.21,16.16,12.29,24.94,27.04,24.94c0.7,0,1.4-0.18,2.11-0.18
	C151.72,244.51,146.45,119.65,107.47,119.65z M127.66,208.51c-1.58,8.25-5.44,28.8-17.21,29.85c-0.53,0-1.23,0.18-2.11,0
	c-8.78-0.88-14.58-17.56-15.98-23.35c-3.34-12.82-12.47-83.24,14.05-85.7h1.41C132.76,129.31,130.47,194.46,127.66,208.51z
	 M194.22,250.48c-10.89-32.84-23.18-64.97-33.72-97.99l-1.23,100.1c-4.04,9.13-10.19,4.39-10.36-0.88l4.39-126.26
	c3.34-6.32,8.43-0.7,10.18,1.76c10.54,30.2,17.74,60.94,30.56,92.37l1.76-24.58c1.93-22.13,2.11-41.27,1.93-63.39
	c0.7-2.99,3.86-4.39,6.67-4.39c2.11,0,3.86,0.53,4.92,2.28c-3.16,37.93-4.57,78.32-5.79,118.71l-0.18,2.28
	c-0.35,0.88-2.63,3.34-4.21,3.34C197.55,253.81,194.92,251.71,194.22,250.48z M229.33,197.09c0-25.11-2.46-41.27-2.46-66.38v-8.96
	c28.1-2.28,31.26-0.35,31.26,3.51c0,1.23-0.88,3.86-2.11,4.39h-19.14c-1.23,0-1.23,0.88-1.23,1.4c0,18.61,1.76,32.31,2.81,51.45
	c2.63,0.7,17.38,0.18,20.37,0.18c5.97,0.18,10.01,10.36,1.93,10.36h-22.3l0.35,41.09c4.21,1.05,26.52-3.34,26.52,4.39
	c0,2.11-1.05,4.22-3.34,4.57h-0.88c-6.5,0.53-31.43,2.46-31.61-2.63l-0.18-8.6V197.09z M308.06,224.12c-12.87,2-34-55.12-19.13-64.8
	c14.88-9.68,24.5,24.24,24.5,24.24s17.09-32.62,30.46-20.92C357.27,174.34,320.94,222.13,308.06,224.12z M222.41,316.92
	c-1.78-1.48-3.86-2.67-5.93-3.26c-0.44-0.15-6.08-0.89-6.08-0.74v-1.48c0-2.37,0.3-4.89,0.74-7.42c1.04-8.16,1.63-16.46,3.11-24.47
	c0.45-2.22,1.63-5.34-0.74-6.82c-0.59-0.44-1.19-0.44-1.78-0.59c-2.37-0.3-4.6-1.19-6.23,1.04c-4.45,5.78-7.71,11.87-11.87,17.8
	c-1.19,1.78-2.37,3.56-4.15,4.75c-0.59,0.3-1.33,0.59-1.78,0c-0.3-0.3-0.15-0.89-0.15-1.33c0.44-2.97,1.04-5.93,1.78-8.75
	c0.59-2.37,1.63-4.75,1.93-7.12c0.44-4.15-3.56-4.15-6.38-4.89c-3.11-0.74-4.15,5.19-4.89,7.56c-1.19,3.71-1.78,7.42-2.08,11.27
	c-0.15,2.22,0,4.75,1.04,6.82c0.15,0.59,0.45,1.04,0.89,1.48c1.48,1.63,5.04,2.97,7.27,2.82c5.04-0.3,8.75-6.23,11.57-10.08
	l4.3-5.78c0.3,1.78-0.3,3.41-0.59,5.04c-1.04,6.53-1.33,13.35-2.22,20.02l-4,2.37c-1.48,1.19-3.12,2.22-4.6,3.41
	c-2.82,2.52-5.19,5.49-7.12,8.75c-1.33,2.52-2.52,5.19-2.97,8.16c-0.45,2.97-0.15,6.08,1.19,8.6c2.67,5.04,10.98,6.23,15.13,3.12
	c3.71-2.67,6.97-6.38,8.9-10.98c2.08-5.19,2.97-11.57,4.15-17.05c2.97-0.89,6.38-0.3,8.9,1.78c0.74,0.45,1.33,1.04,2.08,1.04
	c0.74,0.15,1.63-0.15,2.08-0.89C224.93,319.44,223.59,317.81,222.41,316.92z M198.53,332.05c-0.74,2.22-1.63,4.15-2.67,5.93
	c-2.82,4.45-7.71,2.82-7.56-2.67c0.15-2.08,0.89-4,1.93-5.78c2.52-4.15,5.93-7.56,9.94-9.79
	C200.16,323.74,199.72,328.04,198.53,332.05z M341.21,277.76c-6.97,5.78-12.31,13.05-18.54,19.43c-2.23,2.08-4.3,4.3-6.53,6.38
	c-1.19,1.04-2.22,2.08-3.41,2.97c0,0.15-2.52,2.08-2.52,1.63c0.3-1.63,1.04-3.41,1.48-5.04c1.33-4.3,3.26-8.45,5.19-12.61
	c0.89-1.93,2.52-4.75,1.04-6.82c-1.19-1.63-3.12-2.82-4.89-3.86c-1.19-0.59-3.26-1.19-4.15-2.22c1.33-3.11,2.97-6.08,3.12-9.64
	c0.15-3.11-1.04-6.53-3.71-8.45c-2.08-1.33-4.89-1.63-7.27-0.74c-2.37,1.04-3.56,2.37-4.15,4.89c-1.33,4.6-0.3,9.05,2.08,13.2
	c0.49,0.95,1.08,1.78,1.73,2.55c-1.12,1-2.17,2.04-3.21,3.08l-0.3,0.45c-5.34,5.49-10.09,11.72-14.98,17.65
	c-0.45,0.3-0.74,0.74-1.19,1.04c-3.26,1.19-1.93-5.93-1.78-7.27c0.15-2.67,0.44-5.49,0.74-8.16c0.45-3.71,1.33-7.42,1.78-11.12
	c0.15-0.89,0.15-1.93,0-2.67c-0.3-1.48-1.48-1.48-2.82-1.78c-0.45-0.15-0.89-0.15-1.48-0.15c-0.45-0.15-0.89,0-1.19,0.3
	c-0.15,0-0.15,0-0.15-0.15c-0.74-0.74-1.63-0.89-2.52-1.04c-1.48-0.45-2.82-0.74-4.15-0.89c-3.11-0.45-6.38-0.74-9.2,0.59
	c-2.67,1.33-4.75,3.56-6.23,6.23c-0.37,0.72-0.71,1.46-1.02,2.21c-0.01,0-0.01,0.01-0.02,0.01c-4.15,3.56-7.56,8.01-11.27,12.16
	c-1.04,1.04-2.08,2.22-3.11,3.41c-1.48,1.63-3.56,3.86-5.64,4.75c-2.37,1.19-3.11-2.22-3.56-4c-0.74-3.41-0.15-7.86,0-7.86
	c1.63-0.59,3.26-1.19,4.75-2.08c1.33-0.89,2.67-1.93,3.71-2.97c1.04-0.89,1.78-1.93,2.37-3.11c1.63-3.86-1.19-8.01-4.89-9.2
	c-3.71-1.19-8.16,1.19-10.53,3.86c-2.67,2.97-4,6.67-4.89,10.38c-0.74,3.26-1.04,6.67-0.44,9.94c0.59,3.26,2.08,6.38,4.75,8.45
	c4.15,3.26,9.49,2.52,13.35-0.74c2.97-2.37,5.64-5.04,8.16-7.86c0-0.15,0.15-0.15,0.15-0.15l1.78-1.93c1.05-1.18,2.1-2.24,3.15-3.29
	c-0.01,0.36-0.04,0.71-0.04,1.07c-0.15,2.97,0.3,6.08,2.52,8.01c1.33,1.19,3.56,1.63,5.34,1.19c1.93-0.59,3.41-2.08,4.89-3.56
	l8.45-8.9c-0.74,4.6-0.15,15.13,1.63,20.91c0.74,2.37,4.3,3.71,6.53,2.82c0.74-0.3,1.48-0.74,2.08-1.33
	c3.41-2.82,5.93-6.08,8.9-9.49l4.89-5.64c1.63-1.78,3.12-3.86,4.75-5.49c1.43-1.43,2.72-2.73,3.87-4.28
	c1.49,0.98,3.1,1.83,4.73,2.65c-2.08,3.26-3.86,6.67-5.19,10.23c-1.33,3.86-2.22,8.01-1.93,12.01c0,1.19,0.15,2.22,0.45,3.11
	c0.59,2.97,2.97,5.19,6.23,5.04c2.22,0,4-1.33,5.64-2.52c4.15-2.67,7.42-6.82,10.68-10.53c4.75-5.19,9.2-10.68,14.24-15.72
	c1.33-1.48,2.67-2.82,3.86-4.45c0.15,0,0.3-0.15,0.3-0.3c0.45-0.59,0.89-1.19,1.04-1.93C345.06,278.5,342.99,276.43,341.21,277.76z
	 M232.94,273.76c0.74-0.74,1.48-1.33,2.52-1.04c0.89,0.3,1.48,1.04,1.78,1.93c0.15,1.04-0.89,1.93-1.48,2.52
	c-3.11,2.97-5.93,4.15-5.93,4.3C229.97,279.24,230.56,276.72,232.94,273.76z M268.38,279.99c-2.22,2.97-4.45,6.08-7.12,8.9
	c-1.33,1.33-1.63,1.63-1.93,1.48c-0.15-0.3,0-1.04,0-1.33c0.15-0.89,0.15-1.93,0.45-2.82c0.3-1.63,0.89-3.26,1.33-4.75
	c0.45-1.33,0.74-2.67,1.48-4c0.59-1.19,1.33-2.37,2.37-3.41c0.44-0.44,1.04-0.89,1.63-1.04c0.59-0.15,1.33,0,1.93,0
	c1.48,0,2.97,0.3,4.3,1.04C272.69,274.05,268.83,279.39,268.38,279.99z M306.95,267.38c-0.45,1.93-0.74,3.86-1.63,5.64
	c-0.15,0.45-0.44,0.89-0.59,1.33c-0.15,0.15-0.15,0.15-0.3,0.15c-1.19,0.15-2.52-3.71-2.82-4.6c-0.3-1.19-0.44-2.52-0.3-3.71
	c0.44-1.63,1.78-3.56,3.56-3.26C307.09,263.37,307.24,265.6,306.95,267.38z"/>
</svg>
