<svg id="Layer_1" data-name="Layer 1" xmlns="http://www.w3.org/2000/svg" viewBox="0 0 74.79 74.79"><defs><style>.cls-1{fill:#252944;}</style></defs><title>4</title><path class="cls-1" d="M40.88,42.62v9.11h1.25V42.62Z" transform="translate(-0.11 -0.8)"/><path class="cls-1" d="M42.88,42.62v9.11h1.25V42.62Z" transform="translate(-0.11 -0.8)"/><path class="cls-1" d="M44.88,42.62v9.11h1.25V42.62Z" transform="translate(-0.11 -0.8)"/><path class="cls-1" d="M48.1,42.62H46.88v9.11h1.25V39.83l-1.25-1.25v2.83Z" transform="translate(-0.11 -0.8)"/><path class="cls-1" d="M33.12,37.9l-.56-.08-.37-.09-.63-.16-.32-.11-.63-.23-.28-.13c-.2-.09-.41-.18-.53-.25l-.33-.18-.57-.34-.24-.16c-.22-.15-.42-.31-.66-.5l-.09-.08a10.34,10.34,0,0,1-3.73-8V27l-.12.12H22.93v.52a11.62,11.62,0,0,0,4.17,8.91l.11.09c.27.21.5.39.74.55l.25.17c.2.13.42.27.65.4l.33.18c.18.1.41.2.64.3l.33.15.69.25.37.13.69.17.4.1c.23.05.49.08.74.11l.38.06c.36,0,.73,0,1.09,0V38a9.08,9.08,0,0,1-1-.06Z" transform="translate(-0.11 -0.8)"/><path class="cls-1" d="M37.51.8A37.4,37.4,0,1,0,74.9,38.19,37.4,37.4,0,0,0,37.51.8Zm-18,12.35h1.54L19.51,14.7Zm0,2.61,2.6-2.61h1.77l-4.37,4.38Zm0,2.83,5.43-5.44h1.77l-7.2,7.21Zm0,2.83,8.26-8.27h1.74v0l-10,10Zm0,2.82,10-10V16l-10,10Zm20.62,39h-.62l.62-.62Zm2,0H40.88V61.86l1.25-1.25Zm2,0H42.88V59.86l1.25-1.25Zm2,0H44.88V57.86l1.25-1.25Zm2,0H46.88V55.86l1.25-1.25Zm1.38,0h-.63V53.86l.63-.63Zm0-22-.63-.62V51.73h.63l-.63.63v.33a.34.34,0,0,1-.37.32A.37.37,0,0,1,48.3,53l-8.79,8.78v-10h.62V42.62H34.51V42a13,13,0,0,1-1.38-.07l-.19,0-.23,0c-.32,0-.65-.08-1-.15l-.24,0-.23-.06-.88-.22-.28-.1-.17,0c-.28-.1-.57-.2-.85-.32l-.25-.11-.16-.07c-.28-.12-.56-.26-.83-.4l-.36-.2q-.42-.24-.84-.51l-.28-.19a11.22,11.22,0,0,1-.9-.68l-.15-.11a14.38,14.38,0,0,1-5.15-11v-.52h-.67v-.05l.68-.67a.35.35,0,0,1,.33-.33l9-9v1.77l-8.28,8.28h-.3v.52a13.61,13.61,0,0,0,4.88,10.44l.14.11c.31.25.58.45.85.64l.28.19c.26.17.52.33.79.48l.34.19.79.38.38.17c.27.11.54.2.82.3l.16.05.26.09q.4.12.84.21l.19,0,.24.06c.3.06.61.1.92.14l.39,0a11.88,11.88,0,0,0,1.31.07V40c-.38,0-.78,0-1.18-.06L33,39.9l-.83-.13-.39-.1c-.26-.06-.52-.11-.76-.19l-.38-.13c-.25-.08-.49-.17-.75-.27l-.34-.15c-.24-.11-.48-.22-.68-.33l-.34-.19L27.78,38l-.26-.18c-.25-.18-.5-.36-.78-.59l-.12-.1a12.35,12.35,0,0,1-4.44-9.48V26.43a.38.38,0,0,1,.75,0v.05l6.58-6.58v1.77L24.9,26.28a.4.4,0,0,1,0,.15v1.21A9.6,9.6,0,0,0,28.38,35l.1.08a7.5,7.5,0,0,0,.61.46l.23.15c.14.1.33.21.52.32l.32.17c.1.06.29.14.48.23l.26.12.58.21.32.11.49.12.43.11.5.07.38.05c.31,0,.62,0,.91,0V36a8.38,8.38,0,0,1-8.33-8.37v-.52H25.12l4.39-4.39V24.5l-2.58,2.58v.56a7.63,7.63,0,0,0,7.58,7.62V34a6.38,6.38,0,0,1-6.33-6.37v-.52H28l.23-.23v-.46a.38.38,0,0,1,.37-.37.35.35,0,0,1,.3.16l.66-.66v1.56h-.58v.52a5.63,5.63,0,0,0,5.58,5.62v-.64a5,5,0,0,0,2.75-.83l6.87,6.87v-.18a.36.36,0,0,1,.38-.33.35.35,0,0,1,.37.33v.93l1.25,1.25V38.48a.35.35,0,0,1,.34-.32l-7.79-7.79a5,5,0,0,0,.83-2.75h10Zm-9-15.07a.5.5,0,0,1-.5-.5.5.5,0,0,1,1,0A.5.5,0,0,1,40.51,26.13Zm2,0a.5.5,0,0,1-.5-.5.5.5,0,0,1,1,0A.5.5,0,0,1,42.51,26.13Zm2,0a.5.5,0,0,1-.5-.5.5.5,0,0,1,1,0A.5.5,0,0,1,44.51,26.13Zm2,0a.5.5,0,0,1-.5-.5.5.5,0,0,1,1,0A.5.5,0,0,1,46.51,26.13Zm2,0a.5.5,0,0,1-.5-.5.5.5,0,0,1,1,0A.5.5,0,0,1,48.51,26.13Zm1-3h-.89a.51.51,0,0,1,.39.48.5.5,0,1,1-1,0,.51.51,0,0,1,.39-.48H46.62a.51.51,0,0,1,.39.48.5.5,0,1,1-1,0,.51.51,0,0,1,.39-.48H44.62a.51.51,0,0,1,.39.48.5.5,0,1,1-1,0,.51.51,0,0,1,.39-.48H42.62a.51.51,0,0,1,.39.48.5.5,0,1,1-1,0,.51.51,0,0,1,.39-.48H40.62a.51.51,0,0,1,.39.48.5.5,0,1,1-1,0,.51.51,0,0,1,.39-.48h-.89v-10h10Z" transform="translate(-0.11 -0.8)"/><path class="cls-1" d="M34.55,41.26h0Z" transform="translate(-0.11 -0.8)"/><path class="cls-1" d="M34.51,42h0Z" transform="translate(-0.11 -0.8)"/><path class="cls-1" d="M28.93,26.43a.32.32,0,0,0-.08-.21l-.67.67v.23h.75Z" transform="translate(-0.11 -0.8)"/><path class="cls-1" d="M34.51,34h0Z" transform="translate(-0.11 -0.8)"/><path class="cls-1" d="M34.55,33.26h0Z" transform="translate(-0.11 -0.8)"/><path class="cls-1" d="M34.55,39.26h0Z" transform="translate(-0.11 -0.8)"/><path class="cls-1" d="M34.51,40h0Z" transform="translate(-0.11 -0.8)"/><path class="cls-1" d="M26.93,27.08v-.65a.38.38,0,0,0-.75,0v.69h.71Z" transform="translate(-0.11 -0.8)"/><path class="cls-1" d="M34.55,35.26h0Z" transform="translate(-0.11 -0.8)"/><path class="cls-1" d="M34.51,36h0Z" transform="translate(-0.11 -0.8)"/><path class="cls-1" d="M24.55,26.06a.38.38,0,0,0-.37.37V27l.72-.72A.38.38,0,0,0,24.55,26.06Z" transform="translate(-0.11 -0.8)"/><path class="cls-1" d="M34.55,37.26h0Z" transform="translate(-0.11 -0.8)"/><path class="cls-1" d="M34.51,38h0Z" transform="translate(-0.11 -0.8)"/><polygon class="cls-1" points="22.82 26.32 22.82 25.68 22.18 26.32 22.82 26.32"/><circle class="cls-1" cx="22.44" cy="26.84" r="0.38"/><path class="cls-1" d="M20.93,26.43a.38.38,0,0,0-.38-.37h0l-.33.33s0,0,0,0v.69h.75Z" transform="translate(-0.11 -0.8)"/><circle class="cls-1" cx="20.44" cy="26.84" r="0.38"/><path class="cls-1" d="M34.93,33.64a.38.38,0,0,1-.38.37h1.21a.38.38,0,1,0,0-.75H34.55A.38.38,0,0,1,34.93,33.64Z" transform="translate(-0.11 -0.8)"/><path class="cls-1" d="M34.18,33.64a.37.37,0,0,0,.33.36v-.73A.38.38,0,0,0,34.18,33.64Z" transform="translate(-0.11 -0.8)"/><path class="cls-1" d="M34.93,35.64a.38.38,0,0,1-.38.37h1.21a.38.38,0,1,0,0-.75H34.55A.38.38,0,0,1,34.93,35.64Z" transform="translate(-0.11 -0.8)"/><path class="cls-1" d="M34.18,35.64a.37.37,0,0,0,.33.36v-.73A.38.38,0,0,0,34.18,35.64Z" transform="translate(-0.11 -0.8)"/><path class="cls-1" d="M34.93,37.64a.38.38,0,0,1-.38.37h1.21a.38.38,0,1,0,0-.75H34.55A.38.38,0,0,1,34.93,37.64Z" transform="translate(-0.11 -0.8)"/><path class="cls-1" d="M34.18,37.64a.37.37,0,0,0,.33.36v-.73A.38.38,0,0,0,34.18,37.64Z" transform="translate(-0.11 -0.8)"/><path class="cls-1" d="M34.93,39.64a.38.38,0,0,1-.38.37h1.21a.38.38,0,1,0,0-.75H34.55A.38.38,0,0,1,34.93,39.64Z" transform="translate(-0.11 -0.8)"/><path class="cls-1" d="M34.18,39.64a.37.37,0,0,0,.33.36v-.73A.38.38,0,0,0,34.18,39.64Z" transform="translate(-0.11 -0.8)"/><path class="cls-1" d="M34.93,41.64a.38.38,0,0,1-.38.37h1.21a.38.38,0,1,0,0-.75H34.55A.38.38,0,0,1,34.93,41.64Z" transform="translate(-0.11 -0.8)"/><path class="cls-1" d="M34.18,41.64a.37.37,0,0,0,.33.36v-.73A.38.38,0,0,0,34.18,41.64Z" transform="translate(-0.11 -0.8)"/><circle class="cls-1" cx="40.39" cy="18.83" r="0.5"/><circle class="cls-1" cx="42.39" cy="18.83" r="0.5"/><circle class="cls-1" cx="44.39" cy="18.83" r="0.5"/><circle class="cls-1" cx="46.39" cy="18.83" r="0.5"/><circle class="cls-1" cx="48.39" cy="18.83" r="0.5"/><circle class="cls-1" cx="40.39" cy="20.83" r="0.5"/><circle class="cls-1" cx="42.39" cy="20.83" r="0.5"/><circle class="cls-1" cx="44.39" cy="20.83" r="0.5"/><circle class="cls-1" cx="46.39" cy="20.83" r="0.5"/><circle class="cls-1" cx="48.39" cy="20.83" r="0.5"/><path class="cls-1" d="M40.4,23.15h.22l-.11,0Z" transform="translate(-0.11 -0.8)"/><path class="cls-1" d="M42.4,23.15h.22l-.11,0Z" transform="translate(-0.11 -0.8)"/><path class="cls-1" d="M44.4,23.15h.22l-.11,0Z" transform="translate(-0.11 -0.8)"/><path class="cls-1" d="M46.4,23.15h.22l-.11,0Z" transform="translate(-0.11 -0.8)"/><path class="cls-1" d="M48.4,23.15h.22l-.11,0Z" transform="translate(-0.11 -0.8)"/><circle class="cls-1" cx="40.39" cy="28.83" r="0.5"/><circle class="cls-1" cx="42.39" cy="28.83" r="0.5"/><circle class="cls-1" cx="44.39" cy="28.83" r="0.5"/><circle class="cls-1" cx="46.39" cy="28.83" r="0.5"/><circle class="cls-1" cx="48.39" cy="28.83" r="0.5"/><path class="cls-1" d="M48.13,52.69a.31.31,0,0,0,.17.26l.58-.59v-.63h-.75Z" transform="translate(-0.11 -0.8)"/><path class="cls-1" d="M48.51,38.15a.36.36,0,0,0-.38.33v1.35l.75.75v-2.1A.35.35,0,0,0,48.51,38.15Z" transform="translate(-0.11 -0.8)"/><path class="cls-1" d="M42.13,52.69a.35.35,0,0,0,.38.32.34.34,0,0,0,.37-.32v-1h-.75Z" transform="translate(-0.11 -0.8)"/><path class="cls-1" d="M42.88,38.48a.35.35,0,0,0-.37-.33.36.36,0,0,0-.38.33v4.14h.75Z" transform="translate(-0.11 -0.8)"/><path class="cls-1" d="M40.51,53a.34.34,0,0,0,.37-.32v-1h-.75v1A.35.35,0,0,0,40.51,53Z" transform="translate(-0.11 -0.8)"/><path class="cls-1" d="M40.88,38.48a.35.35,0,0,0-.37-.33.36.36,0,0,0-.38.33v4.14h.75Z" transform="translate(-0.11 -0.8)"/><path class="cls-1" d="M46.13,52.69a.35.35,0,0,0,.38.32.34.34,0,0,0,.37-.32v-1h-.75Z" transform="translate(-0.11 -0.8)"/><path class="cls-1" d="M46.88,42.62V41.41l-.75-.75v2Z" transform="translate(-0.11 -0.8)"/><path class="cls-1" d="M46.88,38.48a.35.35,0,0,0-.37-.33h0l.41.42Z" transform="translate(-0.11 -0.8)"/><path class="cls-1" d="M44.13,52.69a.35.35,0,0,0,.38.32.34.34,0,0,0,.37-.32v-1h-.75Z" transform="translate(-0.11 -0.8)"/><path class="cls-1" d="M44.88,42.62V39.41l-.75-.75v4Z" transform="translate(-0.11 -0.8)"/></svg>