<svg id="Layer_1" data-name="Layer 1" xmlns="http://www.w3.org/2000/svg" viewBox="0 0 74.79 74.79"><defs><style>.cls-1{fill:#252944;}</style></defs><title>10</title><path class="cls-1" d="M60.18,27.19c0-.16,0-.32-.07-.46l-.07-.3c0-.23-.09-.38-.13-.53l-.1-.27c-.06-.18-.12-.35-.19-.53l-.1-.23-.21-.44-.16-.29c-.09-.16-.19-.33-.28-.46l-.14-.21a5.93,5.93,0,0,0-.41-.54l-.07-.09a8.67,8.67,0,0,0-6.64-3.11v1.13a7.55,7.55,0,0,1,7.54,7.54h1.12c0-.28,0-.57,0-.88Z"/><path class="cls-1" d="M62,27.06c0-.26-.06-.49-.11-.71L61.79,26a6.17,6.17,0,0,0-.17-.65l-.1-.32c-.07-.21-.15-.42-.23-.63l-.13-.29c-.09-.2-.19-.41-.28-.57l-.16-.3c-.12-.2-.24-.41-.36-.59l-.15-.23c-.15-.21-.3-.41-.5-.65l-.08-.11a10.46,10.46,0,0,0-8-3.75v1.13a9.32,9.32,0,0,1,7.16,3.35l.07.09c.17.21.31.4.44.59l.15.22a5.47,5.47,0,0,1,.31.5l.16.3c.06.12.15.3.23.48l.11.24c.08.21.15.39.21.58l.1.28c.05.17.09.35.13.52l.09.37c0,.17.06.35.08.53l0,.33c0,.35.05.66.05,1h1.12a9.16,9.16,0,0,0,0-1Z"/><path class="cls-1" d="M44.12,46.4v-.76a5.19,5.19,0,0,1-1.12.24v.52a6.72,6.72,0,0,0,0,.87l0,.33c0,.16,0,.32.07.46l.07.3c.06.23.09.38.14.53l.09.27c.06.18.12.35.19.53l.11.23c.07.17.15.34.2.44l.16.29c.1.16.19.33.28.46l.14.21c.12.18.25.35.41.55L45,52a8.67,8.67,0,0,0,6.64,3.1V53.93A7.54,7.54,0,0,1,44.12,46.4Z"/><path class="cls-1" d="M51.61,21.53v1.13a5.74,5.74,0,0,1,5.74,5.74h1.12A6.87,6.87,0,0,0,51.61,21.53Z"/><path class="cls-1" d="M63.79,27l0-.21c0-.28-.07-.56-.12-.83a1.16,1.16,0,0,1,0-.18l-.06-.21c-.06-.26-.12-.51-.19-.76,0-.07-.05-.14-.07-.21l-.06-.17c-.08-.24-.17-.49-.27-.73l-.09-.21-.06-.13c-.11-.25-.22-.48-.34-.72l-.17-.3c-.14-.24-.28-.48-.44-.71l-.16-.25c-.17-.25-.35-.49-.58-.77l-.1-.13a12.25,12.25,0,0,0-9.4-4.39v1.13a11.12,11.12,0,0,1,8.54,4l.09.11c.2.25.37.48.52.7l.16.24.39.63.17.3.29.63.14.3c.09.23.17.45.25.67l.11.33c.07.24.12.46.17.69l.09.35c0,.26.08.5.11.75l0,.32a11.28,11.28,0,0,1,.06,1.13h1.12c0-.4,0-.81-.06-1.22A.68.68,0,0,0,63.79,27Z"/><path class="cls-1" d="M44.5,52.38l-.07-.09c-.17-.21-.31-.4-.44-.59l-.15-.22c-.1-.14-.2-.32-.31-.5l-.16-.3c-.06-.12-.15-.3-.23-.48L43,50c-.08-.21-.15-.39-.21-.58l-.1-.28c0-.17-.09-.34-.13-.52l-.09-.37c0-.17,0-.35-.08-.53l0-.33a8.21,8.21,0,0,1-.06-1v-.51a4.55,4.55,0,0,1-1.12-.23v.74a9.1,9.1,0,0,0,0,1l0,.3c0,.26.07.49.11.71l.08.33a6.17,6.17,0,0,0,.17.65l.11.32c.07.21.14.42.23.63l.12.29c.1.2.19.41.28.57l.16.3c.12.2.24.41.36.59l.15.23a8.16,8.16,0,0,0,.5.65l.08.11a10.46,10.46,0,0,0,8,3.75V55.73A9.34,9.34,0,0,1,44.5,52.38Z"/><polygon class="cls-1" points="24.59 43.7 24.59 33.95 23.47 33.95 23.47 44.82 24.59 43.7"/><path class="cls-1" d="M37.4,0A37.4,37.4,0,1,0,74.79,37.4,37.39,37.39,0,0,0,37.4,0ZM27.63,59.9h-9v-9h9Zm0-25.95h-.56v7.27l.56-.56v9h-9l4.16-4.16V34H21.67V46.4a.34.34,0,0,1-.68,0V34H19.87V46.4a.34.34,0,0,1-.68,0V34H9.63l9-9h.44a.44.44,0,0,1,.83,0h1a.44.44,0,0,1,.83,0h1a.44.44,0,0,1,.83,0h1a.44.44,0,0,1,.83,0h1a.44.44,0,0,1,.83,0h.53ZM20.84,23.3a.45.45,0,0,1,.45-.45.45.45,0,1,1,0,.9A.45.45,0,0,1,20.84,23.3Zm2.25-.45a.45.45,0,0,1,0,.9.45.45,0,0,1,0-.9Zm-.45-1.35a.45.45,0,0,1,.45-.45.45.45,0,0,1,0,.9A.45.45,0,0,1,22.64,21.5Zm2.25-.45a.45.45,0,0,1,0,.9.45.45,0,0,1,0-.9Zm-.45-1.35a.45.45,0,0,1,.45-.45.45.45,0,1,1,0,.9A.45.45,0,0,1,24.44,19.7Zm.45,3.15a.45.45,0,1,1,0,.9.45.45,0,1,1,0-.9Zm1.8-3.6a.45.45,0,0,1,0,.9.45.45,0,0,1,0-.9Zm-.45-1.35a.45.45,0,0,1,.45-.45.45.45,0,0,1,0,.9A.45.45,0,0,1,26.24,17.9Zm.45,3.15a.45.45,0,0,1,0,.9.45.45,0,0,1,0-.9Zm0,1.8a.45.45,0,0,1,0,.9.45.45,0,0,1,0-.9ZM25,17.48a.47.47,0,0,1,.3.42.45.45,0,0,1-.45.45.44.44,0,0,1-.42-.29l-1.23,1.22a.47.47,0,0,1,.3.42.45.45,0,0,1-.45.45.44.44,0,0,1-.42-.29l-1.23,1.22a.47.47,0,0,1,.3.42.45.45,0,0,1-.45.45.44.44,0,0,1-.42-.29l-1.23,1.22a.47.47,0,0,1,.3.42.45.45,0,0,1-.45.45.44.44,0,0,1-.42-.29l-.44.44v-9h9Zm23.65-2.26c.36-.08.74-.14,1.12-.19v9.25a4.38,4.38,0,0,0-1.12.72Zm-1.8.54A10.45,10.45,0,0,1,48,15.4V25.72a4.46,4.46,0,0,0-.9,2.68h-.22Zm-1.8.82A11.61,11.61,0,0,1,46.21,16v11.8h0a.45.45,0,0,1,.45.45.45.45,0,0,1-.45.45.44.44,0,0,1-.42-.32h-.75Zm1.17,19.34a.45.45,0,0,1-.45-.45.45.45,0,0,1,.9,0A.45.45,0,0,1,46.26,35.92Zm.45,1.35a.45.45,0,1,1-.9,0,.45.45,0,1,1,.9,0Zm-.45-3.15a.45.45,0,0,1-.45-.45.45.45,0,0,1,.9,0A.45.45,0,0,1,46.26,34.12Zm0-1.8a.45.45,0,0,1-.45-.45.45.45,0,1,1,.9,0A.45.45,0,0,1,46.26,32.32Zm-3-14.54c.36-.28.73-.54,1.12-.79V27.83h.05a.45.45,0,0,1,.45.45.45.45,0,0,1-.45.45A.44.44,0,0,1,44,28.4h-.75Zm1.17,16.34a.45.45,0,0,1-.45-.45.45.45,0,1,1,.9,0A.45.45,0,0,1,44.46,34.12Zm.45,1.35a.45.45,0,0,1-.9,0,.45.45,0,0,1,.9,0Zm-.45-3.15a.45.45,0,0,1-.45-.45.45.45,0,0,1,.9,0A.45.45,0,0,1,44.46,32.32Zm-3-12.83a13.38,13.38,0,0,1,1.12-1.14v9.48h0a.45.45,0,0,1,.45.45.45.45,0,0,1-.45.45.44.44,0,0,1-.42-.32h-.75Zm1.17,14.63a.45.45,0,0,1-.45-.45.45.45,0,1,1,.9,0A.45.45,0,0,1,42.66,34.12Zm.45,1.35a.45.45,0,0,1-.9,0,.45.45,0,0,1,.9,0Zm-.45-3.15a.45.45,0,0,1-.45-.45.45.45,0,1,1,.9,0A.45.45,0,0,1,42.66,32.32Zm-3-10.24a12.47,12.47,0,0,1,1.12-1.76v7.51h0a.45.45,0,0,1,.45.45.45.45,0,0,1-.45.45.44.44,0,0,1-.42-.32h-.75Zm1.17,12a.45.45,0,0,1-.45-.45.45.45,0,0,1,.9,0A.45.45,0,0,1,40.86,34.12Zm.45,1.35a.45.45,0,0,1-.9,0,.45.45,0,0,1,.9,0Zm-.45-3.15a.45.45,0,0,1-.45-.45.45.45,0,1,1,.9,0A.45.45,0,0,1,40.86,32.32ZM39,23.58v4.25h.05a.45.45,0,0,1,.45.45.45.45,0,0,1-.45.45.44.44,0,0,1-.42-.32h-.53A13.53,13.53,0,0,1,39,23.58Zm.05,12.34a.45.45,0,0,1-.45-.45.45.45,0,0,1,.9,0A.45.45,0,0,1,39.06,35.92Zm.45,1.35a.45.45,0,1,1-.9,0,.45.45,0,1,1,.9,0Zm-.45-3.15a.45.45,0,0,1-.45-.45.45.45,0,1,1,.9,0A.45.45,0,0,1,39.06,34.12Zm0-1.8a.45.45,0,0,1-.45-.45.45.45,0,0,1,.9,0A.45.45,0,0,1,39.06,32.32ZM51.66,59.9v-.57a12.92,12.92,0,0,1-9.91-4.63l-.11-.13c-.24-.3-.43-.55-.61-.81l-.17-.26a8.53,8.53,0,0,1-.46-.76l-.18-.31c-.13-.25-.25-.5-.36-.76l-.06-.11-.11-.26c-.1-.25-.19-.51-.28-.76l0-.15c0-.1-.06-.18-.08-.26-.08-.26-.15-.52-.21-.79l0-.17c0-.11,0-.18-.06-.25,0-.28-.09-.57-.13-.87l0-.18a1.37,1.37,0,0,1,0-.19,11.35,11.35,0,0,1-.07-1.28V45.31a.34.34,0,1,1,.68,0V46.4c0,.39,0,.8.06,1.21a.68.68,0,0,0,0,.14l0,.21c0,.28.07.56.12.83,0,.06,0,.12,0,.18l0,.21c.06.26.12.51.19.76,0,.07,0,.14.07.21l.06.17c.08.24.17.49.27.73l.09.21.06.13c.11.25.22.48.35.72l.17.3a6.38,6.38,0,0,0,.43.71l.17.25a8,8,0,0,0,.57.77l.11.13a12.21,12.21,0,0,0,9.39,4.39V57.53a11.12,11.12,0,0,1-8.54-4L43,53.43c-.2-.25-.37-.47-.52-.7l-.16-.24c-.13-.19-.26-.41-.39-.63l-.16-.3c-.1-.19-.2-.41-.3-.63l-.14-.3c-.09-.23-.17-.45-.24-.67L41,49.63c-.07-.24-.12-.46-.17-.69l-.09-.35c-.05-.26-.08-.5-.11-.75l-.05-.32c0-.4-.06-.77-.06-1.12v-1a4.51,4.51,0,0,1-2.41-4h0a4.47,4.47,0,0,1,2.36-3.93.42.42,0,0,1-.06-.21.45.45,0,0,1,.45-.45.44.44,0,0,1,.42.31,4.89,4.89,0,0,1,1.08-.19.41.41,0,0,1,.3-.12A.48.48,0,0,1,43,37a4.66,4.66,0,0,1,1.05.21.44.44,0,0,1,.43-.34.45.45,0,0,1,.45.45.42.42,0,0,1-.09.24,4.49,4.49,0,0,1,2.29,3.9h0a4.5,4.5,0,0,1-2.31,3.92V46.4a6.87,6.87,0,0,0,6.86,6.86V52.13a5.74,5.74,0,0,1-5.74-5.73V45.31a.34.34,0,1,1,.68,0V46.4a5.07,5.07,0,0,0,5.06,5.06V50.9a4.48,4.48,0,0,0,2.48-.75l6.4,6.4A13.45,13.45,0,0,1,51.66,59.9Zm10.15-4.63-6.4-6.4a4.47,4.47,0,0,0,.75-2.47h9A13.4,13.4,0,0,1,61.81,55.27ZM57.06,43.12a.45.45,0,0,1,.45.45.45.45,0,0,1-.9,0A.45.45,0,0,1,57.06,43.12Zm-.45-1.35a.45.45,0,1,1,.9,0,.45.45,0,1,1-.9,0Zm.45,3.15a.45.45,0,0,1,.45.45.45.45,0,0,1-.9,0A.45.45,0,0,1,57.06,44.92Zm1.8-1.8a.45.45,0,0,1,.45.45.45.45,0,1,1-.9,0A.45.45,0,0,1,58.86,43.12Zm-.45-1.35a.45.45,0,1,1,.9,0,.45.45,0,0,1-.9,0Zm.45,3.15a.45.45,0,0,1,.45.45.45.45,0,0,1-.9,0A.45.45,0,0,1,58.86,44.92Zm1.8-1.8a.45.45,0,0,1,.45.45.45.45,0,0,1-.9,0A.45.45,0,0,1,60.66,43.12Zm-.45-1.35a.45.45,0,0,1,.9,0,.45.45,0,0,1-.9,0Zm.45,3.15a.45.45,0,0,1,.45.45.45.45,0,0,1-.9,0A.45.45,0,0,1,60.66,44.92Zm1.8-1.8a.45.45,0,0,1,.45.45.45.45,0,1,1-.9,0A.45.45,0,0,1,62.46,43.12ZM62,41.77a.45.45,0,1,1,.9,0,.45.45,0,1,1-.9,0Zm.45,3.15a.45.45,0,0,1,.45.45.45.45,0,1,1-.9,0A.45.45,0,0,1,62.46,44.92Zm1.8-1.8a.45.45,0,0,1,.45.45.45.45,0,0,1-.9,0A.45.45,0,0,1,64.26,43.12Zm-.45-1.35a.45.45,0,1,1,.9,0,.45.45,0,1,1-.9,0Zm.45,3.15a.45.45,0,0,1,.45.45.45.45,0,0,1-.9,0A.45.45,0,0,1,64.26,44.92Zm-8.1-4.23V28.4h.51a5.07,5.07,0,0,0-5.06-5.07v.57a4.58,4.58,0,0,0-1.12.15v-.73a.33.33,0,0,1-.3-.32.33.33,0,0,1,.3-.32V21.52a.34.34,0,0,1-.3-.32.33.33,0,0,1,.3-.32V19.72a.33.33,0,0,1-.3-.32.33.33,0,0,1,.3-.32V17.92a.33.33,0,0,1-.3-.32.33.33,0,0,1,.3-.32V16.12a.33.33,0,0,1-.3-.32.33.33,0,0,1,.3-.32V15c.37,0,.74,0,1.12,0v.56a12.94,12.94,0,0,1,9.92,4.63l.1.13c.24.3.43.55.61.82l.18.25c.16.25.31.5.45.76l.18.31c.13.25.25.5.37.76l0,.11.11.26c.1.25.19.51.28.76l0,.15c0,.1.06.18.08.26.08.26.15.52.21.79l0,.17c0,.11,0,.18.06.25.06.28.09.58.13.87l0,.18a1.37,1.37,0,0,1,0,.19,11.4,11.4,0,0,1,.07,1.29h.61V40.69Z"/><polygon class="cls-1" points="26.39 41.9 26.39 33.95 25.27 33.95 25.27 43.02 26.39 41.9"/><polygon class="cls-1" points="63.88 28.39 63.88 28.39 63.88 28.39 63.88 28.39"/><polygon class="cls-1" points="64.55 28.39 64.55 28.39 64.55 28.39 64.55 28.39"/><polygon class="cls-1" points="51.61 15.46 51.61 15.46 51.61 15.46 51.61 15.46"/><polygon class="cls-1" points="51.61 16.13 51.61 16.13 51.61 16.13 51.61 16.13"/><polygon class="cls-1" points="57.35 28.39 57.35 28.39 57.35 28.39 57.35 28.39"/><polygon class="cls-1" points="56.67 28.39 56.67 28.39 56.67 28.39 56.67 28.39"/><path class="cls-1" d="M51.61,22.66H50.53a.05.05,0,0,0,0,0v.64h1.12v-.67Z"/><polygon class="cls-1" points="62.08 28.39 62.08 28.39 62.08 28.39 62.08 28.39"/><polygon class="cls-1" points="62.75 28.39 62.75 28.39 62.75 28.39 62.75 28.39"/><polygon class="cls-1" points="51.61 17.26 51.61 17.26 51.61 17.26 51.61 17.26"/><polygon class="cls-1" points="51.61 17.93 51.61 17.93 51.61 17.93 51.61 17.93"/><polygon class="cls-1" points="58.48 28.39 58.48 28.39 58.48 28.39 58.48 28.39"/><polygon class="cls-1" points="59.15 28.39 59.15 28.39 59.15 28.39 59.15 28.39"/><path class="cls-1" d="M51.61,21.53h0v-.67H50.53a.05.05,0,0,0,0,0v.64h1.12Z"/><polygon class="cls-1" points="60.27 28.39 60.27 28.39 60.27 28.39 60.27 28.39"/><polygon class="cls-1" points="60.95 28.39 60.95 28.39 60.95 28.39 60.95 28.39"/><path class="cls-1" d="M51.61,19.73h0v-.67H50.53a.05.05,0,0,0,0,0v.64h1.12Z"/><path class="cls-1" d="M51.61,17.93a.34.34,0,1,1,0-.67H50.53a.05.05,0,0,0,0,0v.64h1.12Z"/><path class="cls-1" d="M52,17.6a.34.34,0,0,0-.34-.34v.67A.34.34,0,0,0,52,17.6Z"/><path class="cls-1" d="M51.61,16.13a.34.34,0,1,1,0-.67H50.53a.05.05,0,0,0,0,0v.64h1.12Z"/><path class="cls-1" d="M52,15.8a.34.34,0,0,0-.34-.34v.67A.34.34,0,0,0,52,15.8Z"/><path class="cls-1" d="M57,28.73a.34.34,0,0,1-.34-.33v1.08a.34.34,0,0,0,.34.34.34.34,0,0,0,.34-.34V28.4A.34.34,0,0,1,57,28.73Z"/><path class="cls-1" d="M57,28.06a.34.34,0,0,0-.34.34h.68A.34.34,0,0,0,57,28.06Z"/><path class="cls-1" d="M58.81,28.73a.34.34,0,0,1-.34-.33v1.08a.34.34,0,0,0,.34.34.34.34,0,0,0,.34-.34V28.4A.34.34,0,0,1,58.81,28.73Z"/><path class="cls-1" d="M58.81,28.06a.34.34,0,0,0-.34.34h.68A.34.34,0,0,0,58.81,28.06Z"/><path class="cls-1" d="M60.61,28.73a.34.34,0,0,1-.34-.33v1.08a.34.34,0,0,0,.34.34.34.34,0,0,0,.34-.34V28.4A.34.34,0,0,1,60.61,28.73Z"/><path class="cls-1" d="M60.61,28.06a.34.34,0,0,0-.34.34H61A.34.34,0,0,0,60.61,28.06Z"/><path class="cls-1" d="M62.41,28.73a.34.34,0,0,1-.34-.33v1.08a.34.34,0,0,0,.34.34.34.34,0,0,0,.34-.34V28.4A.34.34,0,0,1,62.41,28.73Z"/><path class="cls-1" d="M62.41,28.06a.34.34,0,0,0-.34.34h.68A.34.34,0,0,0,62.41,28.06Z"/><path class="cls-1" d="M64.21,28.73a.34.34,0,0,1-.34-.33v1.08a.34.34,0,0,0,.34.34.34.34,0,0,0,.34-.34V28.4A.34.34,0,0,1,64.21,28.73Z"/><path class="cls-1" d="M64.21,28.06a.34.34,0,0,0-.34.34h.68A.34.34,0,0,0,64.21,28.06Z"/><path class="cls-1" d="M64.26,47.62a.45.45,0,0,0,.45-.45.45.45,0,1,0-.9,0A.45.45,0,0,0,64.26,47.62Z"/><path class="cls-1" d="M62.46,47.62a.45.45,0,0,0,.45-.45.45.45,0,1,0-.9,0A.45.45,0,0,0,62.46,47.62Z"/><path class="cls-1" d="M60.21,47.17a.45.45,0,0,0,.9,0,.45.45,0,1,0-.9,0Z"/><path class="cls-1" d="M58.86,46.72a.45.45,0,0,0-.45.45.45.45,0,1,0,.9,0A.45.45,0,0,0,58.86,46.72Z"/><path class="cls-1" d="M57.06,46.72a.45.45,0,0,0-.45.45.45.45,0,1,0,.9,0A.45.45,0,0,0,57.06,46.72Z"/><path class="cls-1" d="M64.26,37.72a.45.45,0,0,0-.45.45.45.45,0,1,0,.9,0A.45.45,0,0,0,64.26,37.72Z"/><path class="cls-1" d="M62.46,37.72a.45.45,0,0,0-.45.45.45.45,0,1,0,.9,0A.45.45,0,0,0,62.46,37.72Z"/><path class="cls-1" d="M60.66,37.72a.45.45,0,0,0-.45.45.45.45,0,0,0,.9,0A.45.45,0,0,0,60.66,37.72Z"/><path class="cls-1" d="M58.86,37.72a.45.45,0,0,0-.45.45.45.45,0,0,0,.9,0A.45.45,0,0,0,58.86,37.72Z"/><path class="cls-1" d="M57.06,37.72a.45.45,0,0,0-.45.45.45.45,0,1,0,.9,0A.45.45,0,0,0,57.06,37.72Z"/><path class="cls-1" d="M44.46,37.72a.44.44,0,0,0,.36-.21,4.31,4.31,0,0,0-.79-.35.36.36,0,0,0,0,.11A.45.45,0,0,0,44.46,37.72Z"/><path class="cls-1" d="M42.21,37.27a.45.45,0,1,0,.9,0A.44.44,0,0,0,43,37c-.13,0-.24,0-.37,0l-.25,0A.43.43,0,0,0,42.21,37.27Z"/><path class="cls-1" d="M40.86,37.72a.45.45,0,0,0,.45-.45.35.35,0,0,0,0-.14,4.83,4.83,0,0,0-.81.35A.44.44,0,0,0,40.86,37.72Z"/><path class="cls-1" d="M45.81,28.27a.35.35,0,0,0,0,.13h.37v-.57A.44.44,0,0,0,45.81,28.27Z"/><path class="cls-1" d="M44,28.27a.35.35,0,0,0,0,.13h.37v-.57A.44.44,0,0,0,44,28.27Z"/><path class="cls-1" d="M42.21,28.27a.35.35,0,0,0,0,.13h.37v-.57A.44.44,0,0,0,42.21,28.27Z"/><path class="cls-1" d="M40.41,28.27a.35.35,0,0,0,0,.13h.37v-.57A.44.44,0,0,0,40.41,28.27Z"/><path class="cls-1" d="M38.61,28.27a.35.35,0,0,0,0,.13H39v-.57A.44.44,0,0,0,38.61,28.27Z"/><path class="cls-1" d="M53.08,51.8a.34.34,0,0,0-.34-.34H51.66v.67h1.08A.34.34,0,0,0,53.08,51.8Z"/><path class="cls-1" d="M52.74,53.93a.34.34,0,1,0,0-.67H51.66v.67Z"/><path class="cls-1" d="M51.66,55.73h1.08a.34.34,0,1,0,0-.67H51.66v.67Z"/><path class="cls-1" d="M53.08,57.2a.34.34,0,0,0-.34-.34H51.66a.34.34,0,1,1,0,.67h1.08A.34.34,0,0,0,53.08,57.2Z"/><path class="cls-1" d="M51.32,57.2a.34.34,0,0,0,.34.33v-.67A.34.34,0,0,0,51.32,57.2Z"/><path class="cls-1" d="M53.08,59a.34.34,0,0,0-.34-.34H51.66a.34.34,0,1,1,0,.67h1.08A.34.34,0,0,0,53.08,59Z"/><path class="cls-1" d="M51.32,59a.34.34,0,0,0,.34.33v-.67A.34.34,0,0,0,51.32,59Z"/><path class="cls-1" d="M46.26,46.73a.34.34,0,1,0-.34-.33A.34.34,0,0,0,46.26,46.73Z"/><path class="cls-1" d="M44.46,45a.34.34,0,0,0-.34.34v.33a5.24,5.24,0,0,0,.68-.31v0A.34.34,0,0,0,44.46,45Z"/><path class="cls-1" d="M44.46,46.06a.34.34,0,1,0,.34.34A.34.34,0,0,0,44.46,46.06Z"/><path class="cls-1" d="M43,45.88v-.57a.34.34,0,0,0-.68,0v.58l.29,0Z"/><path class="cls-1" d="M42.66,46.06a.34.34,0,1,0,.34.34A.34.34,0,0,0,42.66,46.06Z"/><path class="cls-1" d="M41.2,45.31a.34.34,0,1,0-.68,0v.07a4,4,0,0,0,.68.28Z"/><path class="cls-1" d="M40.86,46.73a.34.34,0,1,0-.34-.33A.34.34,0,0,0,40.86,46.73Z"/><path class="cls-1" d="M39.06,46.73a.34.34,0,1,0-.34-.33A.34.34,0,0,0,39.06,46.73Z"/><path class="cls-1" d="M26.69,25.55a.45.45,0,0,0,.45-.45.33.33,0,0,0,0-.15h-.83a.33.33,0,0,0,0,.15A.45.45,0,0,0,26.69,25.55Z"/><path class="cls-1" d="M24.44,17.9a.41.41,0,0,0,0,.16l.57-.58a.4.4,0,0,0-.15,0A.45.45,0,0,0,24.44,17.9Z"/><path class="cls-1" d="M24.89,25.55a.45.45,0,0,0,.45-.45.33.33,0,0,0,0-.15h-.83a.33.33,0,0,0,0,.15A.45.45,0,0,0,24.89,25.55Z"/><path class="cls-1" d="M23.09,18.35a.45.45,0,0,0,0-.9.45.45,0,1,0,0,.9Z"/><path class="cls-1" d="M22.64,19.7a.41.41,0,0,0,0,.16l.57-.58a.4.4,0,0,0-.15,0A.45.45,0,0,0,22.64,19.7Z"/><path class="cls-1" d="M23.09,25.55a.45.45,0,0,0,.45-.45.33.33,0,0,0,0-.15h-.83a.33.33,0,0,0,0,.15A.45.45,0,0,0,23.09,25.55Z"/><circle class="cls-1" cx="21.29" cy="17.9" r="0.45"/><circle class="cls-1" cx="21.29" cy="19.7" r="0.45"/><path class="cls-1" d="M20.84,21.5a.41.41,0,0,0,0,.16l.57-.58a.4.4,0,0,0-.15,0A.45.45,0,0,0,20.84,21.5Z"/><path class="cls-1" d="M21.29,25.55a.45.45,0,0,0,.45-.45.33.33,0,0,0,0-.15h-.83a.33.33,0,0,0,0,.15A.45.45,0,0,0,21.29,25.55Z"/><circle class="cls-1" cx="19.49" cy="17.9" r="0.45"/><circle class="cls-1" cx="19.49" cy="19.7" r="0.45"/><circle class="cls-1" cx="19.49" cy="21.5" r="0.45"/><path class="cls-1" d="M19,23.3a.41.41,0,0,0,0,.16l.57-.58a.4.4,0,0,0-.15,0A.45.45,0,0,0,19,23.3Z"/><path class="cls-1" d="M19.49,25.55a.45.45,0,0,0,.45-.45.33.33,0,0,0,0-.15h-.83a.33.33,0,0,0,0,.15A.45.45,0,0,0,19.49,25.55Z"/><path class="cls-1" d="M19.53,31.32a.34.34,0,0,0-.34.33V34h.68v-2.3A.34.34,0,0,0,19.53,31.32Z"/><path class="cls-1" d="M24.59,46.4a.34.34,0,0,0,.68,0V43l-.68.68Z"/><path class="cls-1" d="M25.27,31.65a.34.34,0,0,0-.68,0V34h.68Z"/><path class="cls-1" d="M26.39,46.4a.34.34,0,0,0,.68,0V41.22l-.68.68Z"/><path class="cls-1" d="M26.73,31.32a.34.34,0,0,0-.34.33V34h.68v-2.3A.34.34,0,0,0,26.73,31.32Z"/><path class="cls-1" d="M21.33,31.32a.34.34,0,0,0-.34.33V34h.68v-2.3A.34.34,0,0,0,21.33,31.32Z"/><path class="cls-1" d="M23.13,46.73a.34.34,0,0,0,.34-.33V44.82l-.68.68v.9A.34.34,0,0,0,23.13,46.73Z"/><path class="cls-1" d="M23.47,31.65a.34.34,0,0,0-.68,0V34h.68Z"/></svg>