<svg id="Layer_1" data-name="Layer 1" xmlns="http://www.w3.org/2000/svg" viewBox="0 0 74.79 74.79"><defs><style>.cls-1{fill:#252944;}</style></defs><title>11</title><polygon class="cls-1" points="51.91 43.7 51.91 33.95 50.79 33.95 50.79 44.82 51.91 43.7"/><polygon class="cls-1" points="30.6 41.9 30.6 33.95 29.48 33.95 29.48 43.02 30.6 41.9"/><polygon class="cls-1" points="28.8 43.7 28.8 33.95 27.68 33.95 27.68 44.82 28.8 43.7"/><path class="cls-1" d="M37.4,0A37.4,37.4,0,1,0,74.79,37.4,37.39,37.39,0,0,0,37.4,0ZM31.84,59.89h-9v-9h9Zm0-25.94h-.56v7.27l.56-.56v9h-9L27,45.5V34H25.88V46.4a.34.34,0,0,1-.68,0V34H24.08V46.4a.34.34,0,0,1-.68,0V34H13.84l9-9h.43a.45.45,0,0,1,.42-.3.43.43,0,0,1,.42.3h1a.45.45,0,0,1,.42-.3.43.43,0,0,1,.42.3h1a.45.45,0,0,1,.42-.3.43.43,0,0,1,.42.3h1a.45.45,0,0,1,.42-.3.43.43,0,0,1,.42.3h1a.45.45,0,0,1,.42-.3.43.43,0,0,1,.42.3h.53ZM25,23.3a.45.45,0,0,1,.45-.45.45.45,0,1,1,0,.9A.45.45,0,0,1,25,23.3Zm2.25-.45a.45.45,0,1,1,0,.9.45.45,0,1,1,0-.9Zm-.45-1.35a.45.45,0,0,1,.45-.45.45.45,0,0,1,0,.9A.45.45,0,0,1,26.84,21.5Zm2.25-.45a.45.45,0,0,1,0,.9.45.45,0,0,1,0-.9Zm-.45-1.35a.45.45,0,0,1,.45-.45.45.45,0,0,1,0,.9A.45.45,0,0,1,28.64,19.7Zm.45,3.15a.45.45,0,0,1,0,.9.45.45,0,0,1,0-.9Zm1.8-3.6a.45.45,0,1,1,0,.9.45.45,0,1,1,0-.9Zm-.45-1.35a.45.45,0,0,1,.45-.45.45.45,0,0,1,0,.9A.45.45,0,0,1,30.44,17.9Zm.45,3.15a.45.45,0,0,1,0,.9.45.45,0,0,1,0-.9Zm0,1.8a.45.45,0,1,1,0,.9.45.45,0,1,1,0-.9Zm-1.64-5.37a.46.46,0,0,1,.29.42.45.45,0,0,1-.45.45.43.43,0,0,1-.41-.29l-1.23,1.22a.46.46,0,0,1,.29.42.45.45,0,0,1-.45.45.43.43,0,0,1-.41-.29l-1.23,1.22a.46.46,0,0,1,.29.42.45.45,0,0,1-.45.45.43.43,0,0,1-.41-.29l-1.23,1.22a.46.46,0,0,1,.29.42.45.45,0,0,1-.45.45.43.43,0,0,1-.41-.29l-.44.43v-9h9ZM55,59.89H46v-9h9ZM55,34h-.56v7.27l.56-.56v9H46l4.16-4.16V34H49V46.4a.34.34,0,0,1-.68,0V34H47.19V46.4a.34.34,0,0,1-.68,0V34H37l9-9h.44a.44.44,0,0,1,.83,0h1A.44.44,0,0,1,49,25h1a.44.44,0,0,1,.83,0h1a.44.44,0,0,1,.83,0h1a.44.44,0,0,1,.83,0H55ZM48.15,23.3a.45.45,0,0,1,.45-.45.45.45,0,1,1,0,.9A.45.45,0,0,1,48.15,23.3Zm2.25-.45a.45.45,0,0,1,0,.9.45.45,0,0,1,0-.9ZM50,21.5a.45.45,0,0,1,.45-.45.45.45,0,0,1,0,.9A.45.45,0,0,1,50,21.5Zm2.25-.45a.45.45,0,1,1,0,.9.45.45,0,1,1,0-.9Zm-.45-1.35a.45.45,0,0,1,.45-.45.45.45,0,1,1,0,.9A.45.45,0,0,1,51.75,19.7Zm.45,3.15a.45.45,0,1,1,0,.9.45.45,0,1,1,0-.9Zm1.8-3.6a.45.45,0,0,1,0,.9.45.45,0,1,1,0-.9Zm-.45-1.35a.45.45,0,0,1,.45-.45.45.45,0,0,1,0,.9A.45.45,0,0,1,53.55,17.9ZM54,21.05a.45.45,0,0,1,0,.9.45.45,0,1,1,0-.9Zm0,1.8a.45.45,0,0,1,0,.9.45.45,0,1,1,0-.9Zm-1.64-5.37a.46.46,0,0,1,.29.42.45.45,0,0,1-.45.45.43.43,0,0,1-.41-.29l-1.23,1.22a.46.46,0,0,1,.29.42.45.45,0,0,1-.45.45.43.43,0,0,1-.41-.29l-1.23,1.22a.46.46,0,0,1,.29.42.45.45,0,0,1-.45.45.43.43,0,0,1-.41-.29L47,22.88a.46.46,0,0,1,.29.42.45.45,0,0,1-.45.45.43.43,0,0,1-.41-.29l-.44.43v-9h9Z"/><polygon class="cls-1" points="53.71 41.9 53.71 33.95 52.59 33.95 52.59 43.02 53.71 41.9"/><path class="cls-1" d="M30.89,25.55a.45.45,0,0,0,.45-.45.33.33,0,0,0,0-.15h-.84a.57.57,0,0,0,0,.15A.45.45,0,0,0,30.89,25.55Z"/><path class="cls-1" d="M28.64,17.9a.42.42,0,0,0,0,.16l.57-.58a.41.41,0,0,0-.16,0A.45.45,0,0,0,28.64,17.9Z"/><path class="cls-1" d="M29.09,25.55a.45.45,0,0,0,.45-.45.33.33,0,0,0,0-.15h-.84a.57.57,0,0,0,0,.15A.45.45,0,0,0,29.09,25.55Z"/><path class="cls-1" d="M27.29,18.35a.45.45,0,0,0,0-.9.45.45,0,1,0,0,.9Z"/><path class="cls-1" d="M26.84,19.7a.42.42,0,0,0,0,.16l.57-.58a.41.41,0,0,0-.16,0A.45.45,0,0,0,26.84,19.7Z"/><path class="cls-1" d="M27.29,25.55a.45.45,0,0,0,.45-.45.33.33,0,0,0,0-.15h-.84a.57.57,0,0,0,0,.15A.45.45,0,0,0,27.29,25.55Z"/><circle class="cls-1" cx="25.49" cy="17.9" r="0.45"/><path class="cls-1" d="M25.49,20.15a.45.45,0,1,0,0-.9.45.45,0,0,0,0,.9Z"/><path class="cls-1" d="M25,21.5a.42.42,0,0,0,0,.16l.57-.58a.41.41,0,0,0-.16,0A.45.45,0,0,0,25,21.5Z"/><path class="cls-1" d="M25.49,25.55a.45.45,0,0,0,.45-.45.33.33,0,0,0,0-.15h-.84a.57.57,0,0,0,0,.15A.45.45,0,0,0,25.49,25.55Z"/><circle class="cls-1" cx="23.69" cy="17.9" r="0.45"/><path class="cls-1" d="M23.69,20.15a.45.45,0,0,0,0-.9.45.45,0,0,0,0,.9Z"/><path class="cls-1" d="M23.69,22a.45.45,0,0,0,0-.9.45.45,0,0,0,0,.9Z"/><path class="cls-1" d="M23.24,23.3a.42.42,0,0,0,0,.16l.57-.58a.41.41,0,0,0-.16,0A.45.45,0,0,0,23.24,23.3Z"/><path class="cls-1" d="M23.69,25.55a.45.45,0,0,0,.45-.45.33.33,0,0,0,0-.15h-.84a.57.57,0,0,0,0,.15A.45.45,0,0,0,23.69,25.55Z"/><path class="cls-1" d="M23.74,31.32a.34.34,0,0,0-.34.33V34h.68v-2.3A.34.34,0,0,0,23.74,31.32Z"/><path class="cls-1" d="M28.8,46.4a.34.34,0,0,0,.68,0V43l-.68.68Z"/><path class="cls-1" d="M29.48,31.65a.34.34,0,0,0-.68,0V34h.68Z"/><path class="cls-1" d="M30.6,46.4a.34.34,0,0,0,.68,0V41.22l-.68.68Z"/><path class="cls-1" d="M30.94,31.32a.34.34,0,0,0-.34.33V34h.68v-2.3A.34.34,0,0,0,30.94,31.32Z"/><path class="cls-1" d="M25.54,31.32a.34.34,0,0,0-.34.33V34h.68v-2.3A.34.34,0,0,0,25.54,31.32Z"/><path class="cls-1" d="M27.34,46.73a.34.34,0,0,0,.34-.33V44.82L27,45.5v.9A.34.34,0,0,0,27.34,46.73Z"/><path class="cls-1" d="M27.68,31.65a.34.34,0,0,0-.68,0V34h.68Z"/><path class="cls-1" d="M54,25.55a.45.45,0,0,0,.45-.45.33.33,0,0,0,0-.15h-.83a.33.33,0,0,0,0,.15A.45.45,0,0,0,54,25.55Z"/><path class="cls-1" d="M51.75,17.9a.42.42,0,0,0,0,.16l.57-.58a.41.41,0,0,0-.16,0A.45.45,0,0,0,51.75,17.9Z"/><path class="cls-1" d="M52.2,25.55a.45.45,0,0,0,.45-.45.33.33,0,0,0,0-.15h-.83a.33.33,0,0,0,0,.15A.45.45,0,0,0,52.2,25.55Z"/><path class="cls-1" d="M50.4,18.35a.45.45,0,0,0,0-.9.45.45,0,1,0,0,.9Z"/><path class="cls-1" d="M50,19.7a.42.42,0,0,0,0,.16l.57-.58a.41.41,0,0,0-.16,0A.45.45,0,0,0,50,19.7Z"/><path class="cls-1" d="M50.4,25.55a.45.45,0,0,0,.45-.45.33.33,0,0,0,0-.15H50a.33.33,0,0,0,0,.15A.45.45,0,0,0,50.4,25.55Z"/><path class="cls-1" d="M48.6,18.35a.45.45,0,1,0,0-.9.45.45,0,0,0,0,.9Z"/><path class="cls-1" d="M48.6,20.15a.45.45,0,1,0,0-.9.45.45,0,1,0,0,.9Z"/><path class="cls-1" d="M48.15,21.5a.42.42,0,0,0,0,.16l.57-.58a.41.41,0,0,0-.16,0A.45.45,0,0,0,48.15,21.5Z"/><path class="cls-1" d="M48.6,25.55a.45.45,0,0,0,.45-.45A.33.33,0,0,0,49,25h-.83a.33.33,0,0,0,0,.15A.45.45,0,0,0,48.6,25.55Z"/><circle class="cls-1" cx="46.8" cy="17.9" r="0.45"/><path class="cls-1" d="M46.8,20.15a.45.45,0,0,0,0-.9.45.45,0,0,0,0,.9Z"/><path class="cls-1" d="M46.8,22a.45.45,0,0,0,0-.9.45.45,0,0,0,0,.9Z"/><path class="cls-1" d="M46.35,23.3a.42.42,0,0,0,0,.16l.57-.58a.41.41,0,0,0-.16,0A.45.45,0,0,0,46.35,23.3Z"/><path class="cls-1" d="M46.8,25.55a.45.45,0,0,0,.45-.45.33.33,0,0,0,0-.15h-.83a.33.33,0,0,0,0,.15A.45.45,0,0,0,46.8,25.55Z"/><path class="cls-1" d="M46.85,31.32a.34.34,0,0,0-.34.33V34h.68v-2.3A.34.34,0,0,0,46.85,31.32Z"/><path class="cls-1" d="M51.91,46.4a.34.34,0,0,0,.68,0V43l-.68.68Z"/><path class="cls-1" d="M52.59,31.65a.34.34,0,0,0-.68,0V34h.68Z"/><path class="cls-1" d="M53.71,46.4a.34.34,0,0,0,.68,0V41.22l-.68.68Z"/><path class="cls-1" d="M54.05,31.32a.34.34,0,0,0-.34.33V34h.68v-2.3A.34.34,0,0,0,54.05,31.32Z"/><path class="cls-1" d="M48.65,31.32a.34.34,0,0,0-.34.33V34H49v-2.3A.34.34,0,0,0,48.65,31.32Z"/><path class="cls-1" d="M50.45,46.73a.34.34,0,0,0,.34-.33V44.82l-.68.68v.9A.34.34,0,0,0,50.45,46.73Z"/><path class="cls-1" d="M50.79,31.65a.34.34,0,0,0-.68,0V34h.68Z"/></svg>