<svg id="Layer_1" data-name="Layer 1" xmlns="http://www.w3.org/2000/svg" viewBox="0 0 74.79 74.79"><defs><style>.cls-1{fill:#252944;}</style></defs><title>12</title><path class="cls-1" d="M55.37,28.39v.3H56.5v-.3A6.87,6.87,0,0,0,50,21.54v1.13A5.74,5.74,0,0,1,55.37,28.39Z"/><polygon class="cls-1" points="49.15 53.55 50.1 53.55 51.23 52.43 50.27 52.43 49.15 53.55"/><polygon class="cls-1" points="24.15 41.9 24.15 33.95 23.03 33.95 23.03 43.02 24.15 41.9"/><polygon class="cls-1" points="22.35 43.7 22.35 33.95 21.23 33.95 21.23 44.82 22.35 43.7"/><path class="cls-1" d="M58.17,21.24l.09.11c.21.26.37.48.53.7l.16.24c.13.2.26.41.38.63l.17.31c.1.18.2.4.3.62l.13.3c.1.23.17.45.25.68l.11.32c.07.24.12.46.18.69l.08.35c.05.26.08.5.12.75l0,.33a10.94,10.94,0,0,1,.06,1.12v.3H61.9v-.3c0-.4,0-.81-.06-1.22a.68.68,0,0,1,0-.14l0-.21c0-.28-.08-.56-.13-.83,0-.06,0-.12,0-.18l0-.21c-.06-.26-.12-.51-.2-.76a1.18,1.18,0,0,0-.07-.2l-.06-.17c-.08-.25-.16-.49-.26-.73,0-.08-.06-.14-.09-.21l-.07-.14c-.11-.24-.22-.48-.34-.72l-.17-.3c-.14-.24-.28-.48-.43-.71l-.17-.25c-.17-.25-.35-.49-.58-.77l-.1-.13a12.21,12.21,0,0,0-9-4.36v1.12A11.12,11.12,0,0,1,58.17,21.24Z"/><path class="cls-1" d="M57.17,28.39v.3H58.3v-.3c0-.28,0-.57,0-.88l0-.33c0-.16,0-.32-.07-.46l-.07-.3c-.05-.23-.09-.38-.13-.53l-.1-.27c-.06-.17-.11-.34-.19-.53l-.1-.23-.21-.44-.16-.28a4.87,4.87,0,0,0-.28-.47l-.14-.21c-.12-.17-.25-.35-.41-.54l-.07-.09A8.63,8.63,0,0,0,50,19.75v1.12A7.54,7.54,0,0,1,57.17,28.39Z"/><path class="cls-1" d="M56.79,22.4l.08.09c.17.21.3.4.44.59l.14.22a4.56,4.56,0,0,1,.31.51l.17.29c.06.12.14.3.22.48l.11.25a5.79,5.79,0,0,1,.21.57l.1.28c0,.18.09.35.13.52l.09.38a4,4,0,0,1,.08.52l.05.33a8.24,8.24,0,0,1,0,1v.3H60.1v-.3a9.2,9.2,0,0,0-.06-1l0-.3a7.06,7.06,0,0,0-.11-.71L59.81,26c-.05-.23-.1-.44-.16-.65L59.54,25c-.07-.21-.14-.41-.23-.63l-.13-.29c-.09-.2-.19-.4-.28-.57l-.16-.3c-.11-.2-.24-.4-.36-.59l-.15-.23c-.15-.2-.3-.41-.49-.65l-.09-.11A10.4,10.4,0,0,0,50,18v1.12A9.33,9.33,0,0,1,56.79,22.4Z"/><path class="cls-1" d="M37.4,0A37.4,37.4,0,1,0,74.79,37.4,37.39,37.39,0,0,0,37.4,0ZM50,14.6v.87a12.92,12.92,0,0,1,9.54,4.62l.11.13c.24.29.42.55.61.81l.17.25c.16.25.31.5.46.76l.17.31c.14.25.25.51.37.76l.05.12c0,.1.08.17.11.25.1.25.19.51.28.77l0,.14c0,.1.06.18.09.26.08.26.14.53.2.79l0,.17a2.15,2.15,0,0,1,.06.25,8.7,8.7,0,0,1,.13.87l0,.18c0,.08,0,.14,0,.2,0,.43.06.86.06,1.28v.3h.67A13.46,13.46,0,0,1,51.52,42V32.8a4.47,4.47,0,0,0,2.72-4.11h.46v-.3a5.06,5.06,0,0,0-4.69-5v.24a4.53,4.53,0,0,0-2.48.75L41.13,18A13.45,13.45,0,0,1,50,14.6ZM45.87,45.51a.45.45,0,0,1-.28.42,4.78,4.78,0,0,0-.08.76H44.09L38,40.58c.17-.35.37-.68.57-1L45,46a.33.33,0,0,0,.47,0s0,0,0,0h-.07a.45.45,0,0,1-.45-.45.42.42,0,0,1,.16-.33L38.94,39c.21-.31.44-.62.68-.91l6.46,6.46a5.64,5.64,0,0,0-.31.71A.4.4,0,0,1,45.87,45.51Zm-.45,2.25a.45.45,0,0,1-.45-.45.45.45,0,1,1,.9,0A.45.45,0,0,1,45.42,47.76Zm.45,1.35a.45.45,0,0,1-.9,0,.45.45,0,1,1,.9,0Zm-2.25-1.35a.45.45,0,0,1-.45-.45.45.45,0,1,1,.9,0A.45.45,0,0,1,43.62,47.76Zm.45,1.35a.45.45,0,0,1-.9,0,.45.45,0,1,1,.9,0Zm-2.25.45a.45.45,0,0,1-.45-.45.45.45,0,0,1,.9,0A.45.45,0,0,1,41.82,49.56Zm.45,1.35a.45.45,0,0,1-.9,0,.45.45,0,0,1,.9,0Zm-.45-3.15a.45.45,0,0,1-.45-.45.45.45,0,0,1,.9,0A.45.45,0,0,1,41.82,47.76Zm-.27-1.07-1.1-1.09A.44.44,0,0,1,40,46a.43.43,0,0,1-.22-.06l.79.79H39L38.27,46h-.05a.45.45,0,0,1-.45-.45v0l-1.06-1.06c.08-.44.17-.88.29-1.3l2.63,2.63a.43.43,0,0,1,.3-.66l-2.71-2.71a11.25,11.25,0,0,1,.45-1.14l3.91,3.91a.43.43,0,0,1,.68.37.48.48,0,0,1-.07.24l.94.94ZM40,47.76a.45.45,0,0,1-.45-.45.45.45,0,1,1,.9,0A.45.45,0,0,1,40,47.76Zm.45,1.35a.45.45,0,0,1-.9,0,.45.45,0,1,1,.9,0Zm-2.25-1.35a.45.45,0,0,1-.45-.45.45.45,0,1,1,.9,0A.45.45,0,0,1,38.22,47.76Zm.45,1.35a.45.45,0,0,1-.9,0,.45.45,0,1,1,.9,0Zm1.4-11.53c.14-.14.26-.3.4-.43l.4-.37,6.38,6.38c-.14.12-.29.22-.42.35a5.19,5.19,0,0,0-.37.45Zm1.3-1.25q.43-.36.9-.69l6.54,6.54a.34.34,0,0,0,.48,0,.33.33,0,0,0,0-.47l-6.44-6.45c.33-.2.66-.4,1-.58L50,40.84v1.35a4.51,4.51,0,0,0-2.19.59Zm3.14-2c.37-.16.75-.31,1.14-.44L50,38.29v1.59Zm1.87-.67a11,11,0,0,1,1.29-.29L50,35.75v1.59Zm2.12-.42A15.11,15.11,0,0,1,50,33.19v1.6ZM39.86,19.22l6.4,6.4a4.48,4.48,0,0,0-.75,2.48h-9A13.41,13.41,0,0,1,39.86,19.22Zm-3.27,26,1.46,1.45H36.51A13.94,13.94,0,0,1,36.59,45.24Zm-.08,5.95h1.37a.41.41,0,0,1-.11-.28.45.45,0,1,1,.8.28h.21l-2.27,2.27Zm0,3.23L37.9,53a.44.44,0,0,1-.13-.32.45.45,0,0,1,.45-.45.46.46,0,0,1,.32.13l1.16-1.16a.44.44,0,0,1-.13-.32.45.45,0,1,1,.8.28h1l-1.12,1.12a.44.44,0,0,1,.26.4.45.45,0,0,1-.45.45.43.43,0,0,1-.4-.26L36.51,56Zm0,2.54,5.78-5.77h1a.41.41,0,0,1-.11-.28.45.45,0,0,1,.9,0,.43.43,0,0,1-.35.43l-1.47,1.48a.43.43,0,0,1-.33.32l-5.41,5.41ZM25.39,59.9h-9v-9h9Zm0-25.95h-.56v7.27l.56-.56v9h-9l4.16-4.16V34H19.43V46.4a.34.34,0,0,1-.34.33.34.34,0,0,1-.34-.33V34H17.63V46.4a.34.34,0,0,1-.34.33A.34.34,0,0,1,17,46.4V34H7.39l9-9h.43a.45.45,0,0,1,.42-.3.43.43,0,0,1,.42.3h1a.45.45,0,0,1,.42-.3.43.43,0,0,1,.42.3h1a.45.45,0,0,1,.42-.3.43.43,0,0,1,.42.3h1a.45.45,0,0,1,.42-.3.43.43,0,0,1,.42.3h1a.45.45,0,0,1,.42-.3.43.43,0,0,1,.42.3h.53ZM18.59,23.3a.45.45,0,1,1,.45.45A.45.45,0,0,1,18.59,23.3Zm2.25-.45a.45.45,0,1,1-.45.45A.45.45,0,0,1,20.84,22.85Zm-.45-1.35a.45.45,0,1,1,.45.45A.45.45,0,0,1,20.39,21.5Zm2.25-.45a.45.45,0,1,1-.45.45A.45.45,0,0,1,22.64,21.05Zm-.45-1.35a.45.45,0,1,1,.45.45A.45.45,0,0,1,22.19,19.7Zm.45,3.15a.45.45,0,1,1-.45.45A.45.45,0,0,1,22.64,22.85Zm1.8-3.6a.45.45,0,1,1-.45.45A.45.45,0,0,1,24.44,19.25ZM24,17.9a.45.45,0,1,1,.45.45A.45.45,0,0,1,24,17.9Zm.45,3.15a.45.45,0,1,1-.45.45A.45.45,0,0,1,24.44,21.05Zm0,1.8a.45.45,0,1,1-.45.45A.45.45,0,0,1,24.44,22.85ZM22.8,17.48a.46.46,0,0,1,.29.42.45.45,0,0,1-.45.45.43.43,0,0,1-.41-.29L21,19.28a.46.46,0,0,1,.29.42.45.45,0,0,1-.45.45.43.43,0,0,1-.41-.29L19.2,21.08a.46.46,0,0,1,.29.42A.45.45,0,0,1,19,22a.43.43,0,0,1-.41-.29L17.4,22.88a.46.46,0,0,1,.29.42.45.45,0,0,1-.45.45.43.43,0,0,1-.41-.29l-.44.44v-9h9ZM38.38,60.19l7-7a.45.45,0,0,1-.44-.45.29.29,0,0,1,0-.09l-7.57,7.57h-.91v-.68l6.68-6.68a.5.5,0,0,1,0-.12.45.45,0,0,1,.45-.45.35.35,0,0,1,.11,0l1.1-1.1h.25a.41.41,0,0,1-.11-.28.45.45,0,1,1,.8.28h.65l-1.09,1.09.09,0a.46.46,0,0,1,.45.44l1.51-1.51H49l-9,9Zm24.68-.56H49A.34.34,0,1,1,49,59H63.06a.34.34,0,1,1,0,.68Zm0-1.8H49a.34.34,0,0,1,0-.68H63.06a.34.34,0,0,1,0,.68Zm0-4.28a.34.34,0,0,1,0,.68H51.48l-1.13,1.12H63.06a.34.34,0,1,1,0,.68H49.68l-4.17,4.16h-2l6-6H49a.31.31,0,0,1-.29-.23l-6.2,6.19H40.92l7.86-7.85a.35.35,0,0,1-.12-.25.34.34,0,0,1,.34-.34h.36l.56-.56h1.59l-.56.56h.95l.57-.56h2l-.56.56h9.11a.34.34,0,0,1,0,.68H53.28l-1.13,1.12Z"/><path class="cls-1" d="M24.44,25.55a.45.45,0,0,0,.45-.45.33.33,0,0,0,0-.15H24a.57.57,0,0,0,0,.15A.45.45,0,0,0,24.44,25.55Z"/><path class="cls-1" d="M22.19,17.9a.42.42,0,0,0,0,.16l.57-.58a.41.41,0,0,0-.16,0A.45.45,0,0,0,22.19,17.9Z"/><path class="cls-1" d="M22.64,25.55a.45.45,0,0,0,.45-.45.33.33,0,0,0,0-.15h-.84a.57.57,0,0,0,0,.15A.45.45,0,0,0,22.64,25.55Z"/><path class="cls-1" d="M20.84,18.35a.45.45,0,1,0-.45-.45A.45.45,0,0,0,20.84,18.35Z"/><path class="cls-1" d="M20.39,19.7a.42.42,0,0,0,0,.16l.57-.58a.41.41,0,0,0-.16,0A.45.45,0,0,0,20.39,19.7Z"/><path class="cls-1" d="M20.84,25.55a.45.45,0,0,0,.45-.45.33.33,0,0,0,0-.15h-.84a.57.57,0,0,0,0,.15A.45.45,0,0,0,20.84,25.55Z"/><path class="cls-1" d="M19,18.35a.45.45,0,1,0-.45-.45A.45.45,0,0,0,19,18.35Z"/><path class="cls-1" d="M19,20.15a.45.45,0,1,0-.45-.45A.45.45,0,0,0,19,20.15Z"/><path class="cls-1" d="M18.59,21.5a.42.42,0,0,0,0,.16l.57-.58a.41.41,0,0,0-.16,0A.45.45,0,0,0,18.59,21.5Z"/><path class="cls-1" d="M19,25.55a.45.45,0,0,0,.45-.45.33.33,0,0,0,0-.15h-.84a.57.57,0,0,0,0,.15A.45.45,0,0,0,19,25.55Z"/><path class="cls-1" d="M17.24,18.35a.45.45,0,1,0-.45-.45A.45.45,0,0,0,17.24,18.35Z"/><path class="cls-1" d="M17.24,20.15a.45.45,0,1,0-.45-.45A.45.45,0,0,0,17.24,20.15Z"/><circle class="cls-1" cx="17.24" cy="21.5" r="0.45"/><path class="cls-1" d="M16.79,23.3a.42.42,0,0,0,0,.16l.57-.58a.41.41,0,0,0-.16,0A.45.45,0,0,0,16.79,23.3Z"/><path class="cls-1" d="M17.24,25.55a.45.45,0,0,0,.45-.45.33.33,0,0,0,0-.15h-.84a.57.57,0,0,0,0,.15A.45.45,0,0,0,17.24,25.55Z"/><path class="cls-1" d="M17.29,31.32a.34.34,0,0,0-.34.33V34h.68v-2.3A.34.34,0,0,0,17.29,31.32Z"/><path class="cls-1" d="M22.35,46.4a.34.34,0,0,0,.34.33A.34.34,0,0,0,23,46.4V43l-.68.68Z"/><path class="cls-1" d="M23,31.65a.34.34,0,0,0-.34-.33.34.34,0,0,0-.34.33V34H23Z"/><path class="cls-1" d="M24.15,46.4a.34.34,0,0,0,.34.33.34.34,0,0,0,.34-.33V41.22l-.68.68Z"/><path class="cls-1" d="M24.49,31.32a.34.34,0,0,0-.34.33V34h.68v-2.3A.34.34,0,0,0,24.49,31.32Z"/><path class="cls-1" d="M19.09,31.32a.34.34,0,0,0-.34.33V34h.68v-2.3A.34.34,0,0,0,19.09,31.32Z"/><path class="cls-1" d="M20.89,46.73a.34.34,0,0,0,.34-.33V44.82l-.68.68v.9A.34.34,0,0,0,20.89,46.73Z"/><path class="cls-1" d="M21.23,31.65a.34.34,0,0,0-.34-.33.34.34,0,0,0-.34.33V34h.68Z"/><path class="cls-1" d="M50,15.79a.34.34,0,0,1-.34.33c.13,0,.26,0,.38,0v-.68l-.38,0A.34.34,0,0,1,50,15.79Z"/><path class="cls-1" d="M49.63,22.65H48.55a.34.34,0,1,0,0,.67h1.08c.13,0,.26,0,.38,0v-.69Z"/><path class="cls-1" d="M49.63,17.25a.34.34,0,1,1,0,.67c.13,0,.26,0,.38,0v-.68Z"/><path class="cls-1" d="M49.63,20.85H48.55a.34.34,0,1,0,0,.67h1.08l.38,0v-.67Z"/><path class="cls-1" d="M50,19.07l-.38,0H48.55a.34.34,0,1,0,0,.67h1.08c.13,0,.26,0,.38,0v-.68Z"/><path class="cls-1" d="M49.3,17.59a.34.34,0,0,1,.33-.34H48.55a.34.34,0,1,0,0,.67h1.08A.33.33,0,0,1,49.3,17.59Z"/><path class="cls-1" d="M49.3,15.79a.34.34,0,0,1,.33-.34H48.55a.34.34,0,1,0,0,.67h1.08A.33.33,0,0,1,49.3,15.79Z"/><path class="cls-1" d="M55,29.81a.34.34,0,0,0,.34-.34v-.78h-.26a.15.15,0,0,1-.08,0s-.05,0-.08,0H54.7v.78A.34.34,0,0,0,55,29.81Z"/><path class="cls-1" d="M55,28.69h.16a.32.32,0,0,0,.26-.3.34.34,0,1,0-.67,0A.32.32,0,0,0,55,28.69Z"/><path class="cls-1" d="M56.83,28.72s0,0-.08,0H56.5v.78a.34.34,0,1,0,.67,0v-.78h-.26A.15.15,0,0,1,56.83,28.72Z"/><path class="cls-1" d="M56.75,28.69h.16a.32.32,0,0,0,.26-.3.34.34,0,1,0-.67,0A.32.32,0,0,0,56.75,28.69Z"/><path class="cls-1" d="M58.63,28.72s-.05,0-.08,0H58.3v.78a.34.34,0,1,0,.67,0v-.78h-.26A.15.15,0,0,1,58.63,28.72Z"/><path class="cls-1" d="M58.55,28.69h.16a.32.32,0,0,0,.26-.3.34.34,0,1,0-.67,0A.32.32,0,0,0,58.55,28.69Z"/><path class="cls-1" d="M60.43,28.72s0,0-.08,0H60.1v.78a.34.34,0,1,0,.67,0v-.78h-.26A.15.15,0,0,1,60.43,28.72Z"/><path class="cls-1" d="M60.35,28.69h.16a.32.32,0,0,0,.26-.3.34.34,0,1,0-.67,0A.32.32,0,0,0,60.35,28.69Z"/><path class="cls-1" d="M62.23,28.72s0,0-.08,0H61.9v.78a.34.34,0,1,0,.67,0v-.78h-.25A.24.24,0,0,1,62.23,28.72Z"/><path class="cls-1" d="M62.23,28.05a.34.34,0,0,0-.33.34.32.32,0,0,0,.25.3h.17a.32.32,0,0,0,.25-.3A.34.34,0,0,0,62.23,28.05Z"/><path class="cls-1" d="M50.28,52.43l.67-.68H49.36l-.58.59a.34.34,0,0,0,.22.09Z"/><polygon class="cls-1" points="53.28 52.43 53.95 51.75 51.91 51.75 51.23 52.43 53.28 52.43"/><path class="cls-1" d="M49,53.55a.34.34,0,0,0-.34.34s0,.07.05.11l.44-.45Z"/><polygon class="cls-1" points="49.43 54.23 51.48 54.23 52.15 53.55 50.1 53.55 49.43 54.23"/><path class="cls-1" d="M48.66,55.69A.34.34,0,0,0,49,56h.68l.67-.68H49A.34.34,0,0,0,48.66,55.69Z"/><path class="cls-1" d="M45.42,45.06a.45.45,0,0,0-.29.12l.34.34a.32.32,0,0,1,0,.43l.1,0a5.23,5.23,0,0,1,.18-.68A.43.43,0,0,0,45.42,45.06Z"/><path class="cls-1" d="M45.42,51.36a.46.46,0,0,0,.35-.17h-.69A.44.44,0,0,0,45.42,51.36Z"/><path class="cls-1" d="M45.87,52.71h0l-.46.46h0A.45.45,0,0,0,45.87,52.71Z"/><path class="cls-1" d="M45,52.62l.34-.34A.45.45,0,0,0,45,52.62Z"/><circle class="cls-1" cx="43.62" cy="45.51" r="0.45"/><path class="cls-1" d="M43.62,51.36l.1,0,.16-.15h-.6A.44.44,0,0,0,43.62,51.36Z"/><path class="cls-1" d="M43.62,53.16a.45.45,0,0,0,.45-.45.44.44,0,0,0-.34-.42l-.54.54A.45.45,0,0,0,43.62,53.16Z"/><path class="cls-1" d="M41.37,45.51a.45.45,0,0,0,.45.45.44.44,0,0,0,.38-.21l-.61-.61A.43.43,0,0,0,41.37,45.51Z"/><path class="cls-1" d="M41.82,52.26a.45.45,0,0,0-.45.45.45.45,0,0,0,.45.45l.1,0,.33-.32a.43.43,0,0,0,0-.11A.45.45,0,0,0,41.82,52.26Z"/><path class="cls-1" d="M40,45.06l-.08,0,.51.52a.29.29,0,0,0,0-.09A.45.45,0,0,0,40,45.06Z"/><path class="cls-1" d="M39.8,45.9l-.16-.16A.49.49,0,0,0,39.8,45.9Z"/><path class="cls-1" d="M40,51.36a.46.46,0,0,0,.35-.17h-.63l0,0A.46.46,0,0,0,40,51.36Z"/><path class="cls-1" d="M39.57,52.71a.38.38,0,0,0,0,.19l.59-.59a.41.41,0,0,0-.19-.05A.45.45,0,0,0,39.57,52.71Z"/><path class="cls-1" d="M38.67,45.51a.45.45,0,0,0-.45-.45.45.45,0,0,0-.44.41l.49.49A.45.45,0,0,0,38.67,45.51Z"/><path class="cls-1" d="M38.22,51.36a.46.46,0,0,0,.35-.17h-.69A.44.44,0,0,0,38.22,51.36Z"/><path class="cls-1" d="M38.22,53.16a.45.45,0,0,0,.45-.45.48.48,0,0,0-.13-.32L37.9,53A.46.46,0,0,0,38.22,53.16Z"/></svg>