<svg id="Layer_1" data-name="Layer 1" xmlns="http://www.w3.org/2000/svg" viewBox="0 0 74.79 74.79"><defs><style>.cls-1{fill:#252944;}</style></defs><title>3</title><path class="cls-1" d="M47.55,26.63c0-.19,0-.36-.08-.52l-.08-.33c-.06-.25-.1-.43-.15-.59l-.1-.3c-.07-.19-.13-.38-.22-.59l-.11-.25c-.09-.19-.17-.38-.23-.49l-.18-.32a5.71,5.71,0,0,0-.31-.51l-.16-.24q-.2-.28-.45-.6l-.08-.1A9.62,9.62,0,0,0,38,18.34H37.1l1,1v.23A8.39,8.39,0,0,1,46.4,28h1.25a8.41,8.41,0,0,0,0-1Z" transform="translate(-0.72 -0.58)"/><path class="cls-1" d="M45.75,47.82v-.54l-.69.68h-.57a6.37,6.37,0,0,1-6.25,6.23v1.25A7.63,7.63,0,0,0,45.75,47.82Z" transform="translate(-0.72 -0.58)"/><path class="cls-1" d="M45.5,54l.07-.1a7.5,7.5,0,0,0,.46-.61l.16-.23c.09-.14.2-.33.31-.52l.18-.32c0-.1.14-.29.22-.48l.12-.27q.12-.28.21-.57l.11-.32c0-.15.08-.32.12-.49l.11-.43c0-.14,0-.32.07-.5l0-.38c0-.28,0-.55.05-.82H46.49a8.37,8.37,0,0,1-8.25,8.23v1.25A9.6,9.6,0,0,0,45.5,54Z" transform="translate(-0.72 -0.58)"/><path class="cls-1" d="M50.72,48h-.23a10.09,10.09,0,0,1-.06,1.09l0,.37c0,.29-.07.56-.12.82l-.1.4c-.06.27-.12.51-.2.76l-.12.38c-.09.25-.17.49-.28.75l-.15.34c-.11.24-.22.48-.32.68l-.19.34c-.14.25-.29.49-.43.7l-.18.27c-.17.25-.36.5-.58.78l-.1.12a12.34,12.34,0,0,1-9.37,4.43v1.25a13.57,13.57,0,0,0,10.32-4.87l.12-.14c.25-.31.45-.58.64-.86l.18-.27c.17-.26.33-.52.48-.79l.19-.34c.14-.26.26-.52.38-.79l.06-.13a2.49,2.49,0,0,0,.11-.26c.11-.26.21-.54.3-.81l.06-.16c0-.1.06-.18.08-.26.09-.27.15-.55.22-.84l0-.19c0-.11,0-.18,0-.24.06-.3.1-.61.14-.92l0-.21c0-.08,0-.13,0-.18,0-.46.07-.92.07-1.36v-.88Z" transform="translate(-0.72 -0.58)"/><path class="cls-1" d="M38.12.58A37.4,37.4,0,1,0,75.51,38,37.4,37.4,0,0,0,38.12.58ZM29.11,16l7.28,7.29a4.94,4.94,0,0,0-1,.51l-7.11-7.11C28.53,16.45,28.82,16.22,29.11,16Zm4.26,33.49a.5.5,0,0,1-.5-.5.5.5,0,0,1,.5-.5.5.5,0,0,1,.5.5A.51.51,0,0,1,33.37,49.49Zm.5,1.5a.51.51,0,0,1-.5.5.5.5,0,0,1-.5-.5.5.5,0,0,1,.5-.5A.5.5,0,0,1,33.87,51Zm-.5-3.5a.5.5,0,0,1-.5-.5.5.5,0,0,1,.5-.5.5.5,0,0,1,.5.5A.51.51,0,0,1,33.37,47.49Zm-.25-4.55V41.17L41,33.25q.72.15,1.41.36Zm0-2.83V38.34L38.48,33c.55,0,1.1.06,1.64.13Zm0-2.83V35.51L35.67,33h1.76Zm0-2.83V33h1.49ZM26.84,18.1,34,25.21A5,5,0,0,0,33.12,28h-10A14.92,14.92,0,0,1,26.84,18.1Zm4.53,33.39a.5.5,0,0,1-.5-.5.5.5,0,0,1,.5-.5.5.5,0,0,1,.5.5A.51.51,0,0,1,31.37,51.49Zm.5,1.5a.51.51,0,0,1-.5.5.5.5,0,0,1-.5-.5.5.5,0,0,1,.5-.5A.5.5,0,0,1,31.87,53Zm-.5-3.5a.5.5,0,0,1-.5-.5.5.5,0,0,1,.5-.5.5.5,0,0,1,.5.5A.51.51,0,0,1,31.37,49.49Zm0-2a.5.5,0,0,1-.5-.5.5.5,0,0,1,.5-.5.5.5,0,0,1,.5.5A.51.51,0,0,1,31.37,47.49Zm-2,6a.5.5,0,0,1-.5-.5.5.5,0,0,1,.5-.5.5.5,0,0,1,.5.5A.51.51,0,0,1,29.37,53.49Zm.5,1.5a.51.51,0,0,1-.5.5.5.5,0,0,1-.5-.5.5.5,0,0,1,.5-.5A.5.5,0,0,1,29.87,55Zm-.5-3.5a.5.5,0,0,1-.5-.5.5.5,0,0,1,.5-.5.5.5,0,0,1,.5.5A.51.51,0,0,1,29.37,51.49Zm0-2a.5.5,0,0,1-.5-.5.5.5,0,0,1,.5-.5.5.5,0,0,1,.5.5A.51.51,0,0,1,29.37,49.49Zm0-2a.5.5,0,0,1-.5-.5.5.5,0,0,1,.5-.5.5.5,0,0,1,.5.5A.51.51,0,0,1,29.37,47.49Zm-2,6a.5.5,0,0,1-.5-.5.5.5,0,0,1,.5-.5.5.5,0,0,1,.5.5A.51.51,0,0,1,27.37,53.49Zm.5,1.5a.51.51,0,0,1-.5.5.5.5,0,0,1-.5-.5.5.5,0,0,1,.5-.5A.5.5,0,0,1,27.87,55Zm-.5-3.5a.5.5,0,0,1-.5-.5.5.5,0,0,1,.5-.5.5.5,0,0,1,.5.5A.51.51,0,0,1,27.37,51.49Zm0-2a.5.5,0,0,1-.5-.5.5.5,0,0,1,.5-.5.5.5,0,0,1,.5.5A.51.51,0,0,1,27.37,49.49Zm0-2a.5.5,0,0,1-.5-.5.5.5,0,0,1,.5-.5.5.5,0,0,1,.5.5A.51.51,0,0,1,27.37,47.49Zm-2,10a.5.5,0,0,1-.5-.5.5.5,0,0,1,.5-.5.5.5,0,0,1,.5.5A.51.51,0,0,1,25.37,57.49Zm0-2a.5.5,0,0,1-.5-.5.5.5,0,0,1,.5-.5.5.5,0,0,1,.5.5A.51.51,0,0,1,25.37,55.49Zm0-2a.5.5,0,0,1-.5-.5.5.5,0,0,1,.5-.5.5.5,0,0,1,.5.5A.51.51,0,0,1,25.37,53.49Zm0-2a.5.5,0,0,1-.5-.5.5.5,0,0,1,.5-.5.5.5,0,0,1,.5.5A.51.51,0,0,1,25.37,51.49Zm0-2a.5.5,0,0,1-.5-.5.5.5,0,0,1,.5-.5.5.5,0,0,1,.5.5A.51.51,0,0,1,25.37,49.49Zm0-2a.5.5,0,0,1-.5-.5.5.5,0,0,1,.5-.5.5.5,0,0,1,.5.5A.51.51,0,0,1,25.37,47.49Zm1.5,9.5a.5.5,0,0,1,.5-.5.5.5,0,0,1,.5.5.51.51,0,0,1-.5.5A.5.5,0,0,1,26.87,57Zm25.55-7.74a1.5,1.5,0,0,1,0,.2l0,.22c0,.32-.08.64-.14,1l-.06.23,0,.24c-.07.29-.14.59-.23.88l-.09.26-.06.19c-.1.28-.2.57-.31.85a2.72,2.72,0,0,0-.11.25l-.07.16c-.13.28-.26.56-.41.83l-.19.36c-.16.28-.33.56-.51.83l-.19.29c-.21.29-.42.57-.68.9l-.12.14a14.32,14.32,0,0,1-10.9,5.15V63a14.92,14.92,0,0,1-10.6-4.4L29,57.27a.55.55,0,0,1-.09-.28.5.5,0,0,1,.5-.5.55.55,0,0,1,.28.09L31,55.27a.55.55,0,0,1-.09-.28.5.5,0,0,1,.5-.5.55.55,0,0,1,.28.09L33,53.27a.55.55,0,0,1-.09-.28.5.5,0,0,1,.5-.5.55.55,0,0,1,.28.09l1.06-1.06A5,5,0,0,0,38.24,53v.45A5.62,5.62,0,0,0,43.74,48h-.45l.46-.45v-.89a.37.37,0,0,1,.37-.38.38.38,0,0,1,.38.38v.14L51,40.28a12.57,12.57,0,0,1,.62,1.14l-5.12,5.12a.24.24,0,0,1,0,.08v1L52,42.14c.17.42.33.86.47,1.3L48.5,47.36v.46a10.12,10.12,0,0,1-.06,1.06l0,.38c0,.2-.06.39-.09.56l-.09.37a6,6,0,0,1-.16.62l-.11.33c-.07.21-.14.41-.23.63l-.12.28-.25.53-.19.33a5.72,5.72,0,0,1-.34.57l-.16.24c-.15.21-.3.42-.49.65l-.08.1a10.34,10.34,0,0,1-7.84,3.72v1.25A11.56,11.56,0,0,0,47,55.28l.1-.12c.21-.26.38-.49.54-.73l.18-.25c.13-.2.26-.42.39-.65l.19-.34c.09-.18.2-.4.3-.63l.14-.33c.1-.23.18-.46.26-.69l.12-.37c.07-.22.12-.45.18-.68l.09-.41c0-.23.08-.49.11-.74l.06-.38c0-.33.05-.67.05-1H49l.8-.79v-.55a.37.37,0,0,1,.37-.38.38.38,0,0,1,.34.22l2.18-2.19c.12.49.22,1,.3,1.48l-.59.58a.36.36,0,0,1,.15.29v.63l.55-.56c0,.42.07.84.07,1.27h-.63A11.4,11.4,0,0,1,52.42,49.25ZM42.24,45.13a5.28,5.28,0,0,0-.85-.92l7.08-7.08q.45.43.87.9Zm7.59-6.53c.26.33.52.67.75,1L43,47.16a5.17,5.17,0,0,0-.42-1.35Zm-9,5.15a5.18,5.18,0,0,0-1.22-.55l7.36-7.36q.51.38,1,.78ZM52.4,28.68v.49a.38.38,0,0,1-.37.38.39.39,0,0,1-.32-.18l-5.8,5.8c.13.08.27.15.4.24L38.69,43a5.51,5.51,0,0,0-.57-.06H37l6.14-6.13V35.77L35.92,43H34.15l9-9V28h.53a5.63,5.63,0,0,0-5.53-5.62V23a5.28,5.28,0,0,0-.9.09l-7.49-7.49c.35-.24.72-.46,1.09-.67l6.7,6.7H38A6.38,6.38,0,0,1,44.4,28h1.25a7.63,7.63,0,0,0-7.53-7.62v.78l-.79-.78h-.51a.38.38,0,0,1-.37-.38.39.39,0,0,1,.19-.32l-5.13-5.13A13.29,13.29,0,0,1,32.73,14l3.79,3.79a.36.36,0,0,1,.3-.17h.59L33.53,13.7c.45-.15.91-.27,1.39-.38l2.26,2.27H38A12.35,12.35,0,0,1,47.51,20l.1.12c.23.28.41.53.59.78l.17.26c.15.22.29.46.43.7l.19.34c.11.21.22.45.33.69l.14.33c.11.27.2.51.28.76l.13.36c.07.26.13.51.19.76l.1.4c.05.28.09.55.12.82l.06.37c0,.44.06.85.06,1.24h1.25a12.6,12.6,0,0,0-.07-1.35.77.77,0,0,0,0-.15l0-.24c0-.31-.08-.62-.14-.92,0-.07,0-.13,0-.19l-.06-.24q-.09-.44-.21-.84c0-.08,0-.16-.08-.23l-.06-.19c-.1-.28-.19-.55-.3-.81l-.1-.24-.07-.15c-.12-.27-.25-.53-.38-.79l-.19-.34c-.15-.27-.31-.54-.48-.79l-.19-.28c-.19-.27-.39-.54-.64-.85l-.12-.14a13.57,13.57,0,0,0-10.34-4.88v1.13L37,14.34h-.17a.38.38,0,0,1-.37-.38.35.35,0,0,1,0-.14l-.67-.66a14.59,14.59,0,0,1,2.31-.2v.63A14.34,14.34,0,0,1,49,18.74l.12.15a11.22,11.22,0,0,1,.68.9l.19.28q.27.42.51.84l.19.35c.15.28.29.56.41.84l.06.13a2.93,2.93,0,0,1,.12.28c.12.28.22.57.31.85l.06.17c0,.1.07.19.1.28.08.29.15.59.22.88l.05.19a2.42,2.42,0,0,1,.06.28c.07.31.11.64.15,1l0,.2c0,.09,0,.15,0,.22A13.77,13.77,0,0,1,52.4,28h.72Z" transform="translate(-0.72 -0.58)"/><path class="cls-1" d="M49.54,26.48c0-.29-.07-.54-.11-.79l-.09-.37c-.06-.25-.12-.49-.19-.72L49,24.25c-.08-.23-.16-.46-.25-.7l-.15-.32c-.1-.23-.2-.46-.3-.64l-.19-.33c-.12-.23-.26-.45-.39-.65l-.17-.26c-.16-.23-.34-.46-.55-.73l-.1-.12A11.61,11.61,0,0,0,38,16.34h-.1l.19.19v1.06A10.39,10.39,0,0,1,46,21.31l.08.1c.19.24.34.44.49.66l.17.24.34.57.18.32c.07.13.16.34.25.54l.12.27c.1.23.17.43.24.64L48,25q.09.28.15.57l.1.42c0,.19.06.38.09.58l.05.37A10.27,10.27,0,0,1,48.4,28h1.25a11.37,11.37,0,0,0-.06-1.15Z" transform="translate(-0.72 -0.58)"/><path class="cls-1" d="M43.12,36.83V38l2.79-2.79c-.23-.15-.46-.3-.71-.43Z" transform="translate(-0.72 -0.58)"/><path class="cls-1" d="M43.24,33.88l-.12.12v1.77l1.37-1.37C44.08,34.21,43.66,34,43.24,33.88Z" transform="translate(-0.72 -0.58)"/><path class="cls-1" d="M38,14.34h.09v0Z" transform="translate(-0.72 -0.58)"/><path class="cls-1" d="M38.12,13.61v0H38Z" transform="translate(-0.72 -0.58)"/><polygon class="cls-1" points="51.68 27.38 51.68 27.38 51.68 27.38 51.68 27.38"/><polygon class="cls-1" points="50.93 27.38 50.93 27.38 50.93 27.38 50.93 27.38"/><path class="cls-1" d="M37.52,21.59h-.7a.38.38,0,0,0,0,.75h1.3v-.16Z" transform="translate(-0.72 -0.58)"/><polygon class="cls-1" points="43.68 27.38 43.68 27.38 43.68 27.38 43.68 27.38"/><polygon class="cls-1" points="42.93 27.38 42.93 27.38 42.93 27.38 42.93 27.38"/><polygon class="cls-1" points="48.93 27.38 48.93 27.38 48.93 27.38 48.93 27.38"/><polygon class="cls-1" points="49.68 27.38 49.68 27.38 49.68 27.38 49.68 27.38"/><path class="cls-1" d="M38,19.59H36.82a.35.35,0,0,0-.18.05l.69.7h.79v-.75Z" transform="translate(-0.72 -0.58)"/><polygon class="cls-1" points="44.93 27.38 44.93 27.38 44.93 27.38 44.93 27.38"/><polygon class="cls-1" points="45.68 27.38 45.68 27.38 45.68 27.38 45.68 27.38"/><path class="cls-1" d="M36.82,18.34h.28l-.58-.58a.37.37,0,0,0-.07.2A.38.38,0,0,0,36.82,18.34Z" transform="translate(-0.72 -0.58)"/><path class="cls-1" d="M38.12,18v-.37h-.71l.71.71Z" transform="translate(-0.72 -0.58)"/><polygon class="cls-1" points="47.68 27.38 47.68 27.38 47.68 27.38 47.68 27.38"/><polygon class="cls-1" points="46.93 27.38 46.93 27.38 46.93 27.38 46.93 27.38"/><path class="cls-1" d="M36.45,16a.38.38,0,0,0,.37.38h1.11l0,0a.37.37,0,0,1-.23-.23l-.5-.5h-.36A.38.38,0,0,0,36.45,16Z" transform="translate(-0.72 -0.58)"/><path class="cls-1" d="M37.65,16a.28.28,0,0,0,0,.13l.23.23.12,0a.38.38,0,1,0-.38-.38Z" transform="translate(-0.72 -0.58)"/><path class="cls-1" d="M37.65,14a.38.38,0,0,1,.38-.37H36.82a.37.37,0,0,0-.34.23l.51.52h1A.38.38,0,0,1,37.65,14Z" transform="translate(-0.72 -0.58)"/><path class="cls-1" d="M38.4,14a.36.36,0,0,0-.28-.35v.71A.37.37,0,0,0,38.4,14Z" transform="translate(-0.72 -0.58)"/><path class="cls-1" d="M44,28.34a.38.38,0,0,1-.38-.38v1.21a.38.38,0,1,0,.75,0V28A.38.38,0,0,1,44,28.34Z" transform="translate(-0.72 -0.58)"/><path class="cls-1" d="M44,27.59a.38.38,0,0,0-.38.37h.75A.38.38,0,0,0,44,27.59Z" transform="translate(-0.72 -0.58)"/><path class="cls-1" d="M46,28.34a.38.38,0,0,1-.38-.38v1.21a.38.38,0,1,0,.75,0V28A.38.38,0,0,1,46,28.34Z" transform="translate(-0.72 -0.58)"/><path class="cls-1" d="M46,27.59a.38.38,0,0,0-.38.37h.75A.38.38,0,0,0,46,27.59Z" transform="translate(-0.72 -0.58)"/><path class="cls-1" d="M48,28.34a.38.38,0,0,1-.38-.38v1.21a.38.38,0,1,0,.75,0V28A.38.38,0,0,1,48,28.34Z" transform="translate(-0.72 -0.58)"/><path class="cls-1" d="M48,27.59a.38.38,0,0,0-.38.37h.75A.38.38,0,0,0,48,27.59Z" transform="translate(-0.72 -0.58)"/><path class="cls-1" d="M50,28.34a.38.38,0,0,1-.38-.38v1.21a.38.38,0,1,0,.75,0V28A.38.38,0,0,1,50,28.34Z" transform="translate(-0.72 -0.58)"/><path class="cls-1" d="M50,27.59a.38.38,0,0,0-.38.37h.75A.38.38,0,0,0,50,27.59Z" transform="translate(-0.72 -0.58)"/><path class="cls-1" d="M52,28.34a.38.38,0,0,1-.38-.38v1.21a.43.43,0,0,0,.06.2l.69-.69V28A.38.38,0,0,1,52,28.34Z" transform="translate(-0.72 -0.58)"/><path class="cls-1" d="M52,27.59a.38.38,0,0,0-.38.37h.75A.38.38,0,0,0,52,27.59Z" transform="translate(-0.72 -0.58)"/><path class="cls-1" d="M33.37,53.49a.51.51,0,0,0,.5-.5.5.5,0,0,0-.22-.41l-.69.69A.5.5,0,0,0,33.37,53.49Z" transform="translate(-0.72 -0.58)"/><path class="cls-1" d="M31.37,55.49a.51.51,0,0,0,.5-.5.5.5,0,0,0-.22-.41l-.69.69A.5.5,0,0,0,31.37,55.49Z" transform="translate(-0.72 -0.58)"/><circle class="cls-1" cx="32.64" cy="54.41" r="0.5"/><path class="cls-1" d="M29.37,57.49a.51.51,0,0,0,.5-.5.5.5,0,0,0-.22-.41l-.69.69A.5.5,0,0,0,29.37,57.49Z" transform="translate(-0.72 -0.58)"/><circle class="cls-1" cx="30.64" cy="56.41" r="0.5"/><circle class="cls-1" cx="32.64" cy="56.41" r="0.5"/><path class="cls-1" d="M52.47,48h0s0-.09,0-.14A.32.32,0,0,1,52.47,48Z" transform="translate(-0.72 -0.58)"/><path class="cls-1" d="M38.12,62.2h.12v0A.21.21,0,0,1,38.12,62.2Z" transform="translate(-0.72 -0.58)"/><path class="cls-1" d="M38.24,61.47v0h-.12Z" transform="translate(-0.72 -0.58)"/><path class="cls-1" d="M44.47,48h0s0-.09,0-.14A.32.32,0,0,1,44.47,48Z" transform="translate(-0.72 -0.58)"/><path class="cls-1" d="M43.75,47.82s0,.1,0,.14h0A.32.32,0,0,1,43.75,47.82Z" transform="translate(-0.72 -0.58)"/><path class="cls-1" d="M36.92,53.45a.38.38,0,1,0,0,.75h1.32v-.75H36.92Z" transform="translate(-0.72 -0.58)"/><path class="cls-1" d="M49.75,47.82s0,.1,0,.14h0A.32.32,0,0,1,49.75,47.82Z" transform="translate(-0.72 -0.58)"/><path class="cls-1" d="M50.47,48h0s0-.09,0-.14A.32.32,0,0,1,50.47,48Z" transform="translate(-0.72 -0.58)"/><path class="cls-1" d="M38.24,59.47v0h-.12Z" transform="translate(-0.72 -0.58)"/><path class="cls-1" d="M38.12,60.2h.12v0A.21.21,0,0,1,38.12,60.2Z" transform="translate(-0.72 -0.58)"/><path class="cls-1" d="M46.49,48s0-.09,0-.14a.32.32,0,0,1,0,.14Z" transform="translate(-0.72 -0.58)"/><path class="cls-1" d="M38.12,55.45h-1.2a.38.38,0,1,0,0,.75h1.32v-.75Z" transform="translate(-0.72 -0.58)"/><path class="cls-1" d="M47.75,47.82s0,.1,0,.14h0A.32.32,0,0,1,47.75,47.82Z" transform="translate(-0.72 -0.58)"/><path class="cls-1" d="M38.24,57.44H36.92a.38.38,0,1,0,0,.75h1.32v-.75Z" transform="translate(-0.72 -0.58)"/><path class="cls-1" d="M37.75,59.82a.37.37,0,0,1,.37-.37h-1.2a.38.38,0,1,0,0,.75h1.2A.37.37,0,0,1,37.75,59.82Z" transform="translate(-0.72 -0.58)"/><path class="cls-1" d="M38.5,59.82a.38.38,0,0,0-.26-.35v.7A.37.37,0,0,0,38.5,59.82Z" transform="translate(-0.72 -0.58)"/><path class="cls-1" d="M37.75,61.82a.37.37,0,0,1,.37-.37h-1.2a.38.38,0,1,0,0,.75h1.2A.37.37,0,0,1,37.75,61.82Z" transform="translate(-0.72 -0.58)"/><path class="cls-1" d="M38.5,61.82a.38.38,0,0,0-.26-.35v.7A.37.37,0,0,0,38.5,61.82Z" transform="translate(-0.72 -0.58)"/><path class="cls-1" d="M44.12,47.45a.38.38,0,0,1,.38.37V46.76l-.75.75v.31A.37.37,0,0,1,44.12,47.45Z" transform="translate(-0.72 -0.58)"/><path class="cls-1" d="M44.12,48.2a.38.38,0,0,0,.35-.24h-.69A.36.36,0,0,0,44.12,48.2Z" transform="translate(-0.72 -0.58)"/><path class="cls-1" d="M46.5,47.82v-.23l-.06,0A.43.43,0,0,1,46.5,47.82Z" transform="translate(-0.72 -0.58)"/><path class="cls-1" d="M46.12,46.24a.37.37,0,0,0-.37.38v.66l.73-.74A.37.37,0,0,0,46.12,46.24Z" transform="translate(-0.72 -0.58)"/><path class="cls-1" d="M46.12,48.2a.38.38,0,0,0,.35-.24h-.35l.32-.32a.37.37,0,0,0-.69.18A.37.37,0,0,0,46.12,48.2Z" transform="translate(-0.72 -0.58)"/><path class="cls-1" d="M48.12,46.24a.37.37,0,0,0-.37.38v1.2a.37.37,0,0,1,.37-.37.38.38,0,0,1,.21.07l.17-.16v-.74A.38.38,0,0,0,48.12,46.24Z" transform="translate(-0.72 -0.58)"/><path class="cls-1" d="M48.33,47.52l-.44.44h-.11a.36.36,0,0,0,.34.24.38.38,0,0,0,.38-.38A.38.38,0,0,0,48.33,47.52Z" transform="translate(-0.72 -0.58)"/><path class="cls-1" d="M50.12,47.45a.38.38,0,0,1,.38.37v-1.2a.42.42,0,0,0,0-.16l-.71.71v.65A.37.37,0,0,1,50.12,47.45Z" transform="translate(-0.72 -0.58)"/><path class="cls-1" d="M50.12,48.2a.38.38,0,0,0,.35-.24h-.69A.36.36,0,0,0,50.12,48.2Z" transform="translate(-0.72 -0.58)"/><path class="cls-1" d="M52.5,47.82v-.57l-.23.23A.37.37,0,0,1,52.5,47.82Z" transform="translate(-0.72 -0.58)"/><path class="cls-1" d="M51.75,46.62v.32l.6-.61a.36.36,0,0,0-.23-.09A.37.37,0,0,0,51.75,46.62Z" transform="translate(-0.72 -0.58)"/><path class="cls-1" d="M52.27,47.48l-.15,0a.38.38,0,0,0,0,.75.38.38,0,0,0,.35-.24h-.69Z" transform="translate(-0.72 -0.58)"/></svg>