<svg id="Layer_1" data-name="Layer 1" xmlns="http://www.w3.org/2000/svg" viewBox="0 0 74.79 74.79"><defs><style>.cls-1{fill:#252944;}</style></defs><title>7</title><path class="cls-1" d="M30.56,39.45c0-.13.07-.25.1-.37l-1-1h0l-.08.25c-.06.19-.1.38-.15.56l1,1a.19.19,0,0,0,0-.08Z"/><path class="cls-1" d="M31.2,40c0,.19-.06.38-.09.58l1.14,1.14c0-.17,0-.33,0-.51l0-.38a.64.64,0,0,1,0-.07l-1.08-1.08Z"/><path class="cls-1" d="M32.78,39c0-.15.1-.29.16-.43l-1-1-.13.3a3.61,3.61,0,0,0-.17.46l1,1v0Z"/><path class="cls-1" d="M35,41.66l1.22,1.22v-.61c0-.14,0-.29,0-.43l-1.12-1.12C35.07,41,35,41.34,35,41.66Z"/><path class="cls-1" d="M33.52,39.11l0,.08-.11.32c0,.13-.07.27-.1.42l1,1c.05-.29.11-.58.19-.87Z"/><path class="cls-1" d="M35.55,39.37l1,1a7.52,7.52,0,0,1,.3-.76l-.93-.94A7.79,7.79,0,0,0,35.55,39.37Z"/><path class="cls-1" d="M35.22,36.1l-.07.09,0,0,.89.89a8.36,8.36,0,0,1,6.58-3.2h0V32.65h0A9.63,9.63,0,0,0,35.22,36.1Z"/><path class="cls-1" d="M36.56,37.63l.89.9A6.36,6.36,0,0,1,42.6,35.9h0V34.65h0A7.62,7.62,0,0,0,36.56,37.63Z"/><path class="cls-1" d="M37,17.77H32.11A5.14,5.14,0,0,1,31.85,19h6.37Z"/><path class="cls-1" d="M33.71,34.79l.89.89,0-.06a10.37,10.37,0,0,1,8-3.72h0V30.65h0A11.62,11.62,0,0,0,33.71,34.79Z"/><path class="cls-1" d="M35,15.77H31.85A5.14,5.14,0,0,1,32.11,17h4.11Z"/><path class="cls-1" d="M33,13.77h-2.4A5,5,0,0,1,31.52,15h2.7Z"/><path class="cls-1" d="M31.16,37.57l.15-.34c0-.08.07-.15.1-.23l-.93-.93c-.11.21-.21.43-.31.65l0,.07.95,1C31.12,37.69,31.13,37.63,31.16,37.57Z"/><path class="cls-1" d="M29.1,40.53l0,.21c0,.08,0,.13,0,.18s0,.27,0,.41l1.2,1.2v-.26c0-.24,0-.5,0-.76l-1.14-1.14A1,1,0,0,1,29.1,40.53Z"/><path class="cls-1" d="M34,37.87l.94.94a7.67,7.67,0,0,1,.36-.7l-.91-.91-.21.35Z"/><path class="cls-1" d="M32.25,35.5l.18-.26,0,0-.9-.89-.15.2-.18.28-.1.15.91.91C32.11,35.74,32.18,35.61,32.25,35.5Z"/><path class="cls-1" d="M32.58,36.4l.91.92.08-.13c.11-.2.22-.39.32-.54l-.9-.9-.12.17Z"/><path class="cls-1" d="M32.3,33.38l.88.88A12.37,12.37,0,0,1,42.6,29.9h0V28.65h0A13.57,13.57,0,0,0,32.3,33.38Z"/><path class="cls-1" d="M37.4,0A37.4,37.4,0,1,0,74.79,37.4,37.39,37.39,0,0,0,37.4,0Zm5.25,13.08,3.07,3.08a.51.51,0,0,1,.41.41l1.59,1.59a.51.51,0,0,1,.41.41l1.59,1.59a.51.51,0,0,1,.41.41l1.59,1.59a.49.49,0,0,1-.07,1,.5.5,0,0,1-.5-.5.48.48,0,0,1,.07-.24h-1l-7.54-7.55Zm7.5,9.56a.5.5,0,0,1-.5.5.5.5,0,0,1-.5-.5.5.5,0,0,1,.5-.5A.51.51,0,0,1,50.15,22.64Zm-7.5-6.73.53.54a.52.52,0,0,1,.47-.31.51.51,0,0,1,.5.5.52.52,0,0,1-.31.47l1.34,1.34a.52.52,0,0,1,.47-.31.51.51,0,0,1,.5.5.52.52,0,0,1-.31.47l1.34,1.34a.52.52,0,0,1,.47-.31.51.51,0,0,1,.5.5.52.52,0,0,1-.31.47l1.29,1.29H48.07a.49.49,0,0,1,.08.24.5.5,0,0,1-.5.5.5.5,0,0,1-.5-.5.51.51,0,0,1,.13-.33L46,21a.51.51,0,0,1-.33.13.5.5,0,0,1-.5-.5.51.51,0,0,1,.13-.33L44,19a.51.51,0,0,1-.33.13.5.5,0,0,1-.5-.5.51.51,0,0,1,.13-.33l-.63-.63Zm0,2.83L46.3,22.4h-.23a.49.49,0,0,1,.08.24.5.5,0,0,1-.5.5.5.5,0,0,1-.5-.5.48.48,0,0,1,.07-.24h-.69l-1.88-1.89Zm0,2.83.69.69a.48.48,0,0,1,.31-.12.51.51,0,0,1,.5.5.5.5,0,0,1-.5.5.5.5,0,0,1-.5-.5.48.48,0,0,1,.07-.24h-.57ZM22.15,17.4h0a5,5,0,0,1,5-5,4.89,4.89,0,0,1,2.37.62h2.7l-.62-.62h10v10L39,19.77H31.52A4.86,4.86,0,0,1,30.57,21h9.49a.38.38,0,1,1,0,.75H29.52a4.9,4.9,0,0,1-2.37.63A5,5,0,0,1,22.15,17.4ZM27.65,53V51.27L30,53.58l-.89.88Zm.89,2-.88.89V54.1Zm-.89-4.78V48.44l3.72,3.73-.88.88Zm0-2.83V45.61l5.14,5.14-.89.89Zm10,15h-10V58.26l10-10Zm15-35a10,10,0,0,1-10,10v-.75h0A5.59,5.59,0,0,0,38,39.06l.49.49a4.8,4.8,0,0,0-.55,1.14l-.54-.54a7,7,0,0,0-.26.81l.58.57a4.93,4.93,0,0,0-.06.78v.93L37,42.56v.92a.5.5,0,0,1,0,.12l.7.7v1.59l-.09.09L35,43.39v.09a.37.37,0,0,1-.37.38.38.38,0,0,1-.38-.38v-.84L33,41.44a8.19,8.19,0,0,0-.05.83v.18L37,46.51l-.89.88-3.53-3.54h0a.38.38,0,0,1-.38-.38h0L31,42.22a.43.43,0,0,1,0,.05v1l4.64,4.64-.88.89L29,43.05v.43a.38.38,0,0,1-.27.36l5.5,5.5-.88.88-5.67-5.67V42.78l.57.58V42.3l-.55-.55a14.34,14.34,0,0,1,.15-1.62l.5.5,0-.21c0-.23.06-.47.1-.71L28,39.22c.1-.47.22-.94.36-1.4l.46.46a.75.75,0,0,1,0-.16l.09-.26.06-.19.07-.19L28.61,37c.16-.42.34-.83.53-1.24l.43.43c.1-.21.2-.43.32-.65l0-.06-.41-.41c.21-.37.43-.74.67-1.09l.4.39v0l.19-.28.23-.32-.4-.4c.24-.32.49-.64.75-.94l.41.41a14.33,14.33,0,0,1,10.83-5h0V24.21h.76a.48.48,0,0,1,.24-.07.48.48,0,0,1,.23.07h1.53a.48.48,0,0,1,.24-.07.48.48,0,0,1,.23.07h1.53a.48.48,0,0,1,.24-.07.48.48,0,0,1,.23.07h1.53a.48.48,0,0,1,.24-.07.48.48,0,0,1,.23.07h1.53a.48.48,0,0,1,.24-.07.48.48,0,0,1,.23.07h.77Zm0-8.21-.51-.51a.49.49,0,0,1-.49.46l-.14,0,1.14,1.13V22l-.9-.9-.1,0a.5.5,0,0,1-.5-.5.44.44,0,0,1,0-.1l-1.42-1.42-.1,0a.5.5,0,0,1-.5-.5.44.44,0,0,1,0-.1l-1.42-1.42-.1,0a.5.5,0,0,1-.5-.5.44.44,0,0,1,0-.1L43,12.4h1.77l4.38,4.38a.59.59,0,0,1,0-.14.49.49,0,0,1,.45-.49L45.85,12.4h1.76l3.81,3.8a.56.56,0,0,1,.23-.06.51.51,0,0,1,.5.5.56.56,0,0,1-.06.23l.56.56Zm0-2.83-4-4h1.76l2.21,2.2Zm0-2.82L51.5,12.4h1.15Z"/><path class="cls-1" d="M49.65,17.14l-.14,0,1.66,1.66a.59.59,0,0,1,0-.14.49.49,0,0,1,.45-.49l-1.46-1.47A.49.49,0,0,1,49.65,17.14Z"/><path class="cls-1" d="M26.44,21.4a.37.37,0,0,0,.37.37h2.71A4.89,4.89,0,0,0,30.57,21H26.81A.37.37,0,0,0,26.44,21.4Z"/><path class="cls-1" d="M40.06,15.77a.38.38,0,1,0,0-.75H34.22l.75.75Z"/><path class="cls-1" d="M26.81,15a.38.38,0,0,0,0,.75h5a5,5,0,0,0-.33-.75Z"/><path class="cls-1" d="M40.06,13.77a.38.38,0,1,0,0-.75H32.22l.75.75Z"/><path class="cls-1" d="M26.44,13.4a.37.37,0,0,0,.37.37h3.76A4.89,4.89,0,0,0,29.52,13H26.81A.37.37,0,0,0,26.44,13.4Z"/><path class="cls-1" d="M40.44,19.4a.38.38,0,0,0-.38-.38H38.22l.75.75h1.09A.38.38,0,0,0,40.44,19.4Z"/><path class="cls-1" d="M26.81,19a.38.38,0,0,0,0,.75h4.71a5,5,0,0,0,.33-.75Z"/><path class="cls-1" d="M40.06,17.77a.38.38,0,1,0,0-.75H36.22l.75.75Z"/><path class="cls-1" d="M32.15,17.39c0-.12,0-.24,0-.37h-5.3a.38.38,0,0,0,0,.75h5.3c0-.13,0-.25,0-.37Z"/><path class="cls-1" d="M30.55,35.93l.19-.34c.12-.22.25-.43.38-.64l-.54-.55c-.17.27-.34.54-.5.82l-.16.29.56.56A.91.91,0,0,1,30.55,35.93Z"/><path class="cls-1" d="M32,33.67l.12-.14.14-.15-.53-.53-.19.2-.12.14c-.17.21-.31.4-.45.59l.54.54C31.7,34.11,31.86,33.9,32,33.67Z"/><path class="cls-1" d="M29.7,37.91q.14-.4.3-.81a2.41,2.41,0,0,1,.11-.25l0-.06-.57-.57-.09.19-.07.15c0,.09-.07.17-.11.26s-.16.44-.24.66l.59.59Z"/><path class="cls-1" d="M28.3,40.85a13.83,13.83,0,0,0-.08,1.42.38.38,0,0,1,.38-.37.37.37,0,0,1,.37.37c0-.3,0-.62.05-.94l-.7-.7v0A1.23,1.23,0,0,0,28.3,40.85Z"/><path class="cls-1" d="M29.24,39.61c0-.07,0-.13.05-.24l.05-.2c0-.09.05-.18.07-.28l-.61-.61c-.07.24-.13.48-.19.72l-.05.24-.06.22a1.87,1.87,0,0,1,0,.25l.66.66C29.16,40.12,29.19,39.86,29.24,39.61Z"/><path class="cls-1" d="M36.25,41.84l.13.13a.41.41,0,0,1,.22-.07.37.37,0,0,1,.37.37A5.66,5.66,0,0,1,37.13,41l-.61-.61A6,6,0,0,0,36.25,41.84Z"/><path class="cls-1" d="M36.82,39.59l.57.56a5.79,5.79,0,0,1,.6-1.09l-.54-.53A6.59,6.59,0,0,0,36.82,39.59Z"/><path class="cls-1" d="M44.68,36.27a.38.38,0,0,0-.38-.37H42.65v.75H44.3A.38.38,0,0,0,44.68,36.27Z"/><path class="cls-1" d="M32.29,36.9l.19-.33.1-.17L32,35.86l-.21.34-.19.35c-.07.13-.14.29-.22.45l.57.57v0C32.09,37.31,32.2,37.08,32.29,36.9Z"/><path class="cls-1" d="M33,34.46c-.22.27-.39.51-.56.75l.54.54.06-.09c.16-.23.33-.47.54-.73l.1-.12a0,0,0,0,0,0,0l-.53-.53-.07.08Z"/><path class="cls-1" d="M30.88,38.31l-.12.38c0,.13-.07.26-.1.39l.61.61,0-.08a7,7,0,0,1,.17-.69l.12-.36.09-.23-.59-.59Z"/><path class="cls-1" d="M31.09,40.76a1,1,0,0,1,0-.17l-.66-.66c0,.24-.08.49-.11.75l-.05.36c0,.16,0,.31,0,.47l.4.4a.37.37,0,0,1,.3.3h0A9.87,9.87,0,0,1,31,41.14Z"/><path class="cls-1" d="M34.52,40.11l.61.61a8.11,8.11,0,0,1,.42-1.35L35,38.81A8,8,0,0,0,34.52,40.11Z"/><path class="cls-1" d="M35.89,38.65a7.46,7.46,0,0,1,.67-1L36,37.1a8.91,8.91,0,0,0-.68,1Z"/><path class="cls-1" d="M34.22,42.27a.38.38,0,0,1,.38-.37.37.37,0,0,1,.37.37c0-.21,0-.41,0-.61L34.33,41A9.23,9.23,0,0,0,34.22,42.27Z"/><path class="cls-1" d="M44.3,34.65a.38.38,0,1,0,0-.75H42.65v.75Z"/><path class="cls-1" d="M33.82,38.36c.08-.19.17-.38.22-.49h0l-.55-.55-.11.2c-.06.12-.16.32-.25.53l-.12.28a1.18,1.18,0,0,0-.07.2l.58.58c0-.16.11-.32.18-.49Z"/><path class="cls-1" d="M34.07,36.38l-.16.24,0,0,.54.55.1-.16.16-.24c.13-.19.27-.38.44-.59l-.53-.53,0,0C34.37,36,34.22,36.16,34.07,36.38Z"/><path class="cls-1" d="M33.08,40.94a4.63,4.63,0,0,1,.07-.5l.1-.43,0-.08-.62-.62c0,.17-.09.35-.15.6l-.09.37c0,.14-.05.31-.07.49l.67.67a.62.62,0,0,1,0-.13Z"/><path class="cls-1" d="M32.45,41.93l-.2-.2c0,.18,0,.37,0,.54A.38.38,0,0,1,32.45,41.93Z"/><path class="cls-1" d="M44.3,32.65a.38.38,0,1,0,0-.75H42.65v.75Z"/><path class="cls-1" d="M43,30.27a.38.38,0,0,1-.32.37H44.3a.38.38,0,1,0,0-.75H42.65A.36.36,0,0,1,43,30.27Z"/><path class="cls-1" d="M42.22,30.27a.38.38,0,0,0,.38.38h0v-.73h0A.38.38,0,0,0,42.22,30.27Z"/><path class="cls-1" d="M43,28.27a.38.38,0,0,1-.32.37H44.3a.38.38,0,1,0,0-.75H42.65A.36.36,0,0,1,43,28.27Z"/><path class="cls-1" d="M42.22,28.27a.38.38,0,0,0,.38.38h0v-.73h0A.38.38,0,0,0,42.22,28.27Z"/><path class="cls-1" d="M36.9,42.49l.07.07v-.29A.41.41,0,0,1,36.9,42.49Z"/><path class="cls-1" d="M36.22,43.48a.38.38,0,0,0,.38.38A.38.38,0,0,0,37,43.6l-.73-.72Z"/><path class="cls-1" d="M36.22,42.27a.38.38,0,0,0,.38.38.39.39,0,0,0,.3-.16L36.38,42A.39.39,0,0,0,36.22,42.27Z"/><path class="cls-1" d="M34.6,42.65a.38.38,0,0,1-.38-.38v.37l.75.75V42.27A.37.37,0,0,1,34.6,42.65Z"/><path class="cls-1" d="M32.6,42.65a.38.38,0,0,1-.38-.38v1.2l.39.38a.36.36,0,0,0,.36-.37v-1l0,0A.38.38,0,0,1,32.6,42.65Z"/><path class="cls-1" d="M32.6,41.9a.37.37,0,0,0-.15,0l.49.49a.33.33,0,0,0,0-.15A.37.37,0,0,0,32.6,41.9Z"/><path class="cls-1" d="M30.22,43.48a.38.38,0,0,0,.38.38.37.37,0,0,0,.37-.38v-.2l-.75-.75Z"/><path class="cls-1" d="M30.66,41.91H30.6a.38.38,0,1,0,0,.75.37.37,0,0,0,.37-.38s0,0,0-.06Z"/><path class="cls-1" d="M28.6,42.65h0l.41.41v-.78A.37.37,0,0,1,28.6,42.65Z"/><path class="cls-1" d="M28.22,42.27v0h0S28.22,42.29,28.22,42.27Z"/><path class="cls-1" d="M28.22,43.48a.38.38,0,0,0,.38.38l.1,0-.48-.48Z"/><path class="cls-1" d="M28.56,42.64l-.33-.33A.37.37,0,0,0,28.56,42.64Z"/><path class="cls-1" d="M51.15,24.64a.5.5,0,0,0,.5.5.49.49,0,0,0,.23-.93h-.47A.49.49,0,0,0,51.15,24.64Z"/><path class="cls-1" d="M49.15,24.64a.5.5,0,0,0,.5.5.49.49,0,0,0,.23-.93h-.47A.49.49,0,0,0,49.15,24.64Z"/><path class="cls-1" d="M47.15,24.64a.5.5,0,0,0,.5.5.49.49,0,0,0,.23-.93h-.47A.49.49,0,0,0,47.15,24.64Z"/><path class="cls-1" d="M45.15,24.64a.5.5,0,0,0,.5.5.49.49,0,0,0,.23-.93h-.47A.49.49,0,0,0,45.15,24.64Z"/><path class="cls-1" d="M43.15,24.64a.5.5,0,0,0,.5.5.49.49,0,0,0,.23-.93h-.47A.49.49,0,0,0,43.15,24.64Z"/><path class="cls-1" d="M51.22,22.4H52l-.24-.24-.07,0A.5.5,0,0,0,51.22,22.4Z"/><path class="cls-1" d="M47.65,22.14a.5.5,0,0,0-.37.17l.08.09h.71A.5.5,0,0,0,47.65,22.14Z"/><path class="cls-1" d="M45.65,22.14a.5.5,0,0,0-.43.26h.85A.5.5,0,0,0,45.65,22.14Z"/><path class="cls-1" d="M43.22,22.4h.25l-.13-.14A.41.41,0,0,0,43.22,22.4Z"/><circle class="cls-1" cx="51.65" cy="26.64" r="0.5"/><circle class="cls-1" cx="49.65" cy="26.64" r="0.5"/><circle class="cls-1" cx="47.65" cy="26.64" r="0.5"/><circle class="cls-1" cx="45.65" cy="26.64" r="0.5"/><circle class="cls-1" cx="43.65" cy="26.64" r="0.5"/><path class="cls-1" d="M52.15,20.64a.51.51,0,0,0-.5-.5.49.49,0,0,0-.48.4l.58.58A.49.49,0,0,0,52.15,20.64Z"/><path class="cls-1" d="M49.15,20.64a.5.5,0,0,0,.5.5.5.5,0,0,0,.5-.5s0-.05,0-.07l-.41-.41-.07,0A.5.5,0,0,0,49.15,20.64Z"/><path class="cls-1" d="M47.65,21.14a.63.63,0,0,0,.19,0l-.66-.66a.63.63,0,0,0,0,.19A.5.5,0,0,0,47.65,21.14Z"/><path class="cls-1" d="M46.15,20.64a.51.51,0,0,0-.5-.5.5.5,0,0,0-.37.17l.7.7A.5.5,0,0,0,46.15,20.64Z"/><circle class="cls-1" cx="43.65" cy="20.64" r="0.5"/><path class="cls-1" d="M51.51,19.12l-.34-.34A.49.49,0,0,0,51.51,19.12Z"/><path class="cls-1" d="M51.65,18.14h0l.54.53s0,0,0,0A.51.51,0,0,0,51.65,18.14Z"/><path class="cls-1" d="M50.15,18.64a.51.51,0,0,0-.5-.5.49.49,0,0,0-.48.4l.58.58A.49.49,0,0,0,50.15,18.64Z"/><path class="cls-1" d="M47.15,18.64a.5.5,0,0,0,.5.5.5.5,0,0,0,.5-.5s0-.05,0-.07l-.41-.41-.07,0A.5.5,0,0,0,47.15,18.64Z"/><path class="cls-1" d="M45.65,19.14a.63.63,0,0,0,.19,0l-.66-.66a.63.63,0,0,0,0,.19A.5.5,0,0,0,45.65,19.14Z"/><path class="cls-1" d="M44.15,18.64a.51.51,0,0,0-.5-.5.5.5,0,0,0-.37.17l.7.7A.5.5,0,0,0,44.15,18.64Z"/><path class="cls-1" d="M51.15,16.64a.5.5,0,0,0,.5.5.51.51,0,0,0,.44-.27l-.67-.67A.51.51,0,0,0,51.15,16.64Z"/><path class="cls-1" d="M49.51,17.12l-.34-.34A.49.49,0,0,0,49.51,17.12Z"/><path class="cls-1" d="M50.15,16.64a.51.51,0,0,0-.5-.5h0l.54.53S50.15,16.66,50.15,16.64Z"/><path class="cls-1" d="M48.15,16.64a.51.51,0,0,0-.5-.5.49.49,0,0,0-.48.4l.58.58A.49.49,0,0,0,48.15,16.64Z"/><path class="cls-1" d="M45.15,16.64a.5.5,0,0,0,.5.5.5.5,0,0,0,.5-.5s0-.05,0-.07l-.41-.41-.07,0A.5.5,0,0,0,45.15,16.64Z"/><path class="cls-1" d="M43.65,17.14a.63.63,0,0,0,.19,0l-.66-.66a.63.63,0,0,0,0,.19A.5.5,0,0,0,43.65,17.14Z"/></svg>