<svg id="Layer_1" data-name="Layer 1" xmlns="http://www.w3.org/2000/svg" viewBox="0 0 74.79 74.79"><defs><style>.cls-1{fill:#252944;}</style></defs><title>8</title><path class="cls-1" d="M44.76,34.85l-.1.09c-.23.19-.44.34-.65.49l-.25.16c-.16.11-.36.23-.56.34L43,36a5,5,0,0,1,.09.87c0,.18,0,.34,0,.51l.43-.21.32-.18c.23-.13.46-.26.66-.39l.25-.18c.24-.16.47-.33.73-.54l.12-.1a11.55,11.55,0,0,0,2.29-2.61l-1.16-.52A10.24,10.24,0,0,1,44.76,34.85Z" transform="translate(-0.47)"/><path class="cls-1" d="M40.77,32.69a4.86,4.86,0,0,1,1,.88,7.72,7.72,0,0,0,2.34-2L43,31A6.59,6.59,0,0,1,40.77,32.69Z" transform="translate(-0.47)"/><path class="cls-1" d="M46.05,36.39l-.13.1c-.28.23-.52.41-.77.58l-.27.18c-.22.14-.45.29-.7.43l-.34.18c-.2.11-.44.22-.69.33l-.27.12a4.81,4.81,0,0,1-.82,1.63l.24-.08.17-.06q.41-.13.81-.3l.26-.11.12-.06c.27-.12.54-.24.8-.38l.34-.19c.26-.15.53-.31.79-.48l.27-.18c.27-.19.54-.39.85-.64l.15-.12A13.69,13.69,0,0,0,49.72,34l-1.16-.51A12.93,12.93,0,0,1,46.05,36.39Z" transform="translate(-0.47)"/><path class="cls-1" d="M33.39,38.53a6,6,0,0,0-.52.31l-.23.16c-.2.13-.39.28-.61.45l-.1.08a9.62,9.62,0,0,0-3.45,7.37v.75h1.25V46.9a8.37,8.37,0,0,1,4.21-7.25,5.11,5.11,0,0,1-.54-1.13Z" transform="translate(-0.47)"/><path class="cls-1" d="M37.86,0a37.4,37.4,0,1,0,37.4,37.4A37.39,37.39,0,0,0,37.86,0Zm.25,11.9v.43h.25a14.24,14.24,0,0,1,10.16,4.21.37.37,0,0,1,0,.53.34.34,0,0,1-.26.11.36.36,0,0,1-.27-.11,13.49,13.49,0,0,0-9.63-4h-.25v1.25h.25a12.34,12.34,0,0,1,8.55,3.43.38.38,0,0,1,0,.53.36.36,0,0,1-.27.12.38.38,0,0,1-.26-.11,11.54,11.54,0,0,0-8-3.22h-.25v1.25h.25a10.3,10.3,0,0,1,7.33,3,.37.37,0,0,1,0,.53.38.38,0,0,1-.26.11.4.4,0,0,1-.27-.11,9.55,9.55,0,0,0-6.8-2.82h-.25v1.25h.25a8.31,8.31,0,0,1,5.75,2.29.38.38,0,0,1,0,.53.39.39,0,0,1-.27.12.36.36,0,0,1-.26-.11,7.6,7.6,0,0,0-5.24-2.08h-.25v1.25h.25a6.36,6.36,0,0,1,4.51,1.86.39.39,0,0,1,0,.53.36.36,0,0,1-.27.11.34.34,0,0,1-.26-.11,5.61,5.61,0,0,0-4-1.64h-.25v.82a4.93,4.93,0,0,0-2.76.83l-7.11-7.11A14.94,14.94,0,0,1,38.11,11.9Zm-5.5,8.5a.51.51,0,0,1-.5.5.5.5,0,0,1-.5-.5.5.5,0,0,1,.5-.5A.5.5,0,0,1,32.61,20.4Zm-2-2a.51.51,0,0,1-.5.5.5.5,0,0,1-.5-.5.5.5,0,0,1,.5-.5A.5.5,0,0,1,30.61,18.4Zm1.5-6.5a.5.5,0,0,1,.5.5.51.51,0,0,1-.5.5.5.5,0,0,1-.5-.5A.5.5,0,0,1,32.11,11.9Zm-2,0a.5.5,0,0,1,.5.5.51.51,0,0,1-.5.5.5.5,0,0,1-.5-.5A.5.5,0,0,1,30.11,11.9Zm-2,0a.5.5,0,0,1,.5.5.51.51,0,0,1-.5.5.5.5,0,0,1-.5-.5A.5.5,0,0,1,28.11,11.9Zm0,4a.5.5,0,0,1,.5.5.51.51,0,0,1-.5.5.5.5,0,0,1-.5-.5A.5.5,0,0,1,28.11,15.9Zm-2-4a.5.5,0,0,1,.5.5.51.51,0,0,1-.5.5.5.5,0,0,1-.5-.5A.5.5,0,0,1,26.11,11.9Zm0,4a.5.5,0,0,1,.5.5.51.51,0,0,1-.5.5.5.5,0,0,1-.5-.5A.5.5,0,0,1,26.11,15.9Zm-2-4a.5.5,0,0,1,.5.5.51.51,0,0,1-.5.5.5.5,0,0,1-.5-.5A.5.5,0,0,1,24.11,11.9Zm0,4a.5.5,0,0,1,.5.5.51.51,0,0,1-.5.5.5.5,0,0,1-.5-.5A.5.5,0,0,1,24.11,15.9Zm0,2a.5.5,0,0,1,.5.5.51.51,0,0,1-.5.5.5.5,0,0,1-.5-.5A.5.5,0,0,1,24.11,17.9Zm-.5,4.5a.5.5,0,0,1,.36-.48c.14-.39.3-.78.47-1.16a.49.49,0,1,1,.17-.38,13.9,13.9,0,0,1,1-1.79.43.43,0,0,1,0-.19.5.5,0,0,1,.5-.5h0c.22-.3.45-.59.7-.87l1,1a.44.44,0,0,1,.3-.11.5.5,0,0,1,.5.5.55.55,0,0,1-.11.3L29.81,20a.44.44,0,0,1,.3-.11.5.5,0,0,1,.5.5.55.55,0,0,1-.11.3L31.81,22a.44.44,0,0,1,.3-.11.5.5,0,0,1,.5.5.55.55,0,0,1-.11.3l1.44,1.44a5,5,0,0,0,.63,6.29l-9.33,4.15a15,15,0,0,1-2.13-7.68,14.58,14.58,0,0,1,.61-4.21A.44.44,0,0,1,23.61,22.4Zm1.78,33.93,7.4-7.41a5,5,0,0,0,.53,1.25l-7.16,7.16C25.89,57,25.64,56.67,25.39,56.33Zm1.28,1.55,7.08-7.09a5.28,5.28,0,0,0,.9.87l-7.09,7.1A12.32,12.32,0,0,1,26.67,57.88Zm1.45,1.38,7.19-7.2a4.89,4.89,0,0,0,1.29.48L29.13,60A12.58,12.58,0,0,1,28.12,59.26Zm9.49,3.39a14.72,14.72,0,0,1-1.49-.08l1.49-1.49Zm0-2.63L35.2,62.43a14,14,0,0,1-1.46-.31l3.87-3.87Zm0-2.83-4.7,4.7c-.43-.15-.86-.31-1.28-.49l6-6Zm0-2.83-6.69,6.69a12.66,12.66,0,0,1-1.14-.63l7.78-7.78h0Zm1.77,8.54v-10a5,5,0,0,0,3.54-1.47l1.49,1.5a.49.49,0,0,1,.32.31l1.68,1.69a.49.49,0,0,1,.32.31L50,58.5A15,15,0,0,1,39.38,62.9Zm4.88-12a.5.5,0,0,1,.5.5.5.5,0,0,1-1,0A.5.5,0,0,1,44.26,50.9Zm-.5-1.5a.5.5,0,0,1,1,0,.5.5,0,0,1-1,0Zm2.5,1.5a.5.5,0,0,1,.5.5.5.5,0,0,1-1,0A.5.5,0,0,1,46.26,50.9Zm-.5-1.5a.5.5,0,0,1,1,0,.5.5,0,0,1-1,0Zm.5,3.5a.5.5,0,0,1,.5.5.5.5,0,0,1-1,0A.5.5,0,0,1,46.26,52.9Zm2-2a.5.5,0,0,1,.5.5.5.5,0,0,1-1,0A.5.5,0,0,1,48.26,50.9Zm-.5-1.5a.5.5,0,0,1,1,0,.5.5,0,0,1-1,0Zm.5,3.5a.5.5,0,0,1,.5.5.5.5,0,0,1-1,0A.5.5,0,0,1,48.26,52.9Zm0,2a.5.5,0,0,1,.5.5.5.5,0,0,1-1,0A.5.5,0,0,1,48.26,54.9Zm2,1a.5.5,0,0,1-.5-.5.5.5,0,0,1,1,0A.5.5,0,0,1,50.26,55.9Zm0-2a.5.5,0,0,1-.5-.5.5.5,0,0,1,1,0A.5.5,0,0,1,50.26,53.9Zm0-2a.5.5,0,0,1-.5-.5.5.5,0,0,1,1,0A.5.5,0,0,1,50.26,51.9Zm0-2a.5.5,0,0,1-.5-.5.5.5,0,0,1,1,0A.5.5,0,0,1,50.26,49.9Zm2,6a.5.5,0,0,1-.5-.5.5.5,0,0,1,1,0A.5.5,0,0,1,52.26,55.9Zm0-2a.5.5,0,0,1-.5-.5.5.5,0,0,1,1,0A.5.5,0,0,1,52.26,53.9Zm0-2a.5.5,0,0,1-.5-.5.5.5,0,0,1,1,0A.5.5,0,0,1,52.26,51.9Zm0-2a.5.5,0,0,1-.5-.5.5.5,0,0,1,1,0A.5.5,0,0,1,52.26,49.9Zm.5-2.5a.5.5,0,0,1-1,0,.5.5,0,0,1,.5-.5h-2a.5.5,0,0,1,.5.5.5.5,0,0,1-1,0,.5.5,0,0,1,.5-.5h-2a.5.5,0,0,1,.5.5.5.5,0,0,1-1,0,.5.5,0,0,1,.5-.5h-2a.5.5,0,0,1,.5.5.5.5,0,0,1-1,0,.5.5,0,0,1,.5-.5h-2a.5.5,0,0,1,.5.5.5.5,0,0,1-1,0,.5.5,0,0,1,.5-.5H43.11a5,5,0,0,0-1.47-3.54L51,39.21a14.88,14.88,0,0,1,2.14,7.69h-.85A.5.5,0,0,1,52.76,47.4ZM51,34.58l-.56-.25a14.39,14.39,0,0,1-3.08,3.59l-.14.12c-.33.26-.61.47-.9.68l-.29.19q-.41.27-.84.51l-.35.19c-.28.15-.56.28-.84.41l-.13.06-.28.12-.85.31-.16.06-.29.09c-.29.09-.58.16-.88.23l-.19,0L41,41a4.91,4.91,0,0,1-2.87.92,5.15,5.15,0,0,1-1.77-.33,5.62,5.62,0,0,0-3.86,5.33v.75h.13c0,.12,0,.24,0,.36l-.18.18a.4.4,0,0,1-.28.28L25,55.69c-.23-.36-.45-.73-.65-1.11l6.94-6.93h.48V46.9a6.39,6.39,0,0,1,3.71-5.78,4.8,4.8,0,0,1-1-.88,7.62,7.62,0,0,0-3.93,6.66v1.21a.36.36,0,0,1-.37.37.37.37,0,0,1-.38-.37h0L24,53.86q-.28-.61-.51-1.26l4.32-4.32a.34.34,0,0,1-.05-.17V46.9A10.38,10.38,0,0,1,31.45,39l.11-.08c.23-.19.44-.34.65-.49l.24-.17.57-.34.18-.1a4.93,4.93,0,0,1-.09-.87,4.4,4.4,0,0,1,0-.51l-.43.21-.33.19c-.22.12-.45.26-.65.39l-.26.17c-.23.16-.46.34-.72.55l-.12.1a11.58,11.58,0,0,0-4.17,8.9v.75h.88L23.2,51.8c-.13-.47-.24-.95-.33-1.43l2.72-2.72h.14V46.9a12.35,12.35,0,0,1,4.44-9.48l.12-.1c.29-.23.53-.41.78-.59l.26-.17c.22-.15.46-.29.71-.43l.33-.19.69-.33.28-.12a4.91,4.91,0,0,1,.82-1.63l-.22.08-.19.06-.81.3-.23.1-.16.07-.79.38-.34.19c-.27.15-.53.31-.79.48l-.28.19c-.27.19-.53.39-.85.64l-.14.12A13.57,13.57,0,0,0,24.48,46.9v.75h.05l-.05,0v.42a.36.36,0,0,1-.37.37.34.34,0,0,1-.28-.13l-1.1,1.1a13.1,13.1,0,0,1-.11-1.66l.14-.14h1V46.9a14.35,14.35,0,0,1,5.15-11l.15-.12c.33-.27.61-.48.9-.68l.28-.19q.42-.27.84-.51l.35-.2c.28-.14.56-.28.85-.4l.12-.06.29-.12c.28-.12.56-.22.85-.32l.16,0,.28-.1.89-.22.19-.05.21,0a5,5,0,0,1,2.87-.92,4.92,4.92,0,0,1,1.76.34,5.68,5.68,0,0,0,2.38-1.54l-.61-.27a4.94,4.94,0,0,0,.85-5.91l7.16-7.16A14.87,14.87,0,0,1,51,34.58Z" transform="translate(-0.47)"/><path class="cls-1" d="M42.28,34.15a5.18,5.18,0,0,1,.54,1.14h0l.52-.31.23-.16.61-.45.1-.09A9.7,9.7,0,0,0,46,32.37l-1.16-.51A8.42,8.42,0,0,1,42.28,34.15Z" transform="translate(-0.47)"/><path class="cls-1" d="M52.11,27.28a.38.38,0,0,1-.38-.38,13.59,13.59,0,0,1-2,7.12l.69.31a14.34,14.34,0,0,0,2.07-7.43A.37.37,0,0,1,52.11,27.28Z" transform="translate(-0.47)"/><path class="cls-1" d="M42.06,39.94h0c-.28.09-.56.15-.84.22l-.21.05-.23,0c-.3.06-.61.1-.92.14l-.39.06c-.46,0-.91.07-1.35.07a.38.38,0,0,1,0,.75c.46,0,.94,0,1.42-.07l.42-.06c.33,0,.65-.09,1-.15L41,41A5.07,5.07,0,0,0,42.06,39.94Z" transform="translate(-0.47)"/><path class="cls-1" d="M44.48,26.9V25.7a.37.37,0,0,0-.37-.38.38.38,0,0,0-.38.38v1.2a5.58,5.58,0,0,1-1.48,3.8L43,31A6.36,6.36,0,0,0,44.48,26.9Z" transform="translate(-0.47)"/><path class="cls-1" d="M38.48,32.9a.37.37,0,0,1-.37.38,6.39,6.39,0,0,0,2.66-.59,4.73,4.73,0,0,0-.9-.45,5.65,5.65,0,0,1-1.76.29A.37.37,0,0,1,38.48,32.9Z" transform="translate(-0.47)"/><path class="cls-1" d="M50.48,26.9a.37.37,0,0,1-.37.38.38.38,0,0,1-.38-.38,11.6,11.6,0,0,1-1.87,6.3l.7.31A12.34,12.34,0,0,0,50.48,26.9Z" transform="translate(-0.47)"/><path class="cls-1" d="M42.85,37.51l-.33.14c-.23.1-.46.18-.7.26l-.35.12c-.23.07-.46.12-.72.18l-.37.09c-.25.05-.51.09-.79.12l-.33,0a11.37,11.37,0,0,1-1.15.06.38.38,0,0,1,0,.75,10.79,10.79,0,0,0,1.24-.07l.35-.05c.28,0,.56-.07.85-.13l.39-.09c.25-.06.5-.12.76-.2l.37-.12c.24-.09.49-.17.75-.28l.06,0a4.49,4.49,0,0,0,.18-.9Z" transform="translate(-0.47)"/><path class="cls-1" d="M46.48,26.9V25.7a.37.37,0,0,0-.37-.38.38.38,0,0,0-.38.38v1.2a7.56,7.56,0,0,1-1.58,4.64l.7.32A8.35,8.35,0,0,0,46.48,26.9Z" transform="translate(-0.47)"/><path class="cls-1" d="M38.11,34.53a.38.38,0,0,1,0,.75,8.32,8.32,0,0,0,4.17-1.13,4.41,4.41,0,0,0-.47-.58A7.61,7.61,0,0,1,38.11,34.53Z" transform="translate(-0.47)"/><path class="cls-1" d="M48.48,26.9V25.7a.37.37,0,0,0-.37-.38.38.38,0,0,0-.38.38v1.2A9.62,9.62,0,0,1,46,32.37l.69.31A10.25,10.25,0,0,0,48.48,26.9Z" transform="translate(-0.47)"/><path class="cls-1" d="M39.54,37.17c.2,0,.4-.05.58-.09l.42-.1c.19,0,.38-.09.57-.15l.32-.11.64-.23.26-.12c.21-.09.41-.19.54-.26L43,36a4.48,4.48,0,0,0-.2-.74l-.3.16-.49.23-.26.12c-.2.08-.39.15-.59.21l-.3.11a5.56,5.56,0,0,1-.58.14l-.34.09-.51.07-.37,0a8.54,8.54,0,0,1-1,.06.38.38,0,0,1,0,.75,10.12,10.12,0,0,0,1.06-.06Z" transform="translate(-0.47)"/><path class="cls-1" d="M50.11,26.53a.37.37,0,0,1,.37.37V25.7a.37.37,0,0,0-.37-.38.38.38,0,0,0-.38.38v1.2A.38.38,0,0,1,50.11,26.53Z" transform="translate(-0.47)"/><path class="cls-1" d="M52.11,26.53a.37.37,0,0,1,.37.37V25.7a.37.37,0,0,0-.37-.38.38.38,0,0,0-.38.38v1.2A.38.38,0,0,1,52.11,26.53Z" transform="translate(-0.47)"/><path class="cls-1" d="M35,33.65l.24-.06.2-.05c.3-.06.6-.1.92-.14l.23,0,.16,0a12.46,12.46,0,0,1,1.35-.07.38.38,0,1,1,0-.75,13.77,13.77,0,0,0-1.42.07l-.22,0-.2,0c-.33,0-.65.08-1,.15h-.06a5.08,5.08,0,0,0-1.08,1h0Z" transform="translate(-0.47)"/><path class="cls-1" d="M31.73,48.11a.37.37,0,0,0,.38.37h.08l.28-.28s0,0,0-.08v-.46h-.75Z" transform="translate(-0.47)"/><path class="cls-1" d="M37.73,40.9a.38.38,0,0,1,.38-.37,6.32,6.32,0,0,0-2.67.59,5.4,5.4,0,0,0,.9.45,5.47,5.47,0,0,1,1.77-.29A.38.38,0,0,1,37.73,40.9Z" transform="translate(-0.47)"/><path class="cls-1" d="M33.69,36.15l.7-.25.36-.12.72-.19.36-.09.79-.11.33,0c.4,0,.79-.06,1.16-.06a.38.38,0,1,1,0-.75c-.4,0-.81,0-1.25.06l-.36.06-.83.12-.39.1c-.25.06-.5.11-.76.19l-.37.13-.75.27-.06,0a4.49,4.49,0,0,0-.18.9l.21-.09Z" transform="translate(-0.47)"/><polygon class="cls-1" points="29.27 47.65 29.27 48.1 29.72 47.65 29.27 47.65"/><path class="cls-1" d="M37.73,38.9a.38.38,0,0,1,.38-.37,8.31,8.31,0,0,0-4.17,1.12,5.29,5.29,0,0,0,.47.59,7.61,7.61,0,0,1,3.7-1A.38.38,0,0,1,37.73,38.9Z" transform="translate(-0.47)"/><path class="cls-1" d="M28.11,48.48a.36.36,0,0,0,.37-.37v-.46h-.06l-.64.63A.37.37,0,0,0,28.11,48.48Z" transform="translate(-0.47)"/><path class="cls-1" d="M33.7,38.35l.49-.23.26-.11c.2-.09.39-.15.59-.22l.3-.1.58-.15.34-.08.51-.08.37-.05a8.19,8.19,0,0,1,1,0,.38.38,0,1,1,0-.75,10.45,10.45,0,0,0-1.07.06l-.36,0c-.2,0-.4,0-.58.09l-.42.1L35.1,37l-.31.1c-.2.07-.41.14-.64.24l-.27.12-.53.25-.15.08a4.59,4.59,0,0,0,.2.75Z" transform="translate(-0.47)"/><path class="cls-1" d="M25.73,48.11a.37.37,0,0,0,.38.37.36.36,0,0,0,.37-.37v-.46h-.75Z" transform="translate(-0.47)"/><circle class="cls-1" cx="25.64" cy="46.9" r="0.38"/><path class="cls-1" d="M23.73,48.11a.37.37,0,0,0,.1.24l.65-.66v0h-.75Z" transform="translate(-0.47)"/><circle class="cls-1" cx="23.64" cy="46.9" r="0.38"/><path class="cls-1" d="M31.61,22.4a.5.5,0,0,0,.5.5.52.52,0,0,0,.39-.2L31.81,22A.47.47,0,0,0,31.61,22.4Z" transform="translate(-0.47)"/><circle class="cls-1" cx="29.64" cy="22.4" r="0.5"/><circle class="cls-1" cx="27.64" cy="22.4" r="0.5"/><circle class="cls-1" cx="25.64" cy="22.4" r="0.5"/><path class="cls-1" d="M24.11,22.9a.51.51,0,0,0,.5-.5.5.5,0,0,0-.5-.5l-.14,0c-.09.26-.18.51-.25.77A.5.5,0,0,0,24.11,22.9Z" transform="translate(-0.47)"/><path class="cls-1" d="M29.61,20.4a.5.5,0,0,0,.5.5.52.52,0,0,0,.39-.2L29.81,20A.47.47,0,0,0,29.61,20.4Z" transform="translate(-0.47)"/><circle class="cls-1" cx="27.64" cy="20.4" r="0.5"/><circle class="cls-1" cx="25.64" cy="20.4" r="0.5"/><path class="cls-1" d="M24.61,20.4v0c-.06.13-.11.26-.17.38A.49.49,0,0,0,24.61,20.4Z" transform="translate(-0.47)"/><circle class="cls-1" cx="31.64" cy="18.4" r="0.5"/><path class="cls-1" d="M27.61,18.4a.5.5,0,0,0,.5.5.52.52,0,0,0,.39-.2L27.81,18A.47.47,0,0,0,27.61,18.4Z" transform="translate(-0.47)"/><path class="cls-1" d="M26.11,18.9a.51.51,0,0,0,.5-.5.5.5,0,0,0-.48-.5c-.17.22-.32.46-.48.69A.49.49,0,0,0,26.11,18.9Z" transform="translate(-0.47)"/><circle class="cls-1" cx="31.64" cy="16.4" r="0.5"/><circle class="cls-1" cx="29.64" cy="16.4" r="0.5"/><path class="cls-1" d="M36.78,20.7a.38.38,0,0,0,.38.38h1v-.75h-1A.37.37,0,0,0,36.78,20.7Z" transform="translate(-0.47)"/><path class="cls-1" d="M36.78,18.7a.38.38,0,0,0,.38.38h1v-.75h-1A.37.37,0,0,0,36.78,18.7Z" transform="translate(-0.47)"/><path class="cls-1" d="M36.78,16.7a.38.38,0,0,0,.38.38h1v-.75h-1A.37.37,0,0,0,36.78,16.7Z" transform="translate(-0.47)"/><path class="cls-1" d="M36.78,14.7a.38.38,0,0,0,.38.38h1V15A.33.33,0,0,1,38,14.7a.34.34,0,0,1,.12-.27v-.1h-1A.37.37,0,0,0,36.78,14.7Z" transform="translate(-0.47)"/><path class="cls-1" d="M38.11,15a.34.34,0,0,0,.25.11.38.38,0,0,0,.38-.38.38.38,0,0,0-.63-.27Z" transform="translate(-0.47)"/><path class="cls-1" d="M36.78,12.7a.38.38,0,0,0,.38.38h1V13A.33.33,0,0,1,38,12.7a.34.34,0,0,1,.12-.27v-.1h-1A.37.37,0,0,0,36.78,12.7Z" transform="translate(-0.47)"/><path class="cls-1" d="M38.11,13a.34.34,0,0,0,.25.11.38.38,0,0,0,.38-.38.38.38,0,0,0-.63-.27Z" transform="translate(-0.47)"/><circle class="cls-1" cx="51.79" cy="45.4" r="0.5"/><circle class="cls-1" cx="49.79" cy="45.4" r="0.5"/><circle class="cls-1" cx="47.79" cy="45.4" r="0.5"/><circle class="cls-1" cx="45.79" cy="45.4" r="0.5"/><circle class="cls-1" cx="43.79" cy="45.4" r="0.5"/><path class="cls-1" d="M43.76,53.4a.5.5,0,0,0,1,0,.76.76,0,0,0,0-.16l-.32-.31a.4.4,0,0,0-.15,0A.5.5,0,0,0,43.76,53.4Z" transform="translate(-0.47)"/><path class="cls-1" d="M45.76,55.4a.5.5,0,0,0,1,0,.76.76,0,0,0,0-.16l-.32-.31a.4.4,0,0,0-.15,0A.5.5,0,0,0,45.76,55.4Z" transform="translate(-0.47)"/><circle class="cls-1" cx="43.79" cy="55.4" r="0.5"/></svg>