<svg id="Layer_1" data-name="Layer 1" xmlns="http://www.w3.org/2000/svg" viewBox="0 0 74.79 74.79"><defs><style>.cls-1{fill:#252944;}</style></defs><title>9</title><path class="cls-1" d="M51,26.11l0-.39c0-.31-.08-.62-.14-.92l-.06-.23,0-.2c-.06-.29-.13-.57-.21-.85l-.09-.25,0-.16c-.1-.28-.19-.55-.3-.82a2.72,2.72,0,0,1-.11-.25l-.06-.13c-.12-.27-.25-.54-.38-.8l-.19-.34c-.15-.26-.31-.53-.48-.79l-.19-.27c-.19-.27-.39-.54-.64-.85l-.12-.14a13.57,13.57,0,0,0-10.43-4.88H37.4v1.25h.05a12.34,12.34,0,0,1,9.48,4.43l.1.13c.23.28.41.52.59.77l.17.27c.15.22.29.46.43.7l.19.34c.11.2.22.45.33.69l.15.33c.1.26.19.51.27.76l.13.36c.07.26.13.5.19.74l.1.41c.06.3.09.57.13.85l0,.35c0,.43.06.85.06,1.24h1.25A12.6,12.6,0,0,0,51,26.11Z"/><path class="cls-1" d="M49.16,43.19a16.42,16.42,0,0,1-1.34,1.14v3.56h1.25V43.42A.36.36,0,0,1,49.16,43.19Z"/><path class="cls-1" d="M45.82,45.63v2.26h1.25v-3A14.25,14.25,0,0,1,45.82,45.63Z"/><path class="cls-1" d="M49,26.31,49,26c0-.27-.06-.54-.11-.79l-.09-.37c-.07-.27-.12-.49-.19-.72l-.12-.35c-.08-.23-.16-.47-.25-.7l-.15-.33c-.1-.22-.2-.45-.3-.64l-.19-.32c-.12-.23-.26-.45-.39-.66L47,20.85c-.16-.23-.34-.46-.55-.73l-.1-.12a11.61,11.61,0,0,0-8.9-4.16H37.4v1.25h.05a10.35,10.35,0,0,1,7.95,3.72l.08.1c.19.24.34.44.49.65l.17.25.34.56.18.33c.07.13.16.33.25.54l.12.27c.09.21.16.41.23.6l.11.35q.09.28.15.57l.1.42c0,.18.06.37.09.57l0,.38a10.12,10.12,0,0,1,.06,1.06h1.25A11.37,11.37,0,0,0,49,26.31Z"/><path class="cls-1" d="M43.82,46.5v1.39h1.25V46C44.66,46.18,44.25,46.35,43.82,46.5Z"/><path class="cls-1" d="M47,26.49,47,26.11c0-.18,0-.35-.07-.5l-.08-.34c-.06-.24-.1-.42-.15-.58l-.1-.3c-.08-.22-.14-.39-.22-.59l-.11-.26c-.09-.18-.17-.37-.23-.49l-.18-.31a6,6,0,0,0-.31-.52L45.35,22c-.13-.2-.28-.39-.45-.61l-.08-.09a9.62,9.62,0,0,0-7.37-3.45H37.4v1.25h.05a8.38,8.38,0,0,1,8.37,8.37h1.25A8.41,8.41,0,0,0,47,26.49Z"/><path class="cls-1" d="M37.45,19.84H37.4v1.25h.05a6.38,6.38,0,0,1,6.37,6.37h1.25A7.63,7.63,0,0,0,37.45,19.84Z"/><path class="cls-1" d="M37.4,0A37.4,37.4,0,1,0,74.79,37.4,37.39,37.39,0,0,0,37.4,0ZM26.11,17.53l7.12,7.11a4.93,4.93,0,0,0-.83,2.76h-10A15,15,0,0,1,26.11,17.53ZM31.4,30.17a.5.5,0,0,1,0-1,.5.5,0,0,1,0,1Zm.5,1.5a.5.5,0,0,1-.5.5.5.5,0,0,1,0-1A.5.5,0,0,1,31.9,31.67Zm-2.5-1.5a.5.5,0,0,1,0-1,.5.5,0,0,1,0,1Zm.5,1.5a.5.5,0,0,1-.5.5.5.5,0,0,1,0-1A.5.5,0,0,1,29.9,31.67Zm-2.5-1.5a.5.5,0,0,1,0-1,.5.5,0,0,1,0,1Zm.5,1.5a.5.5,0,0,1-.5.5.5.5,0,0,1,0-1A.5.5,0,0,1,27.9,31.67Zm-2.5-1.5a.5.5,0,0,1,0-1,.5.5,0,0,1,0,1Zm.5,1.5a.5.5,0,0,1-.5.5.5.5,0,0,1,0-1A.5.5,0,0,1,25.9,31.67Zm-2.5-1.5a.5.5,0,0,1,0-1,.5.5,0,0,1,0,1Zm.5,1.5a.5.5,0,0,1-.5.5.5.5,0,0,1,0-1A.5.5,0,0,1,23.9,31.67ZM22.63,35l.8-.8h0a.5.5,0,0,1-.5-.5v0l-.41.41a15.25,15.25,0,0,1-.09-1.66h1.74l-.79.8h0a.5.5,0,0,1,.5.5v0l1.31-1.32H27l-1.11,1.12a.47.47,0,0,1,0,.17.51.51,0,0,1-.5.5.53.53,0,0,1-.18,0L23,36.41A13.68,13.68,0,0,1,22.63,35Zm.57,2.25,3.73-3.72a.53.53,0,0,1,.28-.29l.82-.82H29.8L23.7,38.5C23.52,38.08,23.35,37.66,23.2,37.22Zm.84,2,5.11-5.1a.5.5,0,0,1-.25-.43.5.5,0,0,1,.5-.5.48.48,0,0,1,.42.25l1-1H32.4a1.5,1.5,0,0,0,0,.22l-.7.69a.5.5,0,0,1-.32.88A.48.48,0,0,1,31,34l-6.33,6.34C24.46,40,24.24,39.6,24,39.21ZM25.11,41l7.43-7.44a4.87,4.87,0,0,0,.5,1.27L25.87,42C25.6,41.66,25.35,41.33,25.11,41Zm1.26,1.56,7.09-7.09a4.94,4.94,0,0,0,.89.88l-7.09,7.1C27,43.14,26.65,42.85,26.37,42.54Zm1.44,1.39L35,36.75a4.55,4.55,0,0,0,1.27.5l-7.44,7.44C28.47,44.45,28.13,44.2,27.81,43.93Zm7,3.23a13.66,13.66,0,0,1-1.44-.32l4-4V44.6Zm2.57-1.5v1.73a14.93,14.93,0,0,1-1.65-.09Zm-4.82.93c-.44-.15-.86-.31-1.28-.5L37.4,40v1.77Zm-2-.84c-.39-.2-.76-.41-1.13-.64l7.74-7.74.2,0v1.55Zm7.25,16.64v-.63H29.31a.36.36,0,0,1-.37-.37.37.37,0,0,1,.37-.38h8.53V59.89l2.31,2.31A14.79,14.79,0,0,1,37.84,62.39ZM41,62l-2.41-2.4a.37.37,0,0,1-.28.13h-9a.36.36,0,0,1-.37-.37.37.37,0,0,1,.37-.38H38l-.18-.18V57.76H29.31a.36.36,0,0,1-.37-.37.37.37,0,0,1,.37-.38h9a.37.37,0,0,1,.37.38.38.38,0,0,1-.22.34l3.93,3.93C42,61.8,41.51,61.93,41,62Zm2.18-.64L37.84,56v-.24H29.31a.36.36,0,0,1-.37-.37.37.37,0,0,1,.37-.38h8.53v-.77l6.61,6.61Q43.85,61.15,43.22,61.39Zm1.91-.92-6.72-6.72h-9.1a.36.36,0,0,1-.37-.37.37.37,0,0,1,.37-.38h8.53v-.62a4.41,4.41,0,0,0,.89-.09l7.5,7.5C45.87,60,45.51,60.26,45.13,60.47Zm1.72-1.11-7.29-7.29a4.71,4.71,0,0,0,1-.51l7.11,7.11C47.43,58.91,47.14,59.14,46.85,59.36Zm1.77-1.6L41.5,50.65a4.94,4.94,0,0,0,.84-2.76h.73V46.76a15,15,0,0,1-4.31.63v-10a4.94,4.94,0,0,0,3.53-1.46l1,1,.13,0a.5.5,0,0,1,.5.5.51.51,0,0,1,0,.13l1.39,1.4.13,0a.5.5,0,0,1,.5.5.51.51,0,0,1,0,.13l1.39,1.4.13,0a.5.5,0,0,1,.5.5.51.51,0,0,1,0,.13L49.36,43l-.13.12a.38.38,0,0,1,.22-.07.37.37,0,0,1,.37.37v4.47h1.25V43.42a.38.38,0,0,1,.75,0v4.47h.52A14.92,14.92,0,0,1,48.62,57.76ZM43.43,34.91a.5.5,0,0,1,.5.5.5.5,0,0,1-.5.5.5.5,0,0,1-.5-.5A.51.51,0,0,1,43.43,34.91Zm-.5-1.5a.51.51,0,0,1,.5-.5.5.5,0,0,1,.5.5.5.5,0,0,1-.5.5A.5.5,0,0,1,42.93,33.41Zm2.5,1.5a.5.5,0,0,1,.5.5.5.5,0,0,1-.5.5.5.5,0,0,1-.5-.5A.51.51,0,0,1,45.43,34.91Zm-.5-1.5a.51.51,0,0,1,.5-.5.5.5,0,0,1,.5.5.5.5,0,0,1-.5.5A.5.5,0,0,1,44.93,33.41Zm.5,3.5a.5.5,0,0,1,.5.5.5.5,0,0,1-.5.5.5.5,0,0,1-.5-.5A.51.51,0,0,1,45.43,36.91Zm2-2a.5.5,0,0,1,.5.5.5.5,0,0,1-.5.5.5.5,0,0,1-.5-.5A.51.51,0,0,1,47.43,34.91Zm-.5-1.5a.51.51,0,0,1,.5-.5.5.5,0,0,1,.5.5.5.5,0,0,1-.5.5A.5.5,0,0,1,46.93,33.41Zm.5,3.5a.5.5,0,0,1,.5.5.5.5,0,0,1-.5.5.5.5,0,0,1-.5-.5A.51.51,0,0,1,47.43,36.91Zm0,2a.5.5,0,0,1,.5.5.5.5,0,0,1-.5.5.5.5,0,0,1-.5-.5A.51.51,0,0,1,47.43,38.91Zm2-4a.5.5,0,0,1,.5.5.5.5,0,0,1-.5.5.5.5,0,0,1-.5-.5A.51.51,0,0,1,49.43,34.91Zm-.5-1.5a.51.51,0,0,1,.5-.5.5.5,0,0,1,.5.5.5.5,0,0,1-.5.5A.5.5,0,0,1,48.93,33.41Zm.5,3.5a.5.5,0,0,1,.5.5.5.5,0,0,1-.5.5.5.5,0,0,1-.5-.5A.51.51,0,0,1,49.43,36.91Zm0,2a.5.5,0,0,1,.5.5.5.5,0,0,1-.5.5.5.5,0,0,1-.5-.5A.51.51,0,0,1,49.43,38.91Zm0,2a.5.5,0,0,1,.5.5.5.5,0,0,1-.5.5.5.5,0,0,1-.5-.5A.51.51,0,0,1,49.43,40.91Zm2-6a.5.5,0,0,1,.5.5.5.5,0,0,1-.5.5.5.5,0,0,1-.5-.5A.51.51,0,0,1,51.43,34.91Zm-.5-1.5a.51.51,0,0,1,.5-.5.5.5,0,0,1,.5.5.5.5,0,0,1-.5.5A.5.5,0,0,1,50.93,33.41Zm.5,3.5a.5.5,0,0,1,.5.5.5.5,0,0,1-.5.5.5.5,0,0,1-.5-.5A.51.51,0,0,1,51.43,36.91Zm0,2a.5.5,0,0,1,.5.5.5.5,0,0,1-.5.5.5.5,0,0,1-.5-.5A.51.51,0,0,1,51.43,38.91Zm0,2a.5.5,0,0,1,.5.5.5.5,0,0,1-.5.5.5.5,0,0,1-.5-.5A.51.51,0,0,1,51.43,40.91Zm1-8.52h-10V27.46h.67a5.62,5.62,0,0,0-5.62-5.62H37.4v.56a4.93,4.93,0,0,0-2.76.83l-7.11-7.11A14.92,14.92,0,0,1,37.4,12.4v.69h.05a14.32,14.32,0,0,1,11,5.15l.12.14c.27.33.48.62.68.91l.19.28q.27.41.51.84l.19.35c.15.28.28.56.41.84l.06.13.12.28c.12.28.22.57.32.85l0,.16c0,.1.07.19.1.29.08.29.15.59.22.88l0,.19.06.27c.07.32.11.65.15,1l.06.42a13.77,13.77,0,0,1,.07,1.42h.58Z"/><path class="cls-1" d="M36.24,21.09a.38.38,0,0,0,0,.75H37.4v-.75Z"/><path class="cls-1" d="M36.24,19.09a.38.38,0,0,0,0,.75H37.4v-.75Z"/><path class="cls-1" d="M37.4,17.09H36.24a.38.38,0,0,0,0,.75H37.4v-.75Z"/><path class="cls-1" d="M37.07,15.46a.36.36,0,0,1,.33-.36H36.24a.38.38,0,0,0,0,.75H37.4A.38.38,0,0,1,37.07,15.46Z"/><path class="cls-1" d="M37.4,15.83h.05a.38.38,0,0,0,0-.75H37.4Z"/><path class="cls-1" d="M35.87,13.46a.38.38,0,0,0,.37.38H37.4a.38.38,0,0,1-.33-.37.36.36,0,0,1,.33-.36H36.24A.38.38,0,0,0,35.87,13.46Z"/><path class="cls-1" d="M37.4,13.83h.05a.38.38,0,0,0,0-.75H37.4Z"/><path class="cls-1" d="M43.45,29.05a.38.38,0,0,0,.37-.38V27.46h0a.38.38,0,1,1-.75,0h0v1.21A.38.38,0,0,0,43.45,29.05Z"/><path class="cls-1" d="M43.82,27.46h0a.38.38,0,0,0-.75,0h.75Z"/><path class="cls-1" d="M45.45,27.84a.38.38,0,0,1-.38-.38h0v1.21a.38.38,0,1,0,.75,0V27.46h0A.38.38,0,0,1,45.45,27.84Z"/><path class="cls-1" d="M45.45,27.09a.38.38,0,0,0-.38.37h.75A.38.38,0,0,0,45.45,27.09Z"/><path class="cls-1" d="M47.45,27.84a.38.38,0,0,1-.38-.38h0v1.21a.38.38,0,1,0,.75,0V27.46h0A.38.38,0,0,1,47.45,27.84Z"/><path class="cls-1" d="M47.45,27.09a.38.38,0,0,0-.38.37h.75A.38.38,0,0,0,47.45,27.09Z"/><path class="cls-1" d="M49.45,27.84a.38.38,0,0,1-.38-.38h0v1.21a.38.38,0,1,0,.75,0V27.46h0A.38.38,0,0,1,49.45,27.84Z"/><path class="cls-1" d="M49.45,27.09a.38.38,0,0,0-.38.37h.75A.38.38,0,0,0,49.45,27.09Z"/><path class="cls-1" d="M51.45,27.84a.38.38,0,0,1-.38-.38h0v1.21a.38.38,0,1,0,.75,0V27.46h0A.38.38,0,0,1,51.45,27.84Z"/><path class="cls-1" d="M51.45,27.09a.38.38,0,0,0-.38.37h.75A.38.38,0,0,0,51.45,27.09Z"/><circle class="cls-1" cx="31.4" cy="25.67" r="0.5"/><circle class="cls-1" cx="29.4" cy="25.67" r="0.5"/><circle class="cls-1" cx="27.4" cy="25.67" r="0.5"/><circle class="cls-1" cx="25.4" cy="25.67" r="0.5"/><circle class="cls-1" cx="23.4" cy="25.67" r="0.5"/><path class="cls-1" d="M30.9,33.68A.53.53,0,0,0,31,34l.7-.7a.53.53,0,0,0-.32-.12A.5.5,0,0,0,30.9,33.68Z"/><path class="cls-1" d="M29.9,33.68a.57.57,0,0,0-.08-.25l-.67.68a.49.49,0,0,0,.25.07A.51.51,0,0,0,29.9,33.68Z"/><path class="cls-1" d="M27.4,34.18a.51.51,0,0,0,.5-.5.5.5,0,0,0-.5-.5.58.58,0,0,0-.19,0l-.28.29a.48.48,0,0,0,0,.18A.5.5,0,0,0,27.4,34.18Z"/><path class="cls-1" d="M25.4,33.18a.5.5,0,0,0-.5.5.49.49,0,0,0,.32.46l.64-.63A.5.5,0,0,0,25.4,33.18Z"/><path class="cls-1" d="M22.9,33.64l.45-.45A.48.48,0,0,0,22.9,33.64Z"/><path class="cls-1" d="M23.89,33.71l-.46.46A.49.49,0,0,0,23.89,33.71Z"/><circle class="cls-1" cx="51.43" cy="31.41" r="0.5"/><circle class="cls-1" cx="49.43" cy="31.41" r="0.5"/><circle class="cls-1" cx="47.43" cy="31.41" r="0.5"/><circle class="cls-1" cx="45.43" cy="31.41" r="0.5"/><circle class="cls-1" cx="43.43" cy="31.41" r="0.5"/><path class="cls-1" d="M42.93,37.41a.5.5,0,0,0,1,.13l-.61-.6A.49.49,0,0,0,42.93,37.41Z"/><path class="cls-1" d="M44.93,39.41a.5.5,0,0,0,1,.13l-.61-.6A.49.49,0,0,0,44.93,39.41Z"/><circle class="cls-1" cx="43.43" cy="39.41" r="0.5"/><path class="cls-1" d="M46.93,41.41a.5.5,0,0,0,1,.13l-.61-.6A.49.49,0,0,0,46.93,41.41Z"/><circle class="cls-1" cx="45.43" cy="41.41" r="0.5"/><circle class="cls-1" cx="43.43" cy="41.41" r="0.5"/><path class="cls-1" d="M51.45,50.67a.38.38,0,0,0,.37-.38v-2.4h-.75v2.4A.38.38,0,0,0,51.45,50.67Z"/><path class="cls-1" d="M45.07,50.29a.38.38,0,1,0,.75,0v-2.4h-.75Z"/><path class="cls-1" d="M45.82,43.42a.38.38,0,0,0-.75,0V46c.25-.12.51-.23.75-.36Z"/><path class="cls-1" d="M43.45,50.67a.38.38,0,0,0,.37-.38v-2.4h-.75v2.4A.38.38,0,0,0,43.45,50.67Z"/><path class="cls-1" d="M43.82,43.42a.38.38,0,0,0-.75,0v3.34c.26-.08.5-.17.75-.26Z"/><path class="cls-1" d="M49.07,50.29a.38.38,0,1,0,.75,0v-2.4h-.75Z"/><path class="cls-1" d="M49.16,43.19l.07-.07Z"/><path class="cls-1" d="M47.07,47.89v2.4a.38.38,0,1,0,.75,0v-2.4h-.75Z"/><path class="cls-1" d="M47.82,43.42a.38.38,0,0,0-.75,0v1.46c.26-.18.5-.37.75-.55Z"/><path class="cls-1" d="M38.72,61.39a.37.37,0,0,0-.37-.38h-.51v.75h.51A.36.36,0,0,0,38.72,61.39Z"/><path class="cls-1" d="M38.72,55.39a.37.37,0,0,0-.37-.38h-.51v.75h.51A.36.36,0,0,0,38.72,55.39Z"/><path class="cls-1" d="M38.72,53.39a.37.37,0,0,0-.37-.38h-.51v.16l.57.58A.37.37,0,0,0,38.72,53.39Z"/><path class="cls-1" d="M38.35,59H38l.61.62a.36.36,0,0,0,.09-.24A.37.37,0,0,0,38.35,59Z"/><path class="cls-1" d="M38.5,57.73l-.66-.67v.7h.51A.37.37,0,0,0,38.5,57.73Z"/></svg>