<svg id="Layer_1" data-name="Layer 1" xmlns="http://www.w3.org/2000/svg" viewBox="0 0 281.95 281.95"><title>4</title><path d="M221,179.55l-4.07-.21-2-4.21a.49.49,0,0,0-.48-.3.52.52,0,0,0-.46.32l-1.77,4.19-4.27.21a.51.51,0,0,0-.46.33.53.53,0,0,0,.12.55l3.06,3-.71,4.66a.51.51,0,0,0,.45.58.5.5,0,0,0,.34-.07l3.72-2.38,3.75,2.38a.44.44,0,0,0,.27.09.52.52,0,0,0,.29-.09.53.53,0,0,0,.23-.52l-.75-4.65,3.06-3a.53.53,0,0,0,.12-.55A.5.5,0,0,0,221,179.55Z" transform="translate(-48.97 0)"/><path d="M183.64,18.52l-3-.15-1.44-3.08a.43.43,0,0,0-.77,0l-1.3,3.07-3.11.15a.41.41,0,0,0-.38.27.42.42,0,0,0,.1.45L176,21.41l-.52,3.41a.44.44,0,0,0,.19.42.43.43,0,0,0,.46,0l2.71-1.74,2.73,1.74a.43.43,0,0,0,.46,0,.44.44,0,0,0,.19-.42l-.55-3.41,2.23-2.17a.38.38,0,0,0,.1-.45A.4.4,0,0,0,183.64,18.52Z" transform="translate(-48.97 0)"/><path d="M111.53,25.71a.5.5,0,0,0,.26-.08.47.47,0,0,0,.21-.47l-.84-5.28,3.46-3.38a.47.47,0,0,0-.3-.81l-4.63-.23-2.26-4.79a.44.44,0,0,0-.43-.27.46.46,0,0,0-.42.28l-2,4.78-4.86.23a.47.47,0,0,0-.45.49.48.48,0,0,0,.15.32l3.46,3.38-.8,5.28a.52.52,0,0,0,.21.47.47.47,0,0,0,.51,0l4.2-2.71,4.27,2.71A.5.5,0,0,0,111.53,25.71Z" transform="translate(-48.97 0)"/><path d="M77.75,63.8l-3.63-.18-1.77-3.77a.49.49,0,0,0-.47-.29.5.5,0,0,0-.47.31l-1.58,3.75L66,63.8a.51.51,0,0,0-.5.52.48.48,0,0,0,.17.37l2.72,2.66-.63,4.16A.5.5,0,0,0,68,72a.53.53,0,0,0,.57,0l3.31-2.12L75.23,72a.54.54,0,0,0,.28.08A.6.6,0,0,0,75.8,72a.49.49,0,0,0,.2-.5l-.66-4.16,2.72-2.65a.51.51,0,0,0,0-.72.48.48,0,0,0-.37-.17Z" transform="translate(-48.97 0)"/><path d="M185.64,206.15l-4.16-.2-2-4.31a.43.43,0,0,0-.78,0l-1.81,4.3-4.36.2a.42.42,0,0,0-.38.27.44.44,0,0,0,.1.46l3.12,3-.72,4.75a.4.4,0,0,0,.19.41.43.43,0,0,0,.46,0l3.79-2.44,3.84,2.45a.46.46,0,0,0,.23.06.39.39,0,0,0,.23-.07.44.44,0,0,0,.19-.42l-.76-4.75,3.11-3a.4.4,0,0,0,.1-.46A.43.43,0,0,0,185.64,206.15Z" transform="translate(-48.97 0)"/><path d="M218.22,29.81a.51.51,0,0,0-.46-.34l-4.33-.21-2.1-4.48a.55.55,0,0,0-.48-.3.51.51,0,0,0-.47.32l-1.88,4.46-4.54.21a.51.51,0,0,0-.46.34.53.53,0,0,0,.12.55l3.25,3.17-.75,4.95a.51.51,0,0,0,.45.58.5.5,0,0,0,.34-.07l4-2.53,4,2.53a.46.46,0,0,0,.28.08.51.51,0,0,0,.51-.6l-.79-4.94,3.25-3.17A.55.55,0,0,0,218.22,29.81Z" transform="translate(-48.97 0)"/><path d="M138.89,9.34l-2-.1-1-2.1a.31.31,0,0,0-.54,0l-.89,2.09-2.12.1a.28.28,0,0,0-.26.19.3.3,0,0,0,.07.31l1.52,1.48-.35,2.33a.33.33,0,0,0,.13.29.29.29,0,0,0,.31,0l1.85-1.19L137.49,14a.19.19,0,0,0,.15,0,.3.3,0,0,0,.16-.05.28.28,0,0,0,.12-.28l-.37-2.33,1.53-1.48a.3.3,0,0,0,.07-.31A.33.33,0,0,0,138.89,9.34Z" transform="translate(-48.97 0)"/><path d="M133.6,225.8l-2.52-.12-1.23-2.62a.36.36,0,0,0-.33-.21.37.37,0,0,0-.33.22l-1.1,2.61-2.64.12a.36.36,0,0,0-.24.62l1.9,1.85-.44,2.9a.35.35,0,0,0,.16.35.35.35,0,0,0,.39,0l2.3-1.48,2.33,1.48a.36.36,0,0,0,.2.06.33.33,0,0,0,.19-.06.37.37,0,0,0,.16-.36l-.46-2.89,1.89-1.85a.35.35,0,0,0,.09-.39A.37.37,0,0,0,133.6,225.8Z" transform="translate(-48.97 0)"/><path d="M221.45,58.45l-2-.1-1-2.1a.27.27,0,0,0-.27-.17.28.28,0,0,0-.26.18L217,58.35l-2.13.1a.29.29,0,0,0-.19.5l1.53,1.48-.35,2.33a.29.29,0,0,0,.12.29.31.31,0,0,0,.32,0l1.85-1.19L220,63.05a.38.38,0,0,0,.15,0,.22.22,0,0,0,.16,0,.28.28,0,0,0,.13-.29l-.37-2.33L221.64,59a.29.29,0,0,0,0-.41.25.25,0,0,0-.2-.09Z" transform="translate(-48.97 0)"/><path d="M81.83,37.71l-2-.1-1-2.11a.3.3,0,0,0-.27-.16.3.3,0,0,0-.26.17l-.88,2.1-2.13.1a.33.33,0,0,0-.26.18.32.32,0,0,0,.07.31l1.53,1.49L76.27,42a.28.28,0,0,0,.12.28.31.31,0,0,0,.32,0l1.85-1.19,1.87,1.19a.27.27,0,0,0,.15,0,.3.3,0,0,0,.16,0,.27.27,0,0,0,.13-.28l-.37-2.33L82,38.2a.3.3,0,0,0,.07-.31A.28.28,0,0,0,81.83,37.71Z" transform="translate(-48.97 0)"/><path d="M201.22,7l-2-.1-1-2.11a.29.29,0,0,0-.27-.16.3.3,0,0,0-.26.17l-.88,2.1-2.13.1a.28.28,0,0,0-.25.18.28.28,0,0,0,.07.31L196,8.93l-.35,2.32a.28.28,0,0,0,.13.29.29.29,0,0,0,.31,0l1.85-1.19,1.87,1.19a.3.3,0,0,0,.16.05.27.27,0,0,0,.15-.05.28.28,0,0,0,.13-.29l-.37-2.32,1.52-1.49a.25.25,0,0,0-.18-.44Z" transform="translate(-48.97 0)"/><path d="M189.85,181.33l-2-.1-1-2.11a.3.3,0,0,0-.26-.17.33.33,0,0,0-.26.18l-.89,2.1-2.12.1a.27.27,0,0,0-.26.18.28.28,0,0,0,.07.31l1.52,1.49-.35,2.32a.28.28,0,0,0,.13.29.29.29,0,0,0,.31,0l1.85-1.19,1.87,1.19a.43.43,0,0,0,.16,0,.43.43,0,0,0,.16,0,.29.29,0,0,0,.12-.29l-.37-2.33,1.53-1.48a.27.27,0,0,0,.06-.31A.27.27,0,0,0,189.85,181.33Z" transform="translate(-48.97 0)"/><path d="M65.94,97.65l-5.21-.25L58.2,92a.53.53,0,0,0-.49-.3.54.54,0,0,0-.48.32L55,97.4l-5.5.25A.55.55,0,0,0,49,98a.55.55,0,0,0,.13.57l3.9,3.8-.9,5.94a.53.53,0,0,0,.81.53l4.75-3,4.8,3a.51.51,0,0,0,.29.08.6.6,0,0,0,.29-.08.55.55,0,0,0,.23-.53l-.95-5.94,3.9-3.8a.53.53,0,0,0,0-.75.52.52,0,0,0-.35-.16Z" transform="translate(-48.97 0)"/><path d="M67.17,130.8l-2.52-.13-1.23-2.62a.34.34,0,0,0-.33-.2.35.35,0,0,0-.32.22l-1.11,2.6L59,130.8a.36.36,0,0,0-.34.38.33.33,0,0,0,.1.23l1.9,1.85-.43,2.9a.36.36,0,0,0,.15.36.39.39,0,0,0,.39,0L63.1,135l2.33,1.48a.61.61,0,0,0,.19,0,.36.36,0,0,0,.2-.06.33.33,0,0,0,.15-.35l-.46-2.9,1.9-1.85a.29.29,0,0,0-.24-.52Z" transform="translate(-48.97 0)"/><path d="M232.2,87l-2.52-.12-1.23-2.63a.34.34,0,0,0-.33-.2.37.37,0,0,0-.33.22l-1.1,2.61-2.64.12a.37.37,0,0,0-.32.23.36.36,0,0,0,.08.38l1.9,1.85-.44,2.9a.37.37,0,0,0,.16.36.39.39,0,0,0,.39,0l2.31-1.48,2.32,1.48a.35.35,0,0,0,.2,0,.41.41,0,0,0,.19,0,.37.37,0,0,0,.16-.36l-.46-2.9,1.89-1.85a.34.34,0,0,0,.09-.38A.37.37,0,0,0,232.2,87Z" transform="translate(-48.97 0)"/><path d="M233.17,116.84a.51.51,0,0,0-.46-.34l-4.33-.21-2.1-4.49a.52.52,0,0,0-.48-.29.5.5,0,0,0-.47.31l-1.88,4.47-4.54.21a.52.52,0,0,0-.34.89l3.25,3.17-.75,4.94a.53.53,0,0,0,.23.52.52.52,0,0,0,.56,0l3.95-2.54,4,2.54a.54.54,0,0,0,.28.08.47.47,0,0,0,.28-.09.52.52,0,0,0,.23-.51l-.79-5,3.25-3.16A.54.54,0,0,0,233.17,116.84Z" transform="translate(-48.97 0)"/><path d="M64.08,166a.56.56,0,0,0-.46-.34l-4.33-.21L57.18,161a.5.5,0,0,0-.47-.3.51.51,0,0,0-.47.32l-1.89,4.46-4.53.21a.51.51,0,0,0-.46.34.49.49,0,0,0,.12.55l3.25,3.17L52,174.63a.52.52,0,0,0,.79.51l4-2.53,4,2.53a.46.46,0,0,0,.28.08.57.57,0,0,0,.28-.08.54.54,0,0,0,.23-.52l-.79-5L64,166.51A.5.5,0,0,0,64.08,166Z" transform="translate(-48.97 0)"/><path d="M216.64,148.67l-2-.1-1-2.11a.29.29,0,0,0-.27-.16.3.3,0,0,0-.26.17l-.88,2.1-2.13.1a.28.28,0,0,0-.25.18.29.29,0,0,0,.06.31l1.53,1.49-.35,2.32a.28.28,0,0,0,.13.29.29.29,0,0,0,.31,0l1.85-1.19,1.87,1.19a.3.3,0,0,0,.16.05.27.27,0,0,0,.15-.05.28.28,0,0,0,.13-.29l-.37-2.32,1.52-1.49a.28.28,0,0,0,.07-.31A.28.28,0,0,0,216.64,148.67Z" transform="translate(-48.97 0)"/><path d="M88.71,200.29l-3.93-.2L82.86,196a.55.55,0,0,0-.51-.32.59.59,0,0,0-.51.34l-1.71,4.06-4.13.2a.55.55,0,0,0-.49.36.56.56,0,0,0,.13.6l3,2.88L78,208.63a.57.57,0,0,0,.47.64.65.65,0,0,0,.39-.09l3.59-2.3L86,209.2a.61.61,0,0,0,.3.08.56.56,0,0,0,.56-.56s0-.05,0-.08l-.72-4.51,3-2.89a.56.56,0,0,0-.36-1Z" transform="translate(-48.97 0)"/><path d="M89.17,173.5l-2.52-.12-1.24-2.62a.34.34,0,0,0-.33-.21.38.38,0,0,0-.32.22l-1.1,2.61L81,173.5a.38.38,0,0,0-.32.24.36.36,0,0,0,.09.38l1.9,1.85-.44,2.9a.35.35,0,0,0,.31.4.34.34,0,0,0,.24-.05l2.3-1.48,2.33,1.48a.33.33,0,0,0,.19.06.36.36,0,0,0,.36-.36v0L87.5,176l1.89-1.85a.36.36,0,0,0,.09-.38A.37.37,0,0,0,89.17,173.5Z" transform="translate(-48.97 0)"/><path d="M164.28,5.33a.5.5,0,0,0-.46-.33l-4.32-.22L157.39.3a.49.49,0,0,0-.48-.3.51.51,0,0,0-.47.32l-1.88,4.46L150,5a.51.51,0,0,0-.49.53.52.52,0,0,0,.16.35l3.24,3.17L152.18,14a.52.52,0,0,0,.23.51.53.53,0,0,0,.57,0L156.92,12l4,2.53a.54.54,0,0,0,.28.08.5.5,0,0,0,.51-.6l-.79-4.94,3.25-3.17A.49.49,0,0,0,164.28,5.33Z" transform="translate(-48.97 0)"/><path d="M109.6,221.21l-3.12-.16L105,217.81a.46.46,0,0,0-.4-.25.44.44,0,0,0-.4.27l-1.36,3.22-3.27.16a.46.46,0,0,0-.4.28.44.44,0,0,0,.11.47l2.34,2.29-.62,3.58a.44.44,0,0,0,.68.43l2.84-1.82,2.88,1.83a.51.51,0,0,0,.24.07.41.41,0,0,0,.24-.08.43.43,0,0,0,.19-.44l-.57-3.57,2.39-2.25a.45.45,0,0,0,.1-.47A.43.43,0,0,0,109.6,221.21Z" transform="translate(-48.97 0)"/><path d="M209.25,83.66a63,63,0,0,0-1.65-7.54c-9.1-31.88-43-53.23-74.79-43.45a67.76,67.76,0,0,0-6.94,2.27A63.67,63.67,0,0,0,102,51.13c-1.4,1.55-2.71,3.18-4,4.87a79,79,0,0,0-6.67,10.82Q90.23,69,89.2,71.28C75.14,100.94,77.91,139,102.61,162.56q2.46,2.73,4.69,4.87c6,5.72,10.91,8.51,10.2,8.44-3.2,6.51-7.45,10.81-12.18,16.63-3.75,4.64-10.23,11-5,16.05,11.82-2.83,22.79,1.89,32.39,4.46,2.7,1.44,6.24,5.49,8.91,4.16,3.2-1.07,2.38-3.08,2.38-4.46-.42-9.63-3.33-19.78-3-28.23a9,9,0,0,1,3.86.3,9.9,9.9,0,0,1,3.48,1.7c2.17,2.26,4.93,4.33,6.44,7.14a14.13,14.13,0,0,1,1.67,3.94c2,8.73-6.15,13.65-6.54,21.09-.19,3.55.58,8.13,2.38,11,2.9,4.62,7.77,5.67,9.8,10.11,6,13.21-2,27,3.57,42.19,0-2.7-.42-5.15-.6-7.73-.5-7.57,2-15,1.79-22-.1-4-1.61-8.45-2.38-11.88-1.15-5.14-6.7-7.19-9.8-11-1.65-4.7-2.47-8.81-1.19-13.37,1.31-4.72,5.83-7.87,6.53-11.59a12.82,12.82,0,0,0-.14-5.34c-1.76-6.86-7.28-11-12-15.75,2.21-.61,4.32-1.26,6.31-1.92C197.5,174.22,213.4,122.37,209.25,83.66Zm-65.44,71.62c1.37-5.72,5-26.72,4.36-28.82-.44-1.43-22-2.41-26.4-7-1.87-2-.62-8.56.56-14.25.9-4.29,7.62-28.3,9.73-36.67,3.32.81,8-.09,8.61,2,.85,3.26-5.21,25.56-6.67,35.56-.45,3,.33,3.72,2.12,3.92,5.59,1.37,12,2.78,15.68.66,1.82-6.23,2.69-14.57,5.15-20.14.56-1.33,6.67-.05,7.23,1.39.54,12.47-6.21,36.69-7.1,53.16-.25,4.58.37,7.28-2,9.81C153.06,157,147,155.79,143.81,155.28Z" transform="translate(-48.97 0)"/><path d="M150.41,113.44a27.56,27.56,0,0,1-3.85.25c-5.55,0-11.61-1.4-13.64-2.89-.42-.28-.68-1.13-.68-2.44,0-3.87,2-11.28,3.45-18.58,1.66-8.69,3.58-17,3.6-17.93s-1.3-1.43-2.48-1.66a19.84,19.84,0,0,0-3.27-.25h-.44a.35.35,0,0,0-.34.36h0a.35.35,0,0,0,.36.33h.42a19.44,19.44,0,0,1,3.14.23,5.2,5.2,0,0,1,1.44.43c.36.2.48.37.47.55,0,.67-1.92,9.16-3.58,17.8-1.39,7.27-3.45,14.64-3.46,18.71,0,1.38.21,2.44,1,3,2.31,1.65,8.36,3,14,3a30.54,30.54,0,0,0,3.94-.25.37.37,0,0,0,.3-.4A.35.35,0,0,0,150.41,113.44Z" transform="translate(-48.97 0)"/><path d="M156.84,132.87c1.75-11.51,4.22-21.34,5-26.32a121.46,121.46,0,0,0,1.61-13.13,1.48,1.48,0,0,0-.21-1c-1-1-2.67-1.06-3.79-1.07h-1.1a.35.35,0,0,0-.31.38.34.34,0,0,0,.37.31h0a8.34,8.34,0,0,1,1,0,5.26,5.26,0,0,1,3.27.84,2.62,2.62,0,0,1,0,.56c0,1.78-.65,6.67-1.61,13-.73,4.91-3.2,14.78-5,26.32-.78,5.1-1,9.7-1.24,13.29s-.67,6.18-1.65,7.12a.35.35,0,0,0,0,.49.37.37,0,0,0,.23.1.35.35,0,0,0,.25-.1c1.26-1.31,1.57-3.94,1.85-7.55S156.07,137.93,156.84,132.87Z" transform="translate(-48.97 0)"/></svg>