<svg id="Layer_1" data-name="Layer 1" xmlns="http://www.w3.org/2000/svg" viewBox="0 0 265.07 265.07"><title>5</title><path d="M175.4,151.88l-2-4.21a.49.49,0,0,0-.48-.3.51.51,0,0,0-.46.32l-1.78,4.19-4.26.2a.52.52,0,0,0-.34.89l3.06,3-.71,4.66a.52.52,0,0,0,.79.51l3.72-2.38,3.75,2.38a.45.45,0,0,0,.27.08.6.6,0,0,0,.29-.08.53.53,0,0,0,.23-.52l-.75-4.65,3.06-3a.53.53,0,0,0,.12-.55.52.52,0,0,0-.46-.34Z"/><path d="M119.66,21.16l-.51,3.41a.4.4,0,0,0,.18.41.43.43,0,0,0,.46,0l2.71-1.74L125.24,25a.46.46,0,0,0,.23.06.39.39,0,0,0,.23-.07.42.42,0,0,0,.18-.42l-.54-3.4L127.57,19a.42.42,0,0,0-.27-.72l-3-.15L122.88,15a.41.41,0,0,0-.39-.24.41.41,0,0,0-.38.26l-1.29,3.06-3.12.15a.42.42,0,0,0-.37.27.41.41,0,0,0,.1.45Z"/><path d="M50.77,26.36,50,31.64a.47.47,0,0,0,.72.47l4.23-2.72,4.27,2.72a.43.43,0,0,0,.25.07.48.48,0,0,0,.26-.07.48.48,0,0,0,.2-.47l-.84-5.28L62.53,23a.47.47,0,0,0-.31-.81l-4.63-.23-2.25-4.79a.47.47,0,0,0-.86,0l-2,4.78-4.85.23a.47.47,0,0,0-.31.81Z"/><path d="M26.87,62.09a.54.54,0,0,0,.23-.52l-.66-4.16,2.72-2.66a.51.51,0,0,0,.13-.55.53.53,0,0,0-.46-.34l-3.63-.17-1.77-3.77a.51.51,0,0,0-.48-.3.52.52,0,0,0-.46.32L20.9,53.69l-3.8.17a.52.52,0,0,0-.46.34.53.53,0,0,0,.12.55l2.73,2.66-.63,4.16a.52.52,0,0,0,.23.52.52.52,0,0,0,.56,0L23,60l3.35,2.13a.57.57,0,0,0,.28.08A.54.54,0,0,0,26.87,62.09Z"/><path d="M145,222.81l-4.16-.2-2-4.31a.41.41,0,0,0-.39-.25.43.43,0,0,0-.38.26l-1.82,4.3-4.36.2a.44.44,0,0,0-.38.27.42.42,0,0,0,.11.45l3.11,3.05-.72,4.74a.42.42,0,0,0,.65.42l3.8-2.44,3.84,2.44a.38.38,0,0,0,.22.07.39.39,0,0,0,.23-.07.42.42,0,0,0,.19-.42l-.76-4.75,3.12-3a.41.41,0,0,0,.1-.45A.42.42,0,0,0,145,222.81Z"/><path d="M149.31,36.51l-.75,5a.52.52,0,0,0,.79.51l4-2.53,4,2.53a.45.45,0,0,0,.27.08.51.51,0,0,0,.29-.08.5.5,0,0,0,.22-.52l-.78-4.94,3.24-3.17a.49.49,0,0,0,.12-.55.51.51,0,0,0-.46-.33l-4.32-.22-2.11-4.48a.52.52,0,0,0-1,0l-1.88,4.46-4.54.22a.53.53,0,0,0-.46.33.51.51,0,0,0,.13.55Z"/><path d="M70.62,15.06l-.35,2.32a.28.28,0,0,0,.13.29.29.29,0,0,0,.31,0l1.85-1.19,1.87,1.19a.3.3,0,0,0,.16,0,.27.27,0,0,0,.15,0,.28.28,0,0,0,.13-.29l-.37-2.32L76,13.57a.28.28,0,0,0,.07-.31.27.27,0,0,0-.25-.18l-2-.1-1-2.11a.27.27,0,0,0-.26-.16.28.28,0,0,0-.26.17L71.41,13l-2.13.1a.27.27,0,0,0-.25.18.28.28,0,0,0,.07.31Z"/><path d="M99.79,209.13,97.27,209,96,206.38a.36.36,0,0,0-.65,0L94.28,209l-2.64.13a.33.33,0,0,0-.32.23.36.36,0,0,0,.08.38l1.9,1.85-.44,2.9a.36.36,0,0,0,.16.35.35.35,0,0,0,.39,0l2.31-1.48,2.33,1.49a.41.41,0,0,0,.19.05.36.36,0,0,0,.2-.06.36.36,0,0,0,.15-.35l-.46-2.9,1.9-1.85a.36.36,0,0,0,.08-.38A.33.33,0,0,0,99.79,209.13Z"/><path d="M162.3,57.73l-.36,2.32a.31.31,0,0,0,.13.29.29.29,0,0,0,.31,0l1.86-1.19,1.87,1.19a.26.26,0,0,0,.15,0,.29.29,0,0,0,.16,0,.32.32,0,0,0,.13-.29l-.37-2.33,1.52-1.48a.3.3,0,0,0,.07-.31.27.27,0,0,0-.26-.18l-2-.1-1-2.11a.29.29,0,0,0-.53,0l-.89,2.1-2.12.1a.27.27,0,0,0-.26.18.3.3,0,0,0,.07.31Z"/><path d="M25.22,32l-.35,2.32a.28.28,0,0,0,.13.29.29.29,0,0,0,.31,0l1.85-1.19L29,34.64a.29.29,0,0,0,.16,0,.26.26,0,0,0,.15,0,.28.28,0,0,0,.13-.29L29.1,32l1.52-1.48a.3.3,0,0,0,.07-.31.27.27,0,0,0-.25-.18l-2-.1-1-2.11a.3.3,0,0,0-.27-.17.33.33,0,0,0-.26.18L26,30l-2.13.1a.27.27,0,0,0-.25.18.29.29,0,0,0,.06.31Z"/><path d="M138.7,17.6l-.35,2.32a.28.28,0,0,0,.13.29.29.29,0,0,0,.31,0L140.64,19l1.87,1.19a.29.29,0,0,0,.16,0,.32.32,0,0,0,.16,0,.29.29,0,0,0,.12-.29l-.37-2.33,1.53-1.48a.29.29,0,0,0,.06-.31.27.27,0,0,0-.25-.18l-2-.1-1-2.11a.3.3,0,0,0-.26-.17.3.3,0,0,0-.26.18l-.89,2.1-2.13.1a.27.27,0,0,0-.25.18.28.28,0,0,0,.07.31Z"/><path d="M155.13,184l-2-.1-1-2.1a.28.28,0,0,0-.27-.17.3.3,0,0,0-.26.17l-.88,2.1-2.13.1a.32.32,0,0,0-.26.19.28.28,0,0,0,.07.3l1.53,1.49-.35,2.33a.28.28,0,0,0,.12.28.31.31,0,0,0,.32,0l1.85-1.18,1.87,1.19a.28.28,0,0,0,.15,0,.3.3,0,0,0,.16-.05.27.27,0,0,0,.13-.28L153.8,186l1.52-1.49a.28.28,0,0,0,.07-.3A.29.29,0,0,0,155.13,184Z"/><path d="M13.53,96.87a.54.54,0,0,0,.28.08.52.52,0,0,0,.29-.09.53.53,0,0,0,.23-.52l-.95-5.94,3.9-3.8a.53.53,0,0,0-.34-.91l-5.21-.25L9.2,80a.52.52,0,0,0-.49-.3.54.54,0,0,0-.48.32L6,85.44l-5.45.25A.55.55,0,0,0,0,86a.55.55,0,0,0,.13.57l3.9,3.8-.9,5.94a.53.53,0,0,0,.81.53l4.75-3.06Z"/><path d="M18.16,123.42a.34.34,0,0,0-.32-.23l-2.52-.13-1.23-2.62a.36.36,0,0,0-.33-.21.39.39,0,0,0-.33.22l-1.1,2.61-2.64.13a.33.33,0,0,0-.32.23.36.36,0,0,0,.08.38l1.9,1.85-.44,2.9a.36.36,0,0,0,.55.35l2.31-1.48,2.33,1.49a.38.38,0,0,0,.19.05.33.33,0,0,0,.19-.06.34.34,0,0,0,.16-.35l-.46-2.9,1.9-1.85A.36.36,0,0,0,18.16,123.42Z"/><path d="M172.87,79.2l-.44,2.9a.35.35,0,0,0,.16.36.37.37,0,0,0,.38,0L175.28,81l2.33,1.48a.41.41,0,0,0,.19.05.36.36,0,0,0,.2-.06.34.34,0,0,0,.15-.35l-.46-2.9,1.9-1.85a.34.34,0,0,0,.08-.38.34.34,0,0,0-.31-.23l-2.53-.13L175.6,74a.34.34,0,0,0-.33-.2A.33.33,0,0,0,175,74l-1.1,2.6-2.65.13a.36.36,0,0,0-.32.23.34.34,0,0,0,.09.38Z"/><path d="M164.6,99.93a.53.53,0,0,0,.13.56l3.24,3.16-.75,4.95a.52.52,0,0,0,.23.51.54.54,0,0,0,.56,0l4-2.54,4,2.54a.6.6,0,0,0,.28.08.52.52,0,0,0,.29-.09.49.49,0,0,0,.22-.51l-.79-4.95,3.25-3.16a.52.52,0,0,0-.34-.89l-4.32-.21-2.11-4.49a.52.52,0,0,0-1,0l-1.88,4.47-4.54.21A.53.53,0,0,0,164.6,99.93Z"/><path d="M20.8,153.22,16.47,153l-2.1-4.49a.55.55,0,0,0-.48-.3.53.53,0,0,0-.47.32L11.53,153,7,153.22a.52.52,0,0,0-.34.89l3.25,3.16-.75,4.95a.54.54,0,0,0,.23.52.52.52,0,0,0,.56,0l4-2.54,4,2.54a.54.54,0,0,0,.28.08.49.49,0,0,0,.28-.09.52.52,0,0,0,.23-.51l-.79-4.95,3.24-3.16a.51.51,0,0,0-.33-.89Z"/><path d="M172.7,132.45a.27.27,0,0,0-.26-.18l-2-.1-1-2.11a.29.29,0,0,0-.26-.17.3.3,0,0,0-.26.18l-.89,2.1-2.12.1a.27.27,0,0,0-.26.18.3.3,0,0,0,.07.31l1.53,1.49-.36,2.32a.32.32,0,0,0,.13.29.29.29,0,0,0,.31,0l1.86-1.19,1.87,1.19a.26.26,0,0,0,.15,0,.29.29,0,0,0,.16,0,.32.32,0,0,0,.13-.29l-.38-2.33,1.53-1.48A.3.3,0,0,0,172.7,132.45Z"/><path d="M49.33,191.4l-3.93-.2-1.91-4.08a.56.56,0,0,0-.52-.32.53.53,0,0,0-.5.34l-1.72,4.06-4.12.2a.55.55,0,0,0-.5.35.57.57,0,0,0,.13.6l3,2.88-.68,4.52a.56.56,0,0,0,.25.55.55.55,0,0,0,.6,0L43,198l3.63,2.3a.53.53,0,0,0,.3.09.59.59,0,0,0,.31-.09.57.57,0,0,0,.24-.55l-.72-4.52,3-2.88a.55.55,0,0,0-.37-.95Z"/><path d="M35.06,169.1,32.54,169l-1.23-2.62a.36.36,0,0,0-.33-.21.39.39,0,0,0-.33.22L29.55,169l-2.64.13a.33.33,0,0,0-.32.23.36.36,0,0,0,.08.38l1.9,1.85-.44,2.9a.36.36,0,0,0,.55.35L31,173.33l2.33,1.49a.38.38,0,0,0,.19.05.35.35,0,0,0,.19-.06.36.36,0,0,0,.16-.35l-.46-2.9,1.9-1.85a.36.36,0,0,0,.08-.38A.33.33,0,0,0,35.06,169.1Z"/><path d="M98.88,9.05,98.13,14a.52.52,0,0,0,.79.51l4-2.53,4,2.53a.48.48,0,0,0,.28.08.51.51,0,0,0,.29-.08.52.52,0,0,0,.22-.52l-.79-4.94,3.25-3.17a.53.53,0,0,0,.12-.55.51.51,0,0,0-.46-.33l-4.33-.22L103.34.3a.53.53,0,0,0-.48-.3.52.52,0,0,0-.47.32l-1.88,4.46L96,5a.52.52,0,0,0-.46.33.53.53,0,0,0,.12.55Z"/><path d="M77.1,196.13,74,196l-1.52-3.24a.44.44,0,0,0-.41-.25.42.42,0,0,0-.4.27L70.3,196l-3.27.15a.43.43,0,0,0-.39.29.45.45,0,0,0,.1.47l2.35,2.28-.54,3.58a.44.44,0,0,0,.19.44.46.46,0,0,0,.48,0l2.85-1.83,2.87,1.83a.44.44,0,0,0,.24.07.4.4,0,0,0,.24-.07.44.44,0,0,0,.2-.44l-.57-3.58,2.34-2.28a.42.42,0,0,0,.1-.47A.43.43,0,0,0,77.1,196.13Z"/><path d="M113,227.94l-2-.1-1-2.11a.28.28,0,0,0-.27-.16.3.3,0,0,0-.26.17l-.88,2.1-2.13.1a.27.27,0,0,0-.25.18.28.28,0,0,0,.07.31l1.52,1.49-.35,2.33a.28.28,0,0,0,.12.28.31.31,0,0,0,.32,0l1.85-1.19,1.87,1.19a.3.3,0,0,0,.16.05.3.3,0,0,0,.28-.33l-.37-2.33,1.52-1.49a.3.3,0,0,0,.07-.31A.27.27,0,0,0,113,227.94Z"/><path d="M85.59,19.89l-.35,2.33a.27.27,0,0,0,.13.28.29.29,0,0,0,.31,0l1.85-1.19L89.4,22.5a.3.3,0,0,0,.16.05.27.27,0,0,0,.15-.05.28.28,0,0,0,.13-.29l-.37-2.32L91,18.4a.28.28,0,0,0,.07-.31.28.28,0,0,0-.25-.18l-2-.1-1-2.11a.28.28,0,0,0-.27-.16.27.27,0,0,0-.25.17l-.89,2.1-2.13.1a.28.28,0,0,0-.25.18.28.28,0,0,0,.07.31Z"/><path d="M203.29,262.59c-5.13-3.06-10.35-4.42-16.16-7-5.24-2.34-15.65-7.6-17.66-13-2.84-7.65,1.46-16.11,4.67-22.66,2.38-4.87,6-9.8,6.66-15,1-8.14-3.52-10.74-6.33-15.33-1.71-2.8-4.18-6.22-4.88-8.78-.48-1.75-.59-4.53-1.18-5.88-6.8-10.25-23.83-5.9-32.89-2.46,1.23-1.79,4.18-5.17,5.51-6.9a49.84,49.84,0,0,0,12.44-19.87c.85-2.44,1.56-4.95,2.18-7.5a116.19,116.19,0,0,0-1.79-62.42,107.75,107.75,0,0,0-4.64-12c-10.07-27.09-41.85-41-69.54-33.94a61.47,61.47,0,0,0-12.46,4,56.78,56.78,0,0,0-11.36,6.76,51.72,51.72,0,0,0-10.63,9.07C30.16,66.61,27.51,91.85,27.78,114.09q.09,4,.52,8a83.5,83.5,0,0,0,9.46,31.15q1.76,3.12,3.81,6.08a67.75,67.75,0,0,0,8.35,9.69,71.12,71.12,0,0,0,10,8c15.63,10,35.78,13.09,54.39,9.22A150.5,150.5,0,0,0,112,212.67c0,7.75,7,1.54,10.47-1.08,3.14-2.05,7.45-3,11.94-3.6s9.17-.7,13-1.05c1.58-1.58,1-2.36-.66-4.67a111.49,111.49,0,0,1-7.2-11.62l-3.35-6.07c-1.06-1.82-3.38-4.93-2.61-4.93a19.65,19.65,0,0,1,13.94-8.18c5.73-.79,12.41-.49,17.07,2.76.9.63,1.45,7.61,4.18,11,5,6.09,9.34,11.49,7.62,18.42-1.1,4.43-4.35,9.31-6.66,14-2.39,4.84-4.58,9.82-5,15.66-.71,9.9,4.4,15.27,9.66,19,9.51,6.72,15.95,8.65,28,12.82C204.34,264.48,204.57,263.36,203.29,262.59ZM115.61,144.86c-9.09,16.47-29.23,12.18-46.86,11.2-2.82.72-2.47-16.71,2.06-16.71,11.92,5.67,32.32,3.22,32.32-8.8,0-14.72-32.13-9.88-31.18-15.24s5.43-43.06,7.77-49.17c13.06-1.65,28.68-1,41.25.84,1.55,1.56.48,16.36-.84,17.68-7.17,1.34-15.08-2.17-21.4-2.3-1.53,0-7-.2-7-.2s-.32,1.83-1.22,7.27-1.76,10.66-2.16,13.94C108.16,103.07,129.94,118.9,115.61,144.86Z"/><path d="M118.69,70a.32.32,0,0,1,.1.14,6.27,6.27,0,0,1,.29,2.34,38.27,38.27,0,0,1-1.4,9.82.36.36,0,0,0,.19.45l.13,0a.34.34,0,0,0,.32-.21,39,39,0,0,0,1.45-10.08,10.88,10.88,0,0,0-.14-2c-.12-.52-.24-.94-.67-1.16-3.42-1.47-10.82-1.85-18.14-1.85-9.37,0-18.53.66-18.53.66a.35.35,0,1,0,0,.69s9.14-.66,18.48-.66C108.09,68.2,115.52,68.63,118.69,70Z"/><path d="M89.88,81.86a.36.36,0,0,0-.39.3L86,105.77a.34.34,0,0,0,.08.29.36.36,0,0,0,.28.11s.38,0,1.06,0c4.21,0,19.64.87,26.73,12.76a21,21,0,0,1,3.08,11c0,10.07-7.12,19.16-12.84,22a.35.35,0,0,0-.16.46.34.34,0,0,0,.31.2.26.26,0,0,0,.15,0c6-3,13.21-12.18,13.23-22.58a21.83,21.83,0,0,0-3.17-11.32c-7.37-12.27-23.05-13.09-27.33-13.09h-.68l3.39-23.2A.35.35,0,0,0,89.88,81.86Z"/></svg>