<svg id="Layer_1" data-name="Layer 1" xmlns="http://www.w3.org/2000/svg" viewBox="0 0 281.94 281.94"><title>6</title><path d="M172,179.54l-4.07-.19-2-4.22a.5.5,0,0,0-.47-.3.53.53,0,0,0-.47.32l-1.77,4.2-4.27.19a.55.55,0,0,0-.46.34.55.55,0,0,0,.12.56l3.06,3-.71,4.66a.52.52,0,0,0,.23.51.53.53,0,0,0,.57,0l3.71-2.38,3.75,2.38a.47.47,0,0,0,.28.09.49.49,0,0,0,.28-.09.52.52,0,0,0,.23-.52l-.74-4.65,3.05-3a.55.55,0,0,0,.12-.56A.52.52,0,0,0,172,179.54Z"/><path d="M134.64,18.52l-3-.15-1.44-3.08a.42.42,0,0,0-.39-.25.43.43,0,0,0-.38.26l-1.3,3.07-3.11.15a.41.41,0,0,0-.38.27.44.44,0,0,0,.1.45L127,21.41l-.52,3.41a.44.44,0,0,0,.19.42.43.43,0,0,0,.46,0l2.71-1.74,2.74,1.74a.41.41,0,0,0,.22.07.48.48,0,0,0,.23-.07.44.44,0,0,0,.19-.42l-.54-3.41,2.23-2.17a.44.44,0,0,0,.1-.45A.41.41,0,0,0,134.64,18.52Z"/><path d="M62.53,25.71a.45.45,0,0,0,.26-.08.47.47,0,0,0,.21-.47l-.84-5.28,3.46-3.38a.47.47,0,0,0-.3-.81l-4.63-.23-2.25-4.79a.47.47,0,0,0-.86,0l-2,4.78-4.86.23a.47.47,0,0,0-.41.3.46.46,0,0,0,.11.51l3.47,3.38-.81,5.28a.51.51,0,0,0,.21.47.47.47,0,0,0,.51,0L58,22.92l4.27,2.71A.49.49,0,0,0,62.53,25.71Z"/><path d="M28.75,63.8l-3.63-.18-1.76-3.77a.52.52,0,0,0-.48-.29.5.5,0,0,0-.47.31l-1.58,3.75L17,63.8a.51.51,0,0,0-.33.89l2.72,2.66-.63,4.16a.52.52,0,0,0,.79.51l3.32-2.12L26.23,72a.57.57,0,0,0,.28.08A.52.52,0,0,0,26.8,72,.5.5,0,0,0,27,71.5l-.66-4.16,2.73-2.65a.55.55,0,0,0,.12-.56A.53.53,0,0,0,28.75,63.8Z"/><path d="M136.64,206.15l-4.16-.2-2-4.31a.44.44,0,0,0-.39-.25.46.46,0,0,0-.39.26l-1.81,4.3-4.36.2a.43.43,0,0,0-.38.28.42.42,0,0,0,.1.45l3.12,3-.72,4.75a.42.42,0,0,0,.65.41l3.79-2.44,3.84,2.45a.46.46,0,0,0,.23.06.39.39,0,0,0,.23-.07.43.43,0,0,0,.19-.42l-.76-4.74,3.11-3a.41.41,0,0,0,.11-.45A.43.43,0,0,0,136.64,206.15Z"/><path d="M169.22,29.81a.52.52,0,0,0-.46-.34l-4.32-.21-2.11-4.48a.52.52,0,0,0-1,0l-1.88,4.46-4.54.21a.52.52,0,0,0-.46.34.53.53,0,0,0,.12.55l3.25,3.17-.75,4.95a.52.52,0,0,0,.79.51l4-2.53,4,2.53a.48.48,0,0,0,.28.08.6.6,0,0,0,.29-.08.53.53,0,0,0,.22-.52l-.79-4.94,3.25-3.17A.53.53,0,0,0,169.22,29.81Z"/><path d="M89.89,9.34l-2-.1-1-2.1a.28.28,0,0,0-.52,0l-.89,2.09-2.12.1a.29.29,0,0,0-.26.19.3.3,0,0,0,.07.31l1.53,1.48-.36,2.33a.32.32,0,0,0,.13.29.29.29,0,0,0,.31,0l1.86-1.19,1.87,1.19a.26.26,0,0,0,.15,0,.25.25,0,0,0,.16-.05.28.28,0,0,0,.12-.28l-.37-2.33,1.53-1.48a.29.29,0,0,0-.19-.5Z"/><path d="M84.6,225.8l-2.52-.12-1.23-2.62a.36.36,0,0,0-.33-.21.39.39,0,0,0-.33.22l-1.1,2.61-2.64.12a.36.36,0,0,0-.32.23.37.37,0,0,0,.08.39l1.9,1.85-.44,2.9a.35.35,0,0,0,.16.35.35.35,0,0,0,.39,0L80.53,230l2.33,1.48a.31.31,0,0,0,.19.06.35.35,0,0,0,.19-.06.37.37,0,0,0,.16-.36l-.46-2.89,1.9-1.85a.37.37,0,0,0,.08-.39A.36.36,0,0,0,84.6,225.8Z"/><path d="M172.45,58.45l-2-.1-1-2.1a.28.28,0,0,0-.27-.17.29.29,0,0,0-.26.18L168,58.35l-2.13.1a.3.3,0,0,0-.19.5l1.53,1.48-.35,2.33a.29.29,0,0,0,.12.29.31.31,0,0,0,.32,0l1.85-1.19,1.87,1.19a.28.28,0,0,0,.15,0,.22.22,0,0,0,.16-.05.27.27,0,0,0,.13-.28l-.37-2.33L172.64,59a.29.29,0,0,0-.19-.5Z"/><path d="M32.83,37.71l-2-.1-1-2.11a.29.29,0,0,0-.27-.16.3.3,0,0,0-.26.17l-.88,2.1-2.13.1a.28.28,0,0,0-.25.18.27.27,0,0,0,.06.31l1.53,1.49L27.27,42a.28.28,0,0,0,.12.28.31.31,0,0,0,.32,0l1.85-1.19,1.87,1.19a.3.3,0,0,0,.15.05.3.3,0,0,0,.16-.05.27.27,0,0,0,.13-.28l-.37-2.33L33,38.2a.3.3,0,0,0,.07-.31A.28.28,0,0,0,32.83,37.71Z"/><path d="M152.22,7l-2-.1-1-2.11a.28.28,0,0,0-.27-.16.27.27,0,0,0-.25.17l-.89,2.1-2.13.1a.28.28,0,0,0-.25.18.28.28,0,0,0,.07.31L147,8.93l-.35,2.32a.28.28,0,0,0,.13.29.29.29,0,0,0,.31,0l1.85-1.19,1.87,1.19a.3.3,0,0,0,.16.05.27.27,0,0,0,.15-.05.28.28,0,0,0,.13-.29l-.37-2.32,1.52-1.49a.3.3,0,0,0,.07-.31A.28.28,0,0,0,152.22,7Z"/><path d="M140.85,181.33l-2-.1-1-2.11a.27.27,0,0,0-.26-.16.28.28,0,0,0-.26.17l-.89,2.1-2.12.1a.27.27,0,0,0-.26.18.3.3,0,0,0,.07.31l1.52,1.49-.35,2.32a.28.28,0,0,0,.13.29.29.29,0,0,0,.31,0l1.85-1.19,1.87,1.19a.34.34,0,0,0,.32,0,.29.29,0,0,0,.12-.29l-.37-2.33,1.53-1.48a.27.27,0,0,0,.06-.31A.27.27,0,0,0,140.85,181.33Z"/><path d="M16.94,97.65l-5.21-.25L9.2,92a.53.53,0,0,0-.49-.3.55.55,0,0,0-.48.32L6,97.4l-5.46.25A.55.55,0,0,0,0,98a.55.55,0,0,0,.13.57l3.9,3.8-.9,5.94a.53.53,0,0,0,.81.53l4.75-3,4.81,3a.46.46,0,0,0,.28.08.6.6,0,0,0,.29-.08.55.55,0,0,0,.23-.53l-.95-5.94,3.9-3.8a.53.53,0,0,0-.34-.91Z"/><path d="M18.18,130.8l-2.53-.13-1.23-2.62a.34.34,0,0,0-.33-.2.35.35,0,0,0-.32.22l-1.1,2.6L10,130.8a.36.36,0,0,0-.32.23.34.34,0,0,0,.09.38l1.9,1.85-.44,2.9a.36.36,0,0,0,.15.36.39.39,0,0,0,.39,0L14.1,135l2.33,1.48a.41.41,0,0,0,.19,0,.36.36,0,0,0,.2-.06.34.34,0,0,0,.15-.35l-.46-2.9,1.9-1.85a.36.36,0,0,0,.08-.38A.34.34,0,0,0,18.18,130.8Z"/><path d="M183.2,87l-2.52-.12-1.23-2.63a.35.35,0,0,0-.33-.2.37.37,0,0,0-.33.22l-1.1,2.61-2.64.12a.36.36,0,0,0-.32.23.36.36,0,0,0,.08.38l1.9,1.85-.44,2.9a.37.37,0,0,0,.16.36.39.39,0,0,0,.39,0l2.31-1.48,2.32,1.48a.35.35,0,0,0,.2.05.32.32,0,0,0,.19-.05.37.37,0,0,0,.16-.36l-.46-2.9,1.9-1.85a.36.36,0,0,0,.08-.38A.36.36,0,0,0,183.2,87Z"/><path d="M184.17,116.84a.51.51,0,0,0-.46-.34l-4.33-.21-2.1-4.49a.52.52,0,0,0-.48-.29.51.51,0,0,0-.47.31l-1.88,4.47-4.54.21a.52.52,0,0,0-.46.34.53.53,0,0,0,.12.55l3.25,3.17-.75,4.94a.53.53,0,0,0,.23.52.52.52,0,0,0,.56,0l3.95-2.54,4,2.54a.57.57,0,0,0,.28.08.52.52,0,0,0,.29-.09.51.51,0,0,0,.22-.51l-.79-5,3.25-3.16A.53.53,0,0,0,184.17,116.84Z"/><path d="M15.08,166a.55.55,0,0,0-.46-.34l-4.33-.21-2.1-4.48a.53.53,0,0,0-.48-.3.51.51,0,0,0-.47.32l-1.89,4.46-4.53.21a.51.51,0,0,0-.46.34.49.49,0,0,0,.12.55l3.25,3.17L3,174.63a.52.52,0,0,0,.79.51l4-2.53,4,2.53a.46.46,0,0,0,.28.08.51.51,0,0,0,.51-.6l-.79-4.94L15,166.51A.51.51,0,0,0,15.08,166Z"/><path d="M167.64,148.67l-2-.1-1-2.11a.27.27,0,0,0-.26-.16.3.3,0,0,0-.27.17l-.88,2.1-2.13.1a.28.28,0,0,0-.25.18.28.28,0,0,0,.07.31l1.52,1.49-.35,2.32a.28.28,0,0,0,.13.29.29.29,0,0,0,.31,0l1.85-1.19,1.87,1.19a.29.29,0,0,0,.16,0,.26.26,0,0,0,.15,0,.28.28,0,0,0,.13-.29l-.37-2.32,1.52-1.49a.28.28,0,0,0,.07-.31A.28.28,0,0,0,167.64,148.67Z"/><path d="M39.71,200.29l-3.93-.19L33.86,196a.55.55,0,0,0-.51-.32.59.59,0,0,0-.51.34l-1.71,4.07-4.12.19a.56.56,0,0,0-.37,1l3,2.88-.68,4.51a.53.53,0,0,0,.24.55.58.58,0,0,0,.61,0l3.59-2.31L37,209.2a.61.61,0,0,0,.3.08.56.56,0,0,0,.55-.64l-.72-4.51,3-2.89a.55.55,0,0,0-.36-1Z"/><path d="M40.17,173.51l-2.52-.13-1.23-2.62a.36.36,0,0,0-.33-.21.38.38,0,0,0-.33.22l-1.1,2.61-2.65.13a.35.35,0,0,0-.32.23.38.38,0,0,0,.09.38l1.9,1.85-.44,2.9a.36.36,0,0,0,.55.35l2.3-1.48,2.33,1.48a.35.35,0,0,0,.19.06.36.36,0,0,0,.36-.41l-.46-2.9,1.89-1.85a.35.35,0,0,0-.23-.61Z"/><path d="M115.28,5.33a.5.5,0,0,0-.46-.33l-4.32-.22L108.39.3a.51.51,0,0,0-.94,0l-1.89,4.46L101,5a.52.52,0,0,0-.47.33.51.51,0,0,0,.13.55l3.24,3.17L103.18,14a.52.52,0,0,0,.23.51.53.53,0,0,0,.57,0L107.92,12l4,2.53a.45.45,0,0,0,.27.08.51.51,0,0,0,.29-.08.5.5,0,0,0,.22-.52l-.78-4.94,3.24-3.17A.49.49,0,0,0,115.28,5.33Z"/><path d="M60.6,221.21l-3.12-.16L56,217.81a.45.45,0,0,0-.4-.25.43.43,0,0,0-.4.27l-1.36,3.22-3.27.16a.45.45,0,0,0-.4.28.44.44,0,0,0,.11.47l2.34,2.29L52,227.83a.43.43,0,0,0,.2.43.44.44,0,0,0,.48,0l2.85-1.83,2.87,1.83a.51.51,0,0,0,.24.07.43.43,0,0,0,.24-.08.42.42,0,0,0,.19-.44l-.57-3.57L60.89,222a.45.45,0,0,0,.1-.47A.42.42,0,0,0,60.6,221.21Z"/><path d="M101.38,112.71c-2.21-.33-6.54,1.12-8.86,3.35-6.64,6.41-6,22.72,6.15,22.46,6.27-.13,9.76-4,10.63-10.23C110.37,120.68,108.38,113.79,101.38,112.71Z"/><path d="M160.25,83.66a60.91,60.91,0,0,0-1.65-7.54c-9.1-31.88-43-53.23-74.79-43.45a67.76,67.76,0,0,0-6.94,2.27A63.61,63.61,0,0,0,53,51.13c-1.4,1.55-2.71,3.18-4,4.87a79.46,79.46,0,0,0-6.67,10.82Q41.24,69,40.2,71.28C26.14,100.94,28.9,139,53.61,162.56q2.46,2.73,4.69,4.87c6,5.72,10.91,8.51,10.21,8.44-3.2,6.51-7.46,10.81-12.19,16.63-3.75,4.63-10.23,11-5,16.05,11.82-2.83,22.79,1.9,32.39,4.46,2.7,1.44,6.24,5.49,8.91,4.16,3.2-1.07,2.38-3.08,2.38-4.46-.42-9.63-3.33-19.78-3-28.23a9.1,9.1,0,0,1,3.86.3,9.78,9.78,0,0,1,3.48,1.7c2.17,2.26,4.94,4.33,6.44,7.14a14.24,14.24,0,0,1,1.67,3.93c2,8.74-6.15,13.66-6.54,21.1-.18,3.55.58,8.13,2.38,11,2.9,4.62,7.77,5.67,9.8,10.11,6.05,13.21-2,27,3.57,42.19,0-2.7-.42-5.15-.6-7.73-.5-7.56,2-15,1.79-22-.1-4-1.61-8.45-2.38-11.89-1.15-5.14-6.7-7.19-9.8-11-1.65-4.7-2.47-8.81-1.19-13.37,1.32-4.72,5.83-7.87,6.53-11.59a12.58,12.58,0,0,0-.14-5.34c-1.75-6.86-7.28-11-12-15.75,2.21-.61,4.32-1.26,6.31-1.92C148.5,174.22,164.4,122.37,160.25,83.66ZM97.42,148.81A27,27,0,0,1,84.77,148c-5.58-1.89-10.67-9.87-11.8-15.46-1.83-9.1-2-19.88-1-30.24.4-4.28.07-11.1,7.71-24.74C85.88,66.53,97.48,65,104.88,65.76c4.54.48,13.17,5.21,13.17,8.41,0,2.45-2.59,5.45-5.12,5.85-3.29.52-5.94-3.62-12.36-2.85-4.51.55-8,.89-11.09,10.25-1,3-2.25,13.07-2,16a20.38,20.38,0,0,0,.53,3,24.49,24.49,0,0,1,23.4-1.67c8.09,3.64,10.09,13,8.42,24.7C119.37,132.93,117.62,145.62,97.42,148.81Z"/><path d="M76.91,133.91a70.17,70.17,0,0,1-2.4-19.14c0-13.06,2.76-26.08,6.13-32.81a28.12,28.12,0,0,1,7.76-10,15.54,15.54,0,0,1,2.7-1.66,5.87,5.87,0,0,1,1-.38.35.35,0,0,0-.17-.67h0c-.07,0-6.53,1.61-11.93,12.44-3.44,6.88-6.19,20-6.2,33.11a70.93,70.93,0,0,0,2.43,19.33c1.75,6.1,4.46,8.62,10,11.92a.31.31,0,0,0,.18,0,.37.37,0,0,0,.3-.16.34.34,0,0,0-.12-.48C81.1,142.11,78.65,139.86,76.91,133.91Z"/><path d="M105.24,110.9a.34.34,0,0,0-.42.24.34.34,0,0,0,.24.43h0a4,4,0,0,1,.42.16A8.85,8.85,0,0,1,109.6,116a21.36,21.36,0,0,1,2,9.08,18.15,18.15,0,0,1-1.21,6.71.35.35,0,0,0,.19.45l.13,0A.33.33,0,0,0,111,132a18.75,18.75,0,0,0,1.26-7,22,22,0,0,0-2-9.4C108.24,111.75,105.3,110.91,105.24,110.9Z"/></svg>