<svg id="Layer_1" data-name="Layer 1" xmlns="http://www.w3.org/2000/svg" viewBox="0 0 32 32"><defs><style>.cls-1{fill:#fff;}</style></defs><title>edit</title><circle cx="16" cy="16" r="16"/><path class="cls-1" d="M23.93,10,22,8.07a1.94,1.94,0,0,0-2.73,0L18.12,9.21l4.67,4.67,1.14-1.14A1.94,1.94,0,0,0,23.93,10Z"/><path class="cls-1" d="M7.51,24.16a.3.3,0,0,0,.33.33l1.61-.19L7.7,22.55Z"/><path class="cls-1" d="M7.93,20.6l-.15,1.29,2.33,2.33,1.29-.15A3.93,3.93,0,0,0,13.67,23L9,18.33A3.93,3.93,0,0,0,7.93,20.6Z"/><rect class="cls-1" x="10.42" y="12.8" width="10.96" height="6.61" transform="translate(-6.73 15.96) rotate(-45)"/></svg>