<?xml version="1.0" encoding="utf-8"?>
<!-- Generator: Adobe Illustrator 22.1.0, SVG Export Plug-In . SVG Version: 6.00 Build 0)  -->
<svg version="1.1" id="Layer_1" xmlns="http://www.w3.org/2000/svg" xmlns:xlink="http://www.w3.org/1999/xlink" x="0px" y="0px"
	 viewBox="0 0 32 32" style="enable-background:new 0 0 32 32;" xml:space="preserve">
<style type="text/css">
	.st0{fill:#FFFFFF;}
</style>
<g>
	<circle class="st0" cx="16" cy="16" r="16"/>
</g>
<g>
	<path d="M27.5,7.5v5.4h-5.4V11h2.2c-1.7-2.9-4.8-4.7-8.3-4.7c-5.3,0-9.7,4.4-9.7,9.7H4.5c0-3.1,1.2-6,3.4-8.1s5-3.4,8.1-3.4
		c2.4,0,4.6,0.7,6.5,2.1c1.3,0.9,2.3,2,3.2,3.2V7.5H27.5z"/>
	<path d="M16,25.7c-3.5,0-6.6-1.8-8.3-4.7h2.2v-1.8H4.5v5.4h1.8v-2.4c0.8,1.3,1.9,2.4,3.2,3.3c1.9,1.4,4.2,2.1,6.6,2.1
		c3.1,0,6-1.2,8.1-3.4s3.4-5,3.4-8.1h-1.8C25.7,21.3,21.3,25.7,16,25.7z"/>
</g>
</svg>
