<svg id="Layer_1" data-name="Layer 1" xmlns="http://www.w3.org/2000/svg" viewBox="0 0 32 32"><defs><style>.cls-1{fill:#ee463f;}.cls-2{fill:#fff;}</style></defs><title>trash</title><circle class="cls-1" cx="16" cy="16" r="16"/><path class="cls-2" d="M23.92,10.27a.35.35,0,0,0-.26-.11H20.14l-.8-1.9a1.57,1.57,0,0,0-.62-.72,1.63,1.63,0,0,0-.9-.29H14.18a1.63,1.63,0,0,0-.9.29,1.57,1.57,0,0,0-.62.72l-.8,1.9H8.34a.35.35,0,0,0-.26.11.34.34,0,0,0-.1.26v.73a.34.34,0,0,0,.36.36h1.1V22.47A2.51,2.51,0,0,0,10,24.09a1.62,1.62,0,0,0,1.29.66h9.48A1.6,1.6,0,0,0,22,24.06a2.55,2.55,0,0,0,.53-1.63V11.62h1.1a.34.34,0,0,0,.36-.36v-.73A.34.34,0,0,0,23.92,10.27ZM14,8.83a.26.26,0,0,1,.19-.12h3.61a.3.3,0,0,1,.2.12l.54,1.33h-5.1Zm7.1,13.6a1.34,1.34,0,0,1-.08.46,1.22,1.22,0,0,1-.17.31q-.09.09-.12.09H11.26s-.06,0-.12-.09a1.22,1.22,0,0,1-.17-.31,1.34,1.34,0,0,1-.08-.46V11.62H21.11V22.43Z"/><path class="cls-2" d="M12.72,21.11h.73a.36.36,0,0,0,.26-.11.34.34,0,0,0,.1-.26V14.18a.36.36,0,0,0-.1-.27.4.4,0,0,0-.26-.1h-.73a.36.36,0,0,0-.26.1.37.37,0,0,0-.11.27v6.56a.38.38,0,0,0,.37.37Z"/><path class="cls-2" d="M15.64,21.11h.72a.37.37,0,0,0,.27-.11.34.34,0,0,0,.1-.26V14.18a.36.36,0,0,0-.1-.27.41.41,0,0,0-.27-.1h-.72a.41.41,0,0,0-.27.1.36.36,0,0,0-.1.27v6.56a.33.33,0,0,0,.1.26A.37.37,0,0,0,15.64,21.11Z"/><path class="cls-2" d="M18.55,21.11h.73a.33.33,0,0,0,.26-.11.35.35,0,0,0,.11-.26V14.18a.37.37,0,0,0-.11-.27.36.36,0,0,0-.26-.1h-.73a.4.4,0,0,0-.26.1.36.36,0,0,0-.1.27v6.56a.33.33,0,0,0,.1.26A.36.36,0,0,0,18.55,21.11Z"/></svg>