<svg id="Word_art" data-name="Word art" xmlns="http://www.w3.org/2000/svg" viewBox="0 0 1332.82 1213"><title>2</title><path d="M711.63,1020c-15.8,16.8-45.6,56.6-77.4,26.7-25-23.6-9.1-55.8,6.1-71.9,40.1-42.5,81.2-28.4,93.9-16.4C745,968.6,750.33,978.9,711.63,1020Z" fill="#e65661"/><path d="M427.43,223.6c13-40.6,39.8-95.5,69.5-86s19.6,69.7,6.6,110.3c-13.2,41.1-39.7,97.2-70,87.5S414.23,264.7,427.43,223.6Z" fill="#e65661"/><path d="M1326.23,283.8c-20.1-111-84.3-198.6-180.7-246.7C1096.13,12.5,1044,0,990.63,0c-68.8,0-136.4,21.3-195.4,61.5-38.5,26.2-75.4,68.8-109.7,126.5-7.2,12.1-13.6,23.6-19.1,34.2-5.5-10.6-11.9-22.1-19.1-34.2C613,130.3,576,87.8,537.63,61.5,478.63,21.2,411,0,342.23,0c-53.3,0-105.4,12.5-154.9,37.1C90.93,85.2,26.73,172.8,6.63,283.8-5.17,349-1.17,419,18.33,486.3c19.7,67.9,54.1,129.6,99.5,178.4,35.9,38.6,76.4,72.1,115.6,104.6,20.5,17,41.7,34.6,61.7,52.5,43.3,38.7,86.9,78.8,129.1,117.5,16.5,15.1,33,30.3,49.5,45.4h0l10.6,11.2c57.4,60.7,111.7,118.1,158.5,184.2l23.3,32.9.2-.3.2.3,23.3-32.9c46.8-66,101-123.4,158.5-184.1l10.6-11.2.1-.1q24.75-22.65,49.5-45.4c42.2-38.7,85.8-78.7,129.1-117.5,20-17.9,41.2-35.5,61.7-52.5,39.1-32.5,79.6-66,115.6-104.6,45.4-48.8,79.9-110.5,99.5-178.4C1333.93,419,1338,349,1326.23,283.8ZM703.43,512.9a326.7,326.7,0,0,0,37.3,50.2c-13,18.7-26.1,37.3-39,56.1,2.3-16.2,6.7-43.8-.6-48.1-8.7-5.2-43.9,51-60.2,78.5-34.1,57.6-34.8,106-34.4,128.8-.7,1.5-1.4,3-2.2,4.5q-40.05-10.95-81-18c-4.6-.8-9.2-1.5-13.7-2.2,3.2-5.8,6.3-11.7,9.5-17.5a393.26,393.26,0,0,0,55-52.3c50.7-58.4,84.8-112.2,91.4-123.2,5.3-9,9.2-13.9,5.6-16-7.6-4.5-46.5,16.8-66.8,27.2,15.6-35.2,29.3-71.2,42.3-107.5,6.2-17.2,12.3-34.4,18.8-51.4A337.5,337.5,0,0,0,703.43,512.9ZM773.83,659c2.4,1.4,8.5,1.8,17,2.3,8.6.9,18.8,2.7,28.7,8.4,20.9,12,34.7,31.5,25,67.5q-12.75,25-26.6,49.6c-12.4,22.1-25.1,43.9-37.9,65.8-19.9-10.7-40.4-20.4-61.1-29.4,1.8-1.5,3.3-2.7,2.9-2.9,20.5-19.4,50.7-48.7,61.6-68.4,22-39.8,18.5-52.3,3.8-60.8-30.7-17.7-53.5,22.1-63.5,40.3-15.5,28.1-31.3,59-39.4,77.7q-27.9-10.65-56.4-19.3c36.1-74.1,83-141.4,130-208.9a340.35,340.35,0,0,0,43.7,35.7c-11,9.9-22.8,21.7-28.3,31.6C771.43,651.2,768.73,656.1,773.83,659ZM586.93,233.7a647,647,0,0,0,7.7-73.5c32.9,45.2,56.1,93.6,66.4,117.5a347.74,347.74,0,0,0-4.9,36.7,332.61,332.61,0,0,0,1.3,63.9,18.29,18.29,0,0,0-1.8,3.4c-20.1,49.3-36.4,100-55.8,149.5s-43.8,96.7-69.2,143.3c-14.3,26.4-28.9,52.5-43.2,78.9a12.24,12.24,0,0,0-1.4,3.9c-.1.1-.1.2-.2.3a10.09,10.09,0,0,0-.7,1.5c.2,0,.5.1.7.1v.2c-7.2-.9-14.4-1.7-21.6-2.5,4.5-21.4,12.1-70.6.9-148.9-1.8-9.6-12-74.4-21.8-77.2-7.7-2.2-13.1,32.7-14.4,39-14,83.3-13.2,160.7-14.6,183.1-21.1-1.1-42.1-1.6-63.2-1.4,2.9-28,5.4-56.1,7.2-84.3,4.4-66.2,6.1-132.6,4.4-199q-.6-23.55-1.8-47.1c10.8,13.2,24.6,24,41.1,29,20.2,6.2,41.3,1.9,59.9-7.2,2.3-1.1,4.5-2.3,6.7-3.5,7.1,20.4,23.6,68.2,41.7,162.3,10.2-1.5,36.5-159.4,57.2-292.4A385,385,0,0,0,586.93,233.7ZM483.73,69a76.75,76.75,0,0,1,23.4,7.1c4.8,2.9,9.5,6,14.2,9.2a243.45,243.45,0,0,1,33.1,27.6,83.86,83.86,0,0,1,5.7,8c14.2,23.7,9.8,51.9,6.7,79.4-8.6,76-32.1,156.7-93.7,207.1-8.9,7.3-19.7,14.2-30.7,18.3l-1.8.6a62.77,62.77,0,0,1-11.8,2.7,50.14,50.14,0,0,1-32.5-7.7,61.57,61.57,0,0,1-11.4-9.1c-22.2-22.2-30.8-56.2-31.7-86.4-1.7-62.4,17.2-127.3,45.6-182.9a367.44,367.44,0,0,1,24.2-41c1.7-2.5,3.4-4.9,5.1-7.3C442,78.2,461.53,66.5,483.73,69ZM339.23,553.8c-1.1,64.6-4.9,129.3-11.6,193.6-.2,1.6-.3,3.1-.5,4.7-.8,8-1.7,16.1-2.7,24.1-1.2,9.9-2.4,19.9-3.7,29.8-2.1-1.9-4.3-3.8-6.4-5.7q-12.6-11.25-25.5-22.2-13.05-11.1-26.1-21.9c-19.7-16.4-39.6-32.7-59-49.5,16.2-64.6,64.2-254.4,86.8-403.4,2.2-14.4,15.9-98.5,5.7-100.1-9-1.4-31.1,64.6-36.7,80.6C212,420.3,212.83,486.3,192,483.1c-26.1-4-6.1-66.8-12.4-211.4-.8-15.5-.6-86.3-10.2-87.8-10.3-1.6-22.7,82.7-24.9,97.1-19.9,130.4-13.3,283.5-8.9,360.4-149.7-165.1-154.1-469.5,64.6-578.5,6.2-3.1,12.4-5.9,18.7-8.6,7.7,83.6,7.3,173.9,12.3,174.7,4.7.7,14.1-49,60.5-132.4,10.4-18.6,21.5-44.1,31.9-67.2a310.06,310.06,0,0,1,116.6,15.4c-20.4,18.8-37,42.1-51,65.9-35,59.8-57.8,130.6-59.8,200.1a222.78,222.78,0,0,0,3.1,45.3h0C338.43,421.9,340.23,487.9,339.23,553.8Zm102.5,362.3q-44-40.35-88.2-80.5a41.85,41.85,0,0,1-6.4-11.3c-5.1-13.7-1.7-28.7,9.5-38.3,11.3-9.8,27.5-10.4,42.3-9.8a9.15,9.15,0,0,1,1.6.1c3.1.1,6.1.3,9,.4,4.4.2,8.8.4,13.2.7,23.6,1.5,47.1,3.8,70.5,7.1,5.9.8,11.7,1.8,17.5,2.7,7.4,2,14.5,4.9,20.3,9.6a26.17,26.17,0,0,1,9.7,15.5,106.17,106.17,0,0,1-2.4,19.8c-.7,3.2-1.6,6.4-2.6,9.5-.4,1.1-.7,2.1-1.1,3.2-2.3,4.9-4.9,9.5-7.3,13.6-1.3,2.1-2.6,4.2-4.1,6.4a118,118,0,0,1-9.4,12,18.48,18.48,0,0,1-1.4,1.4,200.33,200.33,0,0,1-15.2,13.9c-11.1,9.3-23.3,17.2-36.8,22.5A84.8,84.8,0,0,1,441.73,916.1Zm96.1,94.3c-14.4-15.4-29.1-30.8-43.8-46.4a6,6,0,0,1-.8-.8L465.63,938a162.92,162.92,0,0,0,43.2-24.6c22.9-18.1,42.8-40.4,51.1-69,4.4-15.1,5.4-31.1,4.6-46.8a843.44,843.44,0,0,1,119.3,36.8c8.8,3.5,17.5,7.1,26.2,10.9-12.8,4-25.7,7.8-38.2,12.7-21,8.2-41.9,19.1-60,32.5-19.2,14.2-37.1,31.8-49.4,52.4-11.7,19.8-19.5,42.2-24.1,64.6C538.13,1008.6,538,1009.5,537.83,1010.4Zm301.8-47.1a6,6,0,0,0-.8.8c-61.4,65-121.3,127.1-172.4,199.3a3,3,0,0,1-.3-.4h0c-30.9-43.6-65-83.5-100.7-122.6a79.34,79.34,0,0,1-4.8-21.8c3.8-20.7,10.1-40.8,19.9-58.8a128.06,128.06,0,0,1,7.2-11.8,118.21,118.21,0,0,1,8.2-9.8c4.6-5.1,9.4-10,14.5-14.7,48.9-35.4,110.8-19.1,134,2.8,6.2,5.8,7.6,17.3,11.7,21.2,5.9,5.5,14.7-2,18.2-5.8,14.3-15.1,19.9-37,25.8-49.8A422.11,422.11,0,0,1,853,929.4c4.1,3.4,8.1,7,12,10.5C856.63,947.7,848.13,955.5,839.63,963.3ZM1193.93,645c-53.3,57.3-117.2,103.2-175.4,155.2-5.1,4.6-10.3,9.2-15.4,13.8,2.4-7.4,4.3-14.7,5.7-19.9,3.6-13.7,5.1-28.2.2-41.7-8.7-24-35.4-43-59.9-27.9-14.2,8.7-12.5,24.3-7.6,38,13.9,38.4,26,66.5-.9,103.9-.1.2-.3.4-.4.6-9.8,10-19.71,20-29.5,30C897.52,905.4,879,909.2,865,908.5a515.4,515.4,0,0,0-59.4-41.3c.1-3.8.6-8.5.7-12,12-20.4,23.91-40.9,35.41-61.6-2.6,18.3-1.6,43.6,22.09,57.6,11.1,6.7,28.3,7.5,39.41-9.7,14-21.8-13.21-52-22.3-69.9a89.45,89.45,0,0,1-9.8-34c11.1-22.7,21.2-45.9,30.7-69.3a32.88,32.88,0,0,1,7.7-3.4,340,340,0,0,0,148.9,3.2c66.1-13.4,127.7-47.8,174.3-96.5a333.42,333.42,0,0,0,38.5-48.5C1252.73,568,1226.63,609.8,1193.93,645Zm-205.4,14.8c-170,0-307.8-137.8-307.8-307.8S818.53,44.2,988.53,44.2,1296.33,182,1296.33,352,1158.53,659.8,988.53,659.8Z" fill="#e65661"/><path d="M483.53,832.5a28.31,28.31,0,0,1-.5,11.3,32.44,32.44,0,0,1-5.8,11.6c-8.6,11.1-27.6,21.7-56.1,2.4C391,839.3,394,819.5,402,808.7a32.13,32.13,0,0,1,14.4-10.6c10.7-4.2,26-4.2,45.1,6.7.7.4,1.4.9,2,1.3C476.53,814.8,482.13,824.1,483.53,832.5Z" fill="#e65661"/><path d="M1123.73,496.9c-9.4,4.7-17.4,8-23.8,9.8a78.18,78.18,0,0,1-20.9,2.8c-14.1,0-30.9-1.6-50.3-4.8s-39.4-6.8-59.8-10.8l-16.5-3a402.25,402.25,0,0,0,41.8-33.2,521.9,521.9,0,0,0,39.2-39.5,494.42,494.42,0,0,0,34.4-43,396.69,396.69,0,0,0,27.7-44.2,289.91,289.91,0,0,0,20-48.5,171,171,0,0,0,7.7-50.5,98,98,0,0,0-6.5-35.7,85.72,85.72,0,0,0-18.81-29.2,86.8,86.8,0,0,0-29.69-19.6c-11.6-4.7-24.6-7-39.2-7q-28.2,0-51.8,8.8c-15.71,5.9-29.1,13.7-40.3,23.4A104.85,104.85,0,0,0,911,206.1a88.58,88.58,0,0,0-9.09,39c0,14.1,3.4,24.3,10.3,30.7s17.2,11.1,30.9,14.1H946a86.54,86.54,0,0,1-5.6-16.8,87,87,0,0,1-1.5-17.3,147.46,147.46,0,0,1,5.3-40.2,95.61,95.61,0,0,1,15.6-32.2,74.44,74.44,0,0,1,25.3-21.4c10-5.2,21.5-7.8,34.4-7.8q27.15,0,44.8,16.8t17.7,54.6q0,33.15-14.4,70.4a400.83,400.83,0,0,1-37.4,72.7,509.79,509.79,0,0,1-50.91,66.1c-18.7,20.5-37,37.4-55.09,50.8-11.8-2-22.91-3.7-33.3-5a232.52,232.52,0,0,0-28.6-2q-23,0-33.6,6.3c-7.1,4.2-10.6,10.1-10.6,17.9,0,8,3.7,14.6,11.2,19.6s17.1,7.5,28.9,7.5a94.89,94.89,0,0,0,31.8-5.8,256.37,256.37,0,0,0,35.3-15.8c4.3,1.3,8.5,2.8,12.7,4.3s8.3,3.1,12.7,4.8c19.6,7,39.6,13.7,60.1,19.9s38.1,9.3,53,9.3c15.7,0,28.4-3.9,38-11.8C1111.33,526.5,1118.63,514,1123.73,496.9Zm-245.5,14.8c-7.5,2.8-14.3,4.3-20.6,4.3a30.7,30.7,0,0,1-14.7-3.5c-4.3-2.3-6.5-5.4-6.5-9.1,0-2.3,1.5-4.9,4.4-7.8s8.3-4.3,16.2-4.3a92,92,0,0,1,19.7,2.5c7.7,1.7,16,3.9,25,6.5A156.75,156.75,0,0,1,878.23,511.7Z" fill="#e65661"/><path d="M1204.93,158.7h0c-3.3-3.7-6.8-7.4-10.3-11l-.4-.4h0l-.5-.5-.5-.5h0l-.4-.4c-3.6-3.5-7.2-7-11-10.3h0l-.2-.2-6.3-5.4-2.4-2-3.1-2.5c-1.4-1.1-2.8-2.2-4.3-3.4l-.2-.1-1.3-1c-.8-.6-1.5-1.2-2.4-1.8-.6-.4-1.1-.8-1.6-1.2s-1-.7-1.5-1.1-1-.7-1.5-1.1c-.8-.6-1.6-1.1-2.4-1.7s-1.31-.9-2-1.4c-.9-.7-1.9-1.3-2.9-2l-.1-.1-.2-.1-3.3-2.1-.9-.6c-.7-.4-1.41-.9-2.1-1.3l-.9-.6-1.6-1c-1.1-.8-2.31-1.4-3.5-2.1-1-.6-2.1-1.2-3.1-1.8-1.3-.7-2.5-1.5-3.8-2.2l-.81-.4h0l-2.6-1.5-1.9-1c-2.8-1.5-5.6-2.9-8.4-4.3l-2.2-1.1h0c-4.5-2.2-9.09-4.3-13.69-6.2l-1.81-.8h0l-.5-.2c-5.19-2.1-10.4-4.1-15.69-5.9l-.2-.1c-5.7-2-11.8-3.9-18.4-5.6l-3.2-.9-6.1-1.4c-.6-.1-1.2-.3-1.8-.4l-1.4-.3-2.3-.5c-1.41-.3-2.81-.7-4.31-.9h0c-1.3-.2-2.5-.4-3.8-.7-.3,0-.5-.1-.8-.1l-3.4-.6c-.2,0-.3-.1-.5-.1l-2.1-.4c-1.3-.3-2.7-.4-4-.6a25.12,25.12,0,0,1-2.7-.4c-2.2-.3-4.4-.6-6.6-.8l-.9-.1c-1.3-.2-2.7-.3-4-.4h-.4c-3.6-.3-7.2-.6-10.8-.8h-.4c-5-.3-10-.4-15-.4h-2.6c-5,0-10,.2-15,.4h-.4c-3.6.2-7.2.5-10.8.8h-.4c-1.4.1-2.7.3-4,.4l-.9.1c-2.2.3-4.4.5-6.7.8l-2.6.3c-1.3.2-2.7.3-4,.6l-2.1.4c-.2,0-.3.1-.5.1l-3.4.6c-.3,0-.5.1-.8.1l-1.6.3-2.1.4h-.1c-1.4.2-2.8.6-4.2.9l-2.2.5-1.3.3c-1,.2-2,.5-3,.7l-5.1,1.2-3.1.9c-6.6,1.8-12.7,3.6-18.4,5.6l-.2.1c-5.3,1.8-10.6,3.8-15.7,5.9l-.5.2h0l-1.8.8c-4.6,1.9-9.2,4-13.7,6.2h0L860,91.7c-2.4,1.2-4.9,2.5-7.3,3.7l-.8.4-2.2,1.1-2.29,1.5h0l-.8.4c-1.3.7-2.5,1.5-3.8,2.2-1,.6-2,1.1-3,1.7-1.2.7-2.4,1.4-3.5,2.1l-1.6,1-.9.6c-.7.5-1.4.9-2.1,1.4l-.9.6c-1,.7-2.1,1.3-3.1,2l-.4.2c-.1.1-.2.1-.2.2-.9.6-1.8,1.2-2.7,1.9-.1,0-.1.1-.2.1-.6.4-1.2.9-1.8,1.3-.8.5-1.5,1.1-2.3,1.6a4.23,4.23,0,0,1-.7.5l-1.2.9a8.34,8.34,0,0,1-1.2.8c-1,.7-2,1.4-2.9,2.1l-1.1.8h-.1l-1.3,1-.1.1c-1.5,1.2-3,2.3-4.5,3.5l-3,2.4-2.4,2c-2.1,1.8-4.2,3.5-6.2,5.4l-.2.2h0c-3.7,3.3-7.4,6.8-11,10.3l-.4.4h0l-.6.6-.5.5h0l-.4.4c-3.5,3.6-7,7.2-10.3,11h0l-.2.2c-1.9,2.1-3.7,4.2-5.5,6.3l-2,2.3-2.4,3.1-3.5,4.4-.1.1c-.3.4-.7.9-1,1.3-.6.7-1.1,1.5-1.7,2.2-.4.6-.9,1.2-1.3,1.8s-.7,1-1.1,1.5-.7,1-1.1,1.5c-.6.8-1.1,1.6-1.7,2.4a24.26,24.26,0,0,0-1.4,2c-.7,1-1.4,2-2,3-.7,1.2-1.5,2.3-2.2,3.5l-.6.9c-.5.7-.9,1.4-1.4,2.2a8.79,8.79,0,0,0-.6,1l-1,1.5a40.5,40.5,0,0,0-2.1,3.5c-.6,1-1.2,2-1.8,3.1-.7,1.3-1.5,2.5-2.2,3.8l-.4.7h0l-1.5,2.6-1,1.9c-1.5,2.8-2.9,5.6-4.3,8.5l-1.1,2.1h0c-2.2,4.5-4.3,9.1-6.2,13.7l-.8,1.8h0l-.2.5c-2.1,5.2-4.1,10.5-5.9,15.8l-.1.2c-2,5.7-3.9,11.7-5.6,18.4l-.9,3.2-1.3,5.6a18.92,18.92,0,0,0-.5,2.3c-.1.5-.2.9-.3,1.4l-.5,2.3c-.3,1.4-.7,2.8-.9,4.2h0c-.2,1.3-.4,2.5-.7,3.8,0,.3-.1.5-.1.8l-.6,3.3c0,.2-.1.4-.1.6l-.4,2c-.3,1.3-.4,2.7-.6,4a25.12,25.12,0,0,1-.4,2.7c-.3,2.2-.6,4.4-.8,6.6l-.1.9c-.2,1.3-.3,2.7-.4,4v.4c-.3,3.6-.6,7.2-.8,10.8v.4h0c-.3,5-.4,10-.4,15v.5h0v1.6h0v.5c0,5,.2,10,.4,15h0v.4c.2,3.6.5,7.2.8,10.8v.4c.1,1.4.3,2.7.4,4l.1.9c.3,2.2.5,4.4.8,6.7.1.9.2,1.7.3,2.6.2,1.3.3,2.7.6,4l.4,2.1c0,.2.1.4.1.6l.6,3.3c.1.3.1.6.2.9.2,1.2.4,2.4.7,3.7h0v.1h0a27.13,27.13,0,0,0,.9,4.1l.5,2.3c.1.4.2.9.3,1.3.2,1,.5,2,.7,3l1.2,5.1.9,3.1c1.8,6.6,3.6,12.7,5.6,18.4l.1.2c1.8,5.3,3.8,10.6,5.9,15.8l.2.5h0l.8,1.8c1.9,4.6,4,9.2,6.2,13.7h0l1.1,2.1c1.4,2.9,2.9,5.8,4.4,8.7l.9,1.8,1.5,2.5h0l.4.8c.7,1.3,1.5,2.5,2.2,3.8.6,1,1.2,2,1.8,3.1s1.3,2.3,2.1,3.5l1,1.6.6.9c.4.7.9,1.4,1.4,2.1l.6.9c.7,1,1.3,2.1,2,3.2l.2.4c.1.1.1.2.2.2.6.9,1.2,1.8,1.9,2.7a24.26,24.26,0,0,1,1.4,2c.6.8,1.1,1.6,1.7,2.4a2.18,2.18,0,0,0,.4.5l.3.4c.1.2.3.4.4.6.4.5.7,1,1.1,1.5.7,1,1.4,1.9,2.1,2.9l.8,1.1.1.1c.3.4.7.9,1,1.3l.1.1c1.2,1.5,2.3,3,3.5,4.5l2.4,3,2.1,2.4c1.7,2.1,3.5,4.1,5.3,6.1l.3.3h0c3.3,3.8,6.8,7.4,10.3,11l.4.4h0l.5.5.5.5h0l.4.4c3.6,3.5,7.2,7,11,10.3h0l.3.3c2,1.8,4.1,3.6,6.2,5.4l2.4,2,3,2.4,4.4,3.5.1.1,1.3,1c.7.6,1.5,1.2,2.3,1.8.6.4,1.2.8,1.7,1.2s1,.7,1.5,1.1,1,.7,1.5,1c.8.6,1.6,1.1,2.4,1.7s1.3.9,2,1.4c1,.7,2,1.4,3,2,1.2.7,2.3,1.5,3.5,2.2l.9.6c.7.5,1.4.9,2.1,1.4l.9.6,1.6,1a40.5,40.5,0,0,0,3.5,2.1c1,.6,2.1,1.2,3.1,1.8,1.3.7,2.5,1.5,3.8,2.2l.8.4h0l2.6,1.5,1.9,1c2.8,1.5,5.7,3,8.5,4.4l2.1,1.1h0c4.5,2.2,9.1,4.3,13.7,6.2l1.8.8h0l.5.2c5.2,2.1,10.5,4.1,15.8,5.9l.2.1c5.7,2,11.8,3.9,18.4,5.6l3.2.9,5.7,1.3c.7.2,1.5.3,2.2.5l1.4.3,2.3.5c1.4.3,2.8.7,4.2.9h0c1.3.2,2.5.4,3.8.7.3,0,.5.1.8.1,1.1.2,2.2.4,3.4.6.2,0,.4.1.6.1l2,.4c1.3.3,2.7.4,4,.6l2.6.3c2.2.3,4.4.6,6.7.8l.9.1c1.3.2,2.7.3,4,.4h.4c3.6.3,7.3.6,10.9.8h.3c5,.3,10,.4,15,.4h2.6c5,0,10-.2,15-.4h.3c3.6-.2,7.3-.5,10.9-.8h.4c1.4-.1,2.7-.3,4-.4l.9-.1c2.2-.3,4.5-.5,6.7-.8l2.5-.3c1.3-.2,2.7-.3,4-.6l2.1-.4c.2,0,.4-.1.6-.1l3.4-.6c.3,0,.5-.1.8-.1,1.2-.2,2.4-.4,3.7-.7h.2a27.13,27.13,0,0,0,4.1-.9l2.3-.5,1.3-.3c1-.2,2-.5,3-.7l5.1-1.2,3.1-.9c6.6-1.8,12.7-3.6,18.4-5.6l.2-.1c5.3-1.8,10.6-3.8,15.8-5.9l.5-.2h0l1.8-.8c4.6-1.9,9.2-4,13.7-6.2h0l2.2-1.2c2.5-1.2,4.9-2.5,7.4-3.8l.7-.4,2.2-1.1,2.5-1.5h0l.8-.4c1.3-.7,2.5-1.4,3.8-2.2,1-.6,2.1-1.2,3.1-1.8,1.2-.7,2.3-1.4,3.5-2.1l1.6-1,.9-.6c.7-.4,1.4-.9,2.1-1.3l.9-.6c1.2-.7,2.3-1.5,3.5-2.2h0c1-.7,2-1.3,2.9-2a24.26,24.26,0,0,1,2-1.4c.8-.6,1.6-1.1,2.3-1.7.5-.4,1-.7,1.5-1.1s1-.7,1.5-1.1c1-.7,1.9-1.4,2.9-2.1l1.1-.9h0l1.3-1,.1-.1,4.5-3.6,3-2.4,2.4-2,6.3-5.4.2-.2h0c3.8-3.3,7.4-6.8,11-10.3l.4-.4h0l.5-.5.6-.6h0l.4-.4c3.5-3.6,7-7.2,10.3-11h0l.2-.2,5.4-6.3,2-2.4,2.5-3.1,3.4-4.3.1-.1c.3-.4.7-.9,1-1.3.6-.8,1.2-1.5,1.8-2.3.4-.6.8-1.1,1.2-1.7s.7-1,1.1-1.5c.1-.1.2-.3.3-.4l.4-.5c.1-.2.3-.4.4-.6.6-.8,1.1-1.5,1.7-2.3,1.1-1.6,2.3-3.2,3.4-4.9l.1-.1.1-.2,2.1-3.3.6-.9c.4-.7.9-1.4,1.3-2.1l.6-.9,1-1.6a40.5,40.5,0,0,0,2.1-3.5c.6-1,1.2-2.1,1.8-3.1.7-1.3,1.5-2.5,2.2-3.8l.4-.8h0l1.5-2.6,1-1.9c1.5-2.8,2.9-5.6,4.3-8.4l1.1-2.1h0c2.2-4.5,4.3-9.1,6.2-13.7l.8-1.8h0l.2-.5c2.1-5.2,4.1-10.4,5.9-15.7l.1-.2c2-5.7,3.9-11.8,5.6-18.4l.9-3.2,1.4-6c.1-.6.3-1.3.4-1.9s.2-.9.3-1.4l.5-2.3c.3-1.4.7-2.8.9-4.3h0c.2-1.3.4-2.5.7-3.8,0-.3.1-.5.1-.8.2-1.1.4-2.3.6-3.4,0-.2.1-.3.1-.5l.4-2.1c.3-1.3.4-2.7.6-4a25.12,25.12,0,0,1,.4-2.7c.3-2.2.6-4.4.8-6.6l.1-.9c.2-1.3.3-2.7.4-4v-.4c.3-3.6.6-7.2.8-10.8v-.4h0c.3-5,.4-10,.4-15v-.5h0v-1.6h0v-.5c0-5-.2-10-.4-15h0v-.4c-.2-3.6-.5-7.2-.8-10.8v-.4c-.1-1.4-.3-2.7-.4-4l-.1-.9c-.3-2.2-.5-4.4-.8-6.6-.1-.9-.2-1.7-.3-2.6-.2-1.3-.3-2.7-.6-4l-.4-2.2a.6.6,0,0,0-.1-.4c-.2-1.2-.4-2.4-.6-3.5,0-.2-.1-.5-.1-.7-.1-.5-.2-1.1-.3-1.6l-.4-2.1v-.1h0c-.2-1.4-.6-2.8-.9-4.2l-.5-2.2c-.1-.5-.2-.9-.3-1.4-.2-1-.4-1.9-.7-2.9l-1.2-5.2-.9-3.1c-1.8-6.6-3.6-12.7-5.6-18.4l-.1-.2c-1.8-5.3-3.8-10.6-5.9-15.7l-.2-.5h0l-.8-1.8c-1.9-4.6-4-9.2-6.2-13.7h0l-1.2-2.3c-1.2-2.4-2.4-4.8-3.7-7.2l-.4-.8-1.1-2.2-1.5-2.5h0l-.4-.8c-.7-1.3-1.5-2.6-2.2-3.8-.6-1-1.1-2-1.7-3-.7-1.2-1.4-2.4-2.1-3.5l-1.1-1.7a4.05,4.05,0,0,1-.5-.9c-.4-.7-.9-1.4-1.4-2.1l-.6-.9c-.7-1.2-1.5-2.3-2.2-3.5h0c-.7-1-1.3-2-2-2.9-.5-.7-.9-1.3-1.4-2a19.52,19.52,0,0,0-1.7-2.3c-.4-.5-.7-1-1.1-1.5s-.7-1-1.1-1.5c-.7-1-1.4-1.9-2.1-2.9l-.8-1-.1-.1c-.3-.4-.7-.9-1-1.3l-.1-.1c-1.2-1.5-2.3-3-3.5-4.4l-2.4-3-2-2.4c-1.8-2.1-3.5-4.2-5.3-6.2Zm-73.6-54.7,1.7,1c2.6,1.6,5.3,3.1,7.9,4.8l3.1,2q4.2,2.7,8.4,5.7l1,.7c.5.4,1,.7,1.5,1.1,2.7,1.9,5.3,3.9,7.9,5.8l.3.2a14.68,14.68,0,0,1-9.4,3.6,21.59,21.59,0,0,1-13.4-3.9h0a21.07,21.07,0,0,1-5.4-4.9,18.08,18.08,0,0,1-1.9-2.9,29.17,29.17,0,0,1-1.4-3.1A14.15,14.15,0,0,1,1131.33,104Zm-14.9-8,6.2,3.2c1.7.9,3.5,1.9,5.2,2.8a18.22,18.22,0,0,0,0,13.4,30.06,30.06,0,0,0,1.7,3.6,26.37,26.37,0,0,0,2.3,3.5,25.33,25.33,0,0,0,6.4,5.8,25.86,25.86,0,0,0,14.4,4.6h1.5a18.61,18.61,0,0,0,12.4-5.1l2.2,1.8c1.4,1.1,2.7,2.2,4.1,3.4l3.6,3.1a26.18,26.18,0,0,1-13.4,6.7,43.19,43.19,0,0,1-5.9.6,34,34,0,0,1-12.2-1.7,36.6,36.6,0,0,1-11.7-5.5h0a34.18,34.18,0,0,1-5.2-4,58.93,58.93,0,0,1-4.2-4.5l-.2-.2a36.34,36.34,0,0,1-6.1-10.7C1114.23,109.5,1114,102.2,1116.43,96Zm-15.3-7.2c3.9,1.7,7.8,3.5,11.7,5.3-2.9,7.3-2.8,15.7.4,23.9a38.33,38.33,0,0,0,6.8,11.8l.2.2a50.28,50.28,0,0,0,4.5,4.8,48.17,48.17,0,0,0,18.7,10.5,40.58,40.58,0,0,0,12,1.8h1.5a49.73,49.73,0,0,0,6.5-.7,32.83,32.83,0,0,0,6.3-1.9,30.51,30.51,0,0,0,9.4-6.1c3.2,2.9,6.3,5.8,9.4,8.8a39.67,39.67,0,0,1-12.8,7.5,54.72,54.72,0,0,1-8.2,2.1c-1.4.2-2.8.4-4.3.5s-2.9.2-4.4.2a63.6,63.6,0,0,1-8.7-.6l-1.5-.3-.7-.1c-.7-.1-1.5-.3-2.2-.4-1.5-.3-2.9-.7-4.3-1.1a72.11,72.11,0,0,1-8.4-3.2,60.16,60.16,0,0,1-8-4.6h0a38.94,38.94,0,0,1-7.1-5.6l-1.4-1.4a17,17,0,0,1-1.9-1.9c-1-1.1-2-2.2-2.9-3.3a33.2,33.2,0,0,1-2.6-3.6c-1-1.4-1.7-2.5-2.4-3.6a46.82,46.82,0,0,1-3.8-7.8l-.1-.2c-.5-1.3-1-2.6-1.4-3.9s-.8-2.7-1.2-4.1a40.52,40.52,0,0,1-1.2-8.4A39.48,39.48,0,0,1,1101.13,88.8Zm-72.7-20.2c2.6.4,5.2.8,7.9,1.2l4.6.8,9.2,1.8c.6.1,1.1.3,1.7.4l.4.1c1.5.3,3,.7,4.4,1l1.2.3c1.7.4,3.5.9,5.2,1.3a15,15,0,0,1-7.3,6.9,20.36,20.36,0,0,1-6.5,1.9,21.69,21.69,0,0,1-3.6.1c-1.31-.1-2.7-.3-3.81-.5a22.13,22.13,0,0,1-6.9-2.5,18.72,18.72,0,0,1-2.9-2,26.14,26.14,0,0,1-2.5-2.3,14.85,14.85,0,0,1-4.1-9.2Zm-13-1.5c1.7.2,3.5.3,5.2.5l.8.1a18.66,18.66,0,0,0,5.1,12.4,35.76,35.76,0,0,0,2.9,2.7,26.16,26.16,0,0,0,3.4,2.4,25.87,25.87,0,0,0,8.2,2.9h0c1.3.2,2.7.4,4.3.5h1.4a28.25,28.25,0,0,0,2.9-.2,22.76,22.76,0,0,0,7.8-2.3,18,18,0,0,0,9.4-9.4c4.1,1.2,8.2,2.4,12.3,3.8a23.45,23.45,0,0,1-5.4,7.7,32.25,32.25,0,0,1-9.7,6.5,39.25,39.25,0,0,1-11.9,3.2,34.32,34.32,0,0,1-6.4.3,31.63,31.63,0,0,1-3.2-.3c-.5-.1-1.1-.2-1.7-.3h-.1a7.77,7.77,0,0,0-1.6-.2h0a46.37,46.37,0,0,1-6.4-1.7,49.42,49.42,0,0,1-5.7-2.6l-.2-.1a37.08,37.08,0,0,1-9.8-7.5c-5.4-5.5-8.3-12.1-8.5-18.8Zm-10.8-.8c.1,7.9,3.4,15.6,9.6,21.9a39.46,39.46,0,0,0,10.8,8.3l.2.1a56.67,56.67,0,0,0,6.1,2.8,41.18,41.18,0,0,0,7.1,1.9l1.7.3h0l1.8.3a21.86,21.86,0,0,0,3.6.3h1.9a45.33,45.33,0,0,0,5.2-.3,41.5,41.5,0,0,0,13.1-3.5,40.67,40.67,0,0,0,10.9-7.3,30.36,30.36,0,0,0,6.4-9.3q6.15,2.1,12,4.5a38.65,38.65,0,0,1-9,11.8,37.24,37.24,0,0,1-6.8,5c-1.41.8-2.6,1.5-3.81,2.2s-2.6,1.3-3.9,1.9a57.5,57.5,0,0,1-8.3,2.7,62.17,62.17,0,0,1-8.7,1.6c-1.5.1-2.9.2-4.5.2-1.2,0-2.9.1-4.5,0s-3-.2-4.5-.4c-.9-.1-1.7-.3-2.6-.4l-2-.3a42.83,42.83,0,0,1-8.69-2.4,14.71,14.71,0,0,0-1.91-.7,25.48,25.48,0,0,1-2.4-1c-1.3-.6-2.69-1.2-4-1.9s-2.5-1.5-3.8-2.3l-.8-.5c-1-.6-1.9-1.3-2.8-1.9a50.07,50.07,0,0,1-6.5-5.7,56.52,56.52,0,0,1-5.6-6.6,45,45,0,0,1-4.3-7.3,40,40,0,0,1-3.8-14.4C996.13,65.9,1000.33,66,1004.63,66.3Zm-85.3,8c.3-.1.7-.2,1-.3,1.4-.4,2.9-.7,4.3-1l.9-.2,1.3-.3c3.1-.7,6.2-1.3,9.3-1.9l4.6-.8,7.8-1.2,2.9-.4a14.77,14.77,0,0,1-4.1,9.2,27.25,27.25,0,0,1-2.5,2.3,29.77,29.77,0,0,1-2.9,2,22.74,22.74,0,0,1-6.9,2.5c-1.2.2-2.5.4-3.8.5a20.8,20.8,0,0,1-10.2-2,15,15,0,0,1-7.3-6.9C915.83,75.2,917.53,74.8,919.33,74.3Zm-9.1,2.5a18.7,18.7,0,0,0,9.4,9.4,23.43,23.43,0,0,0,7.8,2.3,28.25,28.25,0,0,0,2.9.2h1.4c1.5-.1,3-.3,4.2-.5h0a26.76,26.76,0,0,0,8.2-2.9,20.76,20.76,0,0,0,3.4-2.4,18.23,18.23,0,0,0,2.9-2.7,18.47,18.47,0,0,0,5.1-12.4l.8-.1c1.7-.2,3.5-.4,5.2-.5l6.8-.5c-.2,6.7-3.1,13.3-8.5,18.9a35.1,35.1,0,0,1-9.7,7.5l-.2.1c-1.9.9-3.8,1.9-5.7,2.6a33.45,33.45,0,0,1-6.4,1.7h0a7.77,7.77,0,0,1-1.6.2H936l-1.6.3-3.2.3a34.32,34.32,0,0,1-6.4-.3A35.3,35.3,0,0,1,913,94.8a34.32,34.32,0,0,1-9.8-6.6,26.86,26.86,0,0,1-5.4-7.7C901.93,79.2,906,77.9,910.23,76.8Zm-16.2,5a28.72,28.72,0,0,0,6.4,9.3,39.14,39.14,0,0,0,10.9,7.3,41.42,41.42,0,0,0,13.1,3.5,45.33,45.33,0,0,0,5.2.3h1.9l3.6-.3c.6-.1,1.2-.2,1.7-.3h.1l1.7-.3a40.08,40.08,0,0,0,7-1.9,49,49,0,0,0,6.1-2.8l.2-.1a39.46,39.46,0,0,0,10.8-8.3c6.2-6.4,9.5-14.1,9.6-21.9,4.3-.2,8.6-.4,12.8-.4a38.09,38.09,0,0,1-3.8,14.4,45,45,0,0,1-4.3,7.3,66.18,66.18,0,0,1-5.6,6.6,45,45,0,0,1-6.6,5.7,27.5,27.5,0,0,1-2.8,1.9l-.8.5c-1.2.8-2.5,1.6-3.8,2.3s-2.6,1.4-4,2c-.8.3-1.5.6-2.4.9-.6.2-1.3.5-1.9.7a44,44,0,0,1-8.8,2.4c-.7.1-1.4.2-2,.3a25.12,25.12,0,0,1-2.7.4c-1.5.2-3,.3-4.5.4s-3.3,0-4.6,0-2.9-.1-4.4-.2a64.91,64.91,0,0,1-8.7-1.6,60.49,60.49,0,0,1-8.2-2.7c-1.3-.6-2.6-1.2-3.9-1.9s-2.4-1.3-3.8-2.1a56.7,56.7,0,0,1-6.8-5,38.65,38.65,0,0,1-9-11.8ZM814.23,125c2.6-2,5.3-4,7.9-5.9.5-.4,1-.7,1.5-1.1l1-.7,8.4-5.7,3.1-2c2.6-1.6,5.3-3.3,7.9-4.8l1.6-.9a15,15,0,0,1-.2,10c-.4,1-.9,2-1.4,3.1a18.08,18.08,0,0,1-1.9,2.9,21.07,21.07,0,0,1-5.4,4.9h0a21.69,21.69,0,0,1-13.5,3.9,13.9,13.9,0,0,1-9.3-3.6Zm-9.8,7.9,3.8-3.2,2.6-2a18.16,18.16,0,0,0,12.3,5.1c.5,0,1,.1,1.5.1a25.86,25.86,0,0,0,14.4-4.6,25.33,25.33,0,0,0,6.4-5.8,26.37,26.37,0,0,0,2.3-3.5,19.64,19.64,0,0,0,1.6-3.6,18.22,18.22,0,0,0,0-13.4c1.7-.9,3.4-1.9,5.1-2.8l6.3-3.2c2.4,6.3,2.2,13.5-.6,20.7a34.59,34.59,0,0,1-6.1,10.6l-.2.2a58.93,58.93,0,0,1-4.2,4.5,40,40,0,0,1-5.2,4h0a39.37,39.37,0,0,1-11.8,5.5,35.38,35.38,0,0,1-12.1,1.6,35.29,35.29,0,0,1-11.5-2.3,23.37,23.37,0,0,1-7.9-5.1Zm-6.5,5.7a27.27,27.27,0,0,0,9.4,6.1,41.9,41.9,0,0,0,6.3,1.9,38.15,38.15,0,0,0,6.6.7h1.5a39.92,39.92,0,0,0,11.9-1.8,44.73,44.73,0,0,0,13-6,31.4,31.4,0,0,0,5.7-4.5,41.48,41.48,0,0,0,4.5-4.9l.2-.3a42.83,42.83,0,0,0,6.8-11.8c3.2-8.3,3.4-16.7.5-24,3.9-1.9,7.8-3.7,11.7-5.3a37.46,37.46,0,0,1,2,14.7,40.52,40.52,0,0,1-1.2,8.4,27.69,27.69,0,0,1-1.2,4.1c-.4,1.3-.9,2.6-1.4,4v.1a56.77,56.77,0,0,1-3.9,7.8c-.7,1.1-1.4,2.3-2.4,3.7-.8,1.2-1.7,2.4-2.6,3.6a31.09,31.09,0,0,1-2.9,3.3c-.6.6-1.2,1.2-1.9,1.8-.5.4-.9.9-1.4,1.3a43.44,43.44,0,0,1-7.2,5.6h0a48.81,48.81,0,0,1-7.9,4.5,72.11,72.11,0,0,1-8.4,3.2c-1.4.4-2.8.8-4.3,1.1-.7.1-1.4.3-2.2.4l-.7.1-1.5.3a49.08,49.08,0,0,1-8.6.6c-1.4,0-2.9-.1-4.4-.2s-2.91-.3-4.2-.5a55.16,55.16,0,0,1-8.21-2.1,38.58,38.58,0,0,1-12.79-7.5C791.53,144.4,794.73,141.4,797.93,138.6Zm-56.5,69c1.5-2.6,3.1-5.3,4.8-7.8l2-3.1c1.8-2.8,3.7-5.6,5.6-8.4.1-.1.2-.3.3-.4.5-.7,1-1.5,1.6-2.2,1.9-2.7,3.8-5.3,5.8-7.9l.2-.3a14.68,14.68,0,0,1,3.6,9.4,21.59,21.59,0,0,1-3.9,13.4h0a21.07,21.07,0,0,1-4.9,5.4,18.08,18.08,0,0,1-2.9,1.9,29.17,29.17,0,0,1-3.1,1.4,14.38,14.38,0,0,1-10,.2Zm-5.8,10.4c.9-1.7,1.9-3.4,2.8-5.2a17.52,17.52,0,0,0,6.5,1.3,19.13,19.13,0,0,0,6.9-1.3,30.06,30.06,0,0,0,3.6-1.7,26.37,26.37,0,0,0,3.5-2.3,25.33,25.33,0,0,0,5.8-6.4,25,25,0,0,0,4.5-15.8,18.61,18.61,0,0,0-5.1-12.4l1.8-2.3c1.1-1.4,2.2-2.7,3.3-4l3.1-3.6a26.85,26.85,0,0,1,5.1,7.9,24.94,24.94,0,0,1,1.6,5.5,43.19,43.19,0,0,1,.6,5.9,34,34,0,0,1-1.7,12.2,36.6,36.6,0,0,1-5.5,11.7h0a34.18,34.18,0,0,1-4,5.2,58.93,58.93,0,0,1-4.5,4.2l-.2.2a36.34,36.34,0,0,1-10.7,6.1c-7.2,2.8-14.4,3-20.7.6Zm-5,9.8a29.47,29.47,0,0,0,11,2.1,35.17,35.17,0,0,0,12.9-2.5,38.33,38.33,0,0,0,11.8-6.8l.2-.2c1.6-1.4,3.3-2.9,4.9-4.5a36,36,0,0,0,4.5-5.8,42.86,42.86,0,0,0,6-12.9,38.65,38.65,0,0,0,1.8-13.5,38,38,0,0,0-.7-6.5,32.83,32.83,0,0,0-1.9-6.3,30.51,30.51,0,0,0-6.1-9.4c2.9-3.2,5.8-6.3,8.8-9.4a39.67,39.67,0,0,1,7.5,12.8,54.72,54.72,0,0,1,2.1,8.2c.2,1.4.4,2.8.5,4.3s.2,2.9.2,4.4a63.6,63.6,0,0,1-.6,8.7l-.3,1.5-.1.7c-.1.7-.3,1.4-.4,2.2-.3,1.4-.7,2.9-1.1,4.3a72.11,72.11,0,0,1-3.2,8.4,60.16,60.16,0,0,1-4.6,8h0a38.94,38.94,0,0,1-5.6,7.1l-1.4,1.4a17,17,0,0,1-1.9,1.9c-1,1-2.2,2-3.3,2.9a33.2,33.2,0,0,1-3.6,2.6c-1.4,1-2.5,1.7-3.6,2.4a46.82,46.82,0,0,1-7.8,3.8l-.2.1c-1.3.5-2.6,1-3.9,1.4l-4.1,1.2a40.52,40.52,0,0,1-8.4,1.2,39.11,39.11,0,0,1-14.7-2C727,235.5,728.83,231.6,730.63,227.8Zm-25.5,84.5c.4-2.7.8-5.3,1.2-8l.8-4.4c.6-3.1,1.2-6.3,1.9-9.4a9.36,9.36,0,0,1,.4-1.6l.1-.4c.4-1.5.7-3.1,1.1-4.6.1-.4.2-.7.3-1.1.4-1.7.9-3.5,1.4-5.2a15,15,0,0,1,6.9,7.3,20.36,20.36,0,0,1,1.9,6.5,21.66,21.66,0,0,1,.1,3.6,32.2,32.2,0,0,1-.5,3.8,22,22,0,0,1-2.5,6.9,18.72,18.72,0,0,1-2,2.9,26.14,26.14,0,0,1-2.3,2.5,14.85,14.85,0,0,1-9.2,4.1Zm-1.5,12.8c.2-1.7.3-3.5.5-5.2l.1-.8a18.66,18.66,0,0,0,12.4-5.1,35.76,35.76,0,0,0,2.7-2.9,26.16,26.16,0,0,0,2.4-3.4,25.87,25.87,0,0,0,2.9-8.2h0a42.76,42.76,0,0,0,.5-4.3,30.88,30.88,0,0,0-.1-4.3,22.76,22.76,0,0,0-2.3-7.8,18,18,0,0,0-9.4-9.4c1.2-4.1,2.4-8.2,3.8-12.3a23.45,23.45,0,0,1,7.7,5.4,32.25,32.25,0,0,1,6.5,9.7,39.25,39.25,0,0,1,3.2,11.9,34.32,34.32,0,0,1,.3,6.4,31.63,31.63,0,0,1-.3,3.2c-.1.5-.2,1.1-.3,1.7v.2c-.1.5-.1,1-.2,1.5h0a46.37,46.37,0,0,1-1.7,6.4,49.42,49.42,0,0,1-2.6,5.7l-.1.2a37.08,37.08,0,0,1-7.5,9.8c-5.5,5.4-12.1,8.3-18.8,8.5Zm-.9,10.8c7.9-.1,15.6-3.5,21.9-9.6a39.46,39.46,0,0,0,8.3-10.8l.1-.2a49,49,0,0,0,2.8-6.1,42.62,42.62,0,0,0,1.9-7c.1-.5.2-1.1.3-1.6v-.1l.3-1.8a21.86,21.86,0,0,0,.3-3.6,42,42,0,0,0-11.1-31,30.36,30.36,0,0,0-9.3-6.4q2.1-6.15,4.5-12a38.65,38.65,0,0,1,11.8,9,37.24,37.24,0,0,1,5,6.8c.8,1.4,1.5,2.6,2.2,3.8s1.3,2.6,1.9,3.9a57.5,57.5,0,0,1,2.7,8.3,52.16,52.16,0,0,1,1.6,8.7c.1,1.5.2,2.9.2,4.5,0,1.2.1,2.9,0,4.5s-.2,3-.4,4.5c-.1.9-.3,1.7-.4,2.6-.1.7-.2,1.3-.3,2a50.83,50.83,0,0,1-2.4,8.7,14.58,14.58,0,0,0-.7,1.9,24.43,24.43,0,0,1-1,2.4c-.6,1.3-1.2,2.7-1.9,4s-1.5,2.6-2.3,3.8l-.5.8c-.6,1-1.3,1.9-1.9,2.8a50.07,50.07,0,0,1-5.7,6.5,56.52,56.52,0,0,1-6.6,5.6,45,45,0,0,1-7.3,4.3,40,40,0,0,1-14.4,3.8C702.43,344.5,702.53,340.2,702.73,335.9Zm8.1,85.3c-.1-.3-.1-.6-.2-.9-.4-1.5-.7-2.9-1-4.4l-.2-1-.3-1.2c-.7-3.1-1.3-6.3-1.9-9.4l-.8-4.5c-.4-2.6-.9-5.3-1.2-8l-.4-2.9A14.77,14.77,0,0,1,714,393a27.25,27.25,0,0,1,2.3,2.5,29.77,29.77,0,0,1,2,2.9,22.74,22.74,0,0,1,2.5,6.9c.2,1.1.4,2.5.5,3.8a20.8,20.8,0,0,1-2,10.2,15,15,0,0,1-6.9,7.3A40.81,40.81,0,0,1,710.83,421.2Zm2.4,9.2a18.7,18.7,0,0,0,9.4-9.4,23.43,23.43,0,0,0,2.3-7.8,20.45,20.45,0,0,0,.1-4.3,40.52,40.52,0,0,0-.5-4.2h0a26.76,26.76,0,0,0-2.9-8.2,20.76,20.76,0,0,0-2.4-3.4,18.23,18.23,0,0,0-2.7-2.9,18.47,18.47,0,0,0-12.4-5.1l-.1-.8c-.2-1.7-.4-3.5-.5-5.2l-.5-6.8c6.7.2,13.3,3.1,18.9,8.5a35.1,35.1,0,0,1,7.5,9.7l.1.2a58.59,58.59,0,0,1,2.6,5.7,35.53,35.53,0,0,1,1.7,6.4h0a7.72,7.72,0,0,1,.2,1.5v.3c.1.5.2,1.1.3,1.6.1,1.1.2,2.2.3,3.2a34.32,34.32,0,0,1-.3,6.4,35.3,35.3,0,0,1-3.2,11.8,34.32,34.32,0,0,1-6.6,9.8,26.86,26.86,0,0,1-7.7,5.4C715.73,438.6,714.43,434.5,713.23,430.4Zm5.1,16.1a28.72,28.72,0,0,0,9.3-6.4,39.14,39.14,0,0,0,7.3-10.9,47.34,47.34,0,0,0,3.8-20.2l-.3-3.6c-.1-.6-.2-1.2-.3-1.7v-.2c-.1-.5-.2-1.1-.3-1.6a40.08,40.08,0,0,0-1.9-7,49,49,0,0,0-2.8-6.1l-.1-.2a39.46,39.46,0,0,0-8.3-10.8c-6.4-6.2-14.1-9.6-21.9-9.6-.2-4.3-.4-8.6-.4-12.8a38.09,38.09,0,0,1,14.4,3.8,45,45,0,0,1,7.3,4.3,66.18,66.18,0,0,1,6.6,5.6,45,45,0,0,1,5.7,6.6,27.5,27.5,0,0,1,1.9,2.8l.5.8c.8,1.2,1.6,2.5,2.3,3.8s1.4,2.6,2,4c.3.8.6,1.5.9,2.4.2.6.5,1.3.7,1.9a44,44,0,0,1,2.4,8.8c.1.7.2,1.4.3,2a25.12,25.12,0,0,1,.4,2.7c.2,1.5.3,3,.4,4.5s0,3.3,0,4.6-.1,2.9-.2,4.4a64.91,64.91,0,0,1-1.6,8.7,60.49,60.49,0,0,1-2.7,8.2c-.6,1.3-1.2,2.6-1.9,3.9s-1.3,2.4-2.1,3.8a56.7,56.7,0,0,1-5,6.8,38.65,38.65,0,0,1-11.8,9C721.23,454.6,719.73,450.6,718.33,446.5Zm43.4,80.1-.2-.3c-2-2.6-3.9-5.2-5.8-7.9-.4-.5-.7-1-1.1-1.6-.1-.2-.3-.4-.4-.6h0c-.1-.1-.2-.3-.3-.4-1.9-2.8-3.8-5.6-5.6-8.4l-2-3.1c-1.6-2.6-3.2-5.2-4.8-7.9l-.9-1.6a15,15,0,0,1,10,.2c1,.4,2.1.9,3.1,1.4a18.08,18.08,0,0,1,2.9,1.9,21.07,21.07,0,0,1,4.9,5.4h0a21.69,21.69,0,0,1,3.9,13.5A15.31,15.31,0,0,1,761.73,526.6Zm7.7,9.6c-1.1-1.3-2.2-2.6-3.2-3.9l-2-2.5a18.16,18.16,0,0,0,5.1-12.3,25.76,25.76,0,0,0-4.5-15.9,25.33,25.33,0,0,0-5.8-6.4,26.37,26.37,0,0,0-3.5-2.3,19.64,19.64,0,0,0-3.6-1.6,18.22,18.22,0,0,0-13.4,0c-.9-1.7-1.9-3.4-2.8-5.1l-3.2-6.3c6.3-2.4,13.5-2.2,20.7.6a34.59,34.59,0,0,1,10.6,6.1l.2.2c1.5,1.3,3.1,2.7,4.6,4.2a40,40,0,0,1,4,5.2h0a39.37,39.37,0,0,1,5.5,11.8,35.38,35.38,0,0,1,1.6,12.1,35.29,35.29,0,0,1-2.3,11.5,23.37,23.37,0,0,1-5.1,7.9Zm14.4,15.9c-3-3.1-5.9-6.2-8.8-9.4a27.27,27.27,0,0,0,6.1-9.4A41.9,41.9,0,0,0,783,527a42.27,42.27,0,0,0-1.1-20,44.73,44.73,0,0,0-6-13,31.4,31.4,0,0,0-4.5-5.7,51.16,51.16,0,0,0-4.9-4.5l-.3-.2a42.83,42.83,0,0,0-11.8-6.8c-8.3-3.2-16.7-3.4-24-.5-1.9-3.9-3.7-7.8-5.3-11.7a37.46,37.46,0,0,1,14.7-2,40.52,40.52,0,0,1,8.4,1.2,27.69,27.69,0,0,1,4.1,1.2c1.3.4,2.6.9,4,1.4h.1a56.77,56.77,0,0,1,7.8,3.9c1.1.7,2.3,1.4,3.7,2.4,1.2.8,2.4,1.7,3.6,2.6a31.09,31.09,0,0,1,3.3,2.9c.6.6,1.2,1.2,1.8,1.9.4.5.9.9,1.3,1.4a43.44,43.44,0,0,1,5.6,7.2h0a48.81,48.81,0,0,1,4.5,7.9,72.11,72.11,0,0,1,3.2,8.4c.4,1.4.8,2.8,1.1,4.3.1.7.3,1.4.4,2.2l.1.7.3,1.5a49.08,49.08,0,0,1,.6,8.6c0,1.4-.1,2.9-.2,4.4s-.3,2.9-.5,4.2a54.72,54.72,0,0,1-2.1,8.2A31.08,31.08,0,0,1,783.83,552.1Zm62,48-1.6-.9c-2.7-1.6-5.3-3.2-8-4.8l-3.1-2c-2.8-1.8-5.7-3.7-8.4-5.7-.1,0-.1-.1-.2-.1l-.9-.6a2.18,2.18,0,0,1-.5-.4l-1-.7c-2.7-1.9-5.3-3.9-7.9-5.9l-.3-.2a14.68,14.68,0,0,1,9.4-3.6,21.59,21.59,0,0,1,13.4,3.9h0a21.07,21.07,0,0,1,5.4,4.9,18.08,18.08,0,0,1,1.9,2.9,29.17,29.17,0,0,1,1.4,3.1A14.19,14.19,0,0,1,845.83,600.1Zm14.8,8-6.2-3.2c-1.7-.9-3.4-1.9-5.2-2.8a18.22,18.22,0,0,0,0-13.4,30.06,30.06,0,0,0-1.7-3.6,19.18,19.18,0,0,0-2.3-3.5,25.33,25.33,0,0,0-6.4-5.8,25,25,0,0,0-15.8-4.5,18.61,18.61,0,0,0-12.4,5.1l-2.3-1.8c-1.4-1.1-2.7-2.2-4-3.3l-3.6-3.1a26.85,26.85,0,0,1,7.9-5.1,24.94,24.94,0,0,1,5.5-1.6,43.19,43.19,0,0,1,5.9-.6,34,34,0,0,1,12.2,1.7,36.6,36.6,0,0,1,11.7,5.5h0a34.18,34.18,0,0,1,5.2,4,58.93,58.93,0,0,1,4.2,4.5l.2.2a36.34,36.34,0,0,1,6.1,10.7A26.11,26.11,0,0,1,860.63,608.1Zm15.3,7.2c-3.9-1.7-7.8-3.5-11.7-5.3,2.9-7.3,2.8-15.7-.4-23.9a38.33,38.33,0,0,0-6.8-11.8l-.2-.2c-1.4-1.6-2.9-3.3-4.5-4.9a48.17,48.17,0,0,0-18.7-10.5,38.65,38.65,0,0,0-13.5-1.8,38,38,0,0,0-6.5.7,32.83,32.83,0,0,0-6.3,1.9,30.51,30.51,0,0,0-9.4,6.1c-3.2-2.9-6.3-5.8-9.4-8.8a39.67,39.67,0,0,1,12.8-7.5,54.72,54.72,0,0,1,8.2-2.1c1.3-.2,2.8-.4,4.3-.5s2.9-.2,4.4-.2a63.6,63.6,0,0,1,8.7.6l1.5.3.7.1c.7.1,1.4.3,2.2.4,1.4.3,2.9.7,4.3,1.1a72.11,72.11,0,0,1,8.4,3.2,60.16,60.16,0,0,1,8,4.6h0a38.94,38.94,0,0,1,7.1,5.6l1.4,1.4c.7.6,1.3,1.2,1.9,1.8,1,1,2,2.2,2.9,3.3a33.2,33.2,0,0,1,2.6,3.6c1,1.4,1.7,2.5,2.4,3.6a46.82,46.82,0,0,1,3.8,7.8l.1.1c.5,1.4,1,2.7,1.4,4s.8,2.7,1.2,4.1a40.52,40.52,0,0,1,1.2,8.4A39.94,39.94,0,0,1,875.93,615.3Zm72.8,20.2c-2.6-.4-5.2-.8-7.9-1.2l-4.5-.8c-3.1-.6-6.2-1.2-9.3-1.9a9.36,9.36,0,0,1-1.6-.4l-.6-.1c-1.5-.3-2.9-.7-4.4-1l-1.2-.3c-1.7-.4-3.5-.9-5.2-1.3a15,15,0,0,1,7.3-6.9,20.36,20.36,0,0,1,6.5-1.9,21.66,21.66,0,0,1,3.6-.1,32.2,32.2,0,0,1,3.8.5,22,22,0,0,1,6.9,2.5,18.72,18.72,0,0,1,2.9,2,26.14,26.14,0,0,1,2.5,2.3,14.85,14.85,0,0,1,4.1,9.2Zm12.9,1.5c-1.7-.2-3.4-.3-5.1-.5l-.8-.1a18.66,18.66,0,0,0-5.1-12.4,35.76,35.76,0,0,0-2.9-2.7,26.16,26.16,0,0,0-3.4-2.4,25.87,25.87,0,0,0-8.2-2.9h0a42.76,42.76,0,0,0-4.3-.5,30.88,30.88,0,0,0-4.3.1,22.76,22.76,0,0,0-7.8,2.3,18,18,0,0,0-9.4,9.4c-4.1-1.2-8.2-2.4-12.3-3.8a23.45,23.45,0,0,1,5.4-7.7,32.25,32.25,0,0,1,9.7-6.5,39.25,39.25,0,0,1,11.9-3.2,34.32,34.32,0,0,1,6.4-.3,31.63,31.63,0,0,1,3.2.3c.5.1,1.1.2,1.7.3h.2c.5.1,1,.1,1.5.2h0a46.37,46.37,0,0,1,6.4,1.7,49.42,49.42,0,0,1,5.7,2.6l.2.1a37.08,37.08,0,0,1,9.8,7.5c5.4,5.5,8.3,12.1,8.5,18.8Zm10.8.8c-.1-7.9-3.4-15.6-9.6-21.9a39.46,39.46,0,0,0-10.8-8.3l-.2-.1a56.67,56.67,0,0,0-6.1-2.8,41.18,41.18,0,0,0-7.1-1.9l-1.6-.3h-.1l-1.8-.3a21.86,21.86,0,0,0-3.6-.3,42,42,0,0,0-31,11.1,30.36,30.36,0,0,0-6.4,9.3q-6.15-2.1-12-4.5a38.65,38.65,0,0,1,9-11.8,37.24,37.24,0,0,1,6.8-5c1.4-.8,2.6-1.5,3.8-2.2s2.6-1.3,3.9-1.9a57.5,57.5,0,0,1,8.3-2.7,52.16,52.16,0,0,1,8.7-1.6c1.5-.1,2.9-.2,4.5-.2,1.2,0,2.9-.1,4.5,0s3,.2,4.5.4c.9.1,1.7.3,2.6.4l2,.3a50.83,50.83,0,0,1,8.7,2.4,14.58,14.58,0,0,0,1.9.7,24.43,24.43,0,0,1,2.4,1c1.3.6,2.7,1.2,4,1.9s2.6,1.5,3.8,2.3l.8.5a27.5,27.5,0,0,1,2.8,1.9,50.07,50.07,0,0,1,6.5,5.7,56.52,56.52,0,0,1,5.6,6.6,45,45,0,0,1,4.3,7.3,40,40,0,0,1,3.8,14.4C980.93,638.2,976.73,638.1,972.43,637.8Zm85.3-8a3.55,3.55,0,0,1-1,.2c-1.4.3-2.8.7-4.3,1l-1.1.3-1.2.3c-3.1.7-6.2,1.3-9.3,1.9l-4.6.8-7.9,1.2-2.9.4a14.77,14.77,0,0,1,4.1-9.2,27.25,27.25,0,0,1,2.5-2.3,29.77,29.77,0,0,1,2.9-2,22.74,22.74,0,0,1,6.9-2.5c1.1-.2,2.5-.4,3.8-.5a20.8,20.8,0,0,1,10.2,2,15,15,0,0,1,7.3,6.9C1061.23,628.9,1059.53,629.3,1057.73,629.8Zm9.2-2.5a18.7,18.7,0,0,0-9.4-9.4,23.43,23.43,0,0,0-7.8-2.3,20.45,20.45,0,0,0-4.3-.1,40.52,40.52,0,0,0-4.2.5h0a26.76,26.76,0,0,0-8.2,2.9,20.76,20.76,0,0,0-3.4,2.4,18.23,18.23,0,0,0-2.9,2.7,18.47,18.47,0,0,0-5.1,12.4l-.9.1c-1.7.2-3.4.4-5.1.5l-6.8.5c.2-6.7,3.1-13.3,8.5-18.9a35.1,35.1,0,0,1,9.7-7.5l.2-.1a49.26,49.26,0,0,1,5.69-2.6,33.45,33.45,0,0,1,6.4-1.7h0a7.72,7.72,0,0,1,1.5-.2h.2l1.6-.3,3.2-.3h1.7a35.93,35.93,0,0,1,4.7.3,35.3,35.3,0,0,1,11.8,3.2,34.32,34.32,0,0,1,9.8,6.6,26.86,26.86,0,0,1,5.4,7.7C1075.13,624.9,1071,626.2,1066.93,627.3Zm16.1-5a28.72,28.72,0,0,0-6.4-9.3,39.14,39.14,0,0,0-10.9-7.3,41.42,41.42,0,0,0-13.1-3.5,42.2,42.2,0,0,0-7.1-.3l-3.6.3c-.6.1-1.2.2-1.7.3h-.2l-1.6.3a40.08,40.08,0,0,0-7,1.9,49,49,0,0,0-6.1,2.8l-.3.1a39.46,39.46,0,0,0-10.8,8.3c-6.2,6.4-9.5,14.1-9.6,21.9-4.3.2-8.6.4-12.8.4a38.09,38.09,0,0,1,3.8-14.4,45,45,0,0,1,4.3-7.3,83.16,83.16,0,0,1,5.6-6.6,45,45,0,0,1,6.6-5.7,27.5,27.5,0,0,1,2.8-1.9l.8-.5c1.2-.8,2.5-1.6,3.8-2.3s2.6-1.4,4-2c.8-.3,1.5-.6,2.4-.9.6-.2,1.3-.5,1.8-.7a44,44,0,0,1,8.8-2.4l2-.3a25.12,25.12,0,0,1,2.7-.4c1.5-.2,3-.3,4.5-.4s3.3,0,4.6,0,2.9.1,4.4.2a64.91,64.91,0,0,1,8.7,1.6,60.49,60.49,0,0,1,8.2,2.7c1.3.6,2.7,1.2,3.9,1.9s2.4,1.3,3.8,2.1a56.7,56.7,0,0,1,6.8,5,38.65,38.65,0,0,1,9,11.8C1091,619.3,1087,620.8,1083,622.3Zm14.6-35.6c-.5,1.5-.9,3-1.3,4.4a47.44,47.44,0,0,0-1.3,9.2,43.46,43.46,0,0,0,.8,10.9,43.35,43.35,0,0,0-7.2-8.3,45.86,45.86,0,0,0-7.4-5.5c-1.4-.9-2.7-1.6-4-2.3s-2.8-1.4-4.2-2a60.34,60.34,0,0,0-8.8-2.9,59.51,59.51,0,0,0-9.3-1.7,37.74,37.74,0,0,0-4.7-.2,38.29,38.29,0,0,0-4.8,0c-1.6.1-3.3.2-4.9.4a23.25,23.25,0,0,0-2.8.5l-1.91.3h0a54.83,54.83,0,0,0-9.59,2.7c-.6.2-1.2.5-1.81.7-.9.3-1.69.6-2.6,1a42.5,42.5,0,0,0-4.3,2.1c-1.4.8-2.8,1.6-4.1,2.5l-.8.5a27.3,27.3,0,0,0-3,2.1,51.71,51.71,0,0,0-7.1,6.2,64.93,64.93,0,0,0-6,7,53,53,0,0,0-4.7,7.9,41.23,41.23,0,0,0-3.4,10.4,44.7,44.7,0,0,0-3.4-10.4,53,53,0,0,0-4.7-7.9,63.81,63.81,0,0,0-6-7,50.28,50.28,0,0,0-7.09-6.1l-3-2.1-.8-.5c-1.3-.9-2.7-1.7-4.1-2.5A34.18,34.18,0,0,0,955,594c-.9-.4-1.8-.7-2.6-1a13.36,13.36,0,0,1-1.8-.7,53.9,53.9,0,0,0-9.5-2.7h0c-.7-.1-1.3-.2-1.9-.3-.9-.2-1.9-.3-2.8-.5a40.45,40.45,0,0,0-4.9-.4c-1.8-.1-3.5,0-4.8,0-1.6,0-3.2.1-4.7.2a56.4,56.4,0,0,0-9.2,1.7,53.34,53.34,0,0,0-8.8,2.9c-1.4.6-2.9,1.3-4.2,2s-2.5,1.4-4,2.3a56.77,56.77,0,0,0-7.4,5.5,43.35,43.35,0,0,0-7.2,8.3,43,43,0,0,0,.79-10.9,48.84,48.84,0,0,0-1.29-9.2,31.91,31.91,0,0,0-1.3-4.4c-.5-1.4-1-2.7-1.5-4.1l-.1-.2a72.66,72.66,0,0,0-4.1-8.4c-.7-1.2-1.5-2.4-2.5-3.8s-1.8-2.6-2.8-3.8-2.1-2.5-3.1-3.6l-2-2c-.4-.4-.9-.8-1.4-1.3a51.17,51.17,0,0,0-7.8-6.1,62.18,62.18,0,0,0-8.6-4.9,72.58,72.58,0,0,0-8.8-3.4c-1.5-.5-3.1-.8-4.6-1.2a22.31,22.31,0,0,0-2.3-.4l-.7-.1-1.6-.3a57.38,57.38,0,0,0-9.3-.7c-1.6,0-3.1.1-4.6.2s-3.1.3-4.6.5a50.47,50.47,0,0,0-8.9,2.3,44.9,44.9,0,0,0-9.8,4.9,44.9,44.9,0,0,0,4.9-9.8,55.42,55.42,0,0,0,2.3-8.9c.2-1.5.4-3,.5-4.5s.2-3.1.2-4.7a57.38,57.38,0,0,0-.7-9.3c-.1-.5-.2-1.1-.3-1.6l-.1-.6c-.1-.8-.3-1.6-.4-2.3a34.47,34.47,0,0,0-1.2-4.6,81,81,0,0,0-3.4-8.9,61.75,61.75,0,0,0-4.9-8.5,51.17,51.17,0,0,0-6.1-7.8l-1.3-1.3a18.88,18.88,0,0,0-2-2,37.28,37.28,0,0,0-3.6-3.2c-1.2-1-2.5-1.9-3.8-2.8l-3.9-2.6a59.85,59.85,0,0,0-8.4-4.2l-.1-.1c-1.4-.5-2.7-1-4.1-1.5s-2.9-.9-4.4-1.3a47.44,47.44,0,0,0-9.2-1.3,43.46,43.46,0,0,0-10.9.8,43.35,43.35,0,0,0,8.3-7.2,45.86,45.86,0,0,0,5.5-7.4c.9-1.4,1.6-2.7,2.3-4s1.4-2.8,2-4.2a60.34,60.34,0,0,0,2.9-8.8,59.51,59.51,0,0,0,1.7-9.3,37.74,37.74,0,0,0,.2-4.7,38.29,38.29,0,0,0,0-4.8c-.1-1.6-.2-3.3-.4-4.9a23.25,23.25,0,0,0-.5-2.8c-.1-.6-.2-1.3-.3-1.9h0a54.94,54.94,0,0,0-2.7-9.6c-.2-.6-.5-1.2-.7-1.8a27.73,27.73,0,0,0-1-2.6,42.5,42.5,0,0,0-2.1-4.3c-.8-1.4-1.6-2.8-2.5-4.1l-.5-.8a27.3,27.3,0,0,0-2.1-3,51.71,51.71,0,0,0-6.2-7.1,64.93,64.93,0,0,0-7-6,53,53,0,0,0-7.9-4.7A40.83,40.83,0,0,0,708,352a45.17,45.17,0,0,0,10.4-3.4,53,53,0,0,0,7.9-4.7,64.93,64.93,0,0,0,7-6,50.92,50.92,0,0,0,6.1-7.1l2.1-3,.5-.8c.9-1.3,1.7-2.7,2.5-4.1a34.18,34.18,0,0,0,2.1-4.3c.4-.9.7-1.8,1-2.6a13.36,13.36,0,0,1,.7-1.8,53.9,53.9,0,0,0,2.7-9.5h0c.1-.7.2-1.3.3-1.9.2-.9.3-1.9.5-2.8a38.86,38.86,0,0,0,.4-4.9c.1-1.8,0-3.5,0-4.8,0-1.6-.1-3.2-.2-4.7a56.4,56.4,0,0,0-1.7-9.2,53.34,53.34,0,0,0-2.9-8.8c-.6-1.4-1.3-2.9-2-4.2s-1.4-2.5-2.3-4a50.74,50.74,0,0,0-5.5-7.4,43.35,43.35,0,0,0-8.3-7.2,41.1,41.1,0,0,0,8.6.8,18.48,18.48,0,0,0,2.3-.1,49.7,49.7,0,0,0,9.2-1.3,31.91,31.91,0,0,0,4.4-1.3c1.4-.5,2.7-.9,4-1.5l.3-.1a72.66,72.66,0,0,0,8.4-4.1c1.2-.7,2.4-1.5,3.8-2.5s2.6-1.8,3.8-2.8,2.5-2.1,3.6-3.1l2-2c.4-.4.8-.9,1.3-1.4a51.17,51.17,0,0,0,6.1-7.8A62.18,62.18,0,0,0,792,209a72.58,72.58,0,0,0,3.4-8.8c.5-1.5.8-3.1,1.2-4.6a22.31,22.31,0,0,0,.4-2.3l.1-.7c.1-.5.2-1.1.3-1.6a57.38,57.38,0,0,0,.7-9.3c0-1.6-.1-3.1-.2-4.6s-.3-3.1-.5-4.6a50.47,50.47,0,0,0-2.3-8.9,44.9,44.9,0,0,0-4.9-9.8,44.9,44.9,0,0,0,9.8,4.9,55.42,55.42,0,0,0,8.9,2.3c1.5.2,3,.4,4.5.5s3.1.2,4.7.2h.6a50.24,50.24,0,0,0,8.7-.7l1.6-.3.6-.1c.8-.1,1.6-.3,2.3-.4a34.47,34.47,0,0,0,4.6-1.2,81,81,0,0,0,8.9-3.4,61.75,61.75,0,0,0,8.5-4.9,51.17,51.17,0,0,0,7.8-6.1l1.3-1.3a18.88,18.88,0,0,0,2-2,37.28,37.28,0,0,0,3.2-3.6c1-1.2,1.9-2.5,2.8-3.8,1-1.5,1.9-2.7,2.6-3.9a65.82,65.82,0,0,0,4.2-8.4l.1-.1c.5-1.4,1-2.7,1.5-4.1s.9-3,1.3-4.4a46.67,46.67,0,0,0,1.29-9.2,43,43,0,0,0-.79-10.9,43.35,43.35,0,0,0,7.2,8.3,45.86,45.86,0,0,0,7.4,5.5c1.4.9,2.7,1.6,4,2.3s2.8,1.4,4.2,2a60.34,60.34,0,0,0,8.8,2.9,59.51,59.51,0,0,0,9.3,1.7,37.74,37.74,0,0,0,4.7.2c.9,0,1.9.1,3,.1h1.8c1.6-.1,3.3-.2,4.9-.4a23.25,23.25,0,0,0,2.8-.5l1.9-.3h0a57.49,57.49,0,0,0,9.6-2.7c.6-.2,1.2-.5,1.8-.7a27.73,27.73,0,0,0,2.6-1,41.35,41.35,0,0,0,4.29-2.1c1.41-.8,2.8-1.6,4.1-2.5l.8-.5c1-.7,2-1.3,3-2.1a51.71,51.71,0,0,0,7.1-6.2,64.93,64.93,0,0,0,6-7,53,53,0,0,0,4.7-7.9,40.83,40.83,0,0,0,3.4-10.4A45.17,45.17,0,0,0,992,82a53,53,0,0,0,4.7,7.9,64.93,64.93,0,0,0,6,7,50.92,50.92,0,0,0,7.1,6.1l3,2.1.8.5c1.3.9,2.7,1.7,4.1,2.5a42.5,42.5,0,0,0,4.3,2.1c.9.4,1.8.7,2.6,1a13.36,13.36,0,0,1,1.8.7,46.39,46.39,0,0,0,9.5,2.6h0c.7.1,1.31.2,1.9.3.91.2,1.91.3,2.81.5a38.71,38.71,0,0,0,4.9.4h1.8a25.32,25.32,0,0,0,2.9-.1c1.6,0,3.2-.1,4.7-.2a56.4,56.4,0,0,0,9.2-1.7,53.34,53.34,0,0,0,8.8-2.9c1.4-.6,2.9-1.3,4.2-2s2.6-1.4,4-2.3a51.28,51.28,0,0,0,7.4-5.5,43.35,43.35,0,0,0,7.2-8.3,43.93,43.93,0,0,0-.81,10.9,48.9,48.9,0,0,0,1.31,9.2,31.91,31.91,0,0,0,1.3,4.4c.5,1.4,1,2.7,1.5,4.1l.1.2a71.07,71.07,0,0,0,4.1,8.4c.69,1.2,1.5,2.4,2.5,3.8s1.8,2.6,2.8,3.8,2.1,2.5,3.1,3.6c.69.7,1.4,1.4,2,2,.4.4.9.8,1.4,1.3a51.17,51.17,0,0,0,7.8,6.1,56.88,56.88,0,0,0,8.6,4.9,72.58,72.58,0,0,0,8.8,3.4c1.5.4,3,.8,4.6,1.2a22.31,22.31,0,0,0,2.3.4l.6.1,1.6.3a50.24,50.24,0,0,0,8.7.7h.6c1.6,0,3.1-.1,4.6-.2s3.09-.3,4.59-.5a50.81,50.81,0,0,0,8.91-2.3,45.12,45.12,0,0,0,9.8-4.9,44.9,44.9,0,0,0-4.9,9.8,55.45,55.45,0,0,0-2.31,8.9c-.19,1.5-.4,3-.5,4.5s-.19,3.1-.19,4.7a57.38,57.38,0,0,0,.69,9.3c.1.6.2,1.1.31,1.7l.1.6c.09.8.3,1.6.4,2.3a34.45,34.45,0,0,0,1.19,4.6,81.12,81.12,0,0,0,3.41,8.9,59.74,59.74,0,0,0,4.9,8.5,51.17,51.17,0,0,0,6.1,7.8l1.3,1.3a18.88,18.88,0,0,0,2,2,37.28,37.28,0,0,0,3.6,3.2c1.19,1,2.5,1.9,3.8,2.8,1.5,1,2.7,1.9,3.9,2.6a59.85,59.85,0,0,0,8.4,4.2l.2.1c1.4.5,2.7,1,4.1,1.5s3,.9,4.4,1.3a47.44,47.44,0,0,0,9.2,1.3c.8,0,1.5.1,2.3.1a47.38,47.38,0,0,0,8.6-.8,46.6,46.6,0,0,0-8.3,7.2,45.28,45.28,0,0,0-5.5,7.4c-.91,1.4-1.6,2.7-2.31,4s-1.4,2.8-2,4.2a62.85,62.85,0,0,0-2.9,8.8,59.51,59.51,0,0,0-1.7,9.3,39.72,39.72,0,0,0-.19,4.7,38.2,38.2,0,0,0,0,4.8c.1,1.6.19,3.3.4,4.9a23.25,23.25,0,0,0,.5,2.8c.1.6.2,1.3.3,1.9h0a57.49,57.49,0,0,0,2.7,9.6c.2.6.5,1.2.7,1.8a25.21,25.21,0,0,0,1,2.6,42.38,42.38,0,0,0,2.09,4.3c.81,1.4,1.6,2.8,2.5,4.1l.5.8c.7,1,1.31,2,2.1,3a52.39,52.39,0,0,0,6.2,7.1,64.93,64.93,0,0,0,7,6,53,53,0,0,0,7.9,4.7,40.83,40.83,0,0,0,10.4,3.4,45.17,45.17,0,0,0-10.4,3.4,53,53,0,0,0-7.9,4.7,64.93,64.93,0,0,0-7,6,50.92,50.92,0,0,0-6.1,7.1l-2.1,3-.5.8c-.9,1.3-1.69,2.7-2.5,4.1a42.5,42.5,0,0,0-2.1,4.3c-.4.9-.69,1.8-1,2.6a13.28,13.28,0,0,1-.69,1.8,46.22,46.22,0,0,0-2.6,9.5h0c-.1.7-.2,1.3-.3,1.9-.2.9-.31,1.9-.5,2.8a38.85,38.85,0,0,0-.41,4.9c-.09,1.8,0,3.5,0,4.8,0,1.6.1,3.2.2,4.7a56.4,56.4,0,0,0,1.7,9.2,53.34,53.34,0,0,0,2.9,8.8c.6,1.4,1.3,2.9,2,4.2s1.4,2.6,2.3,4a56.77,56.77,0,0,0,5.5,7.4,43.41,43.41,0,0,0,8.31,7.2,43.51,43.51,0,0,0-10.91-.8,49.6,49.6,0,0,0-9.19,1.3c-1.5.4-3,.8-4.4,1.3s-2.7,1-4.1,1.5l-.2.1a72.66,72.66,0,0,0-8.4,4.1c-1.2.7-2.4,1.5-3.8,2.5s-2.6,1.8-3.81,2.8-2.5,2.1-3.6,3.1c-.69.7-1.4,1.4-2,2-.4.4-.8.9-1.3,1.4a51.17,51.17,0,0,0-6.1,7.8,64.32,64.32,0,0,0-4.9,8.6,72.58,72.58,0,0,0-3.4,8.8c-.4,1.5-.8,3-1.2,4.6-.19.8-.3,1.6-.4,2.3l-.1.6c-.1.6-.19,1.1-.3,1.6a57.38,57.38,0,0,0-.7,9.3c0,1.6.1,3.1.2,4.6s.3,3.1.5,4.6a50.47,50.47,0,0,0,2.3,8.9,45.35,45.35,0,0,0,4.9,9.8,44.67,44.67,0,0,0-9.8-4.9,55.42,55.42,0,0,0-8.9-2.3c-1.5-.2-3-.4-4.5-.5s-3.1-.2-4.7-.2a57.38,57.38,0,0,0-9.3.7l-1.6.3-.6.1c-.8.1-1.6.3-2.3.4a34.47,34.47,0,0,0-4.6,1.2,81,81,0,0,0-8.9,3.4,61.75,61.75,0,0,0-8.5,4.9,51.17,51.17,0,0,0-7.8,6.1l-1.3,1.3a18.88,18.88,0,0,0-2,2,37.28,37.28,0,0,0-3.2,3.6c-1,1.2-1.9,2.5-2.8,3.8-1,1.5-1.9,2.7-2.6,3.9a59.85,59.85,0,0,0-4.2,8.4l-.1.2C1098.63,584,1098.13,585.3,1097.63,586.7Zm65.2-7.6c-2.6,2-5.2,3.9-7.9,5.8-.7.5-1.4,1-2.2,1.5-.1.1-.3.2-.4.3-2.7,1.9-5.5,3.8-8.3,5.6l-3.2,2c-2.6,1.6-5.2,3.2-7.9,4.8l-1.7,1a15,15,0,0,1,.2-10,27.51,27.51,0,0,1,1.4-3,18.08,18.08,0,0,1,1.9-2.9,21.07,21.07,0,0,1,5.4-4.9h0a22.05,22.05,0,0,1,12.2-3.9h1.3a13.9,13.9,0,0,1,9.3,3.6Zm9.8-7.9c-1.3,1.1-2.5,2.1-3.8,3.1l-2.6,2a18.16,18.16,0,0,0-12.3-5.1,27.64,27.64,0,0,0-22.3,10.3,27.48,27.48,0,0,0-2.31,3.5,20.32,20.32,0,0,0-1.59,3.6,18.22,18.22,0,0,0,0,13.4c-1.7.9-3.41,1.9-5,2.8l-6.31,3.2c-2.4-6.3-2.19-13.5.6-20.7a34.59,34.59,0,0,1,6.1-10.6l.2-.2a58.93,58.93,0,0,1,4.2-4.5,40,40,0,0,1,5.2-4h0a39.37,39.37,0,0,1,11.8-5.5,35.86,35.86,0,0,1,10.8-1.7h1.4a35.29,35.29,0,0,1,11.5,2.3,23.37,23.37,0,0,1,7.9,5.1Zm6.6-5.7a27.27,27.27,0,0,0-9.4-6.1,41.9,41.9,0,0,0-6.3-1.9,42.27,42.27,0,0,0-20,1.1,44.73,44.73,0,0,0-13,6,35.26,35.26,0,0,0-5.7,4.5,41.48,41.48,0,0,0-4.5,4.9l-.2.3a42.83,42.83,0,0,0-6.8,11.8c-3.2,8.3-3.4,16.7-.5,24-3.9,1.9-7.8,3.7-11.7,5.3a37.46,37.46,0,0,1-2-14.7,40.52,40.52,0,0,1,1.2-8.4,27.69,27.69,0,0,1,1.2-4.1c.4-1.3.9-2.6,1.4-3.9l.1-.2a56.77,56.77,0,0,1,3.9-7.8c.7-1.1,1.4-2.3,2.4-3.7.8-1.2,1.7-2.4,2.6-3.6s1.9-2.3,2.9-3.3c.6-.6,1.2-1.2,1.9-1.8.5-.4.9-.9,1.4-1.3a43.44,43.44,0,0,1,7.2-5.6h0a48.81,48.81,0,0,1,7.9-4.5,72.11,72.11,0,0,1,8.4-3.2c1.4-.4,2.8-.8,4.3-1.1.7-.1,1.4-.3,2.2-.4l.7-.1,1.5-.3a54.2,54.2,0,0,1,8.1-.6h.6c1.4,0,2.9.1,4.4.2s2.9.3,4.2.5a54.72,54.72,0,0,1,8.2,2.1,38.63,38.63,0,0,1,12.8,7.5C1185.53,559.7,1182.43,562.6,1179.23,565.5Zm56.4-69.1c-1.6,2.7-3.2,5.3-4.8,7.9l-2,3.1c-1.8,2.8-3.7,5.6-5.6,8.4-.2.3-.5.7-.7,1-.4.5-.7,1-1.1,1.5-1.9,2.7-3.9,5.3-5.9,7.9l-.2.3a14.68,14.68,0,0,1-3.6-9.4,21.59,21.59,0,0,1,3.9-13.4h0a21.07,21.07,0,0,1,4.9-5.4,18.08,18.08,0,0,1,2.9-1.9,29.17,29.17,0,0,1,3.1-1.4,15.64,15.64,0,0,1,5.5-1,13.3,13.3,0,0,1,4.5.8Zm5.8-10.3c-.9,1.7-1.9,3.5-2.8,5.2a18.22,18.22,0,0,0-13.4,0,30.06,30.06,0,0,0-3.6,1.7,19.18,19.18,0,0,0-3.5,2.3,25.33,25.33,0,0,0-5.8,6.4,25.76,25.76,0,0,0-4.6,15.8,18.61,18.61,0,0,0,5.1,12.4l-1.7,2.2c-1.1,1.4-2.3,2.8-3.5,4.2l-3.1,3.6a26.18,26.18,0,0,1-6.7-13.4,43.19,43.19,0,0,1-.6-5.9,34,34,0,0,1,1.7-12.2,36.6,36.6,0,0,1,5.5-11.7h0a34.18,34.18,0,0,1,4-5.2,58.93,58.93,0,0,1,4.5-4.2l.2-.2a36.34,36.34,0,0,1,10.7-6.1,31.84,31.84,0,0,1,11.5-2.3,25.89,25.89,0,0,1,9.2,1.7Zm5-9.8c-7.3-2.9-15.7-2.8-23.9.4a38.33,38.33,0,0,0-11.8,6.8l-.2.2c-1.6,1.4-3.3,2.9-4.9,4.5a52.59,52.59,0,0,0-4.5,5.8,42.86,42.86,0,0,0-6,12.9,38.65,38.65,0,0,0-1.8,13.5,49.73,49.73,0,0,0,.7,6.5,32.83,32.83,0,0,0,1.9,6.3,30.51,30.51,0,0,0,6.1,9.4c-2.9,3.2-5.8,6.3-8.8,9.4a39.67,39.67,0,0,1-7.5-12.8,53.53,53.53,0,0,1-2.1-8.2c-.2-1.4-.4-2.8-.5-4.3s-.2-2.9-.2-4.4a63.6,63.6,0,0,1,.6-8.7l.3-1.5.1-.7c.1-.7.3-1.5.4-2.2.3-1.4.7-2.9,1.1-4.3a72.11,72.11,0,0,1,3.2-8.4,60.16,60.16,0,0,1,4.6-8h0a38.9,38.9,0,0,1,5.59-7.1l1.41-1.4c.59-.7,1.19-1.3,1.8-1.9,1-1,2.2-2,3.3-2.9a33.2,33.2,0,0,1,3.6-2.6c1.4-1,2.5-1.7,3.6-2.4a46.82,46.82,0,0,1,7.8-3.8l.1-.1c1.4-.5,2.7-1,4-1.4s2.7-.8,4.1-1.2a40.52,40.52,0,0,1,8.4-1.2h2.1a38,38,0,0,1,12.7,2.1C1250,468.6,1248.23,472.5,1246.43,476.3Zm25.5-84.4-1.2,7.8-.8,4.6c-.6,3.1-1.2,6.1-1.8,9.1-.1.6-.3,1.2-.4,1.7l-.1.4c-.3,1.5-.7,3-1,4.4-.1.4-.2.8-.3,1.3-.4,1.7-.9,3.4-1.3,5.2a15,15,0,0,1-6.9-7.3,20.36,20.36,0,0,1-1.9-6.5,21.66,21.66,0,0,1-.1-3.6c.1-1.3.3-2.7.5-3.8a22,22,0,0,1,2.5-6.9,18.06,18.06,0,0,1,2-2.9,24.89,24.89,0,0,1,2.3-2.5,14.85,14.85,0,0,1,9.2-4.1Zm1.5-12.9c-.2,1.7-.3,3.5-.5,5.2l-.1.8a18.66,18.66,0,0,0-12.4,5.1,35.76,35.76,0,0,0-2.7,2.9,26.16,26.16,0,0,0-2.4,3.4,25.87,25.87,0,0,0-2.9,8.2h0c-.2,1.3-.4,2.7-.5,4.3a30.88,30.88,0,0,0,.1,4.3,22.76,22.76,0,0,0,2.3,7.8,18,18,0,0,0,9.4,9.4c-1.2,4.1-2.4,8.2-3.8,12.3a23.45,23.45,0,0,1-7.7-5.4,32.25,32.25,0,0,1-6.5-9.7,39.25,39.25,0,0,1-3.2-11.9,34.32,34.32,0,0,1-.3-6.4,31.63,31.63,0,0,1,.3-3.2c.1-.5.2-1.1.3-1.7v-.1a7.77,7.77,0,0,0,.2-1.6h0a46.37,46.37,0,0,1,1.7-6.4,49.42,49.42,0,0,1,2.6-5.7l.1-.2a37.08,37.08,0,0,1,7.5-9.8c5.5-5.4,12.1-8.3,18.8-8.5Zm.9-10.8c-7.9.1-15.6,3.5-21.9,9.6a39.46,39.46,0,0,0-8.3,10.8l-.1.2a56.67,56.67,0,0,0-2.8,6.1,41.18,41.18,0,0,0-1.9,7.1c-.1.6-.2,1.1-.3,1.7v.1l-.3,1.8a21.88,21.88,0,0,0-.31,3.6,39.6,39.6,0,0,0,.31,7,41.16,41.16,0,0,0,3.5,13.1,40.44,40.44,0,0,0,7.3,10.9,30.36,30.36,0,0,0,9.3,6.4q-2.1,6.15-4.5,12a38.65,38.65,0,0,1-11.8-9,37.24,37.24,0,0,1-5-6.8c-.8-1.4-1.5-2.6-2.2-3.8s-1.3-2.6-1.9-3.9a57.5,57.5,0,0,1-2.7-8.3,62.17,62.17,0,0,1-1.6-8.7c-.1-1.5-.2-2.9-.2-4.5,0-1.2-.1-2.9,0-4.5s.2-3,.4-4.5c.1-.9.3-1.7.4-2.6.1-.7.2-1.3.3-2a50.83,50.83,0,0,1,2.4-8.7,14.58,14.58,0,0,0,.7-1.9,24.43,24.43,0,0,1,1-2.4c.6-1.3,1.2-2.7,1.9-4s1.5-2.5,2.3-3.8l.5-.8c.6-1,1.3-1.9,1.9-2.8a50.07,50.07,0,0,1,5.7-6.5,56.52,56.52,0,0,1,6.6-5.6,45,45,0,0,1,7.3-4.3,40,40,0,0,1,14.4-3.8C1274.73,359.6,1274.53,363.9,1274.33,368.2Zm-8.1-85.4c.1.4.2.7.3,1.1.3,1.4.7,2.8,1,4.2l.3,1.1c.1.4.2.9.3,1.3.7,3.1,1.3,6.2,1.9,9.3l.8,4.6c.4,2.6.8,5.2,1.2,7.9l.4,2.9a14.77,14.77,0,0,1-9.2-4.1,27.25,27.25,0,0,1-2.3-2.5,29.77,29.77,0,0,1-2-2.9,22.74,22.74,0,0,1-2.5-6.9c-.2-1.2-.4-2.5-.5-3.8a20.8,20.8,0,0,1,2-10.2,15,15,0,0,1,6.9-7.3C1265.33,279.3,1265.83,281.1,1266.23,282.8Zm-2.4-9.1a18.7,18.7,0,0,0-9.4,9.4,23.43,23.43,0,0,0-2.3,7.8,20.45,20.45,0,0,0-.1,4.3c.1,1.5.3,3,.5,4.2h0a26.76,26.76,0,0,0,2.9,8.2,20.76,20.76,0,0,0,2.4,3.4,18.23,18.23,0,0,0,2.7,2.9,18.47,18.47,0,0,0,12.4,5.1l.1.8c.2,1.7.4,3.5.5,5.2l.5,6.8c-6.7-.2-13.3-3.1-18.9-8.5a35.1,35.1,0,0,1-7.5-9.7l-.1-.2a58.59,58.59,0,0,1-2.6-5.7,33.45,33.45,0,0,1-1.7-6.4h0a7.77,7.77,0,0,1-.2-1.6v-.2c-.1-.5-.2-1.1-.3-1.6-.1-1.1-.2-2.2-.3-3.2a34.32,34.32,0,0,1,.3-6.4,35.3,35.3,0,0,1,3.2-11.8,34.32,34.32,0,0,1,6.6-9.8,26.86,26.86,0,0,1,7.7-5.4C1261.33,265.5,1262.63,269.6,1263.83,273.7Zm-5.1-16.1a28.72,28.72,0,0,0-9.3,6.4,39.14,39.14,0,0,0-7.3,10.9,47.34,47.34,0,0,0-3.8,20.2l.3,3.6c.1.6.2,1.2.3,1.7v.1c.1.6.2,1.1.3,1.7a40.08,40.08,0,0,0,1.9,7,49,49,0,0,0,2.8,6.1l.1.2a39.46,39.46,0,0,0,8.3,10.8c6.4,6.2,14.1,9.5,21.9,9.6.2,4.3.4,8.6.4,12.8a38.09,38.09,0,0,1-14.4-3.8,53.71,53.71,0,0,1-7.3-4.3,83.16,83.16,0,0,1-6.6-5.6,45,45,0,0,1-5.7-6.6,27.5,27.5,0,0,1-1.9-2.8l-.5-.8c-.8-1.2-1.6-2.5-2.3-3.8s-1.4-2.6-2-4c-.3-.7-.6-1.5-.9-2.3-.2-.6-.5-1.3-.7-1.9a44,44,0,0,1-2.4-8.8c-.1-.7-.2-1.3-.3-2a25.12,25.12,0,0,1-.4-2.7c-.2-1.5-.3-3-.4-4.5s0-3.3,0-4.6.1-2.9.2-4.4a64.91,64.91,0,0,1,1.6-8.7,60.49,60.49,0,0,1,2.7-8.2c.6-1.3,1.2-2.7,1.9-3.9s1.3-2.4,2.1-3.8a56.7,56.7,0,0,1,5-6.8,38.65,38.65,0,0,1,11.8-9C1255.83,249.5,1257.33,253.5,1258.73,257.6Zm-12.3-29.8c1.9,3.9,3.7,7.8,5.3,11.7a37.46,37.46,0,0,1-14.7,2,40.52,40.52,0,0,1-8.4-1.2,27.69,27.69,0,0,1-4.1-1.2c-1.3-.4-2.5-.9-3.9-1.4l-.2-.1a51.62,51.62,0,0,1-7.8-3.9c-1.1-.7-2.3-1.4-3.7-2.4-1.2-.8-2.4-1.7-3.6-2.6a31.09,31.09,0,0,1-3.3-2.9c-.6-.6-1.2-1.2-1.8-1.9-.4-.5-.9-.9-1.3-1.4a43.44,43.44,0,0,1-5.6-7.2h0a48.81,48.81,0,0,1-4.5-7.9,72.11,72.11,0,0,1-3.2-8.4c-.4-1.4-.8-2.8-1.1-4.3-.1-.7-.3-1.4-.4-2.2l-.1-.6-.3-1.5a49.08,49.08,0,0,1-.6-8.6c0-1.4.1-2.9.2-4.4s.3-2.9.5-4.2a54.72,54.72,0,0,1,2.1-8.2,38.63,38.63,0,0,1,7.5-12.8c3,3.1,5.9,6.2,8.8,9.4a27.27,27.27,0,0,0-6.1,9.4,41.9,41.9,0,0,0-1.9,6.3,42.27,42.27,0,0,0,1.1,20,44.73,44.73,0,0,0,6,13,35.26,35.26,0,0,0,4.5,5.7,41.48,41.48,0,0,0,4.9,4.5l.3.2a42.83,42.83,0,0,0,11.8,6.8,35.34,35.34,0,0,0,12.9,2.6A37.32,37.32,0,0,0,1246.43,227.8Zm-31.1-50.3.2.3c2,2.6,4,5.3,5.9,8,.4.5.7,1,1.1,1.5.2.3.5.7.7,1,1.9,2.8,3.8,5.6,5.6,8.4l2,3.1c1.6,2.6,3.2,5.2,4.8,7.9l1,1.7a15,15,0,0,1-10-.2c-1-.4-2.1-.9-3.1-1.4a18.08,18.08,0,0,1-2.9-1.9,21.07,21.07,0,0,1-4.9-5.4h0a21.69,21.69,0,0,1-3.9-13.5A14.16,14.16,0,0,1,1215.33,177.5Zm-4.5-5.8,2,2.6a18.16,18.16,0,0,0-5.1,12.3,25.76,25.76,0,0,0,4.5,15.9,25.33,25.33,0,0,0,5.8,6.4c1.1.8,2.3,1.6,3.5,2.3a19.64,19.64,0,0,0,3.6,1.6,21,21,0,0,0,6.9,1.3,15.73,15.73,0,0,0,6.5-1.3c.9,1.7,1.9,3.4,2.8,5.1l3.2,6.3c-6.3,2.4-13.5,2.2-20.7-.6a34.59,34.59,0,0,1-10.6-6.1l-.2-.2a58.93,58.93,0,0,1-4.5-4.2,40,40,0,0,1-4-5.2h0a39.37,39.37,0,0,1-5.5-11.8,35.38,35.38,0,0,1-1.6-12.1,35.29,35.29,0,0,1,2.3-11.5,23.37,23.37,0,0,1,5.1-7.9l3,3.5C1208.73,169.2,1209.73,170.5,1210.83,171.7Z" fill="#e65661"/></svg>