<?xml version="1.0" encoding="utf-8"?>
<!-- Generator: Adobe Illustrator 23.0.3, SVG Export Plug-In . SVG Version: 6.00 Build 0)  -->
<svg version="1.1" id="Layer_1" xmlns="http://www.w3.org/2000/svg" xmlns:xlink="http://www.w3.org/1999/xlink" x="0px" y="0px"
	 viewBox="0 0 432 432" style="enable-background:new 0 0 432 432;" xml:space="preserve">
<path d="M415.99,175.88c0.64,0.9,1.37,1.77,2.04,2.63c1.39,1.7,2.96,3.27,4.72,4.59c2.68,2,7.52,3.32,8.96-0.92
	c0.67-1.98,0.09-3.95-0.98-5.66c-0.27-0.43-0.57-0.84-0.89-1.23c-0.33-0.39-0.69-0.75-1.06-1.1c-0.73-0.69-1.49-1.29-2.18-1.79
	c-4.28-3.04-9.2-4.19-14.12-3.75c-0.01,0-0.03,0.01-0.05,0.01l-1.99-5.98l-0.99-2.98c-0.34-0.99-0.75-1.96-1.12-2.94l-2.27-5.85
	c-0.77-1.94-1.68-3.83-2.51-5.75c1.7,1.56,3.49,3.13,5.15,4.78c2.35,2.36,4.64,5.21,7.33,7.35c2.51,2.1,6.34,2.63,7.38-1.4
	c0.32-1.16,0.15-2.29-0.23-3.38c-0.39-1.09-1.04-2.13-1.81-3.1c-0.77-0.96-1.67-1.85-2.57-2.62c-0.45-0.39-0.89-0.75-1.34-1.08
	c-0.45-0.33-0.89-0.62-1.29-0.89c-2.29-1.52-4.69-2.62-7.15-3.33c-2.48-0.71-4.96-1.05-7.6-1l-2.6-5.17l-1.29-2.58l-1.41-2.52
	l-2.83-5.04c-0.45-0.85-0.97-1.66-1.48-2.48l-1.53-2.45c1.18,0.27,2.33,0.69,3.45,1.19c1.12,0.5,2.25,1.07,3.29,1.72
	c2.12,1.27,4.23,2.65,6.5,3.7c1.01,0.46,2.16,0.88,3.37,1.17c1.18,0.3,2.4,0.49,3.59,0.47c2.37-0.03,4.59-0.86,5.87-3.17
	c1.36-2.43,0.73-4.49-0.66-6.08c-1.4-1.59-3.6-2.67-5.61-3.13c-1.79-0.43-3.68-0.66-5.52-0.79c-1.85-0.13-3.69-0.12-5.5-0.01
	c-3.64,0.22-7.2,0.9-10.62,1.9l-0.02,0.01c-0.27-0.42-0.52-0.86-0.8-1.28l-0.86-1.24l-1.71-2.48l-1.71-2.48
	c-0.57-0.83-1.13-1.66-1.75-2.45c-2.45-3.19-4.76-6.47-7.38-9.51c1.27,0.36,2.8,0.79,4.41,1.16c1.57,0.39,3.19,0.73,4.69,0.83
	c2.99,0.19,5.48-0.55,5.74-3.75c0.15-2.05-0.63-3.36-2.01-4.01c-1.39-0.66-3.29-0.74-5.27-0.5c-3.98,0.49-8.28,2.29-9.72,3.12
	c-0.1,0.06-0.19,0.13-0.26,0.21c-1.29-1.64-2.74-3.14-4.12-4.7l-2.09-2.32c-0.7-0.77-1.38-1.56-2.12-2.29
	c-2.94-2.95-5.77-6-8.87-8.78c1.49,0.33,3.13,0.75,4.78,1.1c1.6,0.39,3.21,0.7,4.66,0.73c2.9,0.05,5.23-1,5.56-4.94
	c0.19-2.4-0.66-3.8-2.11-4.44c-1.47-0.62-3.49-0.52-5.6-0.04c-4.22,0.95-8.76,3.43-10.29,4.35c-0.1,0.06-0.18,0.13-0.25,0.21
	c-8.24-7.4-17-14.21-26.22-20.37c-0.41-0.27-0.81-0.54-1.21-0.81c1.53-0.03,3.08-0.02,4.64,0.02c1.54,0.02,3.07,0.24,4.62,0.43
	c1.55,0.19,3.11,0.35,4.66,0.34c3.21-0.04,7.21-1.84,6.32-5.62c-0.46-1.93-1.96-3.24-3.75-4.02c-0.89-0.39-1.86-0.65-2.81-0.79
	c-0.95-0.15-1.92-0.12-2.76-0.03c-5.62,0.65-10.48,4.24-14.98,7.02c-8.18-5.14-16.73-9.72-25.5-13.9c1.1,0.12,2.23,0.33,3.41,0.48
	c1.18,0.15,2.39,0.28,3.61,0.35c2.43,0.15,4.87,0.1,6.96-0.15c4.19-0.58,7.29-2.53,6.51-7.36c-0.41-2.4-1.98-3.62-3.93-4.05
	c-1.97-0.39-4.27-0.07-6.12,0.39c-1.77,0.44-3.47,1.05-5.13,1.71c-1.67,0.68-3.33,1.46-4.98,2.13c-1.65,0.68-3.31,1.27-5.01,1.64
	c-0.85,0.19-1.71,0.32-2.59,0.39c-0.89,0.09-1.8,0.13-2.73,0.08c-0.8-0.32-9.21-3.65-15.23-6.04c0.04,0.01,0.08,0.01,0.12,0.01
	c2.28,0.26,4.56,0.3,6.73-0.01c0.9-0.13,1.82-0.39,2.7-0.78c0.87-0.36,1.68-0.83,2.35-1.43c1.35-1.19,2.15-2.83,1.64-4.89
	c-0.23-0.91-0.68-1.65-1.28-2.24c-0.61-0.56-1.37-0.97-2.2-1.27c-1.66-0.59-3.62-0.69-5.27-0.54c-2.74,0.21-5.46,1.17-7.9,2.25
	c-0.35,0.15-2.18,1.19-3.88,2.21c-0.85,0.51-1.68,1.02-2.29,1.4c-0.61,0.38-1.01,0.65-1.02,0.68c-0.5-0.53-1.14-0.32-1.47,0.14
	l-5.29-0.69l-2.64-0.34c-0.88-0.12-1.77-0.16-2.65-0.24l-5.31-0.43l-2.65-0.21l-2.66-0.08c-0.23-0.16-0.45-0.32-0.69-0.48
	c1.07-0.26,2.14-0.56,3.2-0.91c1.06-0.33,2.1-0.66,3.13-1.08c2.05-0.81,4.02-1.84,5.83-3.12c1.38-0.97,2.73-2.53,3.31-4.12
	c0.57-1.61,0.37-3.37-1.44-4.67c-1.68-1.23-3.74-1.27-5.7-0.76c-1.96,0.51-3.81,1.55-5.18,2.61c-4.21,3.17-6.82,7.51-7.92,12.32
	c-0.01,0.01,0,0.03-0.01,0.05c-2.1-0.11-4.2-0.01-6.3,0.02l-6.29,0.13l-6.27,0.43l-3.13,0.21c-1.04,0.06-2.08,0.23-3.12,0.33
	c1.01-0.57,2.02-1.21,3.05-1.74l3.1-1.62c1.49-0.77,3.09-1.49,4.67-2.26c0.79-0.37,1.58-0.8,2.35-1.18c0.77-0.38,1.52-0.8,2.23-1.25
	c2.78-1.76,4.46-5.26,0.94-7.45c-1.01-0.63-2.13-0.89-3.29-0.89c-1.16,0.02-2.35,0.35-3.5,0.79c-2.31,0.9-4.46,2.38-5.98,3.53
	c-0.54,0.41-1.06,0.83-1.55,1.27c-0.49,0.45-0.96,0.93-1.41,1.42c-0.9,0.97-1.7,2-2.42,3.07c-1.44,2.14-2.53,4.46-3.31,6.92
	c-0.96,0.12-1.92,0.2-2.88,0.35l-2.86,0.48l-5.71,0.95c-0.95,0.14-1.89,0.37-2.84,0.57l-2.83,0.61c-1.88,0.42-3.77,0.78-5.64,1.25
	c1.25-2.09,3.02-3.74,4.87-5.41c0.94-0.83,1.88-1.66,2.82-2.49c0.47-0.42,0.93-0.85,1.38-1.29c0.45-0.44,0.9-0.85,1.33-1.3
	c1.52-1.58,3.02-3.77,3.73-6.05c0.7-2.28,0.61-4.64-1.2-6.55c-1.88-1.98-4.05-2.13-6-1.35c-1.94,0.87-3.65,2.66-4.71,4.45
	c-1.91,3.24-3.3,6.59-4.21,10.13c-0.91,3.55-1.37,7.16-1.48,10.74l0.01,0.03c-1.94,0.53-3.9,1.01-5.83,1.57l-5.75,1.82l-2.87,0.9
	c-0.95,0.32-1.89,0.69-2.83,1.03l-5.66,2.07c1.48-2.14,3.61-5.17,4.72-8c1.1-2.82,1.16-5.43-1.8-6.62c-3.82-1.52-5.8,1.63-6.57,5.5
	c-0.77,3.91-0.36,8.63-0.01,10.24c0.02,0.12,0.07,0.22,0.12,0.32l-5.77,2.41c-1.9,0.85-3.77,1.77-5.66,2.65l-2.83,1.33
	c-0.95,0.43-1.85,0.96-2.78,1.43l-5.53,2.9c1.56-2.57,3.73-5.61,4.66-8.4c0.46-1.41,0.64-2.68,0.23-3.85
	c-0.4-1.15-1.4-2.21-3.22-2.96c-4.44-1.78-6.26,1.7-6.65,5.94c-0.22,2.1-0.04,4.52,0.2,6.55c0.25,2.04,0.61,3.75,0.81,4.63
	c0.02,0.11,0.07,0.21,0.12,0.3c-4.83,2.71-9.48,5.72-14.1,8.77l-6.81,4.76l-6.6,5.05c-0.38,0.3-0.79,0.57-1.16,0.89
	c0.44-1.47,0.96-2.9,1.49-4.35c0.53-1.42,1.18-2.84,1.82-4.28c0.32-0.72,0.63-1.45,0.92-2.17c0.31-0.71,0.59-1.42,0.83-2.15
	c0.98-3.01,0.53-7.34-3.39-7.7c-1-0.09-1.93,0.11-2.78,0.51c-0.42,0.2-0.83,0.45-1.2,0.74c-0.37,0.31-0.71,0.65-1.02,1.03
	c-1.27,1.49-2.12,3.42-2.47,5.07c-1.21,5.41,0.86,11.31,2.09,16.4l-2.79,2.31c-0.94,0.76-1.8,1.61-2.71,2.41
	c-1.78,1.63-3.62,3.21-5.38,4.88l-5.2,5.08c-0.89,0.83-1.71,1.72-2.54,2.6l-2.5,2.64c0.49-0.97,1-2.02,1.49-3.11
	c0.5-1.08,0.93-2.25,1.42-3.34c0.93-2.22,1.69-4.51,2.03-6.62c0.17-1.06,0.24-2.07,0.17-3.01c-0.07-0.94-0.24-1.77-0.61-2.52
	c-0.73-1.49-2.17-2.58-4.61-2.96c-4.81-0.66-6.32,4.65-6.58,8.42c-0.21,3.67,0.34,7.29,0.56,10.8c0.06,0.88,0.08,1.74,0.1,2.63
	c0.02,0.89,0.01,1.77-0.06,2.64c-0.14,1.75-0.49,3.48-1.2,5.19c-0.63,0.71-7.12,8.87-10.93,13.67c0.19-0.39,0.37-0.78,0.54-1.18
	c0.92-2.11,1.58-4.31,2.04-6.41c0.68-3.49-0.49-8.24-4.66-8.54c-1.85-0.12-3.32,0.82-4.43,2.2c-0.55,0.69-1.03,1.47-1.38,2.31
	c-0.34,0.84-0.59,1.71-0.76,2.53c-0.56,2.72-0.59,5.54-0.36,8.17c0.03,0.37,0.49,2.45,0.95,4.4c0.23,0.98,0.47,1.92,0.66,2.63
	c0.1,0.35,0.17,0.64,0.23,0.85c0.06,0.21,0.1,0.32,0.11,0.33c-0.68,0.3-0.68,0.96-0.36,1.42c-0.4,0.79-0.82,1.57-1.21,2.37
	l-1.11,2.43l-2.21,4.84c-0.77,1.6-1.37,3.27-2.04,4.91l-1.97,4.93c-0.23,0.17-0.46,0.32-0.69,0.49c0.24-2.16,0.3-4.38,0.13-6.59
	c-0.16-2.21-0.6-4.44-1.18-6.51c-0.94-3.17-4.04-7.05-7.78-4.5c-0.86,0.6-1.51,1.36-1.88,2.26c-0.38,0.9-0.57,1.89-0.62,2.9
	c-0.1,2.03,0.37,4.13,0.88,5.73c0.77,2.45,2.07,4.67,3.66,6.58c1.59,1.9,3.49,3.49,5.62,4.77c0.01,0.01,0.03,0.01,0.04,0.02
	c-2.83,7.91-4.88,16.05-6.74,24.19c-0.47-2.27-0.86-4.54-1.27-6.86c-0.28-1.65-0.53-3.41-0.73-5.14c-0.19-1.73-0.43-3.45-0.86-5.1
	c-0.85-3.2-3.68-5.88-6.82-3.2c-1.78,1.55-2.35,3.95-2.24,6.42c0.17,2.48,0.94,4.99,1.58,6.79c0.91,2.56,2.14,4.84,3.79,6.88
	c1.61,2.03,3.5,3.78,5.61,5.28c-1.49,7.58-2.33,15.25-2.97,22.91c-1.56-1.83-2.65-4.02-3.68-6.29c-0.51-1.15-1.02-2.3-1.53-3.45
	c-0.48-1.14-0.99-2.27-1.58-3.36c-1.05-1.93-2.7-4.03-4.66-5.4c-1.97-1.37-4.25-2.01-6.61-0.87c-2.45,1.18-3.25,3.2-3.09,5.3
	c0.12,2.09,1.38,4.27,2.76,5.83c2.51,2.81,5.34,5.16,8.39,7.11c1.51,0.97,3.1,1.85,4.75,2.63c1.64,0.78,3.32,1.47,5.01,2.07l0.03,0
	l-0.26,6.02l-0.07,1.5l0,1.51l0.01,3.01c0.01,2.01,0,4.01,0.03,6.02l0.3,6.01c-1.59-2.07-3.91-5.03-6.22-6.95
	c-2.28-1.91-4.72-2.78-6.85-0.34c-0.7,0.78-1.03,1.55-1.11,2.29c-0.08,0.74,0.09,1.45,0.44,2.13c0.72,1.35,2.19,2.53,3.93,3.5
	c3.48,1.94,8.01,3.01,9.66,3.19c0.12,0.01,0.23,0,0.34-0.02c0.75,8.3,1.63,16.57,3.28,24.73c-1.01-1.14-2.08-2.45-3.2-3.7
	c-1.14-1.25-2.18-2.45-3.35-3.33c-2.31-1.75-4.8-2.27-7.4,0.72c-3.23,3.68-0.36,6.47,3.59,8.16c3.97,1.72,9.09,2.38,10.87,2.53
	c0.12,0.01,0.22,0,0.32-0.02c2.31,10.82,5.4,21.47,9.23,31.85c0.17,0.46,0.34,0.91,0.51,1.37c-1.26-0.87-2.51-1.78-3.76-2.73
	c-1.24-0.92-2.32-2.01-3.47-3.06c-1.14-1.06-2.31-2.1-3.57-3c-2.62-1.85-6.92-2.74-8.42,0.84c-0.76,1.83-0.31,3.77,0.68,5.45
	c0.99,1.68,2.5,3.11,4.01,3.93c4.94,2.77,11.01,2.7,16.25,3.1c3.64,8.94,7.84,17.67,12.48,26.19c-1.57-1.53-3.29-3.25-5.19-4.78
	c-0.94-0.77-1.91-1.51-2.89-2.17c-0.96-0.67-1.88-1.29-2.83-1.79c-3.74-1.98-7.4-2.22-9.6,2.16c-1.09,2.19-0.49,4.08,0.8,5.59
	c1.37,1.47,3.42,2.55,5.19,3.26c1.69,0.68,3.43,1.18,5.17,1.61c1.72,0.45,3.55,0.77,5.28,1.2c1.74,0.42,3.43,0.91,5.03,1.6
	c0.8,0.34,1.58,0.74,2.33,1.2c0.74,0.46,1.53,0.95,2.24,1.54c0.53,0.83,7.13,10.42,10.64,15.54c-0.65-0.61-1.32-1.21-1.95-1.81
	c-1.69-1.55-3.51-2.91-5.45-3.94c-0.8-0.42-1.71-0.75-2.64-0.95c-0.91-0.22-1.85-0.31-2.74-0.23c-1.79,0.17-3.41,1.03-4.21,2.99
	c-0.35,0.87-0.42,1.73-0.28,2.56c0.15,0.82,0.53,1.59,1.03,2.32c1,1.45,2.52,2.68,3.95,3.52c2.34,1.43,5.11,2.25,7.71,2.81
	c0.37,0.08,2.46,0.32,4.44,0.49c0.99,0.09,1.95,0.17,2.67,0.21c0.36,0.03,0.67,0.03,0.89,0.04c0.22,0.01,0.34,0,0.35,0
	c0.09,0.72,0.73,0.92,1.27,0.75l3.86,3.68c0.65,0.61,1.27,1.24,1.94,1.82l2.01,1.75l4.02,3.48l1,0.87l1.04,0.82l2.09,1.65
	c0.09,0.27,0.18,0.52,0.27,0.8c-1.01-0.43-2.04-0.82-3.1-1.16c-0.53-0.17-1.06-0.33-1.6-0.48c-0.53-0.15-1.05-0.32-1.59-0.45
	c-2.13-0.56-4.33-0.89-6.54-0.93c-3.35-0.04-8.04,1.74-6.7,6.01c1.29,3.98,6.44,5,9.88,4.89c5.25-0.06,9.91-2.02,13.63-5.26
	c0.01-0.01,0.02-0.03,0.04-0.03l5.12,3.67l2.56,1.83c0.86,0.59,1.76,1.15,2.63,1.72l5.28,3.41c1.78,1.09,3.61,2.12,5.41,3.18
	c-2.3-0.27-4.65-0.51-6.98-0.84c-3.29-0.53-6.81-1.51-10.25-1.65c-3.27-0.23-6.68,1.6-5.15,5.47c0.89,2.2,3.09,3.37,5.46,4.04
	c2.39,0.65,4.96,0.77,6.92,0.66c2.75-0.11,5.33-0.62,7.74-1.48c2.41-0.86,4.64-2.08,6.75-3.65l5.14,2.68
	c0.86,0.44,1.7,0.91,2.57,1.33l2.63,1.22l5.24,2.44c1.76,0.78,3.56,1.47,5.34,2.22c-2.23,0.93-4.69,1.35-7.17,1.6
	c-2.46,0.21-4.98,0.32-7.43,0.8c-2.18,0.43-4.71,1.38-6.6,2.76c-1.9,1.42-3.22,3.38-2.89,6.01c0.16,1.38,0.68,2.38,1.41,3.11
	c0.73,0.73,1.67,1.18,2.7,1.42c2.06,0.47,4.48,0.06,6.38-0.74c6.92-3.04,12.54-7.94,16.89-13.56l0.01-0.03
	c0.92,0.4,1.89,0.7,2.83,1.05l2.84,1.02l2.84,1.02l1.42,0.51l1.44,0.44c3.85,1.15,7.65,2.45,11.57,3.37c-1.24,0.46-2.73,1-4.25,1.65
	c-1.5,0.62-3.01,1.28-4.28,2.08c-2.53,1.6-4.12,3.65-2.44,6.4c1.08,1.75,2.48,2.36,3.99,2.07c1.51-0.28,3.1-1.33,4.56-2.69
	c2.93-2.72,5.35-6.71,6.03-8.23c0.05-0.11,0.07-0.22,0.09-0.33c2.01,0.57,4.06,0.94,6.1,1.38c2.04,0.42,4.07,0.9,6.12,1.26
	l6.17,1.01c1.03,0.17,2.05,0.35,3.08,0.5l3.1,0.36c-0.7,0.3-1.45,0.62-2.2,0.94c-0.76,0.32-1.54,0.66-2.3,0.96
	c-1.53,0.63-3.01,1.32-4.2,2.16c-2.38,1.67-3.65,3.89-1.59,7.26c1.26,2.05,2.78,2.66,4.33,2.36c1.55-0.32,3.13-1.63,4.55-3.25
	c2.85-3.26,5.06-7.95,5.75-9.59c0.05-0.11,0.07-0.21,0.08-0.31c11.02,1.14,22.12,1.5,33.21,1.12c0.49-0.03,0.98-0.06,1.46-0.08
	c-0.61,0.47-1.23,0.94-1.86,1.4c-0.63,0.46-1.26,0.86-1.91,1.29c-2.53,1.64-5.47,2.99-7.95,4.86c-2.57,1.89-4.75,5.58-1.79,8.23
	c0.38,0.33,0.78,0.6,1.21,0.8c0.43,0.19,0.88,0.31,1.34,0.38c0.92,0.14,1.89,0.07,2.84-0.15c1.91-0.44,3.73-1.48,4.98-2.59
	c0.52-0.46,1.01-0.95,1.46-1.47c0.45-0.53,0.87-1.1,1.27-1.69c0.79-1.17,1.47-2.42,2.08-3.69c1.22-2.55,2.18-5.23,3.18-7.65
	c9.64-0.68,19.29-1.77,28.81-3.7c-1.95,0.98-4.09,2.21-6.15,3.52c-2.07,1.24-4.03,2.64-5.55,4.14c-3.03,3.02-4.4,6.39-0.92,9.82
	c1.74,1.69,3.72,1.68,5.55,0.89c0.92-0.39,1.8-0.98,2.6-1.65c0.81-0.66,1.53-1.41,2.14-2.17c2.34-2.84,4.03-6.09,5.92-9.05
	c0.95-1.46,1.93-2.95,3.08-4.29c1.14-1.34,2.45-2.53,4.03-3.5c0.84-0.19,9.85-2.58,16.23-4.29c-0.16,0.09-0.32,0.18-0.48,0.27
	c-0.99,0.59-1.95,1.22-2.85,1.9c-0.9,0.69-1.78,1.33-2.58,2.09c-2.6,2.43-4.45,6.97-1.25,9.65c1.43,1.18,3.18,1.28,4.88,0.81
	c0.85-0.23,1.69-0.6,2.48-1.05c0.77-0.48,1.49-1.04,2.11-1.61c2.05-1.88,3.73-4.15,5.09-6.42c0.2-0.3,1.06-2.25,1.82-4.11
	c0.38-0.93,0.75-1.84,1.01-2.52c0.13-0.34,0.24-0.62,0.31-0.82c0.07-0.2,0.11-0.32,0.11-0.33c0.72,0.15,1.12-0.38,1.12-0.95
	l2.38-1.21c0.79-0.41,1.55-0.87,2.32-1.31l4.63-2.64c0.76-0.45,1.55-0.86,2.3-1.34l2.25-1.43l4.48-2.85c0.28,0,0.56,0,0.85,0.01
	c-1.46,1.61-2.81,3.38-3.97,5.27c-0.58,0.95-1.12,1.93-1.59,2.93c-0.48,1.01-0.93,1.98-1.29,3.02c-1.1,3.12-0.86,8.09,3.66,8.2
	c1.05,0.02,2.01-0.25,2.86-0.71c0.83-0.5,1.57-1.2,2.2-2c1.27-1.59,2.13-3.57,2.65-5.17c0.4-1.23,0.67-2.47,0.83-3.71
	c0.14-1.26,0.16-2.52,0.07-3.75c-0.17-2.47-0.78-4.88-1.75-7.16c0-0.02-0.02-0.03-0.02-0.04c6.94-4.74,13.39-10.13,19.68-15.63
	c-0.95,2.11-1.98,4.18-3.01,6.3c-0.75,1.5-1.58,3.07-2.44,4.58c-0.86,1.51-1.68,3.05-2.3,4.63c-1.19,3.09-0.47,6.92,3.64,6.58
	c2.35-0.2,4.22-1.83,5.58-3.88c1.32-2.11,2.18-4.58,2.72-6.42c0.39-1.3,0.66-2.6,0.83-3.89c0.18-1.28,0.2-2.62,0.15-3.9
	c-0.11-2.59-0.6-5.11-1.42-7.56c2.87-2.58,5.49-5.43,8.19-8.17c1.37-1.35,2.61-2.84,3.9-4.27l3.83-4.32c0.19,2.4-0.24,4.8-0.76,7.23
	c-0.52,2.43-1.13,4.92-1.49,7.34c-0.29,2.17-0.2,4.83,0.57,7.1c0.78,2.26,2.25,4.12,4.83,4.59c2.68,0.49,4.52-0.67,5.63-2.45
	c1.11-1.79,1.39-4.28,1.2-6.34c-0.36-3.73-1.25-7.29-2.57-10.66c-1.36-3.41-3.12-6.6-5.14-9.55l-0.02-0.02
	c1.26-1.57,2.55-3.11,3.79-4.69l3.59-4.85l1.79-2.42l1.69-2.5l3.37-4.98c0.06,2.6,0.12,6.3,0.88,9.24c0.77,2.92,2.25,5.07,5.35,4.3
	c3.99-1,3.74-4.71,2.08-8.29c-1.7-3.64-4.79-7.19-6.02-8.31c-0.09-0.08-0.18-0.14-0.28-0.18l3.27-5.32l3.02-5.46l1.52-2.73l1.4-2.79
	l2.79-5.58c0.24,2.99,0.26,6.72,1.14,9.52c0.45,1.41,1.09,2.57,2.09,3.27c1.01,0.7,2.43,0.97,4.33,0.5c4.65-1.16,4.08-5.03,1.92-8.7
	c-2.22-3.72-6.05-7.29-7.4-8.46c-0.09-0.08-0.18-0.13-0.27-0.17c1.11-2.53,2.31-5.03,3.27-7.63l1.53-3.86
	c0.51-1.29,1.04-2.56,1.47-3.88l2.71-7.84l2.37-7.96c0.14-0.47,0.3-0.93,0.41-1.4c0.5,1.44,0.93,2.9,1.35,4.39
	c0.41,1.46,0.71,2.99,1.05,4.53c0.17,0.77,0.34,1.54,0.54,2.3c0.17,0.75,0.36,1.5,0.59,2.23c0.97,3.02,3.88,6.25,7.27,4.24
	c1.7-1.03,2.6-2.82,2.71-4.79c0.15-1.95-0.3-4.01-0.98-5.55c-2.2-5.09-7.35-8.64-11.35-12.04c1.29-4.66,2.12-9.42,3.16-14.14
	l1.17-7.16l0.3-1.79c0.11-0.6,0.2-1.2,0.26-1.8l0.43-3.61c0.84,4.32,1.76,9.64,3.74,13.47c1.01,1.91,2.11,3.43,3.59,4.21
	c1.47,0.78,3.27,0.81,5.48-0.32c2.21-1.13,2.73-3.02,2.54-5c-0.21-1.99-1.2-4.06-2.18-5.67c-1.94-3.09-4.59-5.69-6.84-8.4
	c-1.15-1.36-2.17-2.74-3.08-4.24c-0.94-1.5-1.69-3.1-2.15-4.9c0.06-0.82,0.62-9.65,1.05-16.42c0.02,0.07,0.03,0.15,0.05,0.23
	c0.3,1.12,0.52,2.23,0.87,3.3c0.33,1.07,0.73,2.11,1.2,3.09c1.56,3.22,5.34,6.37,8.86,4.17c3.1-1.98,2.45-6.5,1.17-9.54
	c-1.13-2.53-2.85-4.82-4.61-6.81c-0.25-0.28-1.79-1.7-3.27-3.01c-0.73-0.66-1.5-1.28-2.08-1.74c-0.29-0.23-0.53-0.42-0.7-0.55
	c-0.17-0.13-0.27-0.21-0.29-0.2c0.36-0.64-0.04-1.18-0.58-1.36l-0.92-5.25l-0.23-1.31l-0.29-1.3l-0.59-2.6l-1.18-5.18
	c-0.18-0.87-0.44-1.71-0.67-2.57l-0.71-2.56c0.09-0.27,0.17-0.53,0.26-0.8C414.73,174.05,415.34,174.97,415.99,175.88z
	 M47.03,116.59c0.03,0.02,0.06,0.04,0.09,0.06c-0.06,0.04-0.12,0.07-0.18,0.11C46.97,116.7,47,116.65,47.03,116.59z M414.54,185.03
	c0.28,1.31,0.63,2.61,0.86,3.93l0.69,3.96c-0.15-0.01-0.33,0.02-0.5,0.11c-2.17,1.14-4.41,2.3-6.44,3.68
	c-1.01,0.69-1.97,1.43-2.85,2.25c-0.87,0.82-1.73,1.73-2.44,2.74c-0.83,1.18-1.72,2.86-2.1,4.55c-0.19,0.84-0.26,1.69-0.13,2.48
	c0.13,0.79,0.38,1.53,0.94,2.16c2.04,2.36,5.58,0.95,7.64-0.71c1.57-1.22,2.79-2.72,3.85-4.37c0.76-1.19,1.44-2.45,2.06-3.76
	c-0.39,6.09-1.27,20.16-1.35,21.1c-0.06,0.17-0.08,0.35-0.04,0.56c-0.11,1.48-0.23,2.96-0.34,4.44c-5.39-0.15-10.79,0.81-15.78,2.83
	c-1.3,0.53-2.95,1.34-4.03,2.4c-1.1,1.06-1.56,2.37-0.7,3.97c0.88,1.65,2.82,1.97,4.88,1.74c2.06-0.23,4.26-1.02,5.62-1.51
	c3.57-1.31,6.78-3.35,9.6-5.99c-1.02,10.09-2.95,20.04-5.32,29.84c-0.44-0.18-0.99-0.06-1.29,0.44c-0.07,0.12-0.15,0.24-0.22,0.36
	c-2.68-0.1-5.34,0.06-7.92,0.46c-2.6,0.4-5.07,1.07-7.58,1.94c-1.56,0.56-3.67,1.43-4.88,2.57c-1.22,1.14-1.51,2.58,0.39,4.37
	c1.44,1.36,3.4,2.1,5.46,2.33c1.03,0.12,2.08,0.11,3.1-0.01c1.01-0.12,1.97-0.35,2.85-0.67c1.95-0.71,3.65-1.85,5.17-3.25
	c1.52-1.4,2.89-3.04,3.99-4.79c-3.05,11.46-7,22.66-11.82,33.48c-0.19-0.03-0.39,0.01-0.58,0.09c-0.68-1.07-2.67-1.48-4.7-1.65
	c-2.03-0.17-4.08-0.09-4.92-0.08c-0.98,0.02-2.23,0.05-3.56,0.16c-1.35,0.1-2.8,0.26-4.14,0.56c-2.68,0.6-4.92,1.72-5.3,4.06
	c-0.9,4.4,4.64,6.62,8.44,6.25c2.43-0.21,4.66-0.91,6.87-1.87c2.18-0.98,4.31-2.24,6.21-3.75c-0.88,1.88-1.85,3.73-2.77,5.6
	l-1.39,2.8c-0.45,0.94-1,1.83-1.49,2.74l-3.03,5.47c-1.04,1.81-2.17,3.56-3.25,5.35c-2.18-1.02-4.44-1.78-6.74-2.28
	c-2.3-0.5-4.6-0.7-7.02-0.67c-1.81,0.04-4.18,0.31-5.98,1.14c-0.9,0.42-1.66,0.97-2.15,1.73c-0.51,0.74-0.77,1.65-0.62,2.84
	c0.47,3.79,5.41,5.33,8.7,5.45c0.9,0.04,1.8,0,2.68-0.1c0.86-0.12,1.72-0.31,2.57-0.55c1.7-0.48,3.36-1.18,4.99-1.97l-3.02,4.48
	c-0.25,0.37-0.5,0.75-0.76,1.12l-0.81,1.09l-1.61,2.17l-3.23,4.35l-3.42,4.21c-0.07-0.05-0.16-0.1-0.26-0.14
	c-4.54-1.53-10.74-5.01-15.59-4.7c-2.91,0.2-5.67,2.31-5.31,5.45c0.47,3.65,3.11,5.27,6.57,5.63c0.86,0.09,1.79,0.12,2.71,0.05
	c0.91-0.07,1.85-0.21,2.79-0.39c1.87-0.36,3.74-0.91,5.4-1.5l-3.5,3.94c-0.59,0.65-1.15,1.33-1.77,1.96l-1.84,1.89l-3.68,3.79
	c-0.6,0.65-1.25,1.24-1.89,1.84l-1.93,1.81c-2.79-3.26-6.54-5.56-10.63-6.63c-1.44-0.36-3.84-0.87-6.01-0.85
	c-2.17,0.02-4.11,0.57-4.84,2.36c-0.75,1.76-0.01,3.55,1.32,5.09c1.32,1.53,3.22,2.79,4.63,3.4c3.62,1.53,7.52,1.28,11.41,0.46
	l-1.5,1.28l-4.29,3.68l-1.07,0.92l-1.11,0.87l-2.23,1.74c-1.49,1.15-2.97,2.34-4.48,3.47l-4.63,3.27c-1.6-1.79-3.35-3.65-5.25-5.26
	c-1.9-1.62-3.93-2.96-6.15-3.85c-2.65-1.01-6.59-1.4-7.82,1.68c-1.46,3.34,1.86,7.19,4.51,8.96c2.51,1.69,5.35,2.4,8.36,2.73
	c-4.47,2.96-9.16,5.57-13.86,8.18c-0.04-0.15-0.12-0.3-0.27-0.44c-3.54-3.44-7.22-7.1-11.9-8.44c-1.35-0.35-3.26-0.75-4.99-0.61
	c-1.73,0.13-3.32,0.74-4.16,2.22c-0.78,1.38-0.59,2.75,0.1,4c0.69,1.26,1.85,2.32,2.94,3.02c1.62,1.04,3.44,1.77,5.35,2.29
	c0.96,0.26,1.94,0.47,2.94,0.64c0.26,0.05,0.52,0.08,0.78,0.12c-5.43,1.47-19.06,5.1-20.01,5.31c-0.18-0.01-0.35,0.03-0.54,0.13
	c-1.45,0.33-2.9,0.66-4.35,1c-0.76-2.59-1.78-5.09-3.04-7.44c-1.26-2.35-2.75-4.53-4.48-6.62c-1.84-2.16-5.06-5.31-7.52-2.57
	c-0.64,0.71-0.89,1.53-0.88,2.41c0.01,0.89,0.3,1.85,0.73,2.79c0.85,1.9,2.27,3.67,3.15,4.81c2.35,3.01,5.29,5.45,8.67,7.34
	l-7.48,1.39c-1.24,0.26-2.5,0.4-3.76,0.58l-3.76,0.54c-1.25,0.17-2.5,0.38-3.76,0.53l-3.78,0.37l-3.77,0.38l-1.88,0.19l-1.89,0.1
	c0.04-0.47-0.24-0.96-0.82-1.1c-0.13-0.04-0.27-0.07-0.41-0.11c-1.46-5.16-3.86-9.94-7.07-13.98c-1.01-1.27-2.5-3.06-3.96-3.86
	c-1.47-0.82-2.94-0.71-4.06,1.69c-1.72,3.65-0.36,8.38,1.94,11.34c2.55,3.3,6.47,5.19,10.48,6.24c-11.86,0.62-23.76,0.37-35.57-0.83
	c-0.03-0.19-0.13-0.37-0.27-0.53c0.8-0.96,0.58-2.99,0.11-4.98c-0.47-1.99-1.17-3.93-1.45-4.73c-0.64-1.87-1.68-4.75-3.08-7.04
	c-0.71-1.13-1.5-2.19-2.41-2.9c-0.91-0.71-1.92-1.09-3.09-0.93c-4.49,0.62-4.88,6.56-3.33,9.98c1.94,4.3,5.35,8.08,9.42,10.63
	c-4.15-0.4-8.25-1.19-12.37-1.84l-1.54-0.25l-1.53-0.33l-3.06-0.65l-3.06-0.64l-1.53-0.32c-0.51-0.11-1.01-0.26-1.52-0.39
	c0.58-4.79,0.14-9.57-1.45-14.01c-0.6-1.69-1.62-3.76-2.94-5.29c-1.34-1.5-3.03-2.28-5.2-1.21c-3.49,1.69-3.41,6.81-2.49,9.92
	c0.49,1.71,1.27,3.29,2.25,4.78c0.98,1.49,2.13,2.92,3.42,4.15c-1.76-0.41-3.46-1.01-5.19-1.52l-5.18-1.59
	c-1.71-0.57-3.4-1.21-5.11-1.81l-2.56-0.91c-0.85-0.31-1.71-0.59-2.54-0.95c0.03-0.09,0.05-0.18,0.05-0.3
	c0.07-4.82,1.52-11.87-0.33-16.26c-0.57-1.29-1.53-2.53-2.72-3.22c-1.19-0.69-2.62-0.87-4.09-0.16c-3.35,1.62-4.08,4.6-3.33,7.96
	c0.37,1.67,1.1,3.43,2,5.14c0.46,0.84,0.94,1.71,1.47,2.47c0.53,0.77,1.08,1.5,1.63,2.18l-2.44-1c-0.81-0.35-1.6-0.74-2.4-1.1
	l-4.79-2.22c-1.62-0.71-3.16-1.55-4.72-2.37l-4.69-2.44c1.13-1.83,1.94-3.79,2.45-5.84c0.52-2.07,0.73-4.21,0.63-6.35
	c-0.08-1.53-0.35-3.92-1.06-5.94c-0.73-1.98-1.8-3.74-3.7-3.91c-3.82-0.37-5.99,5.19-6.26,8.26c-0.19,1.97,0.06,3.89,0.61,5.74
	c0.57,1.82,1.45,3.54,2.46,5.23l-1.71-0.99l-2.44-1.43l-2.37-1.53l-4.76-3.07c-0.81-0.5-1.56-1.06-2.33-1.61l-2.31-1.65
	c-1.53-1.11-3.1-2.16-4.6-3.33c2.44-4.15,4.98-8.99,5.21-13.67c0.07-1.39-0.14-3.04-0.76-4.38c-0.58-1.38-1.59-2.42-3.23-2.56
	c-3.68-0.31-6.31,4.01-7.16,7.05c-0.41,1.45-0.58,2.92-0.58,4.4c0.01,1.47,0.16,3,0.5,4.43c-4.09-3.45-8.19-6.92-12.02-10.69
	c0.13-0.08,0.25-0.21,0.34-0.39c2.17-4.41,4.43-8.94,4.37-13.91c-0.03-1.44-0.32-3.31-1.01-4.89c-0.17-0.4-0.38-0.77-0.6-1.12
	c-0.21-0.36-0.45-0.69-0.72-0.99c-0.54-0.59-1.21-1.01-2.04-1.2c-3.06-0.69-5.08,2.52-5.75,5.06c-0.5,1.87-0.7,3.87-0.57,5.83
	c0.06,0.86,0.16,1.72,0.29,2.59c-3.23-4.73-10.58-15.4-11.09-16.2c-0.05-0.17-0.15-0.32-0.3-0.47c-0.39-0.63-0.81-1.24-1.18-1.89
	l-1.11-1.93c4.47-3.06,8.26-6.99,11.06-11.52c0.73-1.19,1.57-2.8,1.81-4.28c0.29-1.51-0.02-2.89-1.69-3.67
	c-1.71-0.8-3.47,0.07-5,1.47c-1.53,1.39-2.81,3.31-3.62,4.5c-1.08,1.59-1.99,3.28-2.72,5.05c-0.73,1.77-1.21,3.57-1.56,5.45
	c-0.63-1.1-1.29-2.18-1.89-3.3l-1.76-3.37c-1.16-2.25-2.41-4.45-3.44-6.76c-1.07-2.29-2.19-4.56-3.23-6.85l-2.96-6.97
	c0.47-0.11,0.83-0.52,0.77-1.11c-0.01-0.14-0.02-0.28-0.04-0.42c4.45-2.98,8.31-6.76,11.21-11.07c0.93-1.37,2.03-3.27,2.37-4.92
	c0.35-1.65-0.19-3.01-2.8-3.34c-3.98-0.51-8.09,2.25-10.23,5.35c-0.6,0.86-1.08,1.78-1.47,2.73c-0.2,0.48-0.37,0.96-0.52,1.46
	c-0.13,0.49-0.24,0.98-0.33,1.48c-0.37,2.01-0.43,4.11-0.38,6.2c-4.29-11.05-7.73-22.43-10.19-34.02c0.17-0.09,0.3-0.23,0.41-0.42
	c1.19,0.46,3.02-0.37,4.78-1.42c1.76-1.06,3.4-2.32,4.09-2.83c1.59-1.18,4.03-3.05,5.81-5.1c0.89-1.02,1.59-2.09,1.98-3.17
	c0.41-1.08,0.47-2.17-0.03-3.23c-1.93-4.08-7.72-2.62-10.52-0.1c-1.78,1.59-3.29,3.48-4.54,5.56c-1.19,2.07-2.06,4.32-2.72,6.66
	c-0.37-2.05-0.79-4.09-1.14-6.14l-0.87-6.18l-0.45-3.09l-0.3-3.11l-0.6-6.23c4.69-0.92,9.18-2.82,12.93-5.7
	c1.42-1.09,3.16-2.71,4.1-4.43c0.98-1.74,1.27-3.59-0.4-5.32c-2.65-2.79-7.53-1.13-10.23,0.71c-1.49,0.99-2.78,2.23-3.92,3.61
	c-1.12,1.39-1.99,2.92-2.83,4.53l-0.14-2.7l-0.07-1.35l0-1.35l-0.02-5.41l-0.01-2.71c-0.02-0.9,0.07-1.8,0.09-2.71l0.24-5.42
	c0.09,0,0.19-0.01,0.29-0.04c2.29-0.71,5.17-1.28,8-2.06c2.84-0.77,5.55-1.75,7.39-3.31c1.1-0.94,1.91-2.24,2.16-3.6
	c0.24-1.36,0.04-2.75-1.08-3.92c-2.53-2.67-5.62-2.43-8.63-0.69c-3.08,1.71-5.73,4.98-7.71,7.88l0.47-5.25l0.12-1.31l0.18-1.3
	l0.36-2.61l0.72-5.23c0.27-1.74,0.64-3.46,0.95-5.19c4.17,1,8.56,0.65,12.5-0.88c1.37-0.56,3.63-1.55,5.36-2.83
	c1.74-1.29,2.99-2.87,2.53-4.74c-0.44-1.87-2.08-2.88-4.07-3.35c-1.97-0.47-4.26-0.38-5.74-0.03c-3.83,0.88-6.84,3.37-9.5,6.31
	l0.46-1.91l1.31-5.49l0.33-1.38c0.12-0.46,0.26-0.9,0.39-1.36l0.79-2.71l1.57-5.44l1.84-5.36c2.34,0.51,4.86,0.99,7.35,1.19
	c1.24,0.1,2.48,0.13,3.68,0.05c0.6-0.04,1.19-0.1,1.78-0.19c0.6-0.09,1.19-0.2,1.76-0.35c2.74-0.73,6.18-2.71,5.36-5.93
	c-0.79-3.57-5.73-4.73-8.93-4.62c-2.98,0.12-5.74,1.2-8.36,2.69l1.48-3.73l0.74-1.87l0.83-1.83c1.12-2.43,2.2-4.89,3.35-7.32
	c0.12,0.1,0.28,0.17,0.47,0.2c4.9,0.72,10.03,1.53,14.62-0.12c1.31-0.5,3.05-1.32,4.39-2.44c1.33-1.12,2.26-2.54,2.07-4.23
	c-0.33-3.15-3.99-4.06-6.59-3.9c-1.93,0.11-3.83,0.58-5.68,1.28c-0.98,0.38-1.98,0.81-2.94,1.29c2.72-3.44,11.07-14.04,11.4-14.42
	l1.17-1.34c0.15-0.1,0.27-0.23,0.37-0.42c0.98-1.12,1.96-2.24,2.93-3.36c2.14,1.65,4.44,3.07,6.84,4.23c2.4,1.16,4.9,2.06,7.53,2.72
	c2.76,0.67,7.22,1.32,7.59-2.35c0.23-1.88-1.12-3.26-2.93-4.29c-1.82-1.04-4.02-1.65-5.4-2.04c-3.67-1.05-7.48-1.3-11.33-0.84
	l5.22-5.53c1.77-1.81,3.62-3.54,5.41-5.33c1.77-1.81,3.7-3.45,5.57-5.15l2.81-2.54c0.94-0.84,1.94-1.62,2.9-2.43
	c0.25,0.41,0.76,0.63,1.3,0.4c0.13-0.05,0.26-0.11,0.39-0.16c2.11,1.65,4.35,3.09,6.68,4.28c2.35,1.21,4.73,2.11,7.28,2.87
	c1.6,0.46,3.81,0.99,5.47,0.78c1.67-0.21,2.74-1.21,2.27-3.76c-0.36-1.95-1.52-3.7-3.04-5.09c-1.53-1.4-3.44-2.45-5.21-2.95
	c-2-0.58-4.05-0.65-6.1-0.41c-1.03,0.12-2.05,0.32-3.07,0.57c-1.03,0.24-1.99,0.61-2.97,0.97c9.22-7.48,19-14.24,29.27-20.18
	c0.14,0.13,0.32,0.22,0.52,0.26c-0.08,1.26,1.3,2.76,2.83,4.08c1.54,1.32,3.25,2.46,3.93,2.94c0.81,0.57,1.83,1.24,2.99,1.97
	c1.16,0.72,2.42,1.43,3.68,1.97c2.52,1.08,4.99,1.47,6.67-0.19c3.32-3.02,0.13-8.08-3.16-9.99c-2.09-1.25-4.32-2.03-6.67-2.51
	c-2.34-0.49-4.79-0.67-7.23-0.61l5.54-2.9l2.77-1.46l2.83-1.33l5.66-2.67l5.77-2.42c1.17,2.1,2.55,4.04,4.11,5.79
	c0.78,0.87,1.61,1.69,2.49,2.46c0.88,0.78,1.82,1.53,2.8,2.21c1.48,1.03,3.56,2.2,5.5,2.58c0.97,0.19,1.91,0.18,2.75-0.14
	c0.85-0.28,1.6-0.88,2.17-1.93c1.85-3.34-1.24-7.49-3.83-9.51c-0.7-0.56-1.45-1.05-2.23-1.49c-0.77-0.42-1.57-0.76-2.4-1.06
	c-1.66-0.6-3.41-1.02-5.2-1.32l5.08-1.86c0.84-0.33,1.71-0.59,2.57-0.86l2.58-0.81l5.17-1.63l5.25-1.39
	c0.03,0.09,0.07,0.18,0.13,0.27c2.77,3.93,5.72,10.33,9.83,12.95c1.23,0.77,2.73,1.15,4.09,0.98c0.68-0.09,1.34-0.31,1.92-0.7
	c0.58-0.38,1.09-0.87,1.48-1.58c1.77-3.21,0.6-6.07-1.99-8.41c-1.29-1.2-2.9-2.1-4.63-2.93c-1.73-0.81-3.56-1.47-5.25-1.97
	c6.86-1.55,13.79-2.86,20.79-3.73c0.33,4.27,2.01,8.35,4.69,11.64c0.48,0.59,1.13,1.32,1.87,2.05c0.37,0.37,0.77,0.73,1.19,1.08
	c0.42,0.36,0.85,0.72,1.29,1.04c1.77,1.28,3.67,2,5.31,1c3.31-2,1.78-7.74,0.19-10.36c-1.01-1.69-2.34-3.07-3.88-4.23
	c-1.53-1.14-3.27-2.17-5.07-2.87c0.65-0.07,1.31-0.18,1.96-0.21l5.64-0.38c1.88-0.11,3.77-0.32,5.66-0.31l5.67-0.11l2.84-0.06
	l2.84,0.08c0.48,4.78,1.29,10.18,3.86,14.07c1.56,2.25,4.51,5.02,7.31,3.28c3.16-1.93,2.73-6.96,1.62-9.91
	c-1.04-2.81-2.91-5.14-5.15-7.2l8.02,0.64c0.67,0.06,1.34,0.09,2.01,0.18l2,0.26l4,0.52c-0.06,0.15-0.08,0.32-0.05,0.51
	c0.43,2.41,0.84,4.88,1.54,7.22c0.69,2.33,1.63,4.65,3.13,6.6c0.87,1.14,2.21,2.48,3.69,3.35c0.75,0.42,1.52,0.78,2.3,0.94
	c0.78,0.16,1.58,0.11,2.35-0.23c2.88-1.24,2.62-5.02,1.67-7.47c-0.7-1.81-1.71-3.54-2.97-5.05c-0.92-1.11-1.96-2.15-3.04-3.16
	c4.3,1.7,18.82,7.46,19.78,7.85c0.14,0.11,0.31,0.18,0.52,0.2l2.07,0.83c0.68,0.31,1.36,0.61,2.03,0.92
	c-1.82,5.09-2.58,10.5-2.19,15.81c0.1,1.39,0.37,3.19,1.05,4.52c0.67,1.36,1.72,2.33,3.52,1.97c1.85-0.35,2.77-2.09,3.19-4.11
	c0.42-2.02,0.33-4.33,0.29-5.77c-0.06-1.93-0.31-3.82-0.76-5.69c-0.46-1.82-1.12-3.59-1.94-5.31l3.48,1.55l3.4,1.71l3.4,1.69
	l1.7,0.84l1.66,0.92l6.65,3.66l6.48,3.93c-0.31,0.36-0.37,0.91,0.03,1.35l0.27,0.32c-1.83,4.98-2.75,10.34-2.56,15.52
	c0.06,1.65,0.27,3.86,0.98,5.37c0.69,1.54,1.93,2.33,4.23,1.07c3.53-1.92,5.23-6.56,5.13-10.33c-0.05-4.27-2.25-7.86-4.79-11.21
	c9.98,6.44,19.44,13.64,28.27,21.56c-0.09,0.18-0.12,0.37-0.1,0.59c-1.21,0.3-2.23,2.07-3.03,3.96c-0.8,1.88-1.38,3.87-1.63,4.68
	c-0.58,1.89-1.45,4.83-1.68,7.52c-0.18,2.66,0.12,5.21,2.2,6.32c3.99,2.15,7.8-2.43,8.57-6.11c0.49-2.33,0.59-4.73,0.37-7.14
	c-0.1-1.22-0.33-2.39-0.63-3.55c-0.3-1.16-0.66-2.32-1.09-3.45c6.16,5.61,11.83,11.75,17.31,18.04c-3.29,3.53-5.75,7.66-7.07,12.19
	c-0.5,1.71-0.91,4-0.73,6.01c0.21,1.99,1.12,3.62,3.5,4.03c3.82,0.68,6.77-3.51,7.85-6.57c0.61-1.67,0.9-3.41,0.99-5.19
	c0.08-1.77,0-3.61-0.32-5.36l0.86,1.04c0.28,0.35,0.54,0.72,0.82,1.08l1.63,2.16l3.27,4.32l3.07,4.46l1.54,2.23l0.77,1.12l0.72,1.15
	c-0.07,0.05-0.15,0.12-0.21,0.21c-2.89,3.86-8.2,8.72-9.27,13.35c-0.67,2.81,0.3,6.17,3.53,6.73c3.67,0.65,6.01-1.34,7.37-4.49
	c0.68-1.57,1.12-3.42,1.39-5.33c0.13-0.95,0.22-1.92,0.27-2.87c0.02-0.93,0-1.85-0.05-2.71c0.46,0.75,0.94,1.49,1.39,2.24l1.29,2.3
	l2.59,4.6l0.65,1.15l0.59,1.18l1.18,2.36l2.37,4.72c-3.95,1.63-7.32,4.5-9.67,8.07c-0.83,1.28-2.02,3.38-2.63,5.42
	c-0.56,2.03-0.77,4.09,0.69,5.34c2.88,2.53,7.9-0.69,9.93-3.02c1.31-1.49,2.23-3.18,2.89-5c0.64-1.82,0.91-3.72,1.09-5.68l0.8,1.8
	c0.37,0.86,0.78,1.71,1.13,2.59l1.02,2.63l2.05,5.27c0.67,1.76,1.21,3.57,1.83,5.35c0.58,1.79,1.24,3.57,1.76,5.39
	c-4.41,1.92-9.32,4.35-12.28,8c-0.88,1.08-1.69,2.55-1.97,3.98c-0.33,1.45-0.15,2.89,1.1,3.96c2.78,2.42,7.46,0.46,9.94-1.5
	c1.19-0.93,2.2-2.02,3.07-3.22c0.88-1.2,1.63-2.52,2.2-3.88c0.39,1.28,0.66,2.59,0.96,3.9L414.54,185.03z M93.16,148.2
	c0,1.21-1.48,2.55-2.69,2.55H79.16l2.56,85.32c0,1.21-2.69,1.88-3.5,1.88s-3.5-0.67-3.5-1.88l-2.69-85.05
	c-8.35,0.54-12.11,0.4-12.38-1.88c0.27-4.57,0.27-6.18,14.27-5.37h11.31C88.18,143.9,93.16,144.3,93.16,148.2z M128.83,235.26
	c0-2.42-0.67-24.18-0.67-26.6h-19.25v37.89c0,6.05-7.4,3.76-7.67,2.02c0-4.84,0.27-27.14,0.27-31.84c0-10.48,0.94-64.63,1.08-74.97
	c1.08-1.07,2.29-1.07,3.77-1.07c1.88,0,2.96,1.21,4.17,2.82c0,12.9-1.21,31.31-1.21,45.01c0,1.88,0,10.48,0.13,12.23
	c1.08,1.21,2.02,0.94,3.23,0.94c5.11,0,10.23,0,15.21,0.27c1.08-15.18,1.62-41.38,1.21-58.45v-0.67c0-2.02,1.62-2.96,3.5-2.96
	c1.62,0,3.5,1.34,4.44,2.69c0,2.96-0.4,11.55-0.54,14.38c-1.88,61.67,1.48,92.84-2.96,92.98
	C128.83,250.04,128.83,244.26,128.83,235.26z M154.53,252.32c3.37,0,2.96-2.82,2.96-5.37c0.13-11.42,0.81-41.25,0.94-42.46
	c0-1.21,0.54-6.58,0.81-7.79h2.15c8.21,0,9.56,9,10.1,15.59c0.27,4.57,1.48,25.13,1.62,29.56c0.54,1.88,2.29,1.88,3.77,1.88h0.13
	c1.75,0,3.9-0.27,3.9-2.55v-1.07c0-0.81-0.81-6.99-0.81-7.79c-0.67-9.27,0.81-28.48-5.25-36.41c-0.54-0.94-3.63-4.57-4.31-5.24
	c8.88-6.05,11.44-17.47,11.44-27.28v-1.48c0-11.82-7.94-19.89-20.32-19.89h-1.35c-5.38,0-7.67,0-7.94,6.18
	c-0.81,30.23-1.88,60.73-1.88,90.96v11.29C151.44,251.79,153.05,252.32,154.53,252.32z M160.19,152.5c0-2.28,1.35-3.49,3.37-3.49
	c7.67,0,10.63,8.06,10.63,14.38c0,6.18-3.63,23.78-13.19,23.78c-0.81,0-1.75-0.13-1.75-1.21
	C159.25,173.99,160.32,164.19,160.19,152.5z M196.93,246.82l-1.48-93.78c0-2.42,2.29-4.7,4.71-4.7h21.27c0.81,0,3.5,2.02,3.63,2.69
	c0.13,0.27,0.13,0.4,0.13,0.67c0,2.69-3.63,3.9-5.79,3.9h-16.15l0.67,44.61l14.54-2.15h0.67c6.33,0,3.9,6.18-1.48,6.99l-13.46,2.02
	l-0.4,35.07c1.21,0.13,5.79,0.13,7,0.13c9.02,0,15.61-3.09,16.02,3.09C227.08,249.91,196.93,249.37,196.93,246.82z M241.89,246.82
	l-1.48-93.78c0-2.42,2.29-4.7,4.71-4.7h21.27c0.81,0,3.5,2.02,3.63,2.69c0.13,0.27,0.13,0.4,0.13,0.67c0,2.69-3.63,3.9-5.79,3.9
	h-16.15l0.67,44.61l14.54-2.15h0.67c6.33,0,3.9,6.18-1.48,6.99l-13.46,2.02l-0.4,35.07c1.21,0.13,5.79,0.13,7,0.13
	c9.02,0,15.61-3.09,16.02,3.09C272.04,249.91,241.89,249.37,241.89,246.82z M292.54,160.74c12.72-8.26,20.95,20.69,20.95,20.69
	s14.61-27.84,26.05-17.85c11.44,9.98-19.63,50.78-30.64,52.48C297.89,217.76,279.82,169.01,292.54,160.74z M358.44,310.97
	c-2.9-2.27-8.21-3.41-12.28-3.17c-2.42-0.28-6.65,1.34-6.65,1.34c-0.92-1.16-7.15-12.59-7.15-12.59c-1.83-3.9-2.35-10.1,2.46-12.18
	c1.83-0.67,4.24-0.21,5.47,1.33c0.94,0.99,1.13,2.41,1.31,3.84c0.15,1.77,1.27,4.19,3.43,3.73c2.16-0.45,2.71-3.73,2.56-5.5
	c-0.08-3.87-2.93-8.06-6.22-10.02c-4.46-2.45-10.12-2.05-14.14,0.83c-0.75,0.44-1.35,1.07-2.13,1.69
	c-3.69,3.63-5.88,8.61-5.61,13.66c-1.61,1.32-3.17,2.69-4.69,4.11c-2.98,2.99-6.63,5.73-10.8,6.83c-3.08,0.87-6.68-1.47-8.92-3.31
	c-2.07-1.82-4.17-3.47-6.43-5.13c4.03-1.47,7.91-3.13,11.46-5c2.61-1.28,4.9-2.95,7.2-4.61c0.75-0.44,1.53-1.05,2.13-1.69
	c1.43-1.77-1.16-3.65-2.1-4.63c-0.33-0.21-0.48-0.41-0.83-0.45s-0.71,0.09-0.91,0.25c-4.65,2.27-9.02,5.11-13.78,6.84
	c-1.47,0.53-2.74,0.91-4.34,1.08c-0.37,0.13-2.83,0.2-3.04,0.53c0.86-2.89,1.89-5.75,2.92-8.62c0.21-0.33,0.23-0.5,0.43-0.65
	c0.21-0.33,0.39-0.31,0.75-0.44c5.31-1.85,9.94-5.53,14.5-8.51c7.61-5.09,15.97-10.62,16.77-20.54c-0.01-1.41-0.05-2.64-0.25-3.89
	c-0.67-1.83-1.85-3.73-3.27-5.12c-1.09-1.18-2.38-2.21-3.71-2.89c-5.48-2.74-11.74-1.71-16.99,1.2c-4.9,2.95-8.16,8.36-11.01,13.3
	c-6.01,10.76-10.84,22.49-13.25,34.6c-3.51,2.91-6.8,6.16-10.24,9.22c-1.35,1.07-2.73,2.32-4.1,3.57c-1.95,1.71-4.68,4.03-7.22,4.79
	c-2.93,1.07-3.34-3.02-3.62-5.16c-0.41-4.08,0.89-9.2,1.06-9.18c1.99-0.47,3.97-0.95,5.83-1.79c1.68-0.86,3.38-1.89,4.73-2.97
	c1.33-0.9,2.34-2.01,3.19-3.32c2.42-4.28-0.31-9.52-4.48-11.4c-4.17-1.89-9.69,0.29-12.82,3.09c-2.45,2.16-4.19,4.84-5.54,7.69
	c-4.19,3.25-8.01,7.08-12.03,10.65c-1.35,1.07-2.73,2.32-4.1,3.57c-1.95,1.71-4.68,4.03-7.22,4.79c-2.93,1.07-3.34-3.02-3.62-5.16
	c-0.41-4.09,0.89-9.2,1.06-9.18c1.99-0.47,3.97-0.95,5.83-1.79c1.68-0.86,3.38-1.89,4.73-2.97c1.33-0.9,2.34-2.01,3.19-3.32
	c2.42-4.28-0.31-9.52-4.48-11.4c-4.17-1.89-9.69,0.29-12.82,3.09c-3.17,2.8-5.15,6.44-6.64,10.21c-2.47,1.68-5.11,2.87-7.77,2
	c-1.17-0.49-2.33-1.15-3.31-1.79c-3.25-2.31-5.91-5.07-9.18-7.2c-1.83-0.91-3.79-2.19-5.79-1.55c-1.83,0.67-3.51,1.53-3.91,3.41
	c-1.92,7.5-3.51,15.22-5.28,22.92c-0.9,3.23-1.63,6.48-2.7,9.7c-0.57,1.87-0.94,3.58-1.49,5.27c-0.25,0.67-2.23,4.13-1.95,4.69
	c-0.84-1.85-0.77-3.95-0.9-5.9c-0.13-9.5,0.79-19.05,2.22-28.36c0.22-1.91,1.3-8.28-1.17-9.62c-2.15-1.13-6.1-1.93-8.34-0.79
	c-1.87,1.01-3.42,3.82-4.68,5.61l-7.5,10.2c0.68-5.89,1.98-12.59,4.2-18.13c2.16-5.02-1.87-5.13-5.75-6.46
	c-1.52-0.53-2.62-0.13-3.49,1.35c-2.79,4.42-4.13,9.88-5.4,14.83c-1.82,6.64-1.77,12.26-1.49,18.97c-0.01,1.58,0.93,2.57,2.07,3.4
	c3.09,2.11,7.36,3.13,10.37-1.61c1.51-2.46,2.85-4.94,4.54-7.38c1.09-1.81,2.37-3.77,3.95-5.34c-1.49,9.84-1.43,20.03,0.41,29.9
	c1.13,5.4,6.74,17.63,13.88,10.56c3.39-3.47,5.11-9.24,6.68-13.8c2.11-6.08,3.54-12.41,5.13-18.55c0.69-2.91,1.72-5.77,2.23-8.7
	c0.49-2.75,1.35-5.64,2.02-8.37c0.02-0.17,3.21,2.65,3.53,2.87c1.27,1.2,2.71,2.42,4.15,3.64c3.93,2.82,8.4,3.14,12.6,1.9
	c-0.25,1.71-0.35,3.43-0.24,5.14c0.25,3.89,1.57,7.73,4.41,10.52c4.41,4.37,10.75,4.23,15.69,0.93c3.79-2.37,7.26-5.13,10.59-8.08
	c0.02-0.17,0.19-0.15,0.19-0.15l2.34-2.01c0.65-0.58,1.29-1.12,1.93-1.65c-0.18,1.49-0.25,2.99-0.15,4.49
	c0.25,3.89,1.57,7.73,4.41,10.52c4.41,4.37,10.75,4.23,15.69,0.93c3.79-2.37,7.26-5.13,10.59-8.08c0.02-0.17,0.19-0.15,0.19-0.15
	l2.34-2.01c0.7-0.62,1.39-1.21,2.08-1.78c-0.44,4.93-0.44,9.89,0.1,14.85c0.22,2.66,1.73,4.77,4.52,4.91
	c2.1,0.07,4.84-0.85,4.79-3.48c-0.13-4.93,0.45-9.96,1.72-14.9c4.07,2.75,7.5,6.48,11.17,9.72c4.01,3.27,9.46,4.78,14.2,3.22
	c5.76-2.01,10.35-6.4,14.95-10.12c2.36,4.56,5.54,8.78,7.84,13.45c-4.15,2.51-8.28,4.84-11.98,7.92c-2.15,1.86-4.14,3.91-5.48,6.39
	c-1.17,2.5-1.7,5.6-0.77,8.16c1.31,3.84,5.35,5.36,9.16,5.8c4.35,0.33,8.73-1.1,12.63-2.93c3.36-1.72,5.95-4.41,7.93-7.86
	c2.62-4.44,3.8-10.1,1.67-15.96c0,0,6.02-1.94,6.54-1.88c2.49-0.24,5.24,0.25,7.56,1.4c0.65,0.43,1.65,0.89,2.39,0.63
	c1.08-0.23,1.41-1.59,1.17-2.5C360.03,312.39,359.25,311.59,358.44,310.97z M289.73,270.39c1.71-4.19,3.77-8.34,6.16-12.28
	c2.54-3.75,4.9-7.51,7.92-10.85c1.2-1.27,2.75-2.49,4.54-2.81c1.62-0.34,3.33,0.03,4.62,1.06c1.31,0.85,2.17,2.53,2.33,4.13
	c0.17,1.6-0.36,3.12-1.21,4.43c-3.11,5.61-9,9.5-14.46,12.73c-3.59,2.22-7.36,4.42-11.1,6.44
	C288.8,272.39,289.26,271.39,289.73,270.39z M253.05,276.34c0.97-0.77,1.91-1.36,3.08-0.87c1,0.47,1.59,1.41,1.82,2.49
	c0.03,1.23-1.3,2.13-2.07,2.75c-4.04,3.05-7.49,4.05-7.51,4.23C248.84,282.35,249.88,279.49,253.05,276.34z M218.05,272.3
	c0.97-0.77,1.91-1.36,3.08-0.87c1,0.47,1.59,1.41,1.82,2.49c0.03,1.23-1.3,2.13-2.07,2.75c-4.04,3.05-7.49,4.05-7.51,4.23
	C213.84,278.31,214.88,275.45,218.05,272.3z M331.78,328.97c-0.93,2-2.39,3.94-3.76,5.19c-1.97,1.88-4.73,2.97-7.31,2.49
	c-1.04-0.12-2.04-0.59-2.46-1.51c-1.64-2.47,1.87-5.58,3.61-6.96c2.92-2.47,6.19-4.9,9.74-6.78c0.02-0.17,0.19-0.15,0.37-0.13
	c0.17,0.02,0.59,2.53,0.45,2.16C332.72,325.39,332.52,327.12,331.78,328.97z"/>
</svg>
