<svg xmlns="http://www.w3.org/2000/svg" viewBox="0 0 220 115.33"><title>thank-you</title><path d="M87.86,113.14c-.44.48-1.67,2.19-2.38,2.19-.92,0-1.31-2.15-1.31-2.9a7.5,7.5,0,0,1,1.18-2.63l5.89-9.92-.09-.09c-3.6,3-6.81,5.4-7.33,5.36-1.23-.09-3.34-1.93-3.47-5.18-.18-5.27,7.33-10.85,8.56-10.89.66,0,1.89,1.4,1.89,2,0,1.67-5,6.23-6.41,7.37a4.82,4.82,0,0,0-.84,2.55c2.33-.26,4.44-2.15,6.28-3.86C94.35,93,97.16,90,98,89.83s1.18,1.58,1.18,2.19c0,1.14-1.18,2.94-1.8,3.86l-6.5,9.66.09.09L100.72,97l.35,1.63Z" fill="#404041"/><path d="M118,99.26a8.08,8.08,0,0,1-7.11,3.56c-1.85,1.89-4,3.29-6.77,3.29-2.28,0-4.39-2.28-4.56-6.27-.09-3.3,1.54-5.49,4-7.38a14.89,14.89,0,0,1,8.21-3.25c1,0,2.42.4,2.42,1.58,0,.66-.53.92-1,1.19,1.32.35,1.58,1.27,1.58,2.59,0,1.93-.88,3.47-1.71,5.18,1.93.35,3.16-1.32,4.52-2.33ZM104.58,97.2a6.44,6.44,0,0,0-1.8,4c0,1.27.83,1.67,1.93,1.67,1.45,0,2.37-.84,3.38-1.76a4.71,4.71,0,0,1-.53-2c0-2.28,2.07-5,1.89-5.13A26.72,26.72,0,0,0,104.58,97.2Z" fill="#404041"/><path d="M129.91,94.17c.92-.83,5.22-5,6.32-5,.35,0,.83.13,1,2.41.08,1.06-1.1,2.07-1.8,2.68C134,95.53,130.91,99,130.91,101c0,.7.4,1,1.1,1,1.67,0,5.44-3.07,6.76-4.12L139,99.7c-2.24,2.15-6.9,7.2-10.14,7.2a2.67,2.67,0,0,1-2.59-2.9,10.33,10.33,0,0,1,.92-3.68l-.09-.09c-1.71,1.49-4.65,5.44-7.07,5.44-2.15,0-3.33-2.45-3.33-4.34,0-4.26,3.29-8.65,6.1-10.49a3.21,3.21,0,0,1,1.93-.49c.61,0,2.85-.39,2.68.93a5.68,5.68,0,0,1-1.76,2.32,15.17,15.17,0,0,1-3.33,3.16c-1.36,1-2.42,1.93-2.42,3.78,0,.22,0,.66.35.66.79,0,3.21-1.28,5.27-3.12Z" fill="#404041"/><path d="M13,33.21H1.4a26.91,26.91,0,0,1-.63-5.5,27.15,27.15,0,0,1,.63-5.37H37c.18,1,.32,2,.41,2.86a24.82,24.82,0,0,1,.14,2.51,32.93,32.93,0,0,1-.55,5.5H25.35v39a37.48,37.48,0,0,1-6.12.62,36.84,36.84,0,0,1-6.2-.62Z" fill="#404041"/><path d="M73.62,72.83a36.84,36.84,0,0,1-6.2-.62V51.87H55.09V72.21a37.49,37.49,0,0,1-6.13.62,37,37,0,0,1-6.2-.62V22.48c1.26-.18,2.4-.32,3.42-.41s1.92-.14,2.71-.14,1.78,0,2.82.14,2.17.23,3.38.41V40.94H67.42V22.48c1.25-.18,2.38-.32,3.37-.41s1.92-.14,2.76-.14,1.77,0,2.82.14,2.17.23,3.38.41V72.21A37.69,37.69,0,0,1,73.62,72.83Z" fill="#404041"/><path d="M96.32,72.28c-1.07.18-2,.32-2.93.42a25.28,25.28,0,0,1-2.57.13,26.48,26.48,0,0,1-2.89-.17c-1.09-.12-2.31-.29-3.66-.52l15.6-49.73c1.21-.14,2.33-.25,3.38-.34s2.1-.14,3.17-.14c.88,0,1.84,0,2.89.14s2.24.2,3.58.34l15.4,49.8a45.07,45.07,0,0,1-7,.62c-.93,0-1.86,0-2.78-.13s-1.93-.24-3-.42l-2.65-9.68a30.4,30.4,0,0,1-3.72.83,22.26,22.26,0,0,1-3.52.28,22.9,22.9,0,0,1-3.27-.24,30.08,30.08,0,0,1-3.48-.73Zm9.75-36.77-4.67,17.9c.79.23,1.54.41,2.23.55a11,11,0,0,0,2.16.21,16.28,16.28,0,0,0,2.33-.17,21.84,21.84,0,0,0,2.41-.52Z" fill="#404041"/><path d="M132.81,22.48c1-.18,1.95-.32,2.79-.41a20.31,20.31,0,0,1,2.44-.14,21.81,21.81,0,0,1,2.61.17c.9.12,1.68.24,2.33.38l16.16,27.3V22.48c1.2-.18,2.29-.32,3.27-.41a25.92,25.92,0,0,1,2.65-.14,22.17,22.17,0,0,1,2.5.14c.88.09,1.81.23,2.79.41l-.07,49.73a16.66,16.66,0,0,1-2,.42,18.34,18.34,0,0,1-2.86.2,18.53,18.53,0,0,1-3.13-.24c-.93-.16-1.6-.29-2-.38L144,45.05V72.21a27.79,27.79,0,0,1-5.57.62,28.84,28.84,0,0,1-5.64-.62Z" fill="#404041"/><path d="M178.7,22.48c1.26-.18,2.4-.32,3.42-.41s1.92-.14,2.71-.14,1.78,0,2.82.14,2.17.23,3.38.41V72.21a37.49,37.49,0,0,1-6.13.62,36.93,36.93,0,0,1-6.2-.62Zm26.89,24,13,25.7a25.17,25.17,0,0,1-3.17.45c-1.32.12-2.52.17-3.59.17-1.34,0-2.64,0-3.9-.17a31.18,31.18,0,0,1-3.2-.45L192,47.14l11.77-24.66c1.39-.23,2.6-.38,3.62-.45s2.06-.1,3.13-.1l1.74,0c.65,0,1.29.07,1.92.14l1.81.21,1.5.17Z" fill="#404041"/><path d="M218.5,3H1.5a1.51,1.51,0,0,1,0-3h217a1.51,1.51,0,0,1,0,3Z" fill="#404041"/><path d="M66.68,97.73H1.5a1.51,1.51,0,0,1,0-3H66.68a1.51,1.51,0,1,1,0,3Z" fill="#404041"/><path d="M218.5,97.73H152.92a1.51,1.51,0,1,1,0-3H218.5a1.51,1.51,0,0,1,0,3Z" fill="#404041"/></svg>