<svg id="Layer_1" data-name="Layer 1" xmlns="http://www.w3.org/2000/svg" viewBox="0 0 281.94 281.94"><title>10</title><path d="M117.83,252.22c-.1-4-1.61-8.44-2.38-11.88-1.15-5.14-6.7-7.19-9.8-11-1.65-4.7-2.47-8.81-1.19-13.37,1.32-4.72,5.83-7.87,6.53-11.59a12.75,12.75,0,0,0-.14-5.34c-1.76-6.86-7.29-11-12-15.75,2.21-.61,4.32-1.26,6.31-1.92,43.38-7.16,59.28-59,55.13-97.72a60.36,60.36,0,0,0-1.65-7.53c-9.1-31.89-43-53.24-74.79-43.46a67.76,67.76,0,0,0-6.94,2.27A63.61,63.61,0,0,0,53,51.13c-1.4,1.55-2.71,3.18-4,4.87a79.46,79.46,0,0,0-6.67,10.82Q41.24,69,40.2,71.28C26.14,100.94,28.91,139,53.61,162.56q2.46,2.73,4.69,4.87c6,5.72,10.91,8.51,10.21,8.44-3.21,6.51-7.46,10.81-12.19,16.63-3.75,4.63-10.23,11-5,16.05,11.82-2.83,22.79,1.89,32.39,4.46,2.7,1.44,6.24,5.49,8.91,4.16,3.2-1.07,2.38-3.08,2.38-4.46-.42-9.63-3.33-19.78-3-28.23a9.1,9.1,0,0,1,3.86.3,9.78,9.78,0,0,1,3.48,1.7c2.17,2.25,4.94,4.33,6.44,7.14a14.24,14.24,0,0,1,1.67,3.93c2,8.74-6.15,13.66-6.54,21.1-.18,3.55.58,8.13,2.38,11,2.9,4.62,7.77,5.67,9.8,10.11,6.05,13.21-2,27,3.57,42.19,0-2.7-.42-5.15-.6-7.73C115.54,266.64,118,259.17,117.83,252.22ZM85.89,143.9c-3.47,1.18-9.77,1.6-13.58-.05-1.78-15.59-.51-48.75-1.06-49.94-.31-.68-.66-1.17-1-1.23-1.71-.33-4.62,5.92-5.69,7.34-1.77,2.34-4.26,6.21-6.4,6.64-1.54.3-5.54-2.3-3.62-5,7.9-13.91,13.68-23.24,21.87-36.45,1.74-.17,4.81-.54,6.36-.53s2.14,17.61,2.47,32.74c.21,10.09.28,19.07.34,21,.13,4.8.26,9.6.33,14.4C85.94,133.74,86.57,143.68,85.89,143.9Zm7.18-21.41c-1.82-7.5-1.81-15.73-1.59-24.18a117,117,0,0,1,2.67-17c.8-2.63,4.49-13.65,13.35-15.42,12.14-2.43,21.07,2,25.61,11.21.78,1.59,4.46,11.68,4.72,15,2.76,12.54,2.65,27.27-1.65,37.56-3.18,7.61-10,13.63-18.34,14.95-4.93.78-10.89-1.83-14.21-4.43C99.23,136.68,94.68,129.1,93.07,122.49Z"/><path d="M116.14,133.73c7-.44,8.29-10.64,8.49-11.76.84-4.86.18-10.65-.39-16-.68-6.42-.9-12-2.41-17.83-1.6-6.14-3.79-11.72-8.8-13-4.62-1.22-9.78,4.81-11.21,15.54-.4,3-.44,20.84.59,26.61C104.93,131.42,110.86,134.06,116.14,133.73Z"/><path d="M82.62,66.81a.3.3,0,0,0-.3-.29.31.31,0,0,0-.29.31h0l1.15,37.47L84,143.18a.28.28,0,0,0,.29.29h0a.29.29,0,0,0,.29-.3l-.78-38.88Z"/><path d="M172,179.55l-4.07-.2-2-4.22a.5.5,0,0,0-.47-.3.53.53,0,0,0-.47.32l-1.77,4.2-4.27.2a.52.52,0,0,0-.46.33.53.53,0,0,0,.12.55l3.06,3-.71,4.66a.52.52,0,0,0,.79.51l3.72-2.38,3.75,2.38a.46.46,0,0,0,.27.09.62.62,0,0,0,.29-.09.53.53,0,0,0,.23-.52l-.74-4.65,3.05-3a.53.53,0,0,0,.12-.55A.5.5,0,0,0,172,179.55Z"/><path d="M127,21.41l-.52,3.41a.44.44,0,0,0,.19.42.41.41,0,0,0,.45,0l2.72-1.74,2.74,1.74a.4.4,0,0,0,.22.06.46.46,0,0,0,.23-.06.44.44,0,0,0,.19-.42l-.55-3.41,2.24-2.17a.42.42,0,0,0,.09-.45.39.39,0,0,0-.37-.27l-3-.15-1.44-3.08a.4.4,0,0,0-.39-.24.41.41,0,0,0-.38.25l-1.3,3.07-3.11.15a.41.41,0,0,0-.38.27.44.44,0,0,0,.1.45Z"/><path d="M53.87,19.88l-.81,5.28a.5.5,0,0,0,.21.47.47.47,0,0,0,.51,0L58,22.92l4.27,2.71a.49.49,0,0,0,.25.08.45.45,0,0,0,.26-.08.47.47,0,0,0,.21-.47l-.84-5.28,3.46-3.38a.47.47,0,0,0-.3-.81l-4.63-.23-2.25-4.79A.46.46,0,0,0,58,10.4a.45.45,0,0,0-.42.28l-2,4.78-4.86.23a.47.47,0,0,0-.41.3.46.46,0,0,0,.11.51Z"/><path d="M26.8,72A.52.52,0,0,0,27,71.5l-.66-4.15,2.72-2.66a.51.51,0,0,0-.33-.89l-3.63-.18-1.77-3.77a.49.49,0,0,0-.47-.29.51.51,0,0,0-.47.32l-1.58,3.74L17,63.8a.51.51,0,0,0-.33.89l2.72,2.66-.63,4.16A.52.52,0,0,0,19,72a.55.55,0,0,0,.57,0l3.31-2.13L26.23,72a.57.57,0,0,0,.28.08A.52.52,0,0,0,26.8,72Z"/><path d="M136.64,206.15l-4.16-.2-2-4.31a.43.43,0,0,0-.78,0l-1.81,4.3-4.36.2a.44.44,0,0,0-.38.27.44.44,0,0,0,.1.46l3.12,3-.72,4.75a.4.4,0,0,0,.19.41.43.43,0,0,0,.46,0l3.79-2.44,3.84,2.45a.46.46,0,0,0,.23.06.39.39,0,0,0,.23-.07.43.43,0,0,0,.19-.42l-.76-4.75,3.11-3a.42.42,0,0,0,.11-.46A.44.44,0,0,0,136.64,206.15Z"/><path d="M157.87,33.53l-.75,4.95a.52.52,0,0,0,.79.51l4-2.53,4,2.53a.48.48,0,0,0,.28.08.51.51,0,0,0,.29-.08.53.53,0,0,0,.22-.52l-.79-4.94,3.25-3.17a.53.53,0,0,0,.12-.55.52.52,0,0,0-.46-.34l-4.33-.21-2.1-4.48a.51.51,0,0,0-.48-.3.52.52,0,0,0-.47.32l-1.88,4.46-4.54.21a.52.52,0,0,0-.34.89Z"/><path d="M84.68,11.32l-.36,2.33a.32.32,0,0,0,.13.29.29.29,0,0,0,.31,0l1.86-1.19,1.87,1.19a.26.26,0,0,0,.15,0,.3.3,0,0,0,.16-.05.28.28,0,0,0,.12-.28l-.37-2.33,1.53-1.48a.3.3,0,0,0,.07-.31.29.29,0,0,0-.26-.19l-2-.1-1-2.1a.28.28,0,0,0-.52,0l-.89,2.09-2.12.1a.29.29,0,0,0-.26.19.3.3,0,0,0,.07.31Z"/><path d="M84.6,225.8l-2.52-.12-1.23-2.62a.36.36,0,0,0-.33-.21.37.37,0,0,0-.33.22l-1.1,2.61-2.64.12a.36.36,0,0,0-.32.23.37.37,0,0,0,.08.39l1.9,1.85-.44,2.9a.36.36,0,0,0,.16.35.35.35,0,0,0,.39,0L80.53,230l2.32,1.48a.36.36,0,0,0,.2.06.33.33,0,0,0,.19-.06.37.37,0,0,0,.16-.36l-.46-2.89,1.89-1.85a.35.35,0,0,0,.09-.39A.36.36,0,0,0,84.6,225.8Z"/><path d="M168.91,56.26,168,58.35l-2.13.1a.32.32,0,0,0-.26.19.3.3,0,0,0,.07.31l1.53,1.48-.35,2.33a.3.3,0,0,0,.12.29.31.31,0,0,0,.32,0l1.85-1.19,1.87,1.19a.28.28,0,0,0,.15,0,.28.28,0,0,0,.29-.33l-.37-2.33L172.64,59a.29.29,0,0,0-.19-.5l-2-.1-1-2.1a.28.28,0,0,0-.27-.17A.29.29,0,0,0,168.91,56.26Z"/><path d="M27.62,39.69,27.27,42a.28.28,0,0,0,.12.28.31.31,0,0,0,.32,0l1.85-1.18,1.87,1.18a.3.3,0,0,0,.15.05.3.3,0,0,0,.16-.05.27.27,0,0,0,.13-.28l-.37-2.33L33,38.2a.3.3,0,0,0,.07-.31.28.28,0,0,0-.26-.18l-2-.1-1-2.11a.29.29,0,0,0-.27-.16.3.3,0,0,0-.26.17l-.88,2.1-2.13.1a.28.28,0,0,0-.25.18.27.27,0,0,0,.06.31Z"/><path d="M147,8.93l-.35,2.33a.27.27,0,0,0,.13.28.29.29,0,0,0,.31,0l1.85-1.19,1.87,1.19a.3.3,0,0,0,.16.05.27.27,0,0,0,.15-.05.28.28,0,0,0,.13-.29l-.37-2.32,1.52-1.49a.3.3,0,0,0,.07-.31.28.28,0,0,0-.25-.18l-2-.1-1-2.11a.28.28,0,0,0-.27-.16.3.3,0,0,0-.26.17l-.88,2.1-2.13.1a.28.28,0,0,0-.25.18.29.29,0,0,0,.06.31Z"/><path d="M140.85,181.33l-2-.1-1-2.11a.26.26,0,0,0-.26-.16.28.28,0,0,0-.26.17l-.89,2.1-2.12.1a.27.27,0,0,0-.26.18.3.3,0,0,0,.07.31l1.52,1.49-.35,2.32a.28.28,0,0,0,.13.29.29.29,0,0,0,.31,0l1.85-1.19,1.87,1.19a.34.34,0,0,0,.32,0,.29.29,0,0,0,.12-.29l-.37-2.33,1.53-1.48a.29.29,0,0,0,.06-.31A.27.27,0,0,0,140.85,181.33Z"/><path d="M3.16,108.3a.53.53,0,0,0,.81.53l4.75-3,4.81,3a.54.54,0,0,0,.28.08.6.6,0,0,0,.29-.08.55.55,0,0,0,.23-.53l-.95-5.94,3.9-3.8a.53.53,0,0,0-.34-.91l-5.21-.25L9.2,92a.53.53,0,0,0-.49-.3.54.54,0,0,0-.48.32L6,97.4l-5.45.25a.53.53,0,0,0-.35.91l3.9,3.8Z"/><path d="M18.18,130.8l-2.53-.12-1.23-2.63a.34.34,0,0,0-.33-.2.35.35,0,0,0-.32.21l-1.1,2.62L10,130.8a.36.36,0,0,0-.32.23.34.34,0,0,0,.09.38l1.89,1.85-.43,2.9a.36.36,0,0,0,.15.36.39.39,0,0,0,.39,0L14.1,135l2.33,1.48a.41.41,0,0,0,.19,0,.36.36,0,0,0,.2-.06.34.34,0,0,0,.15-.35l-.46-2.9,1.9-1.85a.36.36,0,0,0,.08-.38A.34.34,0,0,0,18.18,130.8Z"/><path d="M176.71,89.45l-.44,2.9a.37.37,0,0,0,.16.36.39.39,0,0,0,.39,0l2.31-1.48,2.32,1.48a.35.35,0,0,0,.2.05.45.45,0,0,0,.19-.05.37.37,0,0,0,.16-.36l-.46-2.9,1.89-1.85a.34.34,0,0,0,.09-.38.37.37,0,0,0-.32-.23l-2.52-.12-1.23-2.63a.36.36,0,0,0-.66,0l-1.1,2.61-2.64.12a.36.36,0,0,0-.32.23.36.36,0,0,0,.08.38Z"/><path d="M184.17,116.84a.51.51,0,0,0-.46-.34l-4.33-.21-2.1-4.49a.52.52,0,0,0-.48-.29.5.5,0,0,0-.47.31l-1.88,4.47-4.54.21a.52.52,0,0,0-.46.34.53.53,0,0,0,.12.55l3.25,3.17-.75,4.94a.52.52,0,0,0,.23.52.52.52,0,0,0,.56,0l3.95-2.54,4,2.54a.57.57,0,0,0,.28.08.6.6,0,0,0,.29-.08.53.53,0,0,0,.22-.52l-.79-5,3.25-3.16A.53.53,0,0,0,184.17,116.84Z"/><path d="M14.62,165.62l-4.33-.21-2.11-4.48a.5.5,0,0,0-.47-.3.51.51,0,0,0-.47.32l-1.89,4.46-4.53.21a.51.51,0,0,0-.46.34.49.49,0,0,0,.12.55l3.25,3.17L3,174.63a.52.52,0,0,0,.79.51l4-2.53,4,2.53a.46.46,0,0,0,.28.08.6.6,0,0,0,.28-.08.54.54,0,0,0,.23-.52l-.79-4.94L15,166.51a.51.51,0,0,0,.13-.55A.55.55,0,0,0,14.62,165.62Z"/><path d="M167.89,148.85a.27.27,0,0,0-.26-.18l-2-.1-1-2.11a.28.28,0,0,0-.27-.16.3.3,0,0,0-.26.17l-.88,2.1-2.13.1a.27.27,0,0,0-.25.18.28.28,0,0,0,.07.31l1.52,1.49-.35,2.32a.28.28,0,0,0,.13.29.29.29,0,0,0,.31,0l1.85-1.19,1.87,1.19a.29.29,0,0,0,.16,0,.26.26,0,0,0,.15,0,.28.28,0,0,0,.13-.29l-.37-2.33,1.52-1.48A.28.28,0,0,0,167.89,148.85Z"/><path d="M39.71,200.29l-3.93-.2L33.86,196a.55.55,0,0,0-.51-.32.59.59,0,0,0-.51.34l-1.71,4.06-4.12.2a.55.55,0,0,0-.5.36.54.54,0,0,0,.13.59l3,2.89-.68,4.51a.54.54,0,0,0,.24.55.58.58,0,0,0,.61,0l3.59-2.31L37,209.2a.61.61,0,0,0,.3.08.56.56,0,0,0,.55-.64l-.72-4.51,3-2.89a.55.55,0,0,0-.36-1Z"/><path d="M40.17,173.51l-2.52-.13-1.23-2.62a.37.37,0,0,0-.34-.21.38.38,0,0,0-.32.22l-1.1,2.61-2.65.13a.36.36,0,0,0-.32.22.37.37,0,0,0,.09.39l1.9,1.85-.44,2.9a.36.36,0,0,0,.55.35l2.3-1.48,2.33,1.48a.35.35,0,0,0,.19.06.36.36,0,0,0,.36-.41l-.46-2.9,1.89-1.85a.35.35,0,0,0,.09-.39A.35.35,0,0,0,40.17,173.51Z"/><path d="M103.93,9.05,103.18,14a.52.52,0,0,0,.79.51l4-2.53,4,2.53a.45.45,0,0,0,.27.08.5.5,0,0,0,.51-.6l-.78-4.94,3.24-3.17a.49.49,0,0,0,.12-.55.51.51,0,0,0-.46-.33l-4.32-.22L108.39.3a.52.52,0,0,0-.48-.3.5.5,0,0,0-.46.32l-1.89,4.46L101,5a.53.53,0,0,0-.46.33.51.51,0,0,0,.13.55Z"/><path d="M60.6,221.21l-3.12-.16L56,217.81a.45.45,0,0,0-.41-.25.42.42,0,0,0-.39.27l-1.36,3.22-3.27.16a.45.45,0,0,0-.4.28.44.44,0,0,0,.11.47l2.34,2.29L52,227.83a.43.43,0,0,0,.2.43.42.42,0,0,0,.48,0l2.84-1.82,2.88,1.83a.48.48,0,0,0,.24.06.42.42,0,0,0,.24-.07.44.44,0,0,0,.19-.44l-.57-3.57L60.89,222a.45.45,0,0,0,.1-.47A.43.43,0,0,0,60.6,221.21Z"/><path d="M120.5,68.53a32.58,32.58,0,0,1,4.75,3.3c2.54,2.11,5.39,5.1,6.67,8.61,1.38,3.76,5.39,15.4,5.38,28.31a47.44,47.44,0,0,1-3.81,19.47,30.14,30.14,0,0,1-5.18,8,16.7,16.7,0,0,1-2.65,2.41.34.34,0,0,0-.09.48.32.32,0,0,0,.28.15.46.46,0,0,0,.2-.05s4.67-3.14,8.07-10.69A48.06,48.06,0,0,0,138,108.75c0-13-4-24.75-5.43-28.55-2.73-7.38-11.71-12.26-11.74-12.28a.35.35,0,0,0-.33.61Z"/></svg>