<svg id="_ÎÓÈ_1" data-name="—ÎÓÈ_1" xmlns="http://www.w3.org/2000/svg" viewBox="0 0 274.61 274.61"><title>12</title><path d="M121.86,164.44a66,66,0,0,0,4.72-4.74c14.69-16.33,20.91-37.07,22.15-58.84.2-2.66.32-5.32.35-8,.25-26.44-9.12-51.26-36-62.62A50.18,50.18,0,0,0,108,28a47.35,47.35,0,0,0-17.06-3.21,58.78,58.78,0,0,0-6.5,0q-3.28.2-6.62.72a57,57,0,0,0-8.88,2.12,39.28,39.28,0,0,0-7.26,3.2C29.77,49.7,25,88.12,29.39,121.73a62.68,62.68,0,0,0,1.71,8.08c5.95,21.11,22.65,38.91,45,46.4-.81,1.78-1.56,3.39-2.33,5.09s-1.57,3.47-2.49,5.57c-1.32,3-5,7.81-4.47,11.35.66,4.17,4.62,2.74,7.91,1.73,1.88-.58,3.54-.65,4.82-1,7.71-2.36,19.06-2.55,26.84-2.75-.16-2.47-2.82-2.62-4.13-4.13A19.8,19.8,0,0,1,99,186c-.85-2.24-1.6-4.59-2.61-6.74,12.34.5,26.75,5.3,24.32,20.31a33.32,33.32,0,0,1-.28,6.44,19,19,0,0,1-1.67,5.59c-3.14,6.26-11.3,9.52-13.77,15.83-2.24,5.73.44,12.22,2.76,15.48,3.1,4.39,7.48,8.4,10,13.42s1.48,11.84,2.76,18.24c.71-2.49,2-3.1,2.4-5.16a20,20,0,0,0-1.72-13.77c-2.73-5.57-6.48-9.16-9.63-13.41-1.2-1.62-2.84-4.51-3.1-6.2-1-6.44,3.63-9.39,6.88-12.73,4.72-4.82,9.41-8.94,10-17.89a44.8,44.8,0,0,0-.12-8.12c-1.23-11.93-10-19.93-21.26-22,2.31-1,4.6-2.07,6.89-3.12A54.83,54.83,0,0,0,121.86,164.44ZM73.33,136.62c-3.23,1.09-9.1,1.49-12.64,0-1.66-14.52-.48-45.38-1-46.48-.29-.64-.61-1.1-.93-1.16-1.59-.3-4.29,5.52-5.29,6.84-1.64,2.18-4,5.78-5.95,6.17-1.44.29-5.16-2.14-3.38-4.66,7.36-13,12.73-21.63,20.36-33.93,1.62-.16,4.48-.5,5.92-.49s2,16.39,2.3,30.47c.2,9.39.26,17.75.31,19.55.13,4.46.25,8.93.32,13.4C73.37,127.16,74,136.41,73.33,136.62Zm9.64-1.4c-4-10.52-.09-18.65,5.94-24.33,3.3-3.11,17.9-15.11,19.39-18.56,3.5-8.1-.86-13.46-5.65-15C93.93,74.49,89,81.53,88.49,89.53,85.74,90.62,80,90.9,77,88.32,76.64,81,78.58,74,83.85,68.85A24.43,24.43,0,0,1,93,63.52c7.33-1.58,16.3-1.74,22.47,3.14a14.81,14.81,0,0,1,4.68,5.84c2.21,4.91,3.65,8.7,2.42,16.21a32.42,32.42,0,0,1-7.38,15.38c-4.12,4.69-15.43,13.63-15.85,15.72,6.76,1.9,24.81-.32,25.77,2,.77,2-.55,12.09-.48,13C112.09,134.61,98.67,136.37,83,135.22Z"/><path d="M161.25,160.06l-4.06-.19-2-4.22a.51.51,0,0,0-.48-.3.52.52,0,0,0-.46.32l-1.77,4.2-4.27.19a.56.56,0,0,0-.46.34.55.55,0,0,0,.12.56l3.06,3-.71,4.66a.52.52,0,0,0,.79.51l3.72-2.38,3.75,2.39a.54.54,0,0,0,.28.08.51.51,0,0,0,.28-.09.52.52,0,0,0,.23-.52l-.75-4.65,3.06-3a.55.55,0,0,0,.12-.56A.56.56,0,0,0,161.25,160.06Z"/><path d="M115.66,15.52l-.51,3.41a.41.41,0,0,0,.18.42.43.43,0,0,0,.46,0l2.71-1.74,2.74,1.74a.47.47,0,0,0,.22.07.48.48,0,0,0,.24-.07.43.43,0,0,0,.18-.42l-.54-3.41,2.23-2.17a.42.42,0,0,0,.1-.45.41.41,0,0,0-.38-.27l-3-.15L118.88,9.4a.43.43,0,0,0-.39-.25.44.44,0,0,0-.38.26l-1.29,3.07-3.12.15a.4.4,0,0,0-.37.27.42.42,0,0,0,.1.45Z"/><path d="M45.71,21.17l-.8,5.29a.46.46,0,0,0,.21.46.47.47,0,0,0,.51,0l4.23-2.71,4.27,2.71a.44.44,0,0,0,.25.08.5.5,0,0,0,.26-.08.51.51,0,0,0,.21-.47L54,21.17l3.47-3.38a.48.48,0,0,0-.3-.81l-4.64-.23L50.28,12a.46.46,0,0,0-.43-.27.47.47,0,0,0-.43.28l-2,4.78L42.55,17a.48.48,0,0,0-.42.31.49.49,0,0,0,.11.5Z"/><path d="M26.11,56.47l-3.37-.17-1.65-3.5a.48.48,0,0,0-.88,0L18.74,56.3l-3.54.17a.49.49,0,0,0-.43.31.5.5,0,0,0,.11.52l2.54,2.47-.58,3.87a.47.47,0,0,0,.21.48.45.45,0,0,0,.52,0l3.08-2,3.12,2a.48.48,0,0,0,.26.07.49.49,0,0,0,.48-.56l-.62-3.87,2.54-2.47a.5.5,0,0,0,.11-.52A.49.49,0,0,0,26.11,56.47Z"/><path d="M139.59,30.38a.51.51,0,0,0,.12.56L143,34.1l-.75,4.95a.52.52,0,0,0,.79.51L147,37l4,2.54a.54.54,0,0,0,.28.08.47.47,0,0,0,.28-.09.52.52,0,0,0,.23-.51l-.79-4.95,3.24-3.16a.51.51,0,0,0-.33-.89l-4.33-.21-2.1-4.49a.52.52,0,0,0-.95,0l-1.89,4.47-4.53.21A.51.51,0,0,0,139.59,30.38Z"/><path d="M72.89,4.35l-.35,2.33A.3.3,0,0,0,73,7l1.85-1.19L76.7,7a.28.28,0,0,0,.15,0A.22.22,0,0,0,77,7a.27.27,0,0,0,.13-.28l-.37-2.33,1.52-1.48a.3.3,0,0,0,.07-.31.29.29,0,0,0-.26-.19l-2-.1-1-2.1A.28.28,0,0,0,74.82,0a.29.29,0,0,0-.26.18l-.88,2.09-2.13.1a.29.29,0,0,0-.25.19.3.3,0,0,0,.06.31Z"/><path d="M98.87,208.11,96.35,208l-1.23-2.62a.37.37,0,0,0-.34-.21.36.36,0,0,0-.32.22L93.36,208l-2.65.12a.37.37,0,0,0-.32.23.39.39,0,0,0,.09.39l1.9,1.85-.44,2.89a.37.37,0,0,0,.16.36.35.35,0,0,0,.39,0l2.3-1.48,2.33,1.48a.35.35,0,0,0,.19.06.36.36,0,0,0,.2-.06.37.37,0,0,0,.16-.36l-.46-2.89,1.89-1.85a.36.36,0,0,0-.23-.62Z"/><path d="M160.64,54.05l-.35,2.33a.28.28,0,0,0,.13.29.29.29,0,0,0,.31,0l1.85-1.19,1.87,1.19a.29.29,0,0,0,.16,0,.32.32,0,0,0,.16,0,.29.29,0,0,0,.12-.29l-.37-2.33L166,52.57a.28.28,0,0,0,.07-.31.27.27,0,0,0-.25-.18l-2-.1-1-2.11a.3.3,0,0,0-.26-.17.3.3,0,0,0-.26.18l-.89,2.1-2.13.1a.27.27,0,0,0-.25.18.28.28,0,0,0,.07.31Z"/><path d="M29,31.87a.27.27,0,0,0,.16,0,.29.29,0,0,0,.13-.29l-.37-2.33,1.52-1.48a.29.29,0,0,0-.19-.5l-2-.1-1-2.1a.28.28,0,0,0-.27-.17.31.31,0,0,0-.26.18l-.88,2.09-2.13.1a.29.29,0,0,0-.25.19.27.27,0,0,0,.06.31L25,29.21l-.35,2.33a.29.29,0,0,0,.12.29.31.31,0,0,0,.32,0L27,30.64l1.87,1.19A.28.28,0,0,0,29,31.87Z"/><path d="M135.28,7.8l-.35,2.33a.3.3,0,0,0,.44.29l1.85-1.19,1.87,1.19a.29.29,0,0,0,.16,0,.25.25,0,0,0,.16-.05.28.28,0,0,0,.12-.28l-.37-2.33,1.53-1.49a.28.28,0,0,0,.06-.3.29.29,0,0,0-.25-.19l-2-.1-1-2.1a.28.28,0,0,0-.52,0l-.89,2.09-2.13.1a.29.29,0,0,0-.25.19.3.3,0,0,0,.07.31Z"/><path d="M136,174.36l-2-.11-1-2.1a.3.3,0,0,0-.27-.17.29.29,0,0,0-.26.18l-.88,2.09-2.13.11a.27.27,0,0,0-.25.18.27.27,0,0,0,.06.31l1.53,1.48-.35,2.33a.29.29,0,0,0,.12.29.31.31,0,0,0,.32,0l1.85-1.19,1.87,1.19a.28.28,0,0,0,.15,0,.27.27,0,0,0,.16,0,.29.29,0,0,0,.13-.29l-.37-2.33,1.52-1.48a.3.3,0,0,0,.07-.31A.27.27,0,0,0,136,174.36Z"/><path d="M12.85,96.15a.44.44,0,0,0,.27-.09.46.46,0,0,0,.22-.48l-.88-5.53,3.63-3.54A.49.49,0,0,0,16.2,86a.47.47,0,0,0-.43-.31l-4.85-.24-2.36-5a.49.49,0,0,0-.45-.29.53.53,0,0,0-.45.3l-2.11,5-5.08.24A.48.48,0,0,0,0,86a.5.5,0,0,0,.12.53l3.63,3.54-.84,5.53a.49.49,0,0,0,.75.49l4.43-2.84,4.47,2.84A.5.5,0,0,0,12.85,96.15Z"/><path d="M19.34,119.62a.36.36,0,0,0-.32-.24l-2.52-.12-1.23-2.62a.36.36,0,0,0-.33-.21.39.39,0,0,0-.33.22l-1.1,2.61-2.64.12a.37.37,0,0,0-.24.62l1.9,1.85-.44,2.9a.35.35,0,0,0,.16.35.35.35,0,0,0,.39,0L15,123.62l2.33,1.48a.33.33,0,0,0,.19.06.39.39,0,0,0,.2-.06.37.37,0,0,0,.15-.35l-.46-2.9,1.9-1.85A.36.36,0,0,0,19.34,119.62Z"/><path d="M175.93,76.63a.37.37,0,0,0-.32-.23l-2.53-.13-1.23-2.62a.34.34,0,0,0-.33-.2.35.35,0,0,0-.32.21l-1.1,2.61-2.65.13a.36.36,0,0,0-.32.23.34.34,0,0,0,.09.38l1.9,1.85-.44,2.9a.36.36,0,0,0,.54.36l2.31-1.49,2.33,1.49a.41.41,0,0,0,.19,0,.36.36,0,0,0,.36-.41l-.47-2.9,1.9-1.85A.36.36,0,0,0,175.93,76.63Z"/><path d="M173,105.11l-4.33-.22-2.1-4.48a.53.53,0,0,0-.48-.3.51.51,0,0,0-.47.32l-1.88,4.46-4.54.22a.51.51,0,0,0-.34.88l3.25,3.17-.75,5a.52.52,0,0,0,.79.51l4-2.53,4,2.54a.57.57,0,0,0,.28.08.47.47,0,0,0,.28-.09.51.51,0,0,0,.23-.52l-.79-4.94,3.25-3.17a.53.53,0,0,0,.12-.55A.51.51,0,0,0,173,105.11Z"/><path d="M23.94,147.21,19.62,147l-2.1-4.49a.53.53,0,0,0-.49-.3.52.52,0,0,0-.46.32L14.68,147l-4.53.21a.52.52,0,0,0-.34.89l3.25,3.16-.75,5a.49.49,0,0,0,.22.51.53.53,0,0,0,.57,0l4-2.53,4,2.54a.54.54,0,0,0,.28.08.53.53,0,0,0,.51-.6l-.79-5,3.24-3.16a.52.52,0,0,0-.34-.89Z"/><path d="M153.73,133.7a.27.27,0,0,0,.07.3l1.52,1.49-.35,2.33a.27.27,0,0,0,.13.28.29.29,0,0,0,.31,0l1.85-1.18,1.87,1.19a.42.42,0,0,0,.16,0,.3.3,0,0,0,.28-.33l-.37-2.33,1.52-1.49a.27.27,0,0,0,.07-.3.28.28,0,0,0-.25-.19l-2-.1-1-2.11a.29.29,0,0,0-.26-.16.28.28,0,0,0-.26.17l-.89,2.1-2.13.1A.28.28,0,0,0,153.73,133.7Z"/><path d="M39,167.8l-2.52-.12-1.23-2.63a.35.35,0,0,0-.33-.2.36.36,0,0,0-.33.22l-1.1,2.61-2.65.12a.34.34,0,0,0-.31.23.36.36,0,0,0,.08.38l1.9,1.85-.44,2.9a.37.37,0,0,0,.16.36.39.39,0,0,0,.39,0L35,172l2.32,1.48a.46.46,0,0,0,.2,0,.45.45,0,0,0,.19,0,.37.37,0,0,0,.16-.36l-.46-2.9,1.89-1.85a.34.34,0,0,0,.09-.38A.35.35,0,0,0,39,167.8Z"/><path d="M91.52,9.6l-.75,5a.49.49,0,0,0,.22.51.51.51,0,0,0,.57,0l4-2.54,4,2.54a.53.53,0,0,0,.27.08.52.52,0,0,0,.29-.09.49.49,0,0,0,.22-.51l-.78-5,3.24-3.16a.52.52,0,0,0-.34-.89l-4.32-.21L96,.85a.52.52,0,0,0-.48-.3A.54.54,0,0,0,95,.87L93.14,5.34l-4.54.21a.51.51,0,0,0-.33.89Z"/><path d="M58.88,188.64l-3.52-.17-1.71-3.65a.52.52,0,0,0-.46-.29.49.49,0,0,0-.45.31l-1.54,3.63-3.68.17a.5.5,0,0,0-.33.86l2.65,2.58-.62,4a.51.51,0,0,0,.22.49.54.54,0,0,0,.55,0l3.21-2.06,3.24,2.06a.53.53,0,0,0,.27.08.5.5,0,0,0,.49-.58l-.64-4,2.64-2.58a.49.49,0,0,0,.12-.54A.5.5,0,0,0,58.88,188.64Z"/><polygon points="69.73 64.89 69.73 64.89 69.73 64.89 69.73 64.89"/><path d="M70.28,64.87A.28.28,0,0,0,70,64.6a.29.29,0,0,0-.27.29L70.8,99.76,71.53,136a.27.27,0,0,0,.27.27h0a.28.28,0,0,0,.27-.28l-.73-36.19Z"/><path d="M121.73,85.81a28.5,28.5,0,0,0-.79-7.38c-2.73-11.78-11.21-14.29-19-14.49h-1a.32.32,0,0,0-.32.31.32.32,0,0,0,.32.32l1,0c7.65.25,15.64,2.54,18.34,14a27.78,27.78,0,0,1,.78,7.22c-.47,16.66-18.21,23.56-24.79,34.18a.31.31,0,0,0,.11.43.33.33,0,0,0,.16,0,.31.31,0,0,0,.28-.16C103.15,110,121.18,103,121.73,85.81Z"/><path d="M122.89,134h0a.33.33,0,0,0,.34-.3l.62-11.34a.32.32,0,1,0-.64,0l-.63,11.34A.33.33,0,0,0,122.89,134Z"/></svg>