<svg id="Layer_1" data-name="Layer 1" xmlns="http://www.w3.org/2000/svg" viewBox="0 0 274.61 274.61"><title>3</title><path d="M113.11,30.28A48.09,48.09,0,0,0,108,28a47.35,47.35,0,0,0-17.06-3.21,58.78,58.78,0,0,0-6.5,0,62.85,62.85,0,0,0-6.62.72,57.44,57.44,0,0,0-8.89,2.12,39.77,39.77,0,0,0-7.25,3.2C29.77,49.69,25,88.12,29.39,121.73a62.68,62.68,0,0,0,1.71,8.08c5.95,21.11,22.65,38.9,45,46.39-.81,1.78-1.56,3.4-2.33,5.09s-1.57,3.48-2.49,5.58c-1.32,3-5,7.81-4.47,11.35.66,4.17,4.62,2.73,7.91,1.72,1.88-.57,3.54-.64,4.82-1,7.71-2.36,19.07-2.55,26.84-2.75-.16-2.47-2.82-2.62-4.13-4.13A19.8,19.8,0,0,1,99,186c-.85-2.24-1.6-4.59-2.61-6.74,12.34.5,26.75,5.3,24.32,20.31a33.32,33.32,0,0,1-.28,6.44,19,19,0,0,1-1.67,5.59c-3.14,6.26-11.3,9.52-13.77,15.83-2.24,5.73.44,12.22,2.76,15.48,3.1,4.39,7.48,8.39,10,13.42s1.48,11.84,2.76,18.24c.71-2.49,2-3.11,2.4-5.16a20,20,0,0,0-1.72-13.77c-2.73-5.57-6.48-9.16-9.63-13.42-1.2-1.61-2.84-4.5-3.1-6.19-1-6.44,3.63-9.39,6.88-12.73,4.72-4.83,9.41-8.94,10-17.89a44.8,44.8,0,0,0-.12-8.12c-1.23-11.93-10-19.93-21.26-22,2.31-1,4.6-2.06,6.89-3.11,20.35-10.86,30.75-33.27,35.52-54.72.59-2.87,1.1-5.77,1.51-8.67C152.37,76.93,145.33,43.91,113.11,30.28Zm-4.73,99.36c-2.6,6.59-9.27,12.35-15,12.48-4.65.11-16.22,1.46-21.9-.3-2.29-.66-2.78-10,.55-10,6.15.86,11.51,1.52,16.81.51,11.93-2.28,13.15-17.21,5.38-24.71-5.47-5.27-16-5.51-22.48-5.6a25.87,25.87,0,0,1,.09-6.63c6.27-6.19,11.77-11,17.19-19.21.66-1.15,1.75-4.26,1.13-5.62-7.28-.44-19.07,1-19-.6.15-3.42-.3-7.15.2-10.21,11,0,28.89-1.2,32.76-.27-.07,4.71.45,8.22.13,11.15C103,75,100.22,79,96.9,82.86a121.9,121.9,0,0,0-7.4,10.57s8,2.06,10.65,3.78C110,103.71,112.46,119.3,108.38,129.64Z"/><path d="M96.74,97.5C94.65,96.75,89,95,87.32,94.43c.93-1.27,4-5.45,7.12-10C98.22,79,102.1,73.12,102.66,71a12.36,12.36,0,0,0,.21-2.63c0-2.81-.37-6.45-.37-6.46a.34.34,0,0,0-.37-.31.36.36,0,0,0-.32.38s.36,3.63.36,6.39A11.23,11.23,0,0,1,102,70.8c-.45,1.84-4.35,7.85-8.11,13.25s-7.4,10.35-7.4,10.36a.35.35,0,0,0-.06.31.37.37,0,0,0,.23.23s7.43,2.33,9.85,3.21c2.88,1,5.61,3.18,8.77,8.73a23.67,23.67,0,0,1,2.89,11.42c0,6.71-2.81,14.17-11.18,19.69-2.08,1.4-7.41,1.83-12.4,1.82-5.66,0-10.93-.51-10.94-.51a.36.36,0,0,0-.38.32.33.33,0,0,0,.31.37h0s5.31.51,11,.51c5,0,10.36-.36,12.78-1.93,8.56-5.64,11.5-13.37,11.49-20.27a24.33,24.33,0,0,0-3-11.76C102.68,100.92,99.8,98.6,96.74,97.5Z"/><path d="M161.25,160.06l-4.07-.2-2-4.21a.49.49,0,0,0-.48-.3.51.51,0,0,0-.46.32l-1.77,4.19-4.27.2a.55.55,0,0,0-.46.34.53.53,0,0,0,.12.55l3.06,3-.71,4.66a.52.52,0,0,0,.79.51l3.72-2.38,3.75,2.38a.46.46,0,0,0,.28.08.6.6,0,0,0,.28-.08.54.54,0,0,0,.23-.52l-.75-4.65,3.06-3a.52.52,0,0,0-.34-.89Z"/><path d="M123.29,12.62l-3-.14-1.45-3.09a.42.42,0,0,0-.39-.24.44.44,0,0,0-.38.26l-1.29,3.07-3.12.14a.43.43,0,0,0-.27.73l2.23,2.17-.51,3.41a.41.41,0,0,0,.18.42.43.43,0,0,0,.46,0l2.71-1.74,2.74,1.74a.47.47,0,0,0,.22.07.44.44,0,0,0,.42-.49l-.54-3.41,2.23-2.17a.42.42,0,0,0,.1-.45A.43.43,0,0,0,123.29,12.62Z"/><path d="M54.38,27a.48.48,0,0,0,.26-.07.51.51,0,0,0,.21-.47L54,21.17l3.47-3.38a.48.48,0,0,0,.11-.51.47.47,0,0,0-.41-.3l-4.64-.23L50.28,12a.46.46,0,0,0-.43-.27.47.47,0,0,0-.43.28l-2,4.78L42.55,17a.48.48,0,0,0-.42.3.5.5,0,0,0,.11.51l3.47,3.38-.8,5.28a.47.47,0,0,0,.72.47l4.23-2.71,4.27,2.71A.43.43,0,0,0,54.38,27Z"/><path d="M26.11,56.47l-3.37-.17-1.65-3.51a.46.46,0,0,0-.44-.27.47.47,0,0,0-.44.29L18.74,56.3l-3.54.17a.47.47,0,0,0-.43.31.48.48,0,0,0,.11.51l2.54,2.48-.58,3.87a.47.47,0,0,0,.21.48.49.49,0,0,0,.52,0l3.09-2,3.11,2a.46.46,0,0,0,.52,0,.51.51,0,0,0,.22-.48l-.62-3.87,2.54-2.48a.48.48,0,0,0,.11-.51A.47.47,0,0,0,26.11,56.47Z"/><path d="M133.52,235.48l-4.16-.2-2-4.32a.42.42,0,0,0-.39-.24.41.41,0,0,0-.38.26l-1.81,4.3-4.37.2a.42.42,0,0,0-.27.72l3.12,3-.72,4.75a.41.41,0,0,0,.18.42.43.43,0,0,0,.46,0L127,242l3.84,2.44a.41.41,0,0,0,.46,0,.41.41,0,0,0,.18-.42l-.76-4.75,3.12-3a.41.41,0,0,0,.1-.45A.42.42,0,0,0,133.52,235.48Z"/><path d="M154.31,30.38a.53.53,0,0,0-.46-.33l-4.33-.22-2.1-4.48a.52.52,0,0,0-.95,0l-1.89,4.46-4.53.22a.52.52,0,0,0-.34.89L143,34.1l-.75,4.95a.52.52,0,0,0,.79.51L147,37l4,2.54a.54.54,0,0,0,.28.08.47.47,0,0,0,.28-.09.52.52,0,0,0,.23-.52l-.79-4.94,3.24-3.16A.53.53,0,0,0,154.31,30.38Z"/><path d="M78.1,2.37l-2-.1-1-2.11a.29.29,0,0,0-.53,0l-.88,2.09-2.13.1a.29.29,0,0,0-.25.19.3.3,0,0,0,.06.31l1.53,1.48-.35,2.33a.27.27,0,0,0,.13.28A.25.25,0,0,0,73,7l1.85-1.18L76.7,7a.28.28,0,0,0,.15,0A.28.28,0,0,0,77,7a.27.27,0,0,0,.13-.28l-.37-2.33,1.52-1.49a.28.28,0,0,0,.07-.3A.29.29,0,0,0,78.1,2.37Z"/><path d="M98.87,208.11,96.35,208l-1.23-2.63a.38.38,0,0,0-.34-.2.36.36,0,0,0-.32.22L93.36,208l-2.65.12a.35.35,0,0,0-.23.61l1.9,1.86-.44,2.89a.37.37,0,0,0,.16.36.39.39,0,0,0,.39,0l2.3-1.48,2.33,1.48a.35.35,0,0,0,.19.06.36.36,0,0,0,.2-.06.37.37,0,0,0,.16-.36l-.46-2.9,1.89-1.85a.34.34,0,0,0,.09-.38A.37.37,0,0,0,98.87,208.11Z"/><path d="M165.86,52.07l-2-.1-1-2.1a.28.28,0,0,0-.26-.17.28.28,0,0,0-.26.18L161.43,52l-2.13.1a.29.29,0,0,0-.25.19.28.28,0,0,0,.07.31l1.52,1.48-.35,2.33a.28.28,0,0,0,.13.29.29.29,0,0,0,.31,0l1.85-1.19,1.87,1.19a.29.29,0,0,0,.16,0,.32.32,0,0,0,.16,0,.3.3,0,0,0,.12-.29l-.37-2.33L166,52.57a.28.28,0,0,0,.07-.31A.29.29,0,0,0,165.86,52.07Z"/><path d="M30.22,27.23l-2-.1-1-2.1a.28.28,0,0,0-.27-.17.29.29,0,0,0-.26.18l-.88,2.09-2.13.1a.3.3,0,0,0-.19.5L25,29.21l-.35,2.33a.3.3,0,0,0,.12.29.31.31,0,0,0,.32,0L27,30.64l1.87,1.19a.28.28,0,0,0,.15,0,.22.22,0,0,0,.16-.05.27.27,0,0,0,.13-.28l-.37-2.33,1.52-1.49a.27.27,0,0,0,.07-.3A.29.29,0,0,0,30.22,27.23Z"/><path d="M140.5,5.82l-2-.1-1-2.11a.29.29,0,0,0-.26-.16.27.27,0,0,0-.26.18l-.89,2.09-2.13.1a.29.29,0,0,0-.25.19.28.28,0,0,0,.07.3l1.52,1.49-.35,2.33a.27.27,0,0,0,.13.28.25.25,0,0,0,.31,0l1.85-1.18,1.87,1.19a.42.42,0,0,0,.16,0,.33.33,0,0,0,.16-.05.28.28,0,0,0,.12-.28l-.37-2.33,1.52-1.49a.27.27,0,0,0,.07-.3A.29.29,0,0,0,140.5,5.82Z"/><path d="M136,174.35l-2-.1-1-2.1a.28.28,0,0,0-.27-.17.29.29,0,0,0-.26.18l-.88,2.09-2.13.1a.28.28,0,0,0-.25.19.27.27,0,0,0,.06.31l1.53,1.48-.35,2.33a.29.29,0,0,0,.44.29l1.85-1.19,1.87,1.19a.28.28,0,0,0,.15,0,.22.22,0,0,0,.16-.05.27.27,0,0,0,.13-.28l-.37-2.33,1.52-1.48a.29.29,0,0,0-.19-.5Z"/><path d="M15.77,85.66l-4.85-.23-2.36-5a.49.49,0,0,0-.45-.29.51.51,0,0,0-.45.3l-2.11,5-5.08.23a.49.49,0,0,0-.32.85l3.63,3.54-.84,5.53a.49.49,0,0,0,.75.49l4.43-2.84,4.47,2.84a.5.5,0,0,0,.26.08.44.44,0,0,0,.27-.09.46.46,0,0,0,.22-.48l-.88-5.53,3.63-3.54A.49.49,0,0,0,16.2,86,.5.5,0,0,0,15.77,85.66Z"/><path d="M19,119.38l-2.52-.12-1.23-2.62a.36.36,0,0,0-.33-.21.35.35,0,0,0-.32.22l-1.11,2.61-2.64.12a.36.36,0,0,0-.32.23.37.37,0,0,0,.08.39l1.9,1.85-.43,2.9a.35.35,0,0,0,.15.35.35.35,0,0,0,.39,0L15,123.62l2.33,1.48a.33.33,0,0,0,.19.06.39.39,0,0,0,.2-.06.38.38,0,0,0,.15-.36l-.46-2.89,1.9-1.85a.37.37,0,0,0,.08-.39A.36.36,0,0,0,19,119.38Z"/><path d="M175.61,76.4l-2.53-.13-1.23-2.62a.35.35,0,0,0-.65,0l-1.1,2.61-2.65.13a.35.35,0,0,0-.23.61l1.9,1.85-.44,2.9a.34.34,0,0,0,.16.35.33.33,0,0,0,.38,0l2.31-1.48,2.33,1.49a.41.41,0,0,0,.19,0,.36.36,0,0,0,.36-.41l-.47-2.9,1.9-1.85a.36.36,0,0,0,.09-.38A.35.35,0,0,0,175.61,76.4Z"/><path d="M173.44,105.44a.53.53,0,0,0-.46-.34l-4.33-.21-2.1-4.48a.53.53,0,0,0-.48-.3.51.51,0,0,0-.47.32l-1.88,4.46-4.54.21a.52.52,0,0,0-.46.34.53.53,0,0,0,.12.55l3.25,3.17-.75,5a.52.52,0,0,0,.79.51l4-2.53,4,2.53a.48.48,0,0,0,.28.08.54.54,0,0,0,.28-.08.52.52,0,0,0,.23-.52l-.79-4.94,3.25-3.17A.53.53,0,0,0,173.44,105.44Z"/><path d="M24.4,147.54a.51.51,0,0,0-.46-.33L19.62,147l-2.1-4.48a.53.53,0,0,0-.49-.3.51.51,0,0,0-.46.32L14.68,147l-4.53.22a.51.51,0,0,0-.46.33.49.49,0,0,0,.12.55l3.25,3.17-.75,5a.48.48,0,0,0,.23.51.52.52,0,0,0,.56,0l4-2.53,4,2.54a.54.54,0,0,0,.28.08.53.53,0,0,0,.51-.6l-.79-5,3.24-3.17A.49.49,0,0,0,24.4,147.54Z"/><path d="M160.54,133.51l-2-.1-1-2.11a.29.29,0,0,0-.26-.16.28.28,0,0,0-.26.17l-.89,2.1-2.13.1a.28.28,0,0,0-.25.18.28.28,0,0,0,.07.31l1.52,1.49-.35,2.33a.27.27,0,0,0,.13.28.29.29,0,0,0,.31,0l1.85-1.19,1.87,1.19a.3.3,0,0,0,.16.05.3.3,0,0,0,.28-.33l-.37-2.33,1.52-1.49a.28.28,0,0,0,.07-.31A.28.28,0,0,0,160.54,133.51Z"/><path d="M39,167.8l-2.52-.13-1.23-2.62a.34.34,0,0,0-.33-.2.35.35,0,0,0-.33.21l-1.1,2.61-2.65.13a.34.34,0,0,0-.31.23.36.36,0,0,0,.08.38l1.9,1.85-.44,2.9a.37.37,0,0,0,.16.36.39.39,0,0,0,.39,0L35,172l2.32,1.48a.46.46,0,0,0,.2,0,.35.35,0,0,0,.19-.06.34.34,0,0,0,.16-.35l-.46-2.9,1.89-1.85a.34.34,0,0,0,.09-.38A.36.36,0,0,0,39,167.8Z"/><path d="M102.86,5.88a.51.51,0,0,0-.46-.33l-4.32-.21L96,.85a.52.52,0,0,0-.48-.3A.54.54,0,0,0,95,.87L93.14,5.34l-4.54.21a.51.51,0,0,0-.33.89L91.52,9.6l-.75,5a.49.49,0,0,0,.22.51.55.55,0,0,0,.57,0l4-2.54,4,2.54a.53.53,0,0,0,.27.08.52.52,0,0,0,.29-.09.49.49,0,0,0,.22-.51l-.78-5,3.24-3.16A.51.51,0,0,0,102.86,5.88Z"/><path d="M58.88,188.64l-3.52-.17-1.71-3.65a.52.52,0,0,0-.46-.29.49.49,0,0,0-.45.31l-1.54,3.63-3.68.17a.5.5,0,0,0-.33.86l2.65,2.58-.62,4a.52.52,0,0,0,.22.5.54.54,0,0,0,.55,0l3.21-2.06,3.24,2.06a.53.53,0,0,0,.27.08.5.5,0,0,0,.49-.58l-.64-4,2.64-2.57a.49.49,0,0,0,.12-.54A.5.5,0,0,0,58.88,188.64Z"/></svg>