<svg id="Layer_1" data-name="Layer 1" xmlns="http://www.w3.org/2000/svg" viewBox="0 0 274.61 274.61"><title>7</title><path d="M113.11,30.28A50.18,50.18,0,0,0,108,28a47.35,47.35,0,0,0-17.06-3.21,58.78,58.78,0,0,0-6.5,0q-3.28.2-6.62.72a57.44,57.44,0,0,0-8.89,2.12,39.47,39.47,0,0,0-7.25,3.2C29.77,49.69,25,88.12,29.39,121.73a62.68,62.68,0,0,0,1.71,8.08c5.95,21.11,22.65,38.91,45,46.39-.82,1.78-1.56,3.4-2.33,5.1s-1.57,3.47-2.49,5.57c-1.32,3-5,7.81-4.47,11.35.66,4.17,4.62,2.74,7.91,1.72,1.88-.57,3.54-.64,4.82-1,7.71-2.36,19.06-2.55,26.84-2.75-.16-2.47-2.82-2.62-4.13-4.13A19.8,19.8,0,0,1,99,186c-.85-2.24-1.6-4.59-2.61-6.74,12.34.5,26.75,5.3,24.32,20.31a33.32,33.32,0,0,1-.28,6.44,19,19,0,0,1-1.67,5.59c-3.14,6.26-11.3,9.52-13.77,15.83-2.24,5.73.44,12.22,2.75,15.48,3.11,4.39,7.49,8.4,10,13.42s1.48,11.84,2.75,18.24c.72-2.49,2-3.1,2.41-5.16a20,20,0,0,0-1.72-13.77c-2.73-5.57-6.48-9.16-9.63-13.41-1.2-1.62-2.84-4.51-3.1-6.2-1-6.44,3.63-9.39,6.88-12.73,4.72-4.82,9.41-8.94,10-17.89a44.8,44.8,0,0,0-.12-8.12c-1.23-11.93-10-19.93-21.26-22,2.31-1,4.6-2.07,6.88-3.12,20.36-10.85,30.76-33.27,35.53-54.72.59-2.87,1.1-5.76,1.51-8.67C152.37,76.93,145.33,43.91,113.11,30.28Zm6.1,48.94c-6.21,13-17.71,27.46-24.77,39.62-.78.83-6.85,19-7.86,29.39-3.3,1.39-14,0-17.84.84C66,128.24,98.57,89.72,106.83,80.22c-3.88-1.52-12.3-.77-17.59-1.16a122.07,122.07,0,0,0-23.41.61c-.79-5.16-.1-10.6.24-15.93.05-.74,0-1.34.45-1.87s1.29-.48,2.13-.57c15-1.52,36.9-5.22,49.64,1.32A76,76,0,0,1,119.21,79.22Z"/><path d="M161.25,160.06l-4.07-.19-2-4.22a.51.51,0,0,0-.48-.3.52.52,0,0,0-.46.32l-1.78,4.2-4.26.19a.52.52,0,0,0-.34.89l3.06,3-.71,4.66a.52.52,0,0,0,.79.51l3.72-2.38,3.75,2.38a.46.46,0,0,0,.28.08.5.5,0,0,0,.28-.08.53.53,0,0,0,.23-.52l-.75-4.65,3.06-3a.53.53,0,0,0,.12-.55A.55.55,0,0,0,161.25,160.06Z"/><path d="M115.66,15.52l-.52,3.41a.44.44,0,0,0,.19.42.43.43,0,0,0,.46,0l2.71-1.74,2.74,1.74a.44.44,0,0,0,.22.07.55.55,0,0,0,.24-.07.43.43,0,0,0,.18-.42l-.54-3.41,2.23-2.17a.42.42,0,0,0,.1-.45.43.43,0,0,0-.38-.28l-3-.14-1.45-3.09a.42.42,0,0,0-.39-.24.44.44,0,0,0-.38.26l-1.3,3.07-3.11.14a.43.43,0,0,0-.27.73Z"/><path d="M45.71,21.17l-.8,5.28a.47.47,0,0,0,.72.47l4.23-2.71,4.27,2.71a.44.44,0,0,0,.25.08.5.5,0,0,0,.26-.08.51.51,0,0,0,.21-.47L54,21.17l3.47-3.38a.48.48,0,0,0,.11-.51.47.47,0,0,0-.42-.3l-4.63-.23L50.28,12a.46.46,0,0,0-.43-.27.47.47,0,0,0-.43.28l-2,4.78L42.55,17a.48.48,0,0,0-.42.3.5.5,0,0,0,.11.51Z"/><path d="M26.11,56.47l-3.37-.17-1.65-3.5a.45.45,0,0,0-.44-.28.47.47,0,0,0-.44.29L18.74,56.3l-3.54.17a.47.47,0,0,0-.43.31.48.48,0,0,0,.11.51l2.54,2.48-.58,3.87a.47.47,0,0,0,.21.48.49.49,0,0,0,.52,0l3.09-2,3.11,2a.46.46,0,0,0,.52,0,.51.51,0,0,0,.22-.48l-.62-3.87,2.54-2.48a.48.48,0,0,0,.11-.51A.47.47,0,0,0,26.11,56.47Z"/><path d="M139.59,30.38a.51.51,0,0,0,.12.56L143,34.1l-.75,4.95a.52.52,0,0,0,.79.51L147,37l4,2.54a.54.54,0,0,0,.28.08.49.49,0,0,0,.28-.09.52.52,0,0,0,.23-.51l-.79-4.95,3.24-3.16a.52.52,0,0,0-.33-.89l-4.33-.22-2.1-4.48a.52.52,0,0,0-.95,0l-1.89,4.46-4.53.22A.51.51,0,0,0,139.59,30.38Z"/><path d="M72.89,4.35l-.35,2.33a.28.28,0,0,0,.12.28A.27.27,0,0,0,73,7l1.85-1.18L76.7,7a.28.28,0,0,0,.15,0A.22.22,0,0,0,77,7a.27.27,0,0,0,.13-.28l-.37-2.33,1.52-1.49a.28.28,0,0,0,.07-.3.29.29,0,0,0-.26-.19l-2-.1-1-2.1A.28.28,0,0,0,74.82,0a.29.29,0,0,0-.26.18l-.88,2.09-2.13.1a.32.32,0,0,0-.26.19.32.32,0,0,0,.07.31Z"/><path d="M98.87,208.11,96.35,208l-1.23-2.62a.37.37,0,0,0-.34-.21.36.36,0,0,0-.32.22L93.36,208l-2.65.12a.37.37,0,0,0-.32.23.4.4,0,0,0,.09.39l1.9,1.85-.44,2.89a.37.37,0,0,0,.16.36.39.39,0,0,0,.39,0l2.3-1.48,2.33,1.48a.35.35,0,0,0,.19.06.36.36,0,0,0,.2-.06.37.37,0,0,0,.16-.36l-.46-2.9,1.89-1.85a.36.36,0,0,0,.09-.38A.37.37,0,0,0,98.87,208.11Z"/><path d="M160.64,54.05l-.35,2.33a.28.28,0,0,0,.13.29.29.29,0,0,0,.31,0l1.85-1.19,1.87,1.19a.29.29,0,0,0,.16,0,.32.32,0,0,0,.16,0,.3.3,0,0,0,.12-.29l-.37-2.33L166,52.57a.28.28,0,0,0,.07-.31.29.29,0,0,0-.25-.19l-2-.1-1-2.1a.28.28,0,0,0-.26-.17.28.28,0,0,0-.26.18L161.43,52l-2.13.1a.29.29,0,0,0-.25.19.28.28,0,0,0,.07.31Z"/><path d="M29,31.87a.24.24,0,0,0,.16-.05.27.27,0,0,0,.13-.28l-.37-2.33,1.52-1.48a.29.29,0,0,0-.19-.5l-2-.1-1-2.1a.28.28,0,0,0-.27-.17.29.29,0,0,0-.26.18l-.88,2.09-2.13.1a.28.28,0,0,0-.25.19.27.27,0,0,0,.06.31L25,29.21l-.35,2.33a.3.3,0,0,0,.12.29.31.31,0,0,0,.32,0L27,30.64l1.87,1.19A.28.28,0,0,0,29,31.87Z"/><path d="M135.28,7.8l-.35,2.33a.3.3,0,0,0,.44.29l1.85-1.19,1.87,1.19a.29.29,0,0,0,.16,0,.33.33,0,0,0,.16-.05.28.28,0,0,0,.12-.28l-.37-2.33,1.53-1.49a.28.28,0,0,0,.06-.3.29.29,0,0,0-.25-.19l-2-.1-1-2.11a.29.29,0,0,0-.26-.16.27.27,0,0,0-.26.18l-.89,2.09-2.13.1a.29.29,0,0,0-.25.19.28.28,0,0,0,.07.3Z"/><path d="M136,174.35l-2-.1-1-2.1a.3.3,0,0,0-.27-.17.29.29,0,0,0-.26.18l-.88,2.09-2.13.1a.31.31,0,0,0-.26.19.3.3,0,0,0,.07.31l1.53,1.48-.35,2.33a.3.3,0,0,0,.12.29.31.31,0,0,0,.32,0l1.85-1.19,1.87,1.19a.28.28,0,0,0,.15,0,.28.28,0,0,0,.29-.33l-.37-2.33,1.52-1.48a.29.29,0,0,0-.19-.5Z"/><path d="M12.85,96.15a.44.44,0,0,0,.27-.09.46.46,0,0,0,.22-.48l-.88-5.53,3.63-3.54A.49.49,0,0,0,16.2,86a.47.47,0,0,0-.43-.31l-4.85-.24-2.36-5a.49.49,0,0,0-.45-.29.53.53,0,0,0-.45.3l-2.11,5-5.08.24A.48.48,0,0,0,0,86a.5.5,0,0,0,.12.53l3.63,3.54-.84,5.53a.49.49,0,0,0,.75.49l4.43-2.84,4.47,2.84A.5.5,0,0,0,12.85,96.15Z"/><path d="M19.34,119.61a.36.36,0,0,0-.32-.23l-2.52-.12-1.23-2.62a.35.35,0,0,0-.65,0l-1.11,2.61-2.64.12a.36.36,0,0,0-.32.23.37.37,0,0,0,.08.39l1.9,1.85-.44,2.9a.35.35,0,0,0,.16.35.35.35,0,0,0,.39,0L15,123.62l2.32,1.48a.36.36,0,0,0,.2.06.33.33,0,0,0,.19-.06.37.37,0,0,0,.16-.36l-.46-2.89,1.9-1.85A.37.37,0,0,0,19.34,119.61Z"/><path d="M175.92,76.63a.33.33,0,0,0-.31-.23l-2.53-.13-1.23-2.62a.36.36,0,0,0-.65,0l-1.1,2.61-2.65.13a.35.35,0,0,0-.23.61l1.89,1.85-.43,2.9a.34.34,0,0,0,.16.35.33.33,0,0,0,.38,0l2.31-1.48,2.33,1.49a.41.41,0,0,0,.19,0,.36.36,0,0,0,.2-.06.34.34,0,0,0,.15-.35l-.46-2.9,1.9-1.85A.34.34,0,0,0,175.92,76.63Z"/><path d="M173,105.1l-4.33-.21-2.1-4.48a.53.53,0,0,0-.48-.3.51.51,0,0,0-.47.32l-1.88,4.46-4.54.21a.52.52,0,0,0-.46.34.51.51,0,0,0,.12.55l3.25,3.17-.75,5a.52.52,0,0,0,.79.51l4-2.53,4,2.53a.48.48,0,0,0,.28.08.54.54,0,0,0,.28-.08.51.51,0,0,0,.23-.52l-.79-4.94,3.25-3.17a.52.52,0,0,0-.34-.89Z"/><path d="M23.94,147.21,19.62,147l-2.11-4.48a.51.51,0,0,0-.48-.3.52.52,0,0,0-.46.32L14.68,147l-4.53.22a.52.52,0,0,0-.34.89l3.24,3.16-.75,5a.52.52,0,0,0,.23.51.53.53,0,0,0,.57,0l4-2.53,4,2.54a.53.53,0,0,0,.27.08.53.53,0,0,0,.52-.6l-.79-5,3.24-3.16a.52.52,0,0,0-.34-.89Z"/><path d="M153.73,133.7a.27.27,0,0,0,.07.3l1.52,1.49-.35,2.33a.27.27,0,0,0,.13.28.29.29,0,0,0,.31,0l1.85-1.18,1.87,1.19a.42.42,0,0,0,.16,0,.3.3,0,0,0,.28-.33l-.37-2.33,1.52-1.49a.27.27,0,0,0,.07-.3.28.28,0,0,0-.25-.19l-2-.1-1-2.11a.29.29,0,0,0-.26-.16.28.28,0,0,0-.26.17l-.89,2.1-2.13.1A.28.28,0,0,0,153.73,133.7Z"/><path d="M39,167.8l-2.52-.12-1.23-2.63a.34.34,0,0,0-.33-.2.37.37,0,0,0-.33.21l-1.1,2.62-2.65.12a.34.34,0,0,0-.31.23.36.36,0,0,0,.08.38l1.9,1.85-.44,2.9a.37.37,0,0,0,.16.36.39.39,0,0,0,.39,0L35,172l2.33,1.48a.46.46,0,0,0,.2,0,.35.35,0,0,0,.19-.06.34.34,0,0,0,.16-.35l-.46-2.9,1.89-1.85a.34.34,0,0,0,.09-.38A.36.36,0,0,0,39,167.8Z"/><path d="M91.51,9.6l-.75,5a.52.52,0,0,0,.23.51.54.54,0,0,0,.56,0l4-2.54,4,2.54a.53.53,0,0,0,.27.08.52.52,0,0,0,.29-.09.49.49,0,0,0,.22-.51l-.78-5,3.24-3.16a.52.52,0,0,0-.34-.89l-4.32-.21L96,.85a.52.52,0,0,0-1,0L93.14,5.34l-4.54.21a.51.51,0,0,0-.33.89Z"/><path d="M58.88,188.64l-3.52-.17-1.71-3.65a.52.52,0,0,0-.46-.29.49.49,0,0,0-.45.31l-1.54,3.63-3.68.17a.5.5,0,0,0-.33.86l2.65,2.58-.62,4a.51.51,0,0,0,.22.49.54.54,0,0,0,.55,0l3.21-2.06,3.24,2.06a.5.5,0,0,0,.54,0,.5.5,0,0,0,.22-.5l-.64-4,2.64-2.58a.49.49,0,0,0,.12-.54A.5.5,0,0,0,58.88,188.64Z"/><path d="M115.65,63.53a.35.35,0,0,0-.33.36L116,78.66c-.49.76-4,6.23-8.28,13-4.66,7.25-10.3,15.93-14.22,21.69-7.89,11.61-9.91,26-9.91,31.22a.35.35,0,0,0,.34.35.35.35,0,0,0,.35-.35c0-5.11,2-19.4,9.79-30.83S116.6,78.94,116.6,78.93l.06-.2L116,63.86A.35.35,0,0,0,115.65,63.53Z"/><polygon points="115.32 63.89 115.32 63.89 115.32 63.89 115.32 63.89"/></svg>