<svg id="Layer_1" data-name="Layer 1" xmlns="http://www.w3.org/2000/svg" viewBox="0 0 281.94 281.94"><title>8</title><path d="M97.17,95.23c3.27,1.8,4.4.39,6.16-.48,5.35-4.3,6.27-14.63,3.86-23.06-1.55-5.45-7-8.78-11.81-4.46C88.36,73.48,91.24,90.69,97.17,95.23Z"/><path d="M93,110.48c-10.49,4.26-11.8,17.33-7.78,25.23,6.57,11.64,21.89,3.69,23.16-4,1.55-9.39,1.3-12.7-3.46-18.49C103.05,110.94,98.75,107.33,93,110.48Z"/><path d="M117.83,252.22c-.1-4-1.61-8.44-2.38-11.88-1.15-5.14-6.7-7.19-9.8-11-1.65-4.69-2.47-8.81-1.19-13.37,1.32-4.72,5.83-7.87,6.53-11.59a12.75,12.75,0,0,0-.14-5.34c-1.76-6.86-7.29-11-12-15.75,2.21-.61,4.32-1.26,6.31-1.92,43.38-7.16,59.28-59,55.13-97.72a60.91,60.91,0,0,0-1.65-7.54c-9.1-31.88-43-53.23-74.79-43.45a67.76,67.76,0,0,0-6.94,2.27A63.61,63.61,0,0,0,53,51.13c-1.4,1.55-2.71,3.18-4,4.87a79.46,79.46,0,0,0-6.67,10.82Q41.24,69,40.2,71.28C26.14,100.94,28.91,139,53.61,162.56q2.46,2.73,4.69,4.87c6,5.72,10.91,8.51,10.2,8.44-3.19,6.51-7.45,10.81-12.18,16.64-3.75,4.63-10.23,11-5,16,11.82-2.83,22.79,1.89,32.39,4.46,2.7,1.44,6.24,5.49,8.91,4.16,3.2-1.06,2.38-3.08,2.38-4.46-.42-9.63-3.33-19.78-3-28.23a9.11,9.11,0,0,1,3.86.3,9.86,9.86,0,0,1,3.48,1.7c2.17,2.26,4.93,4.33,6.44,7.14a14.3,14.3,0,0,1,1.67,3.94c2,8.73-6.15,13.65-6.54,21.09-.18,3.55.58,8.13,2.38,11,2.89,4.62,7.77,5.67,9.8,10.11,6.05,13.21-2,27,3.57,42.19,0-2.7-.42-5.15-.6-7.73C115.54,266.64,118,259.17,117.83,252.22ZM84.31,151c-5.2-2-8.85-4.73-11.58-9.8-4.63-8.58-.44-24.71,3.86-30,1.67-2.06,4.74-7.6,13.07-11-4.77-4.77-8-15.27-8-24.95,0-11.73,9.17-20.18,22.63-18.68,6.2,2,9,5.46,11.06,10.54,2.51,6.24,2.44,14.69,1,21.42-.93,4.44-4.72,10.14-7.66,13.08-.42.42,2,1.48,2.94,2.33,2.89,2.9,4.58,4.76,6.53,11.12,3.22,10.53,1.57,23.81-5,29.71C112.28,145.54,102.24,155.8,84.31,151Z"/><path d="M172,179.55l-4.07-.2-2-4.22a.5.5,0,0,0-.47-.3.53.53,0,0,0-.47.32l-1.77,4.2-4.27.2a.51.51,0,0,0-.46.33.53.53,0,0,0,.12.55l3.06,3-.71,4.66a.52.52,0,0,0,.79.51l3.72-2.38,3.75,2.39a.52.52,0,0,0,.27.07.51.51,0,0,0,.29-.08.52.52,0,0,0,.23-.52l-.75-4.65,3.06-3a.53.53,0,0,0,.12-.55A.5.5,0,0,0,172,179.55Z"/><path d="M127,21.41l-.52,3.41a.44.44,0,0,0,.19.42.43.43,0,0,0,.46,0l2.71-1.74,2.73,1.74a.51.51,0,0,0,.23.07.48.48,0,0,0,.23-.07.44.44,0,0,0,.19-.42l-.55-3.41,2.23-2.17a.42.42,0,0,0-.27-.72l-3-.15-1.44-3.08a.4.4,0,0,0-.39-.24.41.41,0,0,0-.38.25l-1.3,3.07-3.11.15a.41.41,0,0,0-.38.27.44.44,0,0,0,.1.45Z"/><path d="M53.87,19.88l-.81,5.28a.51.51,0,0,0,.21.47.47.47,0,0,0,.51,0L58,22.92l4.27,2.71a.49.49,0,0,0,.25.08.45.45,0,0,0,.26-.08.47.47,0,0,0,.21-.47l-.84-5.28,3.46-3.38a.48.48,0,0,0,.12-.51.49.49,0,0,0-.42-.3l-4.63-.23-2.25-4.79a.47.47,0,0,0-.86,0l-2,4.78-4.86.23a.47.47,0,0,0-.3.81Z"/><path d="M26.8,72A.5.5,0,0,0,27,71.5l-.66-4.16,2.72-2.65a.51.51,0,0,0-.33-.89l-3.63-.18-1.77-3.77a.49.49,0,0,0-.47-.29.5.5,0,0,0-.47.31l-1.58,3.75L17,63.8a.53.53,0,0,0-.46.33.55.55,0,0,0,.12.56l2.73,2.66-.63,4.16A.52.52,0,0,0,19,72a.53.53,0,0,0,.57,0l3.31-2.12L26.23,72a.57.57,0,0,0,.28.08A.52.52,0,0,0,26.8,72Z"/><path d="M136.64,206.15l-4.16-.2-2-4.31a.43.43,0,0,0-.78,0l-1.81,4.3-4.36.2a.43.43,0,0,0-.38.28.42.42,0,0,0,.1.45l3.12,3-.72,4.75a.4.4,0,0,0,.19.41.45.45,0,0,0,.46,0l3.79-2.44,3.84,2.44a.46.46,0,0,0,.23.06.39.39,0,0,0,.23-.07.43.43,0,0,0,.19-.42l-.76-4.74,3.11-3a.39.39,0,0,0,.1-.45A.41.41,0,0,0,136.64,206.15Z"/><path d="M157.87,33.53l-.75,4.95a.52.52,0,0,0,.79.51l4-2.53,4,2.53a.48.48,0,0,0,.28.08.54.54,0,0,0,.28-.08.52.52,0,0,0,.23-.52l-.79-4.94,3.25-3.17a.51.51,0,0,0,.12-.55.52.52,0,0,0-.46-.34l-4.33-.21-2.1-4.48a.53.53,0,0,0-.48-.3.52.52,0,0,0-.47.32l-1.88,4.46-4.54.21a.52.52,0,0,0-.46.34.53.53,0,0,0,.12.55Z"/><path d="M84.67,11.32l-.35,2.33a.3.3,0,0,0,.13.29.29.29,0,0,0,.31,0l1.86-1.19,1.87,1.19a.26.26,0,0,0,.15,0,.25.25,0,0,0,.16-.05.28.28,0,0,0,.12-.28l-.37-2.33,1.53-1.48a.29.29,0,0,0-.19-.5l-2-.1-1-2.1a.28.28,0,0,0-.52,0l-.89,2.09-2.12.1a.29.29,0,0,0-.26.19.3.3,0,0,0,.07.31Z"/><path d="M84.6,225.8l-2.52-.12-1.23-2.62a.36.36,0,0,0-.33-.21.37.37,0,0,0-.33.22l-1.1,2.61-2.64.12a.36.36,0,0,0-.32.23.37.37,0,0,0,.08.39l1.9,1.85-.44,2.9a.36.36,0,0,0,.16.35.35.35,0,0,0,.39,0L80.53,230l2.32,1.48a.36.36,0,0,0,.2.06.35.35,0,0,0,.19-.06.37.37,0,0,0,.16-.36l-.46-2.89,1.89-1.85a.35.35,0,0,0,.09-.39A.36.36,0,0,0,84.6,225.8Z"/><path d="M168.91,56.26,168,58.35l-2.13.1a.29.29,0,0,0-.25.19.27.27,0,0,0,.06.31l1.53,1.48-.35,2.33a.29.29,0,0,0,.12.29.31.31,0,0,0,.32,0l1.85-1.19,1.87,1.19a.28.28,0,0,0,.15,0,.27.27,0,0,0,.16,0,.29.29,0,0,0,.13-.29l-.37-2.33L172.64,59a.29.29,0,0,0-.19-.5l-2-.1-1-2.1a.28.28,0,0,0-.27-.17A.29.29,0,0,0,168.91,56.26Z"/><path d="M27.62,39.69,27.27,42a.28.28,0,0,0,.12.28.31.31,0,0,0,.32,0l1.85-1.19,1.87,1.19a.3.3,0,0,0,.15.05.3.3,0,0,0,.16-.05.27.27,0,0,0,.13-.28l-.37-2.33L33,38.2a.28.28,0,0,0,.07-.3.28.28,0,0,0-.26-.19l-2-.1-1-2.11a.29.29,0,0,0-.27-.16.3.3,0,0,0-.26.17l-.88,2.1-2.13.1a.29.29,0,0,0-.19.49Z"/><path d="M147,8.93l-.35,2.32a.29.29,0,0,0,.12.29.31.31,0,0,0,.32,0l1.85-1.19,1.87,1.19a.3.3,0,0,0,.16.05.27.27,0,0,0,.15-.05.28.28,0,0,0,.13-.29l-.37-2.32,1.52-1.49a.28.28,0,0,0,.07-.31.28.28,0,0,0-.25-.18l-2-.1-1-2.11a.28.28,0,0,0-.27-.16.3.3,0,0,0-.26.17l-.88,2.1-2.13.1a.28.28,0,0,0-.25.18.28.28,0,0,0,.07.31Z"/><path d="M140.85,181.33l-2-.1-1-2.11a.27.27,0,0,0-.26-.16.28.28,0,0,0-.26.17l-.89,2.1-2.12.1a.27.27,0,0,0-.26.18.3.3,0,0,0,.07.31l1.52,1.49-.35,2.32a.28.28,0,0,0,.13.29.29.29,0,0,0,.31,0l1.85-1.19,1.87,1.19a.34.34,0,0,0,.32,0,.29.29,0,0,0,.12-.29l-.37-2.33,1.53-1.48a.27.27,0,0,0,.06-.31A.27.27,0,0,0,140.85,181.33Z"/><path d="M3.16,108.3a.53.53,0,0,0,.81.53l4.75-3,4.8,3a.51.51,0,0,0,.29.08.6.6,0,0,0,.29-.08.55.55,0,0,0,.23-.53l-.95-5.94,3.9-3.8a.53.53,0,0,0-.34-.91l-5.21-.25L9.2,92a.53.53,0,0,0-.49-.3.54.54,0,0,0-.48.32L6,97.4.5,97.65A.55.55,0,0,0,0,98a.55.55,0,0,0,.13.57l3.9,3.8Z"/><path d="M18.17,130.8l-2.52-.13-1.23-2.62a.34.34,0,0,0-.33-.2.33.33,0,0,0-.32.22l-1.11,2.6L10,130.8a.37.37,0,0,0-.32.23.36.36,0,0,0,.08.38l1.9,1.85-.43,2.9a.36.36,0,0,0,.15.36.39.39,0,0,0,.39,0L14.1,135l2.33,1.48a.41.41,0,0,0,.19,0,.36.36,0,0,0,.2-.06.34.34,0,0,0,.15-.35l-.46-2.9,1.9-1.85a.36.36,0,0,0,.08-.38A.36.36,0,0,0,18.17,130.8Z"/><path d="M176.71,89.45l-.44,2.9a.37.37,0,0,0,.16.36.39.39,0,0,0,.39,0l2.31-1.48,2.32,1.48a.35.35,0,0,0,.2.05.32.32,0,0,0,.19-.05.37.37,0,0,0,.16-.36l-.46-2.9,1.89-1.85a.34.34,0,0,0,.09-.38.37.37,0,0,0-.32-.23l-2.52-.12-1.23-2.63a.36.36,0,0,0-.66,0l-1.1,2.61-2.64.12a.36.36,0,0,0-.32.23.36.36,0,0,0,.08.38Z"/><path d="M184.17,116.84a.52.52,0,0,0-.46-.34l-4.33-.21-2.1-4.49a.52.52,0,0,0-.48-.29.5.5,0,0,0-.47.31l-1.88,4.47-4.54.21a.51.51,0,0,0-.46.34.53.53,0,0,0,.12.55l3.25,3.17-.75,4.94a.53.53,0,0,0,.23.52.52.52,0,0,0,.56,0l3.95-2.54,4,2.54a.57.57,0,0,0,.28.08.47.47,0,0,0,.28-.09.5.5,0,0,0,.23-.51l-.79-5,3.25-3.16A.53.53,0,0,0,184.17,116.84Z"/><path d="M14.62,165.63l-4.33-.22-2.11-4.48a.5.5,0,0,0-.47-.3.51.51,0,0,0-.47.32l-1.89,4.46-4.53.22a.48.48,0,0,0-.46.33.49.49,0,0,0,.12.55l3.25,3.17L3,174.63a.5.5,0,0,0,.23.51.52.52,0,0,0,.56,0l4-2.53,4,2.53a.46.46,0,0,0,.28.08.6.6,0,0,0,.28-.08.54.54,0,0,0,.23-.52l-.79-4.94L15,166.51a.51.51,0,0,0-.33-.88Z"/><path d="M167.89,148.85a.28.28,0,0,0-.25-.18l-2-.1-1-2.11a.28.28,0,0,0-.27-.16.3.3,0,0,0-.26.17l-.88,2.1-2.13.1a.28.28,0,0,0-.25.18.28.28,0,0,0,.07.31l1.52,1.49-.35,2.32a.28.28,0,0,0,.13.29.29.29,0,0,0,.31,0l1.85-1.19,1.87,1.19a.3.3,0,0,0,.16.05.27.27,0,0,0,.15-.05.28.28,0,0,0,.13-.29l-.37-2.32,1.52-1.49A.28.28,0,0,0,167.89,148.85Z"/><path d="M39.71,200.29l-3.93-.19L33.86,196a.55.55,0,0,0-.51-.32.59.59,0,0,0-.51.34l-1.71,4.07-4.13.19a.55.55,0,0,0-.49.36.56.56,0,0,0,.13.6l3,2.88-.68,4.51a.56.56,0,0,0,.24.56.61.61,0,0,0,.61,0l3.59-2.31L37,209.2a.61.61,0,0,0,.3.08.56.56,0,0,0,.55-.64l-.72-4.51,3-2.89a.56.56,0,0,0-.36-1Z"/><path d="M40.17,173.51l-2.52-.13-1.23-2.62a.37.37,0,0,0-.34-.21.38.38,0,0,0-.32.22l-1.1,2.61-2.65.13a.35.35,0,0,0-.32.23.36.36,0,0,0,.09.38l1.9,1.85-.44,2.9a.36.36,0,0,0,.55.35l2.3-1.48,2.33,1.48a.35.35,0,0,0,.19.06.36.36,0,0,0,.36-.41l-.46-2.9,1.89-1.85a.36.36,0,0,0,.09-.38A.34.34,0,0,0,40.17,173.51Z"/><path d="M103.93,9.05,103.18,14a.52.52,0,0,0,.79.51l4-2.53,4,2.53a.5.5,0,0,0,.28.08.51.51,0,0,0,.29-.08.5.5,0,0,0,.22-.52l-.79-4.94,3.25-3.17a.51.51,0,0,0-.34-.88l-4.32-.22L108.39.3a.52.52,0,0,0-1,0l-1.88,4.46L101,5a.51.51,0,0,0-.33.88Z"/><path d="M60.6,221.21l-3.12-.16L56,217.81a.44.44,0,0,0-.8,0l-1.36,3.22-3.27.16a.45.45,0,0,0-.4.28.43.43,0,0,0,.11.47l2.34,2.29L52,227.83a.43.43,0,0,0,.2.43.44.44,0,0,0,.48,0l2.85-1.83,2.87,1.83a.48.48,0,0,0,.24.07.43.43,0,0,0,.24-.08.42.42,0,0,0,.19-.44l-.57-3.57L60.89,222a.45.45,0,0,0,.1-.47A.43.43,0,0,0,60.6,221.21Z"/><path d="M97,59.8a13.24,13.24,0,0,1,3.77-.51,11.76,11.76,0,0,1,8.53,3.41c3.25,3.28,4.53,6.42,4.55,12.75a.5.5,0,1,0,1,0c0-6.45-1.41-10-4.84-13.45a12.76,12.76,0,0,0-9.24-3.71,14.37,14.37,0,0,0-4.09.56.5.5,0,0,0,.32.95Z"/><path d="M115.5,134.23a.49.49,0,0,0,.39.59h.1a.5.5,0,0,0,.49-.4,52.12,52.12,0,0,0,1.07-10.1c0-12.86-6.07-18.45-8.92-20.31a.5.5,0,0,0-.55.84h0c2.63,1.75,8.46,6.93,8.47,19.47A50.84,50.84,0,0,1,115.5,134.23Z"/><path d="M91.68,142.65c-4.6-.42-6.94-3.58-8.22-6.75a21.35,21.35,0,0,1-1.35-6.25.49.49,0,0,0-.51-.48.48.48,0,0,0-.48.51h0a21.81,21.81,0,0,0,1.42,6.58c1.32,3.35,4,6.93,9.06,7.38h0a.49.49,0,0,0,.49-.45A.48.48,0,0,0,91.68,142.65Z"/><path d="M98.13,98.11h.09a.51.51,0,0,0,.49-.41.5.5,0,0,0-.4-.58c-3.07-.57-5.06-3.38-6.25-6.15a24.26,24.26,0,0,1-1.57-5.36.51.51,0,0,0-.57-.42.5.5,0,0,0-.42.57S90.93,96.63,98.13,98.11Z"/></svg>