<svg id="Layer_1" data-name="Layer 1" xmlns="http://www.w3.org/2000/svg" viewBox="0 0 265.07 265.07"><title>9</title><path d="M179.47,152.08l-4.07-.2-2-4.21a.49.49,0,0,0-.48-.3.51.51,0,0,0-.46.32l-1.77,4.19-4.27.2a.52.52,0,0,0-.46.34.53.53,0,0,0,.12.55l3.06,3-.71,4.66a.52.52,0,0,0,.79.51l3.72-2.38,3.75,2.38a.45.45,0,0,0,.27.08.6.6,0,0,0,.29-.08.54.54,0,0,0,.23-.52l-.74-4.65,3.05-3a.53.53,0,0,0,.12-.55A.52.52,0,0,0,179.47,152.08Z" transform="translate(0 0)"/><path d="M127.3,18.26l-3-.15L122.88,15a.41.41,0,0,0-.39-.24.43.43,0,0,0-.38.25l-1.29,3.07-3.12.15a.42.42,0,0,0-.27.72l2.23,2.18-.51,3.41a.4.4,0,0,0,.18.41.43.43,0,0,0,.46,0l2.71-1.74L125.24,25a.41.41,0,0,0,.46,0,.41.41,0,0,0,.18-.42l-.54-3.4L127.57,19a.42.42,0,0,0-.27-.72Z" transform="translate(0 0)"/><path d="M59.44,32.18a.45.45,0,0,0,.46-.54l-.84-5.28L62.53,23a.46.46,0,0,0,.11-.5.48.48,0,0,0-.42-.3l-4.63-.23-2.25-4.79a.46.46,0,0,0-.43-.27.46.46,0,0,0-.43.28l-2,4.78-4.85.23a.48.48,0,0,0-.42.3.46.46,0,0,0,.11.5l3.47,3.39L50,31.64a.47.47,0,0,0,.72.47l4.23-2.72,4.27,2.72A.43.43,0,0,0,59.44,32.18Z" transform="translate(0 0)"/><path d="M28.83,53.86l-3.63-.17-1.77-3.77a.51.51,0,0,0-.48-.3.52.52,0,0,0-.46.32L20.9,53.69l-3.8.17a.52.52,0,0,0-.34.89l2.73,2.66-.63,4.16a.53.53,0,0,0,.23.52.52.52,0,0,0,.56,0L23,60l3.35,2.13a.57.57,0,0,0,.28.08.47.47,0,0,0,.28-.09.5.5,0,0,0,.23-.51l-.66-4.16,2.72-2.66a.51.51,0,0,0,.13-.55A.53.53,0,0,0,28.83,53.86Z" transform="translate(0 0)"/><path d="M145,222.81l-4.16-.2-2-4.32a.42.42,0,0,0-.39-.24.41.41,0,0,0-.38.26l-1.81,4.3-4.37.2a.43.43,0,0,0-.37.27.39.39,0,0,0,.1.45l3.11,3-.72,4.75a.44.44,0,0,0,.19.42.43.43,0,0,0,.46,0l3.8-2.44,3.84,2.44a.38.38,0,0,0,.22.07.4.4,0,0,0,.24-.07.41.41,0,0,0,.18-.42l-.76-4.75,3.12-3a.42.42,0,0,0,.1-.45A.44.44,0,0,0,145,222.81Z" transform="translate(0 0)"/><path d="M160.66,32.79a.5.5,0,0,0-.46-.33l-4.32-.22-2.11-4.48a.52.52,0,0,0-.48-.3.5.5,0,0,0-.46.32l-1.89,4.46-4.54.22a.51.51,0,0,0-.33.88l3.24,3.17-.75,5a.52.52,0,0,0,.79.51l4-2.53,4,2.53a.45.45,0,0,0,.27.08.5.5,0,0,0,.51-.6l-.78-4.94,3.24-3.17A.49.49,0,0,0,160.66,32.79Z" transform="translate(0 0)"/><path d="M75.84,13.08l-2-.1-1-2.11a.27.27,0,0,0-.26-.16.28.28,0,0,0-.26.17L71.41,13l-2.13.1a.27.27,0,0,0-.25.18.28.28,0,0,0,.07.31l1.52,1.49-.35,2.32a.28.28,0,0,0,.13.29.29.29,0,0,0,.31,0l1.85-1.19,1.87,1.19a.29.29,0,0,0,.16,0,.32.32,0,0,0,.16,0,.29.29,0,0,0,.12-.29l-.37-2.33L76,13.57a.28.28,0,0,0,.07-.31A.27.27,0,0,0,75.84,13.08Z" transform="translate(0 0)"/><path d="M99.79,209.13,97.27,209,96,206.38a.35.35,0,0,0-.65,0L94.28,209l-2.64.13a.33.33,0,0,0-.32.23.36.36,0,0,0,.08.38l1.9,1.85-.44,2.9a.36.36,0,0,0,.16.35.35.35,0,0,0,.39,0l2.31-1.48,2.33,1.49a.41.41,0,0,0,.19.05.36.36,0,0,0,.2-.06.36.36,0,0,0,.15-.35l-.46-2.9,1.9-1.85a.36.36,0,0,0,.08-.38A.33.33,0,0,0,99.79,209.13Z" transform="translate(0 0)"/><path d="M167.51,55.75l-2-.1-1-2.11a.29.29,0,0,0-.53,0l-.88,2.1-2.13.1a.27.27,0,0,0-.26.18.3.3,0,0,0,.07.31l1.53,1.49-.36,2.32a.32.32,0,0,0,.13.29.29.29,0,0,0,.31,0l1.86-1.19,1.87,1.19a.26.26,0,0,0,.15,0,.29.29,0,0,0,.16,0,.32.32,0,0,0,.13-.29l-.37-2.33,1.52-1.48a.3.3,0,0,0,.07-.31A.27.27,0,0,0,167.51,55.75Z" transform="translate(0 0)"/><path d="M30.44,30l-2-.09-1-2.11a.3.3,0,0,0-.27-.17.31.31,0,0,0-.26.18L26,30,23.88,30a.3.3,0,0,0-.19.5L25.22,32l-.35,2.32a.28.28,0,0,0,.13.29.29.29,0,0,0,.31,0l1.85-1.19L29,34.64a.29.29,0,0,0,.16,0,.26.26,0,0,0,.15,0,.28.28,0,0,0,.13-.29L29.1,32l1.52-1.48a.28.28,0,0,0,.07-.31A.29.29,0,0,0,30.44,30Z" transform="translate(0 0)"/><path d="M143.92,15.62l-2-.1-1-2.11a.28.28,0,0,0-.26-.17.28.28,0,0,0-.26.18l-.89,2.1-2.12.1a.27.27,0,0,0-.26.18.3.3,0,0,0,.07.31l1.52,1.49-.35,2.32a.28.28,0,0,0,.13.29.29.29,0,0,0,.31,0L140.64,19l1.87,1.19a.29.29,0,0,0,.16,0,.32.32,0,0,0,.16,0,.3.3,0,0,0,.12-.29l-.37-2.33,1.52-1.48a.28.28,0,0,0,.07-.31A.27.27,0,0,0,143.92,15.62Z" transform="translate(0 0)"/><path d="M155.14,184l-2-.1-1-2.11a.29.29,0,0,0-.27-.16.3.3,0,0,0-.26.17l-.88,2.1-2.13.1a.28.28,0,0,0-.25.18.29.29,0,0,0,.06.31l1.53,1.49-.35,2.33a.28.28,0,0,0,.12.28.31.31,0,0,0,.32,0l1.85-1.18,1.87,1.18a.3.3,0,0,0,.15.05.28.28,0,0,0,.16-.05.27.27,0,0,0,.13-.28L153.8,186l1.52-1.49a.3.3,0,0,0,.07-.31A.28.28,0,0,0,155.14,184Z" transform="translate(0 0)"/><path d="M16.94,85.69l-5.21-.25L9.2,80a.52.52,0,0,0-.49-.3.53.53,0,0,0-.48.32L6,85.44l-5.46.25A.51.51,0,0,0,0,86a.52.52,0,0,0,.12.57l3.9,3.8-.9,5.94a.53.53,0,0,0,.81.53l4.75-3.06,4.81,3.06a.54.54,0,0,0,.28.08.52.52,0,0,0,.29-.09.53.53,0,0,0,.23-.52l-.95-5.94,3.9-3.8a.55.55,0,0,0,.13-.57A.53.53,0,0,0,16.94,85.69Z" transform="translate(0 0)"/><path d="M17.84,123.19l-2.52-.13-1.23-2.62a.36.36,0,0,0-.33-.21.39.39,0,0,0-.33.22l-1.1,2.61-2.64.13a.33.33,0,0,0-.32.23.36.36,0,0,0,.08.38l1.9,1.85-.44,2.9a.36.36,0,0,0,.55.35l2.31-1.48,2.33,1.48a.31.31,0,0,0,.19.06.33.33,0,0,0,.19-.06.35.35,0,0,0,.16-.35l-.46-2.9,1.9-1.85a.36.36,0,0,0,.08-.38A.33.33,0,0,0,17.84,123.19Z" transform="translate(0 0)"/><path d="M179.36,76.74l-2.53-.13L175.6,74a.36.36,0,0,0-.65,0l-1.1,2.61-2.65.13a.35.35,0,0,0-.23.61l1.9,1.85-.44,2.9a.36.36,0,0,0,.54.36L175.28,81l2.33,1.49a.41.41,0,0,0,.19.05.36.36,0,0,0,.2-.06.34.34,0,0,0,.15-.35l-.46-2.9,1.9-1.85a.36.36,0,0,0,.09-.38A.35.35,0,0,0,179.36,76.74Z" transform="translate(0 0)"/><path d="M179.32,99.93a.51.51,0,0,0-.46-.33l-4.32-.21-2.11-4.49a.52.52,0,0,0-.48-.3.54.54,0,0,0-.47.32l-1.88,4.47-4.54.21a.51.51,0,0,0-.33.89l3.24,3.16-.75,4.95a.52.52,0,0,0,.23.51.54.54,0,0,0,.56,0l4-2.54,4,2.54a.53.53,0,0,0,.27.08.52.52,0,0,0,.29-.09.49.49,0,0,0,.22-.51l-.78-4.95,3.24-3.16A.51.51,0,0,0,179.32,99.93Z" transform="translate(0 0)"/><path d="M21.26,153.55a.53.53,0,0,0-.46-.33L16.47,153l-2.1-4.49a.55.55,0,0,0-.48-.3.53.53,0,0,0-.47.32L11.53,153,7,153.22a.52.52,0,0,0-.34.89l3.25,3.16-.75,4.95a.52.52,0,0,0,.79.51l4-2.53,4,2.54a.54.54,0,0,0,.28.08.49.49,0,0,0,.28-.09.52.52,0,0,0,.23-.51l-.79-4.95,3.24-3.16A.53.53,0,0,0,21.26,153.55Z" transform="translate(0 0)"/><path d="M172.44,132.27l-2-.1-1-2.11a.31.31,0,0,0-.27-.17.28.28,0,0,0-.26.18l-.89,2.1-2.12.1a.27.27,0,0,0-.26.18.3.3,0,0,0,.07.31l1.53,1.48-.36,2.33a.32.32,0,0,0,.13.29.29.29,0,0,0,.31,0l1.86-1.19,1.87,1.19a.26.26,0,0,0,.15,0,.29.29,0,0,0,.16,0,.3.3,0,0,0,.12-.29l-.37-2.33,1.53-1.48a.3.3,0,0,0,.07-.31A.27.27,0,0,0,172.44,132.27Z" transform="translate(0 0)"/><path d="M49.33,191.39l-3.93-.19-1.91-4.08a.56.56,0,0,0-.52-.32.53.53,0,0,0-.5.34l-1.72,4.06-4.12.19a.56.56,0,0,0-.5.36.57.57,0,0,0,.13.6l3,2.88-.68,4.52a.56.56,0,0,0,.25.55.55.55,0,0,0,.6,0L43,198l3.63,2.31a.53.53,0,0,0,.3.09.52.52,0,0,0,.31-.1.53.53,0,0,0,.24-.55l-.72-4.51,3-2.88a.55.55,0,0,0,.13-.6A.56.56,0,0,0,49.33,191.39Z" transform="translate(0 0)"/><path d="M35.06,169.09,32.54,169l-1.23-2.62a.36.36,0,0,0-.33-.21.39.39,0,0,0-.33.22L29.55,169l-2.64.12a.36.36,0,0,0-.32.23.37.37,0,0,0,.08.39l1.9,1.85-.44,2.9a.36.36,0,0,0,.55.35L31,173.33l2.33,1.48a.31.31,0,0,0,.19.06.33.33,0,0,0,.19-.06.36.36,0,0,0,.16-.35l-.46-2.9,1.9-1.85a.37.37,0,0,0,.08-.39A.36.36,0,0,0,35.06,169.09Z" transform="translate(0 0)"/><path d="M110.23,5.33a.52.52,0,0,0-.46-.34l-4.33-.21L103.34.3a.53.53,0,0,0-.48-.3.52.52,0,0,0-.47.32l-1.88,4.46L96,5a.52.52,0,0,0-.46.34.53.53,0,0,0,.12.55l3.25,3.17L98.13,14a.52.52,0,0,0,.79.51l4-2.53,4,2.53a.48.48,0,0,0,.28.08.6.6,0,0,0,.29-.08.53.53,0,0,0,.22-.52l-.79-4.94,3.25-3.17A.51.51,0,0,0,110.23,5.33Z" transform="translate(0 0)"/><path d="M77.1,196.13,74,196l-1.52-3.24a.44.44,0,0,0-.41-.25.42.42,0,0,0-.4.27L70.3,196l-3.27.15a.44.44,0,0,0-.39.28.46.46,0,0,0,.1.48l2.35,2.28-.54,3.58a.45.45,0,0,0,.19.44.46.46,0,0,0,.48,0l2.85-1.83,2.87,1.83a.44.44,0,0,0,.24.07.48.48,0,0,0,.24-.07.46.46,0,0,0,.2-.44l-.57-3.58,2.34-2.28a.43.43,0,0,0,.1-.48A.44.44,0,0,0,77.1,196.13Z" transform="translate(0 0)"/><path d="M113,227.94l-2-.1-1-2.11a.28.28,0,0,0-.27-.16.3.3,0,0,0-.26.17l-.88,2.1-2.13.1a.28.28,0,0,0-.25.18.29.29,0,0,0,.06.31l1.53,1.49-.35,2.32a.28.28,0,0,0,.13.29.29.29,0,0,0,.31,0l1.85-1.19,1.87,1.19a.3.3,0,0,0,.16.05.27.27,0,0,0,.15-.05.28.28,0,0,0,.13-.29l-.37-2.32,1.52-1.49a.28.28,0,0,0,.07-.31A.28.28,0,0,0,113,227.94Z" transform="translate(0 0)"/><path d="M90.81,17.91l-2-.1-1-2.11a.27.27,0,0,0-.26-.16.3.3,0,0,0-.27.17l-.88,2.1-2.13.1a.27.27,0,0,0-.25.18.28.28,0,0,0,.07.31l1.52,1.49-.35,2.32a.28.28,0,0,0,.13.29.29.29,0,0,0,.31,0l1.85-1.19L89.4,22.5a.29.29,0,0,0,.16,0,.32.32,0,0,0,.16,0,.29.29,0,0,0,.12-.29l-.37-2.33L91,18.4a.28.28,0,0,0,.07-.31A.27.27,0,0,0,90.81,17.91Z" transform="translate(0 0)"/><path d="M203.29,262.59c-5.13-3.06-10.35-4.42-16.16-7-5.24-2.34-15.65-7.6-17.66-13-2.84-7.64,1.46-16.1,4.67-22.65,2.38-4.87,6-9.8,6.66-15,1-8.14-3.52-10.74-6.33-15.33-1.71-2.8-4.18-6.23-4.88-8.78-.48-1.75-.59-4.53-1.18-5.88-6.8-10.25-23.83-5.9-32.89-2.46,1.23-1.79,4.18-5.17,5.51-6.9a49.84,49.84,0,0,0,12.44-19.87c.85-2.44,1.56-4.95,2.19-7.5a116.29,116.29,0,0,0-1.8-62.42,105.83,105.83,0,0,0-4.64-12c-10.07-27.09-41.85-41-69.54-33.94a62.08,62.08,0,0,0-12.46,4,57.3,57.3,0,0,0-11.36,6.77,52,52,0,0,0-10.63,9.06c-15.07,16.9-17.72,42.14-17.45,64.38q.09,4,.52,8a83.49,83.49,0,0,0,9.46,31.16q1.76,3.12,3.81,6.08a68.3,68.3,0,0,0,8.35,9.69,71.12,71.12,0,0,0,10,8c15.63,10,35.78,13.09,54.39,9.22A151.36,151.36,0,0,0,112,212.66c0,7.76,7,1.55,10.47-1.07,3.14-2.05,7.45-3,11.94-3.6s9.17-.7,13-1.05c1.58-1.58,1-2.37-.66-4.67a113.2,113.2,0,0,1-7.2-11.62l-3.35-6.07c-1.06-1.83-3.38-4.93-2.61-4.93a19.67,19.67,0,0,1,13.93-8.18c5.74-.79,12.42-.49,17.08,2.76.9.62,1.45,7.61,4.17,11,5,6.09,9.35,11.49,7.63,18.42-1.1,4.43-4.35,9.31-6.66,14-2.39,4.84-4.58,9.83-5,15.66-.71,9.9,4.4,15.27,9.66,19,9.51,6.72,15.95,8.65,28,12.82C204.34,264.47,204.57,263.36,203.29,262.59Zm-84.22-123.2c-1.91,8-11.12,16.77-21.43,16.83-9.59.05-14.71-2.41-15.72-3-6-3.67-11.81-13.1-7.89-17.78,5.41-5.4,7.57-.31,10.56,2.42,7.5,8.7,16.46,6.79,22.34.41,3.66-5.15,1.37-26.53-.42-27.53-6.62,2.49-19.81,3.67-27-1.54-10.27-7.41-13.42-29-6-42.6,8.43-15.42,29-11.89,32.4-9.83,6.92,3.89,8.24,16.71,9.16,22.36,1,6.39,1.61,14.25,2.51,21.58C119.21,113.91,121.38,129,119.07,139.39Z" transform="translate(0 0)"/><path d="M93.74,66.33c-10.6.35-11.44,9.75-12.54,13.11C80.08,87.13,82.58,98.21,90,99.53c1,.17,5.95.2,6.9.25,13.11.77,7.65-22.36,7.65-22.36C103.23,68.63,97.06,66.22,93.74,66.33Z" transform="translate(0 0)"/><path d="M104.85,58.69a.34.34,0,0,0-.49,0,.33.33,0,0,0,0,.48h0a20.33,20.33,0,0,1,2.79,3.3,22.78,22.78,0,0,1,3.8,8.92c2.43,13.51,5.94,36,5.93,53.1,0,11.31-1.6,20.27-5.76,22.62a.36.36,0,0,0-.13.48.35.35,0,0,0,.3.17.31.31,0,0,0,.18,0c4.64-2.78,6.08-11.86,6.11-23.22,0-17.21-3.52-39.69-5.95-53.22A24.22,24.22,0,0,0,104.85,58.69Z" transform="translate(0 0)"/><path d="M93,102.17c-.42,0-.81,0-1.2,0-5.49,0-8.48-3.34-10.17-6.75a21.57,21.57,0,0,1-2-6.82.35.35,0,0,0-.38-.31.34.34,0,0,0-.31.37h0a21.93,21.93,0,0,0,2,7.06c1.72,3.53,5,7.14,10.78,7.14h0c.41,0,.82,0,1.25,0a.36.36,0,0,0,.32-.38A.34.34,0,0,0,93,102.17Z" transform="translate(0 0)"/><path d="M78.31,135.18a4.07,4.07,0,0,0-3.18,1.95.34.34,0,1,0,.59.35h0a4.05,4.05,0,0,1,.69-.81,2.81,2.81,0,0,1,1.9-.79c.86,0,2,.45,3.36,2.05a.35.35,0,0,0,.26.12.34.34,0,0,0,.23-.08.36.36,0,0,0,0-.49C80.76,135.79,79.44,135.18,78.31,135.18Z" transform="translate(0 0)"/></svg>