<svg id="Layer_1" data-name="Layer 1" xmlns="http://www.w3.org/2000/svg" viewBox="0 0 28.44 100.08"><title>arrow-up</title><path d="M17.63,1.05a2,2,0,0,0-3.5,0c-5.8,10.5-11,21.1-14.1,32.6-.3,1.7,1.5,3.4,3,2.4a37.79,37.79,0,0,0,8.8-8.6c-.6,23.7-3.8,48.2,1.8,71.5.3,1.7,3.2,1.4,3-.3-3-24.2-.7-48.2-.3-72.3,2.9,2.5,5.7,5.1,8.5,7.6a2.12,2.12,0,0,0,3.6-1.5A83.79,83.79,0,0,0,17.63,1.05Zm-1.8,20.1a2.13,2.13,0,0,0-3.9,1.2v.3c-2,2-3.9,4.1-6.1,6.1a153.45,153.45,0,0,1,10-22.3A76.49,76.49,0,0,1,23,27.05c-1.9-1.7-3.9-3.4-5.7-5.2A1.32,1.32,0,0,0,15.83,21.15Z"/></svg>