<svg id="Layer_1" data-name="Layer 1" xmlns="http://www.w3.org/2000/svg" viewBox="0 0 223.42 109.67"><title>start-by-text</title><path d="M2.18,40.08a2.15,2.15,0,0,0-.62-.28,2.42,2.42,0,0,1-.62-.29,1,1,0,0,1-.48-.63c0-.12-.09-.29-.17-.5S.15,38,.12,38a3.9,3.9,0,0,1,0-1.92,5.36,5.36,0,0,1,.72-1.82A13.42,13.42,0,0,1,4.2,30.82c.26-.16.63-.42,1.13-.79l1.08-.8a.39.39,0,0,0,.09-.52,28.78,28.78,0,0,0-1.58-3.12,27.94,27.94,0,0,1-2.4-4.8,9.13,9.13,0,0,1-.62-4.32,1.44,1.44,0,0,1,.43-1.06c.06,0,.13-.19.19-.48A7.67,7.67,0,0,1,4.25,12L6.84,9.55A5.65,5.65,0,0,1,9.14,8.4a6.24,6.24,0,0,0,1-.29,1.36,1.36,0,0,1,.92,0h.28a2.86,2.86,0,0,1,1.06.15A2.91,2.91,0,0,1,13.51,9a1.92,1.92,0,0,1,.39.36,3.31,3.31,0,0,1,.33.4.57.57,0,0,1,.2.39,9.72,9.72,0,0,0,.24,1.22c.12.53.2.92.24,1.18a2.39,2.39,0,0,1-.2,1.39,12.11,12.11,0,0,1-1.44,2.45c-.64.9-1.26,1.69-1.87,2.4a2.87,2.87,0,0,1-.31.24,2.11,2.11,0,0,0-.31.24l-.17.12-.17.12s0,.08-.1.14a.26.26,0,0,1-.14.05.54.54,0,0,0-.48.05.44.44,0,0,1-.53-.05q-1-.72-1-1.2a.9.9,0,0,1-.05-.67,6,6,0,0,1,.77-1.49l.91-1.39c.48-.74.85-1.31,1.1-1.73a10.2,10.2,0,0,0,1-2.06,1.45,1.45,0,0,0,0-.92.53.53,0,0,0-.67-.43A6.35,6.35,0,0,0,8.28,10.9a4.12,4.12,0,0,0-.67.57,1,1,0,0,0-.19.29A2.16,2.16,0,0,1,6.6,13.2a1.48,1.48,0,0,0-.48.86l-.24.77a3.32,3.32,0,0,0,0,1.49s0,.19.09.46a1.54,1.54,0,0,1,.05.65.46.46,0,0,0,0,.33c.38.87.82,1.73,1.3,2.59a14.11,14.11,0,0,0,.76,1.28A14.22,14.22,0,0,1,9,23c.19.36.49.84.89,1.47s.65,1,.74,1.17l.29.34a1.29,1.29,0,0,1,.29.48c0,.13.11.16.24.1a.9.9,0,0,1,.22-.1l.16-.05q1-.52,4.66-2.21a21.07,21.07,0,0,1,2.35-.91l1.08-.38q.79-.28,1.23-.39a.81.81,0,0,1,1,.39s0,.11-.05.24a.55.55,0,0,1-.39.19,1.13,1.13,0,0,0-.57.24,1.07,1.07,0,0,1-.39.19c-.22.07-.76.29-1.63.67a2.91,2.91,0,0,0-1.34,1,1.21,1.21,0,0,1-.29.2,3,3,0,0,1-.46.21l-.45.17a2.9,2.9,0,0,0-1,.58,4,4,0,0,1-.51.36l-.45.26a2.29,2.29,0,0,1-.39.26,2,2,0,0,0-.38.27,4.85,4.85,0,0,1-1,.81.14.14,0,0,0-.09,0l-.22.41a2,2,0,0,0-.19.41,3.7,3.7,0,0,0-.07.43.55.55,0,0,0,.09.48,1.26,1.26,0,0,1,.14.91,10.28,10.28,0,0,0,.05,1.15,1,1,0,0,1-.05.53c-.06.19-.12.46-.19.79s-.09.52-.09.56a9.18,9.18,0,0,1-1,2c-.26.39-.43.68-.53.87a3.88,3.88,0,0,1-1.15,1.25,23.72,23.72,0,0,1-2,1.53L7.27,40c-1.31.38-2,.57-2.06.57a5.16,5.16,0,0,1-.91,0A3.71,3.71,0,0,1,2.18,40.08ZM7.7,31.49c-.06-.22-.2-.29-.43-.19l-.33.17c-.16.08-.29.13-.39.17a2.08,2.08,0,0,0-1,.52,17.58,17.58,0,0,1-1.39,1.2,6.47,6.47,0,0,0-1.68,1.87,1.45,1.45,0,0,1-.14.25,2,2,0,0,0-.48,1,.66.66,0,0,0,.09.62l.15.29a1.44,1.44,0,0,0,.48.81.47.47,0,0,0,.57.19c.55-.12.91-.2,1.11-.23a2.58,2.58,0,0,0,1.29-.48,1.36,1.36,0,0,0,.24-.17L6,37.3A7.11,7.11,0,0,0,7.8,35.14a.94.94,0,0,0,.1-.39c0-.16.09-.7.19-1.63A4.34,4.34,0,0,0,7.7,31.49Z"/><path d="M28.78,15.7c1.34,0,2.37,0,3.07,0,0,.06,0,.11,0,.14a.16.16,0,0,0-.05.1,0,0,0,0,0,.05.05,4.15,4.15,0,0,1,1.15.07c.51.08.82.12.91.12l1.11.14a8.14,8.14,0,0,0,1.2.05v.1H35.4c-1.37,0-2.4,0-3.07.09h0a3.55,3.55,0,0,0-1.3.15,4.38,4.38,0,0,1-1.05.09.63.63,0,0,0-.22.05.58.58,0,0,1-.17,0l.53.14c0,.07-.13.1-.29.1a1.54,1.54,0,0,1-.45.05,1.76,1.76,0,0,0-.46,0H28.7s0,.05,0,.15l-.19.09-.39,0-.38,0a16.25,16.25,0,0,0-2.45.43c-.13,0-.22.15-.29.34-.22.58-.56,1.41-1,2.5Q23.12,23,22,26.16c-.06.23-.19.61-.38,1.15s-.34,1-.44,1.25c-.41,1.73-.64,2.69-.67,2.88l-.14,1.3c0,.25-.07.62-.1,1.1s-.06.83-.09,1.06v1.54a.42.42,0,0,0,0,.14.42.42,0,0,1,0,.14,3,3,0,0,0,.53,2,.76.76,0,0,0,.34.24.6.6,0,0,0,.24,0,5.1,5.1,0,0,1,.48-.29,4.33,4.33,0,0,1,1-.38.23.23,0,0,1,.28.14A1.43,1.43,0,0,1,23,39a3.58,3.58,0,0,1-1.59,1.25,5,5,0,0,1-.91.24A2.72,2.72,0,0,1,18,39.8a9.77,9.77,0,0,1-.86-.92,11.79,11.79,0,0,1-.82-1.48,10.43,10.43,0,0,1-.57-3.32,18.46,18.46,0,0,1,.53-4.75c.25-1,.65-2.35,1.2-4,.12-.32.31-.81.55-1.47s.41-1.14.5-1.46A11.42,11.42,0,0,1,19.7,20a1.52,1.52,0,0,0,.24-.48,9.48,9.48,0,0,0-1.2.1q-2.4.33-2.88.33a4,4,0,0,1-1.68-.29A4.22,4.22,0,0,0,13,19.3,3,3,0,0,1,11,18a3.26,3.26,0,0,1-.58-1.2,4.31,4.31,0,0,1,.24-.72q0-.09.15,0a.06.06,0,0,0,.09,0,.44.44,0,0,1,.43,0l.6.27c.34.14.6.25.8.31a6.09,6.09,0,0,0,1,.19l1.44.05a16.13,16.13,0,0,0,1.72,0,9.69,9.69,0,0,0,1.88-.29,8.93,8.93,0,0,1,2.16-.19h.24a.55.55,0,0,0,.52-.24,2.06,2.06,0,0,0,.15-.24c1.12-1.66,1.81-2.66,2.06-3s.56-.8.72-1.05a3.12,3.12,0,0,1,1.2-1.16c.07-.06.11-.09.15-.09a.51.51,0,0,1,.72-.1,2.3,2.3,0,0,1,1,.91.7.7,0,0,1,.1.29,5,5,0,0,1-.29.82q-.09,0-.09.24a1.11,1.11,0,0,1-.2,1c-.12.19-.28.48-.48.86s-.33.66-.43.82-.13.27-.09.34Z"/><path d="M47.59,24.19a.75.75,0,0,1-.29,0c-.06.09-.08.16,0,.19l.14.14c.06.07.1.11.1.15a6.71,6.71,0,0,0-.44.52,8.15,8.15,0,0,1-.62.72,7.26,7.26,0,0,0-1.1,1.25q-.24.28-.48.6l-.53.7L43.9,29c-.23.23-.54.59-.94,1.08l-.89,1.13c-.13.16-.33.41-.62.75s-.51.6-.67.79c0,0-.07,0-.1.09l0,.1a7,7,0,0,1-1,1.1,2.36,2.36,0,0,0-.53.72,3.63,3.63,0,0,1-.52.63,9.28,9.28,0,0,0-1.11,1,5.11,5.11,0,0,1-2.35,1.39,3.17,3.17,0,0,1-2.5-.48,2.46,2.46,0,0,1-.48-.39l0,0h0a3.62,3.62,0,0,1-.39-.72,2.13,2.13,0,0,0,0-.39,1.43,1.43,0,0,1-.05-.33c-.07-.71-.13-1.22-.19-1.54l.19-.09v-.58c0-.16,0-.24-.05-.24a.36.36,0,0,0-.34.09,19.56,19.56,0,0,0-1.48,2.26,2.51,2.51,0,0,1-.58.67.75.75,0,0,0-.34.39l-.19.29a1.53,1.53,0,0,0-.29.47l-.05.05a6.26,6.26,0,0,0-.64.51,3.3,3.3,0,0,1-.6.45.45.45,0,0,1-.67-.24c-.07-.19-.15-.2-.25,0a1,1,0,0,1-.67.47,1.47,1.47,0,0,1-1,0,1.55,1.55,0,0,1-.94-.6,1,1,0,0,0-.12-.19,2.39,2.39,0,0,0-.16-.22l-.15-.17a2.1,2.1,0,0,1-.53-.86.18.18,0,0,0-.19-.15c-.25-2.08.4-4.54,2-7.39a2.91,2.91,0,0,1,.36-.5c.18-.21.31-.36.41-.46.25-.32.61-.83,1.05-1.53a40,40,0,0,1,4-5.14c.42-.42,1-1,1.87-1.78a5,5,0,0,1,1.15-.72c.16-.09.39,0,.68.15l.43.24a3.16,3.16,0,0,1,.48.33l.14.15a1.45,1.45,0,0,1,.19,1.77c-.06.1-.33.52-.81,1.25-.13.16-.35.44-.65.84s-.54.73-.7,1a3.91,3.91,0,0,1-.43.48,4.87,4.87,0,0,0-1.29,1.48l-1.25,1.88A35.14,35.14,0,0,0,27.67,32a8.84,8.84,0,0,0-1,2.26v.14a2.65,2.65,0,0,0,.48-.53q2-2.64,4.32-5.85a4.47,4.47,0,0,0,.36-.51,3.62,3.62,0,0,0,.41-.69,12,12,0,0,1,1.18-1.66,15.83,15.83,0,0,0,1-1.27,2.36,2.36,0,0,1,.27-.24l.21-.19a18.36,18.36,0,0,1,2-2.31.78.78,0,0,0,.12-.19.78.78,0,0,1,.12-.19l.12-.27a.67.67,0,0,0,.07-.21c.1-.2.19-.24.29-.15s0,.13-.1.29a.63.63,0,0,1-.14.24A.73.73,0,0,0,37.8,20a1,1,0,0,0,.53.24.47.47,0,0,1,.43.24c0,.09.14.17.34.24s.24.06.24.19a1.27,1.27,0,0,0,.14.58,2.71,2.71,0,0,1-.19,1.29,4.6,4.6,0,0,0-.24.55l-.24.56a5.85,5.85,0,0,1-.72,1.48,4.6,4.6,0,0,0-.36.68l-.22.55c-.06.17-.11.31-.14.41a14.24,14.24,0,0,0-.87,2.35c-.28.93-.46,1.45-.52,1.58a11.93,11.93,0,0,0-.82,2.4,3,3,0,0,0,0,1.78v0a.51.51,0,0,0,.34.09,10.41,10.41,0,0,0,.72-.77c.29-.28.53-.41.72-.38-.13-.13-.11-.24,0-.33a1.81,1.81,0,0,1,.33-.15,1.34,1.34,0,0,0,.15-.29,1.49,1.49,0,0,1,.19-.38l.09-.1a.19.19,0,0,1,.1-.05l.05.15c.16-.07.24-.16.24-.29l-.19.1a.7.7,0,0,1,.72-.48c0-.2.12-.37.38-.53l.38-.43c.71-.84,1.24-1.44,1.59-1.83l.72-.72a8.88,8.88,0,0,0,.86-1,.62.62,0,0,0,.19-.14,2.3,2.3,0,0,1,.27-.22l.29-.19a1,1,0,0,0,.24-.22,2.55,2.55,0,0,0,.21-.28.67.67,0,0,1,.77-.34c0-.16.1-.38.38-.67a7.86,7.86,0,0,1,.87-.77.67.67,0,0,1,.38-.24,1.22,1.22,0,0,0,.58-.58A.91.91,0,0,1,47,24a.81.81,0,0,0,.43-.24c.13-.16.34-.14.62.05-.06.19-.11.35-.14.48A.69.69,0,0,0,47.59,24.19Z"/><path d="M57.19,22.3l-.53.36a5.1,5.1,0,0,1-.48.29c-.73.32-1.18.52-1.34.62a3.12,3.12,0,0,0-.86.58,3.47,3.47,0,0,1-.39.28,9.39,9.39,0,0,0-.81.53,10.11,10.11,0,0,1-1,.63,9,9,0,0,0-.89.74,6.93,6.93,0,0,1-.7.6.7.7,0,0,0-.19.17.73.73,0,0,1-.19.17,1.74,1.74,0,0,0-.63.81,1,1,0,0,1-.19.39,3.08,3.08,0,0,1-.36.4l-.31.32a.87.87,0,0,0-.24.33,2.94,2.94,0,0,1-.34.53c-.16.22-.25.35-.28.38a11.25,11.25,0,0,1-.87,1.25l-.09.19a3,3,0,0,1-.17.58c-.08.19-.18.4-.29.62l-.26.53-.17.31c-.08.15-.14.25-.17.32a1.89,1.89,0,0,1-.17.41,4.18,4.18,0,0,1-.29.45l-.26.39-.31.59-.36.65a11.94,11.94,0,0,1-.87,1.44c-.06.1-.27.18-.62.24a.32.32,0,0,1-.24-.09,1.53,1.53,0,0,0-.72-.1H41.4a6.72,6.72,0,0,1-.63-.67,1,1,0,0,0-.19-.39,1,1,0,0,1-.19-1,3,3,0,0,0,.1-.86c0-.22.08-.52.16-.89s.14-.6.17-.69c.07-.29.29-1,.67-2.21l.15-.43q.24-.67,1.58-4.9c.45-1.41.8-2.48,1.06-3.22.09-.28.41-1,1-2.25a.32.32,0,0,1,0-.15.33.33,0,0,0,0-.14c.07-.26.32-.48.77-.67h0a2.75,2.75,0,0,1,1.54.72.5.5,0,0,0,.24.19,1.63,1.63,0,0,1,.48,1.58,2.45,2.45,0,0,0-.1.53.9.9,0,0,1-.05.34q-.13.33-.36,1c-.14.41-.25.7-.31.86s-.07.25-.12.46-.09.36-.12.45a1.58,1.58,0,0,0,.48-.38c1.06-.83,1.75-1.34,2.07-1.54s.76-.48,1.32-.86l1.12-.77a10.11,10.11,0,0,1,2.16-1.05,2.65,2.65,0,0,1,.87-.15A1.44,1.44,0,0,0,56,21a6,6,0,0,1,1.25-.34.48.48,0,0,1,.62.34c.16.57.1.93-.19,1.05A2.9,2.9,0,0,0,57.19,22.3ZM72,15.84a.14.14,0,0,0,0,.1L72,16a4.2,4.2,0,0,1,1.16.07c.51.08.81.12.91.12l1.1.14a7.54,7.54,0,0,0,1.2.05v.1h-.81c-1.38,0-2.4,0-3.08.09h0a3.55,3.55,0,0,0-1.3.15,4.48,4.48,0,0,1-1.06.09l-.16.05a.68.68,0,0,1-.22,0l.53.14c0,.07-.13.1-.29.1a1.67,1.67,0,0,1-.46.05,1.67,1.67,0,0,0-.45,0h-.17s0,.05,0,.15l-.19.09-.38,0-.39,0A16.17,16.17,0,0,0,65.5,18a.45.45,0,0,0-.29.34c-.23.58-.56,1.41-1,2.5-1,2.36-1.65,4.16-2.06,5.37s-.72,2-.82,2.4a17,17,0,0,0-.67,2.88,2.77,2.77,0,0,1,0,.41c0,.18-.06.34-.07.48a3,3,0,0,0,0,.41c-.06.48-.12,1.2-.19,2.16v1.54a.5.5,0,0,0,0,.14,1.15,1.15,0,0,1,0,.14,2.75,2.75,0,0,0,.53,2c0,.1.14.17.33.24a.54.54,0,0,0,.24,0l.48-.29a4.54,4.54,0,0,1,1-.38.24.24,0,0,1,.29.14,1.26,1.26,0,0,1-.1.58,3.49,3.49,0,0,1-1.58,1.25,5.18,5.18,0,0,1-.91.24,2.57,2.57,0,0,1-2.45-.67,3.34,3.34,0,0,1-.86-.92,6.23,6.23,0,0,1-.82-1.48,8.11,8.11,0,0,1-.58-3.32,15.14,15.14,0,0,1,.53-4.75,40.85,40.85,0,0,1,1.2-4,14.78,14.78,0,0,1,.55-1.61c.28-.69.44-1.13.51-1.32a13.24,13.24,0,0,1,1.15-2.69.65.65,0,0,1,.1-.22l.14-.26a9.21,9.21,0,0,0-1.2.1q-2.4.33-2.88.33a3.73,3.73,0,0,1-1.68-.29,4.84,4.84,0,0,0-1.2-.33,3,3,0,0,1-2-1.3,4.58,4.58,0,0,1-.57-1,1.4,1.4,0,0,1,.24-.72c0-.09,0-.09.14,0a.07.07,0,0,0,.1,0,.44.44,0,0,1,.43,0c.74.32,1.2.52,1.39.58a6.09,6.09,0,0,0,1,.19l1.44.05a16.32,16.32,0,0,0,1.73,0,10.4,10.4,0,0,0,1.87-.29A8.61,8.61,0,0,1,61,16.37h.24a.57.57,0,0,0,.53-.24l.14-.24c1.06-1.57,1.75-2.56,2.07-3a3.14,3.14,0,0,0,.36-.5,4.39,4.39,0,0,1,.36-.55,2.78,2.78,0,0,1,1.2-1.16.26.26,0,0,1,.14-.09.51.51,0,0,1,.72-.1,2.33,2.33,0,0,1,1,.91.89.89,0,0,1,.1.29,5,5,0,0,1-.29.82c-.07,0-.1.11-.1.24a1.17,1.17,0,0,1-.19,1,16.21,16.21,0,0,0-.91,1.68.34.34,0,0,0-.1.34L69,15.7c1.32,0,2.34,0,3,0C72.06,15.76,72.06,15.81,72,15.84Z"/><path d="M88.34,29.81c0,.16,0,.25,0,.26a.77.77,0,0,0,.29,0,6.06,6.06,0,0,0,2-.48A14,14,0,0,0,94,27.46l1.77-1.63.68-.68a.08.08,0,0,1,.09-.09,6.27,6.27,0,0,1,.58-.48,4.05,4.05,0,0,0,.62-.58c.07-.09.15-.13.24-.09a.29.29,0,0,1,.19.24v.28a4.08,4.08,0,0,1-.72,1.78,2.33,2.33,0,0,0-.67,1,1,1,0,0,1-.19.38,7.32,7.32,0,0,0-.65.8c-.27.36-.49.64-.65.83l-.57.44a7.73,7.73,0,0,0-1.2.86,9.76,9.76,0,0,1-1.88,1.2l0,.05h-.1l-1.3.38a9.71,9.71,0,0,1-1.77.39.44.44,0,0,0-.48.38,9.12,9.12,0,0,1-.82,2.5,15.67,15.67,0,0,1-1.77,3.26,3.15,3.15,0,0,1-1.16,1.25,2.46,2.46,0,0,0-.28.38,1.87,1.87,0,0,1-.63.53,8.41,8.41,0,0,1-2.3.58,7.1,7.1,0,0,1-2.35-.34,3.91,3.91,0,0,1-2.74-2.25,6.21,6.21,0,0,1-.58-1.93A3.52,3.52,0,0,0,75,35.62a2.34,2.34,0,0,1-.1-1.35c.16-.7.34-1.79.53-3.26a19.33,19.33,0,0,1,.43-2.5c.39-1.47.69-2.57.91-3.31a39.77,39.77,0,0,1,2-5.28q1-2.49,2.21-4.65c1-1.8,1.71-3.12,2.25-4A22.75,22.75,0,0,1,86.42,7.2,3.23,3.23,0,0,1,88,6.29a.27.27,0,0,1,.19,0,.29.29,0,0,0,.19,0,5.19,5.19,0,0,1,2.45,0,2.25,2.25,0,0,1,1.34,1.06,4.54,4.54,0,0,1,.53,2.64,5.85,5.85,0,0,1-.86,2.59l-.1.19a4.35,4.35,0,0,1-.29,1c-.16.42-.25.71-.29.86a5.4,5.4,0,0,1-.33.82,31,31,0,0,1-2.69,4,24.1,24.1,0,0,1-2.3,2.36,6.34,6.34,0,0,0-1,1.24l-.53.58a2.35,2.35,0,0,0-.55.34,3.26,3.26,0,0,1-.65.38.68.68,0,0,0-.43.34l-.27.24-.31.26a3.15,3.15,0,0,1-.29.22A1.86,1.86,0,0,0,81,26.59c-.29,1.09-.47,1.78-.53,2.07,0,.09-.09.29-.17.6s-.13.53-.17.69a4,4,0,0,0,0,1.06,1.45,1.45,0,0,1-.24.77,4.29,4.29,0,0,0-.39,2,16.11,16.11,0,0,0,0,2.44v.15a1,1,0,0,0-.07.52,2.79,2.79,0,0,0,.07.49l.17.48.17.47a1.43,1.43,0,0,0,.24.39.54.54,0,0,0,.67.1,2.45,2.45,0,0,0,1.06-.77c1-1.12,1.45-1.72,1.48-1.78A11.23,11.23,0,0,0,85,32.74a1.61,1.61,0,0,0,.1-.31,1.65,1.65,0,0,1,.09-.32.28.28,0,0,0-.14-.43.32.32,0,0,1-.24-.09,2.74,2.74,0,0,1-1-.82,1.4,1.4,0,0,0-.38-.43,2.87,2.87,0,0,1-.43-.43,2.42,2.42,0,0,1-.48-1.28,2.16,2.16,0,0,1,.19-1.32,5.66,5.66,0,0,1,1.73-2,1.6,1.6,0,0,1,1.53-.24,3.78,3.78,0,0,1,1.59.91,2.17,2.17,0,0,1,.57,1.15c.16,1.19.24,1.81.24,1.87ZM83,21.34l.17-.12a2.31,2.31,0,0,0,.36-.34l.36-.43c.13-.16.22-.29.29-.39A21.79,21.79,0,0,0,86,17.67c.29-.42.81-1.3,1.58-2.64.13-.26.35-.64.67-1.16L89,12.72q.19-.39.6-1.08c.28-.46.44-.74.51-.84a1.22,1.22,0,0,0-.05-1.49.58.58,0,0,0-1,0,.88.88,0,0,1-.33.34,1.46,1.46,0,0,0-.58.62c-.1.16-.31.55-.65,1.15a7.28,7.28,0,0,1-.89,1.35,1.2,1.2,0,0,0-.28.62,5.44,5.44,0,0,1-.82,1.68,1.16,1.16,0,0,0-.19.39,6,6,0,0,1-.58,1.2c-.13.22-.25.46-.38.72s-.27.54-.41.86a5.91,5.91,0,0,1-.36.72,6.09,6.09,0,0,0-.46,1.25,8.11,8.11,0,0,1-.36,1.15s0,.07,0,.1Zm2.81,7.13a1.06,1.06,0,0,0,0-.39c0-.09,0-.23,0-.41a1.55,1.55,0,0,0-.08-.4.59.59,0,0,0-.62-.48.51.51,0,0,0-.43.57c0,.07,0,.16,0,.29a2.24,2.24,0,0,1,0,.34,2.06,2.06,0,0,0,.43,1.24,1.32,1.32,0,0,0,.38.34c.23.06.34,0,.34-.19v-.91Z"/><path d="M103,30.15a2.88,2.88,0,0,1-.29.67c-.16.25-.38.59-.67,1s-.46.67-.53.76a12.55,12.55,0,0,0-.81,1.21,5.35,5.35,0,0,1-1,1.15,2.83,2.83,0,0,0-.58.77,1.76,1.76,0,0,1-.52.57,2.36,2.36,0,0,1-.29.19,2.92,2.92,0,0,0-.34.24,6.88,6.88,0,0,1-1.25.82,1.61,1.61,0,0,1-1.1.14A2.72,2.72,0,0,1,94,36.91l-.62-.62a2.17,2.17,0,0,1-.82-1.54,4,4,0,0,1,.2-1.77c.25-1.28.46-2.24.62-2.88a18.66,18.66,0,0,1,1.54-4.18c.22-.45.53-1.12.91-2a18.84,18.84,0,0,1,1-2.16l1.15-2a4.52,4.52,0,0,1,1.06-1s0,0,.09,0l1.39.15.15.14A1.82,1.82,0,0,1,101,20a.8.8,0,0,0,0,.33.66.66,0,0,1,.1.63,4.34,4.34,0,0,1-.34.81,10.68,10.68,0,0,1-.48,1.28c-.22.52-.37.88-.43,1.08l-.29.72c-.41,1-.67,1.55-.77,1.77s-.19.37-.38.72a5.23,5.23,0,0,0-.38.82c-.13.35-.36.88-.68,1.58-.16.35-.35.86-.57,1.51l-.48,1.37a3.58,3.58,0,0,0-.19.72,1.72,1.72,0,0,0,.33,1.2c.1.1.19.08.29-.05l1.3-1.29q.18-.24,1.68-2.4c.35-.51.73-1.15,1.15-1.92l1.15-2a15.46,15.46,0,0,0,.91-1.73,6.92,6.92,0,0,1,.87-1.58,3.55,3.55,0,0,0,.33-1.06,7.19,7.19,0,0,1,.19-1.24,3.73,3.73,0,0,0,.15-1.21,1.92,1.92,0,0,1,.57-1.34c.26-.32.64-.32,1.16,0a3,3,0,0,1,1.1,1.2s0,.08.1.14a1.37,1.37,0,0,1,.28.44,1.34,1.34,0,0,1,.12.43c0,.13,0,.3.08.53a3.74,3.74,0,0,1,0,.48,4.26,4.26,0,0,1,0,1v.57c0,.26,0,.63,0,1.11s-.05.84-.05,1.1a13.9,13.9,0,0,0,.05,1.49,4.58,4.58,0,0,1-.1.72c0,.25,0,.61,0,1.08s-.06.81-.09,1c-.07.51-.13.91-.2,1.2a3,3,0,0,0-.14.74,2.78,2.78,0,0,1-.1.65c.55-.32.87-.49,1-.53a2.39,2.39,0,0,1,.77-.33,1.85,1.85,0,0,0,.39-.24,12.15,12.15,0,0,1,2.16-1.35l1.24-.71a16.18,16.18,0,0,1,1.44-.77,1.7,1.7,0,0,1,.29-.12l.29-.12a.21.21,0,0,1,.29,0v.24a1.35,1.35,0,0,1-.72.87.89.89,0,0,0-.34.24s-.38.29-1,.77a14.47,14.47,0,0,0-1.4.91.62.62,0,0,0-.21.14,1,1,0,0,1-.27.19,1.11,1.11,0,0,0-.43.39,3.19,3.19,0,0,1-.53.48,1.06,1.06,0,0,0-.38.38,2.1,2.1,0,0,1-.62.58,6.18,6.18,0,0,0-1,.72.3.3,0,0,1-.19.09,2.4,2.4,0,0,0-.53.48,2,2,0,0,1-.39.53,2,2,0,0,0-.62,1.25,2.19,2.19,0,0,1-.1.6,2.57,2.57,0,0,0-.09.46c0,.13-.09.41-.17.86s-.15.8-.22,1.06-.14.47-.24.84a5.24,5.24,0,0,1-.24.79c-.12.54-.2.91-.24,1.1a4.3,4.3,0,0,1-.33,1.25c-.16.45-.26.72-.29.82a2.71,2.71,0,0,1-.38.62,2.87,2.87,0,0,0-.39.91,1.61,1.61,0,0,1-.29.72.16.16,0,0,0,0,.1.26.26,0,0,0-.05.14,3.8,3.8,0,0,1-.22.65c-.11.27-.18.46-.21.55a2.14,2.14,0,0,1-.17.34,1.53,1.53,0,0,0-.17.34l-.24.62-.24.62a5.17,5.17,0,0,1-.48,1.06c-.06.1-.29.46-.67,1.1-.07.1-.21.35-.43.75a7.29,7.29,0,0,1-.58.89c-.06.12-.18.32-.34.57a2.72,2.72,0,0,1-.38.53l0,0a3.09,3.09,0,0,0-.57.7,5.73,5.73,0,0,1-.53.69,1.58,1.58,0,0,0-.43.63A4.4,4.4,0,0,1,97,58s-.16.19-.38.48a4.05,4.05,0,0,1-.58.62,1.59,1.59,0,0,1-.38.34c-.07.06-.1.11-.1.14a2.91,2.91,0,0,1-.91,1l-.19.19a.58.58,0,0,1-.34.29,2.47,2.47,0,0,0-.63.48,4.44,4.44,0,0,1-1,.67s-.08,0-.15.1a.26.26,0,0,1-.14.09,6.36,6.36,0,0,1-1.1.58,3.87,3.87,0,0,1-1.2.29.54.54,0,0,0-.24,0,2.7,2.7,0,0,0-.51,0l-.55.07-.48,0h-.19a1.3,1.3,0,0,1-1.11-.14,2.89,2.89,0,0,1-.81-.58l-.29-.29a4.87,4.87,0,0,1-.86-1.29l-.1-.19c-.06-.07-.1-.12-.1-.15a2.39,2.39,0,0,1,0-1.34c0-.13.11-.35.22-.67a7.26,7.26,0,0,0,.22-.77,1.33,1.33,0,0,1,.24-.68c.38-.7.68-1.24.91-1.63l.29-.41a2.57,2.57,0,0,0,.24-.4c.22-.36.52-.88.91-1.59a28.17,28.17,0,0,1,1.58-2.45A25.74,25.74,0,0,1,91,48.72l1.3-1.29a2.27,2.27,0,0,0,.48-.58l.55-.69a7.24,7.24,0,0,1,.55-.65c.77-.9,1.35-1.59,1.73-2.07a14.11,14.11,0,0,0,1.2-1.34c.35-.38.91-1,1.68-1.73l1.73-1.73a11.73,11.73,0,0,1,1.53-1.34,6.47,6.47,0,0,0,.53-.39.36.36,0,0,0,.1-.28c0-.23.11-.64.24-1.25a12.47,12.47,0,0,0,.24-1.44c0-.1.14-1,.43-2.64,0-.23.09-.59.17-1.11s.13-.88.17-1.1l0-.05A6.33,6.33,0,0,0,103,30.15ZM101.3,40.9l0,.05c-.38.51-.68.89-.91,1.15a5.06,5.06,0,0,0-.43.48,15.16,15.16,0,0,1-1.25,1.54,4,4,0,0,1-.48.5l-.48.46a2.61,2.61,0,0,1-.36.4,2.49,2.49,0,0,0-.31.36,4,4,0,0,1-.65.6q-.45.36-.6.51a3.91,3.91,0,0,0-.77,1.1,2.35,2.35,0,0,1-.28.34s-.09.13-.27.31a2.34,2.34,0,0,0-.36.46l-.53.69c-.22.31-.35.47-.38.51A18.19,18.19,0,0,0,91.89,52a15.2,15.2,0,0,1-1.73,2.3,1,1,0,0,1-.14.24,1.84,1.84,0,0,1-.43.91l-.39.67A11.63,11.63,0,0,1,88.29,58l-.09.19a.38.38,0,0,1,0,.26.8.8,0,0,0,0,.22.76.76,0,0,1-.1.31,1,1,0,0,0-.09.36,1.34,1.34,0,0,1-.24.72c-.13.13-.12.24,0,.34a.91.91,0,0,1,.15.24l0,.14a.81.81,0,0,1,.14.2.59.59,0,0,0,.82.24l.57-.29a6.9,6.9,0,0,0,1.63-1.25,8.75,8.75,0,0,0,1.11-1.11A10.67,10.67,0,0,1,93.52,57a2,2,0,0,0,.17-.19,1.59,1.59,0,0,0,.17-.24l.91-1.35c.58-.83.9-1.29,1-1.39.55-1,.87-1.63,1-1.82s.32-.62.58-1.08l.58-1a.93.93,0,0,0,.24-.38,12,12,0,0,1,.52-1.15c.1-.26.33-.77.7-1.54s.63-1.36.79-1.77q.87-2.4,1-2.79c0-.19.16-.69.39-1.49A.44.44,0,0,1,101.3,40.9Z"/><path d="M146.61,24.19a.69.69,0,0,1-.28,0c-.07.09-.08.16-.05.19l.14.14c.07.07.1.11.1.15s-.18.2-.43.52-.47.56-.63.72a7.26,7.26,0,0,0-1.1,1.25q-.24.28-.48.6l-.53.7-.43.57c-.23.23-.54.59-.94,1.08l-.89,1.13c-.12.16-.33.41-.62.75s-.51.6-.67.79c0,0-.07,0-.1.09l0,.1a6.05,6.05,0,0,1-1,1.1,2.35,2.35,0,0,0-.52.72,4.38,4.38,0,0,1-.53.63,10.17,10.17,0,0,0-1.11,1,5.06,5.06,0,0,1-2.35,1.39,3.14,3.14,0,0,1-2.49-.48,2,2,0,0,1-.48-.39l-.05,0h0a3,3,0,0,1-.38-.72,2.3,2.3,0,0,0,0-.39,2.4,2.4,0,0,1-.05-.33c-.07-.71-.13-1.22-.19-1.54l.19-.09v-.58c0-.16,0-.24,0-.24a.33.33,0,0,0-.33.09,18.63,18.63,0,0,0-1.49,2.26,2.51,2.51,0,0,1-.58.67.8.8,0,0,0-.34.39l-.19.29a1.53,1.53,0,0,0-.29.47l0,.05a5.26,5.26,0,0,0-.65.51,3,3,0,0,1-.6.45.45.45,0,0,1-.67-.24c-.07-.19-.15-.2-.24,0a1.09,1.09,0,0,1-.68.47,1.47,1.47,0,0,1-1,0,1.5,1.5,0,0,1-.93-.6l-.12-.19-.17-.22a1.56,1.56,0,0,0-.15-.17,2,2,0,0,1-.52-.86.2.2,0,0,0-.2-.15c-.25-2.08.4-4.54,2-7.39a3.6,3.6,0,0,1,.36-.5c.18-.21.31-.36.41-.46.26-.32.61-.83,1.06-1.53a39.06,39.06,0,0,1,4-5.14c.42-.42,1-1,1.87-1.78a5.18,5.18,0,0,1,1.16-.72c.16-.09.38,0,.67.15l.43.24a3.16,3.16,0,0,1,.48.33l.14.15a1.44,1.44,0,0,1,.19,1.77c-.06.1-.33.52-.81,1.25l-.65.84c-.3.4-.54.73-.7,1a3.91,3.91,0,0,1-.43.48,4.87,4.87,0,0,0-1.29,1.48c-.1.16-.51.79-1.25,1.88A35.14,35.14,0,0,0,126.69,32a8.84,8.84,0,0,0-1,2.26v.14a2.65,2.65,0,0,0,.48-.53q2-2.64,4.32-5.85a4.47,4.47,0,0,0,.36-.51,3.62,3.62,0,0,0,.41-.69,12,12,0,0,1,1.18-1.66,15.83,15.83,0,0,0,1-1.27,2.36,2.36,0,0,1,.27-.24l.21-.19a18.36,18.36,0,0,1,2-2.31.78.78,0,0,0,.12-.19.78.78,0,0,1,.12-.19l.12-.27a.67.67,0,0,0,.07-.21c.1-.2.2-.24.29-.15s0,.13-.09.29a.74.74,0,0,1-.15.24.73.73,0,0,0,.48-.62,1.06,1.06,0,0,0,.53.24.46.46,0,0,1,.43.24c0,.09.15.17.34.24s.24.06.24.19a1.41,1.41,0,0,0,.14.58,2.59,2.59,0,0,1-.19,1.29c-.06.13-.14.31-.24.55l-.24.56a5.85,5.85,0,0,1-.72,1.48,4.6,4.6,0,0,0-.36.68c-.08.19-.15.37-.22.55s-.11.31-.14.41a14.15,14.15,0,0,0-.86,2.35c-.29.93-.47,1.45-.53,1.58a12.59,12.59,0,0,0-.82,2.4,3,3,0,0,0-.05,1.78v0a.51.51,0,0,0,.34.09,10.41,10.41,0,0,0,.72-.77c.29-.28.53-.41.72-.38-.13-.13-.11-.24.05-.33a2.18,2.18,0,0,1,.33-.15,1,1,0,0,0,.15-.29,1.9,1.9,0,0,1,.19-.38l.1-.1a.14.14,0,0,1,.09-.05l.05.15c.16-.07.24-.16.24-.29l-.19.1a.72.72,0,0,1,.72-.48c0-.2.13-.37.38-.53.07-.06.19-.21.39-.43.7-.84,1.23-1.44,1.58-1.83l.72-.72a8.88,8.88,0,0,0,.86-1,.81.81,0,0,0,.2-.14,1.56,1.56,0,0,1,.26-.22l.29-.19a1,1,0,0,0,.24-.22,2.55,2.55,0,0,0,.21-.28.67.67,0,0,1,.77-.34c0-.16.1-.38.39-.67a7.94,7.94,0,0,1,.86-.77.67.67,0,0,1,.38-.24,1.18,1.18,0,0,0,.58-.58A.91.91,0,0,1,146,24a.81.81,0,0,0,.43-.24c.13-.16.34-.14.63.05a4.12,4.12,0,0,0-.15.48A.69.69,0,0,0,146.61,24.19Z"/><path d="M155.25,31.4v.19a15,15,0,0,0,0,1.58,2.25,2.25,0,0,0,.28.91,1.67,1.67,0,0,0,.36-.33,3.5,3.5,0,0,0,.32-.39,18.46,18.46,0,0,0,1.53-1.72c.51-.71,1.07-1.41,1.68-2.12.13-.12.3-.32.53-.57l.6-.7a5.2,5.2,0,0,0,.45-.6s.5-.54,1.4-1.54a2.51,2.51,0,0,1,1.2-.76.41.41,0,0,0,.24-.15l.12-.09L164,25a2.71,2.71,0,0,1,.62-.38.68.68,0,0,1,.53,0c.1,0,.15.12.17.26a.63.63,0,0,1-.12.41,2,2,0,0,1-.39.48,2.79,2.79,0,0,0-.38.43l-.1.19,0,.1a1,1,0,0,1-.1.14,3.7,3.7,0,0,0-.67.82,1.36,1.36,0,0,1-.24.24c-.16.19-.37.48-.63.86a.14.14,0,0,1-.09.05.16.16,0,0,0-.1.05.14.14,0,0,1-.09.05q-.78,1-1.2,1.44a4,4,0,0,0-.44.67.26.26,0,0,0-.09.14v.1a.63.63,0,0,1-.15.34,2.39,2.39,0,0,0-.26.35,3.4,3.4,0,0,1-.22.32l-.29.41a2.94,2.94,0,0,1-.28.35,5.23,5.23,0,0,0-.53.58.34.34,0,0,0,.19,0,2.56,2.56,0,0,1-.34.58l-.24.24-.09.19a.44.44,0,0,1-.29.29l-.05.05c-.16.12-.7.46-1.63,1a.26.26,0,0,0-.14.09,1.12,1.12,0,0,1-.39.29.28.28,0,0,0-.12,0,.24.24,0,0,1-.12,0,4.06,4.06,0,0,1-1,.2.18.18,0,0,1-.19-.2l.15-.09h.09l-.05.09h.05l-.05.05h-.09l-.15,0-.14,0a.42.42,0,0,1-.34-.19h0a.53.53,0,0,1-.48-.14,9.27,9.27,0,0,1-.82-.87l-.24-.24-.34-.43a5.66,5.66,0,0,1-.43-1,4.27,4.27,0,0,1-.29-1.58c-.06-.58-.09-1-.09-1.3,0-.1,0-.28,0-.55a6.46,6.46,0,0,1,.07-.65v0s0,0,0,0l.05,0c0,.07,0,.1-.05.1-.32.51-.57.89-.77,1.15l-.33.43a7.26,7.26,0,0,0-.43.63,3.26,3.26,0,0,1-.41.55,4.86,4.86,0,0,0-.46.6,4.4,4.4,0,0,1-.67.77,1.55,1.55,0,0,0-.19.33s0,.08-.1.15-.32.36-.57.62a3.89,3.89,0,0,0-.48.53l-.27.24c-.14.13-.25.22-.31.29l-.1,0,0,0a3.63,3.63,0,0,0-.63.39,3.43,3.43,0,0,1-.48.33s-.09.05-.19.05a1.79,1.79,0,0,0-.48,0,1.58,1.58,0,0,0-.29.05,1.45,1.45,0,0,1-.29,0,2.29,2.29,0,0,1-.67-.2,1.15,1.15,0,0,1-.33-.17l-.24-.16a2.17,2.17,0,0,0-.34-.19,2.11,2.11,0,0,1-.77-.87,5.87,5.87,0,0,1-.57-1.2,3,3,0,0,1-.29-1.44,10.54,10.54,0,0,0-.05-1.15V30.24a7.28,7.28,0,0,1,.1-1.1,4.61,4.61,0,0,1,.72-2.16,1.43,1.43,0,0,0,.09-.58,1.4,1.4,0,0,1,.39-.81c.44-.74.72-1.22.81-1.44a6.55,6.55,0,0,1,.53-.82c.13-.13.3-.31.5-.55s.36-.43.46-.55a4,4,0,0,1,.58-.58,3.1,3.1,0,0,0,.52-.36,4.26,4.26,0,0,0,.48-.41,10.15,10.15,0,0,1,1.11-.62.33.33,0,0,0,.24-.1,2.75,2.75,0,0,1,1-.57c.06,0,.28-.13.67-.29a2,2,0,0,1,1-.05l.72.14a1.65,1.65,0,0,1,.62.44l.29.28a.54.54,0,0,0,.34.2c.12,0,.22.16.28.38a1.53,1.53,0,0,0,.15.19,1.12,1.12,0,0,1,.12.17,1.12,1.12,0,0,0,.12.17.29.29,0,0,0,.05-.19.68.68,0,0,1,0-.2.42.42,0,0,0,0-.14c0-.16.09-.4.17-.72a5,5,0,0,1,.22-.72c.13-.64.24-1.1.33-1.39.26-.83.44-1.44.53-1.83.16-.6.27-1,.34-1.2.13-.51.24-.89.33-1.15a8.23,8.23,0,0,0,.24-.84q.15-.55.24-.84c0-.13.11-.32.22-.58l.26-.57c.1-.29.28-.72.53-1.3,0-.06.13-.28.29-.65l.38-.84c.2-.44.34-.8.44-1.05s.19-.43.38-.82a17.12,17.12,0,0,0,1-1.82,4.53,4.53,0,0,1,.48-.82v0a.14.14,0,0,0,0-.09,4.86,4.86,0,0,1,1.25-1.83c.09-.09.14-.16.14-.19a.58.58,0,0,1,.15-.43,1.61,1.61,0,0,1,.23-.29s0-.08.1-.14V.48a.75.75,0,0,0,.1-.17c0-.08.08-.18.14-.31a1.73,1.73,0,0,1,.05.38c.1-.06.22,0,.38.15h0a2.41,2.41,0,0,1,.87-.43h.52c.29,0,.44,0,.44,0a1.43,1.43,0,0,1,.52.19l.05.05a.14.14,0,0,0,.1,0,.16.16,0,0,0,.14,0c.32,0,.35.1.1.29a1.55,1.55,0,0,1,.14.19.5.5,0,0,0,.05.15v.09l.19.39a.66.66,0,0,1,.19.28,12.57,12.57,0,0,1,.39,1.35v.19c0,.13,0,.19,0,.19a4.3,4.3,0,0,1-.05.48,4.82,4.82,0,0,0-.05.48c-.19.9-.32,1.59-.38,2.07a5.79,5.79,0,0,1-.19.72.32.32,0,0,1-.1.19,2.19,2.19,0,0,0-.43.91,3.31,3.31,0,0,0-.17.36,4.12,4.12,0,0,0-.17.41c0,.13-.41,1.1-1.15,2.93a9.78,9.78,0,0,1-.67,1.53c-.39.71-.69,1.24-.92,1.59s-.46.8-.62,1-.34.6-.81,1.4c-.16.31-.44.76-.82,1.34-.07.1-.15.22-.26.36a4.18,4.18,0,0,0-.27.36c-.26.38-.45.66-.58.82s-.13.19-.31.48a4,4,0,0,1-.45.62,2.14,2.14,0,0,0-.39.91c0,.23-.08.59-.14,1.11s-.24,1-.34,1.34c-.09.48-.14.75-.14.82s-.09.51-.17,1-.14.76-.17,1c-.09.57-.14.88-.14.91s0,.51-.14,1.34a2.17,2.17,0,0,0-.05.58v.57C155.28,31.22,155.32,31.3,155.25,31.4Zm-3.91-5.79a2.09,2.09,0,0,1,0-.31,8.08,8.08,0,0,1,0-1.11,4.81,4.81,0,0,0-.15-1.2,3.51,3.51,0,0,0-.21-.55,2.65,2.65,0,0,0-.22-.41s0,0-.09,0q-.39.14-.48.09H150v.05h-.09a4.12,4.12,0,0,0-.77.67l-.1.05a1.62,1.62,0,0,1-.24.14.11.11,0,0,1-.05.1l-.14.24-.14.24c-.52.67-.79,1-.82,1.1a3.19,3.19,0,0,1-.53.82,3,3,0,0,0-.38.62,2.69,2.69,0,0,0-.24.48c-.23.52-.35.84-.39,1a10.44,10.44,0,0,0-.33,1.11c0,.13-.23.86-.58,2.21a1.15,1.15,0,0,1,0,.14.63.63,0,0,0,0,.19,3.88,3.88,0,0,0-.28,1.44,4.79,4.79,0,0,0,0,1.54c0,.06.07.08.1,0,.22-.16.4-.2.53-.1v0a0,0,0,0,0,.05,0l0-.05c.07-.06.26-.27.58-.62.19-.19.51-.55,1-1.06L148.29,31c1-1.18,1.63-1.92,1.83-2.21a12.55,12.55,0,0,0,.76-1.2,9.32,9.32,0,0,1,.63-1,2,2,0,0,0,0-.32,1.12,1.12,0,0,0-.1-.31A2.09,2.09,0,0,0,151.34,25.61Zm6.19-7.87a1.12,1.12,0,0,1,.12-.17c.13-.19.31-.5.56-.94s.42-.76.55-1,.17-.33.33-.6.28-.47.34-.6.31-.58.55-1.06.43-.83.55-1.05.47-1,.92-2c.16-.32.36-.8.62-1.44.06-.22.18-.54.34-1s.27-.74.33-1a.29.29,0,0,0,0-.19.37.37,0,0,1,.1-.29,2.66,2.66,0,0,0,.19-.43,2.1,2.1,0,0,0,.09-.34,5.2,5.2,0,0,0,0-1.49A5.3,5.3,0,0,0,163,3l.05,0a2.32,2.32,0,0,0-.34.51l-.24.45a2.31,2.31,0,0,0-.33.63,2.9,2.9,0,0,1-.34.62v0l-.05,0v.24a.28.28,0,0,0-.09.19,1.93,1.93,0,0,0-.34.81.92.92,0,0,1-.09.39c-.13.19-.26.4-.39.62a12.76,12.76,0,0,0-.57,1.83,2.9,2.9,0,0,1-.2.67c-.06.13-.15.29-.26.5s-.18.35-.22.41a2,2,0,0,0-.38.86c-.07.2-.15.45-.27.77s-.18.55-.21.68a4.2,4.2,0,0,1-.24,1,2.55,2.55,0,0,0-.12.33c0,.16-.09.27-.12.34-.16.41-.29.78-.39,1.1l-.28,1.15c0,.13-.08.36-.15.67A.92.92,0,0,0,157.53,17.74Z"/><path d="M175.12,31.4v.19a15,15,0,0,0,0,1.58,2.25,2.25,0,0,0,.28.91,1.67,1.67,0,0,0,.36-.33,3.5,3.5,0,0,0,.32-.39,18.46,18.46,0,0,0,1.53-1.72c.51-.71,1.07-1.41,1.68-2.12.13-.12.31-.32.53-.57l.6-.7a6.92,6.92,0,0,0,.46-.6l1.39-1.54a2.51,2.51,0,0,1,1.2-.76.41.41,0,0,0,.24-.15l.12-.09.12-.1a3,3,0,0,1,.62-.38.68.68,0,0,1,.53,0c.1,0,.15.12.17.26a.58.58,0,0,1-.12.41,2,2,0,0,1-.39.48,2.79,2.79,0,0,0-.38.43l-.1.19,0,.1a1,1,0,0,1-.1.14,3.7,3.7,0,0,0-.67.82,1.36,1.36,0,0,1-.24.24c-.16.19-.37.48-.63.86a.14.14,0,0,1-.09.05.16.16,0,0,0-.1.05.14.14,0,0,1-.09.05q-.78,1-1.2,1.44a4,4,0,0,0-.44.67.26.26,0,0,0-.09.14v.1a.63.63,0,0,1-.15.34,2.39,2.39,0,0,0-.26.35,2.12,2.12,0,0,1-.22.32l-.28.41a4,4,0,0,1-.29.35,6.51,6.51,0,0,0-.53.58.34.34,0,0,0,.19,0,3.23,3.23,0,0,1-.33.58l-.24.24-.1.19a.44.44,0,0,1-.29.29l-.05.05c-.16.12-.7.46-1.63,1a.26.26,0,0,0-.14.09,1.12,1.12,0,0,1-.39.29.28.28,0,0,0-.12,0,.19.19,0,0,1-.12,0,4,4,0,0,1-1,.2.18.18,0,0,1-.2-.2l.15-.09h.09l0,.09h0l0,.05h-.1l-.14,0-.15,0a.39.39,0,0,1-.33-.19h0a.55.55,0,0,1-.48-.14,11.09,11.09,0,0,1-.82-.87l-.24-.24-.33-.43a5.08,5.08,0,0,1-.44-1,4.27,4.27,0,0,1-.28-1.58,11.58,11.58,0,0,1-.1-1.3c0-.1,0-.28,0-.55a4.24,4.24,0,0,1,.08-.65v0s0,0,0,0l.05,0c0,.07,0,.1-.05.1-.32.51-.57.89-.76,1.15a4.63,4.63,0,0,0-.34.43,7.26,7.26,0,0,0-.43.63,3.26,3.26,0,0,1-.41.55,4.86,4.86,0,0,0-.46.6,4,4,0,0,1-.67.77,2.23,2.23,0,0,0-.19.33s0,.08-.1.15-.32.36-.57.62a3.89,3.89,0,0,0-.48.53l-.27.24c-.14.13-.25.22-.31.29l-.09,0,0,0a3.63,3.63,0,0,0-.63.39,3.43,3.43,0,0,1-.48.33s-.09.05-.19.05a1.79,1.79,0,0,0-.48,0,1.58,1.58,0,0,0-.29.05,1.35,1.35,0,0,1-.29,0,2.29,2.29,0,0,1-.67-.2,1.3,1.3,0,0,1-.33-.17l-.24-.16a2.17,2.17,0,0,0-.34-.19,2.11,2.11,0,0,1-.77-.87,5.87,5.87,0,0,1-.57-1.2,3,3,0,0,1-.29-1.44,10.54,10.54,0,0,0-.05-1.15V30.24a7.28,7.28,0,0,1,.1-1.1,4.61,4.61,0,0,1,.72-2.16,1.43,1.43,0,0,0,.09-.58,1.4,1.4,0,0,1,.39-.81c.44-.74.72-1.22.81-1.44a6.55,6.55,0,0,1,.53-.82c.13-.13.3-.31.5-.55s.37-.43.46-.55a4,4,0,0,1,.58-.58,3.1,3.1,0,0,0,.52-.36,4.26,4.26,0,0,0,.48-.41,10.15,10.15,0,0,1,1.11-.62.3.3,0,0,0,.24-.1,2.75,2.75,0,0,1,1-.57c.06,0,.29-.13.67-.29a2,2,0,0,1,1-.05l.72.14a1.57,1.57,0,0,1,.62.44l.29.28a.54.54,0,0,0,.34.2c.13,0,.22.16.29.38a1,1,0,0,0,.14.19,1.12,1.12,0,0,1,.12.17,1.12,1.12,0,0,0,.12.17.29.29,0,0,0,0-.19,1.36,1.36,0,0,1,0-.2.5.5,0,0,0,0-.14c0-.16.08-.4.16-.72a6.67,6.67,0,0,1,.22-.72,12.23,12.23,0,0,1,.34-1.39c.25-.83.43-1.44.52-1.83.16-.6.28-1,.34-1.2a11.12,11.12,0,0,1,.34-1.15q.09-.29.24-.84a8.23,8.23,0,0,1,.24-.84,4,4,0,0,1,.21-.58q.16-.37.27-.57c.09-.29.27-.72.52-1.3,0-.06.13-.28.29-.65s.29-.64.39-.84c.19-.44.33-.8.43-1.05s.19-.43.38-.82a15.46,15.46,0,0,0,1-1.82,4.53,4.53,0,0,1,.48-.82v0a.14.14,0,0,0,0-.09,4.86,4.86,0,0,1,1.25-1.83c.09-.09.14-.16.14-.19a.58.58,0,0,1,.15-.43,1.38,1.38,0,0,1,.24-.29.26.26,0,0,1,.09-.14V.48a.5.5,0,0,0,.1-.17c0-.08.08-.18.14-.31a1.73,1.73,0,0,1,0,.38c.1-.06.22,0,.38.15h0a2.48,2.48,0,0,1,.87-.43h.52c.29,0,.44,0,.44,0a1.43,1.43,0,0,1,.52.19l.05.05a.14.14,0,0,0,.1,0,.16.16,0,0,0,.14,0c.32,0,.35.1.1.29a1.55,1.55,0,0,1,.14.19.5.5,0,0,0,.05.15v.09l.19.39a.66.66,0,0,1,.19.28,12.57,12.57,0,0,1,.39,1.35v.19c0,.13,0,.19,0,.19a4.3,4.3,0,0,1-.05.48,4.82,4.82,0,0,0-.05.48c-.19.9-.32,1.59-.38,2.07a5.79,5.79,0,0,1-.19.72.32.32,0,0,1-.1.19,2.19,2.19,0,0,0-.43.91c0,.06-.09.18-.17.36a4.12,4.12,0,0,0-.17.41c0,.13-.41,1.1-1.15,2.93a9.78,9.78,0,0,1-.67,1.53c-.39.71-.69,1.24-.91,1.59s-.47.8-.63,1-.33.6-.81,1.4c-.16.31-.44.76-.82,1.34a3.8,3.8,0,0,1-.26.36,4.18,4.18,0,0,0-.27.36c-.25.38-.45.66-.57.82a3.42,3.42,0,0,0-.32.48,3.45,3.45,0,0,1-.45.62,2.27,2.27,0,0,0-.39.91c0,.23-.08.59-.14,1.11s-.24,1-.34,1.34c-.09.48-.14.75-.14.82s-.09.51-.17,1-.13.76-.17,1c-.09.57-.14.88-.14.91s-.05.51-.14,1.34a2.17,2.17,0,0,0-.05.58v.57C175.16,31.22,175.19,31.3,175.12,31.4Zm-3.91-5.79c0-.14,0-.25,0-.31a10.11,10.11,0,0,1-.05-1.11A5.32,5.32,0,0,0,171,23a5.56,5.56,0,0,0-.22-.55,2,2,0,0,0-.22-.41s0,0-.09,0q-.39.14-.48.09h-.15v.05h-.09a4.12,4.12,0,0,0-.77.67l-.1.05a1.62,1.62,0,0,1-.24.14.11.11,0,0,1,0,.1,1.75,1.75,0,0,1-.14.24l-.14.24c-.52.67-.79,1-.82,1.1a3.19,3.19,0,0,1-.53.82,3,3,0,0,0-.38.62,2.69,2.69,0,0,0-.24.48c-.22.52-.35.84-.38,1a8.17,8.17,0,0,0-.34,1.11c0,.13-.23.86-.58,2.21a.42.42,0,0,1,0,.14.62.62,0,0,0,0,.19,3.7,3.7,0,0,0-.29,1.44,4.79,4.79,0,0,0,0,1.54c0,.06.07.08.1,0,.23-.16.4-.2.53-.1v0a0,0,0,0,0,.05,0l0-.05c.07-.06.26-.27.58-.62.19-.19.51-.55,1-1.06L168.16,31c1-1.18,1.63-1.92,1.83-2.21a12.55,12.55,0,0,0,.76-1.2,11.6,11.6,0,0,1,.63-1,2,2,0,0,0,0-.32,1.74,1.74,0,0,0-.09-.31A2.55,2.55,0,0,0,171.21,25.61Zm6.19-7.87a1.12,1.12,0,0,1,.12-.17c.13-.19.32-.5.56-.94s.42-.76.55-1,.17-.33.33-.6.28-.47.34-.6.31-.58.55-1.06.43-.83.55-1.05.47-1,.92-2c.16-.32.36-.8.62-1.44.06-.22.18-.54.34-1s.27-.74.33-1a.29.29,0,0,0,0-.19.37.37,0,0,1,.1-.29,2.66,2.66,0,0,0,.19-.43,2.1,2.1,0,0,0,.09-.34,5.2,5.2,0,0,0,0-1.49,5.3,5.3,0,0,0-.19-1.2l.05,0a2.32,2.32,0,0,0-.34.51q-.18.36-.24.45a2.31,2.31,0,0,0-.33.63,2.49,2.49,0,0,1-.34.62v0l-.05,0v.24a.28.28,0,0,0-.09.19,1.93,1.93,0,0,0-.34.81.92.92,0,0,1-.09.39c-.13.19-.26.4-.39.62a12.76,12.76,0,0,0-.57,1.83,2.9,2.9,0,0,1-.2.67c-.06.13-.15.29-.26.5s-.18.35-.22.41a2,2,0,0,0-.38.86c-.06.2-.15.45-.26.77a6,6,0,0,0-.22.68,4.2,4.2,0,0,1-.24,1,2.55,2.55,0,0,0-.12.33c-.05.16-.09.27-.12.34-.16.41-.29.78-.38,1.1l-.29,1.15-.15.67A.44.44,0,0,0,177.4,17.74Z"/><path d="M187,22.75a3.94,3.94,0,0,1,.91,1.16,1.81,1.81,0,0,1-.1,1.29,9.77,9.77,0,0,1-.62,1.39c-.16.36-.43.88-.82,1.59-.06.19-.18.49-.36.91s-.31.72-.4.91c-.61,1.64-1,2.59-1.06,2.88-.26.77-.67,1.86-1.25,3.27L182.47,38s0,.08-.1.14a1.05,1.05,0,0,0-.5.32,2.49,2.49,0,0,1-.36.31.65.65,0,0,1-.92-.29.68.68,0,0,0-.62-.29c-.29-.06-.46-.3-.53-.72a2.94,2.94,0,0,1,.07-.38c.05-.2.09-.34.12-.43s0-.26,0-.29A1.94,1.94,0,0,1,179.2,35a9.14,9.14,0,0,1,.34-1.49,53.52,53.52,0,0,1,2.16-6.82c.22-.51.54-1.24.93-2.18s.64-1.51.7-1.71.08-.19.15-.38a1.27,1.27,0,0,1,1.39-.62A3.59,3.59,0,0,1,187,22.75Zm.77-2.88c-.26-.06-.4-.08-.44,0a.38.38,0,0,0,0,.23.34.34,0,0,1-.24-.14.62.62,0,0,0-.24-.19l-.29-.14s-.07,0-.1,0-.06.07-.09.07a3.06,3.06,0,0,0-.34-.43.9.9,0,0,1-.14-1,6.3,6.3,0,0,1,.48-1.54c0,.29.11.2.33-.28l.29-.63a.2.2,0,0,0,.05-.14l.05-.1a.67.67,0,0,1,.76-.33,2.21,2.21,0,0,1,.32,0,2,2,0,0,0,.31,0,2.67,2.67,0,0,1,1,.29.91.91,0,0,0,.26.12.91.91,0,0,1,.26.12,2.07,2.07,0,0,1,1.16,1.35.66.66,0,0,1-.24.57.69.69,0,0,1-.36.1.85.85,0,0,0-.46.14,0,0,0,0,1,0,.05.11.11,0,0,0-.09.05.64.64,0,0,0-.58.43,1.92,1.92,0,0,1-1,.82s0,0,0,0,0,0-.05,0a.55.55,0,0,0-.48.44S187.8,19.84,187.8,19.87Z"/><path d="M211.8,25.73s0,.14-.05.31a.52.52,0,0,1-.19.36c-.1,0-.26.21-.48.53a2.78,2.78,0,0,0-.27.29l-.26.29a1.06,1.06,0,0,0-.34.62,1,1,0,0,1-.29.48l-.4.38-.46.44A19.25,19.25,0,0,0,207.67,31a27.89,27.89,0,0,1-2,2.16l-.38.39a5.46,5.46,0,0,1-1.78,1.2.13.13,0,0,1-.1,0,.14.14,0,0,0-.09,0,1.07,1.07,0,0,1-1.15.15,4.76,4.76,0,0,1-.63-.2,3.24,3.24,0,0,1-1.73-2.06,5.38,5.38,0,0,1-.19-.82,4.51,4.51,0,0,1,0-1.29c.07-.71.13-1.22.19-1.54,0-.13.12-.78.34-2v-.33a9.44,9.44,0,0,1,.19-1.63.85.85,0,0,0,0-.48,4.07,4.07,0,0,0-.91,1.15,6.78,6.78,0,0,1-1,1.29l-1,1.44c-.54.74-.85,1.14-.91,1.2a3.74,3.74,0,0,0-.72,1.16,7.82,7.82,0,0,1-1.3,1.87c-.12.16-.33.41-.62.77a8.93,8.93,0,0,0-.62.81c-.39.64-.69,1.12-.92,1.44-.57.71-1,1.23-1.34,1.59a1.87,1.87,0,0,1-1,.45,1.57,1.57,0,0,1-1.08-.12l-.25-.24a1,1,0,0,0-.38-.38,1.37,1.37,0,0,1-.62-1.15,3.94,3.94,0,0,1,.09-1.73c.45-2.31.69-3.49.72-3.55a4.11,4.11,0,0,1,.24-.8,4.57,4.57,0,0,0,.24-.74l2.59-8.3a.66.66,0,0,0,.39-.24c.19-.07.32-.05.38,0s.06,0,.17,0l.22,0c.19,0,.31,0,.36,0s0,.17,0,.36.1.24.29.24a.45.45,0,0,1,.38.29,3,3,0,0,0,.72.91.85.85,0,0,1,.44,1c0,.22-.08.53-.12.91s-.1.74-.15,1.06-.1.62-.17.91v.14a2.15,2.15,0,0,0,.63-.76,18.32,18.32,0,0,1,2.49-3.08,5,5,0,0,0,.72-.81,7.47,7.47,0,0,1,.92-.77,2.3,2.3,0,0,1,1.44-.43l1.15-.15a2.31,2.31,0,0,1,1.53.24,3.84,3.84,0,0,1,1.2,1,2.9,2.9,0,0,1,.2.58,12.76,12.76,0,0,1-.34,3.7c-.26,1.15-.45,2.24-.58,3.26,0,.22-.08.53-.16.91s-.14.64-.17.77a.86.86,0,0,1,0,.17c0,.08,0,.19-.07.33a2,2,0,0,0-.05.37,2.43,2.43,0,0,0,.34-.1,5.46,5.46,0,0,0,.91-.48c.23-.16.55-.42,1-.77s.76-.61,1-.77A8.29,8.29,0,0,0,208,28.4c.51-.53.86-.88,1-1a8.06,8.06,0,0,1,.82-.67,8.91,8.91,0,0,0,.81-.67l.29-.29a.53.53,0,0,1,.87-.05Z"/><path d="M223.36,29v1.2c0,.07-.09.56-.28,1.49-.07.7-.1,1.14-.1,1.3a5.93,5.93,0,0,1-.29,1.72c-.35,1.29-.65,2.52-.91,3.7l-.15.51c-.06.24-.11.42-.14.55-.29,1-.46,1.64-.53,2a1.63,1.63,0,0,1-.09.43c-.07.22-.16.55-.29,1s-.23.73-.29.89l-.12.53q-.07.33-.12.48H220l-.14.43c-.07.16-.25.71-.55,1.66s-.56,1.65-.75,2.13c-.13.29-.3.75-.52,1.37l-.53,1.42c-.1.28-.39.94-.87,2a11.23,11.23,0,0,0-.45,1.08l-.31.8a3.67,3.67,0,0,0-.25.48c-.09.22-.24.56-.45,1s-.36.81-.46,1a2.22,2.22,0,0,1-.19.41l-.19.36c-.07.16-.16.37-.29.62l-.24.48-.26.39-.27.38c-.29.45-.61.91-1,1.39A8.44,8.44,0,0,0,211,63.75a5,5,0,0,1-.36.53c-.18.22-.3.37-.36.43a.58.58,0,0,0-.12.14l-.15.22a1.12,1.12,0,0,1-.12.17c-.38.45-.69.78-.91,1l.1.09c-.52.42-1.19,1-2,1.59l-.72.57a7.4,7.4,0,0,1-1.1.67,4.64,4.64,0,0,1-.92.63,2.31,2.31,0,0,1-.86.24,11,11,0,0,1-1.39.33,1.37,1.37,0,0,0-.39,0,1.25,1.25,0,0,1-.38,0,.44.44,0,0,0-.24.14.32.32,0,0,0,.14-.14,3.91,3.91,0,0,1-2.11-.58,11.53,11.53,0,0,1-1.44-1.15.86.86,0,0,0-.29-.24l-.14-.29a6.78,6.78,0,0,0-.53-.57,9.91,9.91,0,0,1-1-1.78,1.44,1.44,0,0,1-.09-.29.82.82,0,0,1-.05-.24q-.28-1.1-.63-2.16a10.68,10.68,0,0,1-.19-3.6,23.4,23.4,0,0,1,.58-3.41,26.13,26.13,0,0,1,1.39-3.69c.16-.29.41-.79.74-1.51s.61-1.28.8-1.66q.81-1.44,1-1.68t.6-1l.69-1.1,1.11-1.25a2.14,2.14,0,0,1-.41.65,3.26,3.26,0,0,0-.41.55,2.71,2.71,0,0,1-.38.62,3.63,3.63,0,0,0-.39.63.46.46,0,0,0,.34-.15,1.83,1.83,0,0,0,.24-.31.67.67,0,0,1,.24-.26.77.77,0,0,1-.1.24.4.4,0,0,0,0,.33c.32-.35.43-.65.33-.91,0-.06,0-.14.1-.24a4.53,4.53,0,0,0,.48-.82c.09-.12.24-.29.43-.5a3.77,3.77,0,0,0,.38-.46,2.2,2.2,0,0,1-.28.58,2,2,0,0,0-.29.62c.06-.06.19-.2.38-.43a1.92,1.92,0,0,1,.58-.48,2.11,2.11,0,0,1-.17.27,2.16,2.16,0,0,0-.17.26s0,0,.07,0l.12,0a5.3,5.3,0,0,1-.31.55,4.39,4.39,0,0,1-.36.55,2.44,2.44,0,0,1-.21.34l-.27.38a2.83,2.83,0,0,1-.43.77c-.1,0-.14.11-.14.24v.15s.08,0,.14,0a.58.58,0,0,1,.34-.29.13.13,0,0,1,0,.1v.14s.07,0,.1-.12.08-.12.14-.12a.41.41,0,0,1,.15.38q.09,0,.09-.24c0-.16.1-.22.29-.19a0,0,0,0,1,0,0,.15.15,0,0,1,0,.17c-.05,0-.08.09-.08.12s0,0,.1,0,.13,0,.1.09a.13.13,0,0,0,.09.19q.15,0,0,.15a.25.25,0,0,1-.07.14.27.27,0,0,0-.07.15c-.19.25-.26.46-.19.62a4.28,4.28,0,0,0,.47-.65,4.67,4.67,0,0,1,.44-.6c.06,0,.05.1-.05.19a2.17,2.17,0,0,0-.39,1,1.85,1.85,0,0,1-.28.68c0,.09-.1.11-.29,0a.72.72,0,0,0-.14.34.87.87,0,0,1-.1.29c-.23.51-.59,1.21-1.1,2.11a9.26,9.26,0,0,0-1.06,2.4,6.35,6.35,0,0,1-.19.67c-.1.29-.16.5-.19.63a6.47,6.47,0,0,1-.12.67c-.08.38-.14.67-.17.86-.07.35-.13.87-.19,1.54s-.1,1-.1,1.15,0,.24,0,.43,0,.36,0,.48v2c0,.1.08.59.24,1.49a.69.69,0,0,0,.19.48l.29.48a3.45,3.45,0,0,0,.39.53c.06.12.08.22,0,.28a1.16,1.16,0,0,0,.05.22,1.14,1.14,0,0,1,0,.26.63.63,0,0,0,.14.44l.29.12a1.41,1.41,0,0,1,.29.12,2.65,2.65,0,0,0,1.73-.1l1.1-.43.34-.24.91-.67a12,12,0,0,0,2.21-2.07l.24-.24a4.18,4.18,0,0,0,.38-.57l.24-.32.29-.36c.16-.19.31-.39.46-.6a6.51,6.51,0,0,0,.45-.79,4.43,4.43,0,0,1,.39-.67,24.58,24.58,0,0,0,1.53-3.26c.1-.26.27-.65.53-1.18s.45-1,.58-1.27.4-1,.72-1.71.56-1.3.72-1.65c.6-1.48,1.18-3,1.72-4.71l.39-1a10,10,0,0,0,.38-1.2c.07-.23.15-.54.27-.94a4.44,4.44,0,0,0,.16-.7c.16-.51.47-1.58.92-3.21q.38-1.44.48-2.16a50.28,50.28,0,0,0,.81-5,5.7,5.7,0,0,1,.17-.82,4.81,4.81,0,0,0,.17-1.06V30a25,25,0,0,1,.19-2.59v-.19a4.56,4.56,0,0,0-.58.53,1.68,1.68,0,0,0-.33.33c-.13.16-.22.29-.29.39a.38.38,0,0,0-.14.29,1.06,1.06,0,0,1-.39.67,22.36,22.36,0,0,0-1.87,2.06c-.1.1-.27.3-.53.6a7.87,7.87,0,0,0-.57.75l-.34.33a.63.63,0,0,1-.12.1l-.14.09-.15.12a.3.3,0,0,0-.09.15.43.43,0,0,0,0,.17,1.33,1.33,0,0,0-.45.43,1.35,1.35,0,0,1-.51.43,1.92,1.92,0,0,1-.38.1,6.09,6.09,0,0,1-1,0,.94.94,0,0,1-.34,0,1.72,1.72,0,0,0-.72-.39,1.57,1.57,0,0,1-.48-.33,3.54,3.54,0,0,0-.48-.34,1.55,1.55,0,0,1-.48-.53.47.47,0,0,1-.09-.19l-.1-.1a1.86,1.86,0,0,1-.48-2c.16-.52.26-.82.29-.92a4.64,4.64,0,0,0,.1-1.05,4.23,4.23,0,0,1,.38-1.44,27.89,27.89,0,0,1,2.4-4.71A17.88,17.88,0,0,1,213.52,20a14.7,14.7,0,0,1,1.63-1.58,4.3,4.3,0,0,1,1.44-.77,1.11,1.11,0,0,1,1.35.43.71.71,0,0,0,.62.19,1.72,1.72,0,0,1,1.54.63,2,2,0,0,1,.29.52c0,.2,0,.31.14.34s.1.06.1.19v.91a1.3,1.3,0,0,1-.48.84,1.37,1.37,0,0,1-.87.36,1.06,1.06,0,0,1-.62-.33,1.56,1.56,0,0,1-.62-1.11c-.13,0-.26.1-.39.29a11.5,11.5,0,0,0-.86,1.83,5.14,5.14,0,0,0-.36.74c-.15.34-.28.63-.41.89a6.63,6.63,0,0,1-.39.67,5.52,5.52,0,0,0-.21.55c-.08.24-.14.39-.17.46s-.2.39-.41.79a9.14,9.14,0,0,1-.55.94,5.74,5.74,0,0,0-.77,1.77c.13-.16.45-.5,1-1s.9-.95,1.15-1.27A12.39,12.39,0,0,1,217,25.73c.13-.13.32-.34.57-.62s.45-.5.58-.63c.22-.32.45-.46.67-.43s.29-.05.48-.24a2,2,0,0,1,.43-.24c.17-.06.28-.06.34,0a2.68,2.68,0,0,0,.38.19,1.23,1.23,0,0,1,.34.19,1.17,1.17,0,0,0,.63.48,4.2,4.2,0,0,1,1.48,1.44,3.38,3.38,0,0,1,.48,2.6Zm-22,19.2c0,.07,0,.1.1.1s0-.05,0-.05l.05-.09s0-.05-.09-.05S201.33,48.18,201.33,48.24Zm0-2.73s0,.08,0,.14l.05,0v-.19A.16.16,0,0,1,201.38,45.51Zm.48,3.6,0,0s0,0,0-.15,0,0,0,0S201.86,49,201.86,49.11Zm.6-3.6a4.12,4.12,0,0,1-.46.57.79.79,0,0,0,.17-.38,1.16,1.16,0,0,1,.22-.46.62.62,0,0,1,.38-.21C202.74,45.09,202.63,45.25,202.46,45.51ZM203,43a11,11,0,0,1,1-1.1c.16-.16.27-.16.34,0s0,0,.09,0a.42.42,0,0,0-.24.33.64.64,0,0,1-.33.48l-.1.2a.47.47,0,0,1-.24.24l-.14,0c-.1.07-.16.07-.2,0a.06.06,0,0,0-.09,0l-.12.12c-.05,0-.09.08-.12.08A.93.93,0,0,1,203,43Zm-.14,3.27a.57.57,0,0,1,.28-.58A.72.72,0,0,1,202.87,46.23Zm3.26-6.58a.57.57,0,0,0,.34-.34,1.18,1.18,0,0,1,.57-.57,1.21,1.21,0,0,1,.58-.1l.19.15a.52.52,0,0,0,0,.43c0,.06,0,.19-.14.38s-.1.16,0,.2.07,0,.12,0a.2.2,0,0,0,.07-.15l.09-.14a.63.63,0,0,1,.2-.2.31.31,0,0,1,.12.22.4.4,0,0,0,.07.22s.07,0,.12-.1a.46.46,0,0,1,.17-.14v.17a.36.36,0,0,0,0,.19.38.38,0,0,0,.2.12l-.05.09c-.07,0-.1.07-.1.2s.05.19-.05.19-.25.08-.19.24,0,.11-.09,0l-.2,0a.28.28,0,0,1-.21,0,.23.23,0,0,1-.07-.2.21.21,0,0,0-.15,0,.73.73,0,0,1-.24.19c0,.16-.06.18-.19.05l-.1-.09s-.06,0-.09.07-.06.07-.07.07,0,0-.08,0,0-.13.1-.29,0-.14-.05-.33a2.36,2.36,0,0,0-.29.19c-.06.16-.24.27-.52.34,0-.1.06-.18.19-.24a.89.89,0,0,0,.24-.34c.06-.1.08-.16.05-.19-.1-.23-.13-.37-.1-.43a.7.7,0,0,0-.31.24l-.22.24A.28.28,0,0,1,206.13,39.65Z"/><path d="M87.43,81.79a.75.75,0,0,1-.29,0c-.06.09-.08.16,0,.19l.14.14c.06.07.1.11.1.15a6.71,6.71,0,0,0-.44.52,8.15,8.15,0,0,1-.62.72,7.26,7.26,0,0,0-1.1,1.25q-.24.28-.48.6l-.53.7-.43.57c-.23.23-.54.59-.94,1.08l-.89,1.13c-.13.16-.33.41-.62.75s-.51.6-.67.79c0,0-.07,0-.1.09l0,.1a7,7,0,0,1-1,1.1,2.24,2.24,0,0,0-.53.72,3.63,3.63,0,0,1-.52.63,9.28,9.28,0,0,0-1.11,1A5.2,5.2,0,0,1,75,95.38a3.17,3.17,0,0,1-2.5-.48,2.42,2.42,0,0,1-.48-.38l0,0h0a3.36,3.36,0,0,1-.39-.72,1.59,1.59,0,0,0-.05-.39,2,2,0,0,1,0-.33,15.46,15.46,0,0,0-.2-1.54l.2-.1v-.57c0-.16,0-.24,0-.24a.36.36,0,0,0-.34.09,21.44,21.44,0,0,0-1.49,2.26,2.61,2.61,0,0,1-.57.67.75.75,0,0,0-.34.39l-.19.28a1.46,1.46,0,0,0-.29.48l-.05,0a5.32,5.32,0,0,0-.64.51,3.7,3.7,0,0,1-.6.45.46.46,0,0,1-.68-.24c-.06-.19-.14-.21-.24,0a1,1,0,0,1-.67.47,1.47,1.47,0,0,1-1,0,1.55,1.55,0,0,1-.94-.6.76.76,0,0,0-.12-.19,2.39,2.39,0,0,0-.16-.22l-.15-.17a2.1,2.1,0,0,1-.53-.86.18.18,0,0,0-.19-.15c-.25-2.08.4-4.54,2-7.39a2.44,2.44,0,0,1,.36-.5c.18-.21.31-.36.41-.46.25-.32.61-.83,1-1.53a39.08,39.08,0,0,1,4-5.14c.41-.42,1-1,1.87-1.78A5,5,0,0,1,73,76.27c.16-.09.39,0,.67.15l.44.24a2.56,2.56,0,0,1,.48.33l.14.15a1.45,1.45,0,0,1,.19,1.77c-.06.1-.33.52-.81,1.25-.13.16-.35.44-.65.84a11.59,11.59,0,0,0-.7,1,5.06,5.06,0,0,1-.43.48A5,5,0,0,0,71,84c-.09.16-.51.79-1.24,1.88a35.14,35.14,0,0,0-2.26,3.74,8.84,8.84,0,0,0-1,2.26V92a2.65,2.65,0,0,0,.48-.53q2-2.64,4.32-5.85s.15-.2.36-.51a3.62,3.62,0,0,0,.41-.69,11.21,11.21,0,0,1,1.18-1.66c.56-.69.88-1.11,1-1.27a1.73,1.73,0,0,1,.27-.24l.21-.19a17.56,17.56,0,0,1,2-2.31.78.78,0,0,0,.12-.19.78.78,0,0,1,.12-.19l.12-.27a.67.67,0,0,0,.07-.21c.1-.19.19-.24.29-.15s0,.13-.1.29a.63.63,0,0,1-.14.24.74.74,0,0,0,.48-.62,1,1,0,0,0,.53.24.47.47,0,0,1,.43.24c0,.09.14.17.34.24s.24.06.24.19a1.2,1.2,0,0,0,.14.57,2.73,2.73,0,0,1-.19,1.3,4.6,4.6,0,0,0-.24.55l-.24.56A5.85,5.85,0,0,1,77.93,83a4.6,4.6,0,0,0-.36.68c-.08.19-.15.37-.22.55s-.11.31-.14.41A14.24,14.24,0,0,0,76.34,87a14.44,14.44,0,0,1-.53,1.58A12.55,12.55,0,0,0,75,91a3,3,0,0,0,0,1.78v.05a.51.51,0,0,0,.34.09,10.41,10.41,0,0,0,.72-.77c.29-.28.53-.41.72-.38-.13-.13-.11-.24,0-.34l.33-.14a1.34,1.34,0,0,0,.15-.29,1.49,1.49,0,0,1,.19-.38l.09-.1a.19.19,0,0,1,.1,0l0,.15c.16-.07.24-.16.24-.29l-.19.1a.7.7,0,0,1,.72-.48c0-.2.12-.37.38-.53l.38-.43c.71-.84,1.24-1.44,1.59-1.83l.72-.72a8.88,8.88,0,0,0,.86-1,.62.62,0,0,0,.19-.14,2.3,2.3,0,0,1,.27-.22l.29-.19a1,1,0,0,0,.24-.22,2.55,2.55,0,0,0,.21-.28.67.67,0,0,1,.77-.34c0-.16.1-.38.38-.67a7.86,7.86,0,0,1,.87-.77.67.67,0,0,1,.38-.24,1.22,1.22,0,0,0,.58-.58.91.91,0,0,1,.24-.24.81.81,0,0,0,.43-.24c.13-.16.34-.14.62,0-.06.19-.11.35-.14.48A.69.69,0,0,0,87.43,81.79Z"/><path d="M99.41,81.63a3.33,3.33,0,0,1,.36-.41,6.25,6.25,0,0,1,2-1.83.16.16,0,0,1,.1,0,4.71,4.71,0,0,0,.82-.27l.76-.31a1.25,1.25,0,0,1,.58,0,5.16,5.16,0,0,1,1.06.33,5.39,5.39,0,0,0,.52.39,7,7,0,0,1,.72.52c.07.07.16.18.29.34l.29.72a.85.85,0,0,1,.14.53,1,1,0,0,0,0,.26,2.38,2.38,0,0,0,.07.29,1.12,1.12,0,0,1,0,.27v1.34a17.55,17.55,0,0,1-.24,1.78.43.43,0,0,1,0,.24,7.19,7.19,0,0,0-.24,1.34,8.85,8.85,0,0,1-.82,2.78c-.54,1.16-.81,1.75-.81,1.78a.28.28,0,0,1,0,.12.4.4,0,0,1-.1.12.13.13,0,0,0,0,.1.72.72,0,0,0-.17.33,1.81,1.81,0,0,1-.17.39,15.92,15.92,0,0,1-1.39,2.11l-.29.14s-.11.07-.24.19a3.83,3.83,0,0,1-.77.58c-.06.06-.11.1-.14.1a1.72,1.72,0,0,0-.39,0,1.75,1.75,0,0,0-.43.22l-.33.22a.34.34,0,0,0-.1-.27.72.72,0,0,0-.29-.12l-.24,0a4.14,4.14,0,0,0-.57-.19,2,2,0,0,1-.68-.38A2.2,2.2,0,0,0,98,94.9a1.47,1.47,0,0,1-.53-1,2.1,2.1,0,0,1,.19-1.39.63.63,0,0,1,.67-.39.14.14,0,0,0,.1,0,.25.25,0,0,1,.12.17c0,.08,0,.12.07.12a.17.17,0,0,1,.19.19l.15.43a1.42,1.42,0,0,0,.33.39,4.5,4.5,0,0,1,.77.48,9.92,9.92,0,0,0,.91-1.78l.82-1.82a20,20,0,0,0,.86-3.41c.2-1,.32-1.86.39-2.5a9.44,9.44,0,0,0,.19-1.63V82a1,1,0,0,0-.34-.72c-.19-.19-.36-.17-.52,0s-.32.35-.58.67c-.38.55-.8,1.11-1.25,1.68a9.59,9.59,0,0,0-.72,1c-.29.46-.46.76-.53.88s-.32.49-.57.89l-.58.89a3.28,3.28,0,0,0-.36.53c-.14.25-.25.43-.31.53a4.48,4.48,0,0,0-.53.91,1.66,1.66,0,0,0-.09.38c0,.1-.08.23-.15.41s-.11.31-.14.41a3.43,3.43,0,0,0-.22.6,2.85,2.85,0,0,1-.17.5l-.43,1.59c-.09.41-.27,1-.53,1.87l-.57,1.58A12.56,12.56,0,0,0,94,98.6a7.72,7.72,0,0,1-.53,1.39,5.07,5.07,0,0,1-.34.77l-.24.43a2.51,2.51,0,0,0-.24.57l-1.29,3.46a1.79,1.79,0,0,1-.34.72.3.3,0,0,0-.1.19l-.57,1.73a1.27,1.27,0,0,1-.15.34,1.19,1.19,0,0,0-.38.72,1.2,1.2,0,0,1-.43.57s0,0,0,.1-.16.11-.29,0l-.38-.53c-.07-.26-.19-.4-.39-.43a.15.15,0,0,0-.09.14.2.2,0,0,1-.05.14l0,0a4,4,0,0,1-.19-1,1.07,1.07,0,0,0-.19-.67,3.41,3.41,0,0,1-.48-1.44c0-.13,0-.2.14-.2a.14.14,0,0,0,0-.09.35.35,0,0,1,.1-.53c.09,0,.11-.06,0-.1s-.09-.16,0-.28a1.07,1.07,0,0,0,0-.44,9.63,9.63,0,0,1,.48-1.48l2-6.1c.09-.39.27-1,.53-1.73s.43-1.34.52-1.73c.2-.67.48-1.71.87-3.12.19-.7.54-1.73,1.05-3.07,0-.13.09-.32.17-.58s.14-.44.17-.57a14.74,14.74,0,0,1,.58-2c.09-.22.43-1.22,1-3l.26-.79c.11-.33.18-.57.22-.69a2.77,2.77,0,0,0,.19-1.16,1.45,1.45,0,0,1,0-.48,1.26,1.26,0,0,1,.24-.5c.12-.18.25-.25.38-.22a1.78,1.78,0,0,0,.36,0,.93.93,0,0,1,.41,0,3.33,3.33,0,0,1,.86.34,1,1,0,0,0,.34.19,3.1,3.1,0,0,1,.62.58,2.39,2.39,0,0,1,.58,2.3,9.93,9.93,0,0,0-.39,1.54V82C99.16,81.94,99.26,81.8,99.41,81.63Z"/><path d="M124.49,81.22a9.62,9.62,0,0,1-.2,1.53,2.74,2.74,0,0,0-.14.58,2.27,2.27,0,0,1-.1.48,4,4,0,0,1-.21.58q-.16.38-.27.57c0,.07-.07.17-.12.31a1.35,1.35,0,0,1-.12.32,1.66,1.66,0,0,1-.09.38c0,.16-.11.44-.22.84s-.2.71-.26.94c0,0-.21.6-.63,1.72a6.43,6.43,0,0,1-.19.68,1.63,1.63,0,0,1-.09.43,1.33,1.33,0,0,0-.1.43c0,.1-.06.22-.1.38a3.91,3.91,0,0,1-.09.39c-.1,1-.15,1.49-.15,1.58v.15a.8.8,0,0,0,0,.16,2,2,0,0,1,0,.22,3.53,3.53,0,0,1,.36-.26,2,2,0,0,0,.36-.27c.39-.35.64-.29.77.19a.75.75,0,0,1-.14.68c-.13.16-.36.4-.68.72,0,0,0,0-.09,0l-.55.17-.41.12h-.15a4.08,4.08,0,0,1-1.77-.86,2.79,2.79,0,0,1-.63-1.06,3.75,3.75,0,0,1-.33-.91v-.1c0-.12,0-.44,0-.93a7.61,7.61,0,0,1,0-1.18c0-.06.1-.75.29-2.06l.12-.94a7.56,7.56,0,0,0,.07-.89c0-.16.1-.52.19-1.1.16-.8.34-1.55.53-2.26.1-.28.38-1,.86-2.11,0-.16,0-.24-.14-.24a.52.52,0,0,0-.43.19.68.68,0,0,1-.63.24,1.51,1.51,0,0,0-.33.15,2.16,2.16,0,0,0-.17.19,1.36,1.36,0,0,1-.24.24l-.22.19a2.47,2.47,0,0,0-.86,1.11,1.81,1.81,0,0,1-.38.62c-.1.13-.26.3-.48.53l-.27.38a4,4,0,0,1-.26.34l-.67,1a5.58,5.58,0,0,0-.39.72c-.38.64-.67,1.13-.86,1.48a1.22,1.22,0,0,0-.22.41,3,3,0,0,1-.17.41,1,1,0,0,0-.14.24,1,1,0,0,1-.14.24l-.24.6c-.1.24-.16.39-.2.46s0,.25-.14.67a2.91,2.91,0,0,1-.58,1l-.14.29a4.82,4.82,0,0,1-.62.91.92.92,0,0,1-.68.29H110l-.58-.29-.48-.19a.46.46,0,0,1-.43-.48,1.06,1.06,0,0,0,0-.19.16.16,0,0,0,0-.14,2.31,2.31,0,0,1-.38-1.2V89.57c.1-.74.16-1.22.19-1.44s.08-.77.15-1.34a7.26,7.26,0,0,1,.19-.82c0-.22.1-.6.21-1.13s.2-.93.27-1.22l.43-2a4.66,4.66,0,0,0,.1-.67h-.15a2.44,2.44,0,0,0,.19-.58c.07-.16,0-.25-.14-.29a12,12,0,0,1-1.15-.52.51.51,0,0,1-.29-.48.47.47,0,0,1,.43-.29l.87-.14a3.64,3.64,0,0,0,.81-.24l0,0a4.94,4.94,0,0,1,.19-.63q.35-1.44.48-1.92c0-.12.07-.27.12-.43s.11-.34.17-.55.11-.36.14-.46.15-.45.24-.77a4.19,4.19,0,0,1,.2-.57c.32-.9.57-1.57.76-2,.29-.7.61-1.44,1-2.21l.53-1.2c.23-.44.63-1.12,1.2-2,.26-.39.64-.93,1.15-1.63.07-.1.31-.4.72-.92s.9-1,1.16-1.24c.51-.42.89-.72,1.15-.92a1.14,1.14,0,0,1,.33-.19,1,1,0,0,0,.34-.19,1.31,1.31,0,0,1,.67-.19,1.47,1.47,0,0,1,.91.33,7,7,0,0,1,1.25,1.3,2.16,2.16,0,0,1,.34.72,2.34,2.34,0,0,1,.29,1.2v.86a4.58,4.58,0,0,1-.1.72c0,.1,0,.21,0,.34a2,2,0,0,1,0,.29c0,.16,0,.24-.1.24s0,0,0,.09a2.2,2.2,0,0,0,0,.53l.28.15c-.06.19,0,.32.05.38l-.05.1a2,2,0,0,1-.21.4,4.89,4.89,0,0,1-.27.41c0,.07-.07.18-.12.34a1.16,1.16,0,0,1-.12.33,1.7,1.7,0,0,0-.09.29,1.34,1.34,0,0,1-.1.29,4.82,4.82,0,0,1-.29.53,3.91,3.91,0,0,1-.43.48,3.37,3.37,0,0,1-.38.43c-.45.64-.8,1.12-1.06,1.44-.38.48-.85,1.07-1.39,1.78l-.43.43L117.33,76c-.32.29-.62.6-.91.91a7.06,7.06,0,0,1-.62.58.56.56,0,0,0-.22.15,1.77,1.77,0,0,1-.26.19.77.77,0,0,0-.53.62.5.5,0,0,1-.05.15l-.14.43-.12.38-.12.39a.31.31,0,0,0-.07.19,1.12,1.12,0,0,0,0,.19.14.14,0,0,0-.05.1.08.08,0,0,1,0,.07s0,0,0,.07a2.9,2.9,0,0,1-.2.58.12.12,0,0,1,0,.09c-.1.42-.24,1-.44,1.78v.43a3.38,3.38,0,0,1,0,.46,2.39,2.39,0,0,0,0,.45l-.15.87s0,0,0,0,0,0,0,0,0-.08.1-.14a22.1,22.1,0,0,1,1.34-2c.58-.8.94-1.29,1.1-1.48a8.68,8.68,0,0,1,2-1.68c.16-.1.41-.24.75-.41l.6-.32a2.88,2.88,0,0,0,.52-.47,1.66,1.66,0,0,1,.92-.44,3.86,3.86,0,0,1,.52-.09,2.87,2.87,0,0,1,1.06.43c0,.06.13.1.29.1a2.09,2.09,0,0,1,1,.57,5.06,5.06,0,0,1,.43.48A3.33,3.33,0,0,1,124.49,81.22Zm-8.09-7.61a3.65,3.65,0,0,1-.12.36s0,0,0,0l.14-.15,1.15-1.2a10.39,10.39,0,0,0,1.44-1.77c0-.07.35-.48,1-1.25a3,3,0,0,0,.15-.34c.06-.16.16-.4.31-.72s.25-.56.31-.72a5,5,0,0,1,.24-.53c.13-.25.22-.46.29-.62a6.09,6.09,0,0,0,.19-1l.14-.72a5.07,5.07,0,0,0-.19-1.1c0-.2-.09-.24-.29-.15a1.58,1.58,0,0,0-.33.39,4.42,4.42,0,0,0-.29.52,2.39,2.39,0,0,0-.19.53c-.1.16-.23.39-.41.7s-.31.54-.41.69-.37.56-.62,1a11,11,0,0,0-.53,1,5.35,5.35,0,0,0-.38.82,1.25,1.25,0,0,0-.12.31c0,.14-.1.27-.15.38a1.62,1.62,0,0,1-.17.32,6.78,6.78,0,0,0-.38.86,9.31,9.31,0,0,1-.48,1.2,2.41,2.41,0,0,1-.19.72Z"/><path d="M145.27,80.55l-.24.12-.24.12-.14.12a.49.49,0,0,0-.15.12,1.11,1.11,0,0,1-.26.4,3.19,3.19,0,0,1-.51.41,1.66,1.66,0,0,1-.38.24,10.76,10.76,0,0,1-1.73,1.06c-.8.41-1.25.65-1.34.72a22.6,22.6,0,0,0-2.93,1.92,6.4,6.4,0,0,1-1.63,1.1,1.32,1.32,0,0,0-.29.19,30.07,30.07,0,0,1-.86,3.51q-.15.57-.6,1.77c-.31.8-.52,1.41-.65,1.83s-.19.45-.39.48a.17.17,0,0,0-.19.19A2,2,0,0,1,132,96a4,4,0,0,1-1.77.87,5.21,5.21,0,0,1-1.2-.1,2.55,2.55,0,0,1-.58-.17,6.63,6.63,0,0,1-.62-.29l-.53-.26a1.77,1.77,0,0,0-.34-.19,2.9,2.9,0,0,1-1.73-1.78c0-.06-.08-.17-.16-.31a1.86,1.86,0,0,1-.17-.36,5,5,0,0,1-.58-3v-.19c.16-.7.35-1.43.55-2.18s.41-1.4.6-2,.38-1,.56-1.48.31-.79.4-1l.15-.39V83a.73.73,0,0,0,.19-.24,12.47,12.47,0,0,1,2.16-3.31,5.33,5.33,0,0,1,2.74-1.68,1,1,0,0,1,.72.09,5.77,5.77,0,0,0,.67.34,2.93,2.93,0,0,1,.62.34,1.61,1.61,0,0,1,.63.57l.55,1a10.26,10.26,0,0,1,.5,1,5,5,0,0,1,.44,1.54v1.77c.25-.12.59-.32,1-.57l.77-.48c.64-.32,1.11-.56,1.39-.72s1.81-.83,4.95-2.21a4.78,4.78,0,0,0,1.2-.53l.43-.14A.61.61,0,0,1,145.27,80.55ZM132.14,83a3,3,0,0,0,0-.41,1.16,1.16,0,0,0,0-.34.16.16,0,0,0-.19,0,2.8,2.8,0,0,0-1.25,1.49c-.58,1.18-1,2-1.11,2.3,0,.1-.12.32-.26.68a5.36,5.36,0,0,0-.27.81,5.28,5.28,0,0,1-.21.79,3.94,3.94,0,0,1-.22.6,4.43,4.43,0,0,0-.19.72,4.43,4.43,0,0,1-.19.72,1.79,1.79,0,0,0,0,.48,7.25,7.25,0,0,0,.29,1.64c.13.41.34.48.62.19a11.07,11.07,0,0,0,1.06-1.25,3.13,3.13,0,0,0,.48-1,2.12,2.12,0,0,1,.19-.72.72.72,0,0,0,.1-.34,3.9,3.9,0,0,1,.33-1.68,15.26,15.26,0,0,0,.63-2.25,13.91,13.91,0,0,0,.24-2.21C132.12,83.27,132.13,83.16,132.14,83Z"/><path d="M152.09,73.3c1.34,0,2.36,0,3.07,0,0,.06,0,.11,0,.14a.16.16,0,0,0,0,.1s0,0,0,0a4.7,4.7,0,0,1,1.15.08c.51.08.82.12.91.12l1.11.14a7.94,7.94,0,0,0,1.2,0v.09h-.82c-1.38,0-2.4,0-3.07.1h0a3.55,3.55,0,0,0-1.3.15,4.38,4.38,0,0,1-1,.09.63.63,0,0,0-.22,0l-.17,0,.53.14c0,.06-.13.1-.29.1a1.62,1.62,0,0,1-.45,0,1.67,1.67,0,0,0-.46,0H152s0,0,0,.15l-.19.09-.39,0-.38,0a16.25,16.25,0,0,0-2.45.43.49.49,0,0,0-.29.34c-.22.58-.56,1.41-1,2.5q-.9,2.25-2.06,5.37c-.07.23-.19.61-.39,1.15l-.43,1.25c-.41,1.73-.64,2.69-.67,2.88l-.14,1.3c0,.25-.07.62-.1,1.1s-.06.83-.1,1.06V94a.56.56,0,0,0,0,.15,1.15,1.15,0,0,1,0,.14,3,3,0,0,0,.53,2,.65.65,0,0,0,.34.24.6.6,0,0,0,.24,0,5.1,5.1,0,0,1,.48-.29,4.18,4.18,0,0,1,1-.38.23.23,0,0,1,.29.14,1.43,1.43,0,0,1-.09.58,3.58,3.58,0,0,1-1.59,1.25,7.93,7.93,0,0,1-.91.24,2.74,2.74,0,0,1-2.45-.67,9.77,9.77,0,0,1-.86-.92,11.31,11.31,0,0,1-.82-1.49,10.36,10.36,0,0,1-.57-3.31,18.45,18.45,0,0,1,.52-4.75c.26-1,.66-2.35,1.2-4,.13-.32.32-.81.56-1.47s.4-1.14.5-1.46A11.42,11.42,0,0,1,143,77.57a1.52,1.52,0,0,0,.24-.48,9.21,9.21,0,0,0-1.2.1q-2.4.33-2.88.33a4,4,0,0,1-1.68-.29,4.22,4.22,0,0,0-1.2-.33,3,3,0,0,1-2-1.3,3.1,3.1,0,0,1-.58-1.2,4.31,4.31,0,0,1,.24-.72c0-.06.08-.06.14,0s.07,0,.1,0a.41.41,0,0,1,.43-.05l.6.27c.34.14.6.25.79.31a6.64,6.64,0,0,0,1,.19l1.44,0a16.3,16.3,0,0,0,1.73,0,9.44,9.44,0,0,0,1.87-.29,8.93,8.93,0,0,1,2.16-.19h.24a.56.56,0,0,0,.53-.24c.07-.1.11-.18.15-.24,1.12-1.67,1.8-2.66,2.06-3s.56-.8.72-1.05a3.12,3.12,0,0,1,1.2-1.16.25.25,0,0,1,.15-.09.51.51,0,0,1,.72-.1,2.3,2.3,0,0,1,1,.91.7.7,0,0,1,.1.29,5.51,5.51,0,0,1-.29.82q-.09,0-.09.24a1.11,1.11,0,0,1-.2,1c-.12.19-.28.48-.48.86s-.33.66-.43.82-.13.27-.09.34Z"/><path d="M166.58,80.55l-.24.12-.24.12-.14.12a.65.65,0,0,0-.15.12,1.11,1.11,0,0,1-.26.4,3.19,3.19,0,0,1-.51.41,1.66,1.66,0,0,1-.38.24,10.76,10.76,0,0,1-1.73,1.06c-.8.41-1.24.65-1.34.72a23.32,23.32,0,0,0-2.93,1.92,6.4,6.4,0,0,1-1.63,1.1,1.32,1.32,0,0,0-.29.19,30.07,30.07,0,0,1-.86,3.51q-.15.57-.6,1.77c-.31.8-.52,1.41-.65,1.83s-.19.45-.39.48a.17.17,0,0,0-.19.19,2,2,0,0,1-.77,1.15,4,4,0,0,1-1.77.87,5.21,5.21,0,0,1-1.2-.1,2.55,2.55,0,0,1-.58-.17,6.63,6.63,0,0,1-.62-.29l-.53-.26a1.47,1.47,0,0,0-.34-.19,2.86,2.86,0,0,1-1.72-1.78c0-.06-.09-.17-.17-.31a1.86,1.86,0,0,1-.17-.36,5,5,0,0,1-.58-3v-.19c.16-.7.35-1.43.56-2.18s.4-1.4.6-2,.37-1,.55-1.48.31-.79.41-1l.14-.39V83a.73.73,0,0,0,.19-.24,12.47,12.47,0,0,1,2.16-3.31A5.33,5.33,0,0,1,153,77.81a1,1,0,0,1,.72.09,5.77,5.77,0,0,0,.67.34,2.93,2.93,0,0,1,.62.34,1.61,1.61,0,0,1,.63.57l.55,1a10.26,10.26,0,0,1,.5,1,5,5,0,0,1,.44,1.54v1.77c.25-.12.59-.32,1-.57l.77-.48c.64-.32,1.11-.56,1.4-.72s1.8-.83,4.94-2.21a4.78,4.78,0,0,0,1.2-.53l.43-.14A.61.61,0,0,1,166.58,80.55ZM153.45,83a3,3,0,0,0,0-.41,1.16,1.16,0,0,0,0-.34.16.16,0,0,0-.19,0A2.8,2.8,0,0,0,152,83.81c-.58,1.18-1,2-1.11,2.3,0,.1-.12.32-.26.68a4.22,4.22,0,0,0-.26.81,7.36,7.36,0,0,1-.22.79,3.94,3.94,0,0,1-.22.6,5.79,5.79,0,0,0-.19.72,4.43,4.43,0,0,1-.19.72,1.79,1.79,0,0,0,0,.48,7.25,7.25,0,0,0,.29,1.64c.13.41.34.48.62.19a11.07,11.07,0,0,0,1.06-1.25,3.13,3.13,0,0,0,.48-1,2.12,2.12,0,0,1,.19-.72.72.72,0,0,0,.1-.34,3.9,3.9,0,0,1,.33-1.68,15.26,15.26,0,0,0,.63-2.25,13.91,13.91,0,0,0,.24-2.21C153.43,83.27,153.44,83.16,153.45,83Z"/></svg>