<svg id="Layer_1" data-name="Layer 1" xmlns="http://www.w3.org/2000/svg" viewBox="0 0 74.79 74.79"><defs><style>.cls-1{fill:#252944;}</style></defs><title>2</title><path class="cls-1" d="M45.52,28.39v.34h1.25v-.34a8.41,8.41,0,0,0-.05-1l0-.36c0-.19-.05-.37-.08-.52l-.08-.34c-.06-.25-.1-.42-.15-.58l-.1-.3c-.07-.2-.13-.39-.21-.59l-.12-.26L45.7,24l-.17-.31c-.11-.19-.22-.37-.32-.52l-.15-.23c-.14-.2-.28-.39-.46-.61l-.08-.1a9.59,9.59,0,0,0-7-3.42V20A8.38,8.38,0,0,1,45.52,28.39Z" transform="translate(-0.11 -1.01)"/><polygon class="cls-1" points="36.5 55.35 37.56 55.35 38.81 54.1 37.75 54.1 36.5 55.35"/><path class="cls-1" d="M43.52,28.39v.34h1.25v-.34a7.62,7.62,0,0,0-7.2-7.6V22A6.37,6.37,0,0,1,43.52,28.39Z" transform="translate(-0.11 -1.01)"/><path class="cls-1" d="M45.1,21.74l.08.1a7.91,7.91,0,0,1,.49.65l.17.25.34.56.18.33c.07.13.16.33.25.54l.12.26c.1.23.17.44.24.64l.11.32c.06.19.1.38.14.57l.11.42c0,.18.06.38.08.58l.05.37a8,8,0,0,1,.06,1.06v.34h1.25v-.34c0-.37,0-.76-.05-1.15l0-.33c0-.29-.07-.54-.12-.79l-.09-.37c-.06-.25-.12-.49-.19-.72l-.12-.35c-.08-.24-.15-.47-.25-.7l-.15-.33c-.1-.22-.2-.45-.3-.64l-.18-.32c-.13-.23-.27-.46-.4-.66l-.17-.25a7.75,7.75,0,0,0-.55-.73l-.1-.12a11.56,11.56,0,0,0-8.48-4.14V18A10.34,10.34,0,0,1,45.1,21.74Z" transform="translate(-0.11 -1.01)"/><path class="cls-1" d="M46.63,20.45l.1.13c.23.28.41.52.59.77l.18.27c.14.22.28.46.42.7l.19.34c.11.2.22.44.33.69l.15.33c.11.26.19.51.27.75l.13.37a7.67,7.67,0,0,1,.19.76l.1.39c.06.29.09.56.13.83l.05.37c0,.43.06.85.06,1.24v.34h1.25v-.34q0-.66-.06-1.35l0-.15,0-.24c0-.31-.08-.62-.14-.92a1.46,1.46,0,0,0,0-.2l-.05-.23c-.07-.29-.14-.57-.22-.85a2.09,2.09,0,0,0-.08-.23L50.05,24c-.1-.27-.19-.54-.3-.81,0-.08-.07-.15-.1-.23l-.07-.15c-.12-.27-.24-.54-.38-.8L49,21.7c-.15-.26-.31-.53-.48-.79l-.19-.27c-.19-.27-.39-.54-.64-.85l-.11-.15a13.59,13.59,0,0,0-10-4.85V16A12.34,12.34,0,0,1,46.63,20.45Z" transform="translate(-0.11 -1.01)"/><path class="cls-1" d="M37.51,1A37.4,37.4,0,1,0,74.9,38.4,37.4,37.4,0,0,0,37.51,1Zm.06,12.06v1a14.3,14.3,0,0,1,10.59,5.13l.12.14c.27.33.48.61.68.9l.19.29q.27.41.51.84l.2.35c.15.28.28.56.4.84l.06.13a2.93,2.93,0,0,1,.12.28c.12.28.22.56.32.85l.05.16.1.29a8.7,8.7,0,0,1,.22.88l0,.19a2.32,2.32,0,0,1,.06.27c.07.32.11.65.15,1l0,.2a1,1,0,0,1,0,.22,13.77,13.77,0,0,1,.07,1.42v.34h.75a15,15,0,0,1-13,14.82V33.29a5,5,0,0,0,3-4.56h.5v-.34a5.61,5.61,0,0,0-5.2-5.6v.28a5,5,0,0,0-2.75.83L27.7,16.79A14.94,14.94,0,0,1,37.57,13.07ZM33,47.42a.49.49,0,0,1-.31.46,4.81,4.81,0,0,0-.09.85H31l-6.78-6.79c.19-.38.41-.76.64-1.13L32,48a.37.37,0,0,0,.53,0s0,0,0-.05h-.08a.5.5,0,0,1-.33-.87l-6.88-6.88c.24-.35.49-.69.76-1l7.18,7.18a6.26,6.26,0,0,0-.34.79A.49.49,0,0,1,33,47.42Zm-.5,2.5a.5.5,0,0,1-.5-.5.5.5,0,0,1,.5-.5.51.51,0,0,1,.5.5A.5.5,0,0,1,32.47,49.92Zm.5,1.5a.5.5,0,0,1-.5.5.5.5,0,0,1-.5-.5.5.5,0,0,1,.5-.5A.51.51,0,0,1,33,51.42Zm-2.5-1.5a.5.5,0,0,1-.5-.5.5.5,0,0,1,.5-.5.51.51,0,0,1,.5.5A.5.5,0,0,1,30.47,49.92Zm.5,1.5a.5.5,0,0,1-.5.5.5.5,0,0,1-.5-.5.5.5,0,0,1,.5-.5A.51.51,0,0,1,31,51.42Zm-2.5.5a.5.5,0,0,1-.5-.5.5.5,0,0,1,.5-.5.51.51,0,0,1,.5.5A.5.5,0,0,1,28.47,51.92Zm.5,1.5a.5.5,0,0,1-.5.5.5.5,0,0,1-.5-.5.5.5,0,0,1,.5-.5A.51.51,0,0,1,29,53.42Zm-.5-3.5a.5.5,0,0,1-.5-.5.5.5,0,0,1,.5-.5.51.51,0,0,1,.5.5A.5.5,0,0,1,28.47,49.92Zm-.31-1.19L27,47.51a.5.5,0,0,1-.48.41.55.55,0,0,1-.25-.07l.88.88H25.34l-.82-.82h-.05a.5.5,0,0,1-.5-.5s0,0,0-.05L22.8,46.19a13.66,13.66,0,0,1,.32-1.44L26,47.67a.55.55,0,0,1-.07-.25.5.5,0,0,1,.41-.48l-3-3c.14-.43.31-.86.49-1.27L28.21,47a.53.53,0,0,1,.26-.08.51.51,0,0,1,.5.5.48.48,0,0,1-.09.26l1.05,1Zm-1.69,1.19a.5.5,0,0,1-.5-.5.5.5,0,0,1,.5-.5.51.51,0,0,1,.5.5A.5.5,0,0,1,26.47,49.92Zm.5,1.5a.5.5,0,0,1-.5.5.5.5,0,0,1-.5-.5.5.5,0,0,1,.5-.5A.51.51,0,0,1,27,51.42Zm-2.5-1.5a.5.5,0,0,1-.5-.5.5.5,0,0,1,.5-.5.51.51,0,0,1,.5.5A.5.5,0,0,1,24.47,49.92Zm.5,1.5a.5.5,0,0,1-.5.5.5.5,0,0,1-.5-.5.5.5,0,0,1,.5-.5A.51.51,0,0,1,25,51.42Zm1.56-12.81c.14-.16.28-.33.43-.49l.45-.4,7.09,7.09c-.16.13-.32.24-.47.38a6.54,6.54,0,0,0-.41.51ZM28,37.21c.33-.26.66-.52,1-.76l7.27,7.27a.37.37,0,0,0,.53,0,.39.39,0,0,0,0-.53L29.61,36c.37-.23.74-.44,1.12-.64l6.84,6.84v1.5a4.88,4.88,0,0,0-2.43.66ZM31.45,35c.41-.18.84-.35,1.27-.49l4.85,4.85v1.76Zm2.08-.74A13.68,13.68,0,0,1,35,34l2.6,2.6v1.77Zm2.36-.47a15.47,15.47,0,0,1,1.68-.1v1.78Zm-9.6-15.62,7.11,7.11a5,5,0,0,0-.83,2.75h-10A14.9,14.9,0,0,1,26.29,18.21Zm-3.63,28.9,1.62,1.62H22.57A14.52,14.52,0,0,1,22.66,47.11Zm-.09,6.62h1.51a.55.55,0,0,1-.11-.31.5.5,0,0,1,.5-.5.51.51,0,0,1,.5.5.5.5,0,0,1-.12.31h.24l-2.52,2.52Zm0,3.58,1.54-1.54a.48.48,0,0,1-.14-.35.5.5,0,0,1,.5-.5.51.51,0,0,1,.35.15l1.29-1.3a.48.48,0,0,1-.14-.35.5.5,0,0,1,.5-.5.51.51,0,0,1,.5.5.5.5,0,0,1-.12.31h1.07L26.68,55a.5.5,0,1,1-.66.66l-3.45,3.45Zm0,2.83L29,53.73h1.1a.55.55,0,0,1-.11-.31.5.5,0,0,1,.5-.5.51.51,0,0,1,.5.5.49.49,0,0,1-.39.48L29,55.53a.5.5,0,0,1-.37.37l-6,6Zm2.07,3.59,7.81-7.81a.5.5,0,0,1-.48-.5.36.36,0,0,1,0-.1l-8.41,8.41h-1V63L30,55.55a.51.51,0,0,1,0-.13.5.5,0,0,1,.5-.5l.12,0,1.22-1.22h.27a.55.55,0,0,1-.11-.31.5.5,0,0,1,.5-.5.51.51,0,0,1,.5.5.5.5,0,0,1-.12.31h.73l-1.21,1.21.1,0a.49.49,0,0,1,.49.48l1.68-1.67h1.77l-10,10Zm27.43-.63H36.44a.37.37,0,0,1-.37-.37.38.38,0,0,1,.37-.38H52.07a.38.38,0,0,1,.38.38A.37.37,0,0,1,52.07,63.1Zm0-2H36.44a.37.37,0,0,1-.37-.37.38.38,0,0,1,.37-.38H52.07a.38.38,0,0,1,.38.38A.37.37,0,0,1,52.07,61.1Zm0-4.75a.38.38,0,0,1,.38.38.37.37,0,0,1-.38.37H39.2L38,58.35H52.07a.38.38,0,0,1,.38.38.37.37,0,0,1-.38.37H37.2l-4.63,4.63H30.3l6.62-6.63h-.48a.36.36,0,0,1-.34-.23l-6.86,6.86H27.47L36.19,55a.36.36,0,0,1-.12-.27.38.38,0,0,1,.37-.38h.4l.63-.62h1.77l-.63.62h1.06l.63-.62h2.27l-.62.62H52.07a.38.38,0,0,1,.38.38.37.37,0,0,1-.38.37H41.2L40,56.35Z" transform="translate(-0.11 -1.01)"/><path class="cls-1" d="M37.52,14.39a.37.37,0,0,1-.37.38l.42,0V14l-.42,0A.36.36,0,0,1,37.52,14.39Z" transform="translate(-0.11 -1.01)"/><path class="cls-1" d="M37.15,22H35.94a.37.37,0,0,0-.37.37.38.38,0,0,0,.37.38h1.21l.42,0V22Z" transform="translate(-0.11 -1.01)"/><path class="cls-1" d="M37.15,16a.36.36,0,0,1,.37.37.37.37,0,0,1-.37.38l.42,0V16Z" transform="translate(-0.11 -1.01)"/><path class="cls-1" d="M37.15,20H35.94a.37.37,0,0,0-.37.37.38.38,0,0,0,.37.38h1.21l.42,0V20Z" transform="translate(-0.11 -1.01)"/><path class="cls-1" d="M37.57,18l-.42,0H35.94a.37.37,0,0,0-.37.37.38.38,0,0,0,.37.38h1.21l.42,0V18Z" transform="translate(-0.11 -1.01)"/><path class="cls-1" d="M36.77,16.39a.37.37,0,0,1,.38-.37H35.94a.37.37,0,0,0-.37.37.38.38,0,0,0,.37.38h1.21A.38.38,0,0,1,36.77,16.39Z" transform="translate(-0.11 -1.01)"/><path class="cls-1" d="M36.77,14.39a.37.37,0,0,1,.38-.37H35.94a.37.37,0,0,0-.37.37.38.38,0,0,0,.37.38h1.21A.38.38,0,0,1,36.77,14.39Z" transform="translate(-0.11 -1.01)"/><path class="cls-1" d="M43.15,30a.37.37,0,0,0,.37-.38v-.87h-.21a.34.34,0,0,1-.32,0h-.22v.87A.38.38,0,0,0,43.15,30Z" transform="translate(-0.11 -1.01)"/><path class="cls-1" d="M43,28.73h.32a.38.38,0,0,0,.21-.34.36.36,0,0,0-.37-.37.37.37,0,0,0-.38.37A.38.38,0,0,0,43,28.73Z" transform="translate(-0.11 -1.01)"/><path class="cls-1" d="M45.15,28.77a.42.42,0,0,1-.16,0h-.22v.87a.38.38,0,0,0,.38.38.37.37,0,0,0,.37-.38v-.87h-.21A.42.42,0,0,1,45.15,28.77Z" transform="translate(-0.11 -1.01)"/><path class="cls-1" d="M45,28.73h.32a.38.38,0,0,0,.21-.34.36.36,0,0,0-.37-.37.37.37,0,0,0-.38.37A.38.38,0,0,0,45,28.73Z" transform="translate(-0.11 -1.01)"/><path class="cls-1" d="M47.15,28.77a.42.42,0,0,1-.16,0h-.22v.87a.38.38,0,0,0,.38.38.37.37,0,0,0,.37-.38v-.87h-.21A.42.42,0,0,1,47.15,28.77Z" transform="translate(-0.11 -1.01)"/><path class="cls-1" d="M47,28.73h.32a.38.38,0,0,0,.21-.34.36.36,0,0,0-.37-.37.37.37,0,0,0-.38.37A.38.38,0,0,0,47,28.73Z" transform="translate(-0.11 -1.01)"/><path class="cls-1" d="M49.15,28.77a.42.42,0,0,1-.16,0h-.22v.87a.38.38,0,0,0,.38.38.37.37,0,0,0,.37-.38v-.87h-.21A.42.42,0,0,1,49.15,28.77Z" transform="translate(-0.11 -1.01)"/><path class="cls-1" d="M49,28.73h.32a.38.38,0,0,0,.21-.34.36.36,0,0,0-.37-.37.37.37,0,0,0-.38.37A.38.38,0,0,0,49,28.73Z" transform="translate(-0.11 -1.01)"/><path class="cls-1" d="M51.15,28.77a.42.42,0,0,1-.16,0h-.22v.87a.38.38,0,0,0,.38.38.37.37,0,0,0,.37-.38v-.87h-.21A.42.42,0,0,1,51.15,28.77Z" transform="translate(-0.11 -1.01)"/><path class="cls-1" d="M51.15,28a.37.37,0,0,0-.38.37.38.38,0,0,0,.22.34h.32a.38.38,0,0,0,.21-.34A.36.36,0,0,0,51.15,28Z" transform="translate(-0.11 -1.01)"/><path class="cls-1" d="M37.86,55.1l.75-.75H36.84l-.65.65a.35.35,0,0,0,.25.1Z" transform="translate(-0.11 -1.01)"/><polygon class="cls-1" points="41.08 54.1 41.83 53.35 39.56 53.35 38.81 54.1 41.08 54.1"/><path class="cls-1" d="M36.44,56.35a.38.38,0,0,0-.37.38.32.32,0,0,0,0,.14l.51-.52Z" transform="translate(-0.11 -1.01)"/><polygon class="cls-1" points="36.81 56.1 39.08 56.1 39.83 55.35 37.56 55.35 36.81 56.1"/><path class="cls-1" d="M36.07,58.73a.37.37,0,0,0,.37.37h.76l.75-.75H36.44A.38.38,0,0,0,36.07,58.73Z" transform="translate(-0.11 -1.01)"/><path class="cls-1" d="M32.47,46.92a.49.49,0,0,0-.33.13l.38.38a.38.38,0,0,1,0,.48l.11,0a3.77,3.77,0,0,1,.2-.75A.47.47,0,0,0,32.47,46.92Z" transform="translate(-0.11 -1.01)"/><path class="cls-1" d="M32.47,53.92a.49.49,0,0,0,.38-.19h-.77A.52.52,0,0,0,32.47,53.92Z" transform="translate(-0.11 -1.01)"/><path class="cls-1" d="M33,55.42v0l-.51.52h0A.5.5,0,0,0,33,55.42Z" transform="translate(-0.11 -1.01)"/><path class="cls-1" d="M32,55.32l.38-.38A.48.48,0,0,0,32,55.32Z" transform="translate(-0.11 -1.01)"/><circle class="cls-1" cx="30.36" cy="46.42" r="0.5"/><path class="cls-1" d="M30.47,53.92l.11,0,.17-.17h-.67A.52.52,0,0,0,30.47,53.92Z" transform="translate(-0.11 -1.01)"/><path class="cls-1" d="M30.47,55.92a.5.5,0,0,0,.5-.5.48.48,0,0,0-.38-.47l-.6.6A.5.5,0,0,0,30.47,55.92Z" transform="translate(-0.11 -1.01)"/><path class="cls-1" d="M28,47.42a.5.5,0,0,0,.5.5.47.47,0,0,0,.41-.24L28.21,47A.5.5,0,0,0,28,47.42Z" transform="translate(-0.11 -1.01)"/><path class="cls-1" d="M28.47,54.92a.5.5,0,0,0-.5.5.5.5,0,0,0,.5.5l.11,0,.37-.37s0-.07,0-.11A.51.51,0,0,0,28.47,54.92Z" transform="translate(-0.11 -1.01)"/><path class="cls-1" d="M26.47,46.92l-.09,0,.57.57a.29.29,0,0,0,0-.09A.51.51,0,0,0,26.47,46.92Z" transform="translate(-0.11 -1.01)"/><path class="cls-1" d="M26.22,47.85,26,47.67A.77.77,0,0,0,26.22,47.85Z" transform="translate(-0.11 -1.01)"/><path class="cls-1" d="M26.47,53.92a.49.49,0,0,0,.38-.19h-.7l0,0A.51.51,0,0,0,26.47,53.92Z" transform="translate(-0.11 -1.01)"/><path class="cls-1" d="M26,55.42a.46.46,0,0,0,.05.21l.66-.66a.54.54,0,0,0-.21,0A.5.5,0,0,0,26,55.42Z" transform="translate(-0.11 -1.01)"/><path class="cls-1" d="M25,47.42a.51.51,0,0,0-.5-.5.49.49,0,0,0-.49.45l.54.54A.49.49,0,0,0,25,47.42Z" transform="translate(-0.11 -1.01)"/><path class="cls-1" d="M24.47,53.92a.49.49,0,0,0,.38-.19h-.77A.52.52,0,0,0,24.47,53.92Z" transform="translate(-0.11 -1.01)"/><path class="cls-1" d="M24.47,55.92a.5.5,0,0,0,.5-.5.49.49,0,0,0-.15-.35l-.71.7A.51.51,0,0,0,24.47,55.92Z" transform="translate(-0.11 -1.01)"/></svg>