<svg id="Layer_1" data-name="Layer 1" xmlns="http://www.w3.org/2000/svg" viewBox="0 0 1333.2 1213.68"><title>heart</title><path d="M1325.6,283.7c-20.1-111-84.3-198.5-180.6-246.6C1095.6,12.5,1043.5,0,990.2,0,921.4,0,853.9,21.3,794.9,61.5c-38.4,26.2-75.3,68.8-109.7,126.4-7.2,12.1-13.6,23.6-19.1,34.2-5.5-10.6-11.9-22.1-19.1-34.2C612.7,130.3,575.8,87.7,537.3,61.5,478.3,21.3,410.8,0,342,0,288.7,0,236.6,12.5,187.2,37.1,90.9,85.1,26.7,172.7,6.6,283.7-5.2,348.8-1.1,418.8,18.3,486.1c19.6,67.9,54,129.5,99.5,178.3,35.9,38.5,76.4,72.1,115.5,104.5,20.5,17,41.7,34.6,61.7,52.4C338.3,860,381.9,900,424.1,938.7q24.75,22.65,49.5,45.4l10.6,11.2c57.4,60.7,111.6,118,158.4,184.1l23.3,32.9.2-.3.2.3,23.3-32.9c46.8-66,101-123.3,158.4-184l10.6-11.2.1-.1,49.5-45.3c42.2-38.7,85.8-78.7,129.1-117.4,20-17.9,41.2-35.4,61.7-52.4,39.1-32.4,79.6-66,115.5-104.5,45.4-48.8,79.8-110.4,99.5-178.3C1333.3,418.8,1337.4,348.8,1325.6,283.7Z" transform="translate(0.5 0.5)" fill="#f8b1b8" stroke="#fff" stroke-miterlimit="10"/></svg>