<svg id="Layer_1" data-name="Layer 1" xmlns="http://www.w3.org/2000/svg" viewBox="0 0 100.69 99.45"><title>star</title><path d="M100.34,36.33a3.4,3.4,0,0,0-3.13-2.25l-29.52-1.5L53.38,2a3.61,3.61,0,0,0-3.27-2A3.56,3.56,0,0,0,46.9,2.18L34.09,32.58,3.35,34.08A3.49,3.49,0,0,0,.21,36.33,3.61,3.61,0,0,0,1,40.08L23.18,61.69,17.87,95.43a3.54,3.54,0,0,0,3,4,3.5,3.5,0,0,0,2.34-.51L50.52,81.66,77.78,98.9a3.25,3.25,0,0,0,1.91.55,3.47,3.47,0,0,0,2-.55,3.55,3.55,0,0,0,1.5-3.54L77.78,61.69,99.94,40.08A3.63,3.63,0,0,0,100.34,36.33Z"/></svg>