<svg id="Layer_1" data-name="Layer 1" xmlns="http://www.w3.org/2000/svg" viewBox="0 0 1123.81 131.95"><title>logo_dot-com</title><path d="M75.33,58.15A19.28,19.28,0,0,1,80,66a28,28,0,0,1,1.23,7.83,28,28,0,0,1-1.88,9.71,25.92,25.92,0,0,1-7.11,9.86,33.22,33.22,0,0,1-13.48,7.18A60,60,0,0,1,41.91,103H3.62a3.08,3.08,0,0,1-2.53-1.52A5.46,5.46,0,0,1,0,98.17V12.47A3.62,3.62,0,0,1,1.09,9.79,3.45,3.45,0,0,1,3.62,8.7H40.46q16.82,0,26.82,7.18T77.29,35a19.63,19.63,0,0,1-2.76,10.36,19,19,0,0,1-7.83,7.18A23.05,23.05,0,0,1,75.33,58.15ZM22.62,25.09V47.27H42.34a15.86,15.86,0,0,0,9.86-3,9.58,9.58,0,0,0,3.92-8,9.72,9.72,0,0,0-4.06-8,16.66,16.66,0,0,0-10.44-3.11ZM50.46,85.92a13.65,13.65,0,0,0,6.6-4.57,11.93,11.93,0,0,0,2.68-7.69,10.52,10.52,0,0,0-7.1-9.86,24.19,24.19,0,0,0-9.57-1.74H22.62V87.15H43.07A24.68,24.68,0,0,0,50.46,85.92Z" fill="#4391ca"/><path d="M251.5,33.86a27.82,27.82,0,0,1,9.79,7.61,34.77,34.77,0,0,1,6.24,11.89,50.34,50.34,0,0,1,2.17,15.08q0,16.4-8.77,26.54t-23,10.15q-17.12,0-25.82-11.46l-2.46,8.7c-.58,1.65-1.55,2.42-2.9,2.32l-11.31-1.88a3,3,0,0,1-1.74-.87,2.38,2.38,0,0,1-.73-1.74l.15-95.12a2.47,2.47,0,0,1,2.32-2.62L210.83.15a3,3,0,0,1,2.75.65,3.47,3.47,0,0,1,1,2.68V42.2a30.55,30.55,0,0,1,10.22-8,31.87,31.87,0,0,1,14.29-3A28.8,28.8,0,0,1,251.5,33.86Zm-10.65,52a13.71,13.71,0,0,0,6.23-6.45,23.33,23.33,0,0,0,2.47-11,22.17,22.17,0,0,0-2.47-10.66A13.56,13.56,0,0,0,241,51.55a16.69,16.69,0,0,0-7-1.67A24.28,24.28,0,0,0,214.6,59.6V78.3q8.11,9.28,19.14,9.28A17.06,17.06,0,0,0,240.85,85.84Z" fill="#e57a94"/><path d="M354.09,35.82v64.23a31.68,31.68,0,0,1-2.68,13.2,27.7,27.7,0,0,1-7.69,10.08,35.78,35.78,0,0,1-12,6.38A50.5,50.5,0,0,1,316.24,132a53.7,53.7,0,0,1-12.39-1.45,37.31,37.31,0,0,1-10.37-3.91,3.23,3.23,0,0,1-1.45-1.81,4.26,4.26,0,0,1,0-2.69l2.32-8.84a2.83,2.83,0,0,1,1.81-2,4.66,4.66,0,0,1,3.12.07,42.62,42.62,0,0,0,17,3.48,19.22,19.22,0,0,0,7.25-1.52,13.06,13.06,0,0,0,6.17-5.22,14.56,14.56,0,0,0,2.39-8V92.37a28,28,0,0,1-8.92,7.9,22.88,22.88,0,0,1-11.38,3Q300,103.24,293,95.7t-7-20.73V36.4a2.18,2.18,0,0,1,2.46-2.47l17.11-1.16c1.55-.1,2.32.73,2.32,2.47V74.53a11.7,11.7,0,0,0,2.83,8.27,9.38,9.38,0,0,0,7.18,3,13.89,13.89,0,0,0,7.68-2.46,21.72,21.72,0,0,0,6.53-7V35.82c0-1.65.77-2.47,2.32-2.47h17.25A2.18,2.18,0,0,1,354.09,35.82Z" fill="#f3d549"/><path d="M452.54,60.83A16.89,16.89,0,0,1,456.6,72.5a33.31,33.31,0,0,1-2,11.17A24.12,24.12,0,0,1,448,93.46a34.94,34.94,0,0,1-12.47,6.88A59.86,59.86,0,0,1,416.58,103H382.8a1.27,1.27,0,0,1-1.24-.79,2.82,2.82,0,0,1-.21-1.67l14.93-90a2.46,2.46,0,0,1,.8-1.16,2,2,0,0,1,1.38-.58h31.17q14.22,0,22.26,5.29t8.05,15.74a25.87,25.87,0,0,1-2.68,11.74A22,22,0,0,1,450.08,50a31.6,31.6,0,0,1-8.85,4.43A22,22,0,0,1,452.54,60.83ZM440.22,90.77q8-5.51,8-17.11a12.64,12.64,0,0,0-5.8-11.24q-5.79-3.84-16.24-3.84H396.86l-6.23,37.7h27.55Q432.25,96.28,440.22,90.77Zm-42.2-39h29.15q10.59,0,17.54-5.51t7-15.23q0-8-6-11.67t-16.9-3.7H404Z" fill="#e9b17b"/><path d="M540.41,34.51,529.1,103.24a36.46,36.46,0,0,1-3,9.65,30.34,30.34,0,0,1-6.75,9.2,36.49,36.49,0,0,1-11.09,7A38.75,38.75,0,0,1,493,132a42.34,42.34,0,0,1-10.08-1.37,45.26,45.26,0,0,1-9.35-3.27,1.67,1.67,0,0,1-1-2.17l.87-3.48a1.25,1.25,0,0,1,.94-1.09,2.79,2.79,0,0,1,1.82.22,47,47,0,0,0,8.77,2.83,41.35,41.35,0,0,0,8.92,1.08q10.58,0,17.9-5.94a23.91,23.91,0,0,0,8.78-15.52l2.61-15.95a39.73,39.73,0,0,1-12.91,12.4A30,30,0,0,1,495,104q-12.33,0-17.62-7.18t-3-21.53l6.67-40.6c0-.78.43-1.16,1.3-1.16l6.09-.29c.87,0,1.21.38,1,1.16L482.7,75.11a34.24,34.24,0,0,0-.14,10.44,12.2,12.2,0,0,0,4.71,8.2q4,3.1,10.8,3.11,6.53,0,13.63-4.64t13.05-14.5L532,34.51a1.38,1.38,0,0,1,1.45-1.16h6.09C540.32,33.35,540.61,33.74,540.41,34.51Z" fill="#b5e5dc"/><path d="M656.05,9.28a1.66,1.66,0,0,1,.36,1.45L649,101.5a1.55,1.55,0,0,1-1.6,1.45H642.2c-.87,0-1.25-.43-1.16-1.3l7-81.35L608.56,76.85A3,3,0,0,1,606,78.3h-4.06a2.14,2.14,0,0,1-2.17-1.45l-21.61-56.4-20,81.2a1.62,1.62,0,0,1-1.59,1.3h-5.22c-.87,0-1.21-.48-1-1.45l22.62-90.77a2.43,2.43,0,0,1,2.47-2H580A2.29,2.29,0,0,1,582.32,10l23,59.74L647.13,10a2.93,2.93,0,0,1,2.61-1.31h4.93A1.73,1.73,0,0,1,656.05,9.28Z" fill="#f3d549"/><path d="M688,103.68a26.75,26.75,0,0,1-17-16.31,37.65,37.65,0,0,1-2.39-13.13,47.57,47.57,0,0,1,3-17.11,40.38,40.38,0,0,1,8.63-13.77,38.75,38.75,0,0,1,13.27-9,42.6,42.6,0,0,1,16.53-3.19,33.7,33.7,0,0,1,9.72,1.52,27.28,27.28,0,0,1,17,16.53,37.38,37.38,0,0,1,2.4,13.12,47.17,47.17,0,0,1-3.05,17,39.13,39.13,0,0,1-8.7,13.7,40.23,40.23,0,0,1-13.34,8.92,42.39,42.39,0,0,1-16.38,3.19A35.58,35.58,0,0,1,688,103.68Zm23.56-8.34a30.65,30.65,0,0,0,10.3-7.25,33.68,33.68,0,0,0,6.89-11.17,38.5,38.5,0,0,0,2.46-13.84q0-11-6.09-17.84t-16.09-6.81a34.47,34.47,0,0,0-10.52,1.74,31.95,31.95,0,0,0-19.06,18.7,40.93,40.93,0,0,0-2.76,14.65q0,11,6,17.69T699,97.88A31.27,31.27,0,0,0,711.58,95.34Z" fill="#e77c96"/><path d="M816.78,38.43Q822.72,46,820.55,59L817.36,78.3a63.55,63.55,0,0,0-.72,10.88l.14,12.32c0,.68-.48,1.12-1.45,1.31l-4.93.72c-1.06,0-1.59-.38-1.59-1.16l-.73-12.32a75.09,75.09,0,0,1,.73-11.46l2.9-18.12Q813.45,50,809,44.15t-13.63-5.87a27.93,27.93,0,0,0-10.15,2A33,33,0,0,0,775.6,46,44.67,44.67,0,0,0,767.19,56l-7.69,45.68a1.3,1.3,0,0,1-1.45,1.3h-5.94c-.77,0-1.11-.43-1-1.3l7.69-45.82,1-21c0-1,.54-1.5,1.6-1.59l5.22-.73c.87-.1,1.3.34,1.3,1.31l-.43,15.08a45.12,45.12,0,0,1,7.32-8.63,34.51,34.51,0,0,1,11-6.82,34.87,34.87,0,0,1,12.83-2.53Q810.83,30.89,816.78,38.43Z" fill="#4593cc"/><path d="M889.86,34.51,889,38.72a1.19,1.19,0,0,1-1.31,1.16H860.86l-6,36.1-1.59,9.14q-1,5.66,1.45,8.92t7.54,3.26a39.32,39.32,0,0,0,6.74-.8,41.93,41.93,0,0,0,7.61-2.1,1.75,1.75,0,0,1,1.24.14,1.09,1.09,0,0,1,.5,1l-.14,3.77a2,2,0,0,1-1.6,1.74,50,50,0,0,1-8.48,2.46,42.52,42.52,0,0,1-8.63,1q-8.4,0-12.32-5.08t-2.47-13.63l1.6-9.42,6.09-36.54h-8.12a1,1,0,0,1-.87-.37.79.79,0,0,1-.15-.79l.87-4.21a1.3,1.3,0,0,1,1.31-1.16h8.12l4.49-16.24a2.34,2.34,0,0,1,2.18-1.59h3c1.07,0,1.45.58,1.16,1.74l-2.61,16.09H889C889.76,33.35,890.05,33.74,889.86,34.51Z" fill="#b7e6dd"/><path d="M962.72,38q5.73,7.24,3.55,21L963.08,78.3a73.74,73.74,0,0,0-.72,10.88l.14,12.32c0,.68-.43,1.12-1.3,1.31l-5.08.72a1.58,1.58,0,0,1-1.74-1.3l-.58-12.18a66.69,66.69,0,0,1,.87-11.46l3.05-18.12q1.89-11.46-2.54-17T940.9,38q-7,0-14.57,4.79t-14,15.95l-7.1,42.92a1.31,1.31,0,0,1-1.45,1.3h-6.09c-.78,0-1.11-.43-1-1.3L913.35,2A1.41,1.41,0,0,1,914.8.73L920.6,0c1.06,0,1.5.53,1.3,1.59l-8,47.86a38.15,38.15,0,0,1,13.48-13.92,33.22,33.22,0,0,1,17.11-4.79Q957,30.74,962.72,38Z" fill="#e9b17b"/><path d="M975.23,103.6a2.64,2.64,0,0,1-.79-1.94,3.45,3.45,0,0,1,1.15-2.6A3.86,3.86,0,0,1,978.32,98a2.4,2.4,0,0,1,1.8.76,2.67,2.67,0,0,1,.72,1.91,3.62,3.62,0,0,1-1.11,2.63,3.54,3.54,0,0,1-2.56,1.11A2.62,2.62,0,0,1,975.23,103.6Z" fill="#e9b17b"/><path d="M1020.66,70.91l-.79,1.73a1,1,0,0,1-.58.54.89.89,0,0,1-.72-.11,15.46,15.46,0,0,0-3.67-1.58,14.49,14.49,0,0,0-4.25-.65,17,17,0,0,0-6.62,1.29,16,16,0,0,0-5.33,3.6,15.64,15.64,0,0,0-3.42,5.51,19.7,19.7,0,0,0-1.19,6.88,12.24,12.24,0,0,0,3.28,9,11.73,11.73,0,0,0,8.82,3.35,20,20,0,0,0,8.35-2.09c.77-.28,1.23-.12,1.37.51l.29,1.65a1,1,0,0,1-.08.62.84.84,0,0,1-.43.46,26.67,26.67,0,0,1-4.89,1.7,21.64,21.64,0,0,1-5.26.75q-7,0-11.23-4.24a15,15,0,0,1-4.25-11.09,23.46,23.46,0,0,1,1.55-8.65,19.22,19.22,0,0,1,11.19-11.19,23.39,23.39,0,0,1,8.57-1.55,16.76,16.76,0,0,1,4.75.72,16.28,16.28,0,0,1,4.25,1.87C1020.81,70.09,1020.9,70.43,1020.66,70.91Z" fill="#e9b17b"/><path d="M1033.69,103.31a13.25,13.25,0,0,1-8.46-8.1A18.63,18.63,0,0,1,1024,88.7a23.79,23.79,0,0,1,1.51-8.5,20.06,20.06,0,0,1,4.29-6.84,19.34,19.34,0,0,1,6.59-4.47,21.29,21.29,0,0,1,8.21-1.58,16.59,16.59,0,0,1,4.82.76,13,13,0,0,1,4.9,2.88,13.12,13.12,0,0,1,3.56,5.32,18.69,18.69,0,0,1,1.19,6.52,23.6,23.6,0,0,1-1.51,8.43,19.48,19.48,0,0,1-4.32,6.8,20,20,0,0,1-6.63,4.43,21.07,21.07,0,0,1-8.13,1.58A17.57,17.57,0,0,1,1033.69,103.31Zm11.7-4.14a15.12,15.12,0,0,0,5.11-3.6,16.57,16.57,0,0,0,3.42-5.54,19.05,19.05,0,0,0,1.23-6.88,12.79,12.79,0,0,0-3-8.86,10.21,10.21,0,0,0-8-3.38,17.27,17.27,0,0,0-5.22.86,15.92,15.92,0,0,0-9.47,9.29,20.41,20.41,0,0,0-1.37,7.28,12.63,12.63,0,0,0,3,8.78,10.38,10.38,0,0,0,8.1,3.31A15.52,15.52,0,0,0,1045.39,99.17Z" fill="#e9b17b"/><path d="M1118,68.1a9.06,9.06,0,0,1,3.71,2.77,10,10,0,0,1,1.91,4.43,17.58,17.58,0,0,1,0,5.83L1122,90.71a36.87,36.87,0,0,0-.29,5.4v6.12c0,.34-.22.56-.65.65l-2.52.36c-.53,0-.79-.19-.79-.57l-.29-6.13a33.46,33.46,0,0,1,.36-5.68l1.51-9q.87-5.19-1.37-8.11T1111,70.84a14.14,14.14,0,0,0-6.88,1.94,17.37,17.37,0,0,0-6.15,6.27l-.29,2.16-3.53,21.09a.65.65,0,0,1-.72.65h-3c-.39,0-.55-.21-.51-.65l3.39-20.52q.93-5.69-1-8.24T1086,71a12.1,12.1,0,0,0-7,2.31,22.62,22.62,0,0,0-6.08,6.55l-3.67,22.46a.65.65,0,0,1-.72.65h-3c-.38,0-.55-.21-.5-.65l3.74-22.75.51-10.58c0-.44.19-.65.57-.65l2.81-.36c.48,0,.72.17.72.65l-.28,7.77a20.84,20.84,0,0,1,4.53-5.4,14.44,14.44,0,0,1,5.22-2.91,17.08,17.08,0,0,1,4.72-.76,11,11,0,0,1,7.23,2.23A9.19,9.19,0,0,1,1098,76a16.22,16.22,0,0,1,4.5-5.36,15.19,15.19,0,0,1,5.51-2.81,19.68,19.68,0,0,1,4.75-.68A13.66,13.66,0,0,1,1118,68.1Z" fill="#e9b17b"/><path d="M161.7,39.74a39.11,39.11,0,0,0-45.37-7.61,10.24,10.24,0,0,0-15.08,13.3,39.11,39.11,0,0,0,53.52,54.71,10.23,10.23,0,0,0,13.72-15A39.1,39.1,0,0,0,161.7,39.74Zm-34.6,6.6a5.55,5.55,0,1,1-.08,7.84A5.53,5.53,0,0,1,127.1,46.34Zm-10.23,38a21.63,21.63,0,0,1-4.69-23l4.49,4.58a16,16,0,0,0,18.64,19l4.49,4.58A21.62,21.62,0,0,1,116.87,84.35Zm37.77-9.76a5.44,5.44,0,1,1,.07-7.69A5.44,5.44,0,0,1,154.64,74.59Z" fill="#b5e3db"/><path d="M75.33,58.15A19.28,19.28,0,0,1,80,66a28,28,0,0,1,1.23,7.83,28,28,0,0,1-1.88,9.71,25.92,25.92,0,0,1-7.11,9.86,33.22,33.22,0,0,1-13.48,7.18A60,60,0,0,1,41.91,103H3.62a3.08,3.08,0,0,1-2.53-1.52A5.46,5.46,0,0,1,0,98.17V12.47A3.62,3.62,0,0,1,1.09,9.79,3.45,3.45,0,0,1,3.62,8.7H40.46q16.82,0,26.82,7.18T77.29,35a19.63,19.63,0,0,1-2.76,10.36,19,19,0,0,1-7.83,7.18A23.05,23.05,0,0,1,75.33,58.15ZM22.62,25.09V47.27H42.34a15.86,15.86,0,0,0,9.86-3,9.58,9.58,0,0,0,3.92-8,9.72,9.72,0,0,0-4.06-8,16.66,16.66,0,0,0-10.44-3.11ZM50.46,85.92a13.65,13.65,0,0,0,6.6-4.57,11.93,11.93,0,0,0,2.68-7.69,10.52,10.52,0,0,0-7.1-9.86,24.19,24.19,0,0,0-9.57-1.74H22.62V87.15H43.07A24.68,24.68,0,0,0,50.46,85.92Z" fill="#4391ca"/><path d="M251.5,33.86a27.82,27.82,0,0,1,9.79,7.61,34.77,34.77,0,0,1,6.24,11.89,50.34,50.34,0,0,1,2.17,15.08q0,16.4-8.77,26.54t-23,10.15q-17.12,0-25.82-11.46l-2.46,8.7c-.58,1.65-1.55,2.42-2.9,2.32l-11.31-1.88a3,3,0,0,1-1.74-.87,2.38,2.38,0,0,1-.73-1.74l.15-95.12a2.47,2.47,0,0,1,2.32-2.62L210.83.15a3,3,0,0,1,2.75.65,3.47,3.47,0,0,1,1,2.68V42.2a30.55,30.55,0,0,1,10.22-8,31.87,31.87,0,0,1,14.29-3A28.8,28.8,0,0,1,251.5,33.86Zm-10.65,52a13.71,13.71,0,0,0,6.23-6.45,23.33,23.33,0,0,0,2.47-11,22.17,22.17,0,0,0-2.47-10.66A13.56,13.56,0,0,0,241,51.55a16.69,16.69,0,0,0-7-1.67A24.28,24.28,0,0,0,214.6,59.6V78.3q8.11,9.28,19.14,9.28A17.06,17.06,0,0,0,240.85,85.84Z" fill="#e57a94"/><path d="M354.09,35.82v64.23a31.68,31.68,0,0,1-2.68,13.2,27.7,27.7,0,0,1-7.69,10.08,35.78,35.78,0,0,1-12,6.38A50.5,50.5,0,0,1,316.24,132a53.7,53.7,0,0,1-12.39-1.45,37.31,37.31,0,0,1-10.37-3.91,3.23,3.23,0,0,1-1.45-1.81,4.26,4.26,0,0,1,0-2.69l2.32-8.84a2.83,2.83,0,0,1,1.81-2,4.66,4.66,0,0,1,3.12.07,42.62,42.62,0,0,0,17,3.48,19.22,19.22,0,0,0,7.25-1.52,13.06,13.06,0,0,0,6.17-5.22,14.56,14.56,0,0,0,2.39-8V92.37a28,28,0,0,1-8.92,7.9,22.88,22.88,0,0,1-11.38,3Q300,103.24,293,95.7t-7-20.73V36.4a2.18,2.18,0,0,1,2.46-2.47l17.11-1.16c1.55-.1,2.32.73,2.32,2.47V74.53a11.7,11.7,0,0,0,2.83,8.27,9.38,9.38,0,0,0,7.18,3,13.89,13.89,0,0,0,7.68-2.46,21.72,21.72,0,0,0,6.53-7V35.82c0-1.65.77-2.47,2.32-2.47h17.25A2.18,2.18,0,0,1,354.09,35.82Z" fill="#f3d549"/><path d="M452.54,60.83A16.89,16.89,0,0,1,456.6,72.5a33.31,33.31,0,0,1-2,11.17A24.12,24.12,0,0,1,448,93.46a34.94,34.94,0,0,1-12.47,6.88A59.86,59.86,0,0,1,416.58,103H382.8a1.27,1.27,0,0,1-1.24-.79,2.82,2.82,0,0,1-.21-1.67l14.93-90a2.46,2.46,0,0,1,.8-1.16,2,2,0,0,1,1.38-.58h31.17q14.22,0,22.26,5.29t8.05,15.74a25.87,25.87,0,0,1-2.68,11.74A22,22,0,0,1,450.08,50a31.6,31.6,0,0,1-8.85,4.43A22,22,0,0,1,452.54,60.83ZM440.22,90.77q8-5.51,8-17.11a12.64,12.64,0,0,0-5.8-11.24q-5.79-3.84-16.24-3.84H396.86l-6.23,37.7h27.55Q432.25,96.28,440.22,90.77Zm-42.2-39h29.15q10.59,0,17.54-5.51t7-15.23q0-8-6-11.67t-16.9-3.7H404Z" fill="#e9b17b"/><path d="M540.41,34.51,529.1,103.24a36.46,36.46,0,0,1-3,9.65,30.34,30.34,0,0,1-6.75,9.2,36.49,36.49,0,0,1-11.09,7A38.75,38.75,0,0,1,493,132a42.34,42.34,0,0,1-10.08-1.37,45.26,45.26,0,0,1-9.35-3.27,1.67,1.67,0,0,1-1-2.17l.87-3.48a1.25,1.25,0,0,1,.94-1.09,2.79,2.79,0,0,1,1.82.22,47,47,0,0,0,8.77,2.83,41.35,41.35,0,0,0,8.92,1.08q10.58,0,17.9-5.94a23.91,23.91,0,0,0,8.78-15.52l2.61-15.95a39.73,39.73,0,0,1-12.91,12.4A30,30,0,0,1,495,104q-12.33,0-17.62-7.18t-3-21.53l6.67-40.6c0-.78.43-1.16,1.3-1.16l6.09-.29c.87,0,1.21.38,1,1.16L482.7,75.11a34.24,34.24,0,0,0-.14,10.44,12.2,12.2,0,0,0,4.71,8.2q4,3.1,10.8,3.11,6.53,0,13.63-4.64t13.05-14.5L532,34.51a1.38,1.38,0,0,1,1.45-1.16h6.09C540.32,33.35,540.61,33.74,540.41,34.51Z" fill="#b5e5dc"/><path d="M656.05,9.28a1.66,1.66,0,0,1,.36,1.45L649,101.5a1.55,1.55,0,0,1-1.6,1.45H642.2c-.87,0-1.25-.43-1.16-1.3l7-81.35L608.56,76.85A3,3,0,0,1,606,78.3h-4.06a2.14,2.14,0,0,1-2.17-1.45l-21.61-56.4-20,81.2a1.62,1.62,0,0,1-1.59,1.3h-5.22c-.87,0-1.21-.48-1-1.45l22.62-90.77a2.43,2.43,0,0,1,2.47-2H580A2.29,2.29,0,0,1,582.32,10l23,59.74L647.13,10a2.93,2.93,0,0,1,2.61-1.31h4.93A1.73,1.73,0,0,1,656.05,9.28Z" fill="#f3d549"/><path d="M688,103.68a26.75,26.75,0,0,1-17-16.31,37.65,37.65,0,0,1-2.39-13.13,47.57,47.57,0,0,1,3-17.11,40.38,40.38,0,0,1,8.63-13.77,38.75,38.75,0,0,1,13.27-9,42.6,42.6,0,0,1,16.53-3.19,33.7,33.7,0,0,1,9.72,1.52,27.28,27.28,0,0,1,17,16.53,37.38,37.38,0,0,1,2.4,13.12,47.17,47.17,0,0,1-3.05,17,39.13,39.13,0,0,1-8.7,13.7,40.23,40.23,0,0,1-13.34,8.92,42.39,42.39,0,0,1-16.38,3.19A35.58,35.58,0,0,1,688,103.68Zm23.56-8.34a30.65,30.65,0,0,0,10.3-7.25,33.68,33.68,0,0,0,6.89-11.17,38.5,38.5,0,0,0,2.46-13.84q0-11-6.09-17.84t-16.09-6.81a34.47,34.47,0,0,0-10.52,1.74,31.95,31.95,0,0,0-19.06,18.7,40.93,40.93,0,0,0-2.76,14.65q0,11,6,17.69T699,97.88A31.27,31.27,0,0,0,711.58,95.34Z" fill="#e77c96"/><path d="M816.78,38.43Q822.72,46,820.55,59L817.36,78.3a63.55,63.55,0,0,0-.72,10.88l.14,12.32c0,.68-.48,1.12-1.45,1.31l-4.93.72c-1.06,0-1.59-.38-1.59-1.16l-.73-12.32a75.09,75.09,0,0,1,.73-11.46l2.9-18.12Q813.45,50,809,44.15t-13.63-5.87a27.93,27.93,0,0,0-10.15,2A33,33,0,0,0,775.6,46,44.67,44.67,0,0,0,767.19,56l-7.69,45.68a1.3,1.3,0,0,1-1.45,1.3h-5.94c-.77,0-1.11-.43-1-1.3l7.69-45.82,1-21c0-1,.54-1.5,1.6-1.59l5.22-.73c.87-.1,1.3.34,1.3,1.31l-.43,15.08a45.12,45.12,0,0,1,7.32-8.63,34.51,34.51,0,0,1,11-6.82,34.87,34.87,0,0,1,12.83-2.53Q810.83,30.89,816.78,38.43Z" fill="#4593cc"/><path d="M889.86,34.51,889,38.72a1.19,1.19,0,0,1-1.31,1.16H860.86l-6,36.1-1.59,9.14q-1,5.66,1.45,8.92t7.54,3.26a39.32,39.32,0,0,0,6.74-.8,41.93,41.93,0,0,0,7.61-2.1,1.75,1.75,0,0,1,1.24.14,1.09,1.09,0,0,1,.5,1l-.14,3.77a2,2,0,0,1-1.6,1.74,50,50,0,0,1-8.48,2.46,42.52,42.52,0,0,1-8.63,1q-8.4,0-12.32-5.08t-2.47-13.63l1.6-9.42,6.09-36.54h-8.12a1,1,0,0,1-.87-.37.79.79,0,0,1-.15-.79l.87-4.21a1.3,1.3,0,0,1,1.31-1.16h8.12l4.49-16.24a2.34,2.34,0,0,1,2.18-1.59h3c1.07,0,1.45.58,1.16,1.74l-2.61,16.09H889C889.76,33.35,890.05,33.74,889.86,34.51Z" fill="#b7e6dd"/><path d="M962.72,38q5.73,7.24,3.55,21L963.08,78.3a73.74,73.74,0,0,0-.72,10.88l.14,12.32c0,.68-.43,1.12-1.3,1.31l-5.08.72a1.58,1.58,0,0,1-1.74-1.3l-.58-12.18a66.69,66.69,0,0,1,.87-11.46l3.05-18.12q1.89-11.46-2.54-17T940.9,38q-7,0-14.57,4.79t-14,15.95l-7.1,42.92a1.31,1.31,0,0,1-1.45,1.3h-6.09c-.78,0-1.11-.43-1-1.3L913.35,2A1.41,1.41,0,0,1,914.8.73L920.6,0c1.06,0,1.5.53,1.3,1.59l-8,47.86a38.15,38.15,0,0,1,13.48-13.92,33.22,33.22,0,0,1,17.11-4.79Q957,30.74,962.72,38Z" fill="#e9b17b"/><path d="M975.23,103.6a2.64,2.64,0,0,1-.79-1.94,3.45,3.45,0,0,1,1.15-2.6A3.86,3.86,0,0,1,978.32,98a2.4,2.4,0,0,1,1.8.76,2.67,2.67,0,0,1,.72,1.91,3.62,3.62,0,0,1-1.11,2.63,3.54,3.54,0,0,1-2.56,1.11A2.62,2.62,0,0,1,975.23,103.6Z" fill="#e9b17b"/><path d="M1020.66,70.91l-.79,1.73a1,1,0,0,1-.58.54.89.89,0,0,1-.72-.11,15.46,15.46,0,0,0-3.67-1.58,14.49,14.49,0,0,0-4.25-.65,17,17,0,0,0-6.62,1.29,16,16,0,0,0-5.33,3.6,15.64,15.64,0,0,0-3.42,5.51,19.7,19.7,0,0,0-1.19,6.88,12.24,12.24,0,0,0,3.28,9,11.73,11.73,0,0,0,8.82,3.35,20,20,0,0,0,8.35-2.09c.77-.28,1.23-.12,1.37.51l.29,1.65a1,1,0,0,1-.08.62.84.84,0,0,1-.43.46,26.67,26.67,0,0,1-4.89,1.7,21.64,21.64,0,0,1-5.26.75q-7,0-11.23-4.24a15,15,0,0,1-4.25-11.09,23.46,23.46,0,0,1,1.55-8.65,19.22,19.22,0,0,1,11.19-11.19,23.39,23.39,0,0,1,8.57-1.55,16.76,16.76,0,0,1,4.75.72,16.28,16.28,0,0,1,4.25,1.87C1020.81,70.09,1020.9,70.43,1020.66,70.91Z" fill="#e9b17b"/><path d="M1033.69,103.31a13.25,13.25,0,0,1-8.46-8.1A18.63,18.63,0,0,1,1024,88.7a23.79,23.79,0,0,1,1.51-8.5,20.06,20.06,0,0,1,4.29-6.84,19.34,19.34,0,0,1,6.59-4.47,21.29,21.29,0,0,1,8.21-1.58,16.59,16.59,0,0,1,4.82.76,13,13,0,0,1,4.9,2.88,13.12,13.12,0,0,1,3.56,5.32,18.69,18.69,0,0,1,1.19,6.52,23.6,23.6,0,0,1-1.51,8.43,19.48,19.48,0,0,1-4.32,6.8,20,20,0,0,1-6.63,4.43,21.07,21.07,0,0,1-8.13,1.58A17.57,17.57,0,0,1,1033.69,103.31Zm11.7-4.14a15.12,15.12,0,0,0,5.11-3.6,16.57,16.57,0,0,0,3.42-5.54,19.05,19.05,0,0,0,1.23-6.88,12.79,12.79,0,0,0-3-8.86,10.21,10.21,0,0,0-8-3.38,17.27,17.27,0,0,0-5.22.86,15.92,15.92,0,0,0-9.47,9.29,20.41,20.41,0,0,0-1.37,7.28,12.63,12.63,0,0,0,3,8.78,10.38,10.38,0,0,0,8.1,3.31A15.52,15.52,0,0,0,1045.39,99.17Z" fill="#e9b17b"/><path d="M1118,68.1a9.06,9.06,0,0,1,3.71,2.77,10,10,0,0,1,1.91,4.43,17.58,17.58,0,0,1,0,5.83L1122,90.71a36.87,36.87,0,0,0-.29,5.4v6.12c0,.34-.22.56-.65.65l-2.52.36c-.53,0-.79-.19-.79-.57l-.29-6.13a33.46,33.46,0,0,1,.36-5.68l1.51-9q.87-5.19-1.37-8.11T1111,70.84a14.14,14.14,0,0,0-6.88,1.94,17.37,17.37,0,0,0-6.15,6.27l-.29,2.16-3.53,21.09a.65.65,0,0,1-.72.65h-3c-.39,0-.55-.21-.51-.65l3.39-20.52q.93-5.69-1-8.24T1086,71a12.1,12.1,0,0,0-7,2.31,22.62,22.62,0,0,0-6.08,6.55l-3.67,22.46a.65.65,0,0,1-.72.65h-3c-.38,0-.55-.21-.5-.65l3.74-22.75.51-10.58c0-.44.19-.65.57-.65l2.81-.36c.48,0,.72.17.72.65l-.28,7.77a20.84,20.84,0,0,1,4.53-5.4,14.44,14.44,0,0,1,5.22-2.91,17.08,17.08,0,0,1,4.72-.76,11,11,0,0,1,7.23,2.23A9.19,9.19,0,0,1,1098,76a16.22,16.22,0,0,1,4.5-5.36,15.19,15.19,0,0,1,5.51-2.81,19.68,19.68,0,0,1,4.75-.68A13.66,13.66,0,0,1,1118,68.1Z" fill="#e9b17b"/><path d="M161.7,39.74a39.11,39.11,0,0,0-45.37-7.61,10.24,10.24,0,0,0-15.08,13.3,39.11,39.11,0,0,0,53.52,54.71,10.23,10.23,0,0,0,13.72-15A39.1,39.1,0,0,0,161.7,39.74Zm-34.6,6.6a5.55,5.55,0,1,1-.08,7.84A5.53,5.53,0,0,1,127.1,46.34Zm-10.23,38a21.63,21.63,0,0,1-4.69-23l4.49,4.58a16,16,0,0,0,18.64,19l4.49,4.58A21.62,21.62,0,0,1,116.87,84.35Zm37.77-9.76a5.44,5.44,0,1,1,.07-7.69A5.44,5.44,0,0,1,154.64,74.59Z" fill="#b5e3db"/></svg>