<svg id="Layer_1" data-name="Layer 1" xmlns="http://www.w3.org/2000/svg" viewBox="0 0 618.29 110.91"><title>logo</title><path d="M38.3,40.3a.83.83,0,0,0-.3.7,1.85,1.85,0,0,1-.8.7.76.76,0,0,0-.2.4c0,.1-.1.1-.1.2a.76.76,0,0,0,.2.4.35.35,0,0,1,.2.1.6.6,0,0,0,.4.1l.1-.1c.1,0,.2,0,.2.1a3.6,3.6,0,0,1-.8,1.2.86.86,0,0,0-.3.6c0,.1-.2.1-.3.1s.1-.2.1-.3-.1-.2-.1-.4.2-.5.3-.8a.31.31,0,0,0,.1-.2h-.1c0-.1-.1,0-.2,0-.3,0-.4.2-.4.5s-.2.2-.3.3h-.1c-.1,0-.1,0-.2-.1v-.2c0-.1,0-.2-.1-.2s-.1.1-.1.2a.37.37,0,0,0-.3.2v.7c-.1,0,0,.1-.1.1-.3-.1-.6-.1-.7-.3,0,0-.2,0-.2.1s0,.1.1.3,0,.2-.2.3a5,5,0,0,0-.8,1.2.1.1,0,0,1-.1.1H33c-.1,0-.1,0-.1.1v.2c0,.2-.2.3-.2.5-.2.2-.5.2-.6.5s-.2.2-.5.2c0,0-.2.1-.2.2a.35.35,0,0,0-.2.1.35.35,0,0,0,.2.1c0,.1,0,.1.1.1l.2.2c-.1.2-.2.5-.4.5a.76.76,0,0,1-.4.2,2.51,2.51,0,0,0-.7.4.83.83,0,0,0-.3.8l-.2.7c-.1,0,0,.1.1.2a.1.1,0,0,0,.1.1l-.1.1c-.1.1-.1.1-.1.2s0,.2.1.2,0,.1.1.1a.1.1,0,0,0,.1-.1.66.66,0,0,0,.4-.5v-.1a.32.32,0,0,1,.3-.3c.2,0,.3-.2.6-.4a.76.76,0,0,1,.2-.4c.1,0,.1,0,.2.1a2.09,2.09,0,0,1-.4.6l-.1.1v.1c0,.3-.3.5-.6.8-.1.3-.4.4-.6.7a7.27,7.27,0,0,1-.9.8,1.24,1.24,0,0,1-.3.2h-.1c-.1-.3-.1-.4-.4-.4a.1.1,0,0,1-.1-.1V53c0-.1,0-.1.1-.1a.22.22,0,0,0,.2-.2l.1-.1a.1.1,0,0,1-.1-.1l-.2-.2a.31.31,0,0,0,.2-.1v-.1c0-.1,0-.1.1-.1v-.1c-.1-.1-.1-.1-.2-.1h-.1a1.56,1.56,0,0,0-.8.8l-.1.1a.1.1,0,0,0,.1.1h.2l.1.1a.31.31,0,0,0-.2.1c-.3.2-.2.5-.4.6v.2a.6.6,0,0,1,.1.4v.1a.22.22,0,0,0-.2.2l-.1.1h.1c0,.1,0,.1.1.2s.1.1.1.2a.32.32,0,0,1-.3.3.9.9,0,0,0-.5.1c-.1.1-.2.1-.2.2s.1.1.1.2.1.1.1.2v.1h-.2a.76.76,0,0,0-.5-.2h-.2c-.1-.1-.2-.1-.2-.2l.3-.3c0-.1,0-.1-.1-.1l.1-.1c-.1,0-.3.1-.4.1h-1c-.1,0-.1.2-.1.3a1.41,1.41,0,0,0,.7.6c.1,0,.1,0,.1.1v.1a.35.35,0,0,1,.1.2v.3L24.2,58c-.2,0-.3.1-.4.3a1.87,1.87,0,0,1-.6.7l-.9.7c-.1.1-.5.2-.7.5-.5,0-.7.4-1,.7l-.6.4a2,2,0,0,0-.8.4,13.55,13.55,0,0,1-2.1,1c-.2.1-.3.3-.5.5h-.7a1,1,0,0,1-.3.1l-.7.3a1.7,1.7,0,0,0-.7.1c-.2,0-.3.2-.5.2a.31.31,0,0,1-.2.1c-.1,0-.1,0-.1-.1-.2,0-.3-.1-.5-.1a4.33,4.33,0,0,0-.5.1.9.9,0,0,1-.5.1H10.7a1.09,1.09,0,0,0-.5-.1H8.6c-.1,0-.2-.1-.4-.1a1,1,0,0,1-.3-.1,4,4,0,0,1-1.5-.3.31.31,0,0,1-.2-.1C6,63,6,63,5.6,63c-.2,0-.3-.1-.4-.3-.2-.4-.2-.4-.6-.4H3.9a.35.35,0,0,1-.1-.2c0-.1.1-.1.2-.2v-.1l-.1-.1c0-.1-.1-.1-.2-.1a.73.73,0,0,1-.6-.2H3a.1.1,0,0,1-.1-.1.35.35,0,0,0,.1-.2v-.2H2.6c-.1,0-.1-.2-.1-.3h.1c0-.2.2-.2.2-.4s0-.4-.3-.5c-1.7-1-.6-1.3-1.7-2.4a1.42,1.42,0,0,1-.2-.6,3.81,3.81,0,0,0-.3-1V54.6a.9.9,0,0,1-.1-.5.37.37,0,0,1,.1-.3v-.6c0-.1.1-.2.1-.3s-.1-.2-.1-.3A1.27,1.27,0,0,1,.2,52v-.2a.6.6,0,0,0,.1-.4c0-.1,0-.2-.2-.3,0-.1-.1-.2-.1-.3a1.69,1.69,0,0,1,.2-.5.9.9,0,0,1-.1-.5,5.28,5.28,0,0,0,.1-1.3c0-.1-.1-.2-.1-.3s.1-.3.2-.5,0-.2.1-.2.2.1.2.3V48c.1,0,.1,0,.1-.1V47c0-.1,0-.1.1-.2l.2-.2H.9a1.08,1.08,0,0,1-.2-.8v-.2c0-.1,0-.1-.1-.2a1.27,1.27,0,0,0,.1-.6v-.3c0-.2,0-.3.1-.4S.9,44,1,44a.22.22,0,0,0,.2-.2c.1,0,.1,0,.1-.1v-.1l-.1-.1c-.1,0-.1.1-.2.1H.9c0-.2,0-.2.1-.3a.37.37,0,0,0,.1-.3,1.69,1.69,0,0,0-.2-.5c0-.1.1-.1.1-.2S.9,42.1.9,42v-.1c.3-.4.1-.7.4-1,0-.1-.1-.3-.1-.4a2.35,2.35,0,0,0,.2-.8v-.2q0-.15.3-.3a.35.35,0,0,0,.1-.2.37.37,0,0,1-.1-.3c0-.2.1-.3.1-.5a.35.35,0,0,1,.1-.2c.2-.1.2-.2.2-.4V37c0-.3.1-.7.1-1l.6-1c0-.2.1-.3.2-.5s-.1-.3-.1-.4a.76.76,0,0,1,.2-.5,14.17,14.17,0,0,1,.8-1.8,3.09,3.09,0,0,0,.2-.8l.3-.8.3-.2a4.87,4.87,0,0,0,.4-1.1,6.11,6.11,0,0,1,.7-1.4c0-.3.2-.5.2-.8l.2-.3.7-.9a1.87,1.87,0,0,1,.8-1.4V24c0-.4.2-.5.5-.8v-.1a10.81,10.81,0,0,1,1.1-1.8l1.4-1.5a1.07,1.07,0,0,0,.3-.5.68.68,0,0,1,.6-.4c.4-.3.8-.4,1-.7a.31.31,0,0,0,.2-.1,7.38,7.38,0,0,1,1.3-.8l.8-.3a3.71,3.71,0,0,1,.9-.2h1.8l.7.5c.1.1.1.2.2.2l.9.6c.1.1.2.3.4.3s.2.1.3.2.1.2.2.3a1.07,1.07,0,0,0,.6.2h.2c.3,0,.4.2.6.4a.37.37,0,0,1,.1.3c0,.1,0,.2-.1.2l-.7.2a.1.1,0,0,0-.1.1c-.1,0-.1-.1-.1-.3v-.2h-.3c-.2.1-.3.4-.4.6s0,.1.1.2a.1.1,0,0,0,.1.1c.2.1.2.3.2.5s.1.2.2.2a.35.35,0,0,0,.2-.1c.1,0,.1.1.2.3a.76.76,0,0,1,.2.4c0,.1-.1.1-.1.2s.1.2.2.4h.2v-.5c0-.3-.1-.6-.1-.9a1.21,1.21,0,0,1,.5-.5.6.6,0,0,1,.4.1.35.35,0,0,1-.1.2c0,.3.2.4.5.4.1,0,.1.2.1.3v.1c-.2.2-.3.2-.3.3s.1.2.2.3a.22.22,0,0,0,.2.2.37.37,0,0,1-.1.3c0,.1,0,.2-.1.2s-.3.2-.3.4.1.2.1.3,0,.1.1.1H23V24a2.12,2.12,0,0,1-.3.7c-.1.1-.1.1-.1.2a.37.37,0,0,0,.1.3.55.55,0,0,1,.2.5v.4c0,.1-.1.2-.2.3a1.22,1.22,0,0,0-.4.9.37.37,0,0,1,.1.3c-.4.5-.4,1.1-.8,1.6a.37.37,0,0,1,.1.3,2.12,2.12,0,0,1-.3.7,1.53,1.53,0,0,0-.4,1v.2a3.92,3.92,0,0,1-.8,1.4c-.2.1-.2.3-.4.4s-.5.5-.5.8v.1c0,.1-.1.1-.2.2,0,.3-.3.4-.3.6V35c0,.2-.1.2-.2.3a2.65,2.65,0,0,1-.6.5,4.12,4.12,0,0,0-1,1.3,14.28,14.28,0,0,1-1.5,1.8,1.28,1.28,0,0,1-.7.5c-.2,0-.3,0-.4.2l-.7.6a2.13,2.13,0,0,1-1.2.4.76.76,0,0,0-.4.1,3.06,3.06,0,0,1-1.7.3,3.55,3.55,0,0,0-1,.2c-.2,0-.3.1-.5.1a1.85,1.85,0,0,1-.7-.2.9.9,0,0,0-.5-.1c-.1,0-.2,0-.2.2A4.28,4.28,0,0,0,7,42.5a1.27,1.27,0,0,0,.1.6.75.75,0,0,1,.1.5.31.31,0,0,1-.1.2.55.55,0,0,0-.3.5c0,.1.1.2.1.3-.1.3-.3.5-.3.8v1.2a4.33,4.33,0,0,0,.1.5c0,.1,0,.1-.1.2s-.1.4-.1.6-.1.2-.1.3a1,1,0,0,0,.1.3c0,.1.1.2.1.3s-.1.1-.1.2v.1a.37.37,0,0,1,.1.3c0,.2-.1.4-.1.6v.6c0,.2,0,.4.2.5v1.3a1.42,1.42,0,0,0-.2.6.76.76,0,0,0,.2.4v.3c0,.1,0,.2.1.2.5.2.4.6.5.9v.4c0,.1-.1.2-.1.3s.1.3.4.5a2.35,2.35,0,0,0,.5,1,.1.1,0,0,1,.1.1.81.81,0,0,0,.4.8V58c.2.2.3.4.5.5l.4.5a1.76,1.76,0,0,0,1.3.6.9.9,0,0,0,.5-.1.9.9,0,0,1,.5-.1,7.06,7.06,0,0,0,2.4-.6,5.45,5.45,0,0,0,1.7-1c.3-.2.8-.3,1.1-.5.5-.5,1.2-.9,1.8-1.4a13.44,13.44,0,0,0,1.4-1.1,5.24,5.24,0,0,0,1-1.1,8.06,8.06,0,0,0,1.4-1.2c.3-.2.4-.5.7-.7a.75.75,0,0,0,.3-.3.37.37,0,0,0,.1-.3,5.22,5.22,0,0,0,1.1-.8,4.06,4.06,0,0,1,.9-1c.5-.5.8-1.1,1.3-1.6l1.9-2.1a.1.1,0,0,0,.1-.1,10,10,0,0,0,.9-1,8.78,8.78,0,0,1,1.2-1.5,1,1,0,0,0,.4-.7,10.7,10.7,0,0,1,1.4-1.6l-.1-.1A14,14,0,0,1,34,38.9c0-.1.1-.2.1-.4s.6-.4.7-.7a2.39,2.39,0,0,1,.3-.9c.1,0,.1,0,.1.1v.2h.1c.1-.1.2-.2.2-.3v-.2a1.42,1.42,0,0,1,.2-.6c.1,0,.1-.2.1-.3s.1-.4.3-.4c.2-.2.1-.5.2-.8s.1-.4.3-.4.2-.1.2-.2v-.3c.1-.5,0-.4.6-.6V33c.1-.1.1-.1.1-.2v-.2c0-.2.1-.4.3-.4l.4-.5h.1a.1.1,0,0,1,.1.1c0,.1.1.2.1.3a.35.35,0,0,0,.2.1c.2,0,.3,0,.3.1a.1.1,0,0,0-.1.1,2,2,0,0,1-.2.9.55.55,0,0,1-.5.3H38c-.1,0-.2.1-.3.2a1.08,1.08,0,0,0,.3.7c.1,0,.1.2.2.3s.1.2,0,.2-.1.2,0,.2v.2a1.85,1.85,0,0,1-.2.7.6.6,0,0,1-.1.4h-.1v-.6h-.1c-.2-.2-.1-.5-.2-.7a.35.35,0,0,1,.1-.2.31.31,0,0,1-.2-.1.1.1,0,0,0-.1.1,4.05,4.05,0,0,1-.5.9l-.2.5c-.1,0-.2.1-.3.2a.27.27,0,0,0-.3.3V37c0,.1-.1.2-.1.3a4.22,4.22,0,0,1-.3,1.2c-.1,0,0,.1,0,.1h.2c.1-.1.3-.2.3-.4s.2-.4.4-.4.4,0,.5-.2.1,0,.1,0a1.08,1.08,0,0,1-.2.8c-.1.1-.3.2-.3.3l.3.4c.2.1.2.1.3.1a.6.6,0,0,1,.1.4v.3s0,.2.1.2H38C38.3,40.1,38.3,40.2,38.3,40.3ZM.5,54.1v.1l.1.1H.7A.22.22,0,0,0,.5,54.1Zm6-22.6a.73.73,0,0,0,.2-.6v-.3c.1-.3.3-.4.5-.7s.3-.5.3-.8l.1-.1.3-.4a12.66,12.66,0,0,1,.6-1.8.1.1,0,0,0-.1-.1v-.1q-.3.15-.3.3a1.42,1.42,0,0,0-.2.6,1.49,1.49,0,0,0-.4.9,4.17,4.17,0,0,1-.6.8,1.22,1.22,0,0,1-.4.9c0,.1.1.1.1.2s-.3.4-.4.6a3.82,3.82,0,0,1-.4,1.3,4.4,4.4,0,0,0-.2,1l-.1.1a.1.1,0,0,0,.1.1l.1-.1c.1-.1.1-.1.1-.2v-.2a.76.76,0,0,1,.2-.5A4.05,4.05,0,0,0,6.5,31.5Zm3,2.3a.85.85,0,0,0-.2.6v.4a1.79,1.79,0,0,1,1,.9h.3c.1,0,.1-.1.2-.2a3.24,3.24,0,0,1,.8-.9,8.54,8.54,0,0,0,1.1-1.4c.1-.1.1-.3.3-.4l.5-.7a5.58,5.58,0,0,1,.5-.8,1.42,1.42,0,0,1,.2-.6,5.5,5.5,0,0,1,.7-.9c.3-.2.3-.7.5-1a2.49,2.49,0,0,0,.1-.8.94.94,0,0,0,.4-.9,3.55,3.55,0,0,1,.4-.9,1.91,1.91,0,0,0,.3-.8.37.37,0,0,0-.1-.3v-.2c0-.2,0-.2.2-.2h.2a.35.35,0,0,1,.1-.2.1.1,0,0,1-.1-.1v-.1c0-.1,0-.1-.1-.1s-.1-.1-.1-.2,0-.1.1-.2a.31.31,0,0,0,.1-.2l-.2-.1c0-.1-.1-.2,0-.2.2-.2.2-.3.2-.4a.6.6,0,0,0-.1-.4c-.1-.3,0-.5-.2-.8v-.1c0-.1,0-.1.1-.1s0-.1.1-.1a.31.31,0,0,1,.1-.2h-.6a12.49,12.49,0,0,0-.9,1.2.1.1,0,0,0-.1.1v.1a4.19,4.19,0,0,0-1.2,1.5l-.1.1a3.45,3.45,0,0,0-.8.9.52.52,0,0,0-.2.4v.1c-.1.3-.3.4-.4.6s-.2.4-.4.6c-.1,0-.2.2-.2.2a3.54,3.54,0,0,0,.1.6c-.2.2-.4.4-.4.6v.3c-.2.2-.3.2-.3.3a1.23,1.23,0,0,0-.4.8v.2c0,.2-.2.3-.3.4l-.4.4v.1a7,7,0,0,1-.7,2.2v.6A.37.37,0,0,1,9.5,33.8Zm10-7.5c.1,0,.2,0,.2-.1a.37.37,0,0,0,.1-.3v-.1l-.1-.1h-.1c0,.1-.2.2-.2.3A.37.37,0,0,0,19.5,26.3Zm0-5.1c0,.1,0,.2.1.2a.22.22,0,0,0,.2.2c.1,0,.2-.2.2-.2l-.3-.4h-.1C19.5,21,19.5,21.2,19.5,21.2Zm.6.8c-.2,0-.3,0-.4.1v.5a.75.75,0,0,0,.1.5.76.76,0,0,1-.2.4,1.08,1.08,0,0,0,.2.7,1.44,1.44,0,0,1-.2.3v.2c0,.1,0,.1.1.1a.31.31,0,0,0,.2-.1.6.6,0,0,0,.4-.1.8.8,0,0,0,.7-.9v-.4c0-.1-.1-.2-.2-.3s-.3-.2-.4-.4-.1-.3-.2-.5C20.3,22,20.1,22,20.1,22Zm.4.4c.1,0,.1.1.2.1h.1v-.2a.35.35,0,0,0-.1-.2l-.1.1A.31.31,0,0,0,20.5,22.4Zm.4,2.8v.1l.2.8h.2a1,1,0,0,1,.4-.5l-.1-.2c-.1,0-.1-.1-.1-.2s0-.1.1-.2v-.1a.37.37,0,0,0-.3-.1C21.1,24.9,21.1,25.1,20.9,25.2Zm.4-1.2v.4a.1.1,0,0,0,.1.1c.3-.2.3-.3.5-.5v-.1c-.1-.1-.2-.3-.4-.4h-.1A4.33,4.33,0,0,1,21.3,24Zm4.5,30.8c-.1-.1-.1-.1-.1-.2h-.2a.35.35,0,0,0-.1.2s0,.1.2.1h.1A.1.1,0,0,1,25.8,54.8Zm2.2-.5a.1.1,0,1,1-.2,0,.1.1,0,0,0,.1-.1A.1.1,0,0,1,28,54.3Zm5.5-5.8L33,49c-.1.1-.1.2-.2.2s-.1-.1-.1-.2a.27.27,0,0,0-.3-.3c-.1,0-.2,0-.2-.2v-.2c.1-.1.3-.1.5-.3a.1.1,0,0,1,.1.1.55.55,0,0,0,.5.2C33.4,48.4,33.5,48.4,33.5,48.5Zm.6-2v.1a.65.65,0,0,1-.6.6h-.1l-.1-.1s0-.2.1-.2a.27.27,0,0,0,.3-.3v-.2h.1A.37.37,0,0,1,34.1,46.5Zm2.3-1.6c0-.1.1-.1.2-.1a1.49,1.49,0,0,0-.3.7c-.1.1-.2.2-.2.1v-.3A.37.37,0,0,1,36.4,44.9Zm.3-5.1c-.1-.1-.1-.2-.1-.4h-.1v.2a.31.31,0,0,0,.1.2v.1A.1.1,0,0,0,36.7,39.8Zm.4-2.8v.1c-.1.2-.2.2-.4.3a.1.1,0,0,0-.1-.1v-.1l.3-.3C36.8,36.8,37,36.9,37.1,37ZM39,38.2v.1l-.2.6a.49.49,0,0,0-.1.3c-.1.2-.1.2-.1.3s0,.3-.3.3c-.1,0-.4-.2-.3-.3a1,1,0,0,0,.3-.8v-.3a.6.6,0,0,1,.1-.4,1.14,1.14,0,0,1,.3-.8V37c0-.1,0-.2.1-.2s.1,0,.1,0H39a.35.35,0,0,0,.1.2.1.1,0,0,1-.1.1c0,.1-.1.2-.2.4s-.1.1-.1.2.1.1.2.2A.37.37,0,0,1,39,38.2Zm-1-7.1c0-.1.1-.3.2-.3h.5a.37.37,0,0,0-.1.3c.1,0,.1,0,.1.1a.22.22,0,0,1-.2.2C38.3,31.4,38.2,31.3,38,31.1Zm1.2,10.1a.45.45,0,0,1-.3.3c0-.2.1-.3.2-.5l.1.1Zm.6-1.3a.37.37,0,0,1-.1-.3c0-.1,0-.2.1-.2a.1.1,0,0,1,.2,0c0,.2,0,.4-.2.5,0,.1,0,.1-.1.1S39.7,39.9,39.8,39.9Z"/><path d="M52.9,61.6c0-.1-.1-.3-.1-.4v-.5a3.44,3.44,0,0,0-.1-.9.65.65,0,0,0-.2-.5,9.68,9.68,0,0,0,.3-1.1v-.4a1.75,1.75,0,0,1-.1-.5v-.5c0-.4,0-.6-.2-.8,0-.1.4-6.6.4-7.9v-.2c.1-.1.4-.1.5-.1v-.4q0-.15-.3-.3c-.1-.1-.1-.2-.1-.4v-.2a.37.37,0,0,1,.1-.3.46.46,0,0,0,.3-.5c.1,0,0-.1,0-.1s-.1-.1-.3-.1a.1.1,0,0,1,.1.1c0,.1-.1.1-.2.1s-.2.2-.3.2l-.1-.1h-.2c-.5,0-.8.2-.8.5s-.4.5-.6.7-.4.2-.4.5-.3.1-.3.3v.1l-.6.9v.1a2.42,2.42,0,0,0-.6,1.1s-.1.2-.2.2a1,1,0,0,0-.7.4l-.3.5-2,1.6a3.81,3.81,0,0,0-1,.3c-.1.1-.2.2-.3.2a7.44,7.44,0,0,0-1.7.3h-.7a8.81,8.81,0,0,0-1.7.2h-.6a.76.76,0,0,1-.5-.2.4.4,0,0,0-.4-.2h-.4c-.2,0-.4-.1-.6-.1a1.27,1.27,0,0,0-.6-.1h-1c-.2-.1-.2-.3-.3-.3a6.81,6.81,0,0,0-1.2-1.2l-.3-.3-.5-1c-.4-.3-.7-.5-.7-.9,0-.2-.2-.3-.3-.5s0-.2.1-.2.3,0,.3-.1-.1-.3-.2-.3,0-.1-.1-.1h-.1v.1h-.3l-.2-1c-.1-.2-.2-.2-.2-.4s.1-.2.1-.3h.1c0,.1,0,.1.1.1v.1a1.07,1.07,0,0,0,.2.6c0,.1.1.2.1.3s.1.2.2.2l.1-.1v-.7a.4.4,0,0,1,.2-.4,1,1,0,0,1-.1-.3,4.3,4.3,0,0,1-.2-1.2V43.7a.37.37,0,0,1,.1-.3v-.7a1.23,1.23,0,0,1,.8-.5c0-.2-.4-.3-.4-.5-.2,0-.2,0-.2-.1h-.1l.2-.2c.1-.1.6-.1.6-.4v-.6l-.1-.1c.1-.3.1-.7.2-.9s.1-.5.1-.8.1-.4.1-.6a3.63,3.63,0,0,1,.3-.7c.1-.2.3-.3.4-.4v-.1c0-.1.1,0,.1-.2v-.1l.4-.6c.1-.1.1-.4.1-.6l.4-.8a1.17,1.17,0,0,1,.2-.7l.2-.3a.6.6,0,0,1,.3-.6l.4-.3v-.4a3.53,3.53,0,0,0,.8-1.3c0-.3.1-.3.3-.4s.5-.3.5-.6c0-.1.1-.2.1-.3a7,7,0,0,0,.6-.9c.1-.2.4-.3.4-.5s.1-.2.3-.2l.5-.9c0-.1,0-.1.1-.1H41c.4-.4.4-.8.6-1.1a1.41,1.41,0,0,1,.6-.8c.3-.2.3-.6.7-1a3.45,3.45,0,0,1,1.3-1c.3-.2.4-.5.6-.7a.57.57,0,0,1,.6-.4l.5-.3c.2-.2.5-.4.6-.7l.1.2a1.33,1.33,0,0,1,.3.5c.1-.2.3-.2.3-.4a.76.76,0,0,0-.2-.4v-.1a5.36,5.36,0,0,0,1.1-.5,7.93,7.93,0,0,1,2.5-.5,1.27,1.27,0,0,1,.6-.1,2.2,2.2,0,0,0,.8.1c.1,0,.2.1.3.1s.2.1.3.1a2,2,0,0,1,.7.1,6.07,6.07,0,0,1,1,.7A12.49,12.49,0,0,1,56,22a1.61,1.61,0,0,0,.9.3c.1.1.1.1.2.1s.3-.2.4-.3.2-.2.2-.3-.1-.1-.1-.2.1-.2.3-.2l.3.2a.37.37,0,0,0,.3.1l.1-.1v-.1c-.3-.2-.7-.6-.7-.7,0-.3.1-.2.3-.4.7.2,1.6-4.2,1.7-4.2V16a3.17,3.17,0,0,0,.6-1.5c0-.2.1-.3.2-.5s.2-.1.3-.3.1-.3.3-.3a.71.71,0,0,1,.6-.3h.3c.3,0,.7-.1,1-.1a.86.86,0,0,1,.6.3.35.35,0,0,0,.2.1,2.12,2.12,0,0,0,1.2.8,2.11,2.11,0,0,0,1,.4c.4.3.8.4.8.8a2,2,0,0,0,.5.1,1.42,1.42,0,0,1,.2.6v.3c-.2.2-2.2,4.1-2.4,3.9v.3h-.1a.22.22,0,0,1-.2.2v-.2a.31.31,0,0,1-.2-.1c-.2,0-.3.1-.4.1v.2h.7v.3q-.3.15-.3.3a1,1,0,0,0,.1.3l.2.2a.1.1,0,0,1-.1.1c0,.1.1.3.1.4s0,.1-.1.2-.1.1-.1.2a1.35,1.35,0,0,1-.5.9c-.2.2-.1.4-.2.8v.4a4.28,4.28,0,0,0-.5,1.3v1.2a3.18,3.18,0,0,1-.3.9l-.2.2.2.4V29c-.2.3-.1.6-.3,1a1.61,1.61,0,0,0-.5,1.1v.4h-.3v.1c0,.2.1.3.1.4v.1c-.2.3-.3.3-.6.4l-.1.1c-.1,0-.1,0-.1.1s.1.3.2.3h.1c.1,0,.2,0,.2.1v.3a1,1,0,0,1-.1.4,6.11,6.11,0,0,0-.3,1.3c0,.1-.1.2-.1.3h-.5a.37.37,0,0,1-.3.1h-.2a.1.1,0,0,0-.1.1.27.27,0,0,1-.3.3c-.2,0-.4.1-.4.2s-.1.1-.2.1h-.3a.31.31,0,0,0-.1.2c0,.1,0,.1.1.1l.5.4c.1,0,.3,0,.3-.3,0-.1,0-.2.1-.2s.1-.1.2-.1a1.44,1.44,0,0,1,.3.2c.1.4.3.6.3,1v.1c0,.1,0,.1-.1.2s-.2.2-.2.3.1.1.1.2l-.1.1v.1c0,.1.1.2.1.3v.3a1.85,1.85,0,0,1-.2.7l-.2.2a.37.37,0,0,1-.3-.1l-.3-.2c-.3,0-.3,0-.3-.3s0-.4-.4-.4H59c-.1,0-.1.1-.2.1l.1.1c.1,0,.2,0,.2.1v.3a.52.52,0,0,0,.2.4c0,.1.2.1.1.2a.76.76,0,0,1-.4.1l-.1-.1V40c0-.1,0-.2-.1-.2h-.1c-.1,0-.1,0-.1.1s0,.1-.1.1-.1.1-.2.1a1.24,1.24,0,0,0-.2-.3c-.2,0-.2.1-.3.2s0,.2.1.2a.94.94,0,0,1,.7.5c0,.1,0,.1.1.1s.1,0,.3-.1.1-.1.2-.1c.1.2.4.3.6.6h-.2c-.1.1-.2.2-.3.2H59c-.2,0-.3.1-.3.2s-.3.3-.5.3a.1.1,0,0,0-.1.1l.3.4c0,.2.2.3.4.3a4.4,4.4,0,0,1,1,.2c.2.3.3.4.3.6.1,0,.1,0,.1.1v.2a.9.9,0,0,1-.1.5.76.76,0,0,0-.2.4v1.1a2.48,2.48,0,0,0-.1.9c0,.1.1.3.1.4s-.1.3-.1.4-.2.3-.2.5a.52.52,0,0,0,.2.4,6,6,0,0,1-.1,1.3,8.87,8.87,0,0,1-.1-1.3.1.1,0,0,0-.1-.1.1.1,0,0,1-.1-.1c-.1-.1-.2-.2-.3-.2a.22.22,0,0,0-.2.2c-.1,1.2-.2,1.9-.2,1.9a9.92,9.92,0,0,1-.1-1.7c0-.1-.1-.1-.2-.1a2.53,2.53,0,0,1,.1,1.1c0,2.4-.4,7.9-.9,8.2a.75.75,0,0,0-.1.5l.3.2a.1.1,0,0,0,.1-.1c.2,0,.2-.3.2-.4,0-.3.1-.3.2-.3a.76.76,0,0,0,.4.1c.2,0,.3,0,.3.3.1.1.1.4.1.5a20.08,20.08,0,0,0,.1,2.5v.3c-.1.3-.2.3-.3.3s-.1,0-.1-.3v-.6c-.1,0-.1-.1-.2-.1l-.1.1a8.36,8.36,0,0,1-.3,1.3l.1.1h.2c.1,0,.1,0,.3-.1,0-.2.1-.2.2-.2h.2s-.6,3.3-.9,3.4a1.49,1.49,0,0,1,.1.6v.1a.32.32,0,0,0-.3.3,6.62,6.62,0,0,1-1.5,2.2h-.2c-.1,0-.1-.2-.1-.6a6.18,6.18,0,0,1-.1-1.5V64.1a.35.35,0,0,0-.1-.2c-.1,0-.3,1.8-.6,1.8l-.1-.1-.2-.1h-.7a1,1,0,0,0-.9.6,8.56,8.56,0,0,1-.7-3.3,1.76,1.76,0,0,1-.1-.6.37.37,0,0,1,.1-.3Zm-20.5-16,.1-.1.1.1v.7a.77.77,0,0,1-.2-.5Zm15.7-19a.52.52,0,0,0-.2.4.1.1,0,0,0,.1.1v.2c-.3.1-.3.4-.5.6s-.5.6-1,.9V29c-.1.3-.4.4-.6.5a.75.75,0,0,0-.4.7c-.1.3-.1.6-.6.8h-.1v.1c0,.4-.4.7-.6,1.1-.1.1-.2.2-.2.3v.1c0,.1-.1.2-.3.2-.1.3-.5.5-.6.9a.1.1,0,0,1-.1.1v-.1c-.2,0-.3-.1-.4-.3-.1,0-.2-.1-.2,0s-.1.4-.3.4a1,1,0,0,1,.1.3h.3c.1,0,.1,0,.2-.1v.1a2.48,2.48,0,0,0,.1.9l-.1.1a.37.37,0,0,1-.3-.1c-.1,0-.1,0-.1.2s-.2.3-.2.4c-.3.2-.1.3-.4.3h-.2c-.1,0-.2,0-.2.1l.1.1.3.5H42c0,.3,0,.4-.4.5-.1,0-.3,0-.3.2a1.7,1.7,0,0,0-.1.7.86.86,0,0,1-.3.6,4.5,4.5,0,0,0-.2.8.31.31,0,0,0,.1.2c0,.1.1.2.1.3a.76.76,0,0,1-.2.4c-.2.2-.3.5-.6.8s-.2.6-.6.8v.2c0,.7-.2,1.4-.2,1.9,0,.2.1.3.1.4v.3a.6.6,0,0,0-.1.4.9.9,0,0,0,.1.5c0,.1.1.2.1.3s-.1.2-.1.3v.5a11,11,0,0,1,.2,1.8c0,.1.1.2.2.4a1.18,1.18,0,0,0,.5.5,1.69,1.69,0,0,0,.5-.2l.5-.3a2.7,2.7,0,0,1,.8-.7,2.3,2.3,0,0,0,1-1.3c.1-.1.2-.2.3-.2a2.33,2.33,0,0,0,1.2-1.2c.2-.3.4-.6.6-.6a10,10,0,0,1,1.3-1.5L47.6,42a4.44,4.44,0,0,0,.8-1.1l.2-.4a1,1,0,0,0,.7-.8l.3-.4c.4-.2.6-.8,1.1-1.2a.76.76,0,0,0,.1-.4c.1-.1.1-.3.3-.5a1.74,1.74,0,0,0,.8-1.2c.2-.3.2-.5.5-.5h.1c.1,0,.1-.1.1-.2v-.1c0-.1,0-.3.1-.3a.52.52,0,0,0,.2-.4.74.74,0,0,1,.6-.5.63.63,0,0,0,.6-.5.31.31,0,0,0,.1-.2.76.76,0,0,1-.1-.4.75.75,0,0,1,0-1.2l.4-.5c.1-.1.1-.2.2-.2h.2c.2-.1.2-.3.4-.4h.1a.22.22,0,0,0,.2-.2,2.1,2.1,0,0,1,.4-1.1,1.88,1.88,0,0,0,.2-.8v-.1c-.1,0-.1,0-.1-.1a.31.31,0,0,1,.1-.2.35.35,0,0,0,.1-.2c0-.1-.1-.1-.1-.2s-.1,0-.1-.1a.31.31,0,0,1,.1-.2.37.37,0,0,0-.1-.3,5.24,5.24,0,0,1-1-1.1c-.2-.2-.4-.3-.5-.6a1.07,1.07,0,0,0-.2-.6,2,2,0,0,1-.6-.7c-.2-.1-.2-.3-.4-.4a2,2,0,0,0-1.3-.8h-.3c-.1-.1-.1-.1-.3-.1a1.69,1.69,0,0,0-.5.2,4.7,4.7,0,0,1-.9.6l-.2.2c-.1,0-.2.2-.2.3-.4.1-.5.4-.5.8v.2a1,1,0,0,1-.6.9v-.1c-.1-.3-.2-.4-.3-.4s-.1.1-.1.2.1.3.5.3C48.5,26.2,48.6,26.5,48.1,26.6Zm-5.3,6.7a.22.22,0,0,0,.2-.2.37.37,0,0,0-.1-.3.22.22,0,0,0-.2.2C42.7,33.1,42.7,33.3,42.8,33.3Zm9.7,13.8h-.1c-.2-.2-.3-.3-.3-.4v-.1l.1-.1a.1.1,0,0,1,.1.1c.1.1.2.2.2.3ZM56.9,45c0-.1-.1-.2-.1-.3s0-.1.1-.2v-.4a.6.6,0,0,1-.1-.4v-.3a.35.35,0,0,0-.2.1.85.85,0,0,0-.2.6v.3a.85.85,0,0,0,.3.6c.1.1.1.1.2.1Zm.3-3.3a1.42,1.42,0,0,0-.2.6.76.76,0,0,0,.1.4.35.35,0,0,1,.1.2c0,.1-.1.2-.1.3v.2c0,.1.1.1.2.2a.31.31,0,0,0,.2.1l.1-.1c-.1-.1-.1-.1-.1-.2l-.1-.1a2.77,2.77,0,0,1,.1-.9.37.37,0,0,0,.1-.3v-.4c0-.1-.2-.1-.4-.2.1,0,.1-.2.2-.3v-.1c-.3.1-.4.1-.4.2s.1.2.2.3Zm.1-2.1v.1a.1.1,0,0,0,.1-.1Zm.8,5.4c.2,0,.4.1.7.1h.1c.1-.2.2-.3.2-.4l-.1-.1a.76.76,0,0,1-.5.2s-.2-.2-.3-.2v-.2c0-.1,0-.2-.1-.2-.3,0-.5,0-.6-.2-.1,0-.2-.1-.2,0,.1.5.2.8.5,1Zm-.3,14.7h.3v-.1a1,1,0,0,0-.3-.1Zm.3-22.8h-.2a.35.35,0,0,0,.2.1h-.2a7.7,7.7,0,0,0,1.3.9c0,.1,0,0,.1,0A2.94,2.94,0,0,0,58.1,36.9Zm.1,8.9.2.2a.31.31,0,0,0-.1-.2Zm.1,2v.1s.1.2.1.1.1-.1.1-.2Zm.4,11.6a.35.35,0,0,0-.2-.1.1.1,0,0,1-.1-.1l-.1.1a.37.37,0,0,0,.3.2A.1.1,0,0,0,58.7,59.4ZM59,35.3v-.1c0-.2-.1-.3-.2-.3h-.1c-.1.1-.2.2-.2.3s.1.1.1.2.2,0,.2.1C58.9,35.4,59,35.4,59,35.3Zm-.4,7.9a.1.1,0,0,0,.1-.1.1.1,0,0,1-.1-.1Zm.6.7.2.2v-.2l.2-.4s-.2-.2-.3-.2-.1.2-.1.2a.31.31,0,0,1-.1.2A.31.31,0,0,1,59.2,43.9Zm.2,3.7v-.1a.35.35,0,0,1-.2-.1v.2Zm.2-5.5h-.1c-.1,0-.2,0-.2-.1s0-.1.1-.2h.1c.1.1.1.2.3.2Zm.2-7.4v.1c0,.1,0,.1.1.1h.3a.31.31,0,0,0-.1-.2c0-.1-.1-.1-.2-.1Zm.2,3.7h-.2v.1a.35.35,0,0,0,.1.2H60a.22.22,0,0,0,.2-.2A.31.31,0,0,0,60,38.4Zm0-.4v-.1a.1.1,0,0,1-.1.1Zm.2,1.3a.1.1,0,0,1,.1-.1.35.35,0,0,0-.1-.2H60a.37.37,0,0,0,.1.3Zm.1-5.5h.2c.2,0,.3,0,.3.1l.3.4h.3v-.1c-.1-.4-.6-.7-1-1a.44.44,0,0,1-.1.3Zm0,.5a.1.1,0,0,0,.1-.1h-.1Zm1-1.9.1-.1a.35.35,0,0,0,.1-.2c0-.1-.1-.1-.1-.2a1.58,1.58,0,0,1-.6-.5h-.3c-.1.1-.1.1-.1.2s0,.1.1.1l.6.7ZM61,34.7c0,.1.1.2.3.2h.1c0-.1,0-.1-.1-.2Zm.4,1.6v.1l-.1.1c0-.1-.2-.1-.2-.2Zm.9-9.9c-.1-.2-.2-.2-.3-.2a.49.49,0,0,0-.3-.1c-.1,0-.2,0-.2.1l.1.1c0,.1,0,.2.1.2a.6.6,0,0,1,.1.4c.1.1.1.1.1.2a.1.1,0,0,0,.1.1,1.49,1.49,0,0,0,.6.1c.1,0,.1,0,.1-.1v-.1a1.24,1.24,0,0,0-.3-.2A1.09,1.09,0,0,0,62.3,26.4Zm-.2,3.2c0-.1,0-.2-.1-.2a.77.77,0,0,1-.3.1v.1c0,.1.1.2.3.2C62,29.7,62.1,29.7,62.1,29.6Zm.4-6.5c-.4,0-.5.1-.5.2v.2a1.53,1.53,0,0,1,.5.7c-.1,0,0,.1,0,.2a.22.22,0,0,0,.2.2h.1a.76.76,0,0,1,.4-.1h.2c.1,0,.1-.1.1-.2l-.4-.3a.31.31,0,0,1-.1-.2,1.69,1.69,0,0,0,.2-.5c0-.1-.1-.1-.6-.2Zm0,7.1.1-.1a.35.35,0,0,0-.1-.2c0-.1-.1,0-.1.2Zm.5-4.3s0-.1-.2-.1-.2,0-.2.1a.1.1,0,0,0,.1.1C62.8,26,63,26,63,25.9Zm.7-3.6v-.1h-.2c-.1,0-.2,0-.2-.1h-.1a.37.37,0,0,1-.1.3.35.35,0,0,1,.1.2A.55.55,0,0,0,63.7,22.3Zm.5.5c0-.1,0-.2-.1-.2h-.3a.35.35,0,0,0,.1.2Z"/><path d="M99,58.2c-.2.3-.7.5-.9.8s-.3.2-.5.1h-.8c-.1,0-.3-.2-.4,0a1,1,0,0,1,.1.3c.3,0,.3.1.2.2s-.3.1-.4,0-.1-.2-.3-.2-.2.1-.3,0-.2,0-.2.2c-.3.2-.6.2-.8.4,0,.1-.1.2-.3.2s-.4.2-.7.4c.3.3-.1.3-.2.3a.37.37,0,0,0-.3-.1,2.81,2.81,0,0,0-.8.1c-.2.1-.4.2-.4.4,0,0-.1.1-.1,0-.3-.1-.4.1-.5.4-.1.1-.4.1-.4.1a1.33,1.33,0,0,0-.8.3v.1c-.1.2-.4.3-.5.2s-.2-.2-.4-.1,0,.3.1.4h.1c-.1,0-.2.1-.2,0a.91.91,0,0,1-.5-.3c-.1,0-.1,0-.1.2s-.1.1-.3.1-.2-.2-.4-.3-.2.1-.3.1a.1.1,0,0,1,.1.1.31.31,0,0,0,.2.1c.1.1,0,.3,0,.3a.76.76,0,0,1-.4.1H87a.1.1,0,0,1,.1-.1v-.3c-.2,0-.4,0-.4-.3a.37.37,0,0,0-.1-.3c0-.2-.1-.3-.2-.3a.14.14,0,0,0-.2,0c-.1.1-.1.2-.5.1,0,0-.2-.1-.3,0a1.45,1.45,0,0,1-.7.2h-.1a.1.1,0,0,1,.1.1h.6c0,.1.1.1.2.2s0,.2-.1.2h-.1c-.1,0-.2-.1-.3-.1a1,1,0,0,0-.3.1c-.3,0,0,.2,0,.4v.1c-.1,0-.4.2-.3.1-.3-.1-.7.1-.9.1s-.2.1-.3.2c-.3.3-.3.3-.6.1a.77.77,0,0,1-.2-.3h.1c.4-.1.4-.1.3-.3-.1,0-.1,0-.1-.1h.6l.1-.2-.1-.1h-.4c-.2,0-.2.2-.2.3a2.19,2.19,0,0,0-.5-.3v.2c0,.2.1.2.1.3a2.81,2.81,0,0,0-.8.1c-.3.2-.5.3-.7-.1h-.6c-.1,0-.1,0-.1.1-.2.1-.2.1-.1.2v.1c.1.1.1.5-.2.5a.9.9,0,0,1-1,.1,1.34,1.34,0,0,0-.5-.1,1.72,1.72,0,0,1-.8.1c-.2,0-.2,0-.1-.2s0-.3-.1-.3a.1.1,0,0,0-.1-.1.37.37,0,0,0-.3.1c-.1,0-.1.1-.2.2.1,0,.1.1.2.1s.2,0,.2.2,0,.3.2.3.5,0,.5.4H78c.1,0,.2.2.1.2s-.1.1-.2.1a.9.9,0,0,1-.9-.2.27.27,0,0,1-.3-.3c0-.2.1-.2.1-.3s-.2-.1-.3-.1a.75.75,0,0,1-.5-.1.35.35,0,0,0-.2.1c-.1.1-.4.2-.4.1-.3-.1-.7-.1-.9-.3a6.37,6.37,0,0,0-.9-.2c0-.1-.2.1-.2.1a.35.35,0,0,1,.1.2v.1l-.1.1a.76.76,0,0,1-.4-.1c0-.2-.3-.3-.4-.4a.1.1,0,0,1-.1.1c0,.1.1.3.2.3H73c.1.1.1.2.2.2h.6c.3-.3.3-.3.5-.1l-.1.1a1.6,1.6,0,0,0,1.1.4.75.75,0,0,1,.5.1c.2.1.4,0,.4.2s-.3.2-.5.2h-.5c-.4,0-.5-.1-.6-.3s-.2-.2-.2-.2-.2-.2-.2-.1v.1c0,.1,0,.3.1.3s0,.2-.1.2h-.1c-.2,0-.3-.2-.6-.2a.35.35,0,0,0-.1.2c-.1.3-.2.4-.4.3s-.2-.1-.4-.1a3.08,3.08,0,0,0-.9-.1c-.1-.1-.2-.1-.3-.2a3.19,3.19,0,0,0-.7-.6,1.2,1.2,0,0,1-.2-.8c0-.1.1-.2.3-.2,0,.1,0,.1.1.2h.5c-.1-.1-.1-.3-.3-.4s-.2-.1-.4,0-.2-.1-.2-.1c-.1-.5-.5-1-.6-1.5a1.85,1.85,0,0,1-.2-.7c0-.1.1-.2,0-.3-.5-.4-.4-.9-.5-1.4-.1-.2,0-.4-.1-.7a1.85,1.85,0,0,1,.2-.7c.2-.2.2-.4.4-.6a.55.55,0,0,1,.4-.6,3.39,3.39,0,0,0,.6-.6,3.74,3.74,0,0,1,.6-.7c.1-.2.2-.2.3-.2.6-.2.6-.2.9-.6.2-.1.3-.3.6-.4,0-.1.2-.2.4-.3.1-.3.5-.4.9-.7.1,0,.3-.1.4.1s.4.2.6.1a6.66,6.66,0,0,1,1.2-.6c.2-.1.3-.2.5-.1s.4.1.8.1c.1,0,.1-.1.2-.2.2-.3.3-.3.5,0,.2,0,.2.1,0,.2a9.38,9.38,0,0,0-1.5.6s-.2.1-.1.2.1.2.1.3.1.3-.1.4v.5c-.1.2-.1.2,0,.2s.2.2.4.4c0,.1,0,.2-.2.3v.1a5.64,5.64,0,0,0-2,1.1c-.3.2-.4.2-.1.5,0,.2-.3.4-.4.6s.1.3.4.3H76a2.7,2.7,0,0,0,.9,0h.4a2.72,2.72,0,0,0,.9,0h.7a.63.63,0,0,1,.6,0h.3c.7-.2,1.3-.3,1.8-.4a1.48,1.48,0,0,0,.7-.1,1,1,0,0,0,.4-.1,5.5,5.5,0,0,1,1.6-.3c.4,0,.5-.2.8-.2a22.88,22.88,0,0,0,3.1-.9,6.15,6.15,0,0,1,1.1-.3c.8-.3,1.6-.7,2.5-1.1a3.39,3.39,0,0,0,1.4-.9,2,2,0,0,1,.8-.4,1.58,1.58,0,0,0,.7-.7c.1-.1.2-.3.3-.4a.1.1,0,0,0-.1-.1c-.3-.1-.3-.2-.6-.3s-.7-.2-.7-.5c0-.1-.2-.1-.3-.1a3.88,3.88,0,0,1-1.7-.6c-.3-.1-.6-.4-1-.3-.1,0-.2-.1-.3-.1s-.1-.1,0-.3-.2-.2-.3-.2a1.07,1.07,0,0,1-1.1-.1c-.1-.1-.3,0-.5.1-.3-.1-.5-.4-.7-.6s-.3-.3-.7-.2l-.1-.1v-.1a.31.31,0,0,0,.1-.2c-.2-.3-.5-.2-.7-.2a.22.22,0,0,0-.2.2s0,.2-.1.2a3.33,3.33,0,0,1-1,0v.1l-.1.1c-.2-.1-.5-.2-.5-.4a.35.35,0,0,0-.1-.2,2.18,2.18,0,0,1-.8-.5.35.35,0,0,1-.2.1v.3a.1.1,0,0,0,.1.1h.4c.1,0,.1.1.1.2a.22.22,0,0,0-.2.2.35.35,0,0,1,.2.1.1.1,0,0,0,.1.1h-.3c-.2-.1-.4-.1-.4-.3-.3-.1-.5-.2-.5-.4v-.2c-.2-.1-.3-.2-.5-.2h-1c-.3.2-.4.2-.4,0V48a6.13,6.13,0,0,0-.6-.4H80c-.1-.1-.2-.4-.4-.4s-.6,0-.7-.3h-.4a11.4,11.4,0,0,1-1.9-1c-.5-.2-.8-.6-1.2-.6-.1,0-.2-.1-.2-.3s-.1-.2-.4-.3a1.79,1.79,0,0,1-.5-.7c-.2-.1-.3-.4-.4-.5a8.65,8.65,0,0,1-1-.7c.1-.2-.1-.3-.3-.4v-.1c0-.4-.2-.4-.5-.5a3.39,3.39,0,0,1-.9-1.4c.1-.1,0-.3,0-.4a.71.71,0,0,1-.3-.9.59.59,0,0,0-.2-.5,9.51,9.51,0,0,0-.4-1.8v-.9a1.69,1.69,0,0,1-.3-1,7.08,7.08,0,0,0,.1-1.4c.1-.2.1-.4.2-.5a3,3,0,0,1,.2-1,4.76,4.76,0,0,1,.8-1.8c.2-.2.3-.5.5-.6v-.3c-.1-.2.1-.4.3-.5a2,2,0,0,0,.7-1,1.38,1.38,0,0,1,.3-.4c.1-.2.3-.4.3-.6a1.08,1.08,0,0,1,.7-.3h.1a.55.55,0,0,0,.5-.3,5.73,5.73,0,0,0,1.1-1.1,2.18,2.18,0,0,0,.4-.5,5,5,0,0,0,.7-.5c.1-.2.5-.3.5-.5.4-.2.7-.4.9-.5s.3-.3.6-.6a6.89,6.89,0,0,1,1.3-1.1,10.54,10.54,0,0,0,1.1-.7.35.35,0,0,1,.1-.2c.3-.5.8-.6,1.3-.8.3-.2.9-.2,1.1-.5.1-.1.3-.2.4-.3s.2-.1.4-.2.4-.3.6-.2a.55.55,0,0,0,.5-.3,1.62,1.62,0,0,1,.9-.5c.1-.1.1,0,.1,0a1.8,1.8,0,0,0,1,.1.1.1,0,0,0,.1-.1,5.92,5.92,0,0,0,.6-.4h.3c.3-.5.8-.4,1.1-.5a2,2,0,0,0,.7-.1c.2,0,.4-.2.6-.3.4,0,.6-.1.9-.1a.19.19,0,0,1,.3,0c.1.1.2.1.4-.2h.1c.1.1.3.1.3,0a.57.57,0,0,1,.7-.2h.6c.1,0,.3-.1.3-.2-.1-.3.1-.4.4-.4a1.42,1.42,0,0,0,.6-.2c.1,0,.1-.1.2-.1a2,2,0,0,1,.8,0,4.12,4.12,0,0,1-.8.3.22.22,0,0,0-.2.2h0a5.76,5.76,0,0,0,1-.2c.2,0,.4-.1.5,0s.4-.2.2-.3h-.1c0-.2,0-.3.1-.4h1.1a3.81,3.81,0,0,1,1.5-.1.27.27,0,0,0,.3-.3h.1a1.55,1.55,0,0,1,.8.2c.4,0,.9.3,1.3.3a.32.32,0,0,1,.3.3,2.12,2.12,0,0,1,.3.7,1.08,1.08,0,0,0,.8.9c.2,0,.3.2.3.4v.6c.1.1.1.2-.1.4a3.79,3.79,0,0,1,0,1.5,3.4,3.4,0,0,0-.1,1,.63.63,0,0,1,0,.6l-.1.1a.31.31,0,0,1-.2-.1c0-.1-.1-.2-.1-.3s-.5-.1-.5-.2a.1.1,0,0,0-.1.1v.1a.46.46,0,0,0,.5.4.37.37,0,0,1,.1.3.31.31,0,0,0-.1.2v.8s0,.1-.2.1a3.51,3.51,0,0,1-.5-.8c-.2-.5-.6-.6-1.2-.7h-2c-.1,0-.2.1-.4.1a2.72,2.72,0,0,1-.9,0c-.1,0-.2.1-.4.1a2.07,2.07,0,0,1-.6.2c-.1,0-.2,0-.2.1-.3.2-.7.1-1.1.3a4.22,4.22,0,0,1-1.2.3c0,.1-.2.1-.2.1a2.38,2.38,0,0,1-1.2.3c-.1,0-.2.1-.3.2a3.13,3.13,0,0,1-1,.5,3.85,3.85,0,0,0-1.2.5c-.4,0-.7.4-1.2.4-.2.1-.5.2-.7.3s-.1.3-.2.3c-.5,0-.5.2-.6.5a.35.35,0,0,1-.2.1c-.1-.1-.3,0-.3,0-.4.3-.7.3-.9.6a5,5,0,0,1-1.3.7c-.3,0-.5.4-.9.4v.3c-.4.3-.6.6-.9.7a1.2,1.2,0,0,0-1,.7.37.37,0,0,1-.3.1c-.3,0-.4,0-.5.2,0,.4-.2.5-.6.7-.1,0-.1,0,0,.2a.22.22,0,0,1-.2.2,10.63,10.63,0,0,0-1.1.9v.1c-.1.2-.1.3-.2.3a.68.68,0,0,0-.4.3c-.2.2-.4.3-.5.2s-.1.1-.2.1a.37.37,0,0,1-.1.3l-.3.3a.72.72,0,0,1-.4.7c-.5.2-.7.3-.8.6a.1.1,0,0,0-.1.1c.1.4-.3.7-.5,1a.51.51,0,0,1-.4.6c-.1,0-.2.2-.2.2a.6.6,0,0,1-.1.4.19.19,0,0,0,0,.3c.2.7,1.1,1.3,1.8,1.7a1.88,1.88,0,0,1,.9.4c.1,0,.1.1,0,.2s0,.2.1.3a1.24,1.24,0,0,0,.3.2c.4,0,.6.1.8.1l.2.2a1.38,1.38,0,0,0,1.1.1c0-.1.3,0,.4.2a1.68,1.68,0,0,0,1.4.8.88.88,0,0,0,.7.1V41h.2a.1.1,0,0,1-.1-.1h-.1a.35.35,0,0,1,.2-.1c.4,0,.6.3,1.2.4,0,.2,0,.3.2.4h.4a2.65,2.65,0,0,1,1.3.1c.5.1.8.3,1.2.4a1.61,1.61,0,0,1,.9.3,2.5,2.5,0,0,0,1.3.4l1.1.3c.1.1.2.1.4.1.5.3,1,.4,1.4.7a1.42,1.42,0,0,1,.6.2,1.5,1.5,0,0,1,1.1.4c.4.1,1,.5,1.4.6a1.37,1.37,0,0,1,1.1.4,1.63,1.63,0,0,0,.6.3,3.33,3.33,0,0,0,1,.6.77.77,0,0,0,.3.1c.2,0,.2.2.3.2.2.2.4.2.6.3s0,.3.2.5a2.48,2.48,0,0,1,1.2,1.5.85.85,0,0,1,0,.7.37.37,0,0,1-.3.1c0-.1-.1-.2-.1-.4,0,0-.1-.1-.1,0s-.2.1-.1.1v.8c0,.1-.1.2,0,.3-.1.1.3.1.2.2,0,.3.1.3.2.4a.35.35,0,0,0,.1.2c-.2.4.2.9,0,1.3-.1.2-.2.4-.1.5a.93.93,0,0,1-.1.7c-.1.1-.1.2,0,.4a1.7,1.7,0,0,1,0,1c0,.2-.3.2-.4.2a.6.6,0,0,0-.4-.1h0a2.2,2.2,0,0,0,.1.8c.1.1,0,.2-.2.3,0,.1-.1.2,0,.3,0,.4-.3.4-.5.5s-.3.1-.3.3l-.1.1c0-.1-.3-.1-.3-.2h0C99.4,57.9,99.4,58,99,58.2Zm-27.4,6c-.1,0-.1.2,0,.1s.1,0,.1-.1Zm.4.5s-.1-.1-.1,0h-.1v.4h.4C72.1,64.9,72.1,64.8,72,64.7Zm1.6-10.5c-.1.1-.1.1,0,.1h.2C73.6,54.3,73.6,54.2,73.6,54.2ZM74.4,26v.1c0,.1-.2.3-.3.4A.46.46,0,0,1,74.4,26Zm-.3,39.7v-.1l.2.2h-.1A.1.1,0,0,1,74.1,65.7Zm1-1.9v-.1c0,.1,0,.1-.2.1,0,0,.2,0,.2.1Zm0,1.9a.1.1,0,1,1,.1.1Zm.3-1.8h.5a.1.1,0,0,0,.1-.1c-.1,0-.1-.2-.1-.2a4.33,4.33,0,0,1-.5.1v.2Zm.1-11.1h.1a.1.1,0,0,0-.1.1Zm.7,11.8h.1c-.1,0-.1,0-.1-.1Zm1.4-25.9s.2-.1,0-.1a.1.1,0,0,0-.1-.1v.2Zm0,26.9v0Zm.3-1.8a.78.78,0,0,0,.4-.4.46.46,0,0,0-.5.3A.1.1,0,0,1,77.9,63.8Zm1.3,1v.1h0c-.3,0-.4,0-.5.1s-.3-.1-.4-.2v-.2c.1,0,.3.1.4.1A1.75,1.75,0,0,1,79.2,64.8Zm-.4-1.2c.1-.1.1-.2,0-.1h-.1C78.6,63.6,78.7,63.6,78.8,63.6Zm.8-24.4h0Zm.1,0c.2.1.2.1,0,.3C79.7,39.5,79.6,39.3,79.7,39.2Zm.2,7.3c.1,0,.1,0,.1-.1h-.3v.1Zm-.1,18.4v-.2a1.82,1.82,0,0,1,1.1-.4c.1.1.4-.1.7-.1s.4.1.3.3a4,4,0,0,1-1.1,0c-.1,0-.2.1-.3.2a.73.73,0,0,1-.6.2Zm.7-1-.2-.1c.2-.1.2-.2.2-.2a.6.6,0,0,1,.4.1.35.35,0,0,1,.1.2l-.1.1h-.2C80.6,64,80.6,63.9,80.5,63.9Zm.2-42.1h.1c0-.1,0-.1-.1-.2a.1.1,0,0,0,0,.2ZM81.3,63h0Zm2.5-38.5a2.09,2.09,0,0,0-.6.4,5.58,5.58,0,0,0-.8.5c-.3.1-.5.4-.8.6,0,.1,0,.1.1.2s.2.1.2,0a.82.82,0,0,0,.5-.5c.3-.1.4-.3.8-.4a2.17,2.17,0,0,0,.7-.6c.1,0,0-.1,0-.1ZM82.3,47.4v-.1H82c0,.1,0,.1.2.2A.1.1,0,0,1,82.3,47.4ZM82,40.2h.1c.2,0,.2.1.3.2v.1a.1.1,0,0,0-.1.1C82.2,40.5,82.1,40.3,82,40.2Zm.6,18.3c-.2,0-.3,0-.4-.1v.1h0a.22.22,0,0,1,.2.2.14.14,0,0,0,.2,0l.1-.1C82.7,58.5,82.7,58.5,82.6,58.5Zm-.3,4.6c.1.1.1.1.1.2S82.3,63.2,82.3,63.1Zm.2,1-.1-.1h.5a.76.76,0,0,0,.4-.2l.2-.2h.9c.2-.1,0,0,0,.1s0,.3-.1.3a.76.76,0,0,0-.5.2c-.3.1-.8-.1-1,.1C82.7,64.3,82.6,64.2,82.5,64.1ZM83,47v.1c0-.1,0-.1.2-.1Zm.5-4.9h-.1a.45.45,0,0,0,.3.3v-.1A.22.22,0,0,0,83.5,42.1Zm.6,20.3-.1-.1h-.2c0,.1,0,.1.1.2H84C84,62.4,84,62.4,84.1,62.4Zm-.2,2.2a.1.1,0,0,1,.1-.1h.3v.2H84A.1.1,0,0,1,83.9,64.6Zm.4-15.2v.1c-.1,0-.2-.1-.3-.2C84.1,49.3,84.3,49.3,84.3,49.4Zm.5-24.1h-.2a.1.1,0,0,0,.1.1c-.1,0-.4,0-.5.2v.1c.2,0,.2-.1.5-.3C84.8,25.4,84.9,25.4,84.8,25.3Zm.4-1.1a1.13,1.13,0,0,1,.8-.5s.2-.2.3-.2a.1.1,0,0,0,.1-.1c-.1,0-.2-.1-.3-.1a.68.68,0,0,0-.5.3c-.2.1-.2.2-.3.2-.3,0-.5.2-.9.4,0,.1.2.1,0,.1C84.8,24.3,85,24.2,85.2,24.2Zm-.3,23.1Zm.7,17.1v.1H85c0-.1.2-.2.2-.2h.2A.35.35,0,0,0,85.6,64.4Zm-.1-1.1h.1c.3,0,.4.2.3.2h-.3A.35.35,0,0,1,85.5,63.3ZM86.3,50v.1a.44.44,0,0,1-.3.1.1.1,0,0,1-.1-.1V50h.4Zm.1-31.9c0,.1.1.1.2.1a.1.1,0,0,1,.1-.1Zm.7,4.7c-.2-.2-.4-.1-.5.1a.35.35,0,0,1,.1.2.76.76,0,0,0,.4-.1l.2-.1S87.1,22.9,87.1,22.8ZM86.7,50l.1-.1H87a.1.1,0,0,1,0,.2h-.1A.31.31,0,0,1,86.7,50Zm.6,11.6c0-.1-.3.1-.5.2,0,.1.2,0,.3.1s0,.2.2.2h.2C87.6,61.8,87.6,61.7,87.3,61.6Zm.5-39.1a6.6,6.6,0,0,1,1.1-.4L89,22h-.1c0-.1-.2-.1-.3,0a4.5,4.5,0,0,1-.8.2,1.33,1.33,0,0,0-.5.3.1.1,0,0,0,.1.1c0,.1,0,.1.1.1S87.7,22.6,87.8,22.5Zm.3,1v-.1h-.2c-.2,0-.3.1-.4.4h0Zm0,25.4c.2-.1.3-.2.3-.4.2,0,0-.1.2-.2,0-.1-.4,0-.6.1,0,.1-.1.2-.1.3s0,.1,0,.2ZM88.3,17v.1c0,.1-.4.2-.4,0V17a1,1,0,0,1,.3-.1C88.3,16.9,88.4,16.9,88.3,17Zm0,4.6a.1.1,0,0,0,.1-.1v-.2h-.2c-.1.1-.1.1-.1.2a.1.1,0,0,0-.1.1h.3Zm.3,28.6h-.2v-.1S88.4,50.2,88.6,50.2Zm.3-29.7c.1-.1,0-.2-.2-.2a.1.1,0,0,0-.1.1.35.35,0,0,0,.1.2C88.8,20.6,88.9,20.6,88.9,20.5Zm0,.8v-.1C88.8,21.2,88.8,21.2,88.9,21.3ZM89,48.7v-.2a.1.1,0,0,1-.1.1Zm.5,14.5-.1.1q0,.15-.3.3a.35.35,0,0,1-.1-.2s0-.1.2-.2h.3Zm-.3-12.6c.1,0,0,.1.1.1v.1h-.2C89.1,50.7,89.1,50.7,89.2,50.6Zm.5-29.8h0v-.1c-.2,0-.2.1-.3.2l-.2.1h.1l.1-.1A.37.37,0,0,0,89.7,20.8Zm-.2,28.5h.1a.35.35,0,0,1-.2-.1v.1Zm.3-.7c0,.1.2.2.3.2a.1.1,0,0,0,.1-.1v-.1c-.1-.1-.2-.1-.4-.2a.1.1,0,0,1-.1.1A.1.1,0,0,0,89.8,48.6Zm.8-28.4a4.17,4.17,0,0,0-.6.2v.2a.37.37,0,0,0,.3.1c.3-.1.6-.1.8-.3a9.36,9.36,0,0,1,1.6-.4,2.93,2.93,0,0,1,1-.3,2.73,2.73,0,0,1,1.4-.4,8.58,8.58,0,0,1,1.7-.3v-.1c.2-.2.5-.1.8-.1a3.54,3.54,0,0,1,.6-.1c.1,0,.4-.1.4,0a2.93,2.93,0,0,0,1,.3c0,.2.2.2.3.2s.2,0,.2-.1a.1.1,0,0,0-.1-.1c0-.2.1-.2.3-.3h.2c0,.2,0,.4.3.4h1l.1-.2c0-.2.2-.4-.1-.4a.6.6,0,0,0-.4-.1,3.11,3.11,0,0,1-.6-.4.67.67,0,0,0-.7-.4.6.6,0,0,1-.7,0s-.3,0-.4.1c-.1.3-.3.2-.6.2a2.2,2.2,0,0,0-.8.1c0,.1-.1.1-.2.1a1.07,1.07,0,0,0-.6.2h-.5c-.2,0-.5,0-.5.2a1,1,0,0,1-.8.3,2,2,0,0,0-.8.1c-.1.1-.2,0-.5-.1a1,1,0,0,0,.1-.3c.2-.2.4-.2.5-.3h.1a.1.1,0,0,1-.1-.1,3.08,3.08,0,0,1-1,.1c0,.1-.1.1-.2.2l-.3.3c0,.1.2.1.3.1h.1c0,.1.1.3,0,.3,0,.2,0,.2-.1.3h-.4v.1c0,.2,0,.2-.3.2H92c-.1,0-.3.2-.5.3h-.7a.45.45,0,0,1,.3-.4c0-.1,0-.2.2-.3s.4,0,.3-.2-.3,0-.5-.1H91c-.4,0-.6.3-.9.5v.1c.1,0,0,.2.2.2.4-.2.3.1.5.2C90.7,20,90.7,20.1,90.6,20.2Zm-.5-4.3a.1.1,0,0,1,.1-.1h.1v.1c-.1,0-.1,0-.2.1Zm1.2,45.3.1-.1v-.3c-.3,0-.4,0-.5-.1s-.1-.2-.3-.1a.46.46,0,0,0-.3.5,1.42,1.42,0,0,0,.6.2C91,61.3,91,61.3,91.3,61.2Zm-.5-40.1V21h-.3v.1c0,.1.1.1.3.2Zm.8,29.5h.1v-.2c-.2-.2-.4-.2-.9-.1a.35.35,0,0,0-.1.2v.1h.9Zm-.6-.9Zm1.3-31a.37.37,0,0,1-.3.1v.1c.2.2.3,0,.4-.1A.1.1,0,0,0,92.3,18.7Zm.4,30.9v-.2l-.2-.1a2.09,2.09,0,0,0-.4.6l.1.1h.1C92.8,50,92.9,49.8,92.7,49.6Zm0-28.9h0Zm1.4-.4a.1.1,0,0,1,.1-.1.35.35,0,0,0-.2-.1,3.08,3.08,0,0,1-.9.1v.1l-.1.1h.2A3.87,3.87,0,0,0,94.1,20.3Zm-.9-5.2v.1l-.1.1C93.2,15.2,93.2,15.2,93.2,15.1Zm.1,44.5h0Zm.2,1.8c-.1,0,0,0,0-.1h.2c.1.1.1.1.1.2l-.1.1C93.6,61.5,93.5,61.5,93.5,61.4Zm.7-2v-.1c0-.1-.1-.1-.2-.1h-.3v.4C94,59.6,94.1,59.4,94.2,59.4Zm1.4-38.3h.2a.31.31,0,0,1,.1-.2.1.1,0,0,0-.1-.1c-.1,0-.2,0-.2.1a1.2,1.2,0,0,1-.8.2h-.1l.1.1c.2.1.4.1.6.2s.1.1.2.2h.2v-.2h-.4C95.4,21.3,95.4,21.1,95.6,21.1Zm-.5-2.8a.49.49,0,0,0-.3.1v.1c.2,0,.3,0,.3-.2h0Zm.1,42.6-.2-.1v-.2c.1,0,.1-.1.2-.1s.2,0,.2.1v.1Zm-.1-43h0Zm.6-.2c-.1.1.1.2.1.2a.35.35,0,0,0,.1-.2c0-.1-.1-.1,0-.2C95.8,17.6,95.7,17.6,95.7,17.7Zm.6,1.6c-.1,0-.1,0,0,.1v-.1h0Zm2.3,1.2H99c.4-.1.6-.1.7.1.4.2.4.2.7-.3,0-.1-.1-.1-.2-.1h-.3a4.29,4.29,0,0,1-1.6,0,.76.76,0,0,0-.4.1,2.25,2.25,0,0,1-.7.1,1.33,1.33,0,0,0-.7.3h.2c.1,0,.2.1.2,0h1.6a.1.1,0,0,0,.1.1.31.31,0,0,0-.2-.1C98.5,20.6,98.6,20.6,98.6,20.5Zm-.3-5.4V15h-.2l-.2.1h.4Zm.1,43.1v.1h-.3s-.2,0-.2.1l.2.1h.2c.1-.1.1-.1.1-.2Zm0-38.9v-.1a.1.1,0,0,0-.1.1Zm.3-2.2h-.1a.1.1,0,0,1,.1.1Zm2.2,1.5h.1l-.1.1h-.4A1.58,1.58,0,0,1,100.9,18.6Zm-.3,30.2c.2.1.3,0,.3,0,0-.2-.3-.4-.4-.4C100.5,48.7,100.5,48.8,100.6,48.8ZM104,21.9v-.1h.1a.31.31,0,0,1,.2.1c-.1,0-.1,0-.2.1A.1.1,0,0,1,104,21.9Z"/><path d="M141.3,52h-.1l-.1.1V52c-.2,0-.2,0-.3.2,0,.4.1.7.1,1a.43.43,0,0,0,.4.4h.2c0-.1.1-.1.1-.2v.2c-.1.1-.1.1-.1.2V54c.1,0,.1.2.3.3h.1c-.1-.1-.1-.1-.1-.2s0-.1.1-.2,0-.3.1-.4a.22.22,0,0,1,.2-.2.35.35,0,0,1,.1.2l.1.1v2.9a.22.22,0,0,1,.2.2v.7c0,.1-.1,0-.1,0h-.2c0,.4-.1.7-.1,1.1v.3a3.75,3.75,0,0,1,.1,1,.35.35,0,0,1-.1.2c0,.2-.1.3-.3.5,0-.2-.1-.3-.2-.5s-.2-.2-.3-.2l-.3.2c0,.1.1.1.2.1s.2.2.2.3a.37.37,0,0,0-.1.3c0,.4,0,.7.2.7.3.2.3.4.3.7a1.09,1.09,0,0,1-.1.5v2.3l-.3.8a2,2,0,0,1-.1.7,2,2,0,0,0-.1.7v.7a.1.1,0,0,0,.1.1l.1.1a1.7,1.7,0,0,0-.1.7.37.37,0,0,1-.1.3,1,1,0,0,0-.1.3,3.54,3.54,0,0,1-.3,1.1,8.8,8.8,0,0,1-.6,1.7c0,.2-.1.4-.1.6a1.43,1.43,0,0,1-.4,1c-.1,0-.2.1-.2.4V75a3.75,3.75,0,0,0-.1,1c0,.1.1.2.1.3s-.1.2-.2.3v.5a1.42,1.42,0,0,1-.2.6v.1c-.2.3-.4.5-.4.8a.6.6,0,0,1-.1.4c-.4.3-.6.5-.6,1,0,.1.1.1.1.2s-.1.2-.1.3a1.44,1.44,0,0,1-.2.3c0,.1.1.2.1.3v.1l-.3.3-.3.6c-.1.1-.2.3-.1.3v.2a3.55,3.55,0,0,1-.2,1,8,8,0,0,1-.8,1.6c-.1.5-.5,1-.6,1.51a.09.09,0,0,1-.1.09,3.9,3.9,0,0,0-.5.91,1.52,1.52,0,0,0-.4.69,2.3,2.3,0,0,1-.5,1,1.27,1.27,0,0,0-.4.9c0,.1,0,.2-.1.2-.7,1-.7,2.71-1.9,3.4a1.62,1.62,0,0,1-.6.6c-.1.3-.3.4-.6.61a1,1,0,0,0-.6.69c0,.1-.1.2-.1.41a.33.33,0,0,1-.2.09c-.1,0-.1,0-.1-.09a.1.1,0,0,1-.1-.1l.1-.11v-.39c-.1,0-.1-.11-.2-.11a.34.34,0,0,0-.2.11c-.1.1-.2.19-.2.29s.1.21.2.31a.83.83,0,0,1-.3.59h-.6c-.1.31-.3.31-.2.41-.1.09-.1.2-.2.2a.91.91,0,0,0-.4.8c0,.2.1.29.1.5v.2c-.3-.11-.4-.2-.4-.5V98.3l-.2.2v.41c0,.09.1.2.1.39s0,.11-.1.21l.1.1a1,1,0,0,1,.3.1l-.3.2c-.2.3-.4.39-.5.7a1.46,1.46,0,0,1-.9.6c-.3,0-.4,0-.5.4s-.6.4-.7.8v.1c-.1,0-.1.1-.2.1h-.1c-.1,0-.2.1-.2.3s-.1.39-.3.5c-.4.2-.6.5-.9.5-.1,0-.2.1-.4.1l-.9.7h-.1c.1.1.1.1.2.1h.1v.2c-.3,0-.4.1-.4.3s-.1.4-.3.4c-.2.2-.3.3-.4.3-1,0-1.3.3-2.3,1h-.1c-.2,0-.3-.1-.4-.3h-.3c-.1.1-.1.1-.1.2v.2c0,.1.1.2.1.3s-.1.2-.3.2c-.1.2-.4.2-.6.4h-.4c-.1,0-.2.1-.3.2s-.4.3-.6.3H115c-.2,0-.4.1-.6.1h-.2a.1.1,0,0,0-.1.1c0,.2-.2.3-.4.3a9.76,9.76,0,0,0-1.6.7l-.6.4c-.1,0-.2.2-.3.3s-.2-.1-.2-.2a.1.1,0,0,0-.1-.1c-.2.3-.5.3-.7.4s-.3,0-.3-.1-.2-.2-.3-.2a.35.35,0,0,0-.2.1,3.5,3.5,0,0,1-1.2.3.75.75,0,0,0-.5.1c-.1.1-.4.1-.5.1a.6.6,0,0,1-.4.1.37.37,0,0,1-.3-.1.22.22,0,0,1-.2-.2.73.73,0,0,0-.6-.2c0,.2-.2.2-.3.2s-.1-.1-.2-.1-.1,0-.2.1c-.1.3-.3.3-.5.3l-.8-.3a2.77,2.77,0,0,1-.9-.1,12.49,12.49,0,0,1-1.7-1.2.7.7,0,0,1-.2-.4c0-.3-.1-.4-.4-.6a.1.1,0,0,1-.1-.1c-.1-.5-.4-.7-.4-1.1v-.2a.22.22,0,0,0-.2-.2c-.4-.2-.4-.6-.4-1a.9.9,0,0,1-.1-.5v-.6a.37.37,0,0,1,.1-.3h.1a.1.1,0,0,0,.1-.1.25.25,0,0,1,0-.4h-.1a.6.6,0,0,1-.1-.4.9.9,0,0,1,.1-.5c0-.2,0-.2-.2-.3s-.1,0-.1-.1V101.3a4.11,4.11,0,0,0,.2-1.09,1.93,1.93,0,0,1,.1-.7l.1-.1c0-.3.1-.61.1-1.11a1.11,1.11,0,0,1,.1-.5v-.19a1,1,0,0,0-.1-.5V96.3l-.1-.09c.3-.21.1-.6.3-1l.1-.1a.1.1,0,0,0,.1.1h.1v-1a11.23,11.23,0,0,0,.6-1.71V92a.36.36,0,0,1-.1-.29.61.61,0,0,1,.1-.41.36.36,0,0,0,.1-.3v-.2h.3c0,.1,0,.1.1.1s.2-.3.2-.4a.36.36,0,0,1-.1-.29,1,1,0,0,1,.2-.5,2.26,2.26,0,0,0,.3-.71.34.34,0,0,0-.1-.29V88.6c0-.1,0-.2.1-.2h.2l.1.1v-.1a.38.38,0,0,1,.1-.3.52.52,0,0,0,.2-.39.85.85,0,0,1,.4-.71.39.39,0,0,0,.2-.4c-.1-.3-.1-.5-.2-.6s0-.1.2-.2a.22.22,0,0,0,.2-.2v-.2c0-.4,0-.4.3-.5.1,0,.1-.1.1-.3,0,0,.1-.1,0-.1h.6c.1,0,.1,0,.1-.1l-.1-.1c-.1-.1-.2-.1-.2-.2s.1-.1.1-.2a1.08,1.08,0,0,0,.3-.7h.1a.1.1,0,0,0-.1-.1.37.37,0,0,1,.3-.1l.3.3v.2a.46.46,0,0,0-.3.5v.6c-.1.1-.1.1-.3.1a.49.49,0,0,0-.3.1l-.3.4v.2h.2c.1,0,.2-.2.4-.4v.1c0,.2,0,.3-.2.4s-.2.2-.3.3-.1,0-.2.1V86c0,.1.1.1.2.2s0,.3-.2.3a.71.71,0,0,0-.4.21c0,.09-.1.19-.1.29v.5c0,.1,0,.1.1.21a.4.4,0,0,0-.1.29l-.2.4v.2a.37.37,0,0,1-.4.4c-.1,0-.1.1-.1.21v.5c0,.09-.1.19-.2.29v.21a.36.36,0,0,1-.1.29,1.51,1.51,0,0,0-.1.6q.15.3.3.3h.9v.2a6.8,6.8,0,0,1-.6,1.51c0,.1,0,.1-.1.1a.36.36,0,0,1-.2.09c0-.09-.1-.09,0-.09a.78.78,0,0,1,.2-.41.09.09,0,0,0,.1-.09c0-.11-.1-.11-.2-.21h-.1c-.2-.1-.2-.1-.2-.4a.1.1,0,0,1,.1-.1c-.1-.1-.1-.2-.2-.2l-.3.7a1,1,0,0,0-.4.71.71.71,0,0,0,.2.59v.1c0,.1-.1.1-.2.1h-.1a.1.1,0,0,0-.1.11,1.77,1.77,0,0,0-.2,1,5.68,5.68,0,0,0-.2,1.29,4.18,4.18,0,0,0,.2,1.1c0,.11.1.11.1.21a.39.39,0,0,1-.1.2.83.83,0,0,0-.2.7l.3.5c0,.19,0,.4.2.4s.1-.1.2-.1l.1.1v.29a1.9,1.9,0,0,1,.2.71c0,.2-.1.29-.1.5v.2l.2,2a2.2,2.2,0,0,0,.1.8c.2,0,.2.3.4.5.1,0,.2.2.1.1a1.39,1.39,0,0,0,.5,1c.2.4.7.6,1,.9h.1c.1,0,.1,0,.2-.1s.1-.1.2-.1a.1.1,0,0,1,.1.1.49.49,0,0,0,.1.3l.7.6h.1c.4,0,.9.1,1.4.1h.4a2.38,2.38,0,0,0,1.4-.5.6.6,0,0,0,.4.1c.3,0,.5-.2.8-.3s.6-.1.6-.4h.2c.1,0,.1,0,.1-.1.2-.2.5-.2.7-.3a.76.76,0,0,0,.5-.2,3.55,3.55,0,0,0,1-.2l1.4-.9a3.16,3.16,0,0,0,1.7-1.1c.1-.1.1-.21.2-.21a1.61,1.61,0,0,0,.6-.59c.2-.41.6-.5.8-.8,0,0,0-.11.1-.11h.1c.2,0,.3-.19.4-.39s.4-.3.5-.61a2,2,0,0,1,.6-.69c.2-.4.7-.6.9-1.11l.4-.5a4,4,0,0,0,1-1.29,1.56,1.56,0,0,1,.8-.81,1.14,1.14,0,0,0,.3-.6c.3-.19.4-.59.6-.8.2-.39.7-.7,1-1.2a13.44,13.44,0,0,0,1-2.09,5.16,5.16,0,0,1,.7-.91c0-.09.2-.2.2-.4a.38.38,0,0,1,.1-.3,6.73,6.73,0,0,0,.7-1.1c.1-.29.5-.6.5-1-.1-.1,0-.1,0-.1a4.78,4.78,0,0,0,1-1.7c.2-.6.5-1.1.8-1.8.1-.3.1-.6.2-.7a2.66,2.66,0,0,0,.3-1.2c.6-.4.5-1,.7-1.5a1.33,1.33,0,0,0,.3-.8,3.26,3.26,0,0,0,.4-1.3,4,4,0,0,0,.7-1.9l.3-.5a14.58,14.58,0,0,0,.4-1.7c.3-.9.3-1.7.5-2.5a.37.37,0,0,0,.1-.3c0-.2.1-.3.1-.5l1.1-6.1a6.64,6.64,0,0,0,.3-1.5c0-.9.2-1.8.2-2.6a25,25,0,0,0,.2-2.5,8.62,8.62,0,0,1,.1-1.7c0-.5-.1-.9-.1-1.4.1-.1-.2-.2-.3-.2h-.1a2.72,2.72,0,0,0-1,.8c-.1,0-.1.1-.1.2s-.1.3-.2.3a.35.35,0,0,0-.2-.1c0-.1-.1-.1-.2-.1a.37.37,0,0,1-.3.1c-.1,0-.2,0-.2-.1s-.2-.1-.2-.1a.35.35,0,0,1-.1.2l.2.4v.3a2.09,2.09,0,0,1-.6.4c-.1,0-.3.1-.3.2v.1q0,.15-.3.3c-.1.1-.3.2-.3.3s-.1.3-.2.3l-.1-.1h-.3a.22.22,0,0,1-.2.2l-.6.7c-.1.2-.3.2-.5.2s-1,.4-1,.6l-.7.6c-.1,0-.2.2-.3.4a.31.31,0,0,0-.1.2c0,.3-.2.4-.4.5a.37.37,0,0,1-.3.1h-.2c0-.1-.2-.1-.3-.2s-.1.1-.1.2v.7h-.3l-.2-.2v.6c0,.1,0,.1-.1.1h-.1c-.1-.1-.1-.1-.2-.1h-.1v.7a.37.37,0,0,1-.1.3c-.1.2-.4.2-.4.4-.2.2-.5.3-.8.6a.37.37,0,0,1-.3.1c-.2,0-.2-.2-.3-.4a.27.27,0,0,0-.3-.3h-.1a.35.35,0,0,1-.1-.2c-.3-.2-.3-.6-.3-.9l.4-.5a1.09,1.09,0,0,0,.1-.5h-.1c-.1.1-.1.2-.2.2s-.5,0-.5.3v.1h-.2l-.2-.1c-.2.1-.2.2-.2.3a.37.37,0,0,0,.1.3c.2,0,.3.1.4.1s.2.1.2.2a.35.35,0,0,0-.1.2c-.1,0,0,.1,0,.2l.2.1v.1c0,.1,0,.1.1.2a.37.37,0,0,1,.1.3v.2c-.1.1-.1.1-.1.2s.1.4.1.6,0,.3-.2.4l-.3.6a1,1,0,0,1-.7.7c-.1,0-.1.2-.3.4a5.3,5.3,0,0,1-.6,1,10.28,10.28,0,0,0-1.4,1.5,9.6,9.6,0,0,1-1.4,1.5c-.1.1-.1.1-.1.2v.1a2.2,2.2,0,0,0-.5.6,4.05,4.05,0,0,1-.5.9c-.1.1-.3.4-.5.5l-.4.4a.37.37,0,0,1-.4.4c-.2.1-.1.5-.3.5a.35.35,0,0,0-.2.1l-.1.1c-.1,0-.1-.1-.2-.2v-.3q-.15-.3-.3-.3c-.1,0-.2.1-.4.3a.6.6,0,0,0-.3.6V77a1.27,1.27,0,0,0,.1.6c0,.1.1.2.1.3s-.1.2-.2.3l-.5.7c-.2.2-.2.5-.4.7l-.1.1a.31.31,0,0,0-.1-.2.1.1,0,0,0-.1-.1.37.37,0,0,0-.3.1l-.1.1a.35.35,0,0,1-.1-.2.85.85,0,0,1,.7-.7.35.35,0,0,0,.1-.2c0-.1-.1-.1-.1-.2v-.2c-.1,0-.2-.1-.3-.1s-.2.1-.3.1v.3a.1.1,0,0,1-.1.1c0,.1-.1.2-.2.3s-.2.2-.4.2c-.4,0-.4.2-.5.6v.1c0,.1,0,.1.1.1a.76.76,0,0,1,.4.2.37.37,0,0,1,.1.3c-.1,0-.1.1-.1,0-.5,0-.4,0-.6.3-.1.1,0,.3-.2.5s-.2.1-.2.2.1.2.2.3.3.1.3.1a1.24,1.24,0,0,1,.2-.3v-.2c0-.6,0-.7.5-.7.2,0,.2,0,.3.1v.5c0,.3-.1.3-.2.5a.68.68,0,0,1-.4.3,5.58,5.58,0,0,1-.5.8.65.65,0,0,0-.2.5v.2a2.54,2.54,0,0,1-.2.7.1.1,0,0,1-.1.1.31.31,0,0,1-.2-.1c-.1,0-.1-.2-.4-.2h-.3l.1-.1a3.93,3.93,0,0,0,.2-.6c0-.1-.1-.1-.1-.2a.76.76,0,0,1,.2-.4c.1-.2.3-.3.5-.5a.37.37,0,0,0,.1-.3v-.1h-.5c-.2.1-.3.3-.3.7v.2c-.4.2-.4.6-.5.8a.37.37,0,0,1-.1.3c-.3.1-.4.5-.4.9a1.24,1.24,0,0,0-.2.3.55.55,0,0,0-.3.5c-.1.3-.1.5-.3.5s-.3,0-.3-.1-.1,0-.2-.1h-.4v.1c-.3,0-.3,0-.4-.1v-.1h-.3V86c.1.2.2.2.3.2s.2.1.4.1h.2a.22.22,0,0,1,.2.2v.1l-.3.7c-.1.1-.1.1-.2.1s-.1,0-.1-.1-.1-.2-.2-.4-.2-.4-.5-.4v.21a1,1,0,0,1-.5.79c0,.1,0,.1-.1.1-.3.11-.4.11-.4.2s.1.2.1.3.1.11.1.2a.35.35,0,0,0,.1.2.1.1,0,0,1-.1.1c-.2.11-.2.3-.5.4s-.3,0-.3.21a.78.78,0,0,0,.1.5.71.71,0,0,1,.1.39c0,.11,0,.2-.1.2a.55.55,0,0,0-.3.5V91a.5.5,0,0,1-.2.4.77.77,0,0,0-.1-.4c0-.1,0-.2-.1-.2a.35.35,0,0,0-.2.1l-.1-.1v-.09c.1,0,.1,0,.2-.21s.2-.1.2-.2l-.1-.09c0-.11-.1-.11-.1-.21s0-.29.1-.4a.6.6,0,0,0,.3-.6v-.5c0-.1,0-.2.2-.2s.3-.2.3-.4v-.5c.1-.1.1-.3.3-.69,0-.11.1-.11.2-.11h.2c.1-.3.2-.4.2-.6s-.2-.3-.2-.4a2.18,2.18,0,0,1,.5-.8,1.07,1.07,0,0,0,.2-.6c.1-.2.2-.3.4-.3s.1-.1.1-.2,0-.1-.1-.2v-.2l.4-1.1c.1-.2.4-.4.5-.6h.2v.2a1.69,1.69,0,0,0-.2.5c0,.1,0,.1.1.2v.1c0,.1,0,.2-.1.2-.4.3-.3.6-.4.9a.35.35,0,0,1-.1.2.1.1,0,0,0,.1.1h.1c.1,0,.2,0,.2.1a.35.35,0,0,0-.1.2v.2l.6-.3a5.24,5.24,0,0,0,1-1.1.49.49,0,0,1-.1-.3c-.2,0-.2-.1-.2-.3v-.3c-.2,0-.2,0-.3-.1,0-.4-.3-.5-.6-.5a1.33,1.33,0,0,0,.5-.6v-.3c-.1,0-.1,0-.1-.1s-.1-.1-.1-.2v-.1c.2,0,.2.1.3.1s.1.2.2.2l.1-.1c0-.1.1-.2.2-.5l.5-1.2c.1-.1.1-.2.2-.2l.2-.3c0-.1.1-.1.1-.2s-.1-.1-.2-.2-.3-.2-.5-.3h-.1v.1a1.07,1.07,0,0,1,.2.6,1.09,1.09,0,0,1-.1.5.22.22,0,0,0-.2.2c-.2.3-.2.4-.3.4a.76.76,0,0,1-.4-.1.35.35,0,0,1-.2-.1q-.3.15-.3.3c0,.1-.1.2,0,.2v.2a.52.52,0,0,1-.2.4v.3l-.2.4a.31.31,0,0,0-.1.2c0,.1,0,.1.1.1l.1.1c0,.1-.1.1-.1.2h-.4c-.1-.2-.4-.2-.7-.2v-.1a.37.37,0,0,0,.1-.3.76.76,0,0,0-.1-.4c0-.1,0-.2.1-.2s.1.1.2.1h.1c.2,0,.2,0,.3.1a.37.37,0,0,0,.3.1v-.1c0-.1,0-.1-.1-.2h-.1c0-.2-.1-.3-.1-.4H106c-.1,0-.2.1-.4.2a1.09,1.09,0,0,1,.1-.5,8.65,8.65,0,0,1,.7-1l.1-.1a1.78,1.78,0,0,1-.4,1l.1.1q.3-.15.3-.3a1,1,0,0,1,.6-.8v-.3c-.1-.1-.2-.2-.2-.3v-.1a1.56,1.56,0,0,1,.6-.8,1.14,1.14,0,0,0,.3-.6v-.1a5.55,5.55,0,0,1,.6-.8c.1,0,.1-.1.2-.2a.37.37,0,0,0,.1-.3,1.77,1.77,0,0,1,.5-.8c0-.1.1-.2.1-.3v-.1a2.36,2.36,0,0,1,.8-.9,2.65,2.65,0,0,1,.6-.5h.2v.1c0,.2-.2.2-.2.4a1.85,1.85,0,0,1,.7-.2.49.49,0,0,0,.1-.3,1.45,1.45,0,0,1-.2-.7v-.2c0-.4.2-.7.5-.7.6-.1.8-.3.8-.7l.1-.1.1.1a.1.1,0,0,1,.1.1h.2c.1-.1.2-.1.2-.3v-.2c-.1,0-.1,0-.1-.1a.35.35,0,0,1,.1-.2h.2c-.1.1-.1.3-.2.3a.9.9,0,0,0,.5-.1v-.2a.4.4,0,0,1-.2-.4.76.76,0,0,1,.1-.4,2.18,2.18,0,0,1,.5-.8c.1,0,.3-.3.3-.5s.1-.1.4-.1a.37.37,0,0,0,.1.3.1.1,0,0,0-.1.1v.2h.1c.1,0,.1,0,.2-.1l.3-.4c.1,0,.2,0,.2-.1s-.1-.1-.1-.3c-.1,0-.1,0-.1-.1s0-.1.1-.2l.5-.3V66c0-.1,0-.2.1-.2l.2.2a.31.31,0,0,1,.2-.1,1.88,1.88,0,0,1,.4-1,.52.52,0,0,1,.2-.4c.1-.2.4-.2.6-.3s.3,0,.4-.3a.44.44,0,0,0,.1-.3c.2-.2.2-.3.5-.4a1.18,1.18,0,0,0,.5-.5c.1-.2.3-.3.4-.4s.5-.2.5-.5c0-.1.2-.2.3-.2a1.08,1.08,0,0,0,.6-.1c0-.3.3-.4.3-.8l.5-.4a.9.9,0,0,0,.5-.1c.1-.1.1-.2.3-.2s.3-.1.3-.2a.37.37,0,0,1-.1-.3c0-.2.1-.3.3-.5a2,2,0,0,0,.9-.5c.4-.1.7-.2.8-.5.2-.1.3-.4.5-.4s.1-.1.1-.2a.54.54,0,0,1,.3-.4h.3c0-.1.1-.2.3-.2a.37.37,0,0,0,.3.1c.2,0,.2-.2.3-.3s.3-.5.5-.6c0-.3,0-.6.3-.7a4.18,4.18,0,0,1,1-.4.73.73,0,0,1,.6-.2.6.6,0,0,0-.1.4s0,.1.1,0,.5-.4.5-.7v-.1a.86.86,0,0,1,.3-.6c.2-.1.4,0,.6-.2s.4-.3.4-.4a.82.82,0,0,1,.5-.5h.2c.1,0,.1.1.2.1s.1-.1.2-.3.1-.2.2-.4.3-.2.6-.2h.2c.1,0,.2,0,.2-.1v-.3c.3-.2,1.2-.3,1.5-.7a1.33,1.33,0,0,0,.7-.3c.2-.1.3-.4.3-.8v-.8a2.2,2.2,0,0,1,.1-.8l-.2-2.3v-.9c0-.1.1-.3.1-.4V42.8a11.48,11.48,0,0,0-.1-1.9v-.7a1.7,1.7,0,0,0-.1-.7V39c.2-.2.1-.5.2-.9a16.35,16.35,0,0,0-.2-2.2V33.8a.6.6,0,0,0-.1-.4c-.1-.2-.1-.2-.3-.2h-1.1a1.33,1.33,0,0,0-.3.5c-.3,0-.4.4-.5.6v.3a1.63,1.63,0,0,1-.5,1.1c-.2.1-.3.1-.3.3v.2c-.2.2-.4.5-.6.6h-.2c-.1,0-.1,0-.1.1a1.68,1.68,0,0,1-.6,1.1c-.3.3-.2.6-.5.7a1.21,1.21,0,0,0-.5.5,2.28,2.28,0,0,0-.3,1.1c-.1.4-.3.5-.5.5s-.2.1-.3.2c0,.3-.1.5-.4.5a.76.76,0,0,0-.2.5.84.84,0,0,1-.2.7h-.2a2.72,2.72,0,0,0-.8,1,.37.37,0,0,1-.4.4c-.2.3-.6.3-.6.6a.22.22,0,0,0-.2.2.22.22,0,0,1-.2.2,2.54,2.54,0,0,1-.5,1.3,3.08,3.08,0,0,1-.4.9l-.6.4a2.1,2.1,0,0,1-.6.8,4.62,4.62,0,0,0-.7.7,1.44,1.44,0,0,1-.2.3l-.3.6c0,.1-.1.1-.2.1a3.53,3.53,0,0,0-1.3,1.4.37.37,0,0,0-.1.3c0,.1,0,.2-.1.2-.3,0-.4.3-.6.3a4.81,4.81,0,0,0-.9,1.1c-.2.2-.4.6-.7.6a.22.22,0,0,0-.2.2.52.52,0,0,1-.4.2s-.1,0-.1.2a.32.32,0,0,1-.3.3,1.06,1.06,0,0,0-.7.6c-.2.2-.4.1-.5.3a1.33,1.33,0,0,1-.3.5.55.55,0,0,1-.5.3,1.07,1.07,0,0,0-.6.2,1.22,1.22,0,0,1-.9.4,2.39,2.39,0,0,1-.7.3,2.35,2.35,0,0,1-.8.2h-.1c-.2.1-.3.2-.5.2a1.45,1.45,0,0,1-.7-.2h-.2a1.1,1.1,0,0,1-1-.5.76.76,0,0,0-.4-.1l-.8-.6a5.54,5.54,0,0,1-1.4-1.3,4.17,4.17,0,0,0-.6-.8,3.18,3.18,0,0,0-.3-.9v-.3a4.87,4.87,0,0,1-.1-1.2c0-.3-.1-.6-.1-.9a.75.75,0,0,1,.1-.5v-1a4.87,4.87,0,0,1,.1-1.2,5,5,0,0,1,.2-1.2,10.26,10.26,0,0,1,.4-1.4l1-3a8.87,8.87,0,0,1,.3-1.4c.3-.8.4-1.6.7-2.5,0-.2.1-.3.1-.4a3.18,3.18,0,0,0,.3-.9,6.12,6.12,0,0,1,.5-1.2v-.3a.6.6,0,0,1,.1-.4,11.37,11.37,0,0,1,1.3-3,10.37,10.37,0,0,0,.4-1,5.45,5.45,0,0,1,.8-1.9,3,3,0,0,0,.5-1,2.54,2.54,0,0,0,.2-.7,4.18,4.18,0,0,1,.4-1,9,9,0,0,1,.5-.9,10.08,10.08,0,0,0,.6-1.9l.7-1.1a.37.37,0,0,0,.1-.3v-.1a5.86,5.86,0,0,1,1.3-1.9,2.66,2.66,0,0,1,.6-1,1.07,1.07,0,0,1,.2-.6.37.37,0,0,1,.3-.1h.2s.2-.1.2-.2a.35.35,0,0,0,.2.1v.1a.1.1,0,0,0-.1.1c0,.1.1.2.2.3a.31.31,0,0,0,.1.2c0,.3.2.3.4.3s.2-.1.3-.1a.76.76,0,0,1,.4.2h.2a.37.37,0,0,1,.3-.1,1.39,1.39,0,0,1,.9.4h.3c0-.1.1-.2.2-.3.3,0,.4.1.5.4a.1.1,0,0,1,.1.1c.1.1.1.1.2.1l.5-.4v-.1a.35.35,0,0,1,.1.2c0,.4-.2.6-.4,1l-.9,1.7a3.92,3.92,0,0,1-.4.9,3.65,3.65,0,0,0-.7,1.4v.1a1.69,1.69,0,0,1-.2.5c-.2.1-.3.4-.4.7,0,.1.1.1.1.2a.54.54,0,0,1-.3.4,1,1,0,0,0-.1.3c0,.2-.1.4-.1.6s-.2.2-.2.3c-.1.5-.5,1-.5,1.3a1.42,1.42,0,0,1-.2.6,9.49,9.49,0,0,1-.9,2.1l-.2.6c0,.3-.2.4-.3.6a1.24,1.24,0,0,1-.2.3.85.85,0,0,0-.2.6v.5a.91.91,0,0,1-.4.8.31.31,0,0,1-.2.1h-.2c0,.1,0,.1.1.2a.75.75,0,0,1,.1.5c0,.1-.1.1-.1.2v.4c0,.1,0,.3-.2.3s-.3.5-.7.8a.1.1,0,0,0-.1.1c0,.1.1.1.1.2s.1.2.1.3a.1.1,0,0,1-.1.1,8.64,8.64,0,0,0-.7,2.1c-.3.9-.5,1.8-.7,2.6a4,4,0,0,0-.4,1.3v.5c0,.2,0,.3-.1.4a2.77,2.77,0,0,1-.1.9c0,.3-.1.7-.1,1.2a.76.76,0,0,1-.2.5V50l.2.6c0,.2.1.2.2.4h.3a1.79,1.79,0,0,0,.5-.7c.6-.4,1.1-1,1.7-1.4h.1c.3-.4.8-.6.8-1l.2-.4c.3-.2.5-.3.6-.6l.2-.2a15.26,15.26,0,0,0,1.1-1.6c.3-.3.5-.7.7-.9.1,0,.3-.2.4-.2,0-.2.1-.3.2-.3h.1c.3,0,.3-.2.4-.5a1.06,1.06,0,0,1,.2-.5,3.05,3.05,0,0,1,1-1.3,4.37,4.37,0,0,1,.6-1,2.26,2.26,0,0,0,.8-1.1c.1-.5.6-.7.7-1.1a4.65,4.65,0,0,0,1.4-1.8,6.1,6.1,0,0,1,1.2-1.6c.1,0,.1-.1.1-.2,0-.3.3-.6.7-.8a1.17,1.17,0,0,0,.2-.7l.7-.7c.2-.1.3-.2.4-.2.4-.7.9-1.2,1.3-1.9a2.9,2.9,0,0,0,.8-1c.3-.3.5-.8.9-1.1a.92.92,0,0,1,.4-.6c.7-.5,1.2-1.4,1.9-2a1.62,1.62,0,0,1,.5-.9.91.91,0,0,0,.3-.7c.3-.3.6-.7,1-.8a.35.35,0,0,1,.2-.1c0-.2,0-.3.1-.3l.3.3v.1a.1.1,0,0,1,.1.1c0-.1.1-.1.1-.2a.35.35,0,0,0,.1-.2v-.1l.6.4a1.27,1.27,0,0,1,.1.6c.1.1.1.1.2.1h.1l.1.1c0,.1,0,.1.1.1h.4a1.06,1.06,0,0,1,.5.2h.1v-.2c0-.1.1-.1.2-.1s.3-.1.4-.1.2.1.3.4v.2c0,.1,0,.1.1.1s.1,0,.2-.1h.3l.1.1c.1,0,.1-.1.2-.2v-.2a.1.1,0,0,1,.1-.1c.1,0,.1,0,.1.1a2.7,2.7,0,0,0,.7.8l.1.1c0,.3.1.5.1.9a1.27,1.27,0,0,1-.1.6,2.77,2.77,0,0,1-.1.9v1.1c0,.3,0,.3-.2.3h-.2c-.1,0-.1,0-.1.1a4.48,4.48,0,0,1,.1,1.1v.4a.37.37,0,0,0,.1.3c0-.1.2-.2.2-.2l.1-.1c0,.1.2.2.2.4a1.08,1.08,0,0,0-.2.7v.8c0,.3-.1.5-.1.7v.2l.2.8a.49.49,0,0,1-.1.3,1.27,1.27,0,0,1,.1.6v.6a1.2,1.2,0,0,1,.2.8v1.7a1.09,1.09,0,0,0-.1.5.9.9,0,0,0,.1.5l.1.1a.1.1,0,0,1-.1.1c0,.3.1.5.1.8.1.1.1.2.1.4a1.27,1.27,0,0,1-.1.6.75.75,0,0,1,.1.5.6.6,0,0,1-.1.4v.5a3,3,0,0,0,.2,1c.1.2.2.3.2.4a4.33,4.33,0,0,0-.1.5,1.27,1.27,0,0,0-.1.6,1.27,1.27,0,0,1-.1.6.89.89,0,0,0,.5.8h.5c.1,0,.1.1.1.3s0,.2-.1.2a.35.35,0,0,0-.2-.1l-.1-.1v.1a1.42,1.42,0,0,0-.2.6c0,.1.1.3.1.4l.2.2c.1,0,.2-.1.3-.1s.2-.1.3-.1a.1.1,0,0,1,.1.1c0,.2-.1.2-.3.3s-.4.6-.6.6c0,.1-.1.1-.1.2a1.42,1.42,0,0,0-.2.6v.1a2.2,2.2,0,0,1,.1.8c-.1.1-.2.2-.2.3l-.4,1.2h-.2v-.1c-.3.2-.5.2-.7.7a.35.35,0,0,0,.2-.1V53a.1.1,0,0,1-.1-.1.37.37,0,0,1-.1-.3c-.3-.1-.3-.2-.3-.5h.2ZM100.4,97.5v-.09c0,.09-.1.09-.1.09v.21a.75.75,0,0,1-.1.5l.1.09a.36.36,0,0,0,.2-.09v-.3C100.5,97.71,100.5,97.61,100.4,97.5Zm0,1.91a.1.1,0,0,0-.1-.11l-.1.11v.2l.1.1a.1.1,0,0,1,.1-.1Zm.3-4.11a.35.35,0,0,1,.1-.19,1.31,1.31,0,0,1,.1-.61,1.7,1.7,0,0,1,.1-.7h-.2c-.1.2-.1.5-.2.6a1.11,1.11,0,0,0-.1.5.39.39,0,0,0,.1.31S100.7,95.21,100.7,95.3Zm.3-2c-.1,0-.1,0-.1.1Zm.5,8.41c-.1-.1-.2-.3-.4-.3,0,.1.1.2.1.39h.2C101.5,101.8,101.5,101.8,101.5,101.71Zm0-6.21v.3a.1.1,0,0,1-.1.1.35.35,0,0,1-.2-.1l.2-.3Zm.8-8.2v.1h.1c-.2.1-.2.2-.2.31h-.1A.52.52,0,0,1,102.3,87.3Zm0,13.5a1,1,0,0,0,.2.5.1.1,0,0,0,.1.11c0,.1-.2.3-.2.39h-.1a.09.09,0,0,1-.1-.09V100l.1.1c0,.1,0,.1.1.19v.11C102.4,100.51,102.3,100.71,102.3,100.8Zm.2-6.9v.4h-.2v-.19C102.3,94,102.4,94,102.5,93.9Zm.9-.19v.19a1.07,1.07,0,0,1-.1.6.39.39,0,0,0-.1.3.4.4,0,0,0,.1.31.74.74,0,0,1-.3.6c0,.09,0,.09-.1.09a.91.91,0,0,1-.1-.3v-.1c.1,0,.1-.1.1-.19a1.59,1.59,0,0,0-.2-.5c0-.21,0-.41.2-.41A2.36,2.36,0,0,0,103.4,93.71Zm-.4,6.4a.88.88,0,0,1,.3-.5.74.74,0,0,0-.1.4.34.34,0,0,0,.1.29v.11C103.1,100.3,103,100.21,103,100.11Zm.4-6.61v-.39h.1l.1.1Zm.9.21v.19c0,.5-.1.9-.1,1.31a.56.56,0,0,1-.3.5h-.1c-.2-.1-.3-.21-.3-.31s.1-.1.1-.19a.57.57,0,0,0,.2-.5A4.18,4.18,0,0,1,104.3,93.71Zm-.7-1.31c0-.1,0-.3.3-.3h.1v.11c0,.19-.2.19-.3.29Zm1.4-.9c0,.1.1.1.1.21l-.2,1c-.1.09-.3.19-.3.09s-.1-.09-.1-.2a.35.35,0,0,0,.1-.2v-.1c0-.09.1-.3.1-.4s-.1-.19-.2-.3v-.2a.21.21,0,0,1,.2-.19c.1-.11.1-.11.1-.21s-.1-.2-.2-.29-.2-.11-.2-.21l.2-.2h.2a3.36,3.36,0,0,0,.5-1.4c.1-.4.2-.6.5-.69h.1c0,.09,0,.09.1.19l-.3.81c-.2.19-.2.5-.3.79a.1.1,0,0,0,.1.1c0,.11-.2.3-.2.5V91C105.2,91.21,105,91.3,105,91.5Zm.4-10.1c.1.2.3.2.3.3a.35.35,0,0,0,.1.2l-.1.1c-.1.2-.3.4-.3.6s0,.3-.1.3a.1.1,0,0,1-.1-.1c-.2-.1-.3-.2-.3-.4a.6.6,0,0,1,.1-.4C105.3,81.7,105.3,81.5,105.4,81.4Zm1.3,9.4h.3c-.1.2-.2.3-.4.3a.37.37,0,0,1-.3-.1h-.1c-.1,0-.2.1-.3.21a2.92,2.92,0,0,1-.2.89,4.84,4.84,0,0,1-.4,1.3l-.1.1v-.2c0-.3.2-.7.2-1.09a20.16,20.16,0,0,1,.8-2.31.31.31,0,0,0,.2-.1.1.1,0,0,0,.1.1c0,.31,0,.4.3.4.1,0,0,.1-.1.3Zm-.2-6.3-.4.3c0,.1-.1.1-.1.2l.1.1C106.3,84.9,106.5,84.9,106.5,84.5Zm.7.2c-.1-.1-.2-.2-.3-.2a.1.1,0,0,0-.1.1c0,.2-.1.3-.2.6,0,0,.1-.1.1,0a1.33,1.33,0,0,1,.5-.3Zm.1,2.8v.3a.36.36,0,0,1-.2-.09V87.5Zm.3.6a.35.35,0,0,1,.3.11l-.2.19a1,1,0,0,1-.3-.1c0-.09,0-.2.1-.2Zm.2-5.9c0,.1.1.1.2.1h.2l.2-.2-.1-.1v-.3h.2c.1,0,.2,0,.2-.1s.3-.2.3-.3a.76.76,0,0,0,.2-.4c0-.1-.1-.1-.2-.1s-.1-.2-.2-.2a.35.35,0,0,0-.2.1v.2A5.67,5.67,0,0,0,107.8,82.2Zm1.4,2.8c0,.1-.1.2-.1.3s.1.1.1.2a2.35,2.35,0,0,1-.5,1c-.1.3-.2.3-.3.3s-.2,0-.2-.09,0-.31-.1-.31-.3-.1-.3-.2a.1.1,0,0,1,.1-.1c.2-.3.2-.8.5-1,.1-.2.1-.5.2-.5s.2.2.5.3A.1.1,0,0,1,109.2,85Zm-.7-8c-.2,0-.2.1-.2.2a.31.31,0,0,0,.2.1c.1,0,.1-.1.1-.2Zm.4-1.3c-.1,0-.1,0-.1-.1l-.3.5v.1A1,1,0,0,0,108.9,75.7Zm0,1.4h.2c.2.1.2.1.2.3v.1h.1a.71.71,0,0,0,.3-.6h-.5a.35.35,0,0,1-.2-.1c-.1.2-.2.2-.2.2A.1.1,0,0,0,108.9,77.1Zm.1-1.9h.2v-.3c0,.1-.1.1-.1.2A.1.1,0,0,0,109,75.2Zm.5.7a.6.6,0,0,0,.1.4c0,.2.1.4.1.6.1,0,.3-.2.4-.3s.5-.5.5-.7l.4-.5v-.1c-.1,0-.1-.1-.1,0a4.12,4.12,0,0,1-.8.3h-.4C109.6,75.6,109.5,75.8,109.5,75.9Zm1.6.9c-.1,0-.2.2-.3.4s.1.2.1.3a.86.86,0,0,0,.3-.6A.1.1,0,0,0,111.1,76.8Zm-.1,2.6v.2a.22.22,0,0,1-.2-.2v-.2C111,79.2,111,79.3,111,79.4Zm.1-3.3.3-.2h-.3Zm.4-1.4s0-.1.1,0c-.1-.2-.1-.1-.1-.1Zm0,1.4.2.6c0,.1,0,.1.1.1h.2a.55.55,0,0,1,.3-.5l.4-.3a.9.9,0,0,1,.1-.5c.1-.1.1-.2.2-.2s0-.1-.1-.2-.2-.1-.3-.2a.37.37,0,0,0-.3.1.6.6,0,0,0-.1.4v.2a.22.22,0,0,1-.2.2h-.2Q111.5,76,111.5,76.1Zm.2,4.3c0,.1,0,.3-.1.3h-.1v-.3Zm.2-2.9.1.1v-.2A.1.1,0,0,0,111.9,77.5Zm.2-6.4v.1a.16.16,0,1,0,.3-.1c.1,0-.1-.1-.1-.1S112.1,71,112.1,71.1Zm.3,1.4v.1h.2A.31.31,0,0,0,112.4,72.5Zm.2,5c0,.1-.1.1-.1.2a.1.1,0,0,0,.1.1Zm.1-3.1c0,.1,0,.1.1.1s.1.1.2.1h.1l.3-.2a.52.52,0,0,0,.2-.4.37.37,0,0,0-.1-.3.91.91,0,0,0-.7.3A.76.76,0,0,0,112.7,74.4Zm.1-1.4c0,.1.1.1.2.1V73a.1.1,0,0,0-.2,0Zm.3-2c0,.1.1.1.1.2s.2.2.3.2h.4v.3c-.1,0-.1.2-.2.3a2,2,0,0,0,.6-.7V71c0-.1,0-.4-.1-.4l-.1-.1c-.1,0-.1.1-.2.2a.52.52,0,0,1-.4.2h-.1l-.1-.1c-.1,0-.1.1-.2.1Zm.4,1.3c.1,0,.2-.2.2-.3a.37.37,0,0,1-.3.1.1.1,0,0,0-.1.1C113.4,72.3,113.4,72.3,113.5,72.3Zm.4,1,.2-.2h.2V73c-.1-.1-.1-.1-.2-.1s-.1,0-.2.1-.2.2-.2.3l-.2.4h.6l.1-.1h-.1v-.1C114,73.4,113.9,73.4,113.9,73.3Zm-.3-2.8.1-.1-.1-.1Zm.5-1.5c.2,0,.3-.1.5-.3a.37.37,0,0,0-.3-.1C114.3,68.7,114.2,68.8,114.1,69Zm.6.2c-.1,0-.1,0-.1.1l-.3.3a1.27,1.27,0,0,0,.6-.1v-.1A.22.22,0,0,0,114.7,69.2Zm0,1.2v.1a.1.1,0,0,0,.1-.1Zm.4,2.4V73l.1-.1v-.2Zm.4-.3v-.2l-.1-.1a.76.76,0,0,0-.2.4v.1C115.4,72.6,115.5,72.6,115.5,72.5Zm0,35.41h-.2l-.1.1c.1,0,.1,0,.1.1C115.4,108,115.5,108,115.5,107.91ZM115.3,69c0,.1.1.1.2.1a.31.31,0,0,1,.1-.2h-.3Zm.3-.8a.37.37,0,0,0,.1.3c.1.2.2.2.4.3a.1.1,0,0,0,.1-.1v-.2l-.4-.5-.1-.1A.37.37,0,0,0,115.6,68.2Zm.7,1.2h-.2v.2c.2.1.3.3.5.3V70a.1.1,0,0,0,.1-.1h-.1v-.3C116.5,69.5,116.3,69.5,116.3,69.4Zm.3-1.6a.76.76,0,0,0,.2.4v.3l.1.1c.3,0,.6-.4.6-.7s0-.4.3-.5h.2c.1,0,0-.1,0-.2s-.1-.1-.1,0a.76.76,0,0,0-.5.2h-.3l-.2-.1a.1.1,0,0,0-.1.1A.52.52,0,0,0,116.6,67.8Zm.4,34.91h-.2a.1.1,0,0,0-.1-.1h.2Zm.2,4.5-.1-.1c-.1.1-.1.1-.2.1a.31.31,0,0,0,.1.2A.22.22,0,0,1,117.2,107.21Zm1.2-.7a.54.54,0,0,0-.3-.4.6.6,0,0,0-.3.6h.5C118.4,106.71,118.4,106.61,118.4,106.51ZM118,65.8a.1.1,0,0,0,.1-.1c0-.1,0-.2-.1-.2Zm.2.8c-.1.1-.1.2-.2.2a.1.1,0,0,0,.1.1c.1,0,.1-.1.2-.1S118.2,66.7,118.2,66.6Zm.3-2.6c0,.1,0,.1.1.2v-.1c0-.1,0-.1-.1-.2S118.4,64,118.5,64Zm0,3.7h.2a.22.22,0,0,0,.2-.2l-.1-.1A.27.27,0,0,0,118.5,67.7Zm.2-1.5c0,.1,0,.1-.1.2a.1.1,0,0,1,.1.1c0-.1,0-.1.1-.2Zm.3,1.1c.1.1.1.1.2.1a.1.1,0,0,0,.1-.1v-.1l-.1-.1a.31.31,0,0,0-.2.1Zm.5-4.1a.1.1,0,0,0,.1-.1h-.1Zm0,4.4h.1c.1,0,.1.1.2.1a.37.37,0,0,1,.1.3v.2h.2c.2-.2.2-.3.2-.4a.37.37,0,0,0-.1-.3.77.77,0,0,1-.3-.1,1.44,1.44,0,0,0-.3.2v-.2h-.1Zm.1-4.5c.1,0,.1,0,.1-.1Zm0,3.6v.1h.1a.37.37,0,0,0,.1-.3v-.1l-.1-.1v.1C119.6,66.4,119.6,66.5,119.6,66.7Zm.6-3h-.1v-.1c-.1,0-.2.1-.3.2a1,1,0,0,0-.1.3h.3A.4.4,0,0,0,120.2,63.7Zm-.3-1a.46.46,0,0,0,.5-.3C120.2,62.4,120,62.4,119.9,62.7Zm.5-.3a1.08,1.08,0,0,1,.7-.3L121,62c0-.1-.1-.1-.2-.1a.35.35,0,0,1-.2.1C120.4,62.1,120.4,62.1,120.4,62.4Zm.8,42-.1.1h.1l.2-.1Zm.5-42.51c0,.1,0,.1.1.2h.2c.2.2.5.2.6.4.3,0,.3,0,.5-.2s.2-.1.2-.2l-.1-.1c-.2-.1-.3-.3-.4-.3l-.2-.1c-.2,0-.4.1-.6.1h-.2c-.1,0-.1,0-.1.1Zm.1-.9c.1,0,.1.1.2.1l.2-.2a.1.1,0,0,0-.1-.1H122c-.1,0-.1,0-.2.1Zm1.7-.4c0,.1.1.1.2.2l.1.1a.76.76,0,0,1,.2-.5v-.1h-.2Q123.5,60.45,123.5,60.6Zm.6,1.6a.22.22,0,0,0-.2.2c-.1.1,0,.1,0,.1a.31.31,0,0,0,.2-.1h.1l.1.1a.37.37,0,0,0-.1-.3Zm1-1.4.1-.1c0-.2.2-.3.2-.5a2.09,2.09,0,0,1,.6-.4,1.07,1.07,0,0,0,.9-.7c-.4.1-.8.2-.9.5a.31.31,0,0,1-.2.1c-.3,0-.4.1-.6.4a1.69,1.69,0,0,1-.2.5Zm.6.1c-.2,0-.2,0-.3.2s0,.1.1.2a.32.32,0,0,0,.3-.3A.1.1,0,0,0,125.7,60.9Zm1.1,38c0-.11-.1-.11-.1-.2h-.3a1.09,1.09,0,0,0-.1.5v.3h.2C126.8,99.51,126.8,99.21,126.8,98.91Zm.4-1.2a.36.36,0,0,0-.2.09c-.1,0-.1.11-.1.11h.1a.1.1,0,0,0,.1-.11C127.2,97.8,127.2,97.8,127.2,97.71Zm.4-39.11a1.55,1.55,0,0,1,.6-.3c.2,0,.3.2.5.6V59a.76.76,0,0,0-.4-.1c-.1.1-.2.1-.2.3v.2c.1,0,.2.2.2.3a.1.1,0,0,0,.1.1l.1-.1c.1,0,.2-.2.4-.3s.3-.3.2-.3a.5.5,0,0,1,0-.6c.1-.1.2-.1.2-.2a.35.35,0,0,0-.1-.2.1.1,0,0,1-.1-.1c0-.1.1-.1.2-.1,0-.3.2-.4.5-.6l.3-.2v.4c.3-.1.3-.3.5-.4s-.2-.2-.3-.3a.76.76,0,0,0-.2-.4h-.2c-.3.1-.6.4-.9.4h-.1c-.1.2-.3.3-.4.4s-.1.3-.2.3a6,6,0,0,1-.8.8v.3Zm.2,37.7-.1-.19c0,.1,0,.1-.1.1l.1.09Zm-.1.7s-.1-.1-.1,0Zm2.3-1.89c0-.11,0-.21-.1-.21-.2-.19-.3-.29-.4-.29a.34.34,0,0,1-.2-.11l-.1.11c-.4.1-.7.19-.8.69,0,.1-.2.2-.2.31s-.1.1-.1.19l.1.1h.2a.26.26,0,0,0,.3-.29V95.4c.1-.19.1-.29.3-.29a1.4,1.4,0,0,0,.6.19C129.7,95.3,130,95.21,130,95.11Zm-.6-40.51c0-.1,0,0,.1,0l-.1.1Zm.6,39.51-.1-.11h-.1c-.1,0-.1.11-.1.21l.2.19v-.1h.1Zm.4-38.61a.1.1,0,1,0,0-.2c-.1,0-.1.1-.2.1Zm.2.7a1.76,1.76,0,0,0,1-.9h-.2c-.3.3-.7.5-1.1.9Zm0,36.4c.1,0,.1,0,.2-.1h-.1v-.1c-.1.1-.1.2-.2.2Zm.6.7-.7-.3v.11c.1.19.3.29.3.5a.46.46,0,0,0,.3-.11C131.2,93.5,131.2,93.3,131.2,93.3Zm-.3-38.9c.1.1.2.2.2.3v.1a.31.31,0,0,1,.2.1l.1-.1c.2-.1.2-.2.4-.4h-.2c-.1,0-.2-.1-.4-.2V54a.31.31,0,0,0-.2.1c-.1,0-.1.1-.3.1C130.7,54.3,130.7,54.4,130.9,54.4Zm.6-1a.1.1,0,0,0,.1.1.6.6,0,0,0,.4-.1.1.1,0,0,0-.1-.1h-.3A.1.1,0,0,0,131.5,53.4Zm.4,1.6c0-.1-.1,0-.1,0s-.1.2-.2.3c.2,0,.3,0,.4-.2S132,55,131.9,55Zm.4-.9h.1a.37.37,0,0,0,.3-.1c-.1-.1-.2-.2-.2-.1S132.4,54,132.3,54.1Zm.2.7a.1.1,0,0,1,.1-.1.35.35,0,0,0,.2.1.31.31,0,0,1-.1-.2c-.1,0-.1.1-.2.1Zm.2,1.1a.76.76,0,0,0,.5-.2.31.31,0,0,0-.1-.2C132.9,55.5,132.8,55.6,132.7,55.9Zm.7-2.7-.2.2s-.2.1-.1.1a.1.1,0,0,0,.1.1c.1,0,.1-.2.1-.2a.55.55,0,0,0,.5-.2.64.64,0,0,1,.5-.5l.1-.1a.1.1,0,0,0-.1-.1,1.09,1.09,0,0,1-.5.1c-.1,0-.2,0-.2-.2s-.1-.2-.1-.1l-.4.2H133c0,.1,0,.2.1.2a.1.1,0,0,1,.1.1A.76.76,0,0,1,133.4,53.2Zm0,2.8v.1c0-.1,0-.1.1-.2C133.4,55.9,133.4,55.9,133.4,56Zm.1-1.9h.1l.4-.6v-.1h-.1a.92.92,0,0,0-.4.6Zm.9-.5a.1.1,0,0,0-.1.1c-.1,0-.1.1-.1.2l.4.4c.1,0,0-.1,0-.1v-.5A.31.31,0,0,0,134.4,53.6Zm.2-1.4c.1,0,.2.1.3.1s.2-.1.4-.2c0-.1.1-.2,0-.2s0-.1-.1-.1-.1.1-.2.1a.76.76,0,0,0-.4.1Zm.7.3q-.15,0-.3.3v.1c0,.1,0,.1.1.1h.1a.31.31,0,0,0,.2-.1v-.3Zm1.6,27.4h-.2c-.2,0-.3-.1-.4-.1V80c0,.1.2.2.5.3a1,1,0,0,0,.1-.3Zm-.3.7c-.2,0-.3.2-.3.5v.1h.1l.4-.6Zm1.1-3.6c-.1-.1-.1-.2-.1-.4v-.1c-.1.1-.1.1-.2.1a.55.55,0,0,0-.3.5c0,.1.1.3.1.4l.3.1a1.69,1.69,0,0,1,.2-.5Zm-.2,1c-.1,0-.1-.1-.2-.2,0,.1-.1.2-.1.3a.35.35,0,0,1,.2.1A.31.31,0,0,1,137.5,78Zm.1-3.1v.2h.2Zm.2-.9a.1.1,0,0,0,.1.1l.1-.1c0-.1-.1-.1-.1-.2v.1Zm.2,1.4c0,.1,0,.2.1.2h.1v-.5A1.44,1.44,0,0,0,138,75.4Zm.3.9c-.1,0-.1-.1-.2-.2a.1.1,0,0,0-.1.1v.1c.1,0,.2,0,.2.1Zm1.5-6.6c-.1,0-.2-.1-.3-.1s-.1.1-.1.3-.1.4-.1.6c-.3,0-.3.2-.3.3v.1l.1.1c0,.3,0,.3-.4.4a.35.35,0,0,1-.2.1,1.85,1.85,0,0,0-.2.7.37.37,0,0,0,.1.3c.1.3.1.7.2.9s0,.1.1.1,0,0,.1,0l.1-.1a3.87,3.87,0,0,0,.4-1.7c.3-.6.2-1.1.5-1.6Zm-1,4.7h-.2l.1.1Zm.8-7.2v-.1a.44.44,0,0,1-.1-.3c0,.1-.1.2-.1.3S139.5,67.2,139.6,67.2Zm1-1.6c0-.2-.1-.5-.1-.8,0-.1-.1,0-.1,0,0,.2,0,.3-.1.4s-.1.1-.1.2a.37.37,0,0,0,.1.3c0,.1-.1.1-.3.1,0-.1-.1,0-.3.2a3.09,3.09,0,0,1-.2.8.62.62,0,0,1,.5.3c0,.1,0,.1.1.1h.1a.1.1,0,0,0,.1-.1.35.35,0,0,1-.1-.2c0-.2,0-.5.1-.6l.2-.4A.37.37,0,0,0,140.6,65.6Zm-.7-5.7V60h.1v-.1Zm.3,7.9h-.3v.1C140,67.9,140.2,67.9,140.2,67.8Zm-.1-3.1v.1c.1,0,.1-.1.2-.2l-.1-.1C140.1,64.5,140.1,64.6,140.1,64.7Zm1-28.7a.76.76,0,0,1,.1-.4c.1-.1.2-.1.2-.2a.35.35,0,0,1-.1-.2.67.67,0,0,1-.4-.7v-.7c0-.3,0-.6-.1-.6l.2-.6c0-.2-.1-.2-.3-.3s-.2.1-.3.3a1.44,1.44,0,0,1-.2.3,1.07,1.07,0,0,0,.2.6,1.44,1.44,0,0,1,.2.3v1.5c0,.1.1.2.1.3s-.1.1-.1.2a.35.35,0,0,0-.2.1l.1.1c.1.4,0,.8.3,1.2a.9.9,0,0,1,.1.5,2,2,0,0,0,.2-1.1Zm-.2,25.5c0-.1-.1-.1-.1-.2s0-.3-.1-.4a.1.1,0,0,1-.1-.1l-.1.1a1.55,1.55,0,0,0-.2.8c0,.1.1.1.2.3s.1.1.2.1h.1c.1,0,.1,0,.1-.1a1,1,0,0,0-.1-.3A.35.35,0,0,0,140.9,61.5Zm-.5,11.9v-.1h.1A.1.1,0,0,1,140.4,73.4Zm.3-14.6c.3-.4.3-.8.5-1v-.2a.7.7,0,0,0-.4-.5.2.2,0,0,0-.2.2c0,.3-.1.6-.1.8v2.4a.55.55,0,0,0,.2-.5c0-.1.1-.2.4-.2a.35.35,0,0,0,.1-.2,1.48,1.48,0,0,0,.1-.7h-.2l-.1-.1a.31.31,0,0,1-.2.1v-.1Zm.8-16.1v-.1l-.1-.1c0,.1-.1.1-.1.2v.5a.35.35,0,0,1-.2.1v-.1a3.75,3.75,0,0,0-.1-1.1.1.1,0,0,0,.1-.1l-.1-.1c-.2,0-.1.8-.4,1.3v.2c.2.3.3,1,.6,1h.1v-.5a1.09,1.09,0,0,1,.1-.5C141.5,43.3,141.5,43,141.5,42.7Zm-.6,10.9h-.3v.3a1.23,1.23,0,0,1,.2.7l-.2.5a1.06,1.06,0,0,0,.2.5l.1.1h.2v-.2a2.49,2.49,0,0,1-.1-.8c0-.1.1-.1.1-.3v-.2a.49.49,0,0,1-.1-.3C141,53.7,141,53.6,140.9,53.6Zm-.2,3.1a.1.1,0,0,1,.1-.1v-.1h-.2C140.6,56.6,140.6,56.6,140.7,56.7Zm.4-5.2-.2-.1a.1.1,0,0,0,.1.1l-.1.1h.1A.1.1,0,0,1,141.1,51.5Zm.4,7v-.2h-.1C141.4,58.4,141.5,58.4,141.5,58.5Zm.5-14.6a.22.22,0,0,0-.2-.2c0,.2-.1.3-.1.4s-.2.4-.2.5,0,.1.1.1h.1v-.1a.76.76,0,0,1,.1-.4C141.8,44,141.9,44,142,43.9Zm-.2-10.5-.1-.1h-.1c0,.1.1.1.1.2A.1.1,0,0,0,141.8,33.4Zm.1,1.3h-.2v.2Zm.8,12.5h-.1c-.1.1-.1.1-.1.2v.1h.1A.37.37,0,0,0,142.7,47.2Z"/><path d="M174.05,1a5.44,5.44,0,0,1,3.35-1h9.8a6.89,6.89,0,0,1,3.65,1A6.07,6.07,0,0,1,193.2,4.5l14.3,49.2h.2L222.5,4.5A5.89,5.89,0,0,1,224.9,1,7.15,7.15,0,0,1,228.6,0h9.6a5.46,5.46,0,0,1,3.35,1c.9.67,1.35,1.9,1.35,3.7V67.1c0,1.8-.45,3-1.35,3.7a5.46,5.46,0,0,1-3.35,1h-3.5a5.46,5.46,0,0,1-3.35-1c-.9-.66-1.35-1.9-1.35-3.7V17.3h-.2l-15,50a8.08,8.08,0,0,1-1.75,3.25,4.18,4.18,0,0,1-3.25,1.25h-4.1a4.16,4.16,0,0,1-3.25-1.25,8.08,8.08,0,0,1-1.75-3.25l-15.1-50h-.2V67.1c0,1.8-.45,3-1.35,3.7a5.46,5.46,0,0,1-3.35,1h-3.3a5.44,5.44,0,0,1-3.35-1c-.9-.66-1.35-1.9-1.35-3.7V4.7C172.7,2.9,173.15,1.67,174.05,1Z"/><path d="M260,1a5.49,5.49,0,0,1,3.36-1h37c1.8,0,3,.45,3.7,1.35a5.52,5.52,0,0,1,1,3.35V6.9a5.52,5.52,0,0,1-1,3.35c-.67.9-1.9,1.35-3.7,1.35H272.5V29.2h18.6c1.8,0,3,.45,3.7,1.35a5.52,5.52,0,0,1,1,3.35v1.8a5.5,5.5,0,0,1-1,3.35c-.67.9-1.9,1.35-3.7,1.35H272.5V60.2h29c1.8,0,3,.45,3.7,1.35a5.52,5.52,0,0,1,1,3.35v2.2a5.55,5.55,0,0,1-1,3.36c-.67.89-1.9,1.34-3.7,1.34H263.4a5.49,5.49,0,0,1-3.36-1c-.89-.66-1.34-1.9-1.34-3.7V4.7C258.7,2.9,259.15,1.67,260,1Z"/><path d="M318,1a5.46,5.46,0,0,1,3.35-1H338.7q35,0,35,34.9,0,18.21-9.3,27.55T337.29,71.8h-15.9a5.46,5.46,0,0,1-3.35-1c-.9-.66-1.35-1.9-1.35-3.7V4.7C316.69,2.9,317.14,1.67,318,1ZM354.7,53.55q5.19-6.24,5.2-18.35,0-11.6-4.95-17.4T339.59,12h-9.1V59.8h7.71Q349.5,59.8,354.7,53.55Z"/><path d="M386.94,1a5.46,5.46,0,0,1,3.35-1h4.4A5.44,5.44,0,0,1,398,1c.9.67,1.35,1.9,1.35,3.7V67.1c0,1.8-.45,3-1.35,3.7a5.44,5.44,0,0,1-3.35,1h-4.4a5.46,5.46,0,0,1-3.35-1c-.9-.66-1.35-1.9-1.35-3.7V4.7C385.59,2.9,386,1.67,386.94,1Z"/><path d="M431.39,1a7.15,7.15,0,0,1,3.7-.95h9.3a7.12,7.12,0,0,1,3.7,1A6,6,0,0,1,450.5,4.5l18.9,62.8a7.22,7.22,0,0,1,.3,2.41,2.07,2.07,0,0,1-.6,1.34,2.66,2.66,0,0,1-1.3.6,9.27,9.27,0,0,1-1.7.15H460a4.33,4.33,0,0,1-3.1-1,8.29,8.29,0,0,1-1.8-3.55l-4-14.4H427.89l-4,14.4a8.29,8.29,0,0,1-1.8,3.55,4.33,4.33,0,0,1-3.1,1h-5.5a9.27,9.27,0,0,1-1.7-.15,3,3,0,0,1-1.35-.6,2.15,2.15,0,0,1-.7-1.34,5.32,5.32,0,0,1,.35-2.41L429,4.5A6,6,0,0,1,431.39,1Zm8.2,10.45h-.2l-8.3,30H447.9Z"/><path d="M484.59,0V71.8h-5.9V0Zm4.5,42V0H495V19.9a77.72,77.72,0,0,1-.3,8,55.41,55.41,0,0,1,5.5-7.7L516.49,0h6.6l-33.7,42Zm16.4-13.7,20.6,43.5h-6.5L506,41.6c-.8-1.8-1.3-2.8-1.7-3.6-.5.8-1.4,2-2.4,3.3L495,50.2V71.8h-5.9V48.9Zm32,43.5h-6.61l-22.3-47.3L528.2,0h6.59l-20,24.9Z"/><path d="M548.49,0V71.8h-6V0Zm10.4,0V71.8h-6V0Z"/><path d="M618.29,0V5.5h-52.7V0Zm-28.6,9.5V71.8h-6.2V15h-17.9V9.5Zm4.5,0h24.1V15h-17.9V71.8h-6.2Z"/></svg>