<?xml version="1.0" encoding="utf-8"?>
<!-- Generator: Adobe Illustrator 23.0.3, SVG Export Plug-In . SVG Version: 6.00 Build 0)  -->
<svg version="1.1" id="Layer_1" xmlns="http://www.w3.org/2000/svg" xmlns:xlink="http://www.w3.org/1999/xlink" x="0px" y="0px"
	 viewBox="0 0 897.4 131.95" style="enable-background:new 0 0 897.4 131.95;" xml:space="preserve">
<style type="text/css">
	.st0{display:none;}
</style>
<g>
	<path d="M64.31,57.71c3.05,1.55,5.61,3.92,7.69,7.11c2.08,3.19,3.12,7.06,3.12,11.6c0,8.51-3.38,15.06-10.15,19.65
		c-6.77,4.59-15.9,6.89-27.41,6.89H1.88c-0.48,0-0.92-0.24-1.31-0.72S0,101.21,0,100.63V10.44c0-0.39,0.19-0.77,0.58-1.16
		S1.4,8.7,1.88,8.7h33.64c5.22,0,10.03,0.53,14.43,1.59c4.4,1.06,8.17,2.66,11.31,4.79c3.14,2.13,5.56,4.76,7.25,7.9
		c1.69,3.14,2.54,6.69,2.54,10.66c0,3.58-0.75,6.86-2.25,9.86c-1.5,3-3.5,5.37-6.02,7.11s-4.98,3-7.4,3.77
		C58.29,55.05,61.26,56.17,64.31,57.71z M8.56,15.66v36.11h31.32c3.09,0,6.48-0.51,10.15-1.52s6.74-2.92,9.21-5.73
		c2.47-2.8,3.7-6.28,3.7-10.44c0-6.09-2.42-10.68-7.25-13.78s-11.41-4.64-19.72-4.64H8.56z M59.02,91.28
		c5.12-3.33,7.69-8.34,7.69-15.01c0-5.8-2.37-10.2-7.1-13.2c-4.74-3-11.21-4.5-19.43-4.5H8.56v37.7h29.44
		C46.88,96.28,53.89,94.62,59.02,91.28z"/>
	<path class="st0" d="M163.56,102.81l-4.5,0.58c-1.16,0.1-1.88-0.29-2.17-1.16l-2.61-13.2c-3.19,5.12-7.37,9.09-12.54,11.89
		c-5.17,2.8-10.8,4.21-16.89,4.21c-9.86,0-17.79-3.33-23.78-10c-5.99-6.67-8.99-15.56-8.99-26.68c0-5.51,0.77-10.59,2.32-15.23
		c1.55-4.64,3.75-8.6,6.6-11.89c2.85-3.29,6.26-5.8,10.22-7.54c3.96-1.74,8.31-2.61,13.05-2.61c5.9,0,11.36,1.38,16.39,4.13
		s9.18,6.6,12.47,11.53l0.73-12.04c0.19-0.97,0.82-1.45,1.89-1.45h3.62c1.16,0,1.74,0.58,1.74,1.74v45.53l3.48,20.59
		C164.77,102.08,164.43,102.62,163.56,102.81z M141.23,93.82c4.74-2.8,8.65-6.72,11.75-11.75l-0.29-1.3V55.54
		c-3.29-5.41-7.23-9.59-11.82-12.54s-9.64-4.42-15.15-4.42c-7.64,0-13.85,2.75-18.63,8.27c-4.79,5.51-7.18,12.71-7.18,21.61
		c0,9.09,2.34,16.29,7.03,21.61c4.69,5.32,10.9,7.98,18.63,7.98C131.27,98.02,136.49,96.62,141.23,93.82z"/>
	<path d="M250.49,41.47c5.75,6.86,8.63,15.85,8.63,26.97c0,11.21-2.9,20.13-8.7,26.75c-5.8,6.62-13.49,9.93-23.06,9.93
		c-12.37,0-22.14-5.32-29.29-15.95v0.29l-1.89,12.62c0,0.19-0.1,0.51-0.29,0.94c-0.19,0.44-0.63,0.6-1.31,0.51l-3.62-0.44
		c-0.87-0.19-1.31-0.68-1.31-1.45l0.29-99.33c0-0.87,0.48-1.4,1.45-1.59L196.18,0c0.19,0,0.56,0.07,1.09,0.22
		c0.53,0.14,0.8,0.65,0.8,1.52v45.68c6.96-10.83,16.92-16.24,29.87-16.24C237.22,31.18,244.73,34.61,250.49,41.47z M244.03,89.83
		c4.64-5.27,6.96-12.4,6.96-21.39c0-3.29-0.39-6.65-1.16-10.08c-0.77-3.43-2.13-6.62-4.06-9.57c-1.93-2.95-4.5-5.39-7.69-7.32
		c-3.19-1.93-7.06-2.9-11.6-2.9c-6.48,0.1-12.06,1.74-16.75,4.93c-4.69,3.19-8.58,7.49-11.67,12.91v23.34
		c3.48,5.7,7.54,10.13,12.18,13.27s9.72,4.71,15.23,4.71C233.21,97.73,239.39,95.1,244.03,89.83z"/>
	<path d="M343.5,34.51v68.73c0,8.51-3.04,15.42-9.14,20.74c-6.09,5.32-13.97,7.98-23.64,7.98c-4.06,0-7.95-0.51-11.67-1.52
		c-3.72-1.02-6.84-2.39-9.35-4.13c-0.77-0.68-1.02-1.45-0.73-2.32l1.16-3.48c0.39-1.06,1.31-1.21,2.76-0.44
		c2.22,1.45,4.95,2.59,8.19,3.41c3.24,0.82,6.45,1.23,9.64,1.23c5.32,0,9.81-1.04,13.49-3.12c3.67-2.08,6.4-4.66,8.19-7.76
		c1.79-3.09,2.68-6.62,2.68-10.58V87.73c-2.9,5.32-6.82,9.47-11.75,12.47c-4.93,3-10.15,4.5-15.66,4.5
		c-8.12,0-14.48-2.51-19.07-7.54c-4.59-5.03-6.89-12.08-6.89-21.17V34.66c0-0.77,0.44-1.16,1.31-1.16l5.8-0.29
		c0.29,0,0.58,0.1,0.87,0.29s0.43,0.48,0.43,0.87v41.47c0,6.96,1.72,12.33,5.15,16.1c3.43,3.77,8.19,5.66,14.28,5.66
		c4.83,0,9.55-1.52,14.14-4.57s8.39-7.56,11.38-13.56V34.51c0-0.77,0.44-1.16,1.31-1.16h5.94C343.12,33.35,343.5,33.74,343.5,34.51z
		"/>
	<path d="M479.36,17.47c6.96,5.85,10.44,13.51,10.44,22.98c0,4.64-0.92,8.94-2.75,12.91c-1.84,3.96-4.47,7.37-7.9,10.22
		c-3.43,2.85-7.56,5.03-12.4,6.53c-4.83,1.5-10.05,2.25-15.66,2.25l-25.38-0.29v29.58c0,0.87-0.39,1.3-1.16,1.3h-6.09
		c-0.87,0-1.3-0.43-1.3-1.3V11.17c0-1.64,0.72-2.46,2.17-2.46h32.63C463.27,8.7,472.4,11.62,479.36,17.47z M473.06,58.44
		c5.66-4.54,8.48-10.54,8.48-17.98c0-7.35-2.75-13.29-8.27-17.83c-5.51-4.54-12.76-6.82-21.75-6.82h-25.81v49.3l25.09,0.14
		C459.98,65.25,467.4,62.98,473.06,58.44z"/>
	<path d="M576.37,102.81l-5.07,0.72c-0.97,0-1.6-0.44-1.89-1.3l-2.75-12.18c-0.68-3.09-1.01-6.91-1.01-11.46V60.47
		c0-6.96-1.91-12.35-5.73-16.17c-3.82-3.82-8.82-5.73-15.01-5.73c-5.32,0-10.42,1.64-15.3,4.93c-4.88,3.29-8.82,8.36-11.82,15.23
		v42.92c0,0.87-0.44,1.3-1.31,1.3h-5.94c-0.77,0-1.16-0.43-1.16-1.3V2.03c0-0.87,0.43-1.3,1.3-1.3L516.19,0
		c1.06,0,1.6,0.53,1.6,1.59v48c1.26-2.8,3.21-5.68,5.87-8.63c2.66-2.95,6.09-5.32,10.3-7.11s8.58-2.68,13.12-2.68
		c8.02,0,14.5,2.46,19.43,7.4c4.93,4.93,7.39,11.75,7.39,20.45V78.3c0,3.38,0.39,7.01,1.16,10.88l2.32,12.33
		C577.48,102.18,577.14,102.62,576.37,102.81z"/>
	<path d="M617.69,102.45c-4.54-1.79-8.46-4.3-11.75-7.54c-3.29-3.24-5.8-7.15-7.54-11.75c-1.74-4.59-2.61-9.59-2.61-15.01
		c0-5.32,0.87-10.22,2.61-14.72c1.74-4.5,4.25-8.36,7.54-11.6c3.29-3.24,7.2-5.73,11.75-7.47c4.54-1.74,9.47-2.61,14.79-2.61
		c10.92,0,19.77,3.36,26.54,10.08s10.15,15.49,10.15,26.32c0,5.41-0.87,10.42-2.61,15.01s-4.23,8.51-7.47,11.75
		s-7.15,5.75-11.75,7.54c-4.59,1.79-9.55,2.68-14.86,2.68C627.16,105.13,622.23,104.23,617.69,102.45z M653.14,89.69
		c5.27-5.46,7.9-12.64,7.9-21.53c0-8.7-2.63-15.73-7.9-21.1s-12.16-8.05-20.66-8.05s-15.39,2.68-20.66,8.05s-7.9,12.4-7.9,21.1
		c0,8.89,2.63,16.07,7.9,21.53s12.16,8.19,20.66,8.19S647.88,95.15,653.14,89.69z"/>
	<path d="M736.01,34.51v4.21c0,0.77-0.39,1.16-1.16,1.16h-29v45.24c0,3.67,1.06,6.62,3.19,8.85s5.03,3.33,8.7,3.33
		c5.03,0,10-0.97,14.94-2.9c0.87-0.19,1.43-0.1,1.67,0.29c0.24,0.39,0.36,0.68,0.36,0.87l0.43,3.77c0.1,0.39,0.02,0.75-0.22,1.09
		c-0.24,0.34-0.56,0.56-0.94,0.65c-5.9,2.32-11.79,3.48-17.69,3.48c-2.13,0-4.3-0.29-6.53-0.87s-4.33-1.69-6.31-3.33
		s-3.46-3.82-4.42-6.53c-0.97-2.71-1.45-5.36-1.45-7.97V39.88h-8.7c-0.87,0-1.3-0.39-1.3-1.16v-4.21c0-0.77,0.44-1.16,1.3-1.16h8.7
		l1.88-15.95c0.1-0.58,0.34-1.04,0.72-1.38c0.39-0.34,0.82-0.51,1.31-0.51h2.46c1.26,0,1.88,0.63,1.88,1.88v15.95h29
		C735.63,33.35,736.01,33.74,736.01,34.51z"/>
	<path d="M772.12,102.45c-4.54-1.79-8.46-4.3-11.75-7.54c-3.29-3.24-5.8-7.15-7.54-11.75c-1.74-4.59-2.61-9.59-2.61-15.01
		c0-5.32,0.87-10.22,2.61-14.72c1.74-4.5,4.25-8.36,7.54-11.6c3.29-3.24,7.2-5.73,11.75-7.47c4.54-1.74,9.47-2.61,14.79-2.61
		c10.92,0,19.77,3.36,26.54,10.08s10.15,15.49,10.15,26.32c0,5.41-0.87,10.42-2.61,15.01s-4.23,8.51-7.47,11.75
		s-7.15,5.75-11.75,7.54c-4.59,1.79-9.55,2.68-14.86,2.68C781.59,105.13,776.66,104.23,772.12,102.45z M807.57,89.69
		c5.27-5.46,7.9-12.64,7.9-21.53c0-8.7-2.63-15.73-7.9-21.1s-12.16-8.05-20.66-8.05s-15.39,2.68-20.66,8.05s-7.9,12.4-7.9,21.1
		c0,8.89,2.63,16.07,7.9,21.53s12.16,8.19,20.66,8.19S802.3,95.15,807.57,89.69z"/>
	<path d="M851.65,56.62c1.3,1.69,3.19,3.09,5.66,4.21c2.46,1.11,7.42,2.42,14.86,3.92c7.44,1.5,12.59,3.02,15.44,4.57
		c2.85,1.55,4.95,3.24,6.31,5.08c1.35,1.84,2.27,3.7,2.75,5.58c0.48,1.89,0.73,3.65,0.73,5.29c0,5.9-2.73,10.68-8.19,14.36
		c-5.46,3.67-12.74,5.51-21.82,5.51c-10.54,0-19.24-2.08-26.1-6.24c-0.58-0.19-0.87-0.92-0.87-2.17V92.8c0-0.48,0.24-0.8,0.73-0.94
		c0.48-0.15,0.97-0.12,1.45,0.07c3.48,2.03,7.18,3.58,11.09,4.64s8.48,1.55,13.7,1.45c3.29,0,6.67-0.39,10.15-1.16
		c3.48-0.77,6.31-2.2,8.48-4.28c2.17-2.08,3.26-4.52,3.26-7.32c0-3.09-1.14-5.7-3.41-7.83s-7.49-3.96-15.66-5.51
		c-8.17-1.55-13.58-2.9-16.24-4.06c-2.66-1.16-4.76-2.39-6.31-3.7c-1.55-1.3-2.88-3.04-3.99-5.22c-1.11-2.17-1.67-5.05-1.67-8.63
		c0-5.99,2.44-10.68,7.32-14.07c4.88-3.38,11.48-5.08,19.79-5.08c7.93,0,15.52,1.74,22.77,5.22c0.87,0.29,1.16,1.01,0.87,2.17
		l-1.01,3.33c-0.39,1.16-1.11,1.5-2.18,1.01c-6.86-3.29-13.68-4.93-20.45-4.93c-5.8,0-10.44,1.11-13.92,3.33
		c-3.48,2.22-5.27,5.22-5.37,8.99C849.74,52.83,850.34,54.93,851.65,56.62z"/>
</g>
<g>
	<path d="M162.81,84.05c7.34-14.07,4.84-31.41-6.4-42.87c-11.25-11.46-28.58-14.28-42.8-7.18c-3.75-2.91-9.19-2.67-12.67,0.74
		c-3.23,3.17-3.75,8.07-1.55,11.8c-4.46,6.67-6.62,14.67-6.13,22.75c0.54,8.86,4.27,17.23,10.49,23.57
		c6.23,6.34,14.53,10.23,23.38,10.93c8.02,0.64,16.01-1.35,22.74-5.64c3.73,2.63,8.94,2.3,12.31-1.01
		C165.8,93.59,166.03,87.87,162.81,84.05z M152.4,93.22c-0.08-0.08-0.15-0.17-0.22-0.25l-1.63-1.93l-2.04,1.48
		c-12.49,9.06-30.07,7.57-40.89-3.46c-10.82-11.02-11.98-28.62-2.71-40.93l1.4-1.86l-1.63-1.67c-1.63-1.66-1.61-4.35,0.06-5.98
		c1.66-1.63,4.35-1.61,5.98,0.06c0.1,0.1,0.2,0.22,0.3,0.34l1.45,1.83l2.02-1.16c12.39-7.08,28.04-4.9,38.05,5.3
		c10.04,10.22,11.9,25.94,4.54,38.21l-1.3,2.16l2.06,1.45c0.23,0.16,0.42,0.32,0.59,0.49c1.63,1.66,1.61,4.35-0.06,5.98
		C156.72,94.9,154.04,94.88,152.4,93.22z"/>
	<circle cx="122.78" cy="53.63" r="3.71"/>
	<path d="M145.95,71.94c-1.43-1.46-3.78-1.48-5.24-0.05c-1.46,1.43-1.48,3.78-0.05,5.24c1.43,1.46,3.78,1.48,5.24,0.05
		C147.36,75.75,147.38,73.4,145.95,71.94z"/>
	<path d="M119.18,78.06c-2.65-2.7-3.6-6.43-2.87-9.88l-3.06-3.12c-2.05,5.24-0.99,11.42,3.19,15.69c4.19,4.27,10.35,5.43,15.63,3.49
		L129,81.12C125.55,81.78,121.83,80.76,119.18,78.06z"/>
</g>
</svg>
