<svg id="Layer_1" data-name="Layer 1" xmlns="http://www.w3.org/2000/svg" viewBox="0 0 899.14 131.98"><defs><style>.cls-1{fill:#4391ca;}.cls-2{fill:#b5e3db;}.cls-3{fill:#e57a94;}.cls-4{fill:#f3d549;}.cls-5{fill:#e9b17b;}.cls-6{fill:#b5e5dc;}.cls-7{fill:#e77c96;}.cls-8{fill:#4593cc;}.cls-9{fill:#b7e6dd;}</style></defs><title>Untitled-3</title><path class="cls-1" d="M71.41,61.73Q76.27,67.31,76.27,76A22.88,22.88,0,0,1,66,95.73Q55.68,103,38.43,103H2.17a1.88,1.88,0,0,1-1.52-.87A3.11,3.11,0,0,1,0,100.22V10.9A2.09,2.09,0,0,1,.65,9.38a2.07,2.07,0,0,1,1.52-.65H36.83q16.1,0,25.74,6.74A21.36,21.36,0,0,1,72.21,34a20.79,20.79,0,0,1-3.77,12.4,21.57,21.57,0,0,1-10.87,7.75Q66.56,56.15,71.41,61.73Zm-60.1-44V50.78h29q9,0,15.08-4.21a13.73,13.73,0,0,0,6.09-12A14.14,14.14,0,0,0,55,22.14q-6.52-4.42-17.55-4.42ZM58.07,89.64a15.91,15.91,0,0,0,7.18-13.92q0-8.11-6.52-12.11t-18.13-4H11.31V94.57H38.86Q50.89,94.57,58.07,89.64Z"/><path class="cls-2" d="M166.1,102.18a1.25,1.25,0,0,1-1.09.51l-6.23.72c-1.55.29-2.37-.14-2.47-1.3L153.7,90.36a31.48,31.48,0,0,1-12,11,34.77,34.77,0,0,1-16.25,3.84,34.39,34.39,0,0,1-13.34-2.53,28.68,28.68,0,0,1-10.44-7.4A33.46,33.46,0,0,1,95,83.55a46.26,46.26,0,0,1-2.32-14.94A55.17,55.17,0,0,1,94.18,56,36.71,36.71,0,0,1,100,43.31a26.09,26.09,0,0,1,10.94-9.14,33.21,33.21,0,0,1,13.63-3A33.93,33.93,0,0,1,140.29,35a34.32,34.32,0,0,1,12.11,10.3l1-10.15a2.06,2.06,0,0,1,2.18-1.74h5.22c1.25,0,1.88.67,1.88,2V80.94l3.63,20A1.55,1.55,0,0,1,166.1,102.18ZM141,92.32A32,32,0,0,0,151.82,82.1l-.15-.87V55.56a34.5,34.5,0,0,0-11-10.94,26.4,26.4,0,0,0-13.92-3.85q-10.73,0-17.33,7.62t-6.6,20.22q0,12.48,6.53,19.94T126.58,96A28.44,28.44,0,0,0,141,92.32Z"/><path class="cls-3" d="M253,41.5q8.63,10.29,8.63,27t-8.7,26.68q-8.7,10-22.77,10-18.41,0-28.71-14.93l-2.17,11.89a2,2,0,0,1-2,1.74l-5.08-.87a1.55,1.55,0,0,1-1.45-1.6l.15-98.45A1.69,1.69,0,0,1,192.56,1l6.81-1a1.85,1.85,0,0,1,1.67.5,2.25,2.25,0,0,1,.65,1.67V45.85a36.08,36.08,0,0,1,8.12-8.34,29,29,0,0,1,10.3-4.93A42.45,42.45,0,0,1,230.4,31.2Q244.33,31.2,253,41.5ZM244.4,88.12q6.45-7.34,6.45-19.65t-6.23-20a20.07,20.07,0,0,0-16.39-7.69,29.07,29.07,0,0,0-15.59,4.5,34.21,34.21,0,0,0-10.95,11.45V79.2a38,38,0,0,0,11.31,12,25.68,25.68,0,0,0,14.36,4.28Q238,95.44,244.4,88.12Z"/><path class="cls-4" d="M345.68,34.83v67.71a32.59,32.59,0,0,1-1.6,9.86,26,26,0,0,1-6.16,9.94,27.94,27.94,0,0,1-11.6,7.25A44.65,44.65,0,0,1,311.89,132a48.08,48.08,0,0,1-11.74-1.45,29.15,29.15,0,0,1-9.57-4.06,3,3,0,0,1-.8-.8,1.8,1.8,0,0,1-.07-1.81l1.59-4.78q.58-1.89,3.05-.58a42.83,42.83,0,0,0,8.48,2.9,39.3,39.3,0,0,0,9.06,1.15,31.48,31.48,0,0,0,10.23-1.81,18.4,18.4,0,0,0,8.91-6.67,18,18,0,0,0,3.48-11.53V89.2a30.92,30.92,0,0,1-11.23,11.39,29,29,0,0,1-14.87,4.13q-11.75,0-18.56-7.61T283,76.3V35.12a1.44,1.44,0,0,1,1.45-1.6l8.12-.43a1.28,1.28,0,0,1,1.45,1.45V76a28.9,28.9,0,0,0,1.52,9,15,15,0,0,0,5.66,7.61,16.29,16.29,0,0,0,9.78,3,23.17,23.17,0,0,0,13.05-4.27A31.7,31.7,0,0,0,334.51,79.2V34.83A1.28,1.28,0,0,1,336,33.38h8.12C345.15,33.38,345.68,33.86,345.68,34.83Z"/><path class="cls-5" d="M479.88,17.64q10.5,8.92,10.51,23.28a30.65,30.65,0,0,1-2.76,13,29.66,29.66,0,0,1-7.9,10.29,35,35,0,0,1-12.4,6.6,52.55,52.55,0,0,1-15.66,2.25H427.75v28.42A1.28,1.28,0,0,1,426.3,103h-8.41a1.28,1.28,0,0,1-1.45-1.45V11.63a3.24,3.24,0,0,1,.65-2,2.13,2.13,0,0,1,1.81-.87h33.35Q469.37,8.73,479.88,17.64Zm-8.12,40a20.39,20.39,0,0,0,7.9-16.75A20.63,20.63,0,0,0,472,24.24q-7.68-6.37-20.15-6.38H427.75v46l23.34.14Q463.86,64,471.76,57.67Z"/><path class="cls-6" d="M578.91,102.25a1.18,1.18,0,0,1-.94.44l-6.82,1a2,2,0,0,1-1.45-.29,1.73,1.73,0,0,1-.87-1.16l-3-12.61a40.56,40.56,0,0,1-1-10.59V61.22a25.34,25.34,0,0,0-2.32-11.09A14.71,14.71,0,0,0,555.56,43a21.53,21.53,0,0,0-9.64-2.25,24.21,24.21,0,0,0-10.8,2.69,26.83,26.83,0,0,0-9.07,7.1,39.15,39.15,0,0,0-5.51,8.63v42.34a1.28,1.28,0,0,1-1.45,1.45H511c-1.06,0-1.59-.48-1.59-1.45V2.78A1.66,1.66,0,0,1,511,1l7.54-.87A1.58,1.58,0,0,1,520,.61a1.94,1.94,0,0,1,.58,1.45v46.4a29.59,29.59,0,0,1,11.75-12.62,32.47,32.47,0,0,1,16.82-4.64q12,0,19.36,7.25t7.32,20.45V78.62a47.19,47.19,0,0,0,1,9.86l2.32,12.76A1.1,1.1,0,0,1,578.91,102.25Z"/><path class="cls-4" d="M619,102.47a32.62,32.62,0,0,1-19.36-19.28,41,41,0,0,1-2.68-15,40,40,0,0,1,2.68-14.79,32.18,32.18,0,0,1,19.36-19,42.62,42.62,0,0,1,15.08-2.61,42,42,0,0,1,15,2.61,34.13,34.13,0,0,1,11.82,7.4,32.57,32.57,0,0,1,7.61,11.6,40,40,0,0,1,2.68,14.79q0,16.53-10.29,26.75t-26.83,10.22A41.55,41.55,0,0,1,619,102.47Zm34.15-14.35q7.32-7.62,7.32-19.94a28.15,28.15,0,0,0-6-18.2,23.51,23.51,0,0,0-7.9-6.09,27,27,0,0,0-12.47-2.68,31.66,31.66,0,0,0-8.85,1.3,23.82,23.82,0,0,0-8.41,4.5,24.87,24.87,0,0,0-6.52,8.48,28.44,28.44,0,0,0-2.61,12.69q0,12.33,7.32,19.94t19.07,7.61Q645.82,95.73,653.15,88.12Z"/><path class="cls-7" d="M737.61,34.83v5.51c0,1-.44,1.45-1.31,1.45H709V84.27a10.85,10.85,0,0,0,2.9,7.91,10.46,10.46,0,0,0,7.83,3,42.09,42.09,0,0,0,13.92-2.47c1.36-.48,2.13,0,2.32,1.31l.73,5.07a2.17,2.17,0,0,1-1.31,2.18,40.17,40.17,0,0,1-8.48,2.54,48.3,48.3,0,0,1-9.21.94q-9.13,0-14.35-5.29t-5.22-14.14V41.79h-8.56a1.29,1.29,0,0,1-1.45-1.45V34.83a1.28,1.28,0,0,1,1.45-1.45h8.56L700.63,18a2.7,2.7,0,0,1,.87-1.67,2.33,2.33,0,0,1,1.6-.65h3.77a2.07,2.07,0,0,1,1.52.65A2.27,2.27,0,0,1,709,18V33.38H736.3C737.17,33.38,737.61,33.86,737.61,34.83Z"/><path class="cls-8" d="M773.28,102.47a32.62,32.62,0,0,1-19.36-19.28,41,41,0,0,1-2.68-15,40,40,0,0,1,2.68-14.79,32.18,32.18,0,0,1,19.36-19,42.58,42.58,0,0,1,15.08-2.61,42,42,0,0,1,15,2.61,34,34,0,0,1,11.82,7.4,32.46,32.46,0,0,1,7.62,11.6,40.17,40.17,0,0,1,2.68,14.79q0,16.53-10.3,26.75t-26.82,10.22A41.52,41.52,0,0,1,773.28,102.47Zm34.15-14.35q7.32-7.62,7.32-19.94a28.15,28.15,0,0,0-6-18.2,23.61,23.61,0,0,0-7.9-6.09,27,27,0,0,0-12.47-2.68,31.66,31.66,0,0,0-8.85,1.3A23.74,23.74,0,0,0,771.1,47a24.87,24.87,0,0,0-6.52,8.48A28.44,28.44,0,0,0,762,68.18q0,12.33,7.32,19.94t19.07,7.61Q800.11,95.73,807.43,88.12Z"/><path class="cls-9" d="M890.8,99.5q-8.49,5.66-22.55,5.65-15.51,0-25.67-5.8a2.6,2.6,0,0,1-1-2.46l-.15-5.51a1.25,1.25,0,0,1,.8-1.31,2.94,2.94,0,0,1,1.81,0q10.31,6,24.22,6,9.57,0,14.94-3t5.36-8.26a8.74,8.74,0,0,0-3.26-7Q882,75,871.59,73.25a112.91,112.91,0,0,1-14.87-3.19,28.58,28.58,0,0,1-7.54-3.62,15.47,15.47,0,0,1-5-6,21,21,0,0,1-1.89-9.35A16.81,16.81,0,0,1,850,36.57q7.68-5.37,20.59-5.37a53.38,53.38,0,0,1,22.77,4.93,1.77,1.77,0,0,1,1,1.09,2.1,2.1,0,0,1,0,1.52l-1.3,4.64a2,2,0,0,1-2.61,1.45,45.15,45.15,0,0,0-19.87-4.78q-8,0-12.91,3t-5.07,8a8.94,8.94,0,0,0,1.88,5.8,12.34,12.34,0,0,0,5.22,3.62q3.34,1.3,15.16,3.63t16.09,5.22a17,17,0,0,1,8.2,15.51Q899.28,93.85,890.8,99.5Z"/></svg>