<svg xmlns="http://www.w3.org/2000/svg" width="97.75" height="97.75"><path d="M48.875 0C21.883 0 0 21.882 0 48.875S21.883 97.75 48.875 97.75 97.75 75.868 97.75 48.875 75.867 0 48.875 0zm5.624 65.109c-4.521 0-8.773-2.444-10.229-5.219 0 0-2.432 9.645-2.943 11.506-1.813 6.58-7.146 13.162-7.561 13.701-.289.375-.928.258-.994-.24-.113-.838-1.475-9.139.127-15.909.801-3.4 5.383-22.814 5.383-22.814s-1.334-2.673-1.334-6.625c0-6.205 3.596-10.837 8.074-10.837 3.807 0 5.645 2.859 5.645 6.286 0 3.828-2.436 9.552-3.693 14.856-1.051 4.441 2.225 8.064 6.605 8.064 7.933 0 13.272-10.188 13.272-22.261 0-9.174-6.176-16.044-17.418-16.044-12.697 0-20.615 9.471-20.615 20.052 0 3.646 1.078 6.221 2.764 8.21.773.915.883 1.283.602 2.333-.203.771-.66 2.625-.854 3.358-.279 1.062-1.137 1.44-2.098 1.049-5.846-2.387-8.572-8.793-8.572-15.994 0-11.893 10.029-26.154 29.922-26.154 15.985 0 26.506 11.566 26.506 23.984.001 16.428-9.132 28.698-22.589 28.698z"/></svg>