<svg id="Layer_1" data-name="Layer 1" xmlns="http://www.w3.org/2000/svg" viewBox="0 0 265.07 265.07"><title>2</title><path d="M179.47,152.08l-4.07-.2-2-4.21a.49.49,0,0,0-.48-.3.51.51,0,0,0-.46.32l-1.78,4.19-4.26.2a.51.51,0,0,0-.46.34.53.53,0,0,0,.12.55l3.06,3-.71,4.66a.52.52,0,0,0,.79.51l3.72-2.38,3.75,2.38a.46.46,0,0,0,.28.08.57.57,0,0,0,.28-.08.54.54,0,0,0,.23-.52l-.74-4.65,3.05-3a.52.52,0,0,0-.34-.89Z"/><path d="M127.3,18.26l-3-.15L122.88,15a.42.42,0,0,0-.39-.24.42.42,0,0,0-.38.25l-1.29,3.07-3.12.15a.42.42,0,0,0-.37.27.41.41,0,0,0,.1.45l2.23,2.18-.51,3.41a.42.42,0,0,0,.18.41.43.43,0,0,0,.46,0l2.71-1.74L125.24,25a.46.46,0,0,0,.23.06.39.39,0,0,0,.23-.07.41.41,0,0,0,.18-.42l-.54-3.4L127.57,19a.42.42,0,0,0-.27-.72Z"/><path d="M28.83,53.86l-3.63-.17-1.77-3.77a.51.51,0,0,0-.48-.3.52.52,0,0,0-.46.32L20.9,53.69l-3.8.17a.52.52,0,0,0-.46.34.53.53,0,0,0,.12.55l2.73,2.66-.63,4.16a.52.52,0,0,0,.23.52.52.52,0,0,0,.56,0L23,60l3.35,2.13a.57.57,0,0,0,.28.08.47.47,0,0,0,.28-.09.5.5,0,0,0,.23-.51l-.66-4.16,2.72-2.66a.51.51,0,0,0,.13-.55A.53.53,0,0,0,28.83,53.86Z"/><path d="M145,222.81l-4.16-.2-2-4.32a.42.42,0,0,0-.39-.24.43.43,0,0,0-.38.26l-1.81,4.3-4.37.2a.41.41,0,0,0-.37.27.4.4,0,0,0,.1.45l3.11,3-.72,4.75a.42.42,0,0,0,.65.42l3.8-2.44,3.84,2.44a.36.36,0,0,0,.22.07.4.4,0,0,0,.24-.07.41.41,0,0,0,.18-.42l-.76-4.75,3.12-3a.41.41,0,0,0,.1-.45A.42.42,0,0,0,145,222.81Z"/><path d="M203.29,262.59c-5.13-3.06-10.35-4.42-16.16-7-5.24-2.34-15.65-7.6-17.66-13-2.84-7.64,1.46-16.1,4.67-22.65,2.38-4.87,6-9.8,6.66-15,1-8.14-3.52-10.74-6.33-15.33-1.71-2.8-4.18-6.22-4.88-8.78-.48-1.75-.59-4.53-1.18-5.88-6.8-10.25-23.83-5.9-32.89-2.46,1.23-1.79,4.18-5.17,5.51-6.9a49.84,49.84,0,0,0,12.44-19.87c.85-2.44,1.56-4.95,2.19-7.5a116.29,116.29,0,0,0-1.8-62.42,107.75,107.75,0,0,0-4.64-12c-10.07-27.09-41.85-41-69.54-33.94a61.47,61.47,0,0,0-12.46,4,56.78,56.78,0,0,0-11.36,6.76,51.72,51.72,0,0,0-10.63,9.07C30.16,66.61,27.51,91.85,27.78,114.09q.09,4,.52,8a83.5,83.5,0,0,0,9.46,31.15q1.76,3.12,3.81,6.08a67.75,67.75,0,0,0,8.35,9.69,71.12,71.12,0,0,0,10,8c15.63,10,35.78,13.09,54.38,9.22A152.32,152.32,0,0,0,112,212.66c0,7.76,7,1.55,10.47-1.07,3.14-2.05,7.45-3,11.94-3.6s9.17-.7,13-1.05c1.59-1.58,1-2.36-.66-4.67a111.49,111.49,0,0,1-7.2-11.62l-3.35-6.07c-1.06-1.83-3.38-4.93-2.61-4.93a19.65,19.65,0,0,1,13.93-8.18c5.74-.79,12.42-.49,17.08,2.76.9.62,1.45,7.61,4.17,11,5,6.09,9.35,11.49,7.63,18.42-1.1,4.43-4.35,9.31-6.66,14-2.39,4.84-4.58,9.82-5,15.66-.71,9.9,4.4,15.27,9.66,19,9.51,6.72,15.95,8.65,28,12.82C204.34,264.48,204.57,263.36,203.29,262.59ZM121,148.52c-15.11-.27-31.27,1.87-50.15.47C66,136.13,70.73,126.2,78,119.26c4-3.81,21.56-18.47,23.35-22.68,4.21-9.91-1-16.45-6.8-18.35-10.5-3.46-16.41,5.14-17,14.93-3.3,1.32-10.19,1.66-13.8-1.48-.46-8.92,1.87-17.45,8.22-23.8,3.21-3.2,8.73-6,11-6.51,8.82-1.94,19.61-2.13,27,3.83a18,18,0,0,1,5.63,7.14c2.67,6,4.39,10.63,2.91,19.82A39.83,39.83,0,0,1,109.64,111c-5,5.73-18.56,16.66-19.07,19.21,8.13,2.32,29.86-.4,31,2.48C122.51,135.11,120.92,147.42,121,148.52Z"/><path d="M117.49,88.61a35,35,0,0,0-.95-9C113.25,65.2,103,62.13,93.73,61.88l-1.17,0a.38.38,0,0,0-.39.39.39.39,0,0,0,.38.39l1.16,0c9.2.31,18.83,3.1,22.07,17.1a34.35,34.35,0,0,1,.94,8.83c-.56,20.35-21.92,28.79-29.83,41.76a.38.38,0,0,0,.13.53.33.33,0,0,0,.19.06.38.38,0,0,0,.34-.19C95.12,118.11,116.83,109.56,117.49,88.61Z"/><path d="M119.68,132.84a.38.38,0,0,0-.41.36l-.75,13.86a.38.38,0,0,0,.36.41h0a.38.38,0,0,0,.4-.36l.75-13.86A.38.38,0,0,0,119.68,132.84Z"/><path d="M50.77,26.36,50,31.64a.47.47,0,0,0,.72.47l4.23-2.72,4.27,2.72a.43.43,0,0,0,.25.07.45.45,0,0,0,.46-.54l-.84-5.28L62.53,23a.47.47,0,0,0-.31-.81l-4.63-.23-2.25-4.79a.46.46,0,0,0-.43-.27.46.46,0,0,0-.43.28l-2,4.78-4.85.23a.47.47,0,0,0-.31.81Z"/><path d="M149.31,36.51l-.75,5a.52.52,0,0,0,.79.51l4-2.53,4,2.53a.45.45,0,0,0,.27.08.51.51,0,0,0,.29-.08.5.5,0,0,0,.22-.52l-.78-4.94,3.24-3.17a.51.51,0,0,0-.34-.88l-4.32-.22-2.11-4.48a.52.52,0,0,0-.48-.3.51.51,0,0,0-.46.32l-1.89,4.46-4.54.22a.51.51,0,0,0-.33.88Z"/><path d="M75.84,13.08l-2-.1-1-2.11a.27.27,0,0,0-.26-.16.28.28,0,0,0-.26.17L71.41,13l-2.13.1a.27.27,0,0,0-.25.18.28.28,0,0,0,.07.31l1.52,1.49-.35,2.32a.28.28,0,0,0,.13.29.29.29,0,0,0,.31,0l1.85-1.19,1.87,1.19a.3.3,0,0,0,.16,0,.33.33,0,0,0,.16,0,.29.29,0,0,0,.12-.29l-.37-2.32L76,13.57a.28.28,0,0,0,.07-.31A.27.27,0,0,0,75.84,13.08Z"/><path d="M99.79,209.13,97.27,209,96,206.38a.36.36,0,0,0-.65,0L94.28,209l-2.64.13a.34.34,0,0,0-.32.23.36.36,0,0,0,.08.38l1.9,1.85-.44,2.9a.36.36,0,0,0,.16.35.35.35,0,0,0,.39,0l2.31-1.48,2.33,1.49a.41.41,0,0,0,.19.05.36.36,0,0,0,.2-.06.36.36,0,0,0,.15-.35l-.46-2.9,1.9-1.85a.36.36,0,0,0,.08-.38A.33.33,0,0,0,99.79,209.13Z"/><path d="M167.51,55.75l-2-.1-1-2.11a.29.29,0,0,0-.53,0l-.88,2.1-2.13.1a.27.27,0,0,0-.26.18.3.3,0,0,0,.07.31l1.53,1.49-.36,2.32a.31.31,0,0,0,.13.29.29.29,0,0,0,.31,0l1.86-1.19,1.87,1.19a.26.26,0,0,0,.15,0,.29.29,0,0,0,.16,0,.32.32,0,0,0,.13-.29l-.38-2.33,1.53-1.48a.3.3,0,0,0,.07-.31A.27.27,0,0,0,167.51,55.75Z"/><path d="M30.44,30.05l-2-.1-1-2.11a.3.3,0,0,0-.27-.17.33.33,0,0,0-.26.18L26,30l-2.13.1a.27.27,0,0,0-.25.18.29.29,0,0,0,.06.31L25.22,32l-.35,2.32a.28.28,0,0,0,.13.29.29.29,0,0,0,.31,0l1.85-1.19L29,34.64a.28.28,0,0,0,.15,0,.27.27,0,0,0,.16,0,.28.28,0,0,0,.13-.29L29.1,32l1.52-1.48a.3.3,0,0,0,.07-.31A.27.27,0,0,0,30.44,30.05Z"/><path d="M143.92,15.62l-2-.1-1-2.11a.3.3,0,0,0-.26-.17.3.3,0,0,0-.26.18l-.89,2.1-2.13.1a.27.27,0,0,0-.25.18.28.28,0,0,0,.07.31l1.52,1.49-.35,2.32a.28.28,0,0,0,.13.29.29.29,0,0,0,.31,0L140.64,19l1.87,1.19a.29.29,0,0,0,.16,0,.32.32,0,0,0,.16,0,.29.29,0,0,0,.12-.29l-.37-2.33,1.52-1.48a.28.28,0,0,0,.07-.31A.27.27,0,0,0,143.92,15.62Z"/><path d="M155.13,184l-2-.1-1-2.11a.29.29,0,0,0-.27-.16.3.3,0,0,0-.26.17l-.88,2.1-2.13.1a.28.28,0,0,0-.25.19.26.26,0,0,0,.06.3l1.53,1.49-.35,2.33a.28.28,0,0,0,.12.28.31.31,0,0,0,.32,0l1.85-1.18,1.87,1.18a.3.3,0,0,0,.15.05.3.3,0,0,0,.16-.05.27.27,0,0,0,.13-.28L153.8,186l1.52-1.49a.28.28,0,0,0,.07-.3A.28.28,0,0,0,155.13,184Z"/><path d="M16.94,85.69l-5.21-.25L9.2,80a.52.52,0,0,0-.49-.3.53.53,0,0,0-.48.32L6,85.44l-5.46.25A.53.53,0,0,0,0,86a.55.55,0,0,0,.13.57l3.9,3.8-.9,5.94a.53.53,0,0,0,.81.53l4.75-3.06,4.81,3.06a.54.54,0,0,0,.28.08.52.52,0,0,0,.29-.09.53.53,0,0,0,.23-.52l-.95-5.94,3.9-3.8a.55.55,0,0,0,.13-.57A.53.53,0,0,0,16.94,85.69Z"/><path d="M17.84,123.19l-2.52-.13-1.23-2.62a.36.36,0,0,0-.33-.21.39.39,0,0,0-.33.22l-1.1,2.61-2.64.13a.33.33,0,0,0-.32.23.36.36,0,0,0,.08.38l1.9,1.85-.44,2.9a.36.36,0,0,0,.55.35l2.31-1.48,2.32,1.49a.46.46,0,0,0,.2.05.35.35,0,0,0,.19-.06.34.34,0,0,0,.16-.35l-.46-2.9,1.9-1.85a.36.36,0,0,0,.08-.38A.33.33,0,0,0,17.84,123.19Z"/><path d="M179.36,76.74l-2.53-.13L175.6,74a.36.36,0,0,0-.65,0l-1.1,2.61-2.65.13a.35.35,0,0,0-.23.61l1.9,1.85-.44,2.9a.36.36,0,0,0,.54.36L175.28,81l2.33,1.48a.41.41,0,0,0,.19.05.36.36,0,0,0,.36-.41l-.47-2.9,1.9-1.85a.34.34,0,0,0,.08-.38A.33.33,0,0,0,179.36,76.74Z"/><path d="M179.32,99.93a.51.51,0,0,0-.46-.33l-4.32-.21-2.11-4.49a.52.52,0,0,0-.48-.3.54.54,0,0,0-.47.32l-1.88,4.47-4.54.21a.51.51,0,0,0-.33.89l3.24,3.16-.75,4.95a.52.52,0,0,0,.23.51.54.54,0,0,0,.56,0l4-2.54,4,2.54a.53.53,0,0,0,.27.08.53.53,0,0,0,.52-.6l-.79-4.95,3.24-3.16A.51.51,0,0,0,179.32,99.93Z"/><path d="M21.26,153.55a.53.53,0,0,0-.46-.33L16.47,153l-2.1-4.49a.55.55,0,0,0-.48-.3.53.53,0,0,0-.47.32L11.53,153,7,153.22a.52.52,0,0,0-.34.89l3.25,3.16-.75,4.95a.52.52,0,0,0,.23.51.5.5,0,0,0,.56,0l4-2.54,4,2.54a.54.54,0,0,0,.28.08.49.49,0,0,0,.28-.09.52.52,0,0,0,.23-.51l-.79-4.95,3.24-3.16A.53.53,0,0,0,21.26,153.55Z"/><path d="M172.44,132.27l-2-.1-1-2.11a.29.29,0,0,0-.26-.17.3.3,0,0,0-.26.18l-.89,2.1-2.12.1a.27.27,0,0,0-.26.18.3.3,0,0,0,.07.31l1.53,1.49-.36,2.32a.32.32,0,0,0,.13.29.29.29,0,0,0,.31,0l1.86-1.19,1.87,1.19a.26.26,0,0,0,.15,0,.29.29,0,0,0,.16,0,.3.3,0,0,0,.12-.29l-.37-2.33,1.53-1.48a.3.3,0,0,0,.07-.31A.28.28,0,0,0,172.44,132.27Z"/><path d="M49.33,191.39l-3.93-.19-1.91-4.08a.56.56,0,0,0-.52-.32.53.53,0,0,0-.5.34l-1.72,4.06-4.12.19a.58.58,0,0,0-.5.36.57.57,0,0,0,.13.6l3,2.88-.68,4.52a.56.56,0,0,0,.25.55.55.55,0,0,0,.6,0L43,198l3.63,2.31a.53.53,0,0,0,.3.09.59.59,0,0,0,.31-.09.56.56,0,0,0,.24-.56l-.72-4.51,3-2.88a.55.55,0,0,0,.13-.6A.58.58,0,0,0,49.33,191.39Z"/><path d="M35.06,169.09,32.54,169l-1.23-2.62a.36.36,0,0,0-.33-.21.39.39,0,0,0-.33.22L29.55,169l-2.64.12a.37.37,0,0,0-.24.62l1.9,1.85-.44,2.9a.36.36,0,0,0,.55.35L31,173.33l2.33,1.48a.31.31,0,0,0,.19.06.33.33,0,0,0,.19-.06.36.36,0,0,0,.16-.35l-.46-2.9,1.9-1.85a.37.37,0,0,0-.24-.62Z"/><path d="M110.23,5.33a.5.5,0,0,0-.46-.33l-4.33-.22L103.34.3a.53.53,0,0,0-.48-.3.52.52,0,0,0-.47.32l-1.88,4.46L96,5a.51.51,0,0,0-.46.33.53.53,0,0,0,.12.55l3.25,3.17L98.13,14a.52.52,0,0,0,.79.51l4-2.53,4,2.53a.48.48,0,0,0,.28.08.51.51,0,0,0,.29-.08.52.52,0,0,0,.22-.52l-.79-4.94,3.25-3.17A.53.53,0,0,0,110.23,5.33Z"/><path d="M77.1,196.13,74,196l-1.52-3.24a.45.45,0,0,0-.81,0L70.3,196l-3.27.15a.43.43,0,0,0-.39.29.45.45,0,0,0,.1.47l2.35,2.28-.54,3.58a.44.44,0,0,0,.19.44.46.46,0,0,0,.48,0l2.85-1.83,2.87,1.83a.44.44,0,0,0,.24.07.4.4,0,0,0,.24-.07.46.46,0,0,0,.2-.44l-.57-3.58,2.34-2.28a.44.44,0,0,0,.11-.47A.46.46,0,0,0,77.1,196.13Z"/><path d="M113,227.94l-2-.1-1-2.11a.28.28,0,0,0-.27-.16.3.3,0,0,0-.26.17l-.88,2.1-2.13.1a.28.28,0,0,0-.25.18.28.28,0,0,0,.07.31l1.52,1.49-.35,2.33a.27.27,0,0,0,.13.28.29.29,0,0,0,.31,0l1.85-1.19,1.87,1.19a.3.3,0,0,0,.16.05.27.27,0,0,0,.15-.05.28.28,0,0,0,.13-.29l-.37-2.32,1.52-1.49a.28.28,0,0,0,.07-.31A.28.28,0,0,0,113,227.94Z"/><path d="M90.81,17.91l-2-.1-1-2.11a.27.27,0,0,0-.26-.16.3.3,0,0,0-.27.17l-.88,2.1-2.13.1a.28.28,0,0,0-.25.18.28.28,0,0,0,.07.31l1.52,1.49-.35,2.32a.28.28,0,0,0,.13.29.29.29,0,0,0,.31,0l1.85-1.19L89.4,22.5a.3.3,0,0,0,.16.05.33.33,0,0,0,.16-.05.29.29,0,0,0,.12-.29l-.37-2.32L91,18.4a.28.28,0,0,0,.07-.31A.28.28,0,0,0,90.81,17.91Z"/></svg>