<svg id="Word_art" data-name="Word art" xmlns="http://www.w3.org/2000/svg" viewBox="0 0 1332.2 1212.3"><title>1</title><path d="M1325.6,283.7c-20.1-111-84.3-198.5-180.6-246.6C1095.6,12.5,1043.5,0,990.2,0,921.4,0,853.9,21.3,794.9,61.5c-38.4,26.2-75.3,68.8-109.7,126.4-7.2,12.1-13.6,23.6-19.1,34.2-5.5-10.6-11.9-22.1-19.1-34.2C612.7,130.3,575.8,87.7,537.3,61.5,478.3,21.3,410.8,0,342,0,288.7,0,236.6,12.5,187.2,37.1,90.9,85.2,26.7,172.7,6.6,283.7-5.2,348.8-1.1,418.8,18.3,486.1c19.6,67.9,54,129.5,99.5,178.3,35.9,38.5,76.4,72.1,115.5,104.5,20.5,17,41.7,34.6,61.7,52.4C338.3,860,381.9,900,424.1,938.7q24.75,22.65,49.5,45.4h0l10.6,11.2c57.4,60.7,111.6,118,158.4,184.1l23.3,32.9.2-.3.2.3,23.3-32.9c46.8-66,101-123.3,158.4-184l10.6-11.2.1-.1,49.5-45.3c42.2-38.7,85.8-78.7,129.1-117.4,20-17.9,41.2-35.4,61.7-52.4,39.1-32.4,79.6-66,115.5-104.5,45.4-48.8,79.8-110.4,99.5-178.3C1333.3,418.8,1337.4,348.8,1325.6,283.7ZM985.9,47.4c169.9,0,307.6,137.7,307.6,307.6S1155.8,662.6,985.9,662.6,678.3,524.9,678.3,355,816,47.4,985.9,47.4Zm-353,645.3c-35.5-15.3-94.9-35.6-116-6.6-14.6,20.1-8.8,51.4-7.8,56.4,5.2,24.5,14.6,26.3-3.8,23.8l-28.2-3.7c-19.3-2.6-38.7-4.9-58.1-5.5h-.4c-1.5,0-3.1-.1-4.6-.1.5-1.4,1-2.7,1.5-4.1,16-43.6,35.3-86.4,55.5-128.2,25.9-53.5,55.5-105.3,90-153.8,32-44.9,68.4-86.7,106.4-126.7-.1,3.6-.2,7.2-.2,10.8A318.31,318.31,0,0,0,767.3,587.1a312.08,312.08,0,0,0,25.6,21.7c-.4,1.2-.8,2.3-1.3,3.5-6.4,17.2-13.8,34.1-21.8,50.7-14.1,29.5-29.9,58.2-45.4,86.9-11.7,21.8-23.3,43.8-34,66.2-16.1-6.4-32.4-12.4-48.9-17.7-12.6-4.1-25.2-7.8-37.9-11.2,7.2-11,23-36.9,41.3-62.1C653.1,713.6,650.4,700.3,632.9,692.7Zm-477-25.4c-5.7-5.6-11.4-11.4-16.9-17.2A398.91,398.91,0,0,1,69.7,548c28.6-51.5,87.1-111.6,88.6-123.6,1.6-12.7-44.1-40.8-52.2-47.9-72.9-64.6-70.7-140.7-15.9-216,29.1-40,68-72.1,112.4-94q12-6,24.3-10.8c-7.7,21.6-64.4,165.8-65.3,173-8.2,64.6,35.4,127.6,51,129.1,15.1,1.4,83.5-64.5,90.3-118.3,1.5-12.2,9.1-157.9,11.8-205.6a326,326,0,0,1,32.8-1.7,319.66,319.66,0,0,1,115,21.6c-14.1,47-29.6,93.6-47.5,139.3-26.9,68.6-56.2,119.4-104.5,175.3-38.8,45-94.2,97.4-102,159.5-.8,6.3-21.2,87.6-34.6,111C166.8,649.4,160.8,658.9,155.9,667.3ZM334.8,784.4a73.89,73.89,0,0,0-13.2,24.3c-.1.4-.3.8-.4,1.2-1.3-1.1-2.6-2.3-3.8-3.4l-6-5.4c-19.7-17.5-40.6-34.6-60.7-51.1-25.3-20.8-51.2-42-75.8-64.7,19.9-34.7,39.7-69.3,59.7-103.9,26.7-46.2,54.2-91.9,81.2-137.9,51.4-87.3,98.4-176.8,132.7-272.4q19.2-53.55,35.9-108a334,334,0,0,1,45.6,26c1.5,1,3,2.1,4.5,3.1,34.2,24.4,61.4,57.7,84.5,92.5,16.5,24.9,31.7,51.1,43.4,78.7.4.9.8,1.9,1.2,2.8,2,4.8,3.9,9.7,5.6,14.6,1.4,4,4.6,9.2,3.7,13.6-.7,3.8-1.4,7.7-2,11.6-29.3,30-57.7,60.9-84.5,93.1-9-15-31.2-67.5-59.2-79.5-22.7-9.5-61.3,6.2-95.4,65.7-7.5,12.9-18.9,35.4-9.7,39.4,9.3,4.2,92.2,8.3,130,17.9-34,45.5-63.5,94.3-89.3,144.9-15.1-23.3-47.2-75.4-57.2-80.1-16.8-7.8-54.2,2.8-89.3,60.3-28.3,45.6-35.1,85.1-7.5,99,25.6,13.1,95-13.5,127-23.3-4.6,10-9,20-13.4,30.1-11,25.5-22.1,51.2-31.7,77.3-.9,2.6-1.9,5.1-2.8,7.7a104.1,104.1,0,0,0-25.9,6.8C351.7,769.6,342,775.7,334.8,784.4ZM440,918.5q-44-40.35-88-80.5a44.69,44.69,0,0,1-6.4-11.3c-5.1-13.7-1.7-28.6,9.5-38.3s27.4-10.3,42.2-9.8a9.15,9.15,0,0,1,1.6.1c3.1.1,6.1.3,8.9.4,4.4.2,8.8.4,13.2.7,23.6,1.5,47,3.8,70.4,7.1,5.8.8,11.7,1.7,17.5,2.7,7.4,2,14.4,4.9,20.3,9.6a26.17,26.17,0,0,1,9.7,15.5,106.17,106.17,0,0,1-2.4,19.8c-.7,3.2-1.6,6.4-2.6,9.5-.4,1.1-.7,2.1-1.1,3.2a143.18,143.18,0,0,1-7.3,13.6c-1.3,2.1-2.6,4.2-4.1,6.4a118,118,0,0,1-9.4,12c-.5.5-.9,1-1.3,1.4a200.33,200.33,0,0,1-15.2,13.9c-11.1,9.2-23.3,17.2-36.8,22.5A84.8,84.8,0,0,1,440,918.5Zm95.9,94.2c-14.4-15.4-29-30.8-43.7-46.4a6,6,0,0,1-.8-.8c-9.2-8.4-18.3-16.8-27.5-25.2A160.82,160.82,0,0,0,507,915.7c22.9-18.1,42.7-40.3,51-68.9,4.4-15.1,5.4-31,4.6-46.7a828.08,828.08,0,0,1,119.1,36.8c8.8,3.5,17.5,7.1,26.1,10.9-12.8,4-25.7,7.8-38.1,12.7-20.9,8.2-41.8,19.1-59.9,32.4-19.2,14.1-37.1,31.7-49.3,52.3-11.7,19.7-19.4,42.1-24.1,64.6A21.76,21.76,0,0,1,535.9,1012.7Zm326.5-70.1c-8.5,7.8-17,15.5-25.4,23.3-.1.1-.3.2-.4.3s-.1.1-.2.1c-61.3,64.9-121.1,127-172.1,199.1a.1.1,0,0,0-.1-.1,1.76,1.76,0,0,1-.4.5,3,3,0,0,1-.3-.4h0c-30.9-43.6-65-83.5-100.7-122.6A79.34,79.34,0,0,1,558,1021c3.8-20.7,10.1-40.7,19.9-58.7a128.06,128.06,0,0,1,7.2-11.8,118.21,118.21,0,0,1,8.2-9.8c4.6-5.1,9.4-10,14.5-14.7a105.49,105.49,0,0,1,16.9-10c45.5-21.9,96.7-6.9,117.4,12.6,6.2,5.8,7.6,17.3,11.7,21.2,3.8,3.6,8.9,1.7,12.9-1.2a46.54,46.54,0,0,0,4.9-4.3c14.2-15.1,19.9-37,25.8-49.7.1,0,.1.1.2.1s.1-.2.2-.3a421.07,421.07,0,0,1,52.8,37.5c4.1,3.4,8.1,7,12,10.5l-.2.2Zm421.3-459c-18.6,63.4-51,121-93.9,166.6-10.9,11.6-22.3,22.7-33.9,33.5-23.2,21.4-47.4,41.6-71.3,61.2-7.3,5.5-12.9,9.9-15.5,12.7-3.7,3-7.3,6-11,9.1-38.2,24.2-118.2,22.4-123,27.7-2.6,2.9,5.6,37,5.2,42.9-2.3,39-22.7,53.6-49.2,77.6-3,2.7-6,5.5-9.1,8.2q-27.3-19.5-55.6-37.4c20.9-29.3,58.6-88.6,37.9-96.4-12-4.5-48.1-6.8-57,5-8.7,11.8-10.5,51.9-11.2,73.2-4.8-2.8-9.7-5.5-14.6-8.2q-33.75-18.6-69-33.9c11.9-24.6,24.8-48.7,37.8-72.8,9.2-17,18.4-34,27.2-51.3A805.54,805.54,0,0,0,812.8,623q7.2,4.65,14.7,9a318.78,318.78,0,0,0,468.3-201.2A483.45,483.45,0,0,1,1283.7,483.6ZM970.1,745.9c-16.9,19.5-104,11.5-117.9,6.4-12.3-4.5-6-13.1-2.4-17.6,29.6-36.8,52.4-37.8,90.3-24C962.3,718.8,981.9,732.6,970.1,745.9ZM629.6,640.1c-9-3.2-18.6-4.6-27.9-6.6-16.3-3.4-45.3-8.3-47.4-29.3-1.8-18.1,18.6-42,29.8-54.2,9.4-10.3,29.9-31.7,46.1-24.7a14.25,14.25,0,0,1,4.4,3.7c18.2,19,29.9,50.9,36.9,75.8,2.8,9.9,8,29-1.5,36.9C657.7,652,642.6,644.7,629.6,640.1ZM679,1051.6c-13.9,9.5-30.1,13.1-46.9-2.7-25-23.6-9.1-55.7,6.1-71.8a102.82,102.82,0,0,1,24.1-19.2c31.2-17.2,59.2-6.4,69.3,3.1,10.9,10.3,16.2,20.5-22.5,61.6C701.6,1030.4,691.2,1043.2,679,1051.6ZM481.7,835a28.31,28.31,0,0,1-.5,11.3,31.16,31.16,0,0,1-5.8,11.5c-8.6,11.1-27.6,21.7-56,2.4-30-18.4-27-38.3-19.1-49.1a32.13,32.13,0,0,1,14.4-10.6c10.7-4.2,26-4.2,45,6.7.7.4,1.4.9,2,1.3C474.8,817.3,480.4,826.6,481.7,835Z" fill="#b5a1cd"/><path d="M1074.7,158.8a33.44,33.44,0,0,1,1.2,8.5c0,8.4-1.8,17.3-5.3,26.9a185.65,185.65,0,0,0-8.2,29.4q-5.85,34.65-14.7,76.1c-5.9,27.6-12.7,55.3-20.3,82.9s-16,54.2-25,79.7-18.8,47.6-29.4,66.3a195.21,195.21,0,0,1,23.5-1.5c14.9,0,27.5,1.8,37.7,5.3s16.7,11.1,19.4,22.9c-7.9-.7-15.6-1.3-23.3-1.8s-15.4-.8-23.2-.8c-18.8,0-36.2.8-52.1,2.3s-31.9,2.3-48,2.3c-7.1,0-14.9-1.8-23.5-5.3a52.49,52.49,0,0,1-21.2-15.3c3.1.3,6.3.6,9.4.8s6.3.3,9.4.3q15.3,0,31.8-1.5c11-1,21.6-2.3,31.8-4a316.73,316.73,0,0,0,17.1-42.5c5.5-16.6,10.8-34.3,15.9-53.3s10-38.4,14.7-58.6,9.2-39.8,13.5-59.1,8.4-37.4,12.4-54.3,7.7-31.7,11.2-44.5c-11.4,6.7-20.9,12.2-28.5,16.6s-14.1,7.8-19.4,10.3a75.05,75.05,0,0,1-12.7,5,32.76,32.76,0,0,1-7.1,1.3c-4.7,0-8.3-.9-10.9-2.8s-3.8-5.8-3.8-11.8c5.5-2.3,13-6.4,22.7-12.1s20.1-12.4,31.5-20.1,23.1-16.2,35.3-25.6a448.26,448.26,0,0,0,34.1-29.1A14.9,14.9,0,0,1,1074.7,158.8Z" fill="#b5a1cd"/><path d="M1204.3,161.3h0c-3.3-3.7-6.8-7.4-10.3-11l-.4-.4h0l-.5-.5-.5-.5h0l-.4-.4c-3.6-3.5-7.2-7-11-10.3h0l-.2-.2-6.3-5.4-2.4-2-3.1-2.5c-1.4-1.1-2.8-2.2-4.3-3.3l-.2-.1-1.3-1c-.8-.6-1.5-1.2-2.4-1.8-.6-.4-1.1-.8-1.6-1.2s-1-.7-1.5-1.1-1-.7-1.5-1.1c-.8-.6-1.6-1.1-2.3-1.7s-1.3-.9-2-1.4c-.9-.7-1.9-1.3-2.9-2l-.1-.1-.2-.1-3.3-2.1-.9-.6c-.7-.4-1.4-.9-2.1-1.3l-.9-.6-1.6-1a40.5,40.5,0,0,0-3.5-2.1c-1-.6-2.1-1.2-3.1-1.8-1.3-.7-2.5-1.5-3.8-2.2l-.8-.4h0l-2.6-1.5-1.9-1c-2.8-1.5-5.6-2.9-8.4-4.3l-2.2-1.1h0c-4.5-2.2-9.1-4.3-13.7-6.2l-1.8-.8h0l-.5-.2c-5.2-2.1-10.4-4.1-15.7-5.9l-.2-.1c-5.7-2-11.7-3.9-18.4-5.6l-3.2-.9-6.1-1.4c-.6-.1-1.2-.3-1.8-.4l-1.4-.3-2.2-.5c-1.4-.3-2.8-.7-4.3-.9h0c-1.3-.2-2.5-.4-3.8-.7-.3,0-.5-.1-.8-.1l-3.4-.6c-.2,0-.3-.1-.5-.1l-2.1-.4c-1.3-.3-2.7-.4-4-.6a25.12,25.12,0,0,1-2.7-.4c-2.2-.3-4.4-.6-6.6-.8l-.9-.1c-1.3-.2-2.7-.3-4-.4h-.4c-3.6-.3-7.2-.6-10.8-.8h-.4c-5-.3-10-.4-15-.4h-2.6c-5,0-10,.2-15,.4h-.4c-3.6.2-7.2.5-10.8.8h-.4c-1.4.1-2.7.3-4,.4l-.9.1c-2.2.3-4.4.5-6.7.8l-2.6.3c-1.3.2-2.6.3-4,.6l-2.1.4c-.2,0-.3.1-.5.1l-3.4.6c-.3,0-.5.1-.8.1l-1.6.3-2.1.4h-.1c-1.4.2-2.8.6-4.2.9l-2.2.5-1.3.3c-1,.2-2,.5-3,.7l-5.1,1.2-3.1.9c-6.6,1.8-12.7,3.6-18.4,5.6l-.2.1c-5.3,1.8-10.6,3.8-15.7,5.9l-.5.2h0l-1.8.8c-4.6,1.9-9.2,4-13.7,6.2h0l-2.3,1.2c-2.4,1.2-4.9,2.5-7.3,3.7l-.8.4-2.2,1.1-2.5,1.5h0l-.8.4c-1.3.7-2.5,1.5-3.8,2.2-1,.6-2,1.1-3,1.7-1.2.7-2.4,1.4-3.5,2.1l-1.6,1-.9.6c-.7.5-1.4.9-2.1,1.4l-.9.6c-1,.7-2.1,1.3-3.1,2l-.4.2a.22.22,0,0,0-.2.2c-.9.6-1.8,1.2-2.7,1.9-.1,0-.1.1-.2.1-.6.4-1.2.9-1.8,1.3-.8.5-1.5,1.1-2.3,1.6a4.23,4.23,0,0,1-.7.5l-1.2.9a8.34,8.34,0,0,1-1.2.8c-1,.7-2,1.4-2.9,2.1l-1.1.8h-.1l-1.3,1-.1.1c-1.5,1.2-3,2.3-4.5,3.5l-3,2.4-2.4,2c-2.1,1.8-4.2,3.5-6.2,5.4l-.2.2h0c-3.7,3.3-7.4,6.8-11,10.3l-.4.4h0l-.6.6-.5.5h0l-.4.4c-3.5,3.6-7,7.2-10.3,11h0l-.2.2c-1.9,2.1-3.7,4.2-5.5,6.3l-2,2.3-2.4,3.1-3.5,4.4-.1.1c-.3.4-.7.9-1,1.3-.6.7-1.1,1.5-1.7,2.2-.4.6-.9,1.2-1.3,1.8s-.7,1-1.1,1.5-.7,1-1.1,1.5c-.6.8-1.1,1.6-1.7,2.4a24.26,24.26,0,0,0-1.4,2c-.7,1-1.4,2-2,3-.7,1.2-1.5,2.3-2.2,3.5l-.6.9c-.5.7-.9,1.4-1.4,2.2a8.79,8.79,0,0,0-.6,1l-1,1.5a40.5,40.5,0,0,0-2.1,3.5c-.6,1-1.2,2-1.8,3.1-.7,1.3-1.5,2.5-2.2,3.8l-.4.7h0l-1.5,2.6-1,1.9c-1.5,2.8-2.9,5.6-4.3,8.5l-1.1,2.1h0c-2.2,4.5-4.3,9.1-6.2,13.7l-.8,1.8h0l-.2.5c-2.1,5.2-4.1,10.5-5.9,15.8l-.1.2c-2,5.7-3.9,11.7-5.6,18.4l-.3,3.1-1.3,5.6a18.92,18.92,0,0,0-.5,2.3c-.1.5-.2.9-.3,1.4l-.5,2.3c-.3,1.4-.7,2.8-.9,4.2h0c-.2,1.3-.4,2.5-.7,3.8,0,.3-.1.5-.1.8l-.6,3.3c0,.2-.1.4-.1.6l-.4,2c-.3,1.3-.4,2.7-.6,4l-.3,2.7c-.3,2.2-.6,4.4-.8,6.6l-.1.9c-.2,1.3-.3,2.7-.4,4v.4c-.3,3.6-.6,7.2-.8,10.8v.4h0c-.3,5-.4,10-.4,15v.5h0v1.6h0v.5c0,5,.2,10,.4,15h0v.4c.2,3.6.5,7.2.8,10.8v.4c.1,1.4.3,2.7.4,4l.1.9c.3,2.2.5,4.4.8,6.7.1.9.2,1.7.3,2.6.2,1.3.3,2.7.6,4l.4,2.1c0,.2.1.4.1.6l.6,3.3c.1.3.1.6.2.9.2,1.2.4,2.4.7,3.7h0v.1h0a27.13,27.13,0,0,0,.9,4.1l.5,2.3c.1.4.2.9.3,1.3.2,1,.5,2,.7,3l1.2,5.1.9,3.1c1.8,6.6,3.6,12.7,5.6,18.4l.1.2c1.8,5.3,3.8,10.6,5.9,15.8l.2.5h0l.8,1.8c1.9,4.6,4,9.2,6.2,13.7h0l1.1,2.1c1.4,2.9,2.9,5.8,4.4,8.7l.9,1.8,1.5,2.5h0l.4.8c.7,1.3,1.5,2.5,2.2,3.8.6,1,1.2,2,1.8,3.1a38.7,38.7,0,0,0,2.1,3.4l1,1.6.6.9c.4.7.9,1.4,1.4,2.1l.6.9c.7,1,1.3,2.1,2,3.1l.2.4c.1.1.1.2.2.2.6.9,1.2,1.8,1.9,2.7a24.26,24.26,0,0,1,1.4,2c.6.8,1.1,1.6,1.7,2.4a2.18,2.18,0,0,0,.4.5l.3.4c.1.2.3.4.4.6.4.5.7,1,1.1,1.5.7,1,1.4,1.9,2.1,2.9l.8,1.1.1.1c.3.4.7.9,1,1.3l.1.1c1.2,1.5,2.3,3,3.5,4.5l2.4,3,2.1,2.4c1.7,2.1,3.5,4.1,5.3,6.1l.3.3h0c3.3,3.7,6.8,7.4,10.3,11l.4.4h0l.5.5.5.5h0l.4.4c3.6,3.5,7.2,7,11,10.3h0l.3.3c2,1.8,4.1,3.6,6.2,5.4l2.4,2,3,2.4,4.4,3.5.1.1,1.3,1c.7.6,1.5,1.2,2.3,1.8.6.4,1.2.8,1.7,1.2s1,.7,1.5,1.1,1,.7,1.5,1c.8.6,1.6,1.1,2.4,1.7l2,1.4c1,.7,2,1.4,3,2,1.2.7,2.3,1.5,3.5,2.2l.9.6c.7.5,1.4.9,2.1,1.4l.9.6,1.6,1a40.5,40.5,0,0,0,3.5,2.1c1,.6,2.1,1.2,3.1,1.8,1.3.7,2.5,1.5,3.8,2.2l.8.4h0l2.6,1.5,1.9,1c2.8,1.5,5.7,3,8.5,4.4l2.1,1.1h0c4.5,2.2,9.1,4.3,13.7,6.2l1.8.8h0l.5.2c5.2,2.1,10.5,4.1,15.8,5.9l.2.1c5.7,2,11.8,3.9,18.4,5.6l3.2.9,5.7,1.3c.7.2,1.5.3,2.2.5l1.4.3,2.3.5c1.4.3,2.8.7,4.2.9h0c1.3.2,2.5.4,3.8.7.3,0,.5.1.8.1,1.1.2,2.2.4,3.4.6.2,0,.4.1.6.1l2,.4c1.3.3,2.7.4,4,.6l2.6.3c2.2.3,4.4.6,6.7.8l.9.1c1.3.2,2.7.3,4,.4h.4c3.6.3,7.3.6,10.9.8h.3c5,.3,10,.4,15,.4h2.6c5,0,10-.2,15-.4h.3c3.6-.2,7.3-.5,10.9-.8h.4c1.4-.1,2.7-.3,4-.4l.9-.1c2.2-.3,4.5-.5,6.7-.8l2.5-.3c1.3-.2,2.7-.3,4-.6l2.1-.4c.2,0,.4-.1.6-.1l3.4-.6c.3,0,.5-.1.8-.1,1.2-.2,2.4-.4,3.7-.7h.2a27.13,27.13,0,0,0,4.1-.9l2.3-.5,1.3-.3c1-.2,2-.5,3-.7l5.1-1.2,3.1-.9c6.6-1.8,12.7-3.6,18.4-5.6l.2-.1c5.3-1.8,10.6-3.8,15.8-5.9l.5-.2h0l1.8-.8c4.6-1.9,9.2-4,13.7-6.2h0l2.2-1.2c2.5-1.2,4.9-2.5,7.4-3.8l.7-.4,2.2-1.1,2.5-1.5h0l.8-.4c1.3-.7,2.5-1.4,3.8-2.2,1-.6,2.1-1.2,3.1-1.8,1.2-.7,2.3-1.4,3.5-2.1l1.6-1,.9-.6c.7-.4,1.4-.9,2.1-1.3l.9-.6c1.2-.7,2.3-1.5,3.5-2.2h0c1-.7,2-1.3,2.9-2a24.26,24.26,0,0,1,2-1.4,19.52,19.52,0,0,0,2.3-1.7c.5-.4,1-.7,1.5-1.1s1-.7,1.5-1.1c1-.7,1.9-1.4,2.9-2.1l1.1-.9h0l1.3-1,.1-.1,4.5-3.6,3-2.4,2.4-2,6.3-5.4.2-.2h0c3.7-3.3,7.4-6.8,11-10.3l.4-.4h0l.5-.5.6-.6h0l.4-.4c3.5-3.6,7-7.2,10.3-11h0l.2-.2c1.8-2.1,3.6-4.1,5.4-6.3l2-2.4,2.5-3.1,3.4-4.3.1-.1c.3-.4.7-.9,1-1.3.6-.8,1.2-1.5,1.8-2.3.4-.6.8-1.1,1.2-1.7s.7-1,1.1-1.5c.1-.1.2-.3.3-.4l.4-.5c.1-.2.3-.4.4-.6.6-.8,1.1-1.5,1.7-2.3,1.1-1.6,2.3-3.2,3.4-4.9l.1-.1.1-.2,2.1-3.3.6-.9c.4-.7.9-1.4,1.3-2.1l.6-.9,1-1.6a40.5,40.5,0,0,0,2.1-3.5c.6-1,1.2-2,1.8-3.1.7-1.3,1.5-2.5,2.2-3.8l.4-.8h0l1.5-2.6,1-1.9c1.5-2.8,2.9-5.6,4.3-8.4l1.1-2.1h0c2.2-4.5,4.3-9.1,6.2-13.7l.8-1.8h0l.2-.5c2.1-5.2,4.1-10.4,5.9-15.7l.1-.2c2-5.7,3.9-11.8,5.6-18.4l.9-3.2,1.4-6c.1-.6.3-1.3.4-1.9s.2-.9.3-1.4l.5-2.3c.3-1.4.7-2.8.9-4.3h0c.2-1.3.4-2.5.7-3.8,0-.3.1-.5.1-.8.2-1.1.4-2.3.6-3.4,0-.2.1-.3.1-.5l.4-2.1c.3-1.3.4-2.7.6-4a25.12,25.12,0,0,1,.4-2.7c.3-2.2.6-4.4.8-6.6l.1-.9c.2-1.3.3-2.7.4-4V382c.3-3.6.6-7.2.8-10.8v-.4h0c.3-5,.4-10,.4-15v-.5h0v-1.6h0v-.5c0-5-.2-10-.4-15h0v-.4c-.2-3.6-.5-7.2-.8-10.8v-.4c-.1-1.4-.3-2.7-.4-4l-.1-.9c-.3-2.2-.5-4.4-.8-6.6-.1-.9-.2-1.7-.3-2.6-.2-1.3-.3-2.6-.6-4l-.4-2.2a.6.6,0,0,0-.1-.4c-.2-1.2-.4-2.4-.6-3.5,0-.2-.1-.5-.1-.7-.1-.5-.2-1.1-.3-1.6l-.4-2.1v-.1h0c-.2-1.4-.6-2.8-.9-4.2l-.5-2.2c-.1-.5-.2-.9-.3-1.4-.2-1-.4-1.9-.7-2.9l-1.2-5.2-.9-3.1c-1.8-6.6-3.6-12.7-5.6-18.4l-.1-.2c-1.8-5.3-3.8-10.6-5.9-15.7l-.2-.5h0l-.8-1.8c-1.9-4.6-4-9.2-6.2-13.7h0l-1.2-2.3c-1.2-2.4-2.4-4.8-3.7-7.2l-.4-.8-1.1-2.2-1.5-2.5h0l-.4-.8c-.7-1.3-1.5-2.6-2.2-3.8-.6-1-1.1-2-1.7-3-.7-1.2-1.4-2.4-2.1-3.5l-1.1-1.7a4.05,4.05,0,0,1-.5-.9c-.4-.7-.9-1.4-1.4-2.1l-.6-.9c-.7-1.2-1.5-2.3-2.2-3.5h0c-.7-1-1.3-2-2-2.9-.5-.7-.9-1.3-1.4-2a19.52,19.52,0,0,0-1.7-2.3c-.4-.5-.7-1-1.1-1.5s-.7-1-1.1-1.5c-.7-1-1.4-1.9-2.1-2.9l-.8-1-.1-.1c-.3-.4-.7-.9-1-1.3l-.1-.1c-1.1-1.5-2.3-3-3.5-4.4l-2.4-3-2-2.4c-1.8-2.1-3.5-4.2-5.3-6.2Zm-73.6-54.7,1.7,1c2.6,1.5,5.3,3.1,7.9,4.8l3.1,2q4.2,2.7,8.4,5.7l1,.7c.5.4,1,.7,1.5,1.1,2.7,1.9,5.3,3.9,7.9,5.8l.3.2a14.68,14.68,0,0,1-9.4,3.6,21.59,21.59,0,0,1-13.4-3.9h0a21.07,21.07,0,0,1-5.4-4.9,18.08,18.08,0,0,1-1.9-2.9,29.17,29.17,0,0,1-1.4-3.1A14.7,14.7,0,0,1,1130.7,106.6Zm-14.9-8,6.2,3.2c1.7.9,3.5,1.9,5.2,2.8a18.22,18.22,0,0,0,0,13.4,30.06,30.06,0,0,0,1.7,3.6,26.37,26.37,0,0,0,2.3,3.5,25.33,25.33,0,0,0,6.4,5.8,25.86,25.86,0,0,0,14.4,4.6h1.5a18.16,18.16,0,0,0,12.3-5.1l2.2,1.8c1.4,1.1,2.7,2.2,4.1,3.4l3.6,3.1a26.18,26.18,0,0,1-13.4,6.7,43.19,43.19,0,0,1-5.9.6,41,41,0,0,1-23.9-7.1h0a34.18,34.18,0,0,1-5.2-4,58.93,58.93,0,0,1-4.2-4.5l-.2-.2a36.34,36.34,0,0,1-6.1-10.7C1113.6,112.1,1113.4,104.9,1115.8,98.6Zm-15.2-7.1c3.9,1.7,7.8,3.5,11.7,5.3-2.9,7.3-2.8,15.7.4,23.9a38.33,38.33,0,0,0,6.8,11.8l.2.2a50.28,50.28,0,0,0,4.5,4.8,48.17,48.17,0,0,0,18.7,10.5,40.58,40.58,0,0,0,12,1.8h1.5a49.73,49.73,0,0,0,6.5-.7,32.83,32.83,0,0,0,6.3-1.9,30.51,30.51,0,0,0,9.4-6.1c3.2,2.9,6.3,5.8,9.4,8.8a39.67,39.67,0,0,1-12.8,7.5,54.72,54.72,0,0,1-8.2,2.1c-1.4.2-2.8.4-4.3.5s-2.9.2-4.3.2a63.6,63.6,0,0,1-8.7-.6l-1.5-.3-.7-.1c-.7-.1-1.5-.3-2.2-.4-1.4-.3-2.9-.7-4.3-1.1a72.11,72.11,0,0,1-8.4-3.2,71.06,71.06,0,0,1-8-4.5h0a38.94,38.94,0,0,1-7.1-5.6,16.61,16.61,0,0,0-1.4-1.3,17,17,0,0,1-1.9-1.9c-1-1.1-2-2.2-2.9-3.3a33.2,33.2,0,0,1-2.6-3.6c-1-1.4-1.7-2.5-2.4-3.6a46.82,46.82,0,0,1-3.8-7.8l-.1-.2c-.5-1.3-1-2.6-1.4-3.9s-.8-2.7-1.2-4.1a40.52,40.52,0,0,1-1.2-8.4A37.71,37.71,0,0,1,1100.6,91.5Zm-72.7-20.2c2.6.4,5.2.8,7.9,1.2l4.6.8,9.2,1.8c.6.1,1.1.3,1.7.4l.4.1c1.5.3,3,.7,4.4,1l1.2.3c1.7.4,3.5.9,5.2,1.3a15,15,0,0,1-7.3,6.9,20.36,20.36,0,0,1-6.5,1.9,21.66,21.66,0,0,1-3.6.1c-1.3-.1-2.7-.3-3.8-.5a22,22,0,0,1-6.9-2.5,18.72,18.72,0,0,1-2.9-2,26.14,26.14,0,0,1-2.5-2.3,14.85,14.85,0,0,1-4.1-9.2Zm-13-1.5c1.7.2,3.5.3,5.2.5l.8.1a18.66,18.66,0,0,0,5.1,12.4,35.76,35.76,0,0,0,2.9,2.7,23.66,23.66,0,0,0,11.5,5.3h0c1.3.2,2.7.4,4.3.5h1.4a28.25,28.25,0,0,0,2.9-.2,22.76,22.76,0,0,0,7.8-2.3,18.33,18.33,0,0,0,9.4-9.4c4.1,1.2,8.2,2.4,12.3,3.8a23.45,23.45,0,0,1-5.4,7.7,32.25,32.25,0,0,1-9.7,6.5,39.25,39.25,0,0,1-11.9,3.2,34.32,34.32,0,0,1-6.4.3,31.63,31.63,0,0,1-3.2-.3c-.5-.1-1.1-.2-1.7-.3h-.1a7.77,7.77,0,0,0-1.6-.2h0a46.37,46.37,0,0,1-6.4-1.7,49.42,49.42,0,0,1-5.7-2.6l-.2-.1a37.08,37.08,0,0,1-9.8-7.5c-5.4-5.5-8.3-12.1-8.5-18.8Zm-10.8-.9c.1,7.9,3.4,15.6,9.6,21.9a39.46,39.46,0,0,0,10.8,8.3l.2.1a56.67,56.67,0,0,0,6.1,2.8,42.62,42.62,0,0,0,7,1.9l1.7.3h0l1.8.3a21.86,21.86,0,0,0,3.6.3h1.9a45.33,45.33,0,0,0,5.2-.3,41.42,41.42,0,0,0,13.1-3.5,40.67,40.67,0,0,0,10.9-7.3,30.36,30.36,0,0,0,6.4-9.3c4,1.4,8.1,2.9,12,4.5a38.65,38.65,0,0,1-9,11.8,37.24,37.24,0,0,1-6.8,5c-1.4.8-2.6,1.5-3.8,2.1s-2.6,1.3-3.9,1.9a60.49,60.49,0,0,1-8.2,2.7,62.17,62.17,0,0,1-8.7,1.6c-1.5.1-2.9.2-4.5.2-1.2,0-2.9.1-4.5,0s-3-.2-4.5-.4c-.9-.1-1.7-.3-2.6-.4l-2-.3a43.11,43.11,0,0,1-8.7-2.4,14.58,14.58,0,0,0-1.9-.7,24.43,24.43,0,0,1-2.4-1c-1.3-.6-2.7-1.2-4-1.9s-2.5-1.5-3.8-2.3l-.8-.5c-1-.6-1.9-1.3-2.8-1.9a50.07,50.07,0,0,1-6.5-5.7,56.52,56.52,0,0,1-5.6-6.6,45,45,0,0,1-4.3-7.3,40,40,0,0,1-3.8-14.4C995.6,68.6,999.9,68.7,1004.1,68.9ZM918.9,77c.3-.1.7-.2,1-.3,1.4-.4,2.9-.7,4.3-1l.9-.2,1.3-.3c3.1-.7,6.2-1.3,9.3-1.9l4.6-.8,7.8-1.2,2.9-.4a14.77,14.77,0,0,1-4.1,9.2,27.25,27.25,0,0,1-2.5,2.3,29.77,29.77,0,0,1-2.9,2,22.74,22.74,0,0,1-6.9,2.5c-1.2.2-2.5.4-3.8.5a20.8,20.8,0,0,1-10.2-2,15,15,0,0,1-7.3-6.9C915.4,77.9,917.1,77.4,918.9,77Zm-9.2,2.4a18.7,18.7,0,0,0,9.4,9.4,23.43,23.43,0,0,0,7.8,2.3,28.25,28.25,0,0,0,2.9.2h1.4c1.5-.1,3-.3,4.2-.5h0a25.3,25.3,0,0,0,8.1-2.9,28.84,28.84,0,0,0,3.4-2.3,18.23,18.23,0,0,0,2.9-2.7,18.47,18.47,0,0,0,5.1-12.4l.8-.1c1.7-.2,3.5-.4,5.2-.5l6.8-.5c-.2,6.7-3.1,13.3-8.5,18.9a35.1,35.1,0,0,1-9.7,7.5l-.2.1a58.59,58.59,0,0,1-5.7,2.6,33.45,33.45,0,0,1-6.4,1.7h0a7.77,7.77,0,0,1-1.6.2h-.2l-1.6.3-3.2.3a34.32,34.32,0,0,1-6.4-.3,36,36,0,0,1-11.8-3.2,32.43,32.43,0,0,1-9.7-6.6,26.86,26.86,0,0,1-5.4-7.7C901.5,81.9,905.6,80.6,909.7,79.4Zm-16.1,5.1a28.72,28.72,0,0,0,6.4,9.3,39.14,39.14,0,0,0,10.9,7.3,41.42,41.42,0,0,0,13.1,3.5,45.33,45.33,0,0,0,5.2.3h1.9l3.6-.3c.6-.1,1.2-.2,1.7-.3h.1l1.7-.3a40.08,40.08,0,0,0,7-1.9,49,49,0,0,0,6.1-2.8l.2-.1a39.46,39.46,0,0,0,10.8-8.3c6.2-6.4,9.5-14.1,9.6-21.9,4.3-.2,8.5-.4,12.8-.4A38.09,38.09,0,0,1,980.9,83a45,45,0,0,1-4.3,7.3,66.18,66.18,0,0,1-5.6,6.6,45,45,0,0,1-6.6,5.7,27.5,27.5,0,0,1-2.8,1.9l-.8.5c-1.2.8-2.5,1.6-3.8,2.3s-2.6,1.4-4,2c-.8.3-1.5.6-2.4.9-.6.2-1.3.5-1.9.7a44,44,0,0,1-8.8,2.4l-2,.3a25.12,25.12,0,0,1-2.7.4c-1.5.2-3,.3-4.5.4s-3.3,0-4.6,0-2.9-.1-4.4-.2a64.91,64.91,0,0,1-8.7-1.6,60.49,60.49,0,0,1-8.2-2.7c-1.3-.6-2.6-1.2-3.9-1.9s-2.4-1.3-3.8-2.1a56.7,56.7,0,0,1-6.8-5,38.65,38.65,0,0,1-9-11.8C885.6,87.4,889.6,85.9,893.6,84.5Zm-79.7,43.2c2.6-2,5.3-4,7.9-5.9.5-.4,1-.7,1.5-1.1.3-.2.7-.5,1-.7l8.4-5.7,3.1-2c2.6-1.6,5.3-3.2,7.9-4.8l1.6-.9a15,15,0,0,1-.2,10c-.4,1-.9,2-1.4,3a18.08,18.08,0,0,1-1.9,2.9,21.07,21.07,0,0,1-5.4,4.9h0a21.69,21.69,0,0,1-13.5,3.9,13.9,13.9,0,0,1-9.3-3.6Zm-9.9,7.9,3.8-3.2,2.6-2a18.16,18.16,0,0,0,12.3,5.1c.5,0,1,.1,1.5.1a25.86,25.86,0,0,0,14.4-4.6,25.33,25.33,0,0,0,6.4-5.8,26.37,26.37,0,0,0,2.3-3.5,19.64,19.64,0,0,0,1.6-3.6,18.22,18.22,0,0,0,0-13.4c1.7-.9,3.4-1.9,5.1-2.8l6.3-3.2c2.4,6.3,2.2,13.5-.6,20.7a34.59,34.59,0,0,1-6.1,10.6l-.2.2a58.93,58.93,0,0,1-4.2,4.5,34.18,34.18,0,0,1-5.2,4h0a39.37,39.37,0,0,1-11.8,5.5,35.38,35.38,0,0,1-12.1,1.6,35.29,35.29,0,0,1-11.5-2.3,23.37,23.37,0,0,1-7.9-5.1Zm-6.5,5.6a27.27,27.27,0,0,0,9.4,6.1,41.9,41.9,0,0,0,6.3,1.9,38.15,38.15,0,0,0,6.6.7h1.5a40.41,40.41,0,0,0,11.9-1.8,44.21,44.21,0,0,0,12.9-6,31.4,31.4,0,0,0,5.7-4.5,41.48,41.48,0,0,0,4.5-4.9l.2-.3a42.83,42.83,0,0,0,6.8-11.8c3.2-8.3,3.4-16.7.5-23.9,3.9-1.9,7.8-3.7,11.7-5.3a37.46,37.46,0,0,1,2,14.7,40.52,40.52,0,0,1-1.2,8.4,27.69,27.69,0,0,1-1.2,4.1c-.4,1.3-.9,2.6-1.4,4v.1a56.77,56.77,0,0,1-3.9,7.8c-.7,1.1-1.4,2.3-2.4,3.7-.8,1.2-1.7,2.4-2.6,3.6a31.09,31.09,0,0,1-2.9,3.3c-.6.6-1.2,1.2-1.9,1.8-.5.4-.9.9-1.4,1.3a43.44,43.44,0,0,1-7.2,5.6h0a48.81,48.81,0,0,1-7.9,4.5,72.11,72.11,0,0,1-8.4,3.2c-1.4.4-2.8.8-4.3,1.1-.7.1-1.4.3-2.2.4l-.7.1-1.5.3a49.08,49.08,0,0,1-8.6.6c-1.4,0-2.9-.1-4.4-.2s-2.9-.3-4.2-.5a54.72,54.72,0,0,1-8.2-2.1,38.63,38.63,0,0,1-12.8-7.5C791.2,147,794.3,144.1,797.5,141.2Zm-56.4,69q2.25-3.9,4.8-7.8l2-3.1c1.8-2.8,3.7-5.6,5.6-8.4.1-.1.2-.3.3-.4.5-.7,1-1.5,1.6-2.2,1.9-2.7,3.8-5.3,5.8-7.9l.2-.3a14.68,14.68,0,0,1,3.6,9.4,21.59,21.59,0,0,1-3.9,13.4h0a21.07,21.07,0,0,1-4.9,5.4,22.06,22.06,0,0,1-6,3.3,14.38,14.38,0,0,1-10,.2Zm-5.8,10.3c.9-1.7,1.9-3.4,2.8-5.2a17.52,17.52,0,0,0,6.5,1.3,19.13,19.13,0,0,0,6.9-1.3,30.06,30.06,0,0,0,3.6-1.7,26.37,26.37,0,0,0,3.5-2.3,25.33,25.33,0,0,0,5.8-6.4,25,25,0,0,0,4.5-15.8,18.16,18.16,0,0,0-5.1-12.3l1.8-2.3c1.1-1.4,2.2-2.7,3.3-4l3.1-3.6a26.85,26.85,0,0,1,5.1,7.9,24.94,24.94,0,0,1,1.6,5.5,43.19,43.19,0,0,1,.6,5.9,41,41,0,0,1-7.1,23.9h0a34.18,34.18,0,0,1-4,5.2,58.93,58.93,0,0,1-4.5,4.2l-.2.2a36.34,36.34,0,0,1-10.7,6.1c-7.2,2.8-14.4,3-20.7.6Zm-5,9.8a29.47,29.47,0,0,0,11,2.1,35.17,35.17,0,0,0,12.9-2.5,38.33,38.33,0,0,0,11.8-6.8l.2-.2c1.6-1.4,3.3-2.9,4.9-4.5a42.75,42.75,0,0,0,4.5-5.8,41.77,41.77,0,0,0,6-12.9,38.65,38.65,0,0,0,1.8-13.5,38,38,0,0,0-.7-6.5,32.83,32.83,0,0,0-1.9-6.3,30.51,30.51,0,0,0-6.1-9.4c2.9-3.2,5.8-6.3,8.8-9.4a39.67,39.67,0,0,1,7.5,12.8,54.72,54.72,0,0,1,2.1,8.2c.2,1.4.4,2.8.5,4.3s.2,2.9.2,4.3a63.6,63.6,0,0,1-.6,8.7l-.3,1.5-.1.7c-.1.7-.3,1.4-.4,2.2-.3,1.4-.7,2.9-1.1,4.3a72.11,72.11,0,0,1-3.2,8.4,71.06,71.06,0,0,1-4.5,8h0a38.94,38.94,0,0,1-5.6,7.1l-1.4,1.4a17,17,0,0,1-1.9,1.9c-1,1-2.2,2-3.3,2.9a33.2,33.2,0,0,1-3.6,2.6c-1.4,1-2.5,1.7-3.6,2.4a46.82,46.82,0,0,1-7.8,3.8l-.2.1c-1.3.5-2.6,1-3.9,1.4l-4.1,1.2a40.52,40.52,0,0,1-8.4,1.2,39.11,39.11,0,0,1-14.7-2C726.6,238.1,728.4,234.2,730.3,230.3Zm-25.5,84.5c.4-2.7.8-5.3,1.2-8l.8-4.4c.6-3.1,1.2-6.3,1.9-9.4a12.44,12.44,0,0,1,.4-1.6l.1-.4c.3-1.5.7-3.1,1.1-4.6.1-.4.2-.7.3-1.1.4-1.7.9-3.5,1.4-5.2a15,15,0,0,1,6.9,7.3,20.36,20.36,0,0,1,1.9,6.5,21.66,21.66,0,0,1,.1,3.6,32.2,32.2,0,0,1-.5,3.8,22,22,0,0,1-2.5,6.9,18.72,18.72,0,0,1-2,2.9,26.14,26.14,0,0,1-2.3,2.5,14.85,14.85,0,0,1-9.2,4.1Zm-1.5,12.9c.2-1.7.3-3.5.5-5.2l.1-.8a18.66,18.66,0,0,0,12.4-5.1,35.76,35.76,0,0,0,2.7-2.9,23.66,23.66,0,0,0,5.3-11.5h0a42.76,42.76,0,0,0,.5-4.3,30.88,30.88,0,0,0-.1-4.3,22.76,22.76,0,0,0-2.3-7.8,18.33,18.33,0,0,0-9.4-9.4c1.2-4.1,2.4-8.2,3.8-12.3a23.45,23.45,0,0,1,7.7,5.4,32.25,32.25,0,0,1,6.5,9.7,39.25,39.25,0,0,1,3.2,11.9,34.32,34.32,0,0,1,.3,6.4,31.63,31.63,0,0,1-.3,3.2c-.1.5-.2,1.1-.3,1.7v.2c-.1.5-.1,1-.2,1.5h0a46.37,46.37,0,0,1-1.7,6.4,49.42,49.42,0,0,1-2.6,5.7h-.3a37.08,37.08,0,0,1-7.5,9.8c-5.5,5.4-12.1,8.3-18.8,8.5Zm-.9,10.7c7.9-.1,15.6-3.5,21.9-9.6a39.46,39.46,0,0,0,8.3-10.8l.1-.2a49,49,0,0,0,2.8-6.1,42.62,42.62,0,0,0,1.9-7c.1-.5.2-1.1.3-1.6V303l.3-1.8a21.86,21.86,0,0,0,.3-3.6,42,42,0,0,0-11.1-31,30.36,30.36,0,0,0-9.3-6.4c1.4-4,2.9-8.1,4.5-12a38.65,38.65,0,0,1,11.8,9,37.24,37.24,0,0,1,5,6.8c.8,1.4,1.5,2.6,2.1,3.8s1.3,2.6,1.9,3.9a60.49,60.49,0,0,1,2.7,8.2,64.91,64.91,0,0,1,1.6,8.7c.1,1.5.2,2.9.2,4.5,0,1.2.1,2.9,0,4.5s-.2,3-.4,4.5c-.1.9-.3,1.7-.4,2.6-.1.7-.2,1.3-.3,2a43.11,43.11,0,0,1-2.4,8.7,14.58,14.58,0,0,0-.7,1.9,24.43,24.43,0,0,1-1,2.4c-.6,1.3-1.2,2.7-1.9,4s-1.5,2.6-2.3,3.8l-.5.8c-.6,1-1.3,1.9-1.9,2.8a50.07,50.07,0,0,1-5.7,6.5,56.52,56.52,0,0,1-6.6,5.6,45,45,0,0,1-7.3,4.3,40,40,0,0,1-14.4,3.8C702,347,702.2,342.7,702.4,338.4Zm8,85.3c-.1-.3-.1-.6-.2-.9-.4-1.5-.7-2.9-1-4.4l-.2-1-.3-1.2c-.7-3.1-1.3-6.3-1.9-9.4l-.8-4.5c-.4-2.6-.9-5.3-1.2-7.9l-.4-2.9a14.77,14.77,0,0,1,9.2,4.1,27.25,27.25,0,0,1,2.3,2.5,29.77,29.77,0,0,1,2,2.9,22.74,22.74,0,0,1,2.5,6.9c.2,1.1.4,2.5.5,3.8a20.8,20.8,0,0,1-2,10.2,15,15,0,0,1-6.9,7.3C711.3,427.2,710.9,425.4,710.4,423.7Zm2.5,9.2a18.7,18.7,0,0,0,9.4-9.4,23.43,23.43,0,0,0,2.3-7.8,20.45,20.45,0,0,0,.1-4.3,40.52,40.52,0,0,0-.5-4.2h0a25.3,25.3,0,0,0-2.9-8.1,28.84,28.84,0,0,0-2.3-3.4,18.23,18.23,0,0,0-2.7-2.9,18.47,18.47,0,0,0-12.4-5.1l-.1-.8c-.2-1.7-.4-3.5-.5-5.2l-.5-6.8c6.7.2,13.3,3.1,18.9,8.5a35.1,35.1,0,0,1,7.5,9.7l.1.2a58.59,58.59,0,0,1,2.6,5.7,35.53,35.53,0,0,1,1.7,6.4h0a7.72,7.72,0,0,1,.2,1.5v.3c.1.5.2,1.1.3,1.6.1,1.1.2,2.2.3,3.2a34.32,34.32,0,0,1-.3,6.4,36,36,0,0,1-3.2,11.8,32.43,32.43,0,0,1-6.6,9.7,26.86,26.86,0,0,1-7.7,5.4C715.3,441.1,714.1,437,712.9,432.9ZM718,449a28.72,28.72,0,0,0,9.3-6.4,39.14,39.14,0,0,0,7.3-10.9,47.34,47.34,0,0,0,3.8-20.2l-.3-3.6c-.1-.6-.2-1.2-.3-1.7V406c-.1-.5-.2-1.1-.3-1.6a40.08,40.08,0,0,0-1.9-7,49,49,0,0,0-2.8-6.1l-.1-.2a39.46,39.46,0,0,0-8.3-10.8c-6.4-6.2-14.1-9.5-21.9-9.6-.2-4.3-.4-8.5-.4-12.8a38.09,38.09,0,0,1,14.4,3.8,45,45,0,0,1,7.3,4.3,66.18,66.18,0,0,1,6.6,5.6,45,45,0,0,1,5.7,6.6A27.5,27.5,0,0,1,738,381l.5.8c.8,1.2,1.6,2.5,2.3,3.8s1.4,2.6,2,4c.3.8.6,1.5.9,2.4.2.6.5,1.3.7,1.9a44,44,0,0,1,2.4,8.8c.1.7.2,1.3.3,2a25.12,25.12,0,0,1,.4,2.7c.2,1.5.3,3,.4,4.5s0,3.3,0,4.6-.1,2.9-.2,4.4a64.91,64.91,0,0,1-1.6,8.7,60.49,60.49,0,0,1-2.7,8.2c-.6,1.3-1.2,2.6-1.9,3.9s-1.3,2.4-2.1,3.8a56.7,56.7,0,0,1-5,6.8,38.65,38.65,0,0,1-11.8,9C720.9,457,719.4,453,718,449Zm43.4,80-.2-.3c-2-2.6-3.9-5.2-5.8-7.9-.4-.5-.7-1-1.1-1.6-.1-.2-.3-.4-.4-.6h0c-.1-.1-.2-.3-.3-.4-1.9-2.8-3.8-5.6-5.6-8.4l-2-3.1c-1.6-2.6-3.2-5.2-4.8-7.9l-1.1-1.6a15,15,0,0,1,10,.2c1,.4,2.1.9,3.1,1.4a18.08,18.08,0,0,1,2.9,1.9,21.07,21.07,0,0,1,4.9,5.4h0a21.69,21.69,0,0,1,3.9,13.5A14.61,14.61,0,0,1,761.4,529Zm7.7,9.6c-1.1-1.3-2.2-2.6-3.2-3.9l-2-2.5a18.16,18.16,0,0,0,5.1-12.3,25.76,25.76,0,0,0-4.5-15.9,25.33,25.33,0,0,0-5.8-6.4,26.37,26.37,0,0,0-3.5-2.3,19.64,19.64,0,0,0-3.6-1.6,18.23,18.23,0,0,0-13.4,0c-.9-1.7-1.9-3.4-2.8-5.1l-3.2-6.3c6.3-2.4,13.5-2.2,20.7.6a34.59,34.59,0,0,1,10.6,6.1l.2.2a58.93,58.93,0,0,1,4.5,4.2,34.18,34.18,0,0,1,4,5.2h0a39.37,39.37,0,0,1,5.5,11.8,35.38,35.38,0,0,1,1.6,12.1A35.29,35.29,0,0,1,777,534a23.37,23.37,0,0,1-5.1,7.9Zm14.4,15.9c-3-3.1-5.9-6.2-8.8-9.4a27.27,27.27,0,0,0,6.1-9.4,41.9,41.9,0,0,0,1.9-6.3,42.27,42.27,0,0,0-1.1-20,43.05,43.05,0,0,0-6-12.9,31.4,31.4,0,0,0-4.5-5.7,51.16,51.16,0,0,0-4.9-4.5l-.3-.2a42.83,42.83,0,0,0-11.8-6.8c-8.3-3.2-16.7-3.4-23.9-.5-1.9-3.9-3.7-7.8-5.3-11.7a37.46,37.46,0,0,1,14.7-2,40.52,40.52,0,0,1,8.4,1.2,27.69,27.69,0,0,1,4.1,1.2c1.3.4,2.6.9,4,1.4h.1a56.77,56.77,0,0,1,7.8,3.9c1.1.7,2.3,1.4,3.7,2.4,1.2.8,2.4,1.7,3.6,2.6a31.09,31.09,0,0,1,3.3,2.9c.6.6,1.2,1.2,1.8,1.9.4.5.9.9,1.3,1.4a43.44,43.44,0,0,1,5.6,7.2h0a48.81,48.81,0,0,1,4.5,7.9,72.11,72.11,0,0,1,3.2,8.4c.4,1.4.8,2.8,1.1,4.3.1.7.3,1.4.4,2.2l.1.7.3,1.5a49.08,49.08,0,0,1,.6,8.6c0,1.4-.1,2.9-.2,4.4s-.3,2.9-.5,4.2a54.72,54.72,0,0,1-2.1,8.2A34,34,0,0,1,783.5,554.5Zm61.9,48-1.6-.9c-2.7-1.6-5.3-3.2-7.9-4.8l-3.1-2c-2.8-1.8-5.7-3.7-8.4-5.7-.1,0-.1-.1-.2-.1l-.9-.6a2.18,2.18,0,0,1-.5-.4l-1-.7c-2.7-1.9-5.3-3.9-7.9-5.9l-.3-.2a14.68,14.68,0,0,1,9.4-3.6,21.59,21.59,0,0,1,13.4,3.9h0a21.07,21.07,0,0,1,5.4,4.9,18.08,18.08,0,0,1,1.9,2.9,29.17,29.17,0,0,1,1.4,3.1A14.71,14.71,0,0,1,845.4,602.5Zm14.8,8-6.2-3.2c-1.7-.9-3.4-1.9-5.2-2.8a18.22,18.22,0,0,0,0-13.4,30.06,30.06,0,0,0-1.7-3.6,19.18,19.18,0,0,0-2.3-3.5,25.33,25.33,0,0,0-6.4-5.8,25,25,0,0,0-15.8-4.5,18.16,18.16,0,0,0-12.3,5.1L808,577c-1.4-1.1-2.7-2.2-4-3.3l-3.6-3.1a26.85,26.85,0,0,1,7.9-5.1,24.94,24.94,0,0,1,5.5-1.6,43.19,43.19,0,0,1,5.9-.6,41,41,0,0,1,23.9,7.1h0a34.18,34.18,0,0,1,5.2,4,58.93,58.93,0,0,1,4.2,4.5l.2.2a36.34,36.34,0,0,1,6.1,10.7A26.76,26.76,0,0,1,860.2,610.5Zm15.3,7.1c-3.9-1.7-7.8-3.5-11.7-5.3,2.9-7.3,2.8-15.7-.4-23.9a38.33,38.33,0,0,0-6.8-11.8l-.2-.2c-1.4-1.6-2.9-3.3-4.5-4.9a52.59,52.59,0,0,0-5.8-4.5,41.77,41.77,0,0,0-12.9-6,38.65,38.65,0,0,0-13.5-1.8,38,38,0,0,0-6.5.7,32.83,32.83,0,0,0-6.3,1.9,30.51,30.51,0,0,0-9.4,6.1c-3.2-2.9-6.3-5.8-9.4-8.8a39.67,39.67,0,0,1,12.8-7.5,54.72,54.72,0,0,1,8.2-2.1c1.3-.2,2.8-.4,4.3-.5s2.9-.2,4.4-.2a63.6,63.6,0,0,1,8.7.6l1.5.3.7.1c.7.1,1.4.3,2.2.4,1.4.3,2.9.7,4.3,1.1a72.11,72.11,0,0,1,8.4,3.2,71.06,71.06,0,0,1,8,4.5h0a38.94,38.94,0,0,1,7.1,5.6l1.4,1.4c.7.6,1.3,1.2,1.9,1.8,1,1,2,2.2,2.9,3.3a33.2,33.2,0,0,1,2.6,3.6c1,1.4,1.7,2.5,2.4,3.6a46.82,46.82,0,0,1,3.8,7.8l.1.1c.5,1.4,1,2.7,1.4,4s.8,2.7,1.2,4.1a40.52,40.52,0,0,1,1.2,8.4A39.58,39.58,0,0,1,875.5,617.6Zm72.7,20.2c-2.6-.4-5.2-.8-7.9-1.2l-4.5-.8c-3.1-.6-6.2-1.2-9.3-1.9a9.36,9.36,0,0,1-1.6-.4l-.6-.1c-1.5-.3-2.9-.7-4.4-1l-1.2-.3c-1.7-.4-3.5-.9-5.2-1.3a15,15,0,0,1,7.3-6.9,20.36,20.36,0,0,1,6.5-1.9,21.66,21.66,0,0,1,3.6-.1,32.2,32.2,0,0,1,3.8.5,22,22,0,0,1,6.9,2.5,18.72,18.72,0,0,1,2.9,2,26.14,26.14,0,0,1,2.5,2.3,14.85,14.85,0,0,1,4.1,9.2Zm12.9,1.5c-1.7-.2-3.4-.3-5.1-.5l-.8-.1a18.66,18.66,0,0,0-5.1-12.4,35.76,35.76,0,0,0-2.9-2.7,23.66,23.66,0,0,0-11.5-5.3h0a42.76,42.76,0,0,0-4.3-.5,30.88,30.88,0,0,0-4.3.1,22.76,22.76,0,0,0-7.8,2.3,18.33,18.33,0,0,0-9.4,9.4c-4.1-1.2-8.2-2.4-12.3-3.8a23.45,23.45,0,0,1,5.4-7.7,32.25,32.25,0,0,1,9.7-6.5,39.25,39.25,0,0,1,11.9-3.2,34.32,34.32,0,0,1,6.4-.3,31.63,31.63,0,0,1,3.2.3c.5.1,1.1.2,1.7.3h.2c.5.1,1,.1,1.5.2h0a46.37,46.37,0,0,1,6.4,1.7,49.42,49.42,0,0,1,5.7,2.6l.2.1a37.08,37.08,0,0,1,9.8,7.5c5.4,5.5,8.3,12.1,8.5,18.8Zm10.8.9c-.1-7.9-3.4-15.6-9.6-21.9a39.46,39.46,0,0,0-10.8-8.3l-.2-.1a56.67,56.67,0,0,0-6.1-2.8,42.62,42.62,0,0,0-7-1.9l-1.6-.3h-.1l-1.8-.3a21.86,21.86,0,0,0-3.6-.3,42,42,0,0,0-31,11.1,30.36,30.36,0,0,0-6.4,9.3c-4-1.4-8.1-2.9-12-4.5a38.65,38.65,0,0,1,9-11.8,37.24,37.24,0,0,1,6.8-5c1.4-.8,2.6-1.5,3.8-2.1s2.6-1.3,3.9-1.9a60.49,60.49,0,0,1,8.2-2.7,64.91,64.91,0,0,1,8.7-1.6c1.5-.1,2.9-.2,4.5-.2,1.2,0,2.9-.1,4.5,0s3,.2,4.5.4c.9.1,1.7.3,2.6.4l2,.3a43.11,43.11,0,0,1,8.7,2.4,14.58,14.58,0,0,0,1.9.7,24.43,24.43,0,0,1,2.4,1c1.3.6,2.7,1.2,4,1.9s2.6,1.5,3.8,2.3l.8.5a27.5,27.5,0,0,1,2.8,1.9,50.07,50.07,0,0,1,6.5,5.7,56.52,56.52,0,0,1,5.6,6.6,45,45,0,0,1,4.3,7.3,40,40,0,0,1,3.8,14.4C980.5,640.6,976.2,640.4,971.9,640.2Zm85.3-8.1a3.55,3.55,0,0,1-1,.2c-1.4.3-2.8.7-4.3,1l-1.1.3-1.2.3c-3.1.7-6.2,1.3-9.3,1.9l-4.6.8-7.9,1.2-2.9.4a14.77,14.77,0,0,1,4.1-9.2,27.25,27.25,0,0,1,2.5-2.3,29.77,29.77,0,0,1,2.9-2,22.74,22.74,0,0,1,6.9-2.5c1.1-.2,2.5-.4,3.8-.5a20.8,20.8,0,0,1,10.2,2,15,15,0,0,1,7.3,6.9C1060.7,631.2,1059,631.7,1057.2,632.1Zm9.1-2.4a18.7,18.7,0,0,0-9.4-9.4,23.43,23.43,0,0,0-7.8-2.3,20.45,20.45,0,0,0-4.3-.1,40.52,40.52,0,0,0-4.2.5h0a25.3,25.3,0,0,0-8.1,2.9,28.84,28.84,0,0,0-3.4,2.3,18.23,18.23,0,0,0-2.9,2.7,18.47,18.47,0,0,0-5.1,12.4l-.9.1c-1.7.2-3.4.4-5.1.5l-6.8.5c.2-6.7,3.1-13.3,8.5-18.9a35.1,35.1,0,0,1,9.7-7.5l.2-.1a49.42,49.42,0,0,1,5.7-2.6,33.45,33.45,0,0,1,6.4-1.7h0a7.72,7.72,0,0,1,1.5-.2h.2l1.6-.3,3.2-.3h1.7a35.93,35.93,0,0,1,4.7.3,35.3,35.3,0,0,1,11.8,3.2,32.43,32.43,0,0,1,9.7,6.6,26.86,26.86,0,0,1,5.4,7.7C1074.6,627.3,1070.5,628.5,1066.3,629.7Zm16.1-5.1a28.72,28.72,0,0,0-6.4-9.3,39.14,39.14,0,0,0-10.9-7.3,47.34,47.34,0,0,0-20.2-3.8l-3.6.3c-.6.1-1.2.2-1.7.3h-.2l-1.6.3a40.08,40.08,0,0,0-7,1.9,49,49,0,0,0-6.1,2.8l-.3.1a39.46,39.46,0,0,0-10.8,8.3c-6.2,6.4-9.5,14.1-9.6,21.9-4.3.2-8.6.4-12.8.4a38.09,38.09,0,0,1,3.8-14.4,45,45,0,0,1,4.3-7.3,83.16,83.16,0,0,1,5.6-6.6,45,45,0,0,1,6.6-5.7,27.5,27.5,0,0,1,2.8-1.9l.8-.5c1.2-.8,2.5-1.6,3.8-2.3s2.6-1.4,4-2c.8-.3,1.5-.6,2.4-.9.6-.2,1.3-.5,1.8-.7a44,44,0,0,1,8.8-2.4l2-.3a25.12,25.12,0,0,1,2.7-.4c1.5-.2,3-.3,4.5-.4s3.3,0,4.6,0,2.9.1,4.4.2a64.91,64.91,0,0,1,8.7,1.6,60.49,60.49,0,0,1,8.2,2.7c1.3.6,2.7,1.2,3.9,1.9s2.4,1.3,3.8,2.1a56.7,56.7,0,0,1,6.8,5,38.65,38.65,0,0,1,9,11.8C1090.5,621.7,1086.5,623.2,1082.4,624.6Zm14.7-35.5c-.5,1.5-.9,3-1.3,4.4a47.53,47.53,0,0,0-1.3,9.1,43.46,43.46,0,0,0,.8,10.9,43.35,43.35,0,0,0-7.2-8.3,45.86,45.86,0,0,0-7.4-5.5c-1.4-.9-2.7-1.6-4-2.3s-2.8-1.4-4.2-2a60.34,60.34,0,0,0-8.8-2.9,59.51,59.51,0,0,0-9.3-1.7,37.74,37.74,0,0,0-4.7-.2,38.2,38.2,0,0,0-4.8,0c-1.6.1-3.3.2-4.9.4a23.25,23.25,0,0,0-2.8.5l-1.9.3h0a57.49,57.49,0,0,0-9.6,2.7c-.6.2-1.2.5-1.8.7a27.73,27.73,0,0,0-2.6,1,42.5,42.5,0,0,0-4.3,2.1c-1.4.8-2.8,1.6-4.1,2.5l-.8.5a27.3,27.3,0,0,0-3,2.1,51.71,51.71,0,0,0-7.1,6.2,64.93,64.93,0,0,0-6,7,53,53,0,0,0-4.7,7.9,40.83,40.83,0,0,0-3.4,10.4,45.17,45.17,0,0,0-3.4-10.4,53,53,0,0,0-4.7-7.9,64.93,64.93,0,0,0-6-7,56.61,56.61,0,0,0-7-6.1l-3-2.1-.8-.5c-1.3-.9-2.7-1.7-4.1-2.5a34.18,34.18,0,0,0-4.3-2.1c-.9-.4-1.8-.7-2.6-1a13.36,13.36,0,0,1-1.8-.7,46.22,46.22,0,0,0-9.5-2.6h0c-.7-.1-1.3-.2-1.9-.3-.9-.2-1.9-.3-2.8-.5a40.45,40.45,0,0,0-4.9-.4c-1.8-.1-3.5,0-4.8,0-1.6,0-3.2.1-4.7.2a56.4,56.4,0,0,0-9.2,1.7,53.34,53.34,0,0,0-8.8,2.9c-1.4.6-2.8,1.3-4.2,2-1.2.7-2.5,1.4-4,2.3a56.77,56.77,0,0,0-7.4,5.5,43.35,43.35,0,0,0-7.2,8.3,43.46,43.46,0,0,0,.8-10.9,47.53,47.53,0,0,0-1.3-9.1,31.91,31.91,0,0,0-1.3-4.4c-.5-1.4-1-2.7-1.5-4.1l-.1-.2a65.21,65.21,0,0,0-4.1-8.4c-.7-1.2-1.5-2.4-2.5-3.8s-1.8-2.6-2.8-3.8-2.1-2.5-3.1-3.6l-2-2c-.4-.4-.9-.8-1.4-1.3a51.17,51.17,0,0,0-7.8-6.1,61.75,61.75,0,0,0-8.5-4.9,72.58,72.58,0,0,0-8.8-3.4c-1.5-.5-3.1-.8-4.6-1.2a22.31,22.31,0,0,0-2.3-.4l-.7-.1-1.6-.3a57.38,57.38,0,0,0-9.3-.7c-1.6,0-3.1.1-4.6.2s-3.1.3-4.6.5a50.47,50.47,0,0,0-8.9,2.3,44.9,44.9,0,0,0-9.8,4.9,44.9,44.9,0,0,0,4.9-9.8,52.83,52.83,0,0,0,2.3-8.9c.2-1.5.4-3,.5-4.5s.2-3.1.2-4.7a57.38,57.38,0,0,0-.7-9.3c-.1-.5-.2-1.1-.3-1.6l-.1-.6c-.1-.8-.3-1.6-.4-2.3a34.47,34.47,0,0,0-1.2-4.6,81,81,0,0,0-3.4-8.9,61.75,61.75,0,0,0-4.9-8.5,51.17,51.17,0,0,0-6.1-7.8l-1.3-1.3a18.88,18.88,0,0,0-2-2,37.28,37.28,0,0,0-3.6-3.2c-1.2-1-2.5-1.9-3.8-2.8l-3.9-2.6a59.85,59.85,0,0,0-8.4-4.2l-.1-.1c-1.4-.5-2.7-1-4.1-1.5s-2.9-.9-4.4-1.3a47.53,47.53,0,0,0-9.1-1.3,43.46,43.46,0,0,0-10.9.8,43.35,43.35,0,0,0,8.3-7.2,45.86,45.86,0,0,0,5.5-7.4c.9-1.4,1.6-2.7,2.3-4s1.4-2.8,2-4.2a60.34,60.34,0,0,0,2.9-8.8,59.51,59.51,0,0,0,1.7-9.3,37.74,37.74,0,0,0,.2-4.7,38.2,38.2,0,0,0,0-4.8c-.1-1.6-.2-3.3-.4-4.9a23.25,23.25,0,0,0-.5-2.8c-.1-.6-.2-1.3-.3-1.9h0a57.49,57.49,0,0,0-2.7-9.6c-.2-.6-.5-1.2-.7-1.8a27.73,27.73,0,0,0-1-2.6,42.5,42.5,0,0,0-2.1-4.3c-.8-1.4-1.6-2.8-2.5-4.1l-.5-.8a27.3,27.3,0,0,0-2.1-3,51.71,51.71,0,0,0-6.2-7.1,64.93,64.93,0,0,0-7-6,53,53,0,0,0-7.9-4.7,40.83,40.83,0,0,0-10.4-3.4,45.17,45.17,0,0,0,10.4-3.4,53,53,0,0,0,7.9-4.7,64.93,64.93,0,0,0,7-6,56.61,56.61,0,0,0,6.1-7l2.1-3,.5-.8c.9-1.3,1.7-2.7,2.5-4.1a34.18,34.18,0,0,0,2.1-4.3c.4-.9.7-1.8,1-2.6a13.36,13.36,0,0,1,.7-1.8,46.22,46.22,0,0,0,2.6-9.5h0c.1-.7.2-1.3.3-1.9.2-.9.3-1.9.5-2.8a38.86,38.86,0,0,0,.4-4.9c.1-1.8,0-3.5,0-4.8,0-1.6-.1-3.2-.2-4.7A56.4,56.4,0,0,0,750,279a53.34,53.34,0,0,0-2.9-8.8c-.6-1.4-1.3-2.9-2-4.2s-1.4-2.5-2.3-4a50.74,50.74,0,0,0-5.5-7.4,43.35,43.35,0,0,0-8.3-7.2,41.1,41.1,0,0,0,8.6.8,18.48,18.48,0,0,0,2.3-.1,47.53,47.53,0,0,0,9.1-1.3,31.91,31.91,0,0,0,4.4-1.3c1.4-.5,2.7-.9,4-1.5l.3-.1a72.66,72.66,0,0,0,8.4-4.1c1.2-.7,2.4-1.5,3.8-2.5s2.6-1.8,3.8-2.8,2.5-2.1,3.6-3.1l2-2c.4-.4.8-.9,1.3-1.4a51.17,51.17,0,0,0,6.1-7.8,61.75,61.75,0,0,0,4.9-8.5,72.58,72.58,0,0,0,3.4-8.8c.5-1.5.8-3.1,1.2-4.6a22.31,22.31,0,0,0,.4-2.3l.1-.7c.1-.5.2-1.1.3-1.6a57.38,57.38,0,0,0,.7-9.3c0-1.6-.1-3.1-.2-4.6s-.3-3.1-.5-4.6a50.47,50.47,0,0,0-2.3-8.9,44.9,44.9,0,0,0-4.9-9.8,44.9,44.9,0,0,0,9.8,4.9,52.83,52.83,0,0,0,8.9,2.3c1.5.2,3,.4,4.5.5s3.1.2,4.7.2h.6a50.24,50.24,0,0,0,8.7-.7l1.6-.3.6-.1c.8-.1,1.6-.3,2.3-.4a34.47,34.47,0,0,0,4.6-1.2,81,81,0,0,0,8.9-3.4,61.75,61.75,0,0,0,8.5-4.9,51.17,51.17,0,0,0,7.8-6.1l1.3-1.3a18.88,18.88,0,0,0,2-2,37.28,37.28,0,0,0,3.2-3.6c1-1.2,1.9-2.5,2.8-3.8,1-1.5,1.9-2.7,2.6-3.9a65.82,65.82,0,0,0,4.2-8.4l.1-.1c.5-1.4,1-2.7,1.5-4.1s.9-3,1.3-4.4a47.53,47.53,0,0,0,1.3-9.1,43.46,43.46,0,0,0-.8-10.9A43.35,43.35,0,0,0,888,104a45.86,45.86,0,0,0,7.4,5.5c1.4.9,2.7,1.6,4,2.3s2.8,1.4,4.2,2a60.34,60.34,0,0,0,8.8,2.9,59.51,59.51,0,0,0,9.3,1.7,37.74,37.74,0,0,0,4.7.2c.9,0,1.9.1,3,.1h1.8c1.6-.1,3.3-.2,4.9-.4a23.25,23.25,0,0,0,2.8-.5l1.9-.3h0a57.49,57.49,0,0,0,9.6-2.7c.6-.2,1.2-.5,1.8-.7a27.73,27.73,0,0,0,2.6-1,42.5,42.5,0,0,0,4.3-2.1c1.4-.8,2.8-1.6,4.1-2.5l.8-.5c1-.7,2-1.3,3-2.1a51.71,51.71,0,0,0,7.1-6.2,64.93,64.93,0,0,0,6-7,53,53,0,0,0,4.7-7.9,40.83,40.83,0,0,0,3.4-10.4,45.17,45.17,0,0,0,3.4,10.4,53,53,0,0,0,4.7,7.9,64.93,64.93,0,0,0,6,7,56.61,56.61,0,0,0,7,6.1l3,2.1.8.5c1.3.9,2.7,1.7,4.1,2.5a34.18,34.18,0,0,0,4.3,2.1c.9.4,1.8.7,2.6,1a13.36,13.36,0,0,1,1.8.7,46.22,46.22,0,0,0,9.5,2.6h0c.7.1,1.3.2,1.9.3.9.2,1.9.3,2.8.5a38.86,38.86,0,0,0,4.9.4h1.8a25.32,25.32,0,0,0,2.9-.1c1.6,0,3.2-.1,4.7-.2a56.4,56.4,0,0,0,9.2-1.7,53.34,53.34,0,0,0,8.8-2.9c1.4-.6,2.9-1.3,4.2-2s2.6-1.4,4-2.3a50.74,50.74,0,0,0,7.4-5.5,43.35,43.35,0,0,0,7.2-8.3,43.46,43.46,0,0,0-.8,10.9,47.53,47.53,0,0,0,1.3,9.1,31.91,31.91,0,0,0,1.3,4.4c.5,1.4,1,2.7,1.5,4.1l.1.2a72.66,72.66,0,0,0,4.1,8.4c.7,1.2,1.5,2.4,2.5,3.8s1.8,2.6,2.8,3.8,2.1,2.4,3.1,3.6l2,2c.4.4.9.8,1.4,1.3a51.17,51.17,0,0,0,7.8,6.1,61.75,61.75,0,0,0,8.5,4.9,72.58,72.58,0,0,0,8.8,3.4c1.5.4,3,.8,4.6,1.2a22.31,22.31,0,0,0,2.3.4l.6.1,1.6.3a50.24,50.24,0,0,0,8.7.7h.6c1.6,0,3.1-.1,4.6-.2s3.1-.3,4.6-.5a50.47,50.47,0,0,0,8.9-2.3,44.9,44.9,0,0,0,9.8-4.9,44.9,44.9,0,0,0-4.9,9.8,52.83,52.83,0,0,0-2.3,8.9c-.2,1.5-.4,3-.5,4.5s-.2,3.1-.2,4.7a57.38,57.38,0,0,0,.7,9.3c.1.6.2,1.1.3,1.7l.1.6c.1.8.3,1.6.4,2.3a34.47,34.47,0,0,0,1.2,4.6,81,81,0,0,0,3.4,8.9,61.75,61.75,0,0,0,4.9,8.5,51.17,51.17,0,0,0,6.1,7.8l1.3,1.3a18.88,18.88,0,0,0,2,2,37.28,37.28,0,0,0,3.6,3.2c1.2,1,2.5,1.9,3.8,2.8,1.5,1,2.7,1.9,3.9,2.6a59.85,59.85,0,0,0,8.4,4.2l.2.1c1.4.5,2.7,1,4,1.5,1.5.5,3,.9,4.4,1.3a47.53,47.53,0,0,0,9.1,1.3c.8,0,1.5.1,2.3.1a47.38,47.38,0,0,0,8.6-.8,46.6,46.6,0,0,0-8.3,7.2,45.86,45.86,0,0,0-5.5,7.4c-.9,1.4-1.6,2.7-2.3,4s-1.4,2.8-2,4.2a60.34,60.34,0,0,0-2.9,8.8,59.51,59.51,0,0,0-1.7,9.3,37.74,37.74,0,0,0-.2,4.7,38.2,38.2,0,0,0,0,4.8c.1,1.6.2,3.3.4,4.9a23.25,23.25,0,0,0,.5,2.8c.1.6.2,1.3.3,1.9h0a57.49,57.49,0,0,0,2.7,9.6c.2.6.5,1.2.7,1.8.3.8.6,1.7,1,2.6a42.5,42.5,0,0,0,2.1,4.3c.8,1.4,1.6,2.8,2.5,4.1l.5.8c.7,1,1.3,2,2.1,3a51.71,51.71,0,0,0,6.2,7.1,64.93,64.93,0,0,0,7,6,53,53,0,0,0,7.9,4.7,40.83,40.83,0,0,0,10.4,3.4,45.17,45.17,0,0,0-10.4,3.4,53,53,0,0,0-7.9,4.7,64.93,64.93,0,0,0-7,6,56.61,56.61,0,0,0-6.1,7l-2.1,3-.5.8c-.9,1.3-1.7,2.7-2.5,4.1a42.5,42.5,0,0,0-2.1,4.3c-.4.9-.7,1.8-1,2.6a13.36,13.36,0,0,1-.7,1.8,46.22,46.22,0,0,0-2.6,9.5h0c-.1.7-.2,1.3-.3,1.9-.2.9-.3,1.9-.5,2.8a38.86,38.86,0,0,0-.4,4.9c-.1,1.8,0,3.5,0,4.8,0,1.6.1,3.2.2,4.7a56.4,56.4,0,0,0,1.7,9.2,53.34,53.34,0,0,0,2.9,8.8c.6,1.4,1.3,2.8,2,4.2s1.4,2.6,2.3,4a56.77,56.77,0,0,0,5.5,7.4,43.35,43.35,0,0,0,8.3,7.2,43.46,43.46,0,0,0-10.9-.8,47.53,47.53,0,0,0-9.1,1.3c-1.5.4-3,.8-4.4,1.3s-2.7,1-4.1,1.5l-.2.1a72.66,72.66,0,0,0-8.4,4.1c-1.2.7-2.4,1.5-3.8,2.5s-2.6,1.8-3.8,2.8-2.5,2.1-3.6,3.1l-2,2c-.4.4-.8.9-1.3,1.4a51.17,51.17,0,0,0-6.1,7.8,61.75,61.75,0,0,0-4.9,8.5,72.58,72.58,0,0,0-3.4,8.8c-.4,1.5-.8,3-1.2,4.6a22.31,22.31,0,0,0-.4,2.3l-.1.6c-.1.6-.2,1.1-.3,1.6a57.38,57.38,0,0,0-.7,9.3c0,1.6.1,3.1.2,4.6s.3,3.1.5,4.6a50.47,50.47,0,0,0,2.3,8.9,44.9,44.9,0,0,0,4.9,9.8,44.9,44.9,0,0,0-9.8-4.9,55.42,55.42,0,0,0-8.9-2.3c-1.5-.2-3-.4-4.5-.5s-3.1-.2-4.7-.2a57.38,57.38,0,0,0-9.3.7l-1.6.3-.6.1c-.8.1-1.6.3-2.3.4a34.47,34.47,0,0,0-4.6,1.2,81,81,0,0,0-8.9,3.4,61.75,61.75,0,0,0-8.5,4.9,51.17,51.17,0,0,0-7.8,6.1l-1.3,1.3a18.88,18.88,0,0,0-2,2,37.28,37.28,0,0,0-3.2,3.6c-1,1.2-1.9,2.5-2.8,3.8l-2.6,3.9a59.85,59.85,0,0,0-4.2,8.4l-.1.2A37,37,0,0,1,1097.1,589.1Zm65.1-7.6c-2.6,2-5.2,3.9-7.9,5.8-.7.5-1.4,1-2.2,1.5-.1.1-.3.2-.4.3-2.7,1.9-5.5,3.8-8.3,5.6l-3.2,2c-2.6,1.6-5.2,3.2-7.9,4.8l-1.7,1a15,15,0,0,1,.2-10,27.51,27.51,0,0,1,1.4-3,18.08,18.08,0,0,1,1.9-2.9,21.07,21.07,0,0,1,5.4-4.9h0a22.05,22.05,0,0,1,12.2-3.9h1.3a13.9,13.9,0,0,1,9.3,3.6Zm9.8-7.9c-1.3,1.1-2.5,2.1-3.8,3.1l-2.6,2a18.16,18.16,0,0,0-12.3-5.1,27.64,27.64,0,0,0-22.3,10.3,26.37,26.37,0,0,0-2.3,3.5,19.64,19.64,0,0,0-1.6,3.6,18.23,18.23,0,0,0,0,13.4c-1.7.9-3.4,1.9-5,2.8l-6.3,3.2c-2.4-6.3-2.2-13.5.6-20.7a34.59,34.59,0,0,1,6.1-10.6l.2-.2a58.93,58.93,0,0,1,4.2-4.5,40,40,0,0,1,5.2-4h0a39.37,39.37,0,0,1,11.8-5.5,35.86,35.86,0,0,1,10.8-1.7h1.4a35.29,35.29,0,0,1,11.5,2.3,23.37,23.37,0,0,1,7.9,5.1Zm6.6-5.7a27.27,27.27,0,0,0-9.4-6.1,41.9,41.9,0,0,0-6.3-1.9,42.27,42.27,0,0,0-20,1.1,43.05,43.05,0,0,0-12.9,6,35.26,35.26,0,0,0-5.7,4.5,41.48,41.48,0,0,0-4.5,4.9l-.2.3a42.83,42.83,0,0,0-6.8,11.8c-3.2,8.3-3.4,16.7-.5,23.9-3.9,1.9-7.8,3.7-11.7,5.3a37.46,37.46,0,0,1-2-14.7,40.52,40.52,0,0,1,1.2-8.4,27.69,27.69,0,0,1,1.2-4.1c.4-1.3.9-2.6,1.4-3.9l.1-.2a56.77,56.77,0,0,1,3.9-7.8c.7-1.1,1.4-2.3,2.4-3.7.8-1.2,1.7-2.4,2.6-3.6s1.9-2.3,2.9-3.3c.6-.6,1.2-1.2,1.9-1.8.5-.4.9-.9,1.4-1.3a43.44,43.44,0,0,1,7.2-5.6h0a48.81,48.81,0,0,1,7.9-4.5,72.11,72.11,0,0,1,8.4-3.2c1.4-.4,2.8-.8,4.3-1.1.7-.1,1.4-.3,2.2-.4l.7-.1,1.5-.3a54.2,54.2,0,0,1,8.1-.6h.6c1.4,0,2.9.1,4.4.2s2.9.3,4.2.5a54.72,54.72,0,0,1,8.2,2.1,39.67,39.67,0,0,1,12.8,7.5C1184.9,562.1,1181.8,565,1178.6,567.9Zm56.4-69c-1.6,2.7-3.2,5.3-4.8,7.9l-2,3.1c-1.8,2.8-3.7,5.6-5.6,8.4-.2.3-.5.7-.7,1-.4.5-.7,1-1.1,1.5-1.9,2.7-3.9,5.3-5.9,7.9l-.2.3a14.68,14.68,0,0,1-3.6-9.4,21.59,21.59,0,0,1,3.9-13.4h0a21.07,21.07,0,0,1,4.9-5.4,18.08,18.08,0,0,1,2.9-1.9,29.17,29.17,0,0,1,3.1-1.4,15.64,15.64,0,0,1,5.5-1,13.3,13.3,0,0,1,4.5.8Zm5.8-10.3c-.9,1.7-1.9,3.5-2.8,5.2a18.22,18.22,0,0,0-13.4,0,30.06,30.06,0,0,0-3.6,1.7,19.18,19.18,0,0,0-3.5,2.3,25.33,25.33,0,0,0-5.8,6.4,25,25,0,0,0-4.5,15.8,18.16,18.16,0,0,0,5.1,12.3l-1.7,2.2c-1.1,1.4-2.3,2.8-3.4,4.2l-3.1,3.6a26.18,26.18,0,0,1-6.7-13.4,43.19,43.19,0,0,1-.6-5.9,41,41,0,0,1,7.1-23.9h0a34.18,34.18,0,0,1,4-5.2,58.93,58.93,0,0,1,4.5-4.2l.2-.2a36.34,36.34,0,0,1,10.7-6.1,31.84,31.84,0,0,1,11.5-2.3,25.89,25.89,0,0,1,9.2,1.7Zm5-9.8c-7.3-2.9-15.7-2.8-23.9.4a38.33,38.33,0,0,0-11.8,6.8l-.2.2c-1.6,1.4-3.3,2.8-4.9,4.5a52.59,52.59,0,0,0-4.5,5.8,42.86,42.86,0,0,0-6,12.9,38.65,38.65,0,0,0-1.8,13.5,49.73,49.73,0,0,0,.7,6.5,32.83,32.83,0,0,0,1.9,6.3,30.51,30.51,0,0,0,6.1,9.4c-2.9,3.2-5.8,6.3-8.8,9.4a39.67,39.67,0,0,1-7.5-12.8,54.72,54.72,0,0,1-2.1-8.2c-.2-1.4-.4-2.8-.5-4.3s-.2-2.9-.2-4.3a63.6,63.6,0,0,1,.6-8.7l.3-1.5.1-.7c.1-.7.3-1.4.4-2.2.3-1.4.7-2.9,1.1-4.3a72.11,72.11,0,0,1,3.2-8.4,71.06,71.06,0,0,1,4.5-8h0a38.94,38.94,0,0,1,5.6-7.1l1.4-1.4c.6-.7,1.2-1.3,1.8-1.9,1-1,2.2-2,3.3-2.9a33.2,33.2,0,0,1,3.6-2.6c1.4-1,2.5-1.7,3.6-2.4a46.82,46.82,0,0,1,7.8-3.8l.1-.1c1.4-.5,2.7-1,4-1.4s2.7-.8,4.1-1.2a40.52,40.52,0,0,1,8.4-1.2h2.1a38,38,0,0,1,12.7,2.1C1249.4,471,1247.6,474.9,1245.8,478.8Zm25.5-84.4-1.2,7.8-.8,4.6c-.6,3.1-1.2,6.1-1.8,9.1-.1.6-.3,1.2-.4,1.7l-.1.4c-.3,1.5-.7,2.9-1,4.4-.1.4-.2.8-.3,1.3-.4,1.7-.9,3.4-1.3,5.2a15,15,0,0,1-6.9-7.3,20.36,20.36,0,0,1-1.9-6.5,21.66,21.66,0,0,1-.1-3.6c.1-1.3.3-2.7.5-3.8a22,22,0,0,1,2.5-6.9,18.72,18.72,0,0,1,2-2.9,26.14,26.14,0,0,1,2.3-2.5,14.85,14.85,0,0,1,9.2-4.1Zm1.5-13c-.2,1.7-.3,3.5-.5,5.2l-.1.8a18.66,18.66,0,0,0-12.4,5.1,35.76,35.76,0,0,0-2.7,2.9,23.66,23.66,0,0,0-5.3,11.5h0c-.2,1.3-.4,2.7-.5,4.3a30.88,30.88,0,0,0,.1,4.3,22.76,22.76,0,0,0,2.3,7.8,18.33,18.33,0,0,0,9.4,9.4c-1.2,4.1-2.4,8.2-3.8,12.3a23.45,23.45,0,0,1-7.7-5.4,32.25,32.25,0,0,1-6.5-9.7,39.25,39.25,0,0,1-3.2-11.9,34.32,34.32,0,0,1-.3-6.4,31.63,31.63,0,0,1,.3-3.2c.1-.5.2-1.1.3-1.7v-.1a7.77,7.77,0,0,0,.2-1.6h0a46.37,46.37,0,0,1,1.7-6.4,49.42,49.42,0,0,1,2.6-5.7l.1-.2a37.08,37.08,0,0,1,7.5-9.8c5.5-5.4,12.1-8.3,18.8-8.5Zm.9-10.7c-7.9.1-15.6,3.4-21.9,9.6a39.46,39.46,0,0,0-8.3,10.8l-.1.2a56.67,56.67,0,0,0-2.8,6.1,42.62,42.62,0,0,0-1.9,7c-.1.6-.2,1.1-.3,1.7v.1l-.3,1.8a21.86,21.86,0,0,0-.3,3.6,42,42,0,0,0,11.1,31,30.36,30.36,0,0,0,9.3,6.4c-1.4,4-2.9,8.1-4.5,12a38.65,38.65,0,0,1-11.8-9,37.24,37.24,0,0,1-5-6.8c-.8-1.4-1.5-2.6-2.1-3.8s-1.3-2.6-1.9-3.9a57.5,57.5,0,0,1-2.7-8.3,62.17,62.17,0,0,1-1.6-8.7c-.1-1.5-.2-2.9-.2-4.5,0-1.2-.1-2.9,0-4.5s.2-3,.4-4.5c.1-.9.3-1.7.4-2.6.1-.7.2-1.3.3-2a43.11,43.11,0,0,1,2.4-8.7,14.58,14.58,0,0,0,.7-1.9,24.43,24.43,0,0,1,1-2.4c.6-1.3,1.2-2.7,1.9-4s1.5-2.5,2.3-3.8l.5-.8c.6-1,1.3-1.9,1.9-2.8a50.07,50.07,0,0,1,5.7-6.5,56.52,56.52,0,0,1,6.6-5.6,45,45,0,0,1,7.3-4.3,40,40,0,0,1,14.4-3.8C1274,362.1,1273.9,366.4,1273.7,370.7Zm-8.1-85.3c.1.4.2.7.3,1.1.3,1.4.7,2.8,1,4.2l.3,1.1c.1.4.2.9.3,1.3.7,3.1,1.3,6.2,1.9,9.3l.8,4.6c.4,2.6.8,5.2,1.2,7.9l.4,2.9a14.77,14.77,0,0,1-9.2-4.1,27.25,27.25,0,0,1-2.3-2.5,29.77,29.77,0,0,1-2-2.9,22.74,22.74,0,0,1-2.5-6.9c-.2-1.2-.4-2.5-.5-3.8a20.8,20.8,0,0,1,2-10.2,15,15,0,0,1,6.9-7.3C1264.7,281.9,1265.2,283.6,1265.6,285.4Zm-2.4-9.2a18.7,18.7,0,0,0-9.4,9.4,23.43,23.43,0,0,0-2.3,7.8,20.45,20.45,0,0,0-.1,4.3c.1,1.5.3,3,.5,4.2h0a25.3,25.3,0,0,0,2.9,8.1,28.84,28.84,0,0,0,2.3,3.4,18.23,18.23,0,0,0,2.7,2.9,18.47,18.47,0,0,0,12.4,5.1l.1.8c.2,1.7.4,3.5.5,5.2l.5,6.8c-6.7-.2-13.3-3.1-18.9-8.5a35.1,35.1,0,0,1-7.5-9.7l-.1-.2a58.59,58.59,0,0,1-2.6-5.7,33.45,33.45,0,0,1-1.7-6.4h0a7.77,7.77,0,0,1-.2-1.6v-.2c-.1-.5-.2-1.1-.3-1.6-.1-1.1-.2-2.2-.3-3.2a34.32,34.32,0,0,1,.3-6.4,36,36,0,0,1,3.2-11.8,32.43,32.43,0,0,1,6.6-9.7,26.86,26.86,0,0,1,7.7-5.4C1260.7,268,1262,272.1,1263.2,276.2Zm-5.1-16.1a28.72,28.72,0,0,0-9.3,6.4,39.14,39.14,0,0,0-7.3,10.9,47.34,47.34,0,0,0-3.8,20.2l.3,3.6c.1.6.2,1.2.3,1.7v.1c.1.6.2,1.1.3,1.7a40.08,40.08,0,0,0,1.9,7,49,49,0,0,0,2.8,6.1l.1.2a39.46,39.46,0,0,0,8.3,10.8c6.4,6.2,14.1,9.5,21.9,9.6.2,4.3.4,8.5.4,12.8a38.09,38.09,0,0,1-14.4-3.8,45,45,0,0,1-7.3-4.3,83.16,83.16,0,0,1-6.6-5.6,45,45,0,0,1-5.7-6.6,27.5,27.5,0,0,1-1.9-2.8l-.5-.8c-.8-1.2-1.6-2.5-2.3-3.8s-1.4-2.6-2-4c-.3-.7-.6-1.5-.9-2.3-.2-.6-.5-1.3-.7-1.9a44,44,0,0,1-2.4-8.8c-.1-.7-.2-1.3-.3-2a25.12,25.12,0,0,1-.4-2.7c-.2-1.5-.3-3-.4-4.5s0-3.3,0-4.6.1-2.9.2-4.4a64.91,64.91,0,0,1,1.6-8.7,60.49,60.49,0,0,1,2.7-8.2c.6-1.3,1.2-2.7,1.9-3.9s1.3-2.4,2.1-3.8a56.7,56.7,0,0,1,5-6.8,38.65,38.65,0,0,1,11.8-9C1255.2,252.1,1256.7,256.1,1258.1,260.1Zm-12.3-29.8c1.9,3.9,3.7,7.8,5.3,11.7a37.46,37.46,0,0,1-14.7,2,40.52,40.52,0,0,1-8.4-1.2,27.69,27.69,0,0,1-4.1-1.2c-1.3-.4-2.5-.9-3.9-1.4l-.2-.1a56.77,56.77,0,0,1-7.8-3.9c-1.1-.7-2.3-1.4-3.7-2.4-1.2-.8-2.4-1.7-3.6-2.6a31.09,31.09,0,0,1-3.3-2.9c-.6-.6-1.2-1.2-1.8-1.9-.4-.5-.9-.9-1.3-1.4a43.44,43.44,0,0,1-5.6-7.2h0a48.81,48.81,0,0,1-4.5-7.9,72.11,72.11,0,0,1-3.2-8.4c-.4-1.4-.8-2.8-1.1-4.3-.1-.7-.3-1.4-.4-2.2l-.1-.6-.3-1.5a49.08,49.08,0,0,1-.6-8.6c0-1.4.1-2.9.2-4.4s.3-2.9.5-4.2a54.72,54.72,0,0,1,2.1-8.2,38.63,38.63,0,0,1,7.5-12.8c3,3.1,5.9,6.2,8.8,9.4a27.27,27.27,0,0,0-6.1,9.4,41.9,41.9,0,0,0-1.9,6.3,42.27,42.27,0,0,0,1.1,20,43.05,43.05,0,0,0,6,12.9,35.26,35.26,0,0,0,4.5,5.7,50.28,50.28,0,0,0,4.8,4.5l.3.2a42.83,42.83,0,0,0,11.8,6.8,35.17,35.17,0,0,0,12.9,2.5A29.22,29.22,0,0,0,1245.8,230.3Zm-31.1-50.2.2.3c2,2.6,4,5.3,5.9,7.9.4.5.7,1,1.1,1.5.2.3.5.7.7,1,1.9,2.8,3.8,5.6,5.6,8.4l2,3.1c1.6,2.6,3.2,5.2,4.8,7.9l1,1.7a15,15,0,0,1-10-.2,27.51,27.51,0,0,1-3-1.4,18.08,18.08,0,0,1-2.9-1.9,21.07,21.07,0,0,1-4.9-5.4h0a21.69,21.69,0,0,1-3.9-13.5A13.54,13.54,0,0,1,1214.7,180.1Zm-4.5-5.8,2,2.6a18.16,18.16,0,0,0-5.1,12.3,25.76,25.76,0,0,0,4.5,15.9,25.33,25.33,0,0,0,5.8,6.4c1.1.8,2.3,1.6,3.5,2.3a19.64,19.64,0,0,0,3.6,1.6,21,21,0,0,0,6.9,1.3,15.73,15.73,0,0,0,6.5-1.3c.9,1.7,1.9,3.4,2.8,5.1l3.2,6.3c-6.3,2.4-13.5,2.2-20.7-.6a34.59,34.59,0,0,1-10.6-6.1l-.2-.2a58.93,58.93,0,0,1-4.5-4.2,40,40,0,0,1-4-5.2h0a39.37,39.37,0,0,1-5.5-11.8,35.38,35.38,0,0,1-1.6-12.1,35.29,35.29,0,0,1,2.3-11.5,23.37,23.37,0,0,1,5.1-7.9l3,3.5C1208.1,171.8,1209.1,173.1,1210.2,174.3Z" fill="#b5a1cd"/></svg>