<svg id="Word_art" data-name="Word art" xmlns="http://www.w3.org/2000/svg" viewBox="0 0 1332.44 1212.1"><title>2</title><path d="M1123.63,496.6c-9.4,4.7-17.4,8-23.8,9.8a78.18,78.18,0,0,1-20.9,2.8c-14.1,0-30.9-1.6-50.3-4.8s-39.4-6.8-59.8-10.8l-16.5-3a402.25,402.25,0,0,0,41.8-33.2,521.9,521.9,0,0,0,39.2-39.5,494.42,494.42,0,0,0,34.4-43,396.69,396.69,0,0,0,27.7-44.2,290.75,290.75,0,0,0,20-48.5,171.26,171.26,0,0,0,7.69-50.5,97.78,97.78,0,0,0-6.5-35.7,85.69,85.69,0,0,0-18.8-29.2,86.94,86.94,0,0,0-29.7-19.6c-11.6-4.7-24.6-7-39.19-7q-28.22,0-51.81,8.8t-40.3,23.4a104.68,104.68,0,0,0-25.9,33.4,88.46,88.46,0,0,0-9.1,39c0,14.1,3.41,24.3,10.3,30.7s17.2,11.1,30.9,14.1h2.91a86.54,86.54,0,0,1-5.6-16.8,87,87,0,0,1-1.5-17.3,147.46,147.46,0,0,1,5.3-40.2,95.61,95.61,0,0,1,15.6-32.2A74.4,74.4,0,0,1,985,161.7c10-5.2,21.5-7.8,34.41-7.8q27.14,0,44.8,16.8t17.7,54.6q0,33.15-14.41,70.4a399.56,399.56,0,0,1-37.4,72.7,508.84,508.84,0,0,1-50.9,66.1c-18.7,20.5-37,37.4-55.1,50.8-11.8-2-22.9-3.7-33.3-5a232.23,232.23,0,0,0-28.59-2q-23,0-33.6,6.3c-7.1,4.2-10.6,10.1-10.6,17.9,0,8,3.7,14.6,11.2,19.6s17.1,7.5,28.9,7.5a94.89,94.89,0,0,0,31.8-5.8,256.37,256.37,0,0,0,35.3-15.8c4.3,1.3,8.5,2.8,12.7,4.3s8.3,3.1,12.7,4.8c19.6,7,39.6,13.7,60.1,19.9s38.1,9.3,53,9.3c15.7,0,28.4-3.9,38-11.8C1111.23,526.2,1118.53,513.7,1123.63,496.6Zm-245.5,14.8c-7.5,2.8-14.3,4.3-20.6,4.3a30.7,30.7,0,0,1-14.7-3.5c-4.3-2.3-6.5-5.4-6.5-9.1,0-2.3,1.5-4.9,4.4-7.8s8.3-4.3,16.2-4.3a92,92,0,0,1,19.7,2.5c7.7,1.7,16,3.9,25,6.5A156.75,156.75,0,0,1,878.13,511.4Z" fill="#e65661"/><path d="M1204.83,158.4h0c-3.3-3.7-6.8-7.4-10.3-11l-.4-.4h0l-.5-.5-.5-.5h0l-.4-.4c-3.6-3.5-7.2-7-11-10.3h0l-.2-.2-6.3-5.4-2.4-2-3.1-2.5c-1.4-1.1-2.8-2.2-4.3-3.4l-.2-.1-1.3-1c-.81-.6-1.5-1.2-2.41-1.8-.59-.4-1.09-.8-1.59-1.2s-1-.7-1.5-1.1-1-.7-1.5-1.1c-.81-.6-1.6-1.1-2.41-1.7s-1.3-.9-2-1.4c-.9-.7-1.9-1.3-2.9-2l-.1-.1-.19-.1-3.31-2.1-.9-.6c-.69-.4-1.4-.9-2.1-1.3l-.9-.6-1.6-1a39,39,0,0,0-3.5-2.1c-1-.6-2.09-1.2-3.09-1.8-1.31-.7-2.5-1.5-3.81-2.2l-.8-.4h0l-2.6-1.5-1.9-1c-2.8-1.5-5.6-2.9-8.4-4.3l-2.2-1.1h0c-4.5-2.2-9.1-4.3-13.7-6.2l-1.8-.8h0l-.5-.2c-5.2-2.1-10.4-4.1-15.7-5.9l-.19-.1c-5.7-2-11.81-3.9-18.4-5.6l-3.2-.9-6.1-1.4c-.6-.1-1.2-.3-1.8-.4l-1.4-.3-2.31-.5c-1.4-.3-2.8-.7-4.3-.9h0c-1.3-.2-2.5-.4-3.8-.7-.3,0-.5-.1-.8-.1l-3.4-.6c-.2,0-.3-.1-.5-.1l-2.1-.4c-1.3-.3-2.7-.4-4-.6a25.12,25.12,0,0,1-2.7-.4c-2.2-.3-4.4-.6-6.6-.8l-.9-.1c-1.3-.2-2.7-.3-4-.4h-.4c-3.6-.3-7.2-.6-10.8-.8h-.4c-5-.3-10-.4-15-.4h-2.6c-5,0-10,.2-15,.4h-.4c-3.6.2-7.2.5-10.8.8h-.4c-1.4.1-2.7.3-4,.4l-.9.1c-2.2.3-4.4.5-6.7.8l-2.6.3c-1.3.2-2.7.3-4,.6l-2.1.4c-.2,0-.3.1-.5.1l-3.4.6c-.3,0-.5.1-.8.1l-1.6.3-2.1.4h-.1c-1.4.2-2.8.6-4.2.9l-2.2.5-1.3.3c-1,.2-2,.5-3,.7l-5.1,1.2-3.1.9c-6.6,1.8-12.7,3.6-18.4,5.6l-.2.1c-5.3,1.8-10.6,3.8-15.7,5.9l-.5.2h0l-1.8.8c-4.6,1.9-9.2,4-13.7,6.2h0l-2.3,1.2c-2.4,1.2-4.9,2.5-7.3,3.7l-.8.4-2.2,1.1-2.29,1.5h0l-.8.4c-1.3.7-2.5,1.5-3.8,2.2-1,.6-2,1.1-3,1.7-1.2.7-2.4,1.4-3.5,2.1l-1.6,1-.9.6c-.7.5-1.4.9-2.1,1.4l-.9.6c-1,.7-2.1,1.3-3.1,2l-.4.2c-.1.1-.2.1-.2.2-.9.6-1.8,1.2-2.7,1.9-.1,0-.1.1-.2.1-.6.4-1.2.9-1.8,1.3-.8.5-1.5,1.1-2.3,1.6a4.23,4.23,0,0,1-.7.5l-1.2.9a8.34,8.34,0,0,1-1.2.8c-1,.7-2,1.4-2.9,2.1l-1.1.8h-.1l-1.3,1-.1.1c-1.5,1.2-3,2.3-4.5,3.5l-3,2.4-2.4,2c-2.1,1.8-4.2,3.5-6.2,5.4l-.2.2h0c-3.7,3.3-7.4,6.8-11,10.3l-.4.4h0l-.6.6-.5.5h0l-.4.4c-3.5,3.6-7,7.2-10.3,11h0l-.2.2c-1.9,2.1-3.7,4.2-5.5,6.3l-2,2.3-2.4,3.1-3.5,4.4-.1.1c-.3.4-.7.9-1,1.3-.6.7-1.1,1.5-1.7,2.2-.4.6-.9,1.2-1.3,1.8s-.7,1-1.1,1.5-.7,1-1.1,1.5c-.6.8-1.1,1.6-1.7,2.4a24.26,24.26,0,0,0-1.4,2c-.7,1-1.4,2-2,3-.7,1.2-1.5,2.3-2.2,3.5l-.6.9c-.5.7-.9,1.4-1.4,2.2a8.79,8.79,0,0,0-.6,1l-1,1.5A40.5,40.5,0,0,0,739,203c-.6,1-1.2,2-1.8,3.1-.7,1.3-1.5,2.5-2.2,3.8l-.4.7h0l-1.5,2.6-1,1.9c-1.5,2.8-2.9,5.6-4.3,8.5l-1.1,2.1h0c-2.2,4.5-4.3,9.1-6.2,13.7l-.8,1.8h0l-.2.5c-2.1,5.2-4.1,10.5-5.9,15.8l-.1.2c-2,5.7-3.9,11.7-5.6,18.4l-.9,3.2-1.3,5.6a18.92,18.92,0,0,0-.5,2.3c-.1.5-.2.9-.3,1.4l-.5,2.3c-.3,1.4-.7,2.8-.9,4.2h0c-.2,1.3-.4,2.5-.7,3.8,0,.3-.1.5-.1.8l-.6,3.3c0,.2-.1.4-.1.6l-.4,2c-.3,1.3-.4,2.7-.6,4a25.12,25.12,0,0,1-.4,2.7c-.3,2.2-.6,4.4-.8,6.6l-.1.9c-.2,1.3-.3,2.7-.4,4v.4c-.3,3.6-.6,7.2-.8,10.8v.4h0c-.3,5-.4,10-.4,15v.5h0v1.6h0v.5c0,5,.2,10,.4,15h0v.4c.2,3.6.5,7.2.8,10.8v.4c.1,1.4.3,2.7.4,4l.1.9c.3,2.2.5,4.4.8,6.7.1.9.2,1.7.3,2.6.2,1.3.3,2.7.6,4l.4,2.1c0,.2.1.4.1.6l.6,3.3c.1.3.1.6.2.9.2,1.2.4,2.4.7,3.7h0v.1h0a27.13,27.13,0,0,0,.9,4.1l.5,2.3c.1.4.2.9.3,1.3.2,1,.5,2,.7,3l1.2,5.1.9,3.1c1.8,6.6,3.6,12.7,5.6,18.4l.1.2c1.8,5.3,3.8,10.6,5.9,15.8l.2.5h0l.8,1.8c1.9,4.6,4,9.2,6.2,13.7h0l1.1,2.1c1.4,2.9,2.9,5.8,4.4,8.7l.9,1.8,1.5,2.5h0l.4.8c.7,1.3,1.5,2.5,2.2,3.8.6,1,1.2,2,1.8,3.1s1.3,2.3,2.1,3.5l1,1.6.6.9c.4.7.9,1.4,1.4,2.1l.6.9c.7,1,1.3,2.1,2,3.2l.2.4c.1.1.1.2.2.2.6.9,1.2,1.8,1.9,2.7a24.26,24.26,0,0,1,1.4,2c.6.8,1.1,1.6,1.7,2.4a2.18,2.18,0,0,0,.4.5l.3.4c.1.2.3.4.4.6.4.5.7,1,1.1,1.5.7,1,1.4,1.9,2.1,2.9l.8,1.1.1.1c.3.4.7.9,1,1.3l.1.1c1.2,1.5,2.3,3,3.5,4.5l2.4,3,2.1,2.4c1.7,2.1,3.5,4.1,5.3,6.1l.3.3h0c3.3,3.8,6.8,7.4,10.3,11l.4.4h0l.5.5.5.5h0l.4.4c3.6,3.5,7.2,7,11,10.3h0l.3.3c2,1.8,4.1,3.6,6.2,5.4l2.4,2,3,2.4,4.4,3.5.1.1,1.3,1c.7.6,1.5,1.2,2.3,1.8.6.4,1.2.8,1.7,1.2s1,.7,1.5,1.1,1,.7,1.5,1c.8.6,1.6,1.1,2.4,1.7s1.3.9,2,1.4c1,.7,2,1.4,3,2,1.2.7,2.3,1.5,3.5,2.2l.9.6c.7.5,1.4.9,2.1,1.4l.9.6,1.6,1a40.5,40.5,0,0,0,3.5,2.1c1,.6,2.1,1.2,3.1,1.8,1.3.7,2.5,1.5,3.8,2.2l.8.4h0l2.6,1.5,1.9,1c2.8,1.5,5.7,3,8.5,4.4l2.1,1.1h0c4.5,2.2,9.1,4.3,13.7,6.2l1.8.8h0l.5.2c5.2,2.1,10.5,4.1,15.8,5.9l.2.1c5.7,2,11.8,3.9,18.4,5.6l3.2.9,5.7,1.3c.7.2,1.5.3,2.2.5l1.4.3,2.3.5c1.4.3,2.8.7,4.2.9h0c1.3.2,2.5.4,3.8.7.3,0,.5.1.8.1,1.1.2,2.2.4,3.4.6.2,0,.4.1.6.1l2,.4c1.3.3,2.7.4,4,.6l2.6.3c2.2.3,4.4.6,6.7.8l.9.1c1.3.2,2.7.3,4,.4h.4c3.6.3,7.3.6,10.9.8h.3c5,.3,10,.4,15,.4H990c5,0,10-.2,15-.4h.3c3.6-.2,7.3-.5,10.9-.8h.4c1.4-.1,2.7-.3,4-.4l.9-.1c2.2-.3,4.5-.5,6.7-.8l2.5-.3c1.3-.2,2.7-.3,4-.6l2.1-.4c.2,0,.4-.1.6-.1l3.4-.6c.3,0,.5-.1.8-.1,1.2-.2,2.4-.4,3.7-.7h.2a27.13,27.13,0,0,0,4.1-.9l2.3-.5,1.3-.3c1-.2,2-.5,3-.7l5.1-1.2,3.1-.9c6.6-1.8,12.7-3.6,18.4-5.6l.2-.1c5.3-1.8,10.6-3.8,15.8-5.9l.5-.2h0l1.8-.8c4.6-1.9,9.2-4,13.7-6.2h0l2.2-1.2c2.5-1.2,4.9-2.5,7.4-3.8l.7-.4,2.2-1.1,2.5-1.5h0l.8-.4c1.3-.7,2.5-1.4,3.8-2.2,1-.6,2.1-1.2,3.1-1.8,1.2-.7,2.3-1.4,3.5-2.1l1.6-1,.9-.6c.7-.4,1.4-.9,2.1-1.3l.9-.6c1.2-.7,2.3-1.5,3.5-2.2h0c1-.7,2-1.3,2.9-2a24.26,24.26,0,0,1,2-1.4c.8-.6,1.6-1.1,2.3-1.7.5-.4,1-.7,1.5-1.1s1-.7,1.5-1.1c1-.7,1.9-1.4,2.9-2.1l1.1-.9h0l1.3-1,.1-.1,4.5-3.6,3-2.4,2.4-2,6.3-5.4.2-.2h0c3.8-3.3,7.4-6.8,11-10.3l.4-.4h0l.5-.5.6-.6h0l.4-.4c3.5-3.6,7-7.2,10.3-11h0l.2-.2,5.4-6.3,2-2.4,2.5-3.1,3.4-4.3.1-.1,1-1.3c.6-.8,1.2-1.5,1.8-2.3.4-.6.8-1.1,1.2-1.7s.7-1,1.1-1.5c.1-.1.2-.3.3-.4l.4-.5c.1-.2.3-.4.4-.6.6-.8,1.1-1.5,1.7-2.3,1.1-1.6,2.3-3.2,3.4-4.9l.1-.1.1-.2,2.1-3.3.6-.9c.4-.7.9-1.4,1.3-2.1l.6-.9,1-1.6a40.5,40.5,0,0,0,2.1-3.5c.6-1,1.2-2.1,1.8-3.1.7-1.3,1.5-2.5,2.2-3.8l.4-.8h0l1.5-2.6,1-1.9c1.5-2.8,2.9-5.6,4.3-8.4l1.1-2.1h0c2.2-4.5,4.3-9.1,6.2-13.7l.8-1.8h0l.2-.5c2.1-5.2,4.1-10.4,5.9-15.7l.1-.2c2-5.7,3.9-11.8,5.6-18.4l.9-3.2,1.4-6c.1-.6.3-1.3.4-1.9s.2-.9.3-1.4l.5-2.3c.3-1.4.7-2.8.9-4.3h0c.2-1.3.4-2.5.7-3.8,0-.3.1-.5.1-.8.2-1.1.4-2.3.6-3.4,0-.2.1-.3.1-.5l.4-2.1c.3-1.3.4-2.7.6-4a25.12,25.12,0,0,1,.4-2.7c.3-2.2.6-4.4.8-6.6l.1-.9c.2-1.3.3-2.7.4-4v-.4c.3-3.6.6-7.2.8-10.8v-.4h0c.3-5,.4-10,.4-15v-.5h0V351h0v-.5c0-5-.2-10-.4-15h0v-.4c-.2-3.6-.5-7.2-.8-10.8v-.4c-.1-1.4-.3-2.7-.4-4l-.1-.9c-.3-2.2-.5-4.4-.8-6.6-.1-.9-.2-1.7-.3-2.6-.2-1.3-.3-2.7-.6-4l-.4-2.2a.6.6,0,0,0-.1-.4c-.2-1.2-.4-2.4-.6-3.5,0-.2-.1-.5-.1-.7-.1-.5-.2-1.1-.3-1.6l-.4-2.1v-.1h0c-.2-1.4-.6-2.8-.9-4.2l-.5-2.2c-.1-.5-.2-.9-.3-1.4-.2-1-.4-1.9-.7-2.9l-1.2-5.2-.9-3.1c-1.8-6.6-3.6-12.7-5.6-18.4l-.1-.2c-1.8-5.3-3.8-10.6-5.9-15.7l-.2-.5h0l-.8-1.8c-1.9-4.6-4-9.2-6.2-13.7h0l-1.2-2.3c-1.2-2.4-2.4-4.8-3.7-7.2l-.4-.8-1.1-2.2-1.5-2.5h0l-.4-.8c-.7-1.3-1.5-2.6-2.2-3.8-.6-1-1.1-2-1.7-3-.7-1.2-1.4-2.4-2.1-3.5l-1.1-1.7a4.05,4.05,0,0,1-.5-.9c-.4-.7-.9-1.4-1.4-2.1l-.6-.9c-.7-1.2-1.5-2.3-2.2-3.5h0c-.7-1-1.3-2-2-2.9-.5-.7-.9-1.3-1.4-2a19.52,19.52,0,0,0-1.7-2.3c-.4-.5-.7-1-1.1-1.5s-.7-1-1.1-1.5c-.7-1-1.4-1.9-2.1-2.9l-.8-1-.1-.1c-.3-.4-.7-.9-1-1.3l-.1-.1c-1.2-1.5-2.3-3-3.5-4.4l-2.4-3-2-2.4c-1.8-2.1-3.5-4.2-5.3-6.2Zm-73.6-54.7,1.7,1c2.6,1.6,5.3,3.1,7.9,4.8l3.1,2q4.2,2.7,8.4,5.7c.3.2.7.5,1,.7.5.4,1,.7,1.5,1.1,2.7,1.9,5.3,3.9,7.9,5.8l.3.2a14.68,14.68,0,0,1-9.4,3.6,21.59,21.59,0,0,1-13.4-3.9h0a21.07,21.07,0,0,1-5.4-4.9,18.08,18.08,0,0,1-1.9-2.9,29.17,29.17,0,0,1-1.4-3.1A14.15,14.15,0,0,1,1131.23,103.7Zm-14.9-8,6.2,3.2c1.7.9,3.5,1.9,5.2,2.8a18.22,18.22,0,0,0,0,13.4,30.06,30.06,0,0,0,1.7,3.6,25.42,25.42,0,0,0,8.7,9.3,25.86,25.86,0,0,0,14.4,4.6h1.5a18.61,18.61,0,0,0,12.4-5.1l2.2,1.8c1.4,1.1,2.7,2.2,4.1,3.4l3.6,3.1a26.18,26.18,0,0,1-13.4,6.7,43.18,43.18,0,0,1-5.91.6,34,34,0,0,1-12.19-1.7,36.6,36.6,0,0,1-11.7-5.5h0a34.18,34.18,0,0,1-5.2-4,58.93,58.93,0,0,1-4.2-4.5l-.2-.2a36.34,36.34,0,0,1-6.1-10.7C1114.13,109.2,1113.93,101.9,1116.33,95.7ZM1101,88.5c3.9,1.7,7.8,3.5,11.7,5.3-2.9,7.3-2.8,15.7.4,23.9a38.33,38.33,0,0,0,6.8,11.8l.2.2a50.28,50.28,0,0,0,4.5,4.8,48.17,48.17,0,0,0,18.7,10.5,40.58,40.58,0,0,0,12,1.8h1.5a49.73,49.73,0,0,0,6.5-.7,32.83,32.83,0,0,0,6.3-1.9,30.51,30.51,0,0,0,9.4-6.1c3.2,2.9,6.3,5.8,9.4,8.8a39.67,39.67,0,0,1-12.8,7.5,54.72,54.72,0,0,1-8.2,2.1c-1.4.2-2.8.4-4.3.5s-2.9.2-4.4.2a63.6,63.6,0,0,1-8.7-.6l-1.5-.3-.7-.1c-.7-.1-1.5-.3-2.2-.4-1.5-.3-2.9-.7-4.3-1.1a72.11,72.11,0,0,1-8.4-3.2,60.16,60.16,0,0,1-8-4.6h0a38.94,38.94,0,0,1-7.1-5.6l-1.4-1.4a17,17,0,0,1-1.9-1.9c-1-1.1-2-2.2-2.9-3.3a33.2,33.2,0,0,1-2.6-3.6c-1-1.4-1.7-2.5-2.4-3.6a46.82,46.82,0,0,1-3.8-7.8l-.1-.2c-.5-1.3-1-2.6-1.4-3.9s-.8-2.7-1.2-4.1a40.52,40.52,0,0,1-1.2-8.4A39.48,39.48,0,0,1,1101,88.5Zm-72.7-20.2c2.6.4,5.2.8,7.9,1.2l4.6.8,9.2,1.8c.6.1,1.1.3,1.7.4l.4.1c1.5.3,3,.7,4.4,1l1.2.3c1.7.4,3.5.9,5.2,1.3a15,15,0,0,1-7.31,6.9,20.28,20.28,0,0,1-6.5,1.9,21.63,21.63,0,0,1-3.6.1c-1.3-.1-2.69-.3-3.8-.5a22,22,0,0,1-6.9-2.5,18.72,18.72,0,0,1-2.9-2,26.14,26.14,0,0,1-2.5-2.3,14.85,14.85,0,0,1-4.1-9.2Zm-13-1.5c1.7.2,3.5.3,5.2.5l.8.1a18.66,18.66,0,0,0,5.1,12.4,35.76,35.76,0,0,0,2.9,2.7,26.16,26.16,0,0,0,3.4,2.4,25.87,25.87,0,0,0,8.2,2.9h0c1.3.2,2.7.4,4.3.5h1.4a28.25,28.25,0,0,0,2.9-.2,22.76,22.76,0,0,0,7.8-2.3,18,18,0,0,0,9.4-9.4c4.1,1.2,8.2,2.4,12.3,3.8a23.45,23.45,0,0,1-5.4,7.7,32.25,32.25,0,0,1-9.7,6.5,39.25,39.25,0,0,1-11.9,3.2,34.32,34.32,0,0,1-6.4.3,31.63,31.63,0,0,1-3.2-.3c-.5-.1-1.1-.2-1.7-.3h-.1a7.77,7.77,0,0,0-1.6-.2h0a46.37,46.37,0,0,1-6.4-1.7,49.42,49.42,0,0,1-5.7-2.6l-.2-.1a37.08,37.08,0,0,1-9.8-7.5c-5.4-5.5-8.3-12.1-8.5-18.8Zm-10.8-.8c.1,7.9,3.4,15.6,9.6,21.9a39.46,39.46,0,0,0,10.8,8.3l.2.1a56.67,56.67,0,0,0,6.1,2.8,41.18,41.18,0,0,0,7.1,1.9l1.69.3h0l1.81.3a21.77,21.77,0,0,0,3.6.3h1.9a45.16,45.16,0,0,0,5.19-.3,41.35,41.35,0,0,0,13.1-3.5,40.67,40.67,0,0,0,10.9-7.3,30.22,30.22,0,0,0,6.41-9.3q6.13,2.1,12,4.5a38.65,38.65,0,0,1-9,11.8,37.31,37.31,0,0,1-6.81,5c-1.4.8-2.6,1.5-3.8,2.2s-2.6,1.3-3.9,1.9a57.5,57.5,0,0,1-8.3,2.7,62.17,62.17,0,0,1-8.7,1.6c-1.5.1-2.9.2-4.5.2-1.2,0-2.9.1-4.5,0s-3-.2-4.5-.4c-.9-.1-1.7-.3-2.6-.4l-2-.3a43.11,43.11,0,0,1-8.7-2.4,14.58,14.58,0,0,0-1.9-.7,24.43,24.43,0,0,1-2.4-1c-1.3-.6-2.7-1.2-4-1.9s-2.5-1.5-3.8-2.3l-.8-.5c-1-.6-1.9-1.3-2.8-1.9a50.07,50.07,0,0,1-6.5-5.7,56.52,56.52,0,0,1-5.6-6.6,45,45,0,0,1-4.3-7.3,40,40,0,0,1-3.8-14.4C996,65.6,1000.23,65.7,1004.53,66Zm-85.3,8c.3-.1.7-.2,1-.3,1.4-.4,2.9-.7,4.3-1l.9-.2,1.3-.3c3.1-.7,6.2-1.3,9.3-1.9l4.6-.8,7.8-1.2,2.9-.4a14.77,14.77,0,0,1-4.1,9.2,27.25,27.25,0,0,1-2.5,2.3,29.77,29.77,0,0,1-2.9,2,22.74,22.74,0,0,1-6.9,2.5c-1.2.2-2.5.4-3.8.5a20.8,20.8,0,0,1-10.2-2,15,15,0,0,1-7.3-6.9C915.73,74.9,917.43,74.5,919.23,74Zm-9.1,2.5a18.7,18.7,0,0,0,9.4,9.4,23.43,23.43,0,0,0,7.8,2.3,28.25,28.25,0,0,0,2.9.2h1.4c1.5-.1,3-.3,4.2-.5h0A26.76,26.76,0,0,0,944,85a20.76,20.76,0,0,0,3.4-2.4,18.23,18.23,0,0,0,2.9-2.7,18.47,18.47,0,0,0,5.1-12.4l.8-.1c1.7-.2,3.5-.4,5.2-.5l6.8-.5c-.2,6.7-3.1,13.3-8.5,18.9a35.1,35.1,0,0,1-9.7,7.5l-.2.1c-1.9.9-3.8,1.9-5.7,2.6a33.45,33.45,0,0,1-6.4,1.7h0a7.77,7.77,0,0,1-1.6.2h-.2l-1.6.3-3.2.3a34.32,34.32,0,0,1-6.4-.3,35.3,35.3,0,0,1-11.8-3.2,34.32,34.32,0,0,1-9.8-6.6,26.86,26.86,0,0,1-5.4-7.7C901.83,78.9,905.93,77.6,910.13,76.5Zm-16.2,5a28.72,28.72,0,0,0,6.4,9.3,39.14,39.14,0,0,0,10.9,7.3,41.42,41.42,0,0,0,13.1,3.5,45.33,45.33,0,0,0,5.2.3h1.9l3.6-.3c.6-.1,1.2-.2,1.7-.3h.1l1.7-.3a40.08,40.08,0,0,0,7-1.9,49,49,0,0,0,6.1-2.8l.2-.1a39.46,39.46,0,0,0,10.8-8.3c6.2-6.4,9.5-14.1,9.6-21.9,4.3-.2,8.6-.4,12.8-.4a38.09,38.09,0,0,1-3.8,14.4,45,45,0,0,1-4.3,7.3,66.18,66.18,0,0,1-5.6,6.6,45,45,0,0,1-6.6,5.7,27.5,27.5,0,0,1-2.8,1.9l-.8.5c-1.2.8-2.5,1.6-3.8,2.3s-2.6,1.4-4,2c-.8.3-1.5.6-2.4.9-.6.2-1.3.5-1.9.7a44,44,0,0,1-8.8,2.4l-2,.3a25.12,25.12,0,0,1-2.7.4c-1.5.2-3,.3-4.5.4s-3.3,0-4.6,0-2.9-.1-4.4-.2a64.91,64.91,0,0,1-8.7-1.6,60.49,60.49,0,0,1-8.2-2.7c-1.3-.6-2.6-1.2-3.9-1.9s-2.4-1.3-3.8-2.1a56.7,56.7,0,0,1-6.8-5,38.65,38.65,0,0,1-9-11.8Zm-79.8,43.2c2.6-2,5.3-4,7.9-5.9.5-.4,1-.7,1.5-1.1.3-.2.7-.5,1-.7l8.4-5.7,3.1-2c2.6-1.6,5.3-3.3,7.9-4.8l1.6-.9a15,15,0,0,1-.2,10c-.4,1-.9,2-1.4,3.1a18.08,18.08,0,0,1-1.9,2.9,21.07,21.07,0,0,1-5.4,4.9h0a21.69,21.69,0,0,1-13.5,3.9,13.9,13.9,0,0,1-9.3-3.6Zm-9.8,7.9,3.8-3.2,2.6-2a18.16,18.16,0,0,0,12.3,5.1c.5,0,1,.1,1.5.1a25.86,25.86,0,0,0,14.4-4.6,25.33,25.33,0,0,0,6.4-5.8,26.37,26.37,0,0,0,2.3-3.5,19.64,19.64,0,0,0,1.6-3.6,18.22,18.22,0,0,0,0-13.4c1.7-.9,3.4-1.9,5.1-2.8l6.3-3.2c2.4,6.3,2.2,13.5-.6,20.7a34.59,34.59,0,0,1-6.1,10.6l-.2.2a58.93,58.93,0,0,1-4.2,4.5,40,40,0,0,1-5.2,4h0a39.37,39.37,0,0,1-11.8,5.5,35.38,35.38,0,0,1-12.1,1.6,35.29,35.29,0,0,1-11.5-2.3,23.37,23.37,0,0,1-7.9-5.1Zm-6.5,5.7a27.27,27.27,0,0,0,9.4,6.1,41.9,41.9,0,0,0,6.3,1.9,38.15,38.15,0,0,0,6.6.7h1.5a39.92,39.92,0,0,0,11.9-1.8,44.73,44.73,0,0,0,13-6,31.4,31.4,0,0,0,5.7-4.5,41.48,41.48,0,0,0,4.5-4.9l.2-.3a42.83,42.83,0,0,0,6.8-11.8c3.2-8.3,3.4-16.7.5-24,3.9-1.9,7.8-3.7,11.7-5.3a37.46,37.46,0,0,1,2,14.7,40.52,40.52,0,0,1-1.2,8.4,27.69,27.69,0,0,1-1.2,4.1c-.4,1.3-.9,2.6-1.4,4v.1a56.77,56.77,0,0,1-3.9,7.8c-.7,1.1-1.4,2.3-2.4,3.7-.8,1.2-1.7,2.4-2.6,3.6a31.09,31.09,0,0,1-2.9,3.3c-.6.6-1.2,1.2-1.9,1.8-.5.4-.9.9-1.4,1.3a43.44,43.44,0,0,1-7.2,5.6h0a48.81,48.81,0,0,1-7.9,4.5,71.57,71.57,0,0,1-8.41,3.2c-1.4.4-2.79.8-4.29,1.1-.71.1-1.41.3-2.21.4l-.7.1-1.5.3a49,49,0,0,1-8.59.6c-1.41,0-2.91-.1-4.41-.2s-2.9-.3-4.2-.5a54.72,54.72,0,0,1-8.2-2.1,38.63,38.63,0,0,1-12.8-7.5C791.43,144.1,794.63,141.1,797.83,138.3Zm-56.5,69c1.5-2.6,3.1-5.3,4.8-7.8l2-3.1c1.8-2.8,3.7-5.6,5.6-8.4.1-.1.2-.3.3-.4.5-.7,1-1.5,1.6-2.2,1.9-2.7,3.8-5.3,5.8-7.9l.2-.3a14.68,14.68,0,0,1,3.6,9.4,21.59,21.59,0,0,1-3.9,13.4h0a21.07,21.07,0,0,1-4.9,5.4,18.62,18.62,0,0,1-2.91,1.9,29.94,29.94,0,0,1-3.09,1.4,14.38,14.38,0,0,1-10,.2Zm-5.8,10.4c.9-1.7,1.9-3.4,2.8-5.2a17.52,17.52,0,0,0,6.5,1.3,19.13,19.13,0,0,0,6.9-1.3,30.06,30.06,0,0,0,3.6-1.7,26.37,26.37,0,0,0,3.5-2.3,25.33,25.33,0,0,0,5.8-6.4,25,25,0,0,0,4.5-15.8,18.61,18.61,0,0,0-5.1-12.4l1.8-2.3c1.1-1.4,2.2-2.7,3.3-4l3.1-3.6a26.85,26.85,0,0,1,5.1,7.9,24.94,24.94,0,0,1,1.6,5.5,43.19,43.19,0,0,1,.6,5.9,34,34,0,0,1-1.7,12.2,36.6,36.6,0,0,1-5.5,11.7h0a34.18,34.18,0,0,1-4,5.2,58.93,58.93,0,0,1-4.5,4.2l-.2.2a36.34,36.34,0,0,1-10.7,6.1c-7.2,2.8-14.41,3-20.7.6Zm-5,9.8a29.47,29.47,0,0,0,11,2.1,35.17,35.17,0,0,0,12.9-2.5,38.33,38.33,0,0,0,11.8-6.8l.2-.2c1.6-1.4,3.3-2.9,4.9-4.5a36,36,0,0,0,4.5-5.8,42.86,42.86,0,0,0,6-12.9,38.65,38.65,0,0,0,1.8-13.5,38,38,0,0,0-.7-6.5,32.83,32.83,0,0,0-1.9-6.3,30.51,30.51,0,0,0-6.1-9.4c2.9-3.2,5.8-6.3,8.8-9.4a39.67,39.67,0,0,1,7.5,12.8,54.72,54.72,0,0,1,2.1,8.2c.2,1.4.4,2.8.5,4.3s.2,2.9.2,4.4a63.6,63.6,0,0,1-.6,8.7l-.3,1.5-.1.7c-.1.7-.3,1.4-.4,2.2-.3,1.4-.7,2.9-1.1,4.3a72.11,72.11,0,0,1-3.2,8.4,60.16,60.16,0,0,1-4.6,8h0a38.94,38.94,0,0,1-5.6,7.1l-1.4,1.4a17,17,0,0,1-1.9,1.9c-1,1-2.2,2-3.3,2.9a33.2,33.2,0,0,1-3.6,2.6c-1.4,1-2.5,1.7-3.6,2.4a46.82,46.82,0,0,1-7.8,3.8l-.2.1c-1.3.5-2.6,1-3.9,1.4l-4.1,1.2a40.52,40.52,0,0,1-8.4,1.2,39.11,39.11,0,0,1-14.7-2C726.93,235.2,728.73,231.3,730.53,227.5ZM705,312c.4-2.7.8-5.3,1.2-8l.8-4.4c.6-3.1,1.2-6.3,1.9-9.4a9.36,9.36,0,0,1,.4-1.6l.1-.4c.3-1.5.7-3.1,1.1-4.6.1-.4.2-.7.3-1.1.4-1.7.9-3.5,1.4-5.2a15,15,0,0,1,6.9,7.3,20.36,20.36,0,0,1,1.9,6.5,21.66,21.66,0,0,1,.1,3.6,32.2,32.2,0,0,1-.5,3.8,22,22,0,0,1-2.5,6.9,18.72,18.72,0,0,1-2,2.9,26.14,26.14,0,0,1-2.3,2.5,14.85,14.85,0,0,1-9.2,4.1Zm-1.5,12.8c.2-1.7.3-3.5.5-5.2l.1-.8a18.66,18.66,0,0,0,12.4-5.1,35.76,35.76,0,0,0,2.7-2.9,26.16,26.16,0,0,0,2.4-3.4,25.87,25.87,0,0,0,2.9-8.2h0a42.76,42.76,0,0,0,.5-4.3,30.88,30.88,0,0,0-.1-4.3,22.76,22.76,0,0,0-2.3-7.8,18,18,0,0,0-9.4-9.4c1.2-4.1,2.4-8.2,3.8-12.3a23.45,23.45,0,0,1,7.7,5.4,32.25,32.25,0,0,1,6.5,9.7,39.25,39.25,0,0,1,3.2,11.9,34.32,34.32,0,0,1,.3,6.4,31.63,31.63,0,0,1-.3,3.2c-.1.5-.2,1.1-.3,1.7v.2c-.1.5-.1,1-.2,1.5h0a46.37,46.37,0,0,1-1.7,6.4,49.42,49.42,0,0,1-2.6,5.7l-.1.2a37.08,37.08,0,0,1-7.5,9.8c-5.5,5.4-12.1,8.3-18.8,8.5Zm-.9,10.8c7.9-.1,15.6-3.5,21.9-9.6a39.46,39.46,0,0,0,8.3-10.8l.1-.2a49,49,0,0,0,2.8-6.1,42.62,42.62,0,0,0,1.9-7c.1-.5.2-1.1.3-1.6v-.1l.3-1.8a21.86,21.86,0,0,0,.3-3.6,42,42,0,0,0-11.1-31,30.36,30.36,0,0,0-9.3-6.4q2.1-6.15,4.5-12a38.65,38.65,0,0,1,11.8,9,37.24,37.24,0,0,1,5,6.8c.8,1.4,1.5,2.6,2.2,3.8s1.3,2.6,1.9,3.9a57.5,57.5,0,0,1,2.7,8.3,52.16,52.16,0,0,1,1.6,8.7c.1,1.5.2,2.9.2,4.5,0,1.2.1,2.9,0,4.5s-.2,3-.4,4.5c-.1.9-.3,1.7-.4,2.6-.1.7-.2,1.3-.3,2a50.83,50.83,0,0,1-2.4,8.7,14.58,14.58,0,0,0-.7,1.9,24.43,24.43,0,0,1-1,2.4c-.6,1.3-1.2,2.7-1.9,4s-1.5,2.6-2.3,3.8l-.5.8c-.6,1-1.3,1.9-1.9,2.8a50.07,50.07,0,0,1-5.7,6.5,56.52,56.52,0,0,1-6.6,5.6,45,45,0,0,1-7.3,4.3,40,40,0,0,1-14.4,3.8C702.33,344.2,702.43,339.9,702.63,335.6Zm8.1,85.3c-.1-.3-.1-.6-.2-.9-.4-1.5-.7-2.9-1-4.4l-.2-1-.3-1.2c-.7-3.1-1.3-6.3-1.9-9.4l-.8-4.5c-.4-2.6-.9-5.3-1.2-8l-.4-2.9a14.77,14.77,0,0,1,9.2,4.1,27.25,27.25,0,0,1,2.3,2.5,29.77,29.77,0,0,1,2,2.9,22.74,22.74,0,0,1,2.5,6.9c.2,1.1.4,2.5.5,3.8a20.8,20.8,0,0,1-2,10.2,15,15,0,0,1-6.9,7.3A40.81,40.81,0,0,1,710.73,420.9Zm2.4,9.2a18.7,18.7,0,0,0,9.4-9.4,23.43,23.43,0,0,0,2.3-7.8,20.45,20.45,0,0,0,.1-4.3,40.52,40.52,0,0,0-.5-4.2h0a26.76,26.76,0,0,0-2.9-8.2,20.76,20.76,0,0,0-2.4-3.4,18.23,18.23,0,0,0-2.7-2.9,18.47,18.47,0,0,0-12.4-5.1l-.1-.8c-.2-1.7-.4-3.5-.5-5.2l-.5-6.8c6.7.2,13.3,3.1,18.9,8.5a35.1,35.1,0,0,1,7.5,9.7l.1.2a58.59,58.59,0,0,1,2.6,5.7,35.53,35.53,0,0,1,1.7,6.4h0a7.72,7.72,0,0,1,.2,1.5v.3c.1.5.2,1.1.3,1.6.1,1.1.2,2.2.3,3.2a34.32,34.32,0,0,1-.3,6.4,35.3,35.3,0,0,1-3.2,11.8,34.32,34.32,0,0,1-6.6,9.8,26.86,26.86,0,0,1-7.7,5.4C715.63,438.3,714.33,434.2,713.13,430.1Zm5.1,16.1a28.72,28.72,0,0,0,9.3-6.4,39.14,39.14,0,0,0,7.3-10.9,47.34,47.34,0,0,0,3.8-20.2l-.3-3.6c-.1-.6-.2-1.2-.3-1.7v-.2c-.1-.5-.2-1.1-.3-1.6a40.08,40.08,0,0,0-1.9-7,49,49,0,0,0-2.8-6.1l-.1-.2a39.46,39.46,0,0,0-8.3-10.8c-6.4-6.2-14.1-9.6-21.9-9.6-.2-4.3-.4-8.6-.4-12.8a38.09,38.09,0,0,1,14.4,3.8,45,45,0,0,1,7.3,4.3,66.18,66.18,0,0,1,6.6,5.6,45,45,0,0,1,5.7,6.6,27.5,27.5,0,0,1,1.9,2.8l.5.8c.8,1.2,1.6,2.5,2.3,3.8s1.4,2.6,2,4c.3.8.6,1.5.9,2.4.2.6.5,1.3.7,1.9a44,44,0,0,1,2.4,8.8c.1.7.2,1.4.3,2a25.12,25.12,0,0,1,.4,2.7c.2,1.5.3,3,.4,4.5s0,3.3,0,4.6-.1,2.9-.2,4.4a64.91,64.91,0,0,1-1.6,8.7,60.49,60.49,0,0,1-2.7,8.2c-.6,1.3-1.2,2.6-1.9,3.9s-1.3,2.4-2.1,3.8a56.7,56.7,0,0,1-5,6.8,38.65,38.65,0,0,1-11.8,9C721.13,454.3,719.63,450.3,718.23,446.2Zm43.4,80.1-.2-.3c-2-2.6-3.9-5.2-5.8-7.9-.4-.5-.7-1-1.1-1.6-.1-.2-.3-.4-.4-.6h0c-.1-.1-.2-.3-.3-.4-1.9-2.8-3.8-5.6-5.6-8.4l-2-3.1c-1.6-2.6-3.2-5.2-4.8-7.9l-.9-1.6a15,15,0,0,1,10,.2c1,.4,2.1.9,3.1,1.4a18.08,18.08,0,0,1,2.9,1.9,21.07,21.07,0,0,1,4.9,5.4h0a21.69,21.69,0,0,1,3.9,13.5A15.31,15.31,0,0,1,761.63,526.3Zm7.7,9.6c-1.1-1.3-2.2-2.6-3.2-3.9l-2-2.5a18.16,18.16,0,0,0,5.1-12.3,25.76,25.76,0,0,0-4.5-15.9,25.33,25.33,0,0,0-5.8-6.4,26.37,26.37,0,0,0-3.5-2.3,19.64,19.64,0,0,0-3.6-1.6,18.22,18.22,0,0,0-13.4,0c-.9-1.7-1.9-3.4-2.8-5.1l-3.2-6.3c6.3-2.4,13.5-2.2,20.7.6a34.59,34.59,0,0,1,10.6,6.1l.2.2c1.5,1.3,3.1,2.7,4.6,4.2a40,40,0,0,1,4,5.2h0a39.37,39.37,0,0,1,5.5,11.8,35.38,35.38,0,0,1,1.6,12.1,35.29,35.29,0,0,1-2.3,11.5,23.37,23.37,0,0,1-5.1,7.9Zm14.4,15.9c-3-3.1-5.9-6.2-8.8-9.4A27.27,27.27,0,0,0,781,533a41.9,41.9,0,0,0,1.9-6.3,42.27,42.27,0,0,0-1.1-20,44.73,44.73,0,0,0-6-13,31.4,31.4,0,0,0-4.5-5.7,51.16,51.16,0,0,0-4.9-4.5l-.3-.2a42.83,42.83,0,0,0-11.8-6.8c-8.3-3.2-16.7-3.4-24-.5-1.9-3.9-3.7-7.8-5.3-11.7a37.46,37.46,0,0,1,14.7-2,40.52,40.52,0,0,1,8.4,1.2,27.69,27.69,0,0,1,4.1,1.2c1.3.4,2.6.9,4,1.4h.1a56.77,56.77,0,0,1,7.8,3.9c1.1.7,2.3,1.4,3.7,2.4,1.2.8,2.4,1.7,3.6,2.6a31.09,31.09,0,0,1,3.3,2.9c.6.6,1.2,1.2,1.8,1.9.4.5.9.9,1.3,1.4a43.44,43.44,0,0,1,5.6,7.2h0a48.81,48.81,0,0,1,4.5,7.9,72.11,72.11,0,0,1,3.2,8.4c.4,1.4.8,2.8,1.1,4.3.1.7.3,1.4.4,2.2l.1.7.3,1.5a49.08,49.08,0,0,1,.6,8.6c0,1.4-.1,2.9-.2,4.4s-.3,2.9-.5,4.2a54.72,54.72,0,0,1-2.1,8.2A31.08,31.08,0,0,1,783.73,551.8Zm62,48-1.6-.9c-2.7-1.6-5.3-3.2-8-4.8l-3.1-2c-2.8-1.8-5.7-3.7-8.4-5.7-.1,0-.1-.1-.2-.1l-.9-.6a2.18,2.18,0,0,1-.5-.4c-.3-.2-.7-.5-1-.7-2.7-1.9-5.3-3.9-7.9-5.9l-.3-.2a14.68,14.68,0,0,1,9.4-3.6,21.59,21.59,0,0,1,13.4,3.9h0a21.07,21.07,0,0,1,5.4,4.9,18.08,18.08,0,0,1,1.9,2.9,29.17,29.17,0,0,1,1.4,3.1A14.19,14.19,0,0,1,845.73,599.8Zm14.8,8-6.2-3.2c-1.7-.9-3.4-1.9-5.2-2.8a18.22,18.22,0,0,0,0-13.4,30.06,30.06,0,0,0-1.7-3.6,19.18,19.18,0,0,0-2.3-3.5,25.33,25.33,0,0,0-6.4-5.8,25,25,0,0,0-15.8-4.5,18.61,18.61,0,0,0-12.4,5.1l-2.3-1.8c-1.4-1.1-2.7-2.2-4-3.3l-3.6-3.1a26.85,26.85,0,0,1,7.9-5.1,24.94,24.94,0,0,1,5.5-1.6,43.19,43.19,0,0,1,5.9-.6,34,34,0,0,1,12.2,1.7,36.6,36.6,0,0,1,11.7,5.5h0a34.18,34.18,0,0,1,5.2,4,58.93,58.93,0,0,1,4.2,4.5l.2.2a36.34,36.34,0,0,1,6.1,10.7A26.11,26.11,0,0,1,860.53,607.8Zm15.3,7.2c-3.9-1.7-7.8-3.5-11.7-5.3,2.9-7.3,2.8-15.7-.4-23.9a38.33,38.33,0,0,0-6.8-11.8l-.2-.2c-1.4-1.6-2.9-3.3-4.5-4.9a48.17,48.17,0,0,0-18.7-10.5,38.65,38.65,0,0,0-13.5-1.8,38,38,0,0,0-6.5.7,32.83,32.83,0,0,0-6.3,1.9,30.51,30.51,0,0,0-9.4,6.1c-3.2-2.9-6.3-5.8-9.4-8.8a39.67,39.67,0,0,1,12.8-7.5,54.72,54.72,0,0,1,8.2-2.1c1.3-.2,2.8-.4,4.3-.5s2.9-.2,4.4-.2a63.6,63.6,0,0,1,8.7.6l1.5.3.7.1c.7.1,1.4.3,2.2.4,1.4.3,2.9.7,4.3,1.1a72.11,72.11,0,0,1,8.4,3.2,60.16,60.16,0,0,1,8,4.6h0a38.94,38.94,0,0,1,7.1,5.6l1.4,1.4c.7.6,1.3,1.2,1.9,1.8,1,1,2,2.2,2.9,3.3a33.2,33.2,0,0,1,2.6,3.6c1,1.4,1.7,2.5,2.4,3.6a46.82,46.82,0,0,1,3.8,7.8l.1.1c.5,1.4,1,2.7,1.4,4s.8,2.7,1.2,4.1a40.52,40.52,0,0,1,1.2,8.4A39.94,39.94,0,0,1,875.83,615Zm72.8,20.2c-2.6-.4-5.2-.8-7.9-1.2l-4.5-.8c-3.1-.6-6.2-1.2-9.3-1.9a9.36,9.36,0,0,1-1.6-.4l-.6-.1c-1.5-.3-2.9-.7-4.4-1l-1.2-.3c-1.7-.4-3.5-.9-5.2-1.3a15,15,0,0,1,7.3-6.9,20.36,20.36,0,0,1,6.5-1.9,21.66,21.66,0,0,1,3.6-.1,32.2,32.2,0,0,1,3.8.5,22,22,0,0,1,6.9,2.5,18.72,18.72,0,0,1,2.9,2,26.14,26.14,0,0,1,2.5,2.3,14.85,14.85,0,0,1,4.1,9.2Zm12.9,1.5c-1.7-.2-3.4-.3-5.1-.5l-.8-.1a18.66,18.66,0,0,0-5.1-12.4,35.76,35.76,0,0,0-2.9-2.7,26.16,26.16,0,0,0-3.4-2.4,25.87,25.87,0,0,0-8.2-2.9h0a42.76,42.76,0,0,0-4.3-.5,30.88,30.88,0,0,0-4.3.1,22.76,22.76,0,0,0-7.8,2.3,18,18,0,0,0-9.4,9.4c-4.1-1.2-8.2-2.4-12.3-3.8a23.45,23.45,0,0,1,5.4-7.7A32.25,32.25,0,0,1,913,609a39.25,39.25,0,0,1,11.9-3.2,34.32,34.32,0,0,1,6.4-.3,31.63,31.63,0,0,1,3.2.3c.5.1,1.1.2,1.7.3h.2c.5.1,1,.1,1.5.2h0a46.37,46.37,0,0,1,6.4,1.7,49.42,49.42,0,0,1,5.7,2.6l.2.1a37.08,37.08,0,0,1,9.8,7.5c5.4,5.5,8.3,12.1,8.5,18.8Zm10.8.8c-.1-7.9-3.4-15.6-9.6-21.9a39.46,39.46,0,0,0-10.8-8.3l-.2-.1a56.67,56.67,0,0,0-6.1-2.8,41.18,41.18,0,0,0-7.1-1.9l-1.6-.3h-.1l-1.8-.3a21.86,21.86,0,0,0-3.6-.3,42,42,0,0,0-31,11.1A30.36,30.36,0,0,0,894,622q-6.15-2.1-12-4.5a38.65,38.65,0,0,1,9-11.8,37.24,37.24,0,0,1,6.8-5c1.4-.8,2.6-1.5,3.8-2.2s2.6-1.3,3.9-1.9a57.5,57.5,0,0,1,8.3-2.7,52.16,52.16,0,0,1,8.7-1.6c1.5-.1,2.9-.2,4.5-.2,1.2,0,2.9-.1,4.5,0s3,.2,4.5.4c.9.1,1.7.3,2.6.4l2,.3a50.83,50.83,0,0,1,8.7,2.4,14.58,14.58,0,0,0,1.9.7,24.43,24.43,0,0,1,2.4,1c1.3.6,2.7,1.2,4,1.9s2.6,1.5,3.8,2.3l.8.5a27.5,27.5,0,0,1,2.8,1.9,50.07,50.07,0,0,1,6.5,5.7,56.52,56.52,0,0,1,5.6,6.6,45,45,0,0,1,4.3,7.3,40,40,0,0,1,3.8,14.4C980.83,637.9,976.63,637.8,972.33,637.5Zm85.3-8a3.55,3.55,0,0,1-1,.2c-1.4.3-2.8.7-4.3,1l-1.1.3-1.2.3c-3.1.7-6.2,1.3-9.3,1.9l-4.6.8-7.9,1.2-2.9.4a14.77,14.77,0,0,1,4.1-9.2,27.25,27.25,0,0,1,2.5-2.3,29.77,29.77,0,0,1,2.9-2,22.74,22.74,0,0,1,6.9-2.5c1.1-.2,2.5-.4,3.8-.5a20.8,20.8,0,0,1,10.2,2,15,15,0,0,1,7.3,6.9C1061.13,628.6,1059.43,629,1057.63,629.5Zm9.2-2.5a18.7,18.7,0,0,0-9.4-9.4,23.43,23.43,0,0,0-7.8-2.3,20.45,20.45,0,0,0-4.3-.1,40.52,40.52,0,0,0-4.2.5h0a26.76,26.76,0,0,0-8.2,2.9,20.76,20.76,0,0,0-3.4,2.4,18.23,18.23,0,0,0-2.9,2.7,18.47,18.47,0,0,0-5.1,12.4l-.9.1c-1.7.2-3.4.4-5.1.5l-6.8.5c.2-6.7,3.1-13.3,8.5-18.9a35.1,35.1,0,0,1,9.7-7.5l.19-.1a50.21,50.21,0,0,1,5.7-2.6,33.45,33.45,0,0,1,6.4-1.7h0a7.72,7.72,0,0,1,1.5-.2h.2l1.6-.3,3.2-.3h1.7a35.93,35.93,0,0,1,4.7.3,35.3,35.3,0,0,1,11.8,3.2,34.32,34.32,0,0,1,9.8,6.6,26.86,26.86,0,0,1,5.4,7.7C1075,624.6,1070.93,625.9,1066.83,627Zm16.1-5a28.72,28.72,0,0,0-6.4-9.3,39.14,39.14,0,0,0-10.9-7.3,41.42,41.42,0,0,0-13.1-3.5,42.2,42.2,0,0,0-7.1-.3l-3.6.3c-.6.1-1.2.2-1.7.3h-.2l-1.6.3a40.08,40.08,0,0,0-7,1.9,49,49,0,0,0-6.1,2.8l-.3.1a39.46,39.46,0,0,0-10.8,8.3c-6.2,6.4-9.5,14.1-9.6,21.9-4.3.2-8.6.4-12.8.4a38.09,38.09,0,0,1,3.8-14.4,45,45,0,0,1,4.3-7.3,83.16,83.16,0,0,1,5.6-6.6,45,45,0,0,1,6.6-5.7,27.5,27.5,0,0,1,2.8-1.9l.8-.5c1.2-.8,2.5-1.6,3.8-2.3s2.6-1.4,4-2c.8-.3,1.5-.6,2.4-.9.6-.2,1.3-.5,1.8-.7a44,44,0,0,1,8.8-2.4l2-.3a25.12,25.12,0,0,1,2.7-.4c1.5-.2,3-.3,4.5-.4s3.3,0,4.6,0,2.9.1,4.4.2a64.91,64.91,0,0,1,8.7,1.6,60.49,60.49,0,0,1,8.2,2.7c1.3.6,2.7,1.2,3.9,1.9s2.4,1.3,3.8,2.1a56.7,56.7,0,0,1,6.8,5,38.65,38.65,0,0,1,9,11.8C1090.93,619,1086.93,620.5,1082.93,622Zm14.6-35.6c-.5,1.5-.9,3-1.3,4.4a47.44,47.44,0,0,0-1.3,9.2,43,43,0,0,0,.8,10.9,43.35,43.35,0,0,0-7.2-8.3,45.86,45.86,0,0,0-7.4-5.5c-1.4-.9-2.7-1.6-4-2.3s-2.8-1.4-4.2-2a60.34,60.34,0,0,0-8.8-2.9,59.51,59.51,0,0,0-9.3-1.7,37.74,37.74,0,0,0-4.7-.2,38.29,38.29,0,0,0-4.8,0c-1.6.1-3.31.2-4.9.4a23.43,23.43,0,0,0-2.81.5l-1.9.3h0a54.94,54.94,0,0,0-9.6,2.7c-.6.2-1.19.5-1.8.7a27.73,27.73,0,0,0-2.6,1,42.5,42.5,0,0,0-4.3,2.1c-1.4.8-2.8,1.6-4.1,2.5l-.8.5a27.3,27.3,0,0,0-3,2.1,51.71,51.71,0,0,0-7.1,6.2,64.93,64.93,0,0,0-6,7,53,53,0,0,0-4.7,7.9,40.83,40.83,0,0,0-3.4,10.4,45.17,45.17,0,0,0-3.4-10.4,53,53,0,0,0-4.7-7.9,64.93,64.93,0,0,0-6-7,50.92,50.92,0,0,0-7.1-6.1l-3-2.1-.8-.5c-1.3-.9-2.7-1.7-4.09-2.5a34.86,34.86,0,0,0-4.3-2.1c-.91-.4-1.8-.7-2.6-1a13.36,13.36,0,0,1-1.8-.7,53.9,53.9,0,0,0-9.5-2.7h0c-.7-.1-1.3-.2-1.9-.3-.9-.2-1.9-.3-2.8-.5a40.45,40.45,0,0,0-4.9-.4c-1.8-.1-3.5,0-4.8,0-1.6,0-3.2.1-4.7.2a56,56,0,0,0-9.2,1.7,53.34,53.34,0,0,0-8.8,2.9c-1.41.6-2.91,1.3-4.2,2s-2.5,1.4-4,2.3a57.55,57.55,0,0,0-7.41,5.5,43.35,43.35,0,0,0-7.2,8.3,43.46,43.46,0,0,0,.8-10.9,49.7,49.7,0,0,0-1.3-9.2,31.91,31.91,0,0,0-1.3-4.4c-.5-1.4-1-2.7-1.5-4.1l-.09-.2a74.32,74.32,0,0,0-4.1-8.4c-.7-1.2-1.5-2.4-2.5-3.8s-1.8-2.6-2.8-3.8-2.1-2.5-3.1-3.6l-2-2c-.4-.4-.9-.8-1.4-1.3a51.17,51.17,0,0,0-7.8-6.1,62.18,62.18,0,0,0-8.6-4.9,72.58,72.58,0,0,0-8.8-3.4c-1.5-.5-3.1-.8-4.6-1.2a22.31,22.31,0,0,0-2.3-.4l-.7-.1-1.6-.3a57.38,57.38,0,0,0-9.3-.7c-1.6,0-3.1.1-4.6.2s-3.1.3-4.6.5a50.47,50.47,0,0,0-8.9,2.3,44.9,44.9,0,0,0-9.8,4.9,44.9,44.9,0,0,0,4.9-9.8,55.42,55.42,0,0,0,2.3-8.9c.2-1.5.4-3,.5-4.5s.2-3.1.2-4.7a57.38,57.38,0,0,0-.7-9.3c-.1-.5-.2-1.1-.3-1.6l-.1-.6c-.1-.8-.3-1.6-.4-2.3a34.47,34.47,0,0,0-1.2-4.6,81,81,0,0,0-3.4-8.9,61.75,61.75,0,0,0-4.9-8.5,51.17,51.17,0,0,0-6.1-7.8l-1.3-1.3a18.88,18.88,0,0,0-2-2,37.28,37.28,0,0,0-3.6-3.2c-1.2-1-2.5-1.9-3.8-2.8l-3.9-2.6a59.85,59.85,0,0,0-8.4-4.2l-.1-.1c-1.4-.5-2.7-1-4.1-1.5s-2.9-.9-4.4-1.3a47.44,47.44,0,0,0-9.2-1.3,43.46,43.46,0,0,0-10.9.8,43.35,43.35,0,0,0,8.3-7.2,45.86,45.86,0,0,0,5.5-7.4c.9-1.4,1.6-2.7,2.3-4s1.4-2.8,2-4.2a60.34,60.34,0,0,0,2.9-8.8,59.51,59.51,0,0,0,1.7-9.3,37.74,37.74,0,0,0,.2-4.7,38.29,38.29,0,0,0,0-4.8c-.1-1.6-.2-3.3-.4-4.9a23.25,23.25,0,0,0-.5-2.8c-.1-.6-.2-1.3-.3-1.9h0a54.94,54.94,0,0,0-2.7-9.6c-.2-.6-.5-1.2-.7-1.8a27.73,27.73,0,0,0-1-2.6,42.5,42.5,0,0,0-2.1-4.3c-.8-1.4-1.6-2.8-2.5-4.1l-.5-.8a27.3,27.3,0,0,0-2.1-3,51.71,51.71,0,0,0-6.2-7.1,64.93,64.93,0,0,0-7-6,53,53,0,0,0-7.9-4.7,40.83,40.83,0,0,0-10.4-3.4,45.17,45.17,0,0,0,10.4-3.4,53,53,0,0,0,7.9-4.7,64.93,64.93,0,0,0,7-6,50.92,50.92,0,0,0,6.1-7.1l2.1-3,.5-.8c.9-1.3,1.7-2.7,2.5-4.1a34.18,34.18,0,0,0,2.1-4.3c.4-.9.7-1.8,1-2.6a13.36,13.36,0,0,1,.7-1.8,53.9,53.9,0,0,0,2.7-9.5h0c.1-.7.2-1.3.3-1.9.2-.9.3-1.9.5-2.8a38.86,38.86,0,0,0,.4-4.9c.1-1.8,0-3.5,0-4.8,0-1.6-.1-3.2-.2-4.7a56.4,56.4,0,0,0-1.7-9.2,53.34,53.34,0,0,0-2.9-8.8c-.6-1.4-1.3-2.9-2-4.2s-1.4-2.5-2.3-4a50.74,50.74,0,0,0-5.5-7.4,43.35,43.35,0,0,0-8.3-7.2,41.1,41.1,0,0,0,8.6.8,18.48,18.48,0,0,0,2.3-.1,49.7,49.7,0,0,0,9.2-1.3,31.91,31.91,0,0,0,4.4-1.3c1.4-.5,2.7-.9,4-1.5l.3-.1a72.66,72.66,0,0,0,8.4-4.1c1.2-.7,2.4-1.5,3.8-2.5s2.6-1.8,3.8-2.8,2.5-2.1,3.6-3.1l2-2c.4-.4.8-.9,1.3-1.4a51.17,51.17,0,0,0,6.1-7.8,62.18,62.18,0,0,0,4.9-8.6,72.58,72.58,0,0,0,3.4-8.8c.5-1.5.8-3.1,1.2-4.6a22.31,22.31,0,0,0,.4-2.3l.1-.7c.1-.5.2-1.1.3-1.6a57.38,57.38,0,0,0,.7-9.3c0-1.6-.1-3.1-.2-4.6s-.3-3.1-.5-4.6a50.47,50.47,0,0,0-2.3-8.9,44.9,44.9,0,0,0-4.9-9.8,44.9,44.9,0,0,0,9.8,4.9,55.42,55.42,0,0,0,8.9,2.3c1.5.2,3,.4,4.5.5s3.1.2,4.7.2h.6a50.24,50.24,0,0,0,8.7-.7l1.6-.3.6-.1c.8-.1,1.6-.3,2.3-.4a34.47,34.47,0,0,0,4.6-1.2,81,81,0,0,0,8.9-3.4,61.75,61.75,0,0,0,8.5-4.9,51.17,51.17,0,0,0,7.8-6.1l1.3-1.3a18.88,18.88,0,0,0,2-2,38.67,38.67,0,0,0,3.2-3.6c1-1.2,1.9-2.5,2.8-3.8,1-1.5,1.9-2.7,2.59-3.9a67.23,67.23,0,0,0,4.21-8.4l.09-.1c.5-1.4,1-2.7,1.5-4.1s.91-3,1.3-4.4a47.44,47.44,0,0,0,1.3-9.2,43.46,43.46,0,0,0-.8-10.9,43.35,43.35,0,0,0,7.2,8.3,45.51,45.51,0,0,0,7.41,5.5c1.4.9,2.7,1.6,4,2.3s2.79,1.4,4.2,2a60.34,60.34,0,0,0,8.8,2.9,59.61,59.61,0,0,0,9.29,1.7,37.9,37.9,0,0,0,4.71.2c.9,0,1.9.1,3,.1h1.79c1.6-.1,3.3-.2,4.91-.4a23.25,23.25,0,0,0,2.8-.5l1.9-.3h0a57.49,57.49,0,0,0,9.6-2.7c.59-.2,1.2-.5,1.79-.7a25.75,25.75,0,0,0,2.6-1,42.5,42.5,0,0,0,4.3-2.1c1.4-.8,2.8-1.6,4.1-2.5l.8-.5c1-.7,2-1.3,3-2.1a51.71,51.71,0,0,0,7.1-6.2,64.93,64.93,0,0,0,6-7,53,53,0,0,0,4.7-7.9,40.83,40.83,0,0,0,3.4-10.4,45.17,45.17,0,0,0,3.4,10.4,53,53,0,0,0,4.7,7.9,64.93,64.93,0,0,0,6,7,50.92,50.92,0,0,0,7.1,6.1l3,2.1.8.5c1.3.9,2.7,1.7,4.1,2.5a42.5,42.5,0,0,0,4.3,2.1c.9.4,1.8.7,2.6,1a13.36,13.36,0,0,1,1.8.7,46.22,46.22,0,0,0,9.5,2.6h0c.7.1,1.3.2,1.9.3.9.2,1.9.3,2.8.5a38.87,38.87,0,0,0,4.91.4h1.8a25.32,25.32,0,0,0,2.9-.1c1.6,0,3.2-.1,4.7-.2a56.1,56.1,0,0,0,9.19-1.7,53.77,53.77,0,0,0,8.81-2.9c1.4-.6,2.9-1.3,4.19-2s2.6-1.4,4-2.3a51.37,51.37,0,0,0,7.41-5.5,43.3,43.3,0,0,0,7.19-8.3,43.93,43.93,0,0,0-.8,10.9,49.7,49.7,0,0,0,1.3,9.2,33.39,33.39,0,0,0,1.31,4.4c.5,1.4,1,2.7,1.5,4.1l.09.2a72.66,72.66,0,0,0,4.1,8.4c.7,1.2,1.5,2.4,2.5,3.8s1.81,2.6,2.81,3.8,2.09,2.5,3.09,3.6c.7.7,1.41,1.4,2,2,.41.4.91.8,1.41,1.3a51.17,51.17,0,0,0,7.8,6.1,56.88,56.88,0,0,0,8.6,4.9,72.58,72.58,0,0,0,8.8,3.4c1.5.4,3,.8,4.6,1.2a22.31,22.31,0,0,0,2.3.4l.6.1,1.6.3a50.24,50.24,0,0,0,8.7.7h.59c1.6,0,3.1-.1,4.6-.2s3.1-.3,4.6-.5a50.47,50.47,0,0,0,8.9-2.3,45,45,0,0,0,9.81-4.9,45.37,45.37,0,0,0-4.91,9.8,55.42,55.42,0,0,0-2.3,8.9c-.2,1.5-.4,3-.5,4.5s-.2,3.1-.2,4.7a57.38,57.38,0,0,0,.7,9.3c.1.6.2,1.1.3,1.7l.1.6c.1.8.31,1.6.4,2.3a36.07,36.07,0,0,0,1.2,4.6,81,81,0,0,0,3.4,8.9,61.75,61.75,0,0,0,4.9,8.5,52.45,52.45,0,0,0,6.1,7.8l1.31,1.3a18,18,0,0,0,2,2,37.15,37.15,0,0,0,3.59,3.2c1.2,1,2.5,1.9,3.81,2.8,1.5,1,2.69,1.9,3.9,2.6a59.85,59.85,0,0,0,8.4,4.2l.2.1c1.4.5,2.69,1,4.1,1.5s3,.9,4.4,1.3a47.44,47.44,0,0,0,9.19,1.3c.81,0,1.5.1,2.31.1a47.38,47.38,0,0,0,8.6-.8,47,47,0,0,0-8.31,7.2,45.86,45.86,0,0,0-5.5,7.4c-.9,1.4-1.6,2.7-2.3,4s-1.4,2.8-2,4.2a60.34,60.34,0,0,0-2.9,8.8,59.51,59.51,0,0,0-1.7,9.3,37.74,37.74,0,0,0-.2,4.7,42.44,42.44,0,0,0,0,4.8c.1,1.6.2,3.3.41,4.9a21.44,21.44,0,0,0,.5,2.8c.09.6.19,1.3.3,1.9h0a57.49,57.49,0,0,0,2.7,9.6c.19.6.5,1.2.69,1.8.31.9.6,1.7,1,2.6a44.73,44.73,0,0,0,2.1,4.3c.8,1.4,1.6,2.8,2.5,4.1l.5.8c.7,1,1.3,2,2.1,3a51.71,51.71,0,0,0,6.2,7.1,64.93,64.93,0,0,0,7,6,53,53,0,0,0,7.9,4.7,40.83,40.83,0,0,0,10.4,3.4,45.17,45.17,0,0,0-10.4,3.4,53,53,0,0,0-7.9,4.7,64.93,64.93,0,0,0-7,6,50.92,50.92,0,0,0-6.1,7.1l-2.1,3-.5.8c-.9,1.3-1.7,2.7-2.5,4.1a42.5,42.5,0,0,0-2.1,4.3c-.4.9-.7,1.8-1,2.6a13.36,13.36,0,0,1-.7,1.8,46.83,46.83,0,0,0-2.59,9.5h0c-.1.7-.2,1.3-.31,1.9-.19.9-.3,1.9-.5,2.8a40.82,40.82,0,0,0-.4,4.9c-.1,1.8,0,3.5,0,4.8,0,1.6.1,3.2.2,4.7a56.4,56.4,0,0,0,1.7,9.2,53.34,53.34,0,0,0,2.9,8.8c.6,1.4,1.3,2.9,2,4.2s1.4,2.6,2.3,4a56.77,56.77,0,0,0,5.5,7.4,43.35,43.35,0,0,0,8.3,7.2,43.46,43.46,0,0,0-10.9-.8,49.7,49.7,0,0,0-9.2,1.3c-1.5.4-3,.8-4.4,1.3s-2.69,1-4.1,1.5l-.19.1a71.87,71.87,0,0,0-8.4,4.1c-1.2.7-2.41,1.5-3.81,2.5s-2.6,1.8-3.8,2.8-2.5,2.1-3.6,3.1l-2,2c-.4.4-.8.9-1.3,1.4a51.17,51.17,0,0,0-6.1,7.8,62.18,62.18,0,0,0-4.9,8.6,72.58,72.58,0,0,0-3.4,8.8c-.4,1.5-.8,3-1.2,4.6a22.31,22.31,0,0,0-.4,2.3l-.1.6c-.1.6-.2,1.1-.3,1.6a57.38,57.38,0,0,0-.7,9.3c0,1.6.1,3.1.2,4.6s.3,3.1.5,4.6a50.47,50.47,0,0,0,2.3,8.9,44.9,44.9,0,0,0,4.9,9.8,44.9,44.9,0,0,0-9.8-4.9,55.42,55.42,0,0,0-8.9-2.3c-1.5-.2-3-.4-4.5-.5s-3.1-.2-4.7-.2a57.38,57.38,0,0,0-9.3.7l-1.6.3-.6.1c-.8.1-1.6.3-2.3.4a34.47,34.47,0,0,0-4.6,1.2,81,81,0,0,0-8.9,3.4,61.75,61.75,0,0,0-8.5,4.9,51.17,51.17,0,0,0-7.8,6.1l-1.3,1.3a18.88,18.88,0,0,0-2,2,37.28,37.28,0,0,0-3.2,3.6c-1,1.2-1.9,2.5-2.8,3.8-1,1.5-1.9,2.7-2.6,3.9a59.85,59.85,0,0,0-4.2,8.4l-.1.2C1098.53,583.7,1098,585,1097.53,586.4Zm65.2-7.6c-2.6,2-5.2,3.9-7.9,5.8-.7.5-1.4,1-2.2,1.5-.1.1-.3.2-.4.3-2.7,1.9-5.5,3.8-8.3,5.6l-3.2,2c-2.6,1.6-5.2,3.2-7.9,4.8l-1.7,1a15,15,0,0,1,.2-10,27.51,27.51,0,0,1,1.4-3,18.08,18.08,0,0,1,1.9-2.9,21.07,21.07,0,0,1,5.4-4.9h0a22.05,22.05,0,0,1,12.2-3.9h1.3a13.9,13.9,0,0,1,9.3,3.6Zm9.8-7.9c-1.3,1.1-2.5,2.1-3.8,3.1l-2.6,2a18.16,18.16,0,0,0-12.3-5.1,25.13,25.13,0,0,0-15.9,4.5,25.55,25.55,0,0,0-6.41,5.8,27.4,27.4,0,0,0-2.3,3.5,19.64,19.64,0,0,0-1.6,3.6,18.32,18.32,0,0,0,0,13.4c-1.69.9-3.4,1.9-5,2.8l-6.3,3.2c-2.4-6.3-2.2-13.5.6-20.7a34.59,34.59,0,0,1,6.1-10.6l.2-.2a58.93,58.93,0,0,1,4.2-4.5,40,40,0,0,1,5.2-4h0a39.37,39.37,0,0,1,11.8-5.5,35.86,35.86,0,0,1,10.8-1.7h1.4a35.29,35.29,0,0,1,11.5,2.3,23.37,23.37,0,0,1,7.9,5.1Zm6.6-5.7a27.27,27.27,0,0,0-9.4-6.1,41.9,41.9,0,0,0-6.3-1.9,42.27,42.27,0,0,0-20,1.1,44.73,44.73,0,0,0-13,6,35.26,35.26,0,0,0-5.7,4.5,41.48,41.48,0,0,0-4.5,4.9l-.2.3a42.83,42.83,0,0,0-6.8,11.8c-3.2,8.3-3.4,16.7-.5,24-3.9,1.9-7.8,3.7-11.7,5.3a37.46,37.46,0,0,1-2-14.7,40.52,40.52,0,0,1,1.2-8.4,27.69,27.69,0,0,1,1.2-4.1c.4-1.3.9-2.6,1.4-3.9l.1-.2a56.77,56.77,0,0,1,3.9-7.8c.7-1.1,1.4-2.3,2.4-3.7.8-1.2,1.7-2.4,2.6-3.6a31.09,31.09,0,0,1,2.9-3.3c.6-.6,1.2-1.2,1.9-1.8.5-.4.9-.9,1.4-1.3a43.44,43.44,0,0,1,7.2-5.6h0a48.81,48.81,0,0,1,7.9-4.5,72.11,72.11,0,0,1,8.4-3.2c1.4-.4,2.8-.8,4.3-1.1.7-.1,1.4-.3,2.2-.4l.7-.1,1.5-.3a54.2,54.2,0,0,1,8.1-.6h.6c1.4,0,2.9.1,4.4.2s2.9.3,4.2.5a54.72,54.72,0,0,1,8.2,2.1,38.63,38.63,0,0,1,12.8,7.5C1185.43,559.4,1182.33,562.3,1179.13,565.2Zm56.4-69.1c-1.6,2.7-3.2,5.3-4.8,7.9l-2,3.1c-1.8,2.8-3.7,5.6-5.6,8.4-.2.3-.5.7-.7,1-.4.5-.7,1-1.1,1.5-1.9,2.7-3.9,5.3-5.9,7.9l-.2.3a14.68,14.68,0,0,1-3.6-9.4,21.59,21.59,0,0,1,3.9-13.4h0a21.07,21.07,0,0,1,4.9-5.4,18.08,18.08,0,0,1,2.9-1.9,29.17,29.17,0,0,1,3.1-1.4,15.64,15.64,0,0,1,5.5-1,13.3,13.3,0,0,1,4.5.8Zm5.8-10.3c-.9,1.7-1.9,3.5-2.8,5.2a18.22,18.22,0,0,0-13.4,0,30.06,30.06,0,0,0-3.6,1.7,19.18,19.18,0,0,0-3.5,2.3,25.33,25.33,0,0,0-5.8,6.4,25.76,25.76,0,0,0-4.6,15.8,18.61,18.61,0,0,0,5.1,12.4l-1.7,2.2c-1.1,1.4-2.3,2.8-3.5,4.2l-3.1,3.6a26.18,26.18,0,0,1-6.7-13.4,43.19,43.19,0,0,1-.6-5.9,34,34,0,0,1,1.7-12.2,36.6,36.6,0,0,1,5.5-11.7h0a34.18,34.18,0,0,1,4-5.2,58.93,58.93,0,0,1,4.5-4.2l.2-.2a36.34,36.34,0,0,1,10.7-6.1,31.84,31.84,0,0,1,11.5-2.3,25.89,25.89,0,0,1,9.2,1.7Zm5-9.8c-7.3-2.9-15.7-2.8-23.9.4a38.33,38.33,0,0,0-11.8,6.8l-.2.2c-1.6,1.4-3.3,2.9-4.9,4.5a52.59,52.59,0,0,0-4.5,5.8,42.86,42.86,0,0,0-6,12.9,38.65,38.65,0,0,0-1.8,13.5,49.73,49.73,0,0,0,.7,6.5,32.14,32.14,0,0,0,1.9,6.3,30.51,30.51,0,0,0,6.1,9.4c-2.91,3.2-5.81,6.3-8.81,9.4a40,40,0,0,1-7.5-12.8,54.72,54.72,0,0,1-2.1-8.2c-.19-1.4-.4-2.8-.5-4.3s-.19-2.9-.19-4.4a62.05,62.05,0,0,1,.6-8.7q.13-.75.3-1.5l.1-.7c.1-.7.3-1.4.4-2.2.3-1.5.7-2.9,1.1-4.3a73.87,73.87,0,0,1,3.19-8.4,60.16,60.16,0,0,1,4.6-8h0a38.94,38.94,0,0,1,5.6-7.1l1.4-1.4c.6-.7,1.2-1.3,1.81-1.9a43.58,43.58,0,0,1,3.3-2.9,33.2,33.2,0,0,1,3.6-2.6c1.4-1,2.5-1.7,3.6-2.4a46.44,46.44,0,0,1,7.8-3.8l.1-.1c1.4-.5,2.69-1,4-1.4s2.69-.8,4.1-1.2a40.42,40.42,0,0,1,8.4-1.2h2.1a38,38,0,0,1,12.69,2.1C1249.93,468.3,1248.13,472.2,1246.33,476Zm25.5-84.4-1.2,7.8-.8,4.6c-.6,3.1-1.2,6.1-1.8,9.1-.1.6-.3,1.2-.4,1.7l-.1.4c-.3,1.5-.7,3-1,4.4-.1.4-.2.8-.3,1.3-.4,1.7-.9,3.4-1.3,5.2a15.08,15.08,0,0,1-6.91-7.3,20.62,20.62,0,0,1-1.9-6.5,22.8,22.8,0,0,1-.1-3.6c.1-1.3.31-2.7.5-3.8a22.55,22.55,0,0,1,2.5-6.9,18.72,18.72,0,0,1,2-2.9,26.3,26.3,0,0,1,2.31-2.5,14.82,14.82,0,0,1,9.19-4.1Zm1.5-12.9c-.2,1.7-.3,3.5-.5,5.2l-.1.8a18.66,18.66,0,0,0-12.4,5.1,35.76,35.76,0,0,0-2.7,2.9,26.16,26.16,0,0,0-2.4,3.4,25.87,25.87,0,0,0-2.9,8.2h0c-.2,1.3-.4,2.7-.5,4.3a30.88,30.88,0,0,0,.1,4.3,22.76,22.76,0,0,0,2.3,7.8,18,18,0,0,0,9.4,9.4c-1.2,4.1-2.4,8.2-3.8,12.3a23.45,23.45,0,0,1-7.7-5.4,32.25,32.25,0,0,1-6.5-9.7,39.25,39.25,0,0,1-3.2-11.9,34.32,34.32,0,0,1-.3-6.4,31.63,31.63,0,0,1,.3-3.2c.1-.5.2-1.1.3-1.7V404a7.77,7.77,0,0,0,.2-1.6h0a46.37,46.37,0,0,1,1.7-6.4,49.42,49.42,0,0,1,2.6-5.7l.1-.2a37.08,37.08,0,0,1,7.5-9.8c5.5-5.4,12.1-8.3,18.8-8.5Zm.9-10.8c-7.9.1-15.6,3.5-21.9,9.6a39.46,39.46,0,0,0-8.3,10.8l-.1.2a56.67,56.67,0,0,0-2.8,6.1,41.18,41.18,0,0,0-1.9,7.1c-.1.6-.2,1.1-.3,1.7v.1c-.1.6-.2,1.2-.31,1.8a23,23,0,0,0-.3,3.6,40.58,40.58,0,0,0,.3,7,41.42,41.42,0,0,0,3.5,13.1,40.46,40.46,0,0,0,7.31,10.9,30.36,30.36,0,0,0,9.3,6.4q-2.1,6.15-4.5,12a38.65,38.65,0,0,1-11.8-9,36.78,36.78,0,0,1-5-6.8l-2.2-3.8c-.7-1.3-1.3-2.6-1.9-3.9a57.5,57.5,0,0,1-2.7-8.3,62.17,62.17,0,0,1-1.6-8.7c-.1-1.5-.2-2.9-.2-4.5,0-1.2-.1-2.9,0-4.5s.2-3,.4-4.5c.1-.9.3-1.7.4-2.6.1-.7.2-1.3.3-2a50.83,50.83,0,0,1,2.4-8.7,14.58,14.58,0,0,0,.7-1.9,24.43,24.43,0,0,1,1-2.4c.6-1.3,1.2-2.7,1.9-4s1.5-2.5,2.3-3.8l.5-.8c.6-1,1.3-1.9,1.9-2.8a50.07,50.07,0,0,1,5.7-6.5,56.52,56.52,0,0,1,6.6-5.6,45,45,0,0,1,7.3-4.3,40,40,0,0,1,14.4-3.8C1274.63,359.3,1274.43,363.6,1274.23,367.9Zm-8.1-85.4c.1.4.2.7.3,1.1.3,1.4.7,2.8,1,4.2l.3,1.1c.1.4.2.9.3,1.3.7,3.1,1.3,6.2,1.9,9.3l.8,4.6c.4,2.6.8,5.2,1.2,7.9l.4,2.9a14.77,14.77,0,0,1-9.2-4.1,27.25,27.25,0,0,1-2.3-2.5,29.77,29.77,0,0,1-2-2.9,22.74,22.74,0,0,1-2.5-6.9c-.2-1.2-.4-2.5-.5-3.8a20.8,20.8,0,0,1,2-10.2,15,15,0,0,1,6.9-7.3C1265.23,279,1265.73,280.8,1266.13,282.5Zm-2.4-9.1a18.7,18.7,0,0,0-9.4,9.4,23.43,23.43,0,0,0-2.3,7.8,20.45,20.45,0,0,0-.1,4.3c.1,1.5.3,3,.5,4.2h0a26.76,26.76,0,0,0,2.9,8.2,20.76,20.76,0,0,0,2.4,3.4,18.23,18.23,0,0,0,2.7,2.9,18.47,18.47,0,0,0,12.4,5.1l.1.8c.2,1.7.4,3.5.5,5.2l.5,6.8c-6.7-.2-13.3-3.1-18.9-8.5a35.1,35.1,0,0,1-7.5-9.7l-.1-.2a58.59,58.59,0,0,1-2.6-5.7,33.45,33.45,0,0,1-1.7-6.4h0a7.77,7.77,0,0,1-.2-1.6v-.2c-.1-.5-.2-1.1-.3-1.6-.1-1.1-.2-2.2-.3-3.2a34.32,34.32,0,0,1,.3-6.4,35.3,35.3,0,0,1,3.2-11.8,34.32,34.32,0,0,1,6.6-9.8,26.86,26.86,0,0,1,7.7-5.4C1261.23,265.2,1262.53,269.3,1263.73,273.4Zm-5.1-16.1a28.72,28.72,0,0,0-9.3,6.4,39.14,39.14,0,0,0-7.3,10.9,47.34,47.34,0,0,0-3.8,20.2l.3,3.6c.1.6.2,1.2.3,1.7v.1c.1.6.2,1.1.3,1.7a40.08,40.08,0,0,0,1.9,7,49,49,0,0,0,2.8,6.1l.1.2a39.46,39.46,0,0,0,8.3,10.8c6.4,6.2,14.1,9.5,21.9,9.6.2,4.3.4,8.6.4,12.8a38.09,38.09,0,0,1-14.4-3.8,53.71,53.71,0,0,1-7.3-4.3,83.16,83.16,0,0,1-6.6-5.6,45,45,0,0,1-5.7-6.6,27.5,27.5,0,0,1-1.9-2.8l-.5-.8c-.8-1.2-1.6-2.5-2.3-3.8s-1.4-2.6-2-4c-.3-.7-.6-1.5-.9-2.3-.2-.6-.5-1.3-.7-1.9a44,44,0,0,1-2.4-8.8c-.1-.7-.2-1.3-.3-2a25.12,25.12,0,0,1-.4-2.7c-.2-1.5-.3-3-.4-4.5s0-3.3,0-4.6.1-2.9.2-4.4a64.91,64.91,0,0,1,1.6-8.7,60.49,60.49,0,0,1,2.7-8.2c.6-1.3,1.2-2.7,1.9-3.9s1.3-2.4,2.1-3.8a56.7,56.7,0,0,1,5-6.8,38.65,38.65,0,0,1,11.8-9C1255.73,249.2,1257.23,253.2,1258.63,257.3Zm-12.3-29.8c1.9,3.9,3.7,7.8,5.3,11.7a37.46,37.46,0,0,1-14.7,2,40.52,40.52,0,0,1-8.4-1.2,27.69,27.69,0,0,1-4.1-1.2c-1.3-.4-2.5-.9-3.9-1.4l-.2-.1a51.62,51.62,0,0,1-7.8-3.9c-1.1-.7-2.3-1.4-3.7-2.4-1.2-.8-2.4-1.7-3.6-2.6a31.09,31.09,0,0,1-3.3-2.9c-.6-.6-1.2-1.2-1.8-1.9-.4-.5-.9-.9-1.3-1.4a43.44,43.44,0,0,1-5.6-7.2h0a48.81,48.81,0,0,1-4.5-7.9,72.11,72.11,0,0,1-3.2-8.4c-.4-1.4-.8-2.8-1.1-4.3-.1-.7-.3-1.4-.4-2.2l-.1-.6-.3-1.5a49.08,49.08,0,0,1-.6-8.6c0-1.4.1-2.9.2-4.4s.3-2.9.5-4.2a54.72,54.72,0,0,1,2.1-8.2,38.63,38.63,0,0,1,7.5-12.8c3,3.1,5.9,6.2,8.8,9.4a27.27,27.27,0,0,0-6.1,9.4,41.9,41.9,0,0,0-1.9,6.3,42.27,42.27,0,0,0,1.1,20,44.73,44.73,0,0,0,6,13,35.26,35.26,0,0,0,4.5,5.7,41.48,41.48,0,0,0,4.9,4.5l.3.2a42.83,42.83,0,0,0,11.8,6.8,35.34,35.34,0,0,0,12.9,2.6A37.32,37.32,0,0,0,1246.33,227.5Zm-31.1-50.3.2.3c2,2.6,4,5.3,5.9,8,.4.5.7,1,1.1,1.5.2.3.5.7.7,1,1.9,2.8,3.8,5.6,5.6,8.4l2,3.1c1.6,2.6,3.2,5.2,4.8,7.9l1,1.7a15,15,0,0,1-10-.2c-1-.4-2.1-.9-3.1-1.4a18.08,18.08,0,0,1-2.9-1.9,21.07,21.07,0,0,1-4.9-5.4h0a21.69,21.69,0,0,1-3.9-13.5A14.16,14.16,0,0,1,1215.23,177.2Zm-4.5-5.8,2,2.6a18.16,18.16,0,0,0-5.1,12.3,25.76,25.76,0,0,0,4.5,15.9,25.33,25.33,0,0,0,5.8,6.4c1.1.8,2.3,1.6,3.5,2.3a19.64,19.64,0,0,0,3.6,1.6,21,21,0,0,0,6.9,1.3,15.73,15.73,0,0,0,6.5-1.3c.9,1.7,1.9,3.4,2.8,5.1l3.2,6.3c-6.3,2.4-13.5,2.2-20.7-.6a34.59,34.59,0,0,1-10.6-6.1l-.2-.2a58.93,58.93,0,0,1-4.5-4.2,40,40,0,0,1-4-5.2h0a39.37,39.37,0,0,1-5.5-11.8,35.38,35.38,0,0,1-1.6-12.1,35.29,35.29,0,0,1,2.3-11.5,23.37,23.37,0,0,1,5.1-7.9l3,3.5C1208.63,168.9,1209.63,170.2,1210.73,171.4Z" fill="#e65661"/><path d="M679.23,1051.6c-13.9,9.5-30.1,13.1-46.9-2.7-25-23.6-9.1-55.7,6.1-71.8a102.82,102.82,0,0,1,24.1-19.2c31.2-17.2,59.2-6.4,69.3,3.1,10.9,10.3,16.2,20.5-22.5,61.6C701.83,1030.4,691.43,1043.2,679.23,1051.6ZM512.73,512.3c5.5,2.3,40.9,1.6,67.8,13,10.7,4.6,16.7,4.1,22.8-10.4,13.6-32,19.5-108.7,7.8-113.6-16.5-7-84.2,61.1-100.2,98.7C508.43,506.2,509,510.7,512.73,512.3Zm265.8,154.1c6.8-15.9-8.8-29.4-25.4-36.4-27.9-11.8-43.6-8.7-61.9,35.1-2.3,5.3-6.2,15.5,2.9,19.4C704.63,688.9,768.63,689.6,778.53,666.4ZM462,808.6c-.7-.4-1.3-.9-2-1.3-19.1-10.9-34.3-10.9-45-6.7a33.47,33.47,0,0,0-14.4,10.6c-8,10.8-11,30.6,19.1,49.1,28.4,19.3,47.4,8.7,56-2.4a32,32,0,0,0,5.8-11.5,26.6,26.6,0,0,0,.5-11.3C480.63,826.5,475,817.3,462,808.6ZM1314,486c-19.6,67.9-54,129.5-99.5,178.3-35.9,38.5-76.4,72.1-115.5,104.5-20.5,17-41.7,34.6-61.7,52.4-43.3,38.7-86.9,78.7-129.1,117.4l-49.5,45.3-.1.1L848,995.2c-57.4,60.7-111.6,118-158.4,184l-23.3,32.9-.2-.3-.2.3-23.3-32.9c-46.8-66-101-123.3-158.4-184.1l-10.6-11.2h0q-24.75-22.65-49.5-45.4c-42.2-38.7-85.8-78.7-129.1-117.4-20-17.9-41.2-35.4-61.7-52.4-39.1-32.4-79.6-66-115.5-104.5C72.43,615.4,38,553.8,18.33,485.9c-19.5-67.2-23.5-137.2-11.7-202.4,20.3-110.8,84.5-198.4,180.9-246.4C236.93,12.5,289,0,342.33,0c68.8,0,136.3,21.3,195.3,61.5,38.4,26.2,75.3,68.8,109.7,126.4,7.2,12.1,13.5,23.6,19.1,34.2,5.5-10.6,11.9-22.1,19.1-34.2,34.3-57.6,71.2-100.2,109.7-126.4C854.23,21.3,921.73,0,990.53,0c53.3,0,105.4,12.5,154.8,37.1,96.4,48.1,160.5,135.6,180.6,246.6C1337.63,348.8,1333.53,418.8,1314,486ZM678.53,355c0,169.9,137.7,307.6,307.6,307.6s307.6-137.7,307.6-307.6S1156,47.4,986.13,47.4,678.53,185.1,678.53,355Zm80.1,368.5c2.8-6.6,52.4-2.9,73.3-34.6,1.4-2.6,2.7-5.1,4.1-7.6.1-.2.1-.3.2-.5a60.65,60.65,0,0,0,.7-44.9h0c-2-1-3.9-2.1-5.8-3.2-.1-.1-.2-.1-.4-.2-1.9-1.1-3.8-2.1-5.6-3.2a.76.76,0,0,0-.4-.2c-1.9-1.1-3.8-2.3-5.6-3.4H819a311.68,311.68,0,0,1-38.4-28c-.1-.1-.3-.2-.4-.3-1.6-1.4-3.2-2.7-4.7-4.1-.2-.2-.4-.3-.5-.5-1.6-1.4-3.1-2.8-4.7-4.2-.1-.1-.3-.2-.4-.4A309.88,309.88,0,0,1,742,558.8l-.1-.1c-1.3-1.6-2.7-3.2-4-4.9-.2-.2-.3-.4-.5-.6-1.2-1.6-2.5-3.1-3.7-4.7a5.55,5.55,0,0,0-.6-.8l-3.6-4.8c-.2-.3-.4-.5-.6-.8-1.2-1.6-2.4-3.3-3.6-5-.1-.1-.2-.3-.3-.4a301.65,301.65,0,0,1-17.9-28.8h0c-1-1.8-2-3.7-3-5.5a5.94,5.94,0,0,0-.4-.8c-.9-1.7-1.8-3.5-2.7-5.3a5.36,5.36,0,0,1-.5-1.1c-.9-1.7-1.7-3.5-2.5-5.2a5.36,5.36,0,0,1-.5-1.1c-.8-1.8-1.7-3.6-2.5-5.4a3.55,3.55,0,0,0-.4-.9c-.8-1.9-1.7-3.8-2.5-5.8-1.2,10.3-2.6,20.5-4.2,30.7a581.76,581.76,0,0,1-17.7,78.2c-7.6,24.8-17,49-26.9,72.9-17.4,41.6-36.8,82.3-53.3,124.2,17.5,4.4,34.9,9.3,52.1,14.9,4.6,1.5,9.2,3,13.7,4.6.6-15.7,1.7-51.6,8.1-66.7,6-14.1,32.7-15,41.9-11.1,15.7,6.7,11.2,64.6,1.5,97.6q36.9,15.75,72.2,34.9,2.1-18.6,5.7-36.9c.1-.5.2-1.1.3-1.6C782.33,772.2,756.33,728.8,758.63,723.5ZM150.13,615.3c8-16.6,58.5-175,85.4-218.5,59.3-96.2,86.8-196,110.1-305.8q6.3-29.85,12.2-59.7c-3.4-.1-6.7-.2-10.1-.2a321.42,321.42,0,0,0-109.5,19.3c-.2,37.4-.3,74.7-.5,112.1-.2,41.5-2.7,86.9-16.3,128-6.7,20.2-24,82.2-51.3,80.5-12.4-.8-49.2-61.8-45.2-126.8.4-6.1,28.2-110.7,40.2-156.9-2.7,10.4-42.5,34.3-51.5,43.9a302.38,302.38,0,0,0-44,60.7c-41.5,75.2-41.7,143,20.5,205.8,7.6,7.7,40.4,29.8,39.7,42.3-.7,10.9-36.2,62.5-58.3,111.1a398.46,398.46,0,0,0,63.9,94.3C140.33,635.5,145.23,625.4,150.13,615.3ZM322.93,757c12.2-50.1,27.6-99.9,44.4-148.7l3.3-9.3c-22.5,20.6-61.3,59.1-83.2,44.3-25.7-17.3-20.3-66.6,4.9-123.8,31.2-72.1,65.5-85.5,81.1-75.8,9.8,6.1,24.1,51.9,30.7,69.5,9.5-21.8,19.7-43.4,30.7-64.5,20.1-38.5,42.6-75.5,66.6-111.6C470,327.8,396,345.7,387,340.3c-8.6-5,1.5-33.2,8.2-49.3,30.3-74.5,65.5-94.4,86.6-82.6,21.3,12,39.6,57.8,50.2,84.4,27.3-38.3,56-75.6,85-112.5-23.3-34.5-52.5-69.1-86.7-92.2-45.4-30.6-96.2-49.4-148.6-55.1-5.4,28.7-11.5,57.3-17.7,85.8-14.2,64.9-29.9,129.8-51.1,192.7C294,367.6,268,421.3,243.23,474.9c-2.4,5.1-4.8,10.3-7.2,15.4-2.3,6.1-4.5,11.5-6.5,15.9-15.8,35.7-30.7,65.5-43.9,90.3-7.8,16.2-15.6,32.5-23.5,48.7-3,6.3-6.1,12.5-9.1,18.8,30.9,30.7,64.7,58.5,97.6,85.4,20.2,16.6,41.1,33.7,60.8,51.1a5,5,0,0,1,.8.7C315.83,786.4,319.33,771.7,322.93,757ZM343,775.8a80.39,80.39,0,0,1,19.2-11.2c17.7-7.4,37.6-8.7,56.6-8.2a9.7,9.7,0,0,1,1.7.1,208.85,208.85,0,0,0,2.6-27.8c.3-8.7,1.9-62.1,19.8-104.1,25.8-60.7,75.7-49.6,104.7-37.2,14.3,6.1,24.2,21,14,44.9-21.6,50.7-70.7,104-90,128.8l11.6,1.5c27.9,3.7,55.6,8.5,83.1,14.6,8.2-20.8,17-41.3,26-61.7,20.7-47.1,42.4-94,56.8-143.5,14.8-50.7,20.9-103.3,24.6-155.8.5-6.7-2.7-15.2-3.5-21.9-1.1-9.1-1.9-18.2-2.2-27.3a320.78,320.78,0,0,1,3.3-60.4c.2-1.4.4-2.9.7-4.3.2-.9.3-1.9.5-2.8,4.2-24.6-15.4-51.7-26.6-72.2-4.6-8.3-9.6-17-15-25.9-33.4,42.6-66.1,85.8-96.7,130.5-32.6,47.5-63,96.7-88.5,148.5-24.9,50.6-45.2,103.3-62.7,156.8-14.3,43.5-27.6,87.6-38.3,132.1C344.13,771.5,343.53,773.7,343,775.8Zm115.8,141.3c13.5-5.3,25.7-13.3,36.8-22.5a200.33,200.33,0,0,0,15.2-13.9c.5-.5.9-1,1.3-1.4a118,118,0,0,0,9.4-12c1.5-2.2,2.8-4.3,4.1-6.4,2.4-4.1,5-8.7,7.3-13.6.4-1.1.8-2.1,1.1-3.2,1-3.1,1.9-6.3,2.6-9.5a105.16,105.16,0,0,0,2.4-19.8,26.17,26.17,0,0,0-9.7-15.5c-5.9-4.7-12.9-7.6-20.3-9.6-5.8-1-11.7-1.9-17.5-2.7q-34.95-4.95-70.4-7.1c-4.4-.3-8.8-.5-13.2-.7-2.9-.1-5.9-.3-8.9-.4a9.15,9.15,0,0,1-1.6-.1c-14.8-.5-30.9,0-42.2,9.8s-14.5,24.6-9.5,38.3a41.85,41.85,0,0,0,6.4,11.3q44.1,40,88,80.5A97.65,97.65,0,0,0,458.83,917.1Zm77.9,92.8c4.6-22.4,12.3-44.8,24.1-64.6,12.2-20.6,30.1-38.2,49.3-52.3,18.1-13.3,39-24.2,59.9-32.4,12.5-4.9,25.3-8.8,38.1-12.7-8.7-3.8-17.4-7.4-26.1-10.9a828.08,828.08,0,0,0-119.1-36.8c.8,15.7-.2,31.6-4.6,46.7-8.3,28.6-28.1,50.8-51,68.9a165.16,165.16,0,0,1-43.1,24.6c9.2,8.4,18.3,16.8,27.5,25.2a6,6,0,0,1,.8.8c14.7,15.6,29.3,30.9,43.7,46.4A25,25,0,0,1,536.73,1009.9Zm325.9-67.4c.1-.1.2-.2.3-.2q-5.85-5.4-12-10.5a413.88,413.88,0,0,0-52.8-37.5c-.1.1-.1.2-.2.3s-.1-.1-.2-.1c-6,12.7-11.6,34.6-25.8,49.7a37.35,37.35,0,0,1-4.9,4.3c-4,2.8-9.1,4.8-12.9,1.2-4.1-3.9-5.5-15.3-11.7-21.2C721.83,909,670.53,894,625,915.9a108.62,108.62,0,0,0-16.9,10,201.12,201.12,0,0,0-14.5,14.7,114.94,114.94,0,0,0-8.2,9.8c-2.6,3.8-5,7.8-7.2,11.8-9.8,18-16.1,38-19.91,58.7a75.86,75.86,0,0,0,4.8,21.8c35.7,39.1,69.8,79,100.7,122.6h0a1.73,1.73,0,0,1,.3.4,1.76,1.76,0,0,1,.4-.5l.1.1c51-72.1,110.8-134.2,172.1-199.1,0-.1.1-.1.2-.1s.3-.2.4-.3c8.41-7.7,16.91-15.5,25.31-23.3Zm434.3-512.7c-5.9,36.5-25.8,74.1-46.4,104.2A320.43,320.43,0,0,1,941,670.1c-26.7-3.8-59.5-14.2-78.1,12.6-13.4,19.3-21.1,39.9-13.9,63.1,6.9,22.5,22,41.9,38.3,58.5,11.3,12.6,27.6,32.7,17.6,53.1-8.1,17.4-26.4,18-43,8.1-40.4-22.7-35.7-83.3-34.9-106.5-.3,8.2-6.5,19-8.8,27-2.8,9.6-5.3,19.3-7.5,29-3.1,14.1-9.4,29.7-6.8,44.3,3.3,19,22.9,25.2,37,34.4,3.8,2.4,41.1,29.5,42,28.7,3-2.7,6-5.5,9.1-8.2l3.2-2.9c16.1-14.6,32.5-29.4,48.9-44.3h0c9.5-24.6,9.4-55.1-23.1-95.1-10.8-12.5-32.3-33.2-21.9-53.3,8.7-16.2,30.1-15.3,43.2-8.4,47.6,24.9,47.4,83.7,45.1,117.9,5.2-4.6,10.3-9.2,15.5-13.8s10.4-9.2,15.5-13.8c2.5-2.2,5-4.4,7.5-6.5l15.1-13c7.6-6.4,15.3-12.8,23-19.1,5.1-4.2,10.2-8.4,15.2-12.5,38-31.1,77.2-63.3,111.7-99.9,42.9-45.5,75.4-103.2,94-166.6A456.07,456.07,0,0,0,1296.93,429.8Z" fill="#e65661"/></svg>