<svg id="Layer_1" data-name="Layer 1" xmlns="http://www.w3.org/2000/svg" viewBox="0 0 74.79 74.79"><defs><style>.cls-1{fill:#252944;}</style></defs><title>1</title><polygon class="cls-1" points="39.02 44.4 39.02 33.56 37.77 33.56 37.77 45.65 39.02 44.4"/><polygon class="cls-1" points="41.02 42.4 41.02 33.56 39.77 33.56 39.77 43.65 41.02 42.4"/><path class="cls-1" d="M37.4,0A37.4,37.4,0,1,0,74.79,37.4,37.39,37.39,0,0,0,37.4,0Zm5,62.4h-10v-10h10Zm0-28.84h-.63v8.09L42.4,41V51h-10L37,46.4V33.56H35.77V47.4a.38.38,0,0,1-.75,0V33.56H33.77V47.4a.38.38,0,0,1-.75,0V33.56H22.4l10-10h.48a.49.49,0,0,1,.93,0h1.07a.49.49,0,0,1,.93,0h1.07a.49.49,0,0,1,.93,0h1.07a.49.49,0,0,1,.93,0h1.07a.49.49,0,0,1,.93,0h.59ZM34.84,21.73a.51.51,0,0,1,.5-.5.5.5,0,0,1,.5.5.5.5,0,0,1-.5.5A.5.5,0,0,1,34.84,21.73Zm2.5-.5a.5.5,0,0,1,.5.5.5.5,0,0,1-.5.5.5.5,0,0,1-.5-.5A.51.51,0,0,1,37.34,21.23Zm-.5-1.5a.51.51,0,0,1,.5-.5.5.5,0,0,1,.5.5.5.5,0,0,1-.5.5A.5.5,0,0,1,36.84,19.73Zm2.5-.5a.5.5,0,0,1,.5.5.5.5,0,0,1-.5.5.5.5,0,0,1-.5-.5A.51.51,0,0,1,39.34,19.23Zm-.5-1.5a.51.51,0,0,1,.5-.5.5.5,0,0,1,.5.5.5.5,0,0,1-.5.5A.5.5,0,0,1,38.84,17.73Zm.5,3.5a.5.5,0,0,1,.5.5.5.5,0,0,1-.5.5.5.5,0,0,1-.5-.5A.51.51,0,0,1,39.34,21.23Zm2-4a.5.5,0,0,1,.5.5.5.5,0,0,1-.5.5.5.5,0,0,1-.5-.5A.51.51,0,0,1,41.34,17.23Zm-.5-1.5a.51.51,0,0,1,.5-.5.5.5,0,0,1,.5.5.5.5,0,0,1-.5.5A.5.5,0,0,1,40.84,15.73Zm.5,3.5a.5.5,0,0,1,.5.5.5.5,0,0,1-.5.5.5.5,0,0,1-.5-.5A.51.51,0,0,1,41.34,19.23Zm0,2a.5.5,0,0,1,.5.5.5.5,0,0,1-.5.5.5.5,0,0,1-.5-.5A.51.51,0,0,1,41.34,21.23Zm-1.82-6a.49.49,0,0,1,.32.46.5.5,0,0,1-.5.5.49.49,0,0,1-.46-.32l-1.36,1.36a.49.49,0,0,1,.32.46.5.5,0,0,1-.5.5.49.49,0,0,1-.46-.32l-1.36,1.36a.49.49,0,0,1,.32.46.5.5,0,0,1-.5.5.49.49,0,0,1-.46-.32l-1.36,1.36a.49.49,0,0,1,.32.46.5.5,0,0,1-.5.5.49.49,0,0,1-.46-.32l-.48.49v-10h10Z"/><path class="cls-1" d="M41.34,24.23a.5.5,0,0,0,.5-.5.51.51,0,0,0,0-.17h-.93a.53.53,0,0,0,0,.17A.5.5,0,0,0,41.34,24.23Z"/><path class="cls-1" d="M38.84,15.73a.53.53,0,0,0,0,.18l.64-.64a.48.48,0,0,0-.18,0A.51.51,0,0,0,38.84,15.73Z"/><path class="cls-1" d="M39.34,24.23a.5.5,0,0,0,.5-.5.51.51,0,0,0,0-.17h-.93a.53.53,0,0,0,0,.17A.5.5,0,0,0,39.34,24.23Z"/><circle class="cls-1" cx="37.34" cy="15.73" r="0.5"/><path class="cls-1" d="M36.84,17.73a.53.53,0,0,0,0,.18l.64-.64a.48.48,0,0,0-.18,0A.51.51,0,0,0,36.84,17.73Z"/><path class="cls-1" d="M37.34,24.23a.5.5,0,0,0,.5-.5.51.51,0,0,0,0-.17h-.93a.53.53,0,0,0,0,.17A.5.5,0,0,0,37.34,24.23Z"/><circle class="cls-1" cx="35.34" cy="15.73" r="0.5"/><circle class="cls-1" cx="35.34" cy="17.73" r="0.5"/><path class="cls-1" d="M34.84,19.73a.53.53,0,0,0,0,.18l.64-.64a.48.48,0,0,0-.18,0A.51.51,0,0,0,34.84,19.73Z"/><path class="cls-1" d="M35.34,24.23a.5.5,0,0,0,.5-.5.51.51,0,0,0,0-.17h-.93a.53.53,0,0,0,0,.17A.5.5,0,0,0,35.34,24.23Z"/><circle class="cls-1" cx="33.34" cy="15.73" r="0.5"/><circle class="cls-1" cx="33.34" cy="17.73" r="0.5"/><circle class="cls-1" cx="33.34" cy="19.73" r="0.5"/><path class="cls-1" d="M32.84,21.73a.53.53,0,0,0,0,.18l.64-.64a.48.48,0,0,0-.18,0A.51.51,0,0,0,32.84,21.73Z"/><path class="cls-1" d="M33.34,24.23a.5.5,0,0,0,.5-.5.51.51,0,0,0,0-.17h-.93a.53.53,0,0,0,0,.17A.5.5,0,0,0,33.34,24.23Z"/><path class="cls-1" d="M33.39,30.64A.38.38,0,0,0,33,31v2.54h.75V31A.38.38,0,0,0,33.39,30.64Z"/><path class="cls-1" d="M39,47.4a.38.38,0,0,0,.75,0V43.65L39,44.4Z"/><path class="cls-1" d="M39.77,31A.38.38,0,1,0,39,31v2.54h.75Z"/><path class="cls-1" d="M41,47.4a.38.38,0,0,0,.75,0V41.65L41,42.4Z"/><path class="cls-1" d="M41.39,30.64A.38.38,0,0,0,41,31v2.54h.75V31A.38.38,0,0,0,41.39,30.64Z"/><path class="cls-1" d="M35.39,30.64A.38.38,0,0,0,35,31v2.54h.75V31A.38.38,0,0,0,35.39,30.64Z"/><path class="cls-1" d="M37.39,47.77a.38.38,0,0,0,.38-.37V45.65L37,46.4v1A.38.38,0,0,0,37.39,47.77Z"/><path class="cls-1" d="M37.77,31A.38.38,0,1,0,37,31v2.54h.75Z"/></svg>