<?xml version="1.0" encoding="utf-8"?>
<!-- Generator: Adobe Illustrator 23.0.3, SVG Export Plug-In . SVG Version: 6.00 Build 0)  -->
<svg version="1.1" id="Layer_1" xmlns="http://www.w3.org/2000/svg" xmlns:xlink="http://www.w3.org/1999/xlink" x="0px" y="0px"
	 viewBox="0 0 74.79 74.79" style="enable-background:new 0 0 74.79 74.79;" xml:space="preserve">
<style type="text/css">
	.st0{fill:#252944;}
</style>
<g>
	<path class="st0" d="M47.66,48.83c-0.03,0.2-0.05,0.4-0.08,0.56l-0.09,0.37c-0.06,0.26-0.1,0.44-0.16,0.62l-0.11,0.33
		c-0.07,0.2-0.14,0.41-0.23,0.63l-0.12,0.28c-0.09,0.2-0.18,0.41-0.25,0.53l-0.19,0.33c-0.12,0.21-0.24,0.41-0.34,0.56l-0.16,0.24
		c-0.15,0.22-0.3,0.42-0.49,0.66l-0.08,0.1c-1.99,2.37-4.88,3.73-7.95,3.73h0v1.25h0c3.44,0,6.69-1.52,8.91-4.17l0.1-0.12
		c0.21-0.26,0.39-0.49,0.55-0.73l0.17-0.25c0.13-0.2,0.26-0.42,0.39-0.65l0.18-0.33c0.09-0.18,0.2-0.41,0.3-0.63l0.15-0.33
		c0.09-0.23,0.17-0.46,0.25-0.69l0.12-0.37c0.07-0.22,0.12-0.46,0.18-0.69l0.1-0.4c0.05-0.24,0.08-0.49,0.11-0.75l0.05-0.38
		c0.04-0.38,0.06-0.76,0.06-1.14h-1.25c0,0.33-0.02,0.68-0.06,1.05L47.66,48.83z"/>
	<path class="st0" d="M37.4,55.77L37.4,55.77l0,1.25h0c2.85,0,5.54-1.26,7.38-3.45l0.08-0.09c0.18-0.22,0.32-0.41,0.46-0.61
		l0.16-0.23c0.09-0.14,0.2-0.33,0.31-0.52l0.18-0.32c0.05-0.1,0.14-0.29,0.23-0.48l0.12-0.27c0.08-0.2,0.15-0.39,0.21-0.58
		l0.11-0.31c0.04-0.15,0.08-0.32,0.12-0.5l0.1-0.43c0.03-0.13,0.05-0.31,0.07-0.5l0.05-0.38c0.04-0.33,0.05-0.65,0.05-0.96h-1.25
		C45.77,52.01,42.01,55.77,37.4,55.77z"/>
	<path class="st0" d="M37.4,53.77L37.4,53.77l0,1.25h0c4.2,0,7.62-3.42,7.62-7.62h-1.25C43.77,50.91,40.91,53.77,37.4,53.77z"/>
	<polygon class="st0" points="37.4,28.77 31.02,28.77 29.77,30.02 37.4,30.02 	"/>
	<polygon class="st0" points="37.4,32.77 27.02,32.77 25.77,34.02 37.4,34.02 	"/>
	<polygon class="st0" points="37.4,30.77 29.02,30.77 27.77,32.02 37.4,32.02 	"/>
	<path class="st0" d="M49.65,48.99c-0.04,0.29-0.07,0.56-0.12,0.83l-0.1,0.4c-0.06,0.26-0.12,0.51-0.19,0.76l-0.13,0.38
		c-0.08,0.25-0.17,0.49-0.27,0.74l-0.15,0.34c-0.11,0.24-0.22,0.49-0.33,0.68l-0.19,0.34c-0.14,0.25-0.28,0.49-0.42,0.7l-0.18,0.26
		c-0.18,0.25-0.36,0.5-0.59,0.78l-0.1,0.12c-2.37,2.82-5.82,4.44-9.49,4.44h0v1.25h0c4.03,0,7.84-1.78,10.44-4.88L47.95,56
		c0.25-0.31,0.45-0.58,0.64-0.85l0.19-0.28c0.17-0.25,0.33-0.52,0.48-0.79l0.19-0.35c0.13-0.25,0.26-0.52,0.38-0.79L50,52.56
		c0.11-0.27,0.2-0.54,0.3-0.81l0.06-0.17c0.03-0.09,0.06-0.17,0.09-0.26c0.08-0.28,0.15-0.56,0.21-0.84l0.05-0.2
		c0.03-0.11,0.04-0.17,0.06-0.24c0.06-0.3,0.1-0.61,0.14-0.92l0.06-0.39c0.05-0.46,0.07-0.91,0.07-1.35h-1.25
		c0,0.4-0.02,0.81-0.06,1.23L49.65,48.99z"/>
	<path class="st0" d="M37.4,0C16.74,0,0,16.74,0,37.4c0,20.65,16.74,37.39,37.4,37.39s37.4-16.74,37.4-37.39
		C74.79,16.74,58.05,0,37.4,0z M41.19,12.89c0.28,0,0.5,0.22,0.5,0.5c0,0.28-0.22,0.5-0.5,0.5c-0.28,0-0.5-0.22-0.5-0.5
		C40.69,13.12,40.91,12.89,41.19,12.89z M41.19,14.89c0.28,0,0.5,0.22,0.5,0.5c0,0.28-0.22,0.5-0.5,0.5c-0.28,0-0.5-0.22-0.5-0.5
		C40.69,15.12,40.91,14.89,41.19,14.89z M41.19,16.89c0.28,0,0.5,0.22,0.5,0.5c0,0.28-0.22,0.5-0.5,0.5c-0.28,0-0.5-0.22-0.5-0.5
		C40.69,17.12,40.91,16.89,41.19,16.89z M41.19,18.89c0.28,0,0.5,0.22,0.5,0.5c0,0.28-0.22,0.5-0.5,0.5c-0.28,0-0.5-0.22-0.5-0.5
		C40.69,19.12,40.91,18.89,41.19,18.89z M41.19,20.89c0.28,0,0.5,0.22,0.5,0.5c0,0.28-0.22,0.5-0.5,0.5c-0.28,0-0.5-0.22-0.5-0.5
		C40.69,21.12,40.91,20.89,41.19,20.89z M37.19,12.89c0.28,0,0.5,0.22,0.5,0.5c0,0.28-0.22,0.5-0.5,0.5c-0.28,0-0.5-0.22-0.5-0.5
		C36.69,13.12,36.91,12.89,37.19,12.89z M37.19,14.89c0.28,0,0.5,0.22,0.5,0.5c0,0.28-0.22,0.5-0.5,0.5c-0.28,0-0.5-0.22-0.5-0.5
		C36.69,15.12,36.91,14.89,37.19,14.89z M37.19,16.89c0.28,0,0.5,0.22,0.5,0.5c0,0.28-0.22,0.5-0.5,0.5c-0.28,0-0.5-0.22-0.5-0.5
		C36.69,17.12,36.91,16.89,37.19,16.89z M37.19,18.89c0.28,0,0.5,0.22,0.5,0.5c0,0.28-0.22,0.5-0.5,0.5c-0.28,0-0.5-0.22-0.5-0.5
		C36.69,19.12,36.91,18.89,37.19,18.89z M37.19,20.89c0.28,0,0.5,0.22,0.5,0.5c0,0.28-0.22,0.5-0.5,0.5c-0.28,0-0.5-0.22-0.5-0.5
		C36.69,21.12,36.91,20.89,37.19,20.89z M35.19,12.89c0.28,0,0.5,0.22,0.5,0.5c0,0.28-0.22,0.5-0.5,0.5c-0.28,0-0.5-0.22-0.5-0.5
		C34.69,13.12,34.91,12.89,35.19,12.89z M35.19,14.89c0.28,0,0.5,0.22,0.5,0.5c0,0.28-0.22,0.5-0.5,0.5c-0.28,0-0.5-0.22-0.5-0.5
		C34.69,15.12,34.91,14.89,35.19,14.89z M35.19,16.89c0.28,0,0.5,0.22,0.5,0.5c0,0.28-0.22,0.5-0.5,0.5c-0.28,0-0.5-0.22-0.5-0.5
		C34.69,17.12,34.91,16.89,35.19,16.89z M35.19,18.89c0.28,0,0.5,0.22,0.5,0.5c0,0.28-0.22,0.5-0.5,0.5c-0.28,0-0.5-0.22-0.5-0.5
		C34.69,19.12,34.91,18.89,35.19,18.89z M35.19,20.89c0.28,0,0.5,0.22,0.5,0.5c0,0.28-0.22,0.5-0.5,0.5c-0.28,0-0.5-0.22-0.5-0.5
		C34.69,21.12,34.91,20.89,35.19,20.89z M33.19,12.89c0.28,0,0.5,0.22,0.5,0.5c0,0.28-0.22,0.5-0.5,0.5c-0.28,0-0.5-0.22-0.5-0.5
		C32.69,13.12,32.91,12.89,33.19,12.89z M33.19,14.89c0.28,0,0.5,0.22,0.5,0.5c0,0.28-0.22,0.5-0.5,0.5c-0.28,0-0.5-0.22-0.5-0.5
		C32.69,15.12,32.91,14.89,33.19,14.89z M33.19,16.89c0.28,0,0.5,0.22,0.5,0.5c0,0.28-0.22,0.5-0.5,0.5c-0.28,0-0.5-0.22-0.5-0.5
		C32.69,17.12,32.91,16.89,33.19,16.89z M33.19,18.89c0.28,0,0.5,0.22,0.5,0.5c0,0.28-0.22,0.5-0.5,0.5c-0.28,0-0.5-0.22-0.5-0.5
		C32.69,19.12,32.91,18.89,33.19,18.89z M33.19,20.89c0.28,0,0.5,0.22,0.5,0.5c0,0.28-0.22,0.5-0.5,0.5c-0.28,0-0.5-0.22-0.5-0.5
		C32.69,21.12,32.91,20.89,33.19,20.89z M37.4,28.02V27.4c3.78,0,7.23,1.41,9.87,3.72l-7.11,7.11c-0.79-0.52-1.74-0.83-2.75-0.83
		v-0.62H24.88c-0.21,0-0.38-0.17-0.38-0.38c0-0.21,0.17-0.38,0.38-0.38H37.4v-1.25H25.02L22.4,37.4v-10h10l-0.62,0.62H37.4z
		 M32.39,21.48v1.77l-2.65,2.65h-1.77L32.39,21.48z M32.39,24.31v1.59h-1.59L32.39,24.31z M22.39,12.39h1.05l-1.05,1.05V12.39z
		 M22.39,14.51l2.12-2.12h1.77l-3.88,3.88V14.51z M22.39,17.34l4.94-4.94h0.06h1.71l-6.71,6.71V17.34z M22.39,20.17l6.43-6.43
		c-0.08-0.09-0.14-0.21-0.14-0.34c0-0.28,0.22-0.5,0.5-0.5c0.13,0,0.25,0.05,0.34,0.14l0.64-0.64h1.77l-2.54,2.54
		c0.18,0.08,0.3,0.25,0.3,0.46c0,0.28-0.22,0.5-0.5,0.5c-0.2,0-0.38-0.12-0.46-0.3l-6.34,6.34V20.17z M22.39,23l10-10v1.77
		l-2.72,2.72c-0.04,0.2-0.19,0.35-0.39,0.39l-6.89,6.89V23z M22.39,25.82l6.32-6.32c-0.01-0.04-0.02-0.07-0.02-0.11
		c0-0.28,0.22-0.5,0.5-0.5c0.04,0,0.07,0.01,0.11,0.02l3.09-3.09v1.77l-3.33,3.33c0.04-0.01,0.08-0.03,0.12-0.03
		c0.26,0,0.48,0.21,0.49,0.47l2.71-2.71v1.77l-5.47,5.47h-1.77l4.01-4.01c-0.26-0.02-0.47-0.23-0.47-0.49
		c0-0.04,0.01-0.08,0.03-0.12l-4.62,4.62h-1.7V25.82z M23.39,52.74c-0.64-1.66-1-3.46-1-5.35h1V52.74z M25.39,56.37
		c-0.46-0.62-0.89-1.26-1.25-1.95V47.4h1.25V56.37z M27.39,58.55c-0.44-0.4-0.86-0.81-1.25-1.26v-9.9h1.25V58.55z M29.39,60.07
		c-0.43-0.27-0.85-0.57-1.25-0.88V47.4h1.25V60.07z M31.39,61.14c-0.43-0.19-0.84-0.39-1.25-0.61V47.4h1.25V61.14z M33.39,61.84
		c-0.43-0.12-0.84-0.25-1.25-0.41V47.4h0.25c0,1.12,0.38,2.14,1,2.97V61.84z M35.39,62.25c-0.42-0.06-0.84-0.12-1.25-0.21V51.16
		c0.38,0.32,0.79,0.61,1.25,0.81V62.25z M52.4,47.4h-0.62c0,0.46-0.02,0.94-0.07,1.42c-0.01,0.06-0.02,0.13-0.03,0.19l-0.03,0.23
		c-0.04,0.32-0.08,0.64-0.15,0.96c-0.02,0.08-0.03,0.16-0.05,0.23l-0.06,0.23c-0.07,0.29-0.14,0.59-0.23,0.88
		c-0.03,0.09-0.06,0.19-0.09,0.28L51,52c-0.1,0.29-0.2,0.57-0.31,0.85c-0.03,0.08-0.07,0.17-0.11,0.25l-0.07,0.16
		c-0.13,0.28-0.26,0.56-0.4,0.84l-0.2,0.35c-0.16,0.29-0.33,0.57-0.51,0.84l-0.19,0.28c-0.2,0.29-0.41,0.58-0.68,0.9l-0.12,0.14
		c-2.75,3.28-6.76,5.15-11.02,5.15h0v0.62c-0.42,0-0.84-0.03-1.25-0.06v-0.57c-0.18-0.02-0.33-0.18-0.33-0.37
		c0-0.19,0.14-0.34,0.33-0.37v-1.27c-0.18-0.02-0.33-0.18-0.33-0.37c0-0.19,0.14-0.34,0.33-0.37v-1.27
		c-0.18-0.02-0.33-0.18-0.33-0.37c0-0.19,0.14-0.34,0.33-0.37v-1.27c-0.18-0.02-0.33-0.18-0.33-0.37c0-0.19,0.14-0.34,0.33-0.37
		v-1.27c-0.18-0.02-0.33-0.18-0.33-0.37c0-0.19,0.14-0.34,0.33-0.37v-0.81c0.4,0.1,0.82,0.18,1.25,0.18v0.62h0
		c3.1,0,5.62-2.52,5.62-5.62H42.4v-3.19h10V47.4z M47.4,42.4h-5c0-1.02-0.31-1.96-0.83-2.75l7.11-7.11
		c2.31,2.64,3.72,6.08,3.72,9.87H47.4z M43.63,21.16c0.04,0.07,0.06,0.15,0.06,0.23c0,0.28-0.22,0.5-0.5,0.5
		c-0.08,0-0.16-0.03-0.23-0.06L42.4,22.4v-10h10L43.63,21.16z"/>
	<path class="st0" d="M37.4,53.77v-0.75h-1.2c-0.02,0-0.03,0.01-0.05,0.01v0.73c0.02,0,0.03,0.01,0.05,0.01H37.4z"/>
	<path class="st0" d="M37.4,55.77v-0.75h-1.2c-0.02,0-0.03,0.01-0.05,0.01v0.73c0.02,0,0.03,0.01,0.05,0.01H37.4z"/>
	<path class="st0" d="M37.4,57.77v-0.75h-1.2c-0.02,0-0.03,0.01-0.05,0.01v0.73c0.02,0,0.03,0.01,0.05,0.01H37.4z"/>
	<path class="st0" d="M37.4,59.77L37.4,59.77c-0.21,0-0.37-0.17-0.37-0.38c0-0.21,0.17-0.37,0.37-0.38l0,0h-1.2
		c-0.02,0-0.03,0.01-0.05,0.01v0.73c0.02,0,0.03,0.01,0.05,0.01H37.4z"/>
	<path class="st0" d="M37.77,59.4c0-0.21-0.17-0.38-0.38-0.38c0,0,0,0,0,0v0.75c0,0,0,0,0,0C37.6,59.77,37.77,59.6,37.77,59.4z"/>
	<path class="st0" d="M37.02,61.4c0-0.21,0.17-0.37,0.37-0.38l0,0h-1.2c-0.02,0-0.03,0.01-0.05,0.01v0.73
		c0.02,0,0.03,0.01,0.05,0.01h1.2l0,0C37.19,61.77,37.02,61.6,37.02,61.4z"/>
	<path class="st0" d="M37.77,61.4c0-0.21-0.17-0.38-0.38-0.38c0,0,0,0,0,0v0.75c0,0,0,0,0,0C37.6,61.77,37.77,61.6,37.77,61.4z"/>
	<path class="st0" d="M43.4,47.02c0.21,0,0.38,0.17,0.38,0.38v-1.21c0-0.21-0.17-0.38-0.38-0.38c-0.21,0-0.38,0.17-0.38,0.38v1.21
		C43.02,47.19,43.19,47.02,43.4,47.02z"/>
	<path class="st0" d="M43.4,47.77c0.21,0,0.38-0.17,0.38-0.38h-0.75C43.02,47.6,43.19,47.77,43.4,47.77z"/>
	<path class="st0" d="M45.4,47.02c0.21,0,0.38,0.17,0.38,0.38v-1.21c0-0.21-0.17-0.38-0.38-0.38c-0.21,0-0.38,0.17-0.38,0.38v1.21
		C45.02,47.19,45.19,47.02,45.4,47.02z"/>
	<path class="st0" d="M45.4,47.77c0.21,0,0.38-0.17,0.38-0.38h-0.75C45.02,47.6,45.19,47.77,45.4,47.77z"/>
	<path class="st0" d="M47.4,47.02c0.21,0,0.38,0.17,0.38,0.38v-1.21c0-0.21-0.17-0.38-0.38-0.38c-0.21,0-0.38,0.17-0.38,0.38v1.21
		C47.02,47.19,47.19,47.02,47.4,47.02z"/>
	<path class="st0" d="M47.4,47.77c0.21,0,0.38-0.17,0.38-0.38h-0.75C47.02,47.6,47.19,47.77,47.4,47.77z"/>
	<path class="st0" d="M49.4,47.02c0.21,0,0.38,0.17,0.38,0.38v-1.21c0-0.21-0.17-0.38-0.38-0.38c-0.21,0-0.38,0.17-0.38,0.38v1.21
		C49.02,47.19,49.19,47.02,49.4,47.02z"/>
	<path class="st0" d="M49.4,47.77c0.21,0,0.38-0.17,0.38-0.38h-0.75C49.02,47.6,49.19,47.77,49.4,47.77z"/>
	<path class="st0" d="M51.4,45.81c-0.21,0-0.38,0.17-0.38,0.38v1.21c0-0.21,0.17-0.38,0.38-0.38c0.21,0,0.38,0.17,0.38,0.38v-1.21
		C51.77,45.98,51.6,45.81,51.4,45.81z"/>
	<path class="st0" d="M51.4,47.77c0.21,0,0.38-0.17,0.38-0.38h-0.75C51.02,47.6,51.19,47.77,51.4,47.77z"/>
	<circle class="st0" cx="43.19" cy="13.39" r="0.5"/>
	<circle class="st0" cx="43.19" cy="15.39" r="0.5"/>
	<circle class="st0" cx="43.19" cy="17.39" r="0.5"/>
	<circle class="st0" cx="43.19" cy="19.39" r="0.5"/>
	<path class="st0" d="M43.19,20.89c-0.28,0-0.5,0.22-0.5,0.5c0,0.19,0.11,0.35,0.27,0.44l0.67-0.67
		C43.54,21.01,43.38,20.89,43.19,20.89z"/>
	<path class="st0" d="M29.19,13.89c0.28,0,0.5-0.22,0.5-0.5c0-0.14-0.06-0.27-0.16-0.36l-0.7,0.7
		C28.92,13.83,29.05,13.89,29.19,13.89z"/>
	<path class="st0" d="M28.69,15.39c0,0.07,0.02,0.14,0.04,0.2l0.66-0.66c-0.06-0.03-0.13-0.04-0.2-0.04
		C28.91,14.89,28.69,15.12,28.69,15.39z"/>
	<path class="st0" d="M29.19,16.89c-0.28,0-0.5,0.22-0.5,0.5c0,0.28,0.22,0.5,0.5,0.5c0.03,0,0.06-0.01,0.09-0.02l0.39-0.39
		c0.01-0.03,0.02-0.06,0.02-0.09C29.69,17.12,29.47,16.89,29.19,16.89z"/>
	<path class="st0" d="M29.19,19.89c0.28,0,0.5-0.22,0.5-0.5c0-0.24-0.17-0.43-0.39-0.48l-0.59,0.59
		C28.76,19.73,28.95,19.89,29.19,19.89z"/>
	<path class="st0" d="M28.72,21.27l0.35-0.35C28.89,20.97,28.76,21.1,28.72,21.27z"/>
	<path class="st0" d="M29.19,21.89c0.28,0,0.5-0.22,0.5-0.5c0-0.01-0.01-0.02-0.01-0.03l-0.53,0.53
		C29.17,21.89,29.18,21.89,29.19,21.89z"/>
	<path class="st0" d="M38.33,28.77c0.21,0,0.38-0.17,0.38-0.38c0-0.21-0.17-0.38-0.38-0.38H37.4v0.75H38.33z"/>
	<path class="st0" d="M24.5,28.4c0,0.21,0.17,0.38,0.38,0.38h6.14l0.75-0.75h-6.89C24.67,28.02,24.5,28.19,24.5,28.4z"/>
	<path class="st0" d="M38.7,34.4c0-0.21-0.17-0.38-0.38-0.38H37.4v0.75h0.93C38.53,34.77,38.7,34.6,38.7,34.4z"/>
	<path class="st0" d="M24.88,34.02c-0.21,0-0.38,0.17-0.38,0.38c0,0.21,0.17,0.38,0.38,0.38h0.14l0.75-0.75H24.88z"/>
	<path class="st0" d="M38.7,36.4c0-0.21-0.17-0.38-0.38-0.38H37.4v0.75h0.93C38.53,36.77,38.7,36.6,38.7,36.4z"/>
	<path class="st0" d="M38.33,30.77c0.21,0,0.38-0.17,0.38-0.38c0-0.21-0.17-0.38-0.38-0.38H37.4v0.75H38.33z"/>
	<path class="st0" d="M24.88,30.02c-0.21,0-0.38,0.17-0.38,0.38c0,0.21,0.17,0.38,0.38,0.38h4.14l0.75-0.75H24.88z"/>
	<path class="st0" d="M37.4,32.77h0.93c0.21,0,0.38-0.17,0.38-0.38c0-0.21-0.17-0.38-0.38-0.38H37.4v0.38V32.77z"/>
	<path class="st0" d="M24.88,32.02c-0.21,0-0.38,0.17-0.38,0.38c0,0.21,0.17,0.38,0.38,0.38h2.14l0.75-0.75H24.88z"/>
</g>
</svg>
