<svg id="Layer_1" data-name="Layer 1" xmlns="http://www.w3.org/2000/svg" viewBox="0 0 74.79 74.79"><defs><style>.cls-1{fill:#252944;}</style></defs><title>6</title><path class="cls-1" d="M51.08,41.25,51,41c0-.31-.08-.62-.14-.92a1.42,1.42,0,0,0,0-.2l-.06-.24c-.07-.28-.13-.56-.22-.84,0-.08,0-.15-.07-.23l-.07-.19c-.09-.27-.18-.54-.29-.81L50,37.36,50,37.21c-.13-.27-.25-.54-.39-.8l-.19-.34c-.15-.27-.31-.53-.48-.79L48.74,35c-.19-.27-.39-.54-.64-.85L48,34a13.58,13.58,0,0,0-10.44-4.87v1.25A12.36,12.36,0,0,1,47,34.82l.1.13c.23.28.41.52.58.77l.18.27c.14.21.29.45.43.7l.18.34a6.37,6.37,0,0,1,.33.69l.15.33c.11.26.2.51.28.75l.12.37c.08.26.14.51.2.75l.09.4c.06.29.1.56.13.83l.05.36a11,11,0,0,1,.07,1.25h1.25a12.46,12.46,0,0,0-.07-1.35A.78.78,0,0,0,51.08,41.25Z" transform="translate(-0.18 -0.37)"/><path class="cls-1" d="M49.06,41.27c0-.28-.07-.54-.12-.79l-.09-.36c-.06-.26-.11-.49-.18-.72l-.12-.35c-.08-.24-.16-.47-.26-.71L48.15,38c-.1-.22-.21-.45-.31-.64l-.18-.33c-.13-.22-.26-.45-.39-.65l-.18-.25c-.16-.24-.33-.47-.54-.73l-.1-.12a11.6,11.6,0,0,0-8.91-4.16v1.25a10.37,10.37,0,0,1,8,3.72l.08.1c.19.23.34.44.49.65l.16.25c.11.16.23.36.35.56l.18.33c.06.13.16.33.25.54l.12.26c.09.23.16.43.23.64l.11.32c.06.19.1.38.15.57l.1.42c0,.18.06.38.09.58l0,.37a10.12,10.12,0,0,1,.06,1.06h1.25a11.37,11.37,0,0,0-.06-1.15Z" transform="translate(-0.18 -0.37)"/><path class="cls-1" d="M24.06,27.76v8.47a14.56,14.56,0,0,1,1.25-2.12V27.76Z" transform="translate(-0.18 -0.37)"/><path class="cls-1" d="M28.06,27.76v3.39a13,13,0,0,1,1.25-.92V27.76Z" transform="translate(-0.18 -0.37)"/><path class="cls-1" d="M26.06,27.76v5.36a12.75,12.75,0,0,1,1.25-1.3V27.76Z" transform="translate(-0.18 -0.37)"/><path class="cls-1" d="M47.06,41.42c0-.18,0-.36-.07-.51l-.08-.34c-.06-.25-.1-.42-.15-.58l-.1-.3c-.07-.2-.14-.39-.22-.59l-.11-.26c-.09-.19-.18-.37-.23-.49L45.92,38c-.1-.19-.22-.37-.31-.52l-.16-.23c-.13-.2-.28-.39-.45-.61l-.08-.1a9.62,9.62,0,0,0-7.38-3.44v1.25a8.38,8.38,0,0,1,8.38,8.37h1.25c0-.31,0-.62-.05-1Z" transform="translate(-0.18 -0.37)"/><path class="cls-1" d="M37.57.37A37.39,37.39,0,1,0,75,37.76,37.39,37.39,0,0,0,37.57.37Zm9.27,12.89a.5.5,0,0,1,0,1,.5.5,0,0,1,0-1Zm0,2a.5.5,0,0,1,0,1,.5.5,0,1,1,0-1Zm0,2a.5.5,0,0,1,0,1,.5.5,0,0,1,0-1Zm0,2a.5.5,0,0,1,0,1,.5.5,0,0,1,0-1Zm0,2a.5.5,0,0,1,0,1,.5.5,0,0,1,0-1Zm-4-8a.5.5,0,0,1,0,1,.5.5,0,0,1,0-1Zm0,2a.5.5,0,0,1,0,1,.5.5,0,1,1,0-1Zm0,2a.5.5,0,0,1,0,1,.5.5,0,0,1,0-1Zm0,2a.5.5,0,0,1,0,1,.5.5,0,0,1,0-1Zm0,2a.5.5,0,0,1,0,1,.5.5,0,0,1,0-1Zm-2-8a.5.5,0,0,1,0,1,.5.5,0,0,1,0-1Zm0,2a.5.5,0,0,1,0,1,.5.5,0,1,1,0-1Zm0,2a.5.5,0,0,1,0,1,.5.5,0,0,1,0-1Zm0,2a.5.5,0,0,1,0,1,.5.5,0,0,1,0-1Zm0,2a.5.5,0,0,1,0,1,.5.5,0,0,1,0-1Zm-2-8a.5.5,0,0,1,0,1,.5.5,0,0,1,0-1Zm0,2a.5.5,0,0,1,0,1,.5.5,0,1,1,0-1Zm0,2a.5.5,0,0,1,0,1,.5.5,0,0,1,0-1Zm0,2a.5.5,0,0,1,0,1,.5.5,0,0,1,0-1Zm0,2a.5.5,0,0,1,0,1,.5.5,0,0,1,0-1Zm-1.3-8.5v2.5L35.23,13A16.11,16.11,0,0,1,37.54,12.76Zm-5.38,1,4.28,4.28a.51.51,0,0,1-.1-.29.49.49,0,0,1,.39-.48L33,13.5a13.62,13.62,0,0,1,1.39-.38l2.23,2.23a.51.51,0,0,1,.27-.09.5.5,0,0,1,.5.5.51.51,0,0,1-.09.27l.29.29v1.77l-.22-.23a.49.49,0,0,1-.48.4.48.48,0,0,1-.29-.1l1,1v1.77l-.66-.67h0a.5.5,0,0,1-.5-.5.06.06,0,0,1,0,0l-5.42-5.41Q31.53,14,32.16,13.77Zm-1.91.91,6.58,6.58h0a.5.5,0,0,1,.5.5h0l.21.21v.78a5.27,5.27,0,0,0-.89.09l-7.5-7.49C29.51,15.12,29.87,14.89,30.25,14.68ZM28.53,15.8l7.29,7.28a5.49,5.49,0,0,0-1,.51l-7.11-7.11C28,16.24,28.24,16,28.53,15.8ZM23.1,52.62a.51.51,0,0,1,.15-.36,14.87,14.87,0,0,1-.71-4.5h10a4.91,4.91,0,0,0,.84,2.75l-1.64,1.64a.48.48,0,0,1,.36.47.51.51,0,0,1-.5.5.48.48,0,0,1-.47-.36l-4.87,4.87a15.34,15.34,0,0,1-2.73-4.53A.49.49,0,0,1,23.1,52.62Zm.5-6.5a.5.5,0,0,1,.5.5.51.51,0,0,1-.5.5.5.5,0,0,1-.5-.5A.5.5,0,0,1,23.6,46.12Zm2,0a.5.5,0,0,1,.5.5.51.51,0,0,1-.5.5.5.5,0,0,1-.5-.5A.5.5,0,0,1,25.6,46.12Zm2,0a.5.5,0,0,1,.5.5.51.51,0,0,1-.5.5.5.5,0,0,1-.5-.5A.5.5,0,0,1,27.6,46.12Zm2,0a.5.5,0,0,1,.5.5.51.51,0,0,1-.5.5.5.5,0,0,1-.5-.5A.5.5,0,0,1,29.6,46.12Zm2,0a.5.5,0,0,1,.5.5.51.51,0,0,1-.5.5.5.5,0,0,1-.5-.5A.5.5,0,0,1,31.6,46.12Zm5.94,11.64v5A14.92,14.92,0,0,1,27.68,59l7.11-7.11a5,5,0,0,0,2.75.83Zm1.84,4.88v-.77l.65.66Zm1.55-.28-1.55-1.55V59L42.3,62C41.85,62.12,41.39,62.25,40.93,62.36Zm2.15-.68L39.38,58V56.21l4.92,4.92A13.37,13.37,0,0,1,43.08,61.68ZM45,60.76l-5.61-5.61V53.38l6.69,6.7C45.72,60.32,45.36,60.55,45,60.76Zm1.7-1.13-7.26-7.25a5.2,5.2,0,0,0,1.12-.65l7.1,7.1C47.34,59.11,47,59.38,46.69,59.63Zm1.5-1.33-7.07-7.06a5.81,5.81,0,0,0,.76-1L49,57.38C48.76,57.7,48.48,58,48.19,58.3Zm1.32-1.5-7.29-7.29a5.06,5.06,0,0,0,.3-1.47l7.71,7.71Q49.89,56.29,49.51,56.8Zm1.11-1.72L43.3,47.76h1.77l6.14,6.15C51,54.31,50.83,54.7,50.62,55.08Zm.92-1.91-5.41-5.41H47.9L52,51.84C51.85,52.29,51.7,52.74,51.54,53.17ZM52.18,51,49,47.76h1.76l1.72,1.71A15.06,15.06,0,0,1,52.18,51Zm.33-2.5-.73-.73h.76C52.54,48,52.52,48.24,52.51,48.49Zm.09-2.37h-10V42.76h.57a5.63,5.63,0,0,0-5.63-5.62v.62a5,5,0,0,0-5,5h-.47a.5.5,0,0,1-.47.36.49.49,0,0,1-.47-.36H30.07a.5.5,0,0,1-.47.36.49.49,0,0,1-.47-.36H28.07a.5.5,0,0,1-.47.36.49.49,0,0,1-.47-.36H26.07a.5.5,0,0,1-.47.36.49.49,0,0,1-.47-.36H24.07a.5.5,0,0,1-.47.36.49.49,0,0,1-.47-.36h-.59a14.94,14.94,0,0,1,.77-4.7V27.76h-.77a14.91,14.91,0,0,1,3.73-9.86L33.38,25a4.91,4.91,0,0,0-.84,2.75h-.48v1a14.89,14.89,0,0,1,5.48-1v.63a14.34,14.34,0,0,1,11,5.15l.12.14c.27.33.48.61.68.9l.19.29q.27.41.51.84l.19.34c.15.28.28.57.41.85l.06.13.12.28a8.64,8.64,0,0,1,.31.85l.06.16a2.9,2.9,0,0,1,.09.28c.09.3.16.59.23.89l0,.19c0,.12,0,.19.06.27.06.32.11.64.15,1l0,.2,0,.22a13.77,13.77,0,0,1,.07,1.42h.68Z" transform="translate(-0.18 -0.37)"/><path class="cls-1" d="M37.54,35.14v1.25a6.38,6.38,0,0,1,6.38,6.37h1.25A7.63,7.63,0,0,0,37.54,35.14Z" transform="translate(-0.18 -0.37)"/><path class="cls-1" d="M30.06,27.76v2a13.42,13.42,0,0,1,1.25-.65V27.76Z" transform="translate(-0.18 -0.37)"/><path class="cls-1" d="M31.1,52.62a.32.32,0,0,0,0,.14l.61-.61a.32.32,0,0,0-.14,0A.5.5,0,0,0,31.1,52.62Z" transform="translate(-0.18 -0.37)"/><circle class="cls-1" cx="29.42" cy="52.25" r="0.5"/><circle class="cls-1" cx="27.42" cy="52.25" r="0.5"/><circle class="cls-1" cx="25.42" cy="52.25" r="0.5"/><path class="cls-1" d="M24.1,52.62a.5.5,0,0,0-.5-.5.48.48,0,0,0-.35.14c.09.28.18.57.28.84l.07,0A.51.51,0,0,0,24.1,52.62Z" transform="translate(-0.18 -0.37)"/><circle class="cls-1" cx="31.42" cy="50.25" r="0.5"/><circle class="cls-1" cx="29.42" cy="50.25" r="0.5"/><circle class="cls-1" cx="27.42" cy="50.25" r="0.5"/><circle class="cls-1" cx="25.42" cy="50.25" r="0.5"/><circle class="cls-1" cx="23.42" cy="50.25" r="0.5"/><circle class="cls-1" cx="31.42" cy="48.25" r="0.5"/><circle class="cls-1" cx="29.42" cy="48.25" r="0.5"/><circle class="cls-1" cx="27.42" cy="48.25" r="0.5"/><circle class="cls-1" cx="25.42" cy="48.25" r="0.5"/><circle class="cls-1" cx="23.42" cy="48.25" r="0.5"/><path class="cls-1" d="M31.6,42.12a.5.5,0,0,0-.5.5.35.35,0,0,0,0,.14h.94a.7.7,0,0,0,0-.14A.5.5,0,0,0,31.6,42.12Z" transform="translate(-0.18 -0.37)"/><path class="cls-1" d="M29.6,42.12a.5.5,0,0,0-.5.5.35.35,0,0,0,0,.14h.94a.7.7,0,0,0,0-.14A.5.5,0,0,0,29.6,42.12Z" transform="translate(-0.18 -0.37)"/><path class="cls-1" d="M27.6,42.12a.5.5,0,0,0-.5.5.35.35,0,0,0,0,.14h.94a.7.7,0,0,0,0-.14A.5.5,0,0,0,27.6,42.12Z" transform="translate(-0.18 -0.37)"/><path class="cls-1" d="M25.6,42.12a.5.5,0,0,0-.5.5.35.35,0,0,0,0,.14h.94a.7.7,0,0,0,0-.14A.5.5,0,0,0,25.6,42.12Z" transform="translate(-0.18 -0.37)"/><path class="cls-1" d="M23.6,42.12a.5.5,0,0,0-.5.5.35.35,0,0,0,0,.14h.94a.7.7,0,0,0,0-.14A.5.5,0,0,0,23.6,42.12Z" transform="translate(-0.18 -0.37)"/><path class="cls-1" d="M36.34,21.76a.5.5,0,1,0,1,0l-.5-.51A.51.51,0,0,0,36.34,21.76Z" transform="translate(-0.18 -0.37)"/><path class="cls-1" d="M37.34,19.76a.5.5,0,0,0-.5-.5.49.49,0,0,0-.49.46l.53.53A.5.5,0,0,0,37.34,19.76Z" transform="translate(-0.18 -0.37)"/><path class="cls-1" d="M36.55,18.16l-.11-.11Z" transform="translate(-0.18 -0.37)"/><path class="cls-1" d="M37.34,17.76a.5.5,0,0,0-.5-.5l-.11,0,.59.58S37.34,17.8,37.34,17.76Z" transform="translate(-0.18 -0.37)"/><path class="cls-1" d="M36.34,15.76a.5.5,0,0,0,.5.5.51.51,0,0,0,.41-.23l-.68-.68A.47.47,0,0,0,36.34,15.76Z" transform="translate(-0.18 -0.37)"/><circle class="cls-1" cx="36.66" cy="13.4" r="0.5"/><path class="cls-1" d="M31.31,39.49a.37.37,0,0,0,.37.37.38.38,0,0,0,.38-.37V28.81c-.26.1-.51.21-.75.32Z" transform="translate(-0.18 -0.37)"/><path class="cls-1" d="M31.68,25.66a.37.37,0,0,0-.37.37v1.73h.75V26A.38.38,0,0,0,31.68,25.66Z" transform="translate(-0.18 -0.37)"/><path class="cls-1" d="M25.31,39.49a.37.37,0,0,0,.37.37.38.38,0,0,0,.38-.37V33.12a11.7,11.7,0,0,0-.75,1Z" transform="translate(-0.18 -0.37)"/><path class="cls-1" d="M26.06,26a.38.38,0,0,0-.38-.37.37.37,0,0,0-.37.37v1.73h.75Z" transform="translate(-0.18 -0.37)"/><path class="cls-1" d="M23.68,39.86a.38.38,0,0,0,.38-.37V36.23a13.26,13.26,0,0,0-.75,1.83v1.43A.37.37,0,0,0,23.68,39.86Z" transform="translate(-0.18 -0.37)"/><path class="cls-1" d="M24.06,26a.38.38,0,0,0-.38-.37.37.37,0,0,0-.37.37v1.73h.75Z" transform="translate(-0.18 -0.37)"/><path class="cls-1" d="M29.31,39.49a.37.37,0,0,0,.37.37.38.38,0,0,0,.38-.37V29.78q-.39.21-.75.45Z" transform="translate(-0.18 -0.37)"/><path class="cls-1" d="M30.06,26a.38.38,0,0,0-.38-.37.37.37,0,0,0-.37.37v1.73h.75Z" transform="translate(-0.18 -0.37)"/><path class="cls-1" d="M27.31,39.49a.37.37,0,0,0,.37.37.38.38,0,0,0,.38-.37V31.15a9.67,9.67,0,0,0-.75.67Z" transform="translate(-0.18 -0.37)"/><path class="cls-1" d="M28.06,27.76V26a.38.38,0,0,0-.38-.37.37.37,0,0,0-.37.37v1.73h.75Z" transform="translate(-0.18 -0.37)"/><polygon class="cls-1" points="50.99 42.4 50.99 42.4 50.99 42.4 50.99 42.4"/><polygon class="cls-1" points="51.74 42.4 51.74 42.4 51.74 42.4 51.74 42.4"/><path class="cls-1" d="M36.34,36.39a.37.37,0,0,0-.38.37.38.38,0,0,0,.38.38h1.2v-.75Z" transform="translate(-0.18 -0.37)"/><polygon class="cls-1" points="42.99 42.4 42.99 42.4 42.99 42.4 42.99 42.4"/><polygon class="cls-1" points="43.74 42.4 43.74 42.4 43.74 42.4 43.74 42.4"/><polygon class="cls-1" points="48.99 42.4 48.99 42.4 48.99 42.4 48.99 42.4"/><polygon class="cls-1" points="49.74 42.4 49.74 42.4 49.74 42.4 49.74 42.4"/><path class="cls-1" d="M36.34,34.39a.37.37,0,0,0-.38.37.38.38,0,0,0,.38.38h1.2v-.75Z" transform="translate(-0.18 -0.37)"/><polygon class="cls-1" points="44.99 42.4 44.99 42.4 44.99 42.4 44.99 42.4"/><polygon class="cls-1" points="45.74 42.4 45.74 42.4 45.74 42.4 45.74 42.4"/><path class="cls-1" d="M36.34,32.39a.37.37,0,0,0-.38.37.38.38,0,0,0,.38.38h1.2v-.75Z" transform="translate(-0.18 -0.37)"/><polygon class="cls-1" points="47.74 42.4 47.74 42.4 47.74 42.4 47.74 42.4"/><polygon class="cls-1" points="46.99 42.4 46.99 42.4 46.99 42.4 46.99 42.4"/><path class="cls-1" d="M37.17,30.76a.37.37,0,0,1,.37-.37h-1.2a.37.37,0,0,0-.38.37.38.38,0,0,0,.38.38h1.2A.38.38,0,0,1,37.17,30.76Z" transform="translate(-0.18 -0.37)"/><path class="cls-1" d="M37.92,30.76a.37.37,0,0,0-.38-.37v.75A.38.38,0,0,0,37.92,30.76Z" transform="translate(-0.18 -0.37)"/><path class="cls-1" d="M36,28.76a.38.38,0,0,0,.38.38h1.2a.38.38,0,0,1-.37-.38.37.37,0,0,1,.37-.37h-1.2A.37.37,0,0,0,36,28.76Z" transform="translate(-0.18 -0.37)"/><path class="cls-1" d="M37.92,28.76a.37.37,0,0,0-.38-.37v.75A.38.38,0,0,0,37.92,28.76Z" transform="translate(-0.18 -0.37)"/><path class="cls-1" d="M43.54,43.14a.38.38,0,0,1-.37-.38V44a.38.38,0,0,0,.75,0V42.76A.38.38,0,0,1,43.54,43.14Z" transform="translate(-0.18 -0.37)"/><path class="cls-1" d="M43.54,42.39a.37.37,0,0,0-.37.37h.75A.37.37,0,0,0,43.54,42.39Z" transform="translate(-0.18 -0.37)"/><path class="cls-1" d="M45.54,43.14a.38.38,0,0,1-.37-.38V44a.38.38,0,0,0,.75,0V42.76A.38.38,0,0,1,45.54,43.14Z" transform="translate(-0.18 -0.37)"/><path class="cls-1" d="M45.54,42.39a.37.37,0,0,0-.37.37h.75A.37.37,0,0,0,45.54,42.39Z" transform="translate(-0.18 -0.37)"/><path class="cls-1" d="M47.54,43.14a.38.38,0,0,1-.37-.38V44a.38.38,0,0,0,.75,0V42.76A.38.38,0,0,1,47.54,43.14Z" transform="translate(-0.18 -0.37)"/><path class="cls-1" d="M47.54,42.39a.37.37,0,0,0-.37.37h.75A.37.37,0,0,0,47.54,42.39Z" transform="translate(-0.18 -0.37)"/><path class="cls-1" d="M49.54,43.14a.38.38,0,0,1-.37-.38V44a.38.38,0,0,0,.75,0V42.76A.38.38,0,0,1,49.54,43.14Z" transform="translate(-0.18 -0.37)"/><path class="cls-1" d="M49.54,42.39a.37.37,0,0,0-.37.37h.75A.37.37,0,0,0,49.54,42.39Z" transform="translate(-0.18 -0.37)"/><path class="cls-1" d="M51.54,43.14a.38.38,0,0,1-.37-.38V44a.38.38,0,0,0,.75,0V42.76A.38.38,0,0,1,51.54,43.14Z" transform="translate(-0.18 -0.37)"/><path class="cls-1" d="M51.54,42.39a.37.37,0,0,0-.37.37h.75A.37.37,0,0,0,51.54,42.39Z" transform="translate(-0.18 -0.37)"/></svg>