<svg xmlns="http://www.w3.org/2000/svg" viewBox="0 0 100 162"><title>week-37</title><path d="M328.72,71.9q26.16,16.56,26.16,47.39,0,26.42-17.63,41.83t-48.72,15.41q-46.75,0-46.75-23.88a14.64,14.64,0,0,1,3.85-10.43,12.87,12.87,0,0,1,9.8-4.1q11.74,0,12.25,11.75A40.87,40.87,0,0,0,288,155.05q19.71,0,30.58-9.48T329.48,119q0-22.62-19.46-33.62a33.15,33.15,0,0,0-12.14-4.17l-10.86-1q-13.65-1.77-13.65-12.51,0-11.12,10.87-11.12,4.17,0,20.59,4.68,16.31,0,16.31-20.47t-22-20.35q-4.42,0-12.2,2.4t-10.8,2.4q-9.36,0-9.35-11.12,0-6.32,9.6-10.23T303.07,0q19.57,0,31.4,11.18t11.81,28.63q0,18.69-17.56,32.09Z" fill="#fff"/><path d="M426.27,3.29q72.15,0,72.16,21.48,0,5.57-3.29,15.79a319.6,319.6,0,0,1-51.81,97.05q-16.17,21-32.85,34.37-14,11.25-20,11.25a10.08,10.08,0,0,1-7.39-3.29,10.22,10.22,0,0,1-3.22-7.32q0-5.56,16.07-22Q406.59,140,427,117.27,455.21,82.77,470,34.12a128.94,128.94,0,0,0-44.22-7.46,194.18,194.18,0,0,0-35,3.29,30,30,0,0,1,.26,4.42q0,18.2-15.55,18.2-11.62,0-11.62-23.13,0-13.14,10.11-17.56,19.46-8.6,52.31-8.59Z" fill="#fff"/><path d="M250,252.53c1.35,9.53,2,20.61-2.31,30.2-3.32,7.35-8.71,11.76-16.41,13.33-9.44,1.93-17.2-1.21-23.61-9.62-3.19,8.43-7.54,13.38-13.33,14.95-7.73,2.1-15.38-.06-23.1-6.52-9.52-8-15.65-19.53-19.41-31.18-2.69-8.31-9.14-27.92.63-32.09a6.92,6.92,0,0,1,5.24.3,5.37,5.37,0,0,1,3.25,3.46c-.08-.28.18,2.4.81,8a96.59,96.59,0,0,0,3.59,17.15c2.89,9.59,7,16.9,12.09,22,4.74,4.72,9.19,6.5,13.5,5.33,3-.82,5.2-3.12,6.56-6.94s1.42-8.33.12-13.54a102.3,102.3,0,0,0-3.76-11.26,102.27,102.27,0,0,1-3.5-10.08c-1.35-5.32.47-8.63,5.47-9.84s8.3,1.09,9.61,6.84c.2.87.51,2.39.94,4.55s.77,3.83,1,5q3.86,16.89,5.71,21.17c3.68,8.6,8.64,12.18,15,10.87,4.15-.85,7-3.55,8.78-8.16s1.94-10.68.58-18.2a109.64,109.64,0,0,0-7.7-25.06c-3.62-8.16-5.53-12.41-5.59-12.77-.62-3.19,1-5.18,4.93-5.89,4.41-.8,8.55,2.05,12.17,8.48C246.3,232.06,248.61,243,250,252.53Z" fill="#fff"/><path d="M327.37,232.6c.14,4.23-1.37,7.41-4.48,9.57-1.39,1-5.85,2.27-13.28,4.16a182.08,182.08,0,0,1-25.24,4.95c-3.2.33-7.06.55-11.61.7,1.39,11.82,7.86,22.14,20.92,20.91a16.56,16.56,0,0,0,8.85-3.5,71.86,71.86,0,0,0,6.9-7,5.76,5.76,0,0,1,3.95-2.13,6.44,6.44,0,0,1,4.78,1.67,6.37,6.37,0,0,1,2.18,4.64,6.15,6.15,0,0,1-1.64,4.35c-5.33,6.93-16,12.54-24.49,13.23-19.32,1.57-31.52-11.72-34.42-29.93-1.51-9.48.79-23,6.16-31.14,6.28-9.56,16.58-16.46,28.28-17.36,9.31-.72,17.25,1.51,23.49,6.64S327.1,224.27,327.37,232.6ZM314,233.91c-.57-5.63-2.45-10-5.7-13.13a14.75,14.75,0,0,0-11.84-4.12,23.46,23.46,0,0,0-15.26,7.09C277,228,274.1,233.82,272.71,241q4.79-.09,10.13-.64C293.41,239.3,303.72,236.54,314,233.91Z" fill="#fff"/><path d="M404.64,234.82c-.38,4.22-2.27,7.19-5.62,9-1.49.78-6.08,1.54-13.69,2.51a181.81,181.81,0,0,1-25.64,1.86q-4.81-.1-11.59-.73c-.06,11.89,5.08,22.94,18.2,23.3a16.49,16.49,0,0,0,9.2-2.39,74.13,74.13,0,0,0,7.71-6.14,5.76,5.76,0,0,1,4.17-1.64,6.42,6.42,0,0,1,4.54,2.24,6.34,6.34,0,0,1,1.61,4.87,6.16,6.16,0,0,1-2.17,4.12c-6.12,6.23-17.38,10.5-25.9,10.15-19.37-.78-29.81-15.48-30.47-33.89-.35-9.58,3.56-22.7,9.87-30.16,7.39-8.72,18.43-14.32,30.14-13.79,9.32.42,16.94,3.59,22.51,9.45S405.38,226.51,404.64,234.82Zm-13.46-.33c.12-5.66-1.22-10.25-4.07-13.72a14.75,14.75,0,0,0-11.24-5.54,23.48,23.48,0,0,0-16,5.19c-4.71,3.74-8.24,9.13-10.5,16.13q4.77.49,10.12.59C370.12,237.34,380.67,235.85,391.18,234.49Z" fill="#fff"/><path d="M441.09,204.31c0-.08-.71,1.14-2.09,3.65a58.22,58.22,0,0,0-4.18,9.85,96.74,96.74,0,0,0-3.88,17.65q-.72,5.5-1.37,16.75t-1.44,16.93c-.72,5.36-1.74,9.11-3,11.23a5.92,5.92,0,0,1-6.27,3q-3.42-.4-4.2-3a15.47,15.47,0,0,1,0-5.41c.23-2,.53-4.55.92-7.57s.63-5,.75-6.06q.71-6.25,1.26-16.57c.37-6.88.69-11.67,1-14.38,1.2-10.76,3.22-19.12,6.2-24.92,2.85-5.55,6.25-8.11,10-7.63a7.86,7.86,0,0,1,4.72,2.36A4.91,4.91,0,0,1,441.09,204.31Zm46.62,20.85c-.54,2.46-4.17,4.52-10.52,5.88-9,1.93-18.49,3.84-27.63,6.12,7.43,9.33,14.28,19.32,19.41,30,3.66,7.67,5,13.1,4.36,16.13a6.33,6.33,0,0,1-2.72,4,5.61,5.61,0,0,1-4.44,1c-1.66-.34-2.91-1.56-3.79-3.68-2.1-5.31-5.29-12.76-9.84-22.31A98.24,98.24,0,0,0,438,242.22c-2.27-2.46-3.47-3.73-3.54-3.83a7.69,7.69,0,0,1-1.31-5.53c.25-1.86,2-3.38,4.94-4.19,4.05-1.1,8.51-2,12.73-3s10.84-3,20.27-5.61c5.7-1.61,9.45-2.18,11.16-1.83C486.68,219.19,488.5,221.51,487.71,225.16Z" fill="#fff"/><path d="M548.3,250c-1.25,3.87-4.1,5.08-8.54,3.69a4.8,4.8,0,0,1-3.19-2.59c-.38-1-.7-2.19-1.08-3.33a14.38,14.38,0,0,0-9.68-7.93c-7.95-2.25-13,.69-15.07,8.6a12.44,12.44,0,0,0,.23,7.64,28.42,28.42,0,0,0,4.76,7.44c5.51,6.64,8.69,11.16,9.8,13.45a18.36,18.36,0,0,1,1.28,14.18,21.09,21.09,0,0,1-11,13.27c-5.36,2.67-11.32,3.07-18,1.28-6.38-1.71-11.21-4.65-14.58-8.91s-4.43-8.58-3.33-13.43,3.9-6.83,8.38-5.76c3.77.9,5,4.1,3.82,9.54,2.13,4.13,5,6.67,8.66,7.66a11.26,11.26,0,0,0,8.24-.63,9.06,9.06,0,0,0,4.82-5.83c.7-2.42.15-5.06-1.68-7.9,0-.09-2.44-3.26-7.45-9.42-7-8.55-9.64-17-7.6-25.52,1.66-6.92,5.41-12,11.38-15s13-3.46,20.95-1.2c6.53,1.86,11.68,5,15.36,9.37C548.25,242.85,549.41,246.64,548.3,250Z" fill="#fff"/><path d="M172.81,472.85v-5.73h6.1v5.73Zm0,26.57V476h6.1v23.4Z" fill="#fff"/><path d="M183,492.74l6.13-.94a4.54,4.54,0,0,0,1.59,2.74,5.25,5.25,0,0,0,3.34.94,6,6,0,0,0,3.56-.88,2,2,0,0,0,.81-1.66,1.61,1.61,0,0,0-.44-1.16,4.69,4.69,0,0,0-2-.82q-7.38-1.65-9.36-3a6,6,0,0,1-2.74-5.27,6.53,6.53,0,0,1,2.37-5.11q2.37-2.07,7.34-2.07c3.16,0,5.5.52,7,1.56a8.06,8.06,0,0,1,3.17,4.63L198,482.76a3.55,3.55,0,0,0-1.4-2.09,5,5,0,0,0-2.94-.73,6.58,6.58,0,0,0-3.45.68,1.48,1.48,0,0,0-.7,1.26,1.35,1.35,0,0,0,.61,1.12q.83.63,5.7,1.75t6.81,2.75a5.75,5.75,0,0,1,1.91,4.61,7.11,7.11,0,0,1-2.65,5.53c-1.76,1.54-4.38,2.31-7.84,2.31a12.74,12.74,0,0,1-7.46-1.94A9,9,0,0,1,183,492.74Z" fill="#fff"/><path d="M232.85,476V481h-4.17v9.43a24.6,24.6,0,0,0,.11,3.34,1.41,1.41,0,0,0,.55.78,1.72,1.72,0,0,0,1,.31,7.75,7.75,0,0,0,2.45-.6l.53,4.81a12.13,12.13,0,0,1-4.83.92,7.6,7.6,0,0,1-3-.56,4.38,4.38,0,0,1-2-1.46,5.63,5.63,0,0,1-.85-2.41,28.75,28.75,0,0,1-.2-4.36V481h-2.8V476h2.8v-4.65l6.13-3.61V476Z" fill="#fff"/><path d="M243.16,467.12V479a9,9,0,0,1,7.06-3.5,8.86,8.86,0,0,1,3.81.79,6.31,6.31,0,0,1,2.55,2,7.39,7.39,0,0,1,1.17,2.73,24.69,24.69,0,0,1,.32,4.65v13.73H252V487.06a18.11,18.11,0,0,0-.35-4.67,3.09,3.09,0,0,0-1.22-1.58,3.91,3.91,0,0,0-2.21-.58,5,5,0,0,0-2.71.75,4.29,4.29,0,0,0-1.75,2.26,13.58,13.58,0,0,0-.56,4.46v11.72h-6.1v-32.3Z" fill="#fff"/><path d="M277.62,492l6.08,1a10.14,10.14,0,0,1-3.71,5.17,10.75,10.75,0,0,1-6.33,1.77q-6,0-8.9-4a13.54,13.54,0,0,1-2.28-8.06q0-5.82,3-9.12a9.83,9.83,0,0,1,7.58-3.29,10.18,10.18,0,0,1,8.13,3.45q3,3.45,2.84,10.57H268.73a6.3,6.3,0,0,0,1.48,4.28,4.58,4.58,0,0,0,3.52,1.53,3.7,3.7,0,0,0,2.41-.79A5,5,0,0,0,277.62,492Zm.34-6.25a6,6,0,0,0-1.37-4.09,4.13,4.13,0,0,0-3.17-1.4,4.22,4.22,0,0,0-3.3,1.47,5.82,5.82,0,0,0-1.28,4Z" fill="#fff"/><path d="M299.21,492.74l6.12-.94a4.54,4.54,0,0,0,1.59,2.74,5.27,5.27,0,0,0,3.34.94,6.06,6.06,0,0,0,3.57-.88,2,2,0,0,0,.8-1.66,1.6,1.6,0,0,0-.43-1.16,4.8,4.8,0,0,0-2.05-.82q-7.38-1.65-9.36-3a6.07,6.07,0,0,1-2.74-5.27,6.53,6.53,0,0,1,2.37-5.11q2.37-2.07,7.34-2.07,4.74,0,7,1.56a8,8,0,0,1,3.17,4.63l-5.75,1.08a3.64,3.64,0,0,0-1.4-2.09,5,5,0,0,0-2.95-.73,6.6,6.6,0,0,0-3.45.68,1.51,1.51,0,0,0-.7,1.26,1.37,1.37,0,0,0,.61,1.12q.82.63,5.7,1.75t6.81,2.75a5.76,5.76,0,0,1,1.92,4.61,7.14,7.14,0,0,1-2.65,5.53c-1.77,1.54-4.38,2.31-7.85,2.31A12.74,12.74,0,0,1,302.8,498,8.91,8.91,0,0,1,299.21,492.74Z" fill="#fff"/><path d="M326.1,472.85v-5.73h6.1v5.73Zm0,26.57V476h6.1v23.4Z" fill="#fff"/><path d="M336,499.42V494.6l8.64-10.07q2.13-2.47,3.15-3.51c-.71.05-1.64.07-2.8.09l-8.15,0V476h19.07v4.38l-8.81,10.32L344,494.13q2.53-.15,3.15-.15h9.45v5.44Z" fill="#fff"/><path d="M374.06,492l6.09,1a10.2,10.2,0,0,1-3.71,5.17,10.79,10.79,0,0,1-6.33,1.77q-6,0-8.91-4a13.54,13.54,0,0,1-2.28-8.06q0-5.82,3-9.12a9.83,9.83,0,0,1,7.58-3.29,10.19,10.19,0,0,1,8.13,3.45q3,3.45,2.84,10.57H365.18a6.25,6.25,0,0,0,1.48,4.28,4.58,4.58,0,0,0,3.51,1.53,3.73,3.73,0,0,0,2.42-.79A4.9,4.9,0,0,0,374.06,492Zm.35-6.25a6,6,0,0,0-1.37-4.09,4.14,4.14,0,0,0-3.17-1.4,4.22,4.22,0,0,0-3.3,1.47,5.77,5.77,0,0,0-1.28,4Z" fill="#fff"/><path d="M396.39,487.39a12.77,12.77,0,0,1,1.5-6,10.35,10.35,0,0,1,4.25-4.41,12.5,12.5,0,0,1,6.14-1.52,11.43,11.43,0,0,1,8.58,3.45,12,12,0,0,1,3.34,8.71,12.12,12.12,0,0,1-3.38,8.81,11.31,11.31,0,0,1-8.5,3.49,13.22,13.22,0,0,1-6.05-1.45,9.88,9.88,0,0,1-4.38-4.27A14.34,14.34,0,0,1,396.39,487.39Zm6.26.33a7.8,7.8,0,0,0,1.63,5.33,5.28,5.28,0,0,0,8,0,8,8,0,0,0,1.61-5.37,7.82,7.82,0,0,0-1.61-5.29,5.28,5.28,0,0,0-8,0A7.8,7.8,0,0,0,402.65,487.72Z" fill="#fff"/><path d="M422.31,476h3.39v-1.76a11.72,11.72,0,0,1,.62-4.41,4.91,4.91,0,0,1,2.28-2.37,8.62,8.62,0,0,1,4.2-.92,16.67,16.67,0,0,1,5.1.8l-.82,4.32a11.63,11.63,0,0,0-2.8-.36,2.46,2.46,0,0,0-1.9.63,3.66,3.66,0,0,0-.58,2.42V476h4.56v4.87H431.8v18.53h-6.1V480.89h-3.39Z" fill="#fff"/><path d="M516.82,483.16l-5.54-1a8.81,8.81,0,0,1,3.22-5q2.28-1.64,6.77-1.63a14.52,14.52,0,0,1,6.09,1,6,6,0,0,1,2.81,2.49c.54,1,.81,2.85.81,5.54l-.06,7.23a26.05,26.05,0,0,0,.29,4.55,13.29,13.29,0,0,0,1.1,3.14h-6c-.16-.41-.35-1-.59-1.83-.1-.36-.17-.61-.21-.72a11.14,11.14,0,0,1-3.35,2.31,9.52,9.52,0,0,1-3.8.77,7.76,7.76,0,0,1-5.61-2,6.57,6.57,0,0,1-2.06-5,6.69,6.69,0,0,1,.94-3.54,6.21,6.21,0,0,1,2.61-2.38,20.32,20.32,0,0,1,4.86-1.44,32.64,32.64,0,0,0,5.93-1.52v-.62a3.22,3.22,0,0,0-.87-2.54,5.13,5.13,0,0,0-3.28-.76,4.26,4.26,0,0,0-2.54.65A4.5,4.5,0,0,0,516.82,483.16Zm8.17,5a36.4,36.4,0,0,1-3.72.95,11.24,11.24,0,0,0-3.32,1.08,2.57,2.57,0,0,0-1.19,2.18,3,3,0,0,0,1,2.25,3.33,3.33,0,0,0,2.44.95,5.22,5.22,0,0,0,3.14-1.1,3.91,3.91,0,0,0,1.46-2.05,12.38,12.38,0,0,0,.24-3Z" fill="#fff"/><path d="M70.8,1019.06q2.88,9,2.88,25.21,0,15.72-5.61,24.36-5.41,8.34-15,8.34-11.73,0-16.78-12-6,9.25-13.24,9.25-9.64,0-16.17-10.51Q0,1052.51,0,1034.22q0-25.17,7.43-25.17a4.84,4.84,0,0,1,3.48,1.49,4.75,4.75,0,0,1,1.52,3.51q0-.34-1.09,6.57a93.83,93.83,0,0,0-1.08,14.46q0,12.42,4,20.31,3.73,7.27,9,7.28c2.45,0,4.57-1.39,6.34-4.17s2.65-6.39,2.65-10.84a96.39,96.39,0,0,0-.68-9.8c-.46-4.15-.68-7.08-.68-8.8q0-6.82,5.6-6.82t5.71,7.33c0,.74,0,2-.07,3.84s-.08,3.23-.08,4.24q0,14.36.66,18.14,2,11.43,9.7,11.42,5.05,0,8.06-5.23t3-14.73a104.72,104.72,0,0,0-2.27-21.55Q59,1014.92,59,1014.46c0-2.7,1.42-4,4.25-4q4.8,0,7.58,8.64Z" fill="#fff"/><path d="M92.42,1014.26q4.65,0,4.65,5.45,0,30.48-2.17,45c-.57,3.91-1.21,6.53-1.92,7.88a4.6,4.6,0,0,1-4.4,2.68,4.82,4.82,0,0,1-3.43-1.34,4.24,4.24,0,0,1-1.42-3.21q0,.26.81-3.48a90.44,90.44,0,0,0,1.57-9.66,164.87,164.87,0,0,0,.81-17.18q0-4.14-.11-8.74c-.06-3.06-.1-4.73-.1-5q0-6.83,1.17-9.5a4.48,4.48,0,0,1,4.54-2.93Zm6.83-13.8q0,7.18-7,7.18a6.44,6.44,0,0,1-4.77-2,6.52,6.52,0,0,1-2-4.75,7.24,7.24,0,0,1,7.33-7.28,6.09,6.09,0,0,1,4.65,1.87A6.92,6.92,0,0,1,99.25,1000.46Z" fill="#fff"/><path d="M162.16,1042.71a75.69,75.69,0,0,1-3.93,23.9q-2.41,7.38-6,7.38a4.83,4.83,0,0,1-3.28-1.19,3.68,3.68,0,0,1-1.36-2.86q0-.45,2.43-9.22a64.93,64.93,0,0,0,2.43-17.41q0-19.65-12.31-19.65a14.42,14.42,0,0,0-11.49,5.2q-4.6,5.36-4.6,14.15a92.88,92.88,0,0,0,1.39,13.67,92.89,92.89,0,0,1,1.39,12.51q0,8.68-5,8.69-2.52,0-3.48-1.11a8.08,8.08,0,0,1-1.27-3.54q0-3.13-1.26-18.09-2.07-20.92-2.07-29.72,0-15.3,5.91-15.31a4.86,4.86,0,0,1,3.29,1.19,3.55,3.55,0,0,1,1.36,2.75,26.07,26.07,0,0,1-.61,4.2,28,28,0,0,0-.6,5.2v1.17q7.47-10.17,18.19-10.16,9.85,0,15.34,7.3T162.16,1042.71Z" fill="#fff"/><path d="M196.62,1021.38q19.56.66,19.56,8.59a4.36,4.36,0,0,1-1.11,3,3.46,3.46,0,0,1-2.63,1.24,32.82,32.82,0,0,1-5.79-2,26.7,26.7,0,0,0-9.83-2,25.37,25.37,0,0,0-3.18.2,68.48,68.48,0,0,0-1.87,15.11q0,8.84,3,13.59a9.3,9.3,0,0,0,8.29,4.75,12.3,12.3,0,0,0,4.27-1,12.29,12.29,0,0,1,3.81-1q4,0,4,4.75,0,3.08-3.34,5t-9.09,1.92q-21.44,0-21.43-28.55a66.86,66.86,0,0,1,1.47-13.24c-.95.14-3,.52-6.12,1.16a25.76,25.76,0,0,1-4.55.61q-5.4,0-5.4-4.14,0-5.67,18.64-7.38,3.84-12.18,9.4-12.18a3.93,3.93,0,0,1,2.93,1.24,4.13,4.13,0,0,1,1.22,3,9.87,9.87,0,0,1-.76,3.31l-1.52,4Z" fill="#fff"/><path d="M272.52,1033.91c0,3.51-1.21,6.1-3.64,7.79-1.08.74-4.49,1.7-10.26,2.88a99,99,0,0,1-19.55,2.37q-3.69,0-8.9-.5,0,19,14.51,19a12.22,12.22,0,0,0,7.22-2.28,51.2,51.2,0,0,0,5.82-5.4,4.41,4.41,0,0,1,3.18-1.57,4.93,4.93,0,0,1,3.66,1.59,5.41,5.41,0,0,1,1.54,3.92,5.16,5.16,0,0,1-1.46,3.53q-8.7,9.51-20.37,9.5-24.15,0-24.15-27.94,0-14.4,7.68-24.86,8.74-11.88,21.63-11.88a22.09,22.09,0,0,1,16.57,6.72Q272.53,1023.55,272.52,1033.91Zm-33.75,3.95q9.79,0,23.7-3.34-.32-7-3.67-11.12a10.44,10.44,0,0,0-8.41-4.09,16.39,16.39,0,0,0-11.57,4.7q-5.16,4.76-7.69,13.44a68.3,68.3,0,0,0,7.64.41Z" fill="#fff"/><path d="M319.41,1026.69a4.66,4.66,0,0,1-1.16,3.23,3.57,3.57,0,0,1-2.78,1.32c-.81,0-2-.59-3.58-1.77a7.49,7.49,0,0,0-4.3-1.77,9.14,9.14,0,0,0-7.78,4.22q-3,4.21-3,11.39v6.62q0,11.07-2.33,17.59-2.17,6.11-5.61,6.11c-3.06,0-4.6-1.51-4.6-4.55a55.47,55.47,0,0,1,1.42-6.69,46.13,46.13,0,0,0,1.41-10.89q0-14.14-4-22.64c-.07-.17-1-1.87-2.78-5.1a8.94,8.94,0,0,1-1.36-3.94,4.09,4.09,0,0,1,1.57-3,5,5,0,0,1,3.38-1.41q5.36,0,8.89,13.14,5.27-10.11,15.32-10.11a13.27,13.27,0,0,1,8.18,2.35A7.15,7.15,0,0,1,319.41,1026.69Z" fill="#fff"/><path d="M412.6,1013.3q17.07,0,17.08,28.6h0q0,38.7-9.2,38.71c-2.36,0-3.54-1.49-3.54-4.45t1.72-11.55a154.14,154.14,0,0,0,1.72-22.91q0-19.05-9-19.05-7.87,0-10.36,9.6-1.86,7.38-1.86,29a58.41,58.41,0,0,0,.5,7.35c.34,2.68.51,4.26.51,4.73,0,3.33-1.59,5-4.75,5q-5.71,0-5.71-18.24,0-7.68.58-16c.38-5.58.58-8.57.58-9q0-7.49-7.89-7.48a11.19,11.19,0,0,0-10.71,6.62q-3.22,6.42-3.23,20.31,0,8.94.5,16.65t.51,6.49a4.15,4.15,0,0,1-1.39,3.19,5.11,5.11,0,0,1-3.56,1.26q-4.5,0-5.56-8.59-.36-2.47-.36-12.83a233.83,233.83,0,0,1,3.54-41.39c.78-4.31,1.55-7.18,2.33-8.59a4.61,4.61,0,0,1,4.39-2.58q4.76,0,4.75,5.06l-2.27,11.42q4.35-6.12,12.43-6.12a11.69,11.69,0,0,1,10.16,5.36q6.4-10.56,18.09-10.56Z" fill="#fff"/><path d="M492,1033.91c0,3.51-1.21,6.1-3.64,7.79q-1.6,1.11-10.25,2.88a99.19,99.19,0,0,1-19.56,2.37q-3.69,0-8.89-.5,0,19,14.5,19a12.27,12.27,0,0,0,7.23-2.28,52.32,52.32,0,0,0,5.81-5.4,4.41,4.41,0,0,1,3.18-1.57,4.9,4.9,0,0,1,3.66,1.59,5.42,5.42,0,0,1,1.55,3.92,5.12,5.12,0,0,1-1.47,3.53q-8.69,9.51-20.36,9.5-24.17,0-24.16-27.94,0-14.4,7.68-24.86,8.75-11.88,21.63-11.88a22.09,22.09,0,0,1,16.57,6.72Q492,1023.55,492,1033.91Zm-33.75,3.95q9.79,0,23.7-3.34-.31-7-3.67-11.12a10.44,10.44,0,0,0-8.41-4.09,16.39,16.39,0,0,0-11.57,4.7q-5.16,4.76-7.68,13.44a68,68,0,0,0,7.63.41Z" fill="#fff"/><path d="M514.27,1076.46a15.79,15.79,0,0,1-.46,4.7c-.57,1.48-1.83,2.23-3.77,2.23q-4.79,0-5.63-7.79-1.47-13.14-1.46-36,0-25.51.7-31.38.81-6.4,5.08-6.41c3.35,0,5,2,5,6.11q0,1.51-.55,12t-.56,19.43q0,7.78.81,20.14T514.27,1076.46Z" fill="#fff"/><path d="M542,1076.46a16.24,16.24,0,0,1-.45,4.7c-.58,1.48-1.84,2.23-3.78,2.23q-4.77,0-5.63-7.79a344.93,344.93,0,0,1-1.46-36q0-25.51.7-31.38.81-6.4,5.08-6.41c3.36,0,5,2,5,6.11q0,1.51-.55,12t-.56,19.43q0,7.78.81,20.14T542,1076.46Z" fill="#fff"/><path d="M610.28,1040.33q0,14.87-8.69,23.68t-23.2,8.81q-12,0-18.85-8.21t-6.82-22.81q0-15.36,8.24-23.85,8.09-8.34,22.44-8.34,12,0,19.45,8.44T610.28,1040.33Zm-10.06.1q0-10.15-4.92-15.89t-13.47-5.74q-19.05,0-19.05,22.9,0,10.56,4.14,16.24t11.88,5.69q10,0,15.71-6.12T600.22,1040.43Z" fill="#fff"/><path d="M669,1042.71a75.69,75.69,0,0,1-3.93,23.9q-2.41,7.38-6,7.38a4.83,4.83,0,0,1-3.28-1.19,3.68,3.68,0,0,1-1.36-2.86q0-.45,2.43-9.22a64.93,64.93,0,0,0,2.43-17.41q0-19.65-12.31-19.65a14.42,14.42,0,0,0-11.49,5.2q-4.61,5.36-4.6,14.15a92.88,92.88,0,0,0,1.39,13.67,92.89,92.89,0,0,1,1.39,12.51q0,8.68-5,8.69-2.52,0-3.48-1.11a8.08,8.08,0,0,1-1.27-3.54q0-3.13-1.26-18.09-2.07-20.92-2.07-29.72,0-15.3,5.91-15.31a4.81,4.81,0,0,1,3.28,1.19,3.57,3.57,0,0,1,1.37,2.75,26.07,26.07,0,0,1-.61,4.2,28,28,0,0,0-.6,5.2v1.17q7.47-10.17,18.19-10.16,9.86,0,15.33,7.3T669,1042.71Z" fill="#fff"/><path d="M216.71,351.08a6,6,0,0,1,.4-2,27.56,27.56,0,0,0,7.57-1.06,26.89,26.89,0,0,1,7.45-1.07l.39.8-.26.53,1.38.14c.84.09,1.76.15,2.77.2l3,.13c1,.05,1.58.07,1.85.07a21.86,21.86,0,0,0,2.9-.2c1-.14,1.93-.29,2.89-.47l.53.53,1.32.14a19.93,19.93,0,0,0,2.24-.14,23.52,23.52,0,0,1,2.37-.13,12.87,12.87,0,0,1,4.74,1.07q2.64,1.06,4.74,2.14v.93c.79.45,1.65,1,2.57,1.61A3,3,0,0,1,266.9,357l.53.4a6.69,6.69,0,0,0,1.85,3.94,8.44,8.44,0,0,1,2.1,3.94l-.79.67a16.67,16.67,0,0,1,.13,2.07v2.08l-.79,2.13.4-.26a22,22,0,0,1-.79,3.2v.81a8.85,8.85,0,0,1-.59,1.2c-.31.53-.64,1.07-1,1.6s-.73,1.05-1.12,1.54a5.43,5.43,0,0,1-1,1c-.18.18-.26.31-.26.4l-.53.54a.9.9,0,0,0-.26.67,3.66,3.66,0,0,1-2,2l-.26.4,1.84-.4.53.8a5,5,0,0,1-1.45,1.61l2.37,1.2a8.21,8.21,0,0,0,.59,1,2.86,2.86,0,0,0,.73.74l1.18,1.2,1.39,1.4a5.51,5.51,0,0,1,1.12,1.67l-.4.8.26.67h.66l.4,1.87-.4.67a4.25,4.25,0,0,1,.93,2.67l.39.94.53.27a9.06,9.06,0,0,0,.06,1.13,7.47,7.47,0,0,1,.07,1.14c0,.53,0,1.09-.07,1.67s-.11,1.18-.19,1.8l.26,1.34-.53,2.14a4.72,4.72,0,0,0-.39,1.13,6.51,6.51,0,0,0-.13,1.41,1.78,1.78,0,0,0-.53,1.33l-.13.94a12,12,0,0,0-1.58,1.87,14.56,14.56,0,0,1-1.06,1.4,11.62,11.62,0,0,1-1.32,1.27,13.41,13.41,0,0,1-2.23,1.47q-.54,0-.66.27c-.71.36-1.39.69-2,1a1.5,1.5,0,0,0-1,1.4,9.49,9.49,0,0,1-2.9,1c-1.14.22-2.26.44-3.36.67s-2.06.4-2.9.53a13.77,13.77,0,0,0-1.64.33l-.4.54-1-.13h-1.45c-.88,0-1.72,0-2.51.06s-1.62.07-2.5.07H228.31a5,5,0,0,1,.92.2c.09,0,.09.07,0,.07a11.6,11.6,0,0,0-1.45.2,12.19,12.19,0,0,1-1.71.2,2.16,2.16,0,0,1-1.32-.4,13.2,13.2,0,0,1-2.5.26h-2.51l-.39-.26a7.07,7.07,0,0,0-2.37-.27c-.27,0-.4-.05-.4-.13a3.06,3.06,0,0,0-.19-1.07,2.93,2.93,0,0,1-.2-1.07c0-.89.26-1.43.79-1.61a6,6,0,0,0,2.5.54,3.05,3.05,0,0,0,2.44-1,7,7,0,0,0,1.32-2.54,13.13,13.13,0,0,0,.52-3.21c.05-1.11.07-2.07.07-2.87v-2a.87.87,0,0,1-.66-.27l-.13-1.6a11.09,11.09,0,0,1,.33-2.67,11.69,11.69,0,0,0,.33-2.81l-.53-.4a8,8,0,0,1-.4-1.27,6.43,6.43,0,0,1-.13-1.27,2.11,2.11,0,0,1,.92-2l-.13-.54a.22.22,0,0,0-.19.07.57.57,0,0,1-.33.07l-.27-.94.53-.4a8,8,0,0,0-.66-3.07l-.39-.94.39-.4v-1.47a24.79,24.79,0,0,1,.13-2.61,10,10,0,0,1,.66-2.6l-.13-1.87v-8.56H222c-.08-.44-.13-.71-.13-.8v-.27l1.32-.93c0-.18,0-.49-.07-.94s-.06-.89-.06-1.33a3.28,3.28,0,0,1,.26-1.47c-.09-.63-.24-1.69-.46-3.21a27.6,27.6,0,0,1-.33-3.88,2.81,2.81,0,0,1,.13-1.07,39.25,39.25,0,0,1-.19-4.87,12.28,12.28,0,0,0-1-4.75,3.1,3.1,0,0,0-.66-.47,1.62,1.62,0,0,0-.53-.2c-.18,0-.31-.13-.39-.4h-1.26a3.32,3.32,0,0,0-1.25.27l-.52-1.2a2.5,2.5,0,0,0-.07-.54,2.33,2.33,0,0,1-.07-.53Zm3.43,74.17a11.74,11.74,0,0,1-1.38.2,13.61,13.61,0,0,1-1.39.07,1,1,0,0,1,.14.66,7.89,7.89,0,0,1,1.31-.4A3.85,3.85,0,0,0,220.14,425.25Zm-2.24-73.1a4.1,4.1,0,0,0,1-.27,15.47,15.47,0,0,0,1.65-.67c.57-.26,1.16-.51,1.78-.73s1.1-.38,1.45-.47c-1,.27-2,.51-3.16.73A5.21,5.21,0,0,0,217.9,352.15Zm1,75.1a1,1,0,0,1-.39-.06.54.54,0,0,0-.26-.07H218a.38.38,0,0,0,.27.13Zm2.51-74.57c.17,0,.26-.17.26-.53l3.29-1.34a2.25,2.25,0,0,0,.27-.67,1.26,1.26,0,0,0,.13-.33s.13-.11.39-.2c.09,0,.22-.09.4-.27a18.05,18.05,0,0,0-3.49,1.14c-1.1.49-2.17,1-3.23,1.53l1.71.14ZM224.09,427l.4-1.34-2,1.47Zm-.13-70.3a11.77,11.77,0,0,1,3.75-2.94q2.17-1.06,4.42-2a35.21,35.21,0,0,0-4.22,1.8q-2,1-4.08,1.94l-.13-1.2.79-.27-1.72.13.93,1.21Zm.53-4a24,24,0,0,0,3.16-1.13q1.71-.74,3-1.41a6.61,6.61,0,0,0-1.38.4l-2.44.87c-.88.32-1.71.63-2.5.94s-1.28.51-1.45.6a12,12,0,0,0,1.25-.33c.39-.14.81-.29,1.25-.47Zm-1.06,40.76q0,.54.27.54a4.6,4.6,0,0,1,1-.8,3.54,3.54,0,0,0,.73-.54l-.26-.93.65-.54-2,1.07v-.8a.28.28,0,0,0-.2.06.24.24,0,0,1-.2.07v1.87Zm2.51-32.61-1.06-.13-.39-.4-.66.4v-1.87l.92-.53-.92-.14a11.78,11.78,0,0,0-.27,2.27c0,.72,0,1.47.07,2.28s.11,1.56.2,2.27v-1.21a6.58,6.58,0,0,0,2.24-1.93,5.57,5.57,0,0,1,2.11-1.81l.39.27-4.74,2.27v-.67Zm-.4,4.95.26-.94,2.24-1.33a11.68,11.68,0,0,0-3.82,1.87l-.39.27v.93Zm-1.45,4.14a5.57,5.57,0,0,0,1.12-.6,5.57,5.57,0,0,1,1.12-.6l.13-.4,1.72-1.61-4.35,2.14Zm3.16,51.59-.52.13-.27-.67-2.24,1.2-.39,1.34Zm-3.16-42.63a6.35,6.35,0,0,0,3.1-1.81,9.37,9.37,0,0,1,3-2.07,27,27,0,0,0-3.09,1.4c-1.1.58-2.09,1.1-3,1.54Zm1.45,3.2.26-.4a36.88,36.88,0,0,0,3-2.2c.92-.76,1.91-1.49,3-2.21l-7.51,4,.14,1.2Zm2.5,14.3c-.52.18-1.12.36-1.77.54l-2.05.53v.8a10.36,10.36,0,0,1,1.85-1.07C226.68,396.92,227.34,396.65,228,396.38Zm9.09-45.7c-.26.18-1.07.6-2.43,1.27s-2.79,1.38-4.29,2.14-2.83,1.47-4,2.13a19.16,19.16,0,0,0-1.91,1.14h.66a10.14,10.14,0,0,0,3.09-1c1.54-.67,3.18-1.43,4.94-2.27s3.45-1.67,5.07-2.48l3.49-1.73h-.92a15.13,15.13,0,0,0-2.37.2c-.88.13-1.67.29-2.37.46l-1.32.94Zm-12.64,37.68q2.23-1.07,4.15-2.2c1.27-.76,2.65-1.49,4.15-2.21a18.55,18.55,0,0,0-4.29,1.41q-2.16,1-4,2.07ZM229,398a21.65,21.65,0,0,1-2.24,1.07l-2.24.93v1.6a12.49,12.49,0,0,0,1.84-1,6.37,6.37,0,0,1,1.85-.87,1.05,1.05,0,0,0,.32-.93A.74.74,0,0,1,229,398Zm-4.35,7.08a11,11,0,0,0,3-2.07,13.18,13.18,0,0,1,2.7-2.07,5.3,5.3,0,0,0-1.25.73,3,3,0,0,1-1.38.6l-3,1.61Zm.26,1.34c.44-.18.86-.36,1.25-.54a1.68,1.68,0,0,0,.86-.8v-.94a7,7,0,0,0-1.19.61,7.65,7.65,0,0,1-1.18.6v1.2Zm9.36-34.75c0-.54,0-1.07.06-1.6s.11-1.07.2-1.61l-.4-2.14v1.07c-1.23.54-2.72,1.27-4.48,2.21a31.46,31.46,0,0,0-4.21,2.6,5.71,5.71,0,0,0,2.7-1.33,4.25,4.25,0,0,1,2.83-1.07l3.16-1.34v2l-9.35,5.74a22.7,22.7,0,0,0,4.55-2.27,12.63,12.63,0,0,1,4.54-1.87Zm-9.36,45.44a5.28,5.28,0,0,1,1.45-1.07l1.58-.8a3.6,3.6,0,0,1-1.38.26,6,6,0,0,0-1.65.27Zm.13-22.72a50.11,50.11,0,0,0,6.66-3.14,72.67,72.67,0,0,0,6.25-3.81,14.38,14.38,0,0,0-4.08,1.07c-1.23.53-2.5,1.16-3.82,1.87a11,11,0,0,1-2.24,2.4A6.92,6.92,0,0,1,225,394.38Zm0,19.11a6.58,6.58,0,0,1,2.44-2.47,30.69,30.69,0,0,0,3-1.94,8.62,8.62,0,0,0-2.23.6,4.27,4.27,0,0,0-1.06.73c-.26.27-.53.56-.79.87a7.26,7.26,0,0,1-1.32,1.14Zm3.82-3.48c-.7.36-1.34.72-1.91,1.07L225,412.29Zm-.13-27.53a6.77,6.77,0,0,0-3.55,1.47Zm-3.42,43.7,2-1.07-.66.14Zm4.21-10.69-1.84.8a6.92,6.92,0,0,0-1.71,1.07Zm-3.42-55.72a33.5,33.5,0,0,0,3.55-1.07c1.23-.45,2.42-.89,3.56-1.34a.6.6,0,0,0,.33-.47c0-.22.24-.33.59-.33a10.72,10.72,0,0,0,2.05-.47c.65-.22,1.33-.47,2-.73a4,4,0,0,1-1.19.13,4.53,4.53,0,0,1-1.45-.27Zm1.32-4.68a3.18,3.18,0,0,0,1.11-.74,3.34,3.34,0,0,1,1.12-.73,3.34,3.34,0,0,0-1.12.73A3.18,3.18,0,0,1,227.39,355.09Zm0,36.21.26-.13c.09,0,.13,0,.13-.13h-.13Zm6.71,18.31a17.75,17.75,0,0,0-3.36,2.21,29.12,29.12,0,0,1-3.22,2.34,21.74,21.74,0,0,0,3.29-1.61c1.23-.71,2.33-1.29,3.29-1.73Zm-.66-15.5a12.71,12.71,0,0,1-3,1.8,8.92,8.92,0,0,0-2.7,1.81l.66-.47a1.31,1.31,0,0,1,.79-.2l4.21-2.4Zm.66,21.12a13.78,13.78,0,0,0-3.16,2.6A8.25,8.25,0,0,1,228,420l1.85-.94a13.77,13.77,0,0,0,2-1.27,19.55,19.55,0,0,0,1.71-1.4,1.85,1.85,0,0,0,.73-1.2l-.13-3.75a.32.32,0,0,0-.07-.2.24.24,0,0,1-.07-.2l-.66.27v.8l-1.18,1.2,1.84-1.06Zm-1.31-14.84c-.71.72-1.43,1.38-2.18,2s-1.51,1.25-2.3,1.87h.79l4.87-3.21v-1.2Zm1.31,8.55a6.3,6.3,0,0,0,.33-1.33c.13-.71.2-1.11.2-1.2a9.44,9.44,0,0,0-.66-3.35l-4.35,2.14.27.8,4.21-2.27v1.34l-5.79,3.34a7.28,7.28,0,0,1,1.31-.4l1.45-.27,3-1.6-2.89,1.74.65,1.06,2.24-1.2Zm-2.89-43.29a2.17,2.17,0,0,0-1.39.8,4.43,4.43,0,0,1-1.38,1.2Zm-.14,59.46c1.06-.71,2.09-1.42,3.1-2.13a32.1,32.1,0,0,1,3.23-2l-1.45-.13c-1.14.8-2.29,1.63-3.43,2.47a37.48,37.48,0,0,1-3.55,2.34Zm3.3-48.11-1.19.94,1.06-.4-4.75,2.81a15.7,15.7,0,0,0,2.31-1,5.07,5.07,0,0,1,2.44-.6Zm-4.61,20.05h.52l.53.8,3-1.47-.53-.53v-.54ZM234.24,419a9.37,9.37,0,0,1-2.11,1,9,9,0,0,0-2.11,1l1.19-.27.52.67,2.37-1.47.27-.53Zm-.93-57.6a11.09,11.09,0,0,1-2.1,1.2l2.37-.93.13-.94Zm-.39,25.79a2.51,2.51,0,0,0-1.06.8l.93-.4Zm.66,5.08a.74.74,0,0,1,.13-.53,8.32,8.32,0,0,0-1.85.93l1.72-.4ZM232,399.19l.92-.27.52.67.53-.4V398Zm1.58-40.89-.93.8,1.06-.4Zm3.82,67.48-1.32.14-.53-.4-2.63,1.6,2,.13Zm-3.3-38.62a58.53,58.53,0,0,1,6.59-3.21l-1.84-.26-5.14,2.4Zm1.32,31.67.13.54a3.45,3.45,0,0,0,1.32.33c.53.05,1,.07,1.32.07l.52-.67c.62-.09,1.23-.15,1.85-.2s1.27-.07,2-.07h.86a2.67,2.67,0,0,1,.86.14l2.37-.14a4.55,4.55,0,0,1,1.32.14l1.84-.2c1.14-.14,2.33-.34,3.56-.6a19.85,19.85,0,0,0,3.42-1.07c1.06-.45,1.58-1.07,1.58-1.87l-.26-.81a26.59,26.59,0,0,0,1.45-2.47,17,17,0,0,1,1.71-2.6v-2.28l-.26-.4c-.18-1.42-.31-2.71-.4-3.87a20.13,20.13,0,0,0-.79-4l-.66-.14a9.28,9.28,0,0,1-.72-1.6c-.22-.62-.38-1-.46-1.2a9.66,9.66,0,0,1-.66-.74c-.27-.31-.4-.51-.4-.6,0-.44-.72-.84-2.17-1.2s-3.08-.67-4.87-.94-3.5-.49-5.08-.66a21.65,21.65,0,0,1-2.76-.41,6.89,6.89,0,0,1-1.39.14h-2.83c-1,.18-1.93.35-2.63.53l-.4,2.27h.66a4.07,4.07,0,0,1,.66,2.14,13.77,13.77,0,0,1-.2,2.34q-.19,1.14-.33,2.34l.53.94-.26.4.13,2a15.14,15.14,0,0,0-.4,3.68c0,1.38,0,2.69-.13,3.94a25.87,25.87,0,0,0,.2,3.27,26.15,26.15,0,0,1,.2,3.28Zm0-39.29h0v1.21a4.41,4.41,0,0,1-.13,1.07l.79.26a13,13,0,0,1,3.1-.4c1.62-.09,3.18-.13,4.67-.13h1.25a4.61,4.61,0,0,1,.86.07,6.17,6.17,0,0,0,.92.06h1.58l.59-.06c.31-.05.47-.16.47-.34a3.21,3.21,0,0,1,1.38-1,4.59,4.59,0,0,1,1.65-.34l.65.14.93-.67a27.77,27.77,0,0,1,1.64-3.54c.66-1.2,1.34-2.43,2-3.68v-.93c0-.45,0-1,.06-1.54a5.37,5.37,0,0,1,.59-1.94v-2.94a6.92,6.92,0,0,1-.85-1.67,4.12,4.12,0,0,0-.86-1.53H256a2,2,0,0,0-1.12-1.07,2.14,2.14,0,0,1-1.12-1.61,4.15,4.15,0,0,0-2.24-.66l-.26-.54-2.18-.53a10.93,10.93,0,0,0-2.56-.27l-.4.67a29.13,29.13,0,0,1-4-.27,29.24,29.24,0,0,0-3.95-.27H237a2.12,2.12,0,0,0-1.45.47c-.35.31-.52,1.14-.52,2.47.08.8.13,1.47.13,2s0,1.09.06,1.67.07,1.05.07,1.4l.53.27.13,1.33a9.24,9.24,0,0,1-.2,1.88,9.07,9.07,0,0,0-.2,1.87l.27,2.27a10.61,10.61,0,0,1,.39,1.74,11.64,11.64,0,0,1,0,3.47A2.77,2.77,0,0,1,235.42,379.54Zm2,47.71q2-1.2,3.95-2.47c1.32-.84,2.68-1.67,4.08-2.47a17.85,17.85,0,0,0-5.27,2c-1.49.89-3.12,1.87-4.87,2.94Zm-1.85-36.61a14.08,14.08,0,0,0,2.51-.27,4.69,4.69,0,0,0,2.23-.94,23.1,23.1,0,0,1-2.37.47A7.57,7.57,0,0,0,235.55,390.64ZM237.4,356c.35,0,.52,0,.52-.13a13.65,13.65,0,0,0,5.34-1.14c1.8-.75,3.53-1.58,5.2-2.47a.5.5,0,0,0-.33.07.53.53,0,0,1-.33.07c-1.67.44-3.47,1-5.4,1.6a34.39,34.39,0,0,0-5,2Zm.39-1.73a13.78,13.78,0,0,0,6.06-1.47,27.12,27.12,0,0,1,6.06-2.14l-.39.13H252a.9.9,0,0,0,.66-.27l.26-.26c-.18,0-.24,0-.2-.14s0-.22-.06-.4h-3l-.4.54h-1.18Zm.4,31.94,2.1.13,4.75-2.27h-2.37Zm8,1.6c-1.05.27-2.13.58-3.22.94a17.23,17.23,0,0,0-3.1,1.33l2-.13Zm-2.1,32.61c-.45.26-.91.56-1.39.87a7,7,0,0,1-1.51.73v.54c.61-.27,1.2-.52,1.78-.74a8.25,8.25,0,0,1,1.77-.47l.79-.53Zm2.76-33.95a24.73,24.73,0,0,1,3-.87,14.34,14.34,0,0,0,3-1l-1.32-.13-.26-.8-9.88,4.41A30,30,0,0,1,245,387a11.32,11.32,0,0,0,3.49-1.47Zm-3.82,40.63.66-.4-.26-.4-1.45.93Zm2-1.47a8.39,8.39,0,0,0,2.5-1.14q2.37-1.26,5.27-3l5.53-3.34c1.76-1.07,2.9-1.74,3.43-2v-.67a26,26,0,0,1,3.69-2.4,12.85,12.85,0,0,0,3.42-2.68,4.81,4.81,0,0,0-3,1.21c-1,.8-2,1.67-3,2.6s-2,1.81-3,2.61a4.81,4.81,0,0,1-3,1.2.74.74,0,0,0-.52.27q-.27.13-2,1.2l-3.69,2.34q-2,1.28-3.69,2.41A17.62,17.62,0,0,0,245,425.65Zm3.29.67a10.71,10.71,0,0,1-2.77.4L245,427h2.37a20.91,20.91,0,0,1,2.37.13l1.45-.54-3.82.27Zm-2.5-5.48c0,.09-.22.22-.66.4l2.5-.4Zm1.45-30.34.39-.26-.39-.81-2,.81Zm.52-1.33c.35,0,.53,0,.53.13l1.84.13.66-.13a15.55,15.55,0,0,0,4.28-1.14c1.37-.57,2.75-1.18,4.15-1.8l.66-.54a11.68,11.68,0,0,0,1.12-1,3.19,3.19,0,0,1,1.39-.73v-.8l.65-.94c-.7.45-1.36.85-2,1.2a10.83,10.83,0,0,1-1.71.94l-1.58.67-.4.8a8.71,8.71,0,0,0-1.58.4c-.88.27-1.87.6-3,1l-3.17,1.14Zm2.11,1.87,1.45-.67a6.18,6.18,0,0,1-1.45.13,4.63,4.63,0,0,1-1.32-.13l-.65.27.92.4Zm-2,34.21a11.93,11.93,0,0,0,3.29-.94,21.93,21.93,0,0,0,3-1.73h-.66l-.26-.67Zm7.37-75a12.15,12.15,0,0,0,2.51.67q-2.25.8-4.29,1.73t-4.15,1.87c1.41-.44,2.77-.91,4.09-1.4a12,12,0,0,1,4.21-.73l.93.13,1.18-.54a1.27,1.27,0,0,1-.39-.93l-2-.54a8.09,8.09,0,0,0-2-.26ZM250.83,356a10.59,10.59,0,0,1,2-1.27,10.33,10.33,0,0,1,2.24-.86,5.29,5.29,0,0,0-1.12.26c-.57.18-1.17.38-1.78.6s-1.21.43-1.78.61a3.22,3.22,0,0,0-1,.4Zm2.77,70,10.54-6.82a14.46,14.46,0,0,0-2,.94,7.55,7.55,0,0,1-2,.8l-.4.94-4,2.14q-2,1.06-4,2.27a4.75,4.75,0,0,1,.65-.27,2.16,2.16,0,0,1,.66-.13l.4.4,5.14-1.34,1.18-.93.26-.67a11.36,11.36,0,0,0,4.62-2.54,23,23,0,0,1,4.34-3.08l-.13-.4.4-.8a37.25,37.25,0,0,0-6.92,4.35,77.82,77.82,0,0,1-6.65,4.74Zm-.92-34.61a4.37,4.37,0,0,0,2.37.67l.92-.4h-.53a1.16,1.16,0,0,1-.13-.67c0-.27.05-.4.13-.4l1.32-.94Zm2.5-34.48c.61-.27,1.19-.54,1.71-.8a8.31,8.31,0,0,0,1.58-1.07,9,9,0,0,0-2.76,1,9,9,0,0,1-2.77,1,3.08,3.08,0,0,0,2,.54l1.18-.94Zm4.35,24.32a19.74,19.74,0,0,0-5.67,2,13.65,13.65,0,0,0,2.9-.81c.88-.35,1.8-.75,2.77-1.2ZM254,421.37l3.69-.67,2.9-1.73-.66-.14-.26-.8Zm2.38-28.6a22.16,22.16,0,0,1,2.63-1.13c.88-.31,1.8-.69,2.77-1.14l-2.84.8a10,10,0,0,1-2.83.41l-1.05.53ZM256.5,360l.79.67a8.84,8.84,0,0,0,2.5-1.6,9.83,9.83,0,0,1,2.24-1.61,12.82,12.82,0,0,0-3.1.67c-1,.36-2.08.72-3.22,1.07,0,.18,0,.27.13.27s.17.09.26.27l3.95-1.61Zm.52,18.31,2.11-.8a3.42,3.42,0,0,1,1.12-1.34,16.66,16.66,0,0,1,1.91-1.27c.7-.4,1.41-.75,2.11-1.07A16.77,16.77,0,0,0,266,373a12.82,12.82,0,0,0-2.7.8,6.88,6.88,0,0,1-2.7.53l-2.11.94.27-.94-.13-.4-1.06,2.41V377Zm.93-1.74c1.23-.62,2.45-1.2,3.69-1.73s2.45-1.12,3.68-1.74L257.55,377Zm-.4,13.9a5.19,5.19,0,0,0,2-.87,19.13,19.13,0,0,0,1.78-1.27,8.89,8.89,0,0,0-1.91,1A15,15,0,0,1,257.55,390.5Zm3.16-37.28a9.57,9.57,0,0,1-1,.46c-.35.14-.7.3-1.05.47H261l.79-.26Zm-1.45,9.89a23.31,23.31,0,0,1,2.11-1.67c.7-.49,1.41-1,2.11-1.41a10.09,10.09,0,0,0-2.5.74,11.22,11.22,0,0,0-2.37,1.27Zm3.17-9c-.62.45-1.21.89-1.78,1.34a11.05,11.05,0,0,1-1.91,1.2l5-1.87-.66-.67Zm2.63,36.35h0a12.85,12.85,0,0,0-3.16,1.61c-1.41.89-2.42,1.56-3,2a13.84,13.84,0,0,0,2.3-.6c.93-.31,1.8-.62,2.64-.94s1.91-.64,3.23-1a4.82,4.82,0,0,0-.93-.93Zm2.11-29.8a10.16,10.16,0,0,0-1.19-2q-.39,0-.39.66a3.44,3.44,0,0,1-1.25,1.67,11.48,11.48,0,0,1-1.72,1c-.57.26-1.14.51-1.71.73a2.26,2.26,0,0,0-1.25,1.14,10.55,10.55,0,0,0,3.89-1.07,13.81,13.81,0,0,0,3.62-2.14Zm-4.61,6.15-.92-.27-.14-.53-1.45.93a2.5,2.5,0,0,0,.07.54,2.41,2.41,0,0,1,.07.53Zm-1.85,46.24.27-.8a3.28,3.28,0,0,0,.13-.94l-.92,1.6.26.67-.4.8.14.4q2.24-1.06,4.34-2.27c1.41-.8,2.86-1.55,4.35-2.27l.4-.4a13.86,13.86,0,0,0-3.3.94,10.64,10.64,0,0,1-3.29.8Zm.13-13.77a6.43,6.43,0,0,0,2.38-.93,17.74,17.74,0,0,1,2.5-1.21,11.61,11.61,0,0,0-2.5.81,8.13,8.13,0,0,1-2.64.66Zm7.12-6a15.39,15.39,0,0,0-3.56,2c-1,.81-2.15,1.56-3.29,2.28a35.67,35.67,0,0,1,3.69-1.88c1.23-.53,2.5-1,3.82-1.47Zm-3.56-38.22a11.86,11.86,0,0,0-1.58.67,8,8,0,0,0-1.45.93,10.88,10.88,0,0,1,2-.27l.39.67,1.85-.93Zm3.69,10.15.13.67a6.31,6.31,0,0,1-3.16,2.21,31,31,0,0,0-3.69,1.53l1.65-.53a6.81,6.81,0,0,1,2-.27l4.48-2v-2.27Zm-6.32,42.1a8.79,8.79,0,0,1,3.29-2.14,25.82,25.82,0,0,0,3.56-1.6l-7,2.94Zm.26,4.14-.39-.4c0-.08.21-.31.65-.67l1.45-1.13c.53-.4,1.06-.78,1.58-1.14s.88-.58,1.06-.67a10.29,10.29,0,0,0-2.18,1.34,19.12,19.12,0,0,1-2,1.47Zm6.85,6.82q-1.85,1.06-3.69,2.07a35.06,35.06,0,0,0-3.55,2.21,4.78,4.78,0,0,0,2.1-1.07,4.76,4.76,0,0,1,2.11-1.07,4.07,4.07,0,0,1,2.77-1.47l1.05-1.07Zm-.26-18.71a9.11,9.11,0,0,0-2.7.94,5.73,5.73,0,0,1-2.7.66l-.79-.13-.66.67v2.14a.62.62,0,0,0,.19.46.82.82,0,0,1,.2.61c.27-.45.51-.87.73-1.27a7.81,7.81,0,0,1,.85-1.27,5.75,5.75,0,0,0-.85.73,2.29,2.29,0,0,1-.86.6l-.13-.67Zm-5.54-11.23-1.18.94a11.59,11.59,0,0,0,1.84-.8l-1.31-.54Zm7.25,24.19-.13.54a8.92,8.92,0,0,1-3.76,2.27,22.61,22.61,0,0,0-4.15,1.74q2.25-.81,4.42-1.74c1.45-.62,2.92-1.25,4.41-1.87l.4-1.34Zm-7.25-45.17c.71-.17,1.39-.35,2.05-.53a4.53,4.53,0,0,0,1.77-.94Zm2.51,49.85L264,418a7.14,7.14,0,0,1,.79-.47A6,6,0,0,1,265.59,417.23Zm4.74-17.37a10.58,10.58,0,0,1-3.16,1.6,6.37,6.37,0,0,0-2.9,1.87l6.32-2.8ZM269.41,363c-.62.18-1.47.49-2.57.94a9.32,9.32,0,0,0-2.44,1.33,6.32,6.32,0,0,1,2.24-.53,1.27,1.27,0,0,1,.46.07,1.6,1.6,0,0,0,.46.06l2.24-.93Zm-1.58,13a7.69,7.69,0,0,1-2.9,1.73l.39.54,2.11-.67a8.52,8.52,0,0,0,.66-.94,3.78,3.78,0,0,0,.53-.93Zm-2.9,20.31a4.94,4.94,0,0,1,1.32-.34c.43,0,.87-.06,1.31-.06l.4.27,1.58-.67a2.7,2.7,0,0,0-.66-.94Zm.79-24.19,1.58-.13.39.8-.39.67,1.45-.67.53-2.14Zm2.11,43.7a1,1,0,0,0,.13.4,2.54,2.54,0,0,1,.26.67,6.53,6.53,0,0,0,1.25-.67c.4-.27.81-.53,1.25-.8l.27-1.2Zm1.84-10v.53l-1.45,1.34,3.82-1.87v-.94Zm-.79,3.07h1.19l.39.8a4.56,4.56,0,0,1-1.18,1.87l2.5-1.33a1.48,1.48,0,0,1-.13-.67,6.46,6.46,0,0,1,.06-.94c.05-.26.11-.57.2-.93Zm2.5-5.34v-.54l-1.71,1.2Z" fill="#fff"/><path d="M296.41,409.61a34.66,34.66,0,0,1-2,5.15,18.23,18.23,0,0,0-1.59,5q0,.27-.06,1.14c-.05.58-.16.91-.33,1l-.66,2.14c.09.62.35,1,.79,1.06a6.58,6.58,0,0,0,1.32.14l.66-.27a2.58,2.58,0,0,1,.92.67v1.47c-.09,0-.13.13-.13.4l-.79.4-2.37.14a5.47,5.47,0,0,1-1.85.46c-1,.14-2.06.27-3.29.4s-2.48.23-3.76.27-2.39.07-3.35.07a16.45,16.45,0,0,1-4.35-.54l-1.06-1.6.79-.4.27-.8.92.53,1.32-.53a4.55,4.55,0,0,1,.92-1.14q.53-.46,1.05-.87h.66l.66-.67c.18-.53.61-1.73,1.32-3.6s1.45-3.86,2.24-5.95,1.53-4,2.24-5.81a13.25,13.25,0,0,1,1.45-3.08l-.27-.4a3.83,3.83,0,0,1,.66-2.27,15.39,15.39,0,0,1,1.58-1.87l1.58-4.14a3.06,3.06,0,0,0,.86-1.07,6.22,6.22,0,0,0,.46-1.21l.92-2.54.4-.13.39-1.07-.79-.53q1.32-3.21,2.77-6.82c1-2.4,1.89-4.68,2.76-6.81s1.65-4,2.31-5.68,1.12-2.79,1.38-3.41l-.66-.14-.39-.8q1.71-2.81,2.9-4.94t2.5-4.81h-1.05l-.4-.67a6.57,6.57,0,0,1,2.5-2.67,12.59,12.59,0,0,1,.93-3.48l.92-.4c0-.09.09-.15.26-.2a1.11,1.11,0,0,0,.53-.33l2.11-.14h.52a14.51,14.51,0,0,1,3.1.34,15.11,15.11,0,0,0,3.23.33h.52l-.26,1.2a23.38,23.38,0,0,1,2.31,6.28,35.74,35.74,0,0,0,2.17,6.69l.39-.14.53.67v.54l-.53.4a42.07,42.07,0,0,1,1.91,4.14c.57,1.43,1.21,2.85,1.91,4.28v.8A64.22,64.22,0,0,1,332.9,383q1.46,4.82,3,9.49l.4.8-.4.67,1.05,4a1.22,1.22,0,0,0,.07.33,1.3,1.3,0,0,1,.07.33h.52a4.45,4.45,0,0,1,1.32.14v.8l-.92,1.07.26.53.66.14a26.72,26.72,0,0,0,2.17,6.48,20.34,20.34,0,0,1,1.91,6.61l.93,1.74,1.31,2.94a6.83,6.83,0,0,0,2,2.54l.4-.27.79.67c0,.18-.07.27-.2.27a.44.44,0,0,0-.33.13l.53.4,1.44-.8.66.94-.92.67,2,.8a1.13,1.13,0,0,1,.52-.14,3.46,3.46,0,0,1,.6.07c.22.05.33.29.33.73a9.46,9.46,0,0,0,.06,1.07,10.13,10.13,0,0,1,.07,1.34l1.18-.27.53.81c-.09.35-.53.71-1.32,1.06l-.52.81c-3.69,0-7.34,0-10.94-.07s-7.24-.2-10.93-.47l-1.45.27a8.65,8.65,0,0,1-1.45.13l-.26.67-.79-.4a16.28,16.28,0,0,1-.46-1.67c-.14-.58-.29-1.18-.47-1.81l-.13-1.2a7,7,0,0,1,2.18-.6,2.61,2.61,0,0,0,1.91-1l.13-1.74h-.79l-.13-.8.79-.54a30.93,30.93,0,0,0-1.19-4.41l-.66-.13-.39-.53.26-1.61c-.35-1.07-.75-2.14-1.18-3.2s-.88-2.14-1.32-3.21c-.18.36-.4.53-.66.53l-.79-1.6a13.55,13.55,0,0,0-.59-1.27,4.84,4.84,0,0,1-.47-1.14c-3.68.27-7.42.49-11.19.67s-7.56.27-11.33.27l-2.5-.13a5.42,5.42,0,0,1-1.06,2.2A3.91,3.91,0,0,0,296.41,409.61ZM281,427.12l-.79-.13-.26-.94a14.83,14.83,0,0,1-3.3,1.47l-.13.54H279Zm.79-4a21.87,21.87,0,0,1-1.32,2.54,3.06,3.06,0,0,1,1.45-.67,4.2,4.2,0,0,0,1.45-.53l-.53-.4-.26-.81a4.64,4.64,0,0,1,1.05-1.4c.44-.4.88-.82,1.32-1.27l-1.58.67a6.92,6.92,0,0,0,1.32-.94l.13-.13a2.92,2.92,0,0,1,1.45-2.27c1-.71,1.71-1.29,2.24-1.74a2.5,2.5,0,0,0-1.19.54c-.52.35-1.1.75-1.71,1.2s-1.19.89-1.71,1.33a14.62,14.62,0,0,1-1.19.94Zm-.79.67-.4.4a.54.54,0,0,1-.13.4Zm3.95,3.47-1.45.14-.79.67,1.45-.14Zm1.85-6.55a17.1,17.1,0,0,0-1.72,1.14,9.11,9.11,0,0,0-1.45,1.4l1.72-.13,6.19-4.14.26-.8c.09,0,.26-.14.53-.41l.39-.93-1.31.53,1.44-.8.27-2.4a43.94,43.94,0,0,0-3.76,2.4A16.25,16.25,0,0,0,286,419.5l7-4.14-5,3.34,1.32-.67a2.92,2.92,0,0,0,.26.47,1.07,1.07,0,0,1,.13.6,10.92,10.92,0,0,1-2.17,1.07,5.89,5.89,0,0,0-2.17,1.47Zm-2.11-5.07L284,417.1l.92-.4-.26-.54Zm6.58,6.54.53-2.13c-1.05.53-2.2,1.16-3.42,1.87l.39.8,2.5-1.34-.39.94c-.88.62-1.74,1.2-2.57,1.74a25.88,25.88,0,0,0-2.57,1.87c.61-.36,1.21-.69,1.78-1a5.41,5.41,0,0,1,1.91-.6l1.32-.93v-.67Zm-.52-9.62a14.76,14.76,0,0,1-2.31,1.07,3.7,3.7,0,0,0-1.91,1.87Zm-2.64-.8,2-1.47a.61.61,0,0,1-.33-.13.64.64,0,0,0-.33-.14l-.79.54Zm.66-2.14.66-.13a4.47,4.47,0,0,1,1.25-2.21l1.91-1.93-3.16,2Zm2.37,15.64a15.55,15.55,0,0,0-2.37,2h1.32l1.84-1.33Zm2,1.47c0-.09.22-.22.66-.4l-1.72-.27-1.84,1.2a6,6,0,0,0,1.19-.13,2.92,2.92,0,0,0,1-.4Zm13-24.19,1.19-1.74-5.27,2.68h-.93l.93-.54-.4-.53.53-1.47a21.09,21.09,0,0,0-2.31,1.2c-.74.45-1.47.89-2.17,1.34a12,12,0,0,1,1.32-.94l1.31-.8-1.31.13-.53-.27-1.84,1.07.79-.26.26.93c-1.05.63-2.31,1.43-3.76,2.41a12.68,12.68,0,0,0-3.22,2.94c.35-.18.85-.47,1.51-.87s1.32-.82,2-1.27,1.29-.85,1.91-1.2a5.35,5.35,0,0,1,1.58-.67l.26-.94a11.62,11.62,0,0,0,1.39.2,13.29,13.29,0,0,0,1.38.07,25.73,25.73,0,0,0,2.63-.13c.88-.09,1.8-.22,2.77-.4h-1.32ZM291.54,402l.26-1.47-.39.26-.53,1.61ZM291,414.16l.4.66,1.71-1.2.53-1.47Zm.26-3.21.66.8a7.75,7.75,0,0,1,2-1.54,4.26,4.26,0,0,0,1.78-2.33Zm.53-10.69c-.18,0-.26.09-.26.27l.26-.27Zm1.19-1.74,3.82-2.4a16.17,16.17,0,0,1-1.72.73,14.91,14.91,0,0,0-1.71.74Zm2.76.67a12.94,12.94,0,0,1-2,1.07l-.79.8Zm.66-6.82a3.5,3.5,0,0,0,1.91-.53c.57-.36,1.16-.71,1.78-1.07l.26,1.07a32.09,32.09,0,0,1-3.42,1.87,14.69,14.69,0,0,0-3.29,2.14,5.21,5.21,0,0,0,2.3-.74,20.84,20.84,0,0,0,2.7-1.73,25.29,25.29,0,0,0,2.24-1.88c.61-.57.92-.95.92-1.13v-.54Zm-1.84,1.47,1.05-.53-.39-.4-.4.27Zm.13,13.37-.13,1.2,1.18-.67.53-1.33Zm1.18-16.84,1.45-.8a5.86,5.86,0,0,1,1.45-2.41l-2,1.07Zm1.85-4.95.13-.66c-.18-.18-.26-.32-.26-.41a1.43,1.43,0,0,1,.26-.8,4.23,4.23,0,0,1,.53-.66l-.13-.54-.4.27c-.26.89-.61,1.91-1.05,3.07Zm5.93-1.07a9.68,9.68,0,0,1-2.64,2.14,6.47,6.47,0,0,0-2.37,2.28,10.75,10.75,0,0,1,2.11-1.07,12.7,12.7,0,0,0,2.11-1.07l.66-1.87Zm-3-5.47-.27-.94.53-.53-.79.4c-.18.44-.35.89-.53,1.33a8.3,8.3,0,0,1-.66,1.34,8.67,8.67,0,0,0,1.72-1.07Zm1.58,16.43a3.19,3.19,0,0,1-.59-.06,2.77,2.77,0,0,0-.6-.07c-.26,0-.39.18-.39.53l-1.58,1.07v.54c.52-.36,1-.71,1.51-1.07A8.17,8.17,0,0,1,302.21,395.31Zm-2.77-1.6,1.45-.27a.84.84,0,0,1,.07-.4,1,1,0,0,0,.06-.4Zm.26,7a8.31,8.31,0,0,0,2.57-1c.84-.49,1.69-1.05,2.57-1.67s1.74-1.21,2.57-1.74a7.41,7.41,0,0,1,2.57-1.07l.4.53,1.44-.66h-2.63Zm.27-18.58a20.79,20.79,0,0,0,2.7-1.2c.83-.44,1.69-.94,2.57-1.47l.79-1.74-5.53,3.21Zm4.48-1.2-.27.67c-.7.45-1.38.87-2,1.27s-1.34.82-2,1.27a33.34,33.34,0,0,0,4.08-2l.66-1.47Zm-2.51-4.54-.39-.14-.53-.8-.52,1.6Zm12.91,19.51-.39.67a17.63,17.63,0,0,0-3.62,2.47,28.24,28.24,0,0,0-3.23,3,11.48,11.48,0,0,0,4-1.94c1.45-1,2.65-1.94,3.62-2.74l-1.71.8a33.06,33.06,0,0,0,4.08-2.47,17.36,17.36,0,0,1,4.22-2.21c0,.27.17.4.52.4a14.14,14.14,0,0,1,1.06-1.2c.26-.27.5-.53.72-.8a2.13,2.13,0,0,1,.59-.54l-4.34,1.88h-.79a1.08,1.08,0,0,0-.14-.41.42.42,0,0,0-.39-.26,24,24,0,0,1-1.25-4.41,16.67,16.67,0,0,0-1.39-4.28c-.26,0-.65-.55-1.18-1.67s-1-2.34-1.52-3.68-.92-2.6-1.31-3.8a10.29,10.29,0,0,1-.6-2.34v-.54c-.17-.44-.35-.93-.52-1.47a11.73,11.73,0,0,1-.4-1.47,5,5,0,0,0-.26,1.47,11,11,0,0,0-1.38,1.81,5.35,5.35,0,0,0-.86,2.34c-.18.44-.33.86-.46,1.27s-.29.82-.46,1.26l-.27,1.07c-.17.45-.35.9-.52,1.34a2.46,2.46,0,0,1-.79,1.07l-.4,2.14.4.8a7.46,7.46,0,0,1-.6,1.2,12,12,0,0,1-.85,1.2c-.18.36-.4.87-.66,1.54s-.4,1-.4.87l.4.94a10.38,10.38,0,0,1-.66,1.53c-.26.49-.53,1-.79,1.54-.09.27-.18.51-.26.73a2.86,2.86,0,0,0-.14,1h.66a20.42,20.42,0,0,0,2.84-.2,18.76,18.76,0,0,1,2.83-.2l.39.4c1.76-.18,3.56-.34,5.4-.47s3.65-.2,5.4-.2l.4.93a3.36,3.36,0,0,0-.59.07,2.7,2.7,0,0,1-.6.07l-.39.67H316.7ZM307,375a22.06,22.06,0,0,1-2.44,1.2,8.64,8.64,0,0,0-2.3,1.47,14.32,14.32,0,0,0,2-.67,15,15,0,0,1,2.17-.66Zm2.9,21.52a12.59,12.59,0,0,1-3.29,2.6,16.87,16.87,0,0,0-3.43,2.47,11.09,11.09,0,0,0,3-1.2c.93-.53,1.87-1.11,2.84-1.74l.52-.4-3.95,1.87,9.22-5.21h-1.18a1.13,1.13,0,0,0-.53.14,1.82,1.82,0,0,1-.79.13Zm-6.32-21.79a4.45,4.45,0,0,0,1.91-.4,5.18,5.18,0,0,0,1.51-1.07Zm4.61-2.67a18.41,18.41,0,0,0-2.11.67,11.33,11.33,0,0,0-2.11,1.07l-.26.53ZM310,363a.88.88,0,0,1-.26-.67.55.55,0,0,1,.13-.4l-3.29,1.87-.14,1.34Zm3.29.8c-1.23.63-2.41,1.25-3.55,1.88a15.35,15.35,0,0,0-3.16,2.27l5.79-2.94Zm-6.19-3.34v-.13a.12.12,0,0,0-.13.13l-.13.27Zm7,39.69.4-.8-3.16,2.41a16.54,16.54,0,0,1-3.43,2l7.77-.4a3.63,3.63,0,0,0,.79-1.13,5.51,5.51,0,0,1,.8-1.27,11.8,11.8,0,0,0-2.38,1.13,22.36,22.36,0,0,1-2.24,1.27l-3.95.14ZM308.4,360l1.58-.93a1.31,1.31,0,0,1-.26-.94l-.79.4Zm.26,4.28,2.64-1.07-.66-.13Zm.4-6.28,1.05-.67a9.23,9.23,0,0,1,1.12-1.2c.4-.36.81-.71,1.25-1.07a2.87,2.87,0,0,0-1.58.53,13.68,13.68,0,0,1-1.58.94Zm.26,3.07a4.07,4.07,0,0,0,2.24-1.07c-.44.18-.83.36-1.18.54l-1.06.53Zm3.82-11.49a7.66,7.66,0,0,0-2.5.4,2.13,2.13,0,0,0-.26.94l2.76-1.34Zm7.77,5.34c-1.49,1.07-3,2.1-4.54,3.08s-3.05,2.05-4.55,3.21l-.79.66h.53l3.62-2.27a20.22,20.22,0,0,1,3.76-1.87l-5.8,3.74a12.68,12.68,0,0,0,3.49-1.94,7.68,7.68,0,0,1,3.76-1.53l1.18-.8Zm-.65-1.73-8.7,4.14-.39.53a11.15,11.15,0,0,0,4-1.8,8.56,8.56,0,0,1,4-1.54H320l.79-.4.13.67c-.17-1.07-.35-1.94-.52-2.61a5.87,5.87,0,0,0-1.32-2.2l.53,1.34-.27.93c-1.05.63-2.1,1.2-3.16,1.74a21.69,21.69,0,0,0-3,1.87l6.85-3.74Zm-7.51,16.43.52-.4a3.2,3.2,0,0,1,.53-2l-1.45.8Zm1.05,2.54.66-.4.13-.53a8.4,8.4,0,0,1,1.12-1.2l1-.94a12.35,12.35,0,0,1-1.19.53l-1.31.54a7.68,7.68,0,0,1-1.45.67c0,.18.13.26.39.26Zm-.79,1.47.4,1.34.39-.13Zm1.45.14,3.42-2a6.06,6.06,0,0,1-2.24.54.54.54,0,0,1-.26-.07,1,1,0,0,0-.39-.07l-1.06.54Zm9.09-11.63a38.69,38.69,0,0,0-4.81,2.87q-2.17,1.54-4.54,3.41h.92q2.24-1.2,4.54-2.34a33.23,33.23,0,0,0,4.42-2.6Zm-3.29-2.94a7.41,7.41,0,0,1-2.71,2.47,20.07,20.07,0,0,0-3.09,2.21c1.32-.71,2.65-1.38,4-2s2.74-1.29,4.15-2l-.53-1.74ZM315,376.87l1.44-1.07V375l-1.84.8Zm2.76-26.46,1.32-.4-2.24-.4-2,.8,2.38-.53Zm-2.5,29.27a.32.32,0,0,0,.33-.2c0-.14.15-.2.33-.2l3.16-1.61v-1.33l-3.95,2Zm9.48-14.44a21.23,21.23,0,0,0-4.41,2.41,26.72,26.72,0,0,0-3.89,3.07c.8-.35,1.61-.69,2.44-1a12.7,12.7,0,0,0,2.31-1.13l-3.82,2.27a10.61,10.61,0,0,0,3.16-1.61,21.47,21.47,0,0,1,3-1.87l.53.94,1.31-.8Zm-8,16.31,2.24-1.34a10,10,0,0,1,3.95-3.21,19.81,19.81,0,0,0,4.48-2.8,61.52,61.52,0,0,0-5.6,2.94c-2,1.16-3.75,2.27-5.34,3.34Zm1.05,2.27.92-1.34-.52-.4-1.06.54.27.8Zm6.85,11.89q-.39,0-.39.27a12.52,12.52,0,0,0-1.58,1.07c-.71.54-1.43,1.14-2.18,1.8s-1.45,1.34-2.11,2a6,6,0,0,0-1.25,1.67c.35-.18,1-.47,1.85-.87s1.78-.82,2.7-1.27a26.91,26.91,0,0,0,2.57-1.4,6,6,0,0,0,1.58-1.27l-1.32.13-.39-.4Zm-6.72-21.38-.39.54a9.86,9.86,0,0,0,3.88-1.67q1.78-1.27,3.63-2.34l.52.93,1.19-.67-.4-.93Zm.79,13q1.84-.81,4.42-2.14a13.65,13.65,0,0,0,3.88-2.81,23.89,23.89,0,0,0-3.88,1.87,7.92,7.92,0,0,1-4,1.2,1.35,1.35,0,0,1-.33.14,1,1,0,0,0-.33.13,1,1,0,0,1-.39.13q0,.27.39.27Zm.27,9.08a8.39,8.39,0,0,0,.72-.53,3,3,0,0,0,.6-.67Zm.13-14.83a7.35,7.35,0,0,0,3.56-1.67,12.5,12.5,0,0,1,3.42-2.07l.66.26,1.58-.93-.26-.94Zm.53,8.95a6.16,6.16,0,0,0,2.1-1.67,18,18,0,0,1,2.24-2.07H323L319.07,389Zm9.09-12.43c-.09,0-.22.09-.4.27q-2.12,1.08-4.48,2.14a23.8,23.8,0,0,0-4.21,2.41l9.61-4Zm-8.43,13.1a1.15,1.15,0,0,1,.13-.53l-.53.26.4.94Zm2,3.48a7.65,7.65,0,0,1-2.24,2l2.64-1.34Zm4.61-22.32q-2,1.07-3.69,1.8a7.27,7.27,0,0,0-3,2.61,34,34,0,0,0,3.56-1.81,22.61,22.61,0,0,1,3.56-1.67Zm4.88,12q-2.39,1.35-4.68,2.74a54,54,0,0,1-4.81,2.61l-.79,1.47c1.76-1,3.53-1.94,5.34-2.87s3.57-1.89,5.33-2.88Zm-.53-1.06c-1.41.8-2.81,1.58-4.22,2.33a16.12,16.12,0,0,0-3.82,2.88l8.3-4.81Zm-.66,4.67a3.13,3.13,0,0,1-1.12,1.47,18.86,18.86,0,0,1-2,1.34,25.84,25.84,0,0,0-2.17,1.47,6.89,6.89,0,0,0-1.71,1.87,29.47,29.47,0,0,0,4.28-2.81,12.6,12.6,0,0,1,4.68-2.27l-.14-.67a2,2,0,0,1-1.12.67c-.57.18-1,.32-1.38.4l2.5-1.2-.26-1.07Zm-5.66,16c.35.18.52.36.52.53l1.45-.8v-.53l.53-.8-.79-.14-.53-.8-2.24,1.6h.92Zm8.69-11.63c-1.14.54-2.26,1.05-3.36,1.54a33,33,0,0,0-3.23,1.67c1.06-.71,2.11-1.38,3.16-2l3.17-1.87-.4-1.21-2.63,1.61,1.18-.54c-1.05.72-2.17,1.4-3.36,2.07a6.6,6.6,0,0,0-2.7,2.88c-.17,0-.24,0-.19.06s0,.12-.07.2a17.26,17.26,0,0,0,4.21-2.2A17.54,17.54,0,0,1,333.56,392.37Zm-7.51,13.37a42.47,42.47,0,0,1,5.47-2.41,19,19,0,0,0,5.2-2.8l-.13-.41a12.44,12.44,0,0,0-4.08,2.28,6.59,6.59,0,0,1-4.22,1.6h-1.05l-1.72.8Zm7.91-12a11.61,11.61,0,0,0-3.89,1.8,18.48,18.48,0,0,1-3.76,2.08l.4.26q1.85-.93,3.75-1.8c1.28-.58,2.57-1.14,3.89-1.67Zm-6.33,16.44,2.11-1.21,1.58-2a4.44,4.44,0,0,1-2.5.8l-.4-.27-1.31.67Zm-.39-28.87L328,381l.39.81-.39.8,2.63-1.21-.53-1.6Zm2.1,47q2.51-1.47,5.21-3.21c1.8-1.15,3.36-2.18,4.67-3.07a8.29,8.29,0,0,0-2.24,1q-1.19.73-2.43,1.41c-.84.44-1.65.84-2.44,1.2a5.4,5.4,0,0,1-2.24.53l-.39-.93-2.11.67.26.66,1.85-.13-1.85.8.4.67,2-.93-1.71,1.47Zm6.72-29.26h0a20.86,20.86,0,0,0-3.55,1.67,12.51,12.51,0,0,1-3.56,1.4l-.66.8c1.14-.62,2.11-1.14,2.9-1.54l2.5-1.27A24.64,24.64,0,0,1,336.06,399.06Zm-.92-2.68c-1,.54-1.89,1.07-2.77,1.61a28.88,28.88,0,0,1-2.76,1.47l-1.19,1.6a12.39,12.39,0,0,0,3.23-1.87,11.77,11.77,0,0,1,3.36-1.87l.39.8-.26.94.79-.54ZM328.82,413l1.18-1.2-1.31.67Zm1.05,2.28,1.45-.81a13.8,13.8,0,0,1,.66-1.8,4.45,4.45,0,0,1,1.18-1.54l-.39.27c-.62.45-1.25.87-1.91,1.27a4.15,4.15,0,0,0-1.52,1.54l2.51-1.34-2.37,1.6Zm1.06,2.94a4,4,0,0,1,.85-1.47,10.92,10.92,0,0,1,1.25-1.21h-.92a2.93,2.93,0,0,0-.92.27c-.44.18-.75.31-.92.4Zm.52,1.6,1.06-.94a4.28,4.28,0,0,1-1.32.27Zm.4,2.81a13.6,13.6,0,0,1,1.58-1,7.59,7.59,0,0,0,1.32-.87,4.69,4.69,0,0,0-1.52.54c-.48.27-.94.53-1.38.8Zm5-5.22a8.78,8.78,0,0,0-2.5,1.47c-1.05.81-1.84,1.43-2.37,1.87a12.83,12.83,0,0,0,2-.93c.61-.36,1.27-.71,2-1.07Zm-3.42,10.16a3.26,3.26,0,0,1-1.32.8h.53Zm.39-11.09a4.18,4.18,0,0,0-1.45,1.33l2.24-.93Zm5.14-9.49-.13.67-3,1.87a8,8,0,0,1-1.71,1.94,4.34,4.34,0,0,0-1.45,2.2q1.71-1.06,3.69-2.47a15.17,15.17,0,0,1,3.95-2.07l-.79-2.41Zm-.79-3.47h0c-1,.53-1.89,1.06-2.77,1.6a17,17,0,0,0-2.5,1.87c1.06-.62,1.91-1.11,2.57-1.47s1.29-.69,1.91-1a5.61,5.61,0,0,1,1.05-.47Zm.13,22.58a14.08,14.08,0,0,1-4.08,2.27h1.84l3.69-2.14Zm-2.63-10.42.79-1.74L335.14,415l-.13.67Zm.79,12.69c3.07,0,6.19.14,9.35.4a.89.89,0,0,1-.26-.66h-.66a10.61,10.61,0,0,0-1.19.06c-.35.05-.74.11-1.18.2l-.4-.8-1.18.67Zm3.55-15.5a2.21,2.21,0,0,0-1.77.87c-.49.58-.95,1.09-1.39,1.54l2-1.07.53.53,2.1-1.07c-.17-.62-.33-1.22-.46-1.8s-.28-1.18-.46-1.81l-1.05.54.13.93-.66.67,1.32-.53.66.53Zm-1.71,4-.66,1.2,2.64-.8.53-1.47Zm2.77-1.74-2.64,1.34q.66-.27,1.32-.6C340.19,415.61,340.63,415.36,341.07,415.09Zm-1.45,10.16c.53-.18,1.05-.38,1.58-.6s1.05-.47,1.58-.74l-.13-.67Zm2.9-3.21-.4-1.34-.13.41a8,8,0,0,1-1,.86l-1,.74,1.72-.13Zm-.4-1.6-.39-.8-1.45.8,1.32-.4Zm-.66-3.61.27.53,1.18-.66-.66-1.47Zm1.32,2.27.53,2.41,1.71-.81-1.32-2.13Zm3.82,8.82,1,.27a3.54,3.54,0,0,0,1,.13,12.65,12.65,0,0,0,1.84-.13,13.92,13.92,0,0,0,1.85-.4,11.57,11.57,0,0,0-1.12-1.74,8.59,8.59,0,0,0-.79-.8,4,4,0,0,0-.73-.47q-.39-.19-1.05-.6a25.93,25.93,0,0,1-2.64,1.4,9.84,9.84,0,0,0-2.5,1.67,5.32,5.32,0,0,1,1.32-.33,11.85,11.85,0,0,0,1.31-.2l.53.4,3.29-1.47.66.27-3.16,2Zm-3-5.21.53.67a12.14,12.14,0,0,0,2.11-1.21l-.53-.8Zm8.7,3.07c0,.09.13.14.39.14a.53.53,0,0,0-.39-.14Z" fill="#fff"/><path d="M354.5,351.08a6,6,0,0,1,.4-2,27.56,27.56,0,0,0,7.57-1.06,26.89,26.89,0,0,1,7.45-1.07l.39.8-.26.53,1.38.14c.84.09,1.76.15,2.77.2l3,.13c1,.05,1.58.07,1.85.07a21.59,21.59,0,0,0,2.89-.2c1-.14,1.94-.29,2.9-.47l.53.53,1.32.14a19.93,19.93,0,0,0,2.24-.14,23.52,23.52,0,0,1,2.37-.13,12.87,12.87,0,0,1,4.74,1.07q2.64,1.06,4.74,2.14v.93c.79.45,1.65,1,2.57,1.61a3,3,0,0,1,1.38,2.67l.53.4a6.69,6.69,0,0,0,1.85,3.94,8.44,8.44,0,0,1,2.1,3.94l-.79.67a16.67,16.67,0,0,1,.13,2.07v2.08l-.79,2.13.4-.26a22,22,0,0,1-.79,3.2v.81a8.85,8.85,0,0,1-.59,1.2c-.31.53-.64,1.07-1,1.6s-.73,1.05-1.12,1.54a5.43,5.43,0,0,1-1,1c-.18.18-.26.31-.26.4l-.53.54a.9.9,0,0,0-.26.67,3.66,3.66,0,0,1-2,2l-.26.4,1.84-.4.53.8a5,5,0,0,1-1.45,1.61l2.37,1.2a8.21,8.21,0,0,0,.59,1,2.86,2.86,0,0,0,.73.74l1.18,1.2,1.39,1.4a5.51,5.51,0,0,1,1.12,1.67l-.4.8.26.67h.66l.4,1.87-.4.67a4.25,4.25,0,0,1,.93,2.67l.39.94.53.27a9.06,9.06,0,0,0,.06,1.13,7.47,7.47,0,0,1,.07,1.14c0,.53,0,1.09-.07,1.67s-.11,1.18-.19,1.8l.26,1.34-.53,2.14a4.72,4.72,0,0,0-.39,1.13,6.51,6.51,0,0,0-.13,1.41,1.78,1.78,0,0,0-.53,1.33l-.13.94a12,12,0,0,0-1.58,1.87,14.56,14.56,0,0,1-1.06,1.4,11.62,11.62,0,0,1-1.32,1.27,13.41,13.41,0,0,1-2.23,1.47q-.54,0-.66.27c-.71.36-1.39.69-2,1a1.5,1.5,0,0,0-1,1.4,9.49,9.49,0,0,1-2.9,1c-1.14.22-2.26.44-3.36.67s-2.06.4-2.9.53a14.57,14.57,0,0,0-1.65.33l-.39.54-1.05-.13h-1.45c-.88,0-1.72,0-2.51.06s-1.62.07-2.5.07H366.1a5,5,0,0,1,.92.2c.09,0,.09.07,0,.07a11.6,11.6,0,0,0-1.45.2,12.19,12.19,0,0,1-1.71.2,2.16,2.16,0,0,1-1.32-.4,13.2,13.2,0,0,1-2.5.26h-2.51l-.39-.26a7.07,7.07,0,0,0-2.37-.27c-.27,0-.4-.05-.4-.13a3.06,3.06,0,0,0-.19-1.07,2.93,2.93,0,0,1-.2-1.07c0-.89.26-1.43.79-1.61a6,6,0,0,0,2.5.54,3.06,3.06,0,0,0,2.44-1,7,7,0,0,0,1.32-2.54,13.13,13.13,0,0,0,.52-3.21c.05-1.11.07-2.07.07-2.87v-2A.87.87,0,0,1,361,413l-.13-1.6a11.09,11.09,0,0,1,.33-2.67,11.69,11.69,0,0,0,.33-2.81l-.53-.4a8,8,0,0,1-.4-1.27,6.43,6.43,0,0,1-.13-1.27,2.11,2.11,0,0,1,.92-2l-.13-.54a.22.22,0,0,0-.19.07.57.57,0,0,1-.33.07l-.27-.94.53-.4a8,8,0,0,0-.66-3.07l-.39-.94.39-.4v-1.47a24.79,24.79,0,0,1,.13-2.61,10,10,0,0,1,.66-2.6l-.13-1.87v-8.56h-1.19c-.08-.44-.13-.71-.13-.8v-.27l1.32-.93c0-.18,0-.49-.07-.94s-.06-.89-.06-1.33a3.28,3.28,0,0,1,.26-1.47c-.09-.63-.24-1.69-.46-3.21a27.6,27.6,0,0,1-.33-3.88,2.81,2.81,0,0,1,.13-1.07,41.53,41.53,0,0,1-.2-4.87,12.07,12.07,0,0,0-1-4.75,3.1,3.1,0,0,0-.66-.47,1.71,1.71,0,0,0-.53-.2c-.18,0-.31-.13-.39-.4h-1.26a3.32,3.32,0,0,0-1.25.27l-.52-1.2a2.5,2.5,0,0,0-.07-.54,2.33,2.33,0,0,1-.07-.53Zm3.43,74.17a11.74,11.74,0,0,1-1.38.2,13.61,13.61,0,0,1-1.39.07,1,1,0,0,1,.14.66,7.89,7.89,0,0,1,1.31-.4A3.85,3.85,0,0,0,357.93,425.25Zm-2.24-73.1a4.1,4.1,0,0,0,1.05-.27,15.47,15.47,0,0,0,1.65-.67c.57-.26,1.16-.51,1.78-.73s1.1-.38,1.45-.47c-1,.27-2,.51-3.16.73A5.21,5.21,0,0,0,355.69,352.15Zm1.05,75.1a1,1,0,0,1-.39-.06.54.54,0,0,0-.26-.07h-.27a.38.38,0,0,0,.27.13Zm2.51-74.57c.17,0,.26-.17.26-.53l3.29-1.34a2.25,2.25,0,0,0,.27-.67,1.26,1.26,0,0,0,.13-.33s.13-.11.39-.2c.09,0,.22-.09.4-.27a18.05,18.05,0,0,0-3.49,1.14c-1.1.49-2.18,1-3.23,1.53l1.71.14ZM361.88,427l.4-1.34-2,1.47Zm-.13-70.3a11.77,11.77,0,0,1,3.75-2.94q2.17-1.06,4.42-2a35.21,35.21,0,0,0-4.22,1.8q-2,1-4.08,1.94l-.13-1.2.79-.27-1.72.13.93,1.21Zm.53-4a24,24,0,0,0,3.16-1.13q1.71-.74,3-1.41a6.8,6.8,0,0,0-1.39.4l-2.43.87c-.88.32-1.71.63-2.5.94s-1.28.51-1.45.6a12,12,0,0,0,1.25-.33c.39-.14.81-.29,1.25-.47Zm-1.06,40.76q0,.54.27.54a4.6,4.6,0,0,1,1-.8,3.54,3.54,0,0,0,.73-.54l-.26-.93.65-.54-2,1.07v-.8a.28.28,0,0,0-.2.06.24.24,0,0,1-.2.07v1.87Zm2.51-32.61-1.06-.13-.39-.4-.66.4v-1.87l.92-.53-.92-.14a11.78,11.78,0,0,0-.27,2.27c0,.72,0,1.47.07,2.28s.11,1.56.2,2.27v-1.21a6.58,6.58,0,0,0,2.24-1.93A5.57,5.57,0,0,1,366,360l.39.27-4.74,2.27v-.67Zm-.4,4.95.26-.94,2.24-1.33a11.68,11.68,0,0,0-3.82,1.87l-.39.27v.93Zm-1.45,4.14a5.57,5.57,0,0,0,1.12-.6,5.57,5.57,0,0,1,1.12-.6l.13-.4,1.72-1.61-4.35,2.14ZM365,421.51l-.52.13-.27-.67-2.24,1.2-.39,1.34Zm-3.16-42.63a6.35,6.35,0,0,0,3.1-1.81,9.37,9.37,0,0,1,3-2.07,27,27,0,0,0-3.09,1.4c-1.1.58-2.09,1.1-3,1.54Zm1.45,3.2.26-.4a36.88,36.88,0,0,0,3-2.2c.92-.76,1.91-1.49,3-2.21l-7.51,4,.14,1.2Zm2.5,14.3c-.52.18-1.12.36-1.77.54l-2.05.53v.8a10.36,10.36,0,0,1,1.85-1.07C364.47,396.92,365.13,396.65,365.83,396.38Zm9.09-45.7c-.26.18-1.07.6-2.43,1.27s-2.79,1.38-4.29,2.14-2.83,1.47-4,2.13a19.16,19.16,0,0,0-1.91,1.14h.66a10.14,10.14,0,0,0,3.09-1c1.54-.67,3.18-1.43,4.94-2.27s3.45-1.67,5.07-2.48l3.49-1.73h-.92a15.13,15.13,0,0,0-2.37.2c-.88.13-1.67.29-2.37.46l-1.32.94Zm-12.64,37.68q2.24-1.07,4.15-2.2c1.27-.76,2.65-1.49,4.15-2.21a18.55,18.55,0,0,0-4.29,1.41q-2.16,1-4,2.07Zm4.48,9.63a21.65,21.65,0,0,1-2.24,1.07l-2.24.93v1.6a12.49,12.49,0,0,0,1.84-1,6.26,6.26,0,0,1,1.85-.87,1.05,1.05,0,0,0,.32-.93A.74.74,0,0,1,366.76,398Zm-4.35,7.08a11,11,0,0,0,3-2.07,13.18,13.18,0,0,1,2.7-2.07,5.3,5.3,0,0,0-1.25.73,3,3,0,0,1-1.38.6l-3,1.61Zm.26,1.34c.44-.18.86-.36,1.25-.54a1.68,1.68,0,0,0,.86-.8v-.94a7,7,0,0,0-1.19.61,7.65,7.65,0,0,1-1.18.6v1.2ZM372,371.66c0-.54,0-1.07.07-1.6s.11-1.07.2-1.61l-.4-2.14v1.07c-1.23.54-2.72,1.27-4.48,2.21a31.46,31.46,0,0,0-4.21,2.6,5.71,5.71,0,0,0,2.7-1.33,4.25,4.25,0,0,1,2.83-1.07l3.16-1.34v2l-9.35,5.74a22.37,22.37,0,0,0,4.54-2.27,12.74,12.74,0,0,1,4.55-1.87Zm-9.35,45.44a5.28,5.28,0,0,1,1.45-1.07l1.58-.8a3.6,3.6,0,0,1-1.38.26,6,6,0,0,0-1.65.27Zm.13-22.72a50.11,50.11,0,0,0,6.66-3.14,72.67,72.67,0,0,0,6.25-3.81,14.38,14.38,0,0,0-4.08,1.07c-1.23.53-2.5,1.16-3.82,1.87a11,11,0,0,1-2.24,2.4A6.92,6.92,0,0,1,362.8,394.38Zm0,19.11a6.58,6.58,0,0,1,2.44-2.47,30.69,30.69,0,0,0,3-1.94,8.62,8.62,0,0,0-2.23.6,3.93,3.93,0,0,0-1.06.73c-.26.27-.53.56-.79.87a7.26,7.26,0,0,1-1.32,1.14Zm3.82-3.48c-.7.36-1.34.72-1.91,1.07l-1.91,1.21Zm-.13-27.53a6.77,6.77,0,0,0-3.55,1.47Zm-3.42,43.7,2-1.07-.66.14Zm4.21-10.69-1.84.8a6.92,6.92,0,0,0-1.71,1.07Zm-3.42-55.72a33.5,33.5,0,0,0,3.55-1.07c1.23-.45,2.42-.89,3.56-1.34a.6.6,0,0,0,.33-.47c0-.22.24-.33.59-.33a10.72,10.72,0,0,0,2.05-.47c.65-.22,1.33-.47,2-.73a4,4,0,0,1-1.19.13,4.53,4.53,0,0,1-1.45-.27Zm1.31-4.68a3.13,3.13,0,0,0,1.12-.74,3.34,3.34,0,0,1,1.12-.73,3.34,3.34,0,0,0-1.12.73A3.13,3.13,0,0,1,365.17,355.09Zm0,36.21.27-.13a.12.12,0,0,0,.13-.13h-.13Zm6.72,18.31a17.75,17.75,0,0,0-3.36,2.21,29.12,29.12,0,0,1-3.22,2.34,21.74,21.74,0,0,0,3.29-1.61c1.23-.71,2.33-1.29,3.29-1.73Zm-.66-15.5a12.71,12.71,0,0,1-3,1.8,8.92,8.92,0,0,0-2.7,1.81l.66-.47a1.31,1.31,0,0,1,.79-.2l4.21-2.4Zm.66,21.12a13.78,13.78,0,0,0-3.16,2.6,8.25,8.25,0,0,1-2.9,2.21l1.85-.94a13.77,13.77,0,0,0,2-1.27,19.55,19.55,0,0,0,1.71-1.4,1.85,1.85,0,0,0,.73-1.2l-.14-3.75a.32.32,0,0,0-.06-.2.24.24,0,0,1-.07-.2l-.66.27v.8l-1.18,1.2,1.84-1.06Zm-1.31-14.84c-.71.72-1.43,1.38-2.18,2s-1.51,1.25-2.3,1.87h.79l4.87-3.21v-1.2Zm1.31,8.55a6.3,6.3,0,0,0,.33-1.33c.13-.71.2-1.11.2-1.2a9.44,9.44,0,0,0-.66-3.35l-4.35,2.14.27.8,4.21-2.27v1.34l-5.79,3.34a7.28,7.28,0,0,1,1.31-.4l1.45-.27,3-1.6L369,407.88l.65,1.06,2.24-1.2ZM369,365.65a2.17,2.17,0,0,0-1.39.8,4.43,4.43,0,0,1-1.38,1.2Zm-.14,59.46c1.06-.71,2.09-1.42,3.1-2.13a32.1,32.1,0,0,1,3.23-2l-1.45-.13c-1.14.8-2.29,1.63-3.43,2.47a37.48,37.48,0,0,1-3.55,2.34Zm3.3-48.11-1.19.94,1-.4-4.74,2.81a15.7,15.7,0,0,0,2.31-1,5.06,5.06,0,0,1,2.43-.6Zm-4.61,20.05h.52l.53.8,3-1.47-.53-.53v-.54ZM372,419a9.11,9.11,0,0,1-2.1,1,9,9,0,0,0-2.11,1l1.19-.27.52.67,2.37-1.47.27-.53Zm-.92-57.6a11.09,11.09,0,0,1-2.1,1.2l2.37-.93.13-.94Zm-.39,25.79a2.51,2.51,0,0,0-1.06.8l.93-.4Zm.66,5.08a.74.74,0,0,1,.13-.53,8.32,8.32,0,0,0-1.85.93l1.72-.4Zm-1.58,6.95.92-.27.52.67.53-.4V398Zm1.58-40.89-.93.8,1.06-.4Zm3.82,67.48-1.32.14-.53-.4-2.63,1.6,2,.13Zm-3.3-38.62a58.53,58.53,0,0,1,6.59-3.21l-1.84-.26-5.14,2.4Zm1.32,31.67.13.54a3.45,3.45,0,0,0,1.32.33c.53.05,1,.07,1.32.07l.52-.67c.62-.09,1.23-.15,1.85-.2s1.27-.07,2-.07h.86a2.67,2.67,0,0,1,.86.14l2.37-.14a4.42,4.42,0,0,1,1.31.14l1.85-.2c1.14-.14,2.33-.34,3.56-.6a20.12,20.12,0,0,0,3.42-1.07c1.05-.45,1.58-1.07,1.58-1.87l-.26-.81a26.59,26.59,0,0,0,1.45-2.47,17,17,0,0,1,1.71-2.6v-2.28l-.26-.4c-.18-1.42-.31-2.71-.4-3.87a20.13,20.13,0,0,0-.79-4l-.66-.14a9.28,9.28,0,0,1-.72-1.6c-.22-.62-.38-1-.46-1.2a9.66,9.66,0,0,1-.66-.74c-.27-.31-.4-.51-.4-.6,0-.44-.72-.84-2.17-1.2s-3.08-.67-4.87-.94-3.5-.49-5.08-.66a21.65,21.65,0,0,1-2.76-.41,6.89,6.89,0,0,1-1.39.14h-2.83c-1.05.18-1.93.35-2.63.53l-.4,2.27h.66a4.07,4.07,0,0,1,.66,2.14,13.77,13.77,0,0,1-.2,2.34q-.19,1.14-.33,2.34l.53.94-.26.4.13,2a15.14,15.14,0,0,0-.4,3.68c0,1.38,0,2.69-.13,3.94a25.87,25.87,0,0,0,.2,3.27,26.15,26.15,0,0,1,.2,3.28Zm0-39.29h0v1.21a4.41,4.41,0,0,1-.13,1.07l.79.26a13,13,0,0,1,3.09-.4c1.63-.09,3.19-.13,4.68-.13h1.25a4.61,4.61,0,0,1,.86.07,6.17,6.17,0,0,0,.92.06h1.58l.59-.06c.31-.05.47-.16.47-.34a3.21,3.21,0,0,1,1.38-1,4.59,4.59,0,0,1,1.65-.34l.65.14.93-.67a26.46,26.46,0,0,1,1.64-3.54c.66-1.2,1.34-2.43,2-3.68v-.93c0-.45,0-1,.07-1.54a5.37,5.37,0,0,1,.59-1.94v-2.94a6.92,6.92,0,0,1-.85-1.67,4.12,4.12,0,0,0-.86-1.53h-.79a2,2,0,0,0-1.12-1.07,2.14,2.14,0,0,1-1.12-1.61,4.15,4.15,0,0,0-2.24-.66l-.26-.54-2.18-.53a10.93,10.93,0,0,0-2.56-.27l-.4.67a29.13,29.13,0,0,1-3.95-.27,29.24,29.24,0,0,0-3.95-.27h-1.19a2.12,2.12,0,0,0-1.45.47c-.35.31-.52,1.14-.52,2.47.08.8.13,1.47.13,2s0,1.09.06,1.67.07,1.05.07,1.4l.53.27.13,1.33a9.24,9.24,0,0,1-.2,1.88,9.07,9.07,0,0,0-.2,1.87l.27,2.27a10.61,10.61,0,0,1,.39,1.74,11.64,11.64,0,0,1,0,3.47A2.77,2.77,0,0,1,373.21,379.54Zm2,47.71q2-1.2,3.95-2.47c1.32-.84,2.68-1.67,4.08-2.47a17.85,17.85,0,0,0-5.27,2c-1.49.89-3.12,1.87-4.87,2.94Zm-1.85-36.61a14.08,14.08,0,0,0,2.51-.27,4.69,4.69,0,0,0,2.23-.94,23.1,23.1,0,0,1-2.37.47A7.57,7.57,0,0,0,373.34,390.64ZM375.19,356c.35,0,.52,0,.52-.13a13.65,13.65,0,0,0,5.34-1.14c1.8-.75,3.53-1.58,5.2-2.47-.18,0-.28,0-.33.07a.53.53,0,0,1-.33.07c-1.67.44-3.47,1-5.4,1.6a34.39,34.39,0,0,0-5,2Zm.39-1.73a13.78,13.78,0,0,0,6.06-1.47,27.12,27.12,0,0,1,6.06-2.14l-.39.13h2.5a.9.9,0,0,0,.66-.27l.26-.26c-.18,0-.24,0-.2-.14s0-.22-.06-.4h-3l-.4.54h-1.18Zm.4,31.94,2.1.13,4.75-2.27h-2.37Zm8,1.6c-1.05.27-2.13.58-3.22.94a17.23,17.23,0,0,0-3.1,1.33l2-.13Zm-2.11,32.61c-.44.26-.9.56-1.38.87A7,7,0,0,1,379,422v.54c.61-.27,1.2-.52,1.78-.74a8.25,8.25,0,0,1,1.77-.47l.79-.53Zm2.77-33.95a24.73,24.73,0,0,1,3-.87,14.34,14.34,0,0,0,3-1l-1.32-.13-.26-.8-9.88,4.41a30,30,0,0,1,3.62-1.07,11.32,11.32,0,0,0,3.49-1.47Zm-3.82,40.63.66-.4-.26-.4-1.45.93Zm2-1.47a8.39,8.39,0,0,0,2.5-1.14q2.37-1.26,5.27-3l5.53-3.34c1.76-1.07,2.9-1.74,3.43-2v-.67a26,26,0,0,1,3.69-2.4,12.85,12.85,0,0,0,3.42-2.68,4.78,4.78,0,0,0-3,1.21c-1,.8-2,1.67-3,2.6s-2,1.81-3,2.61a4.81,4.81,0,0,1-3,1.2.74.74,0,0,0-.52.27q-.27.13-2,1.2l-3.69,2.34q-2,1.28-3.69,2.41A17.62,17.62,0,0,0,382.83,425.65Zm3.29.67a10.71,10.71,0,0,1-2.77.4l-.52.27h2.37a20.91,20.91,0,0,1,2.37.13l1.45-.54-3.82.27Zm-2.5-5.48c0,.09-.22.22-.66.4l2.5-.4Zm1.45-30.34.39-.26-.39-.81-2,.81Zm.52-1.33c.35,0,.53,0,.53.13l1.84.13.66-.13a15.55,15.55,0,0,0,4.28-1.14c1.36-.57,2.75-1.18,4.15-1.8l.66-.54a11.68,11.68,0,0,0,1.12-1,3.19,3.19,0,0,1,1.39-.73v-.8l.65-.94c-.7.45-1.36.85-2,1.2a10.83,10.83,0,0,1-1.71.94l-1.59.67-.39.8a8.71,8.71,0,0,0-1.58.4c-.88.27-1.87.6-3,1l-3.16,1.14ZM387.7,391l1.45-.67a6.18,6.18,0,0,1-1.45.13,4.63,4.63,0,0,1-1.32-.13l-.66.27.93.4Zm-2,34.21a11.9,11.9,0,0,0,3.3-.94,21.93,21.93,0,0,0,3-1.73h-.66l-.26-.67Zm7.38-75a12.24,12.24,0,0,0,2.5.67q-2.24.8-4.28,1.73t-4.15,1.87c1.41-.44,2.77-.91,4.09-1.4a12,12,0,0,1,4.21-.73l.93.13,1.18-.54a1.27,1.27,0,0,1-.39-.93l-2.05-.54a8.09,8.09,0,0,0-2-.26ZM388.62,356a10.59,10.59,0,0,1,2-1.27,10.33,10.33,0,0,1,2.24-.86,5.29,5.29,0,0,0-1.12.26c-.57.18-1.17.38-1.78.6s-1.21.43-1.78.61a3.22,3.22,0,0,0-1,.4Zm2.77,70,10.54-6.82a14.46,14.46,0,0,0-2,.94,7.55,7.55,0,0,1-2,.8l-.4.94-4,2.14q-2,1.06-4,2.27a4.75,4.75,0,0,1,.65-.27,2.16,2.16,0,0,1,.66-.13l.4.4L396.4,425l1.18-.93.26-.67a11.26,11.26,0,0,0,4.61-2.54,23.42,23.42,0,0,1,4.35-3.08l-.13-.4.4-.8a37.25,37.25,0,0,0-6.92,4.35,77.82,77.82,0,0,1-6.65,4.74Zm-.92-34.61a4.37,4.37,0,0,0,2.37.67l.92-.4h-.53a1.16,1.16,0,0,1-.13-.67c0-.27,0-.4.13-.4l1.32-.94ZM393,357c.61-.27,1.19-.54,1.71-.8a8.31,8.31,0,0,0,1.58-1.07,9,9,0,0,0-2.76,1,9,9,0,0,1-2.77,1,3.08,3.08,0,0,0,2,.54l1.18-.94Zm4.35,24.32a19.74,19.74,0,0,0-5.67,2,13.65,13.65,0,0,0,2.9-.81c.88-.35,1.8-.75,2.77-1.2Zm-5.54,40.09,3.69-.67,2.9-1.73-.66-.14-.26-.8Zm2.38-28.6a22.16,22.16,0,0,1,2.63-1.13c.88-.31,1.8-.69,2.77-1.14l-2.84.8a10,10,0,0,1-2.83.41l-1.05.53Zm.13-32.74.79.67a8.84,8.84,0,0,0,2.5-1.6,9.83,9.83,0,0,1,2.24-1.61,12.82,12.82,0,0,0-3.1.67c-1,.36-2.08.72-3.22,1.07,0,.18,0,.27.13.27s.17.09.26.27l3.95-1.61Zm.52,18.31,2.11-.8A3.42,3.42,0,0,1,398,376.2a16.66,16.66,0,0,1,1.91-1.27c.7-.4,1.41-.75,2.11-1.07a16.77,16.77,0,0,0,1.71-.86,12.65,12.65,0,0,0-2.7.8,6.88,6.88,0,0,1-2.7.53l-2.11.94.27-.94-.13-.4-1.06,2.41V377Zm.93-1.74c1.23-.62,2.45-1.2,3.69-1.73s2.45-1.12,3.68-1.74L395.34,377Zm-.4,13.9a5.19,5.19,0,0,0,2-.87,19.13,19.13,0,0,0,1.78-1.27,8.89,8.89,0,0,0-1.91,1A15,15,0,0,1,395.34,390.5Zm3.16-37.28a9.57,9.57,0,0,1-1.05.46c-.35.14-.7.3-1.05.47h2.37l.79-.26Zm-1.45,9.89a23.31,23.31,0,0,1,2.11-1.67c.7-.49,1.41-1,2.11-1.41a10.09,10.09,0,0,0-2.5.74A11.22,11.22,0,0,0,396.4,362Zm3.17-9c-.62.45-1.21.89-1.78,1.34a11.44,11.44,0,0,1-1.91,1.2l5-1.87-.66-.67Zm2.63,36.35h0a12.85,12.85,0,0,0-3.16,1.61c-1.41.89-2.42,1.56-3,2a13.84,13.84,0,0,0,2.3-.6c.93-.31,1.8-.62,2.64-.94s1.91-.64,3.23-1a4.82,4.82,0,0,0-.93-.93ZM405,360.7a10.16,10.16,0,0,0-1.19-2q-.39,0-.39.66a3.44,3.44,0,0,1-1.25,1.67,11.48,11.48,0,0,1-1.72,1c-.57.26-1.14.51-1.71.73a2.26,2.26,0,0,0-1.25,1.14,10.55,10.55,0,0,0,3.89-1.07A13.81,13.81,0,0,0,405,360.7Zm-4.61,6.15-.92-.27-.14-.53-1.45.93a2,2,0,0,0,.07.54,2.41,2.41,0,0,1,.07.53Zm-1.85,46.24.27-.8a3.28,3.28,0,0,0,.13-.94L398,413l.26.67-.4.8.14.4q2.24-1.06,4.34-2.27c1.41-.8,2.86-1.55,4.35-2.27l.4-.4a13.86,13.86,0,0,0-3.3.94,10.64,10.64,0,0,1-3.29.8Zm.13-13.77a6.43,6.43,0,0,0,2.38-.93,17.74,17.74,0,0,1,2.5-1.21,11.61,11.61,0,0,0-2.5.81,8.13,8.13,0,0,1-2.64.66Zm7.12-6a15.39,15.39,0,0,0-3.56,2c-1.05.81-2.15,1.56-3.29,2.28a35.67,35.67,0,0,1,3.69-1.88c1.23-.53,2.5-1,3.82-1.47Zm-3.56-38.22a11.86,11.86,0,0,0-1.58.67,8,8,0,0,0-1.45.93,10.88,10.88,0,0,1,2-.27l.39.67,1.85-.93Zm3.69,10.15.13.67a6.31,6.31,0,0,1-3.16,2.21,31,31,0,0,0-3.69,1.53l1.65-.53a6.81,6.81,0,0,1,2-.27l4.48-2v-2.27Zm-6.32,42.1a8.79,8.79,0,0,1,3.29-2.14,25.82,25.82,0,0,0,3.56-1.6l-7,2.94Zm.26,4.14-.39-.4c0-.08.21-.31.65-.67l1.45-1.13c.53-.4,1.06-.78,1.58-1.14s.88-.58,1.06-.67a10.29,10.29,0,0,0-2.18,1.34,19.12,19.12,0,0,1-2,1.47Zm6.85,6.82q-1.85,1.06-3.69,2.07a35.06,35.06,0,0,0-3.55,2.21,4.78,4.78,0,0,0,2.1-1.07,4.76,4.76,0,0,1,2.11-1.07,4.07,4.07,0,0,1,2.77-1.47l1-1.07Zm-.26-18.71a9.11,9.11,0,0,0-2.7.94,5.73,5.73,0,0,1-2.7.66l-.79-.13-.66.67v2.14a.62.62,0,0,0,.19.46.82.82,0,0,1,.2.61c.27-.45.51-.87.73-1.27a7.81,7.81,0,0,1,.85-1.27,5.75,5.75,0,0,0-.85.73,2.29,2.29,0,0,1-.86.6l-.13-.67Zm-5.54-11.23-1.18.94a11.59,11.59,0,0,0,1.84-.8l-1.31-.54Zm7.25,24.19-.13.54a8.92,8.92,0,0,1-3.76,2.27,22.61,22.61,0,0,0-4.15,1.74q2.25-.81,4.42-1.74c1.45-.62,2.92-1.25,4.41-1.87l.39-1.34Zm-7.25-45.17c.71-.17,1.39-.35,2.05-.53a4.53,4.53,0,0,0,1.77-.94Zm2.51,49.85-1.58.8a7.14,7.14,0,0,1,.79-.47A6,6,0,0,1,403.38,417.23Zm4.74-17.37a10.58,10.58,0,0,1-3.16,1.6,6.37,6.37,0,0,0-2.9,1.87l6.32-2.8ZM407.2,363c-.62.18-1.47.49-2.57.94a9.32,9.32,0,0,0-2.44,1.33,6.32,6.32,0,0,1,2.24-.53,1.27,1.27,0,0,1,.46.07,1.6,1.6,0,0,0,.46.06l2.24-.93Zm-1.58,13a7.69,7.69,0,0,1-2.9,1.73l.39.54,2.11-.67a8.52,8.52,0,0,0,.66-.94,3.78,3.78,0,0,0,.53-.93Zm-2.9,20.31a4.94,4.94,0,0,1,1.32-.34c.43,0,.87-.06,1.31-.06l.4.27,1.58-.67a2.7,2.7,0,0,0-.66-.94Zm.79-24.19,1.58-.13.39.8-.39.67,1.45-.67.53-2.14Zm2.11,43.7a1,1,0,0,0,.13.4,2.54,2.54,0,0,1,.26.67,6.53,6.53,0,0,0,1.25-.67c.4-.27.81-.53,1.25-.8l.27-1.2Zm1.84-10v.53L406,407.61l3.82-1.87v-.94Zm-.79,3.07h1.19l.39.8a4.56,4.56,0,0,1-1.18,1.87l2.5-1.33a1.48,1.48,0,0,1-.13-.67,6.46,6.46,0,0,1,.06-.94c.05-.26.11-.57.2-.93Zm2.5-5.34v-.54l-1.71,1.2Z" fill="#fff"/><path d="M445,404.53c0-1.06,0-2.15.07-3.27s.07-2.25.07-3.41a34.1,34.1,0,0,0-.86-7.88,26.58,26.58,0,0,0-4.15-8.42l-2.5-3.74a13.43,13.43,0,0,0-1.52-2,13.28,13.28,0,0,1-1.51-2L432.75,371a.38.38,0,0,0-.13-.27.52.52,0,0,1-.13-.4l-.4-.53a10.3,10.3,0,0,0-2.43-2.88,7,7,0,0,1-2.18-2.87,28.52,28.52,0,0,1-2.76-3.81c-.53-.93-1-1.69-1.32-2.27a8.73,8.73,0,0,0-1.25-1.6,13.45,13.45,0,0,0-2.57-1.81,1,1,0,0,1-.79-1.07l-3-.4c-.7-.08-1.05-1-1.05-2.67v-.8l.79-.4a6.51,6.51,0,0,0,1.64-.27,7.27,7.27,0,0,1,1.91-.27h1.71a3,3,0,0,1,1.12-.53,5.73,5.73,0,0,1,1.26-.13,9.29,9.29,0,0,1,1.12.13l1.71.27,1.64.26a2.3,2.3,0,0,1,.93.27l5.13-.67h1.85a8.43,8.43,0,0,1,2.9-.53c.17,0,.26,0,.26.06a1.06,1.06,0,0,0,.13.34h2.9l.26.67.66,2.8-.66,1.07-.52-.53c-.36.18-.49.27-.4.27h-.13c-.44.09-.84.17-1.19.26a2.11,2.11,0,0,0-1.05.8c.18.36.48,1.14.92,2.34a9.53,9.53,0,0,1,.66,2.34l1.19,2.27a1.24,1.24,0,0,0,.92-.4l.53.8c-.27,0-.4.18-.4.54.18.45.4.93.66,1.47a5.67,5.67,0,0,0,1,1.47l.66.27a7,7,0,0,1,1.12,1.47c.31.53.59,1.07.86,1.6l.79.13.39,2a19,19,0,0,1,2.05,3.14c.57,1.11,1.11,2.29,1.64,3.54.09,0,.18.07.27.2a1.52,1.52,0,0,0,.26.33l1.58-2.13a9.6,9.6,0,0,1,1.05-2.07c.44-.67.88-1.32,1.32-1.94l-.13-.54a14.31,14.31,0,0,1,2.3-2.74,15.71,15.71,0,0,0,2.31-2.6,11.9,11.9,0,0,1,1-2.07,3.93,3.93,0,0,1,1.64-1.54l.27-.4a6.12,6.12,0,0,1,1.31-3.08l-.52-.8a4.64,4.64,0,0,1,.85-1.67l1.26-1.53-.14-1.21a3,3,0,0,0-1.12-.53q-.59-.13-1.38-.27l-.66-.8-.13-.8.4-2a.51.51,0,0,1,.52-.4c.09,0,.27.14.53.4l.66-.13.53-.94h4.47c.71,0,1.56,0,2.57.07s1.6.2,1.78.47h2.11c1.67,0,3.25.06,4.74.2s3.12.33,4.88.6l.13.8a5.8,5.8,0,0,1-.73.87,2.17,2.17,0,0,1-1,.6l-.26.94.13.4-.52.67c-.36,0-.58-.05-.66-.14l-2,.27-.13.53a1.49,1.49,0,0,1-.92.47,9.87,9.87,0,0,0-1.06.2,2.3,2.3,0,0,0-.92.47,3.48,3.48,0,0,0-.79,1.4,3.83,3.83,0,0,0-1.58,1.41,19.27,19.27,0,0,0-1,1.87c-.31.67-.61,1.31-.92,1.94a3.49,3.49,0,0,1-1.38,1.47h-.53q-2.76,4.55-4.81,7.75a23,23,0,0,0-2.83,6c0,.09-.09.16-.26.2a.88.88,0,0,0-.4.2,7.09,7.09,0,0,0-1,1.6c-.39.81-.81,1.61-1.25,2.41s-.83,1.52-1.18,2.14a3.34,3.34,0,0,1-.79,1.07h-.53l-.79.93a5.15,5.15,0,0,1-.53,2.28,21.73,21.73,0,0,0-.92,2.13,10.34,10.34,0,0,1,.33,1.87c0,.63.11,1.3.2,2a26.6,26.6,0,0,1-.2,3.21c-.13,1.07-.24,2.13-.33,3.2l.26.67c0,.54,0,1.07-.06,1.61s-.07,1.06-.07,1.6a7.06,7.06,0,0,0,.13,1.6c-.09,0-.13.14-.13.4l.4.67v3.34l.39.54a6.94,6.94,0,0,0-.39,2.4l1.05.67v10.16a11.07,11.07,0,0,0,1.91-.4,6.34,6.34,0,0,1,1.91-.27,1.37,1.37,0,0,1,1.32.87,4.36,4.36,0,0,1,.39,1.8q0,1.2-.39,1.47a2.71,2.71,0,0,0-.79,1.07,5.56,5.56,0,0,1-2,.47c-1.05.13-2.26.22-3.62.27s-2.79.06-4.28.06H439.73a6.09,6.09,0,0,1,.2-.93.22.22,0,0,1,.2-.14.51.51,0,0,0,.39-.13,1.61,1.61,0,0,1-.92-.94,3.58,3.58,0,0,0-.79-1.2v-.67a2.13,2.13,0,0,1,1.39-1.13,9.36,9.36,0,0,1,2.17-.2,7.51,7.51,0,0,0,1.38-.14,2.28,2.28,0,0,0,1.25-.66c.18-1.52.31-3.08.4-4.68s.13-3.16.13-4.68v-.93l-1.58-.14v-.8a7.92,7.92,0,0,1,1.58-1.87c-.09-.71-.15-1.45-.2-2.21s-.06-1.49-.06-2.2Zm-29.37-53.32,1.05-.67-.92-.26Zm2.37.94a5.21,5.21,0,0,0,.79-.67,3.77,3.77,0,0,0,.66-.94l-.66-1.73-2,3.34Zm2,.13a5.85,5.85,0,0,0,2.71-.47c.57-.31,1.42-.82,2.56-1.53a8.89,8.89,0,0,0-1.12.06,6,6,0,0,1-1,.07h-.53Zm3.82,3.34,1.72-1.33a3.15,3.15,0,0,1-1.12.33A7.81,7.81,0,0,0,423,355Zm4.35-5.61c-.61.36-1.47.89-2.57,1.6a6,6,0,0,0-2.17,2.14l1.05-.13.4-.14a10,10,0,0,0,2.9-1.53,14.3,14.3,0,0,1,2.76-1.67L431,350Zm-3.55,6.55.92.8.39-.53v-2.68l.79.8Zm2.5,2.8.13-.53.39-.67-1.05.67Zm1.05-4c.35-.27.9-.67,1.65-1.21s1.53-1.09,2.37-1.67,1.58-1.09,2.24-1.53a10.46,10.46,0,0,0,1.25-.94h-2l-.65.67a8.36,8.36,0,0,1-.93,1.07c-.44.44-.92.91-1.45,1.4a14.77,14.77,0,0,1-1.64,1.34,9.08,9.08,0,0,0-1.25,1Zm.79,4.27c-.61.18-1,.45-1.05.8Zm7.12-7.08a13.07,13.07,0,0,1-3.89,2.94,9.66,9.66,0,0,0-3.62,3.07l2.9-2.14.52-.13a63.88,63.88,0,0,1,5.07-4q2.31-1.61,3.89-2.67v-.54l-1.45.14-.66.4.27.4h-.79l-2.11,1.74Zm.13,3.87a10.1,10.1,0,0,1-2,1.14c-.75.31-1.45.65-2.11,1a8.82,8.82,0,0,0-1.78,1.27,3.5,3.5,0,0,0-1.05,1.81l.13.53a6.27,6.27,0,0,1,.59-.53,2.32,2.32,0,0,1,.72-.4,4.46,4.46,0,0,1,2.44-2.68A9.93,9.93,0,0,0,436.18,356.42Zm-3.69,5.75L431,361.9l-1.45.94.66.93Zm.53,2.14a5.25,5.25,0,0,1,1.58-2.41c-1.23.81-2.51,1.7-3.82,2.68l.39.93Zm-.66,3.34,2.24-1.74h-1.19l-.39-.53-1.32.8Zm4.34-14.17-4.61,3.08.14.8c.79-.45,1.6-.91,2.43-1.4s1.65-1,2.44-1.54Zm-4.34,7.62a5.45,5.45,0,0,0,3.36-1.27,11.4,11.4,0,0,1,3.22-1.8l-.39-.8c-1.06.62-2.09,1.27-3.1,1.93S433.41,360.48,432.36,361.1Zm3.29-3.21q-.66.41-1.38.81a5.69,5.69,0,0,0-1.39,1.07Zm-2.11,11.76.79-.66-.39-.54-.79.67Zm0,.14a2.6,2.6,0,0,0,.66.93,30.76,30.76,0,0,1,3.16-2.27,11.5,11.5,0,0,0,2.9-2.54q-1.32.94-2.7,2a4.94,4.94,0,0,1-3.1,1.07l-.92.8Zm.4-5a8.28,8.28,0,0,0,3.36-1.53c1.18-.85,2.26-1.58,3.22-2.21l-.39-1.07Zm.79,6.69a2.55,2.55,0,0,0,.66.93,11.75,11.75,0,0,1,1.58-2.94Zm1.71-3.88a7.14,7.14,0,0,0,2.9-2.07,5.33,5.33,0,0,1,3-1.81l-.66-1.06c-.26.18-.75.49-1.45.93s-1.43.94-2.17,1.47-1.43,1.05-2,1.54a3.31,3.31,0,0,0-1.06,1.13l1.19-.13,2.11-1.47Zm3.29-8.29a8.84,8.84,0,0,1-2.1,1.81,16.5,16.5,0,0,0-2.24,1.67L440,359.9Zm-3.16-2.13,1.58-1.07-.26-.4Zm0,15a3.56,3.56,0,0,0,1.72-.66c.7-.45,1.42-.94,2.17-1.47s1.47-1.09,2.17-1.67,1.32-1.05,1.85-1.41l-.53-.53-6.85,4.67Zm.92,3.21,1.85-1.47a3.51,3.51,0,0,1,.53-1.27c.26-.4.52-.82.79-1.27l-3.82,3.08Zm0-4.81c1-.89,2-1.71,3-2.47s2.08-1.49,3.23-2.21l-.53-.8a13.68,13.68,0,0,0-3,2.41A27.4,27.4,0,0,0,437.49,370.59Zm1.45,7a7.25,7.25,0,0,0,1.72-1.4,10,10,0,0,0,1.31-1.81l-1.84.67-.66-.27-1.71,1.07Zm.27.27.39.8.53-1.34Zm5.93,46.77,1.84-1.34V422l-1.05.54v1.2l-3.1.33a8.76,8.76,0,0,0-3,.74c.17.44.35.87.52,1.27a2.57,2.57,0,0,0,.79,1l1.06-.67a4,4,0,0,1,2.37-2.4Zm-4.09-43.83,1.19-.81a4.52,4.52,0,0,1,1.58-2.27l-3.3,2.14Zm-.39-7.09a12.87,12.87,0,0,0,4.61-2.8Zm.13-.8c1-.71,1.91-1.38,2.83-2s1.87-1.21,2.83-1.74l-.79-1.07a9.37,9.37,0,0,1-2.5,2.41A7.54,7.54,0,0,0,440.79,372.86Zm0,5.35q1.84-1.33,3.82-2.61a24.35,24.35,0,0,0,3.55-2.74l-.39-1.07-4,2.81A8.8,8.8,0,0,0,440.79,378.21Zm2,5.34q1.71-1.07,3-2.07a19.25,19.25,0,0,0,2.64-2.47c-1,.71-2,1.43-3,2.14a7.58,7.58,0,0,1-3.35,1.33Zm7.25-7.48c-1.23.71-2.46,1.47-3.69,2.27s-2.42,1.65-3.56,2.54l-.13.53a3.09,3.09,0,0,0,1.78-.73l2.11-1.54c.74-.53,1.47-1,2.17-1.47a3.78,3.78,0,0,1,2-.67Zm-6.19,9.35,2.5-1.47h-.92l-.4-.53-1.71.93Zm3.29-14.83-3.56,3.47a15.91,15.91,0,0,0,1.85-1.6C445.93,371.93,446.5,371.3,447.11,370.59Zm.26,56.53a3.48,3.48,0,0,1-.79-1.74,8,8,0,0,1-2.89,2.27h1.51a9.09,9.09,0,0,0,1.52-.13ZM444,385.69a1,1,0,0,0,.66.4,16.8,16.8,0,0,0,2.17-1.2,6,6,0,0,0,1.78-1.6ZM447.77,375a11.29,11.29,0,0,1-1.52,1.74c-.57.53-1.11,1.07-1.64,1.6l4.74-3.34-.39-.67Zm-2.9,12.43.79,1.47.79-.54-.13-1.73Zm4.61,10.42.66-1.87a7.29,7.29,0,0,0-1.65,1.07,2.81,2.81,0,0,1-1.64.8.87.87,0,0,0-.66.27l-.13.8.26,1.2Zm-3.42,23.79a4.85,4.85,0,0,0,1.18-.94A6.42,6.42,0,0,1,448,420a.78.78,0,0,1,.4-.67l-2.24,1.33Zm.13-23.65c.17,0,.26-.14.26-.4a11.38,11.38,0,0,1,1.85-3.35l-.53-.93v-1.2l-1.32.93v2.47A12,12,0,0,1,446.19,398Zm.13-15.24a7.94,7.94,0,0,0,2.7-1.34c.83-.62,1.69-1.24,2.57-1.87Zm0,20.72,1.84-1.34-.13-.4.4-1.87-2.11,1.33Zm2.11,1.73-.4-1.6-1.71.93.13,2Zm-2.11,13.63c.7-.44,1.36-.86,2-1.27s1.23-.82,1.84-1.27l.13-.8-1,.67-1.45-.27-1.32.94Zm.4-28.06-.27,1.2c.53-.44,1.08-.87,1.65-1.27a5.48,5.48,0,0,0,1.51-1.67Zm-.27,19.91a4.14,4.14,0,0,0,1.19-.73,4.12,4.12,0,0,1,1.18-.74v-.93L446.45,410Zm0,2.81c.88-.71,1.71-1.34,2.51-1.87a10.15,10.15,0,0,0,2.23-2.14c-.79.45-1.56.89-2.3,1.34s-1.56.89-2.44,1.33Zm2.64-1.47-1.32.8a12,12,0,0,0-1.32.94V415l1.32-.94Zm2-27.93-.52-.67a13,13,0,0,0-2.11,1.74,3.92,3.92,0,0,0-1.06,2.54,8,8,0,0,0,1.32-.67l2-1.14c.7-.4,1.32-.78,1.84-1.13a8.17,8.17,0,0,0,.92-.67,8.33,8.33,0,0,1-1.64.87c-.57.22-1.17.46-1.78.73l-.4-.93Zm-2.5,42a9.34,9.34,0,0,1,1.45-1.2,14.58,14.58,0,0,1,1.58-.94,6.81,6.81,0,0,1,2.5-2.54l-.66.14L451,423.24a4.5,4.5,0,0,1-2.7.81l-.79.53a2.31,2.31,0,0,1,.33.87Q447.9,425.92,448.56,426.05Zm.79-4.14-.26-.4v-.67l-.4.27a3.38,3.38,0,0,0-.79,1.6Zm-.26-30.47-.4,1.87.66-.27,1.71-1.6Zm1.31,4,.14-.54-1.45,1.21Zm-.92,7.35-.39.93a12.2,12.2,0,0,1,2.24-2Zm.79-2.94.4-.67H450l-.66,1.34Zm5.54,2.54a10.18,10.18,0,0,1-2.57,2.87c-1,.76-2.05,1.49-3.1,2.2l-.39.27v.94c.87-.62,1.73-1.21,2.56-1.74a18.21,18.21,0,0,0,2.44-1.87l1.45-.8v-1.21Zm-3.43,7.21c-.44.54-.88,1.05-1.32,1.54a17,17,0,0,0-1.31,1.67l1.84-1.2Zm4.74-25.12c.18-.18.48-.51.92-1s.88-1,1.32-1.61.84-1.13,1.19-1.67a2.54,2.54,0,0,0,.52-1.2l-2.5,3.74-4.87,2.67A9.92,9.92,0,0,1,452,387a24,24,0,0,0-2,1.6c1.05-.8,2.15-1.65,3.29-2.54A7.71,7.71,0,0,1,457.12,384.49Zm-5.53,5.08-.13-.4-1.32.8-.13.67Zm-.66,31.27a32.11,32.11,0,0,1,3-1.61,11.41,11.41,0,0,0,2.9-1.87l-.53-.53v-2l-2.24,1.34.4.54.92-.54c-.88.72-1.71,1.38-2.5,2s-1.63,1.24-2.51,1.87l-.26.8Zm.4-43.17a.89.89,0,0,0-.2-.4q-.19-.27-.33-.27l-.4.14.14.53-.27.67Zm.66,49.58.13-.67-1.45.67ZM456.2,411a21.62,21.62,0,0,0-4.74,3.34l-.13,1.2a20.24,20.24,0,0,1,2.3-2,19.47,19.47,0,0,0,2.31-2Zm-4.74-11.76c.7-.36,1.38-.69,2-1a11.58,11.58,0,0,1,2-.74v-2.8l-.92.53.13.8a9.79,9.79,0,0,1-3,2.67Zm2-5.21a8.84,8.84,0,0,1-1.05.6,1.39,1.39,0,0,0-.79,1Zm2.24-7.75.66-.54a7.57,7.57,0,0,0-2.37,1.2l-2.11,1.61,4.48-.54.53-1.2h-.66Zm6.33-8.56.26-.53.13-.4-2,.67a20.53,20.53,0,0,1-4,2.94,47.37,47.37,0,0,0-4.28,2.67l.79-.13a14.45,14.45,0,0,0,1.25-.87c.66-.49,1.36-1,2.11-1.47l3-1.94.66.67-1.05,1.2c.43-.36.85-.71,1.25-1.07a12,12,0,0,0,1.25-1.34Zm-6.33,14a6.92,6.92,0,0,0-3.55,2.8q.25-.27.39-.27l.4-.26c.52-.36,1-.67,1.45-.94a4.87,4.87,0,0,0,1.31-1.33Zm-2.76-10.56,1.58-1.07-.79.27Zm2,5.61c-.26.27-.55.54-.85.8a2.4,2.4,0,0,1-1.12.54l1-.74A7.32,7.32,0,0,1,454.88,386.76Zm0,7.75.66-.53.13-.67-2.37,2.14-.26.4c.26-.18.5-.34.72-.47a1.4,1.4,0,0,1,.73-.2Zm2.51,29.14c-.71.44-1.39.84-2.05,1.2l-2,1.07-.26.93a1.78,1.78,0,0,0,1.32-.87,1.77,1.77,0,0,1,1.31-.87l.66.14,1.19-.8Zm-1.58-16.44a4.5,4.5,0,0,0-1.32,1.33,7.82,7.82,0,0,0-.92,1.61l2.5-1.74v-2.67l-.66.53-.53,1.61Zm2.23-27.4c-.7.54-1.4,1.05-2.1,1.54s-1.45,1-2.24,1.4c.79-.44,1.56-.89,2.3-1.34A9.54,9.54,0,0,0,458,379.81Zm-4.34,21.92,1.84-1.07v-1.07a1.63,1.63,0,0,0-1.05,1.2Zm9.61-35.55a4.65,4.65,0,0,1-1.38,1c-.48.23-1,.47-1.51.74l-6.33,8.28.53-.13q1.19-.93,2.37-1.74a20.38,20.38,0,0,0,2.37-1.87l-2.24,1.2.66-.66-.13-.67c-.09,0,.11-.22.59-.67s1.06-1,1.71-1.6a22.21,22.21,0,0,1,2.05-1.74l1.58-1.2ZM455,378.47a1.08,1.08,0,0,1-.47.14.73.73,0,0,0-.46.27Zm-.8,41.3a27.18,27.18,0,0,1,2.64-1.07v-1.2Zm2.38,7.08-.66-.67-1.06,1.07h1.45ZM465,371.39l.66-.93-.8.66-.13.54a9.58,9.58,0,0,1-3.95,2.94c-1.67.71-3.21,1.43-4.61,2.14l-.66.26a20.23,20.23,0,0,0,2.83-1,22.26,22.26,0,0,1,2.84-1l.39.67,2-1.61c.61,0,.92-.35.92-1.06a5.51,5.51,0,0,0,.46-.54.68.68,0,0,1,.59-.27Zm-8.17,48.78-1.32,1.2,1.45-.67Zm0,5.21.53.8.92-.8-.53-.13-.13-.4Zm12.65-60.14a3.24,3.24,0,0,0-1.65.67c-.66.45-1.34,1-2,1.54s-1.39,1.16-2,1.74-1.17,1-1.52,1.27l.13.66a18.88,18.88,0,0,1-2.11,1.88c-.7.53-1.44,1.06-2.24,1.6a10,10,0,0,0,2.84-1.67c.92-.76,1.82-1.52,2.7-2.27s1.71-1.47,2.5-2.14a5.81,5.81,0,0,1,2.24-1.27ZM458.7,425.11l1.32-.93-1.45.4Zm3,2-1.18-.94L459,427.25Zm0-1.6,1.06.8.13-.4a2.64,2.64,0,0,0-.2-1,2.55,2.55,0,0,1-.2-1h-1.25a3.32,3.32,0,0,0-1.25.27l2.5.4Zm2.37-74.71,2.24-1.47-1.84.14Zm4.22,7.35a17,17,0,0,0-2,1.4c-1,.76-1.45,1.27-1.45,1.54a.59.59,0,0,0,.07.34.53.53,0,0,1,.07.33,5,5,0,0,0,1.84-1.6C467.48,359.36,468,358.7,468.32,358.16Zm-1.58,7.08c.09-.08.35-.31.79-.66a12.36,12.36,0,0,1,1.45-1l1.58-.93a5.21,5.21,0,0,0,1.05-.74l.4-1.2c-1.23.89-2.48,1.72-3.76,2.47a14.66,14.66,0,0,0-3.36,2.74Zm-1.58-14.56,1.32.13a1,1,0,0,0,.46-.67,6.16,6.16,0,0,1,.19-.8h-.65Zm3.82,2.54h-.92a1.07,1.07,0,0,0-.27.8,1.84,1.84,0,0,1-.13.8l.26-.93Zm2.76-4a7.83,7.83,0,0,0-2.17,1,10.89,10.89,0,0,0-1.65,1.94l1.45-.27a4.42,4.42,0,0,1,1.12-1.4A8.3,8.3,0,0,0,471.74,349.21Zm6.33,3.61-3,1.67A26.86,26.86,0,0,0,472.6,356a20.21,20.21,0,0,0-2.17,1.81,27.11,27.11,0,0,0-2.37,2.6c1.58-1.15,3.2-2.38,4.87-3.67a32.92,32.92,0,0,1,5.14-3.28l.52-.66Zm-8.7,11.76.27.66.79-1.47Zm.79-10.43-.26.4c.35-.08.7-.15,1.05-.2a1.26,1.26,0,0,0,.79-.33l-.13-.94Zm3.69-5.34h-.66a2.76,2.76,0,0,1-.52.87c-.27.31-.49.55-.66.73Zm4.22-.27-4.09.27h3.56a13,13,0,0,0-2.24,1.93c-.7.76-1.36,1.5-2,2.21a29,29,0,0,1,2.17-2c.74-.63,1.47-1.3,2.17-2Zm-4.35,9.89-.39.93.92-1.33Zm2.11-6.42a14.64,14.64,0,0,0,4.61-2.94l-2.11-.13-.13.67Z" fill="#fff"/><path d="M121,380c-.12-7.48,4.47-13.08,11.47-15.41s15.54-1.26,19.46,5.43c4.11,7,2.41,16.21,1.06,23.75a204.82,204.82,0,0,1-6.13,24.76c-2.32,7.39,9.26,10.55,11.57,3.19,3.66-11.69,6.63-23.85,7.75-36.08,1-11-1.64-23.06-11.28-29.65-18.44-12.61-46.26,1.7-45.9,24,.13,7.72,12.13,7.74,12,0Z" fill="#fff"/><path d="M118,374.86c-6.22-2.67-14.21-6.29-21.13-5.12a26.73,26.73,0,0,0-13.58,7.4c-8.46,9.28-8,23.44-1.84,33.76,6.66,11.08,22,15.91,33.8,19.06,13.3,3.56,27,5.36,40.32,8.84,7.47,1.95,10.66-9.62,3.19-11.57-19.58-5.12-41.23-6.11-59.25-16-6.89-3.8-13.67-12.73-10-21.11,1.67-3.87,3.77-6.4,7.79-7.9,4.32-1.62,10.63,1.3,14.68,3,7,3,13.15-7.32,6.06-10.36Z" fill="#fff"/><path d="M532.45,409.45a200.85,200.85,0,0,1-6.13-24.77c-1.35-7.55-3.07-16.72,1-23.74,3.92-6.69,12.62-7.7,19.46-5.43,7,2.33,11.59,7.92,11.47,15.41-.13,7.72,11.87,7.72,12,0,.37-22.45-27.41-36.45-45.9-24C515,353.21,512.21,365,513,375.68c1,12.51,4.1,25,7.84,37,2.3,7.34,13.88,4.21,11.57-3.19Z" fill="#fff"/><path d="M523.71,429.67c13.32-3.48,27-5.28,40.31-8.83,11.76-3.14,27.2-8,33.8-19.06C604,391.41,604.45,377.33,596,368a27,27,0,0,0-13.58-7.4c-6.89-1.19-14.95,2.48-21.14,5.13-7.07,3-1,13.37,6.06,10.36,4.08-1.75,10.35-4.66,14.68-3,3.89,1.46,5.72,3.66,7.47,7.3,4.1,8.52-2.5,17.74-9.72,21.71-18,9.92-39.66,10.92-59.24,16-7.47,1.95-4.3,13.53,3.19,11.57Z" fill="#fff"/><path d="M499.22,166.73,509,129.67c2-7.41-9.52-10.57-11.48-3.16l-9.79,37.05c-2,7.42,9.52,10.58,11.48,3.17Z" fill="#fff"/><path d="M514.73,177.53l21.78-27.18c4.74-5.92-3.63-14.4-8.42-8.42l-21.78,27.18c-4.74,5.92,3.63,14.4,8.42,8.42Z" fill="#fff"/><path d="M531.3,190.35a218.72,218.72,0,0,1,21.06-11.85c6.87-3.38.85-13.66-6-10.28a217.36,217.36,0,0,0-21.05,11.85c-6.45,4.11-.48,14.42,6,10.28Z" fill="#fff"/><path d="M213.69,163.56l-9.79-37c-2-7.4-13.44-4.26-11.48,3.16l9.79,37.06c2,7.4,13.45,4.26,11.48-3.17Z" fill="#fff"/><path d="M195.12,169.11l-21.78-27.18c-4.79-6-13.16,2.5-8.42,8.42l21.78,27.18c4.79,6,13.17-2.49,8.42-8.42Z" fill="#fff"/><path d="M176.14,180.07a218.72,218.72,0,0,0-21.06-11.85c-6.85-3.37-12.89,6.89-6,10.28a217.52,217.52,0,0,1,21.06,11.85c6.48,4.13,12.45-6.17,6-10.28Z" fill="#fff"/><path d="M317.53,641.84c-27.78-12.15-58.29-1.38-79.78,18.15-24.69,22.43-36,56.24-43,87.91-7.55,34.15-14.14,72.26-.35,105.72,5.64,13.68,14.19,26.15,26,35.24,13.21,10.19,29.35,14.41,45.9,14.17,18.33-.26,36.21-5.06,54.18-8.11a298.5,298.5,0,0,1,57.89-4c17.77.48,35.23,3.8,52.95,4.61,15.58.7,31.47-2,43.44-12.65,10.84-9.68,16.1-24.17,18.75-38.1,3.06-16.1,3.92-32.79,4.44-49.14,1.13-35.32-2-71.54-14.31-104.89-10.23-27.62-28.45-58.41-60.13-63.74-30.39-5.11-56.61,13.59-86,16.05a53.58,53.58,0,0,1-21.13-2.24c-7.32-2.34-10.45,9.15-3.17,11.48,27,8.62,52.88-4.85,78.63-11.4,13-3.31,27.17-4.76,39.84.82s22.07,16.42,29.07,28c16.36,27,22.93,59.88,24.89,91a394.76,394.76,0,0,1-.29,50.08c-.91,14.08-1.82,28.49-6,42-3.92,12.57-11.59,23.9-24.57,28.24-14,4.68-29.39,2.27-43.69.51a331.24,331.24,0,0,0-104.61,3.81c-16.37,3.18-33.1,7-49.89,5.29a57.48,57.48,0,0,1-37.33-19.19c-21.52-23.89-23.06-58-18.86-88.28,4.32-31.19,11.26-64.35,27.44-91.73,13.47-22.78,37.21-43.06,65-43.2a46.36,46.36,0,0,1,18.83,3.77c7,3,13-7.22,6-10.28Z" fill="#fff"/><path d="M275.23,694.78c-4.38.06-7.63,3.41-10.27,6.53a112.76,112.76,0,0,0-9.58,13.59c-6.86,11.14-11,23.87-13.83,36.59-7.07,31.59.37,61.62,10.08,91.76,2.34,7.26,13.84,4.16,11.48-3.17-8.44-26.19-16.17-53-11-80.7,2.17-11.7,5.39-24.29,11.34-34.68a134.52,134.52,0,0,1,7.43-11.62,48.77,48.77,0,0,1,3.75-4.74c1.5-1.63,2.64-1.68.64-1.65,7.65-.1,7.67-12,0-11.91Z" fill="#fff"/><path d="M317.49,680.47a402.68,402.68,0,0,0-12,168.23c1.05,7.55,12.53,4.34,11.48-3.17a388.56,388.56,0,0,1,12-161.9c2.15-7.37-9.34-10.52-11.48-3.16Z" fill="#fff"/><path d="M368.48,693.6a452.79,452.79,0,0,1,10,144c-.69,7.63,11.22,7.58,11.9,0A462.8,462.8,0,0,0,380,690.43c-1.75-7.45-13.23-4.3-11.48,3.17Z" fill="#fff"/><path d="M409,693.52c7,4.57,11.45,14.67,14.89,22,4.7,9.95,7.38,21,10,31.64,6.05,24.18,7.85,48.62,6.62,73.48-.38,7.65,11.52,7.63,11.9,0a262.54,262.54,0,0,0-7.88-79.94c-3-11.46-6.24-22.92-11.55-33.55-4.32-8.65-9.71-18.44-18-23.86-6.43-4.2-12.4,6.1-6,10.28Z" fill="#fff"/><path d="M478.61,669.28c1.28-5.14,2.75-11.29,6.69-15.09s10.11-1.79,13.74-6.73a9.36,9.36,0,0,0,2-4.31c0,.12.14-2.78-.41-1-.29,1-1.07-.21.41.5,2.66,1.27,6.59,1.16,9.32.33,1.74-.52,5.32-3.65,6.93-3.51,1.44.12,5.3,4.69,6.82,5.88a66.49,66.49,0,0,0,17.3,9.75,64.09,64.09,0,0,0,10,2.86c2.51.52,6,.67,6.78,3.56,1.62,6-6.07,9.78-10.43,11.31-5.77,2-11.76,3.5-17.6,5.31-14.17,4.38-28.9,9.13-41.41,17.28-6.4,4.16-.44,14.48,6,10.28,13.31-8.67,29.07-13.27,44.15-17.78,13.34-4,32.64-8.92,31.18-26.8-.66-8-6.52-12.69-14-14.33-8.25-1.81-15.8-4.4-22.76-9.34-6.22-4.41-11-12.21-19.69-9.28-2.7.92-5.12,3.53-8,3.36-4.45-.26-7.72-2.07-11.82,1a10.9,10.9,0,0,0-3.51,5c-.81,2.12-.05,2-1.76,2.57-4.09,1.29-7.37,1.78-10.76,4.8-6,5.35-8.76,13.6-10.65,21.17s9.62,10.61,11.48,3.17Z" fill="#fff"/><path d="M482.72,693.72c15.34-10.66,30.61-21.41,45.95-32.07,6.25-4.34.3-14.66-6-10.28-15.34,10.66-30.61,21.41-45.95,32.07-6.25,4.34-.3,14.66,6,10.28Z" fill="#fff"/><path d="M341.91,634.66c7-16.67,2.17-36-10.53-48.57-5.46-5.38-13.88,3-8.42,8.42a33.17,33.17,0,0,1,7.47,37c-2.94,7.07,8.57,10.15,11.48,3.17Z" fill="#fff"/><path d="M408.31,626.7,355.93,623c-15.31-1.09-30.71-2.57-46.07-1.66-14.4.85-28.89,3.85-41.41,11.32a130.37,130.37,0,0,0-34.94,30.7c-4.7,6,3.67,14.43,8.42,8.42A121.32,121.32,0,0,1,274.46,643c12.19-7.28,26.43-9.54,40.43-9.9,14.66-.38,29.34,1,43.95,2.07l49.47,3.49c7.65.54,7.61-11.37,0-11.91Z" fill="#fff"/><path d="M192.51,754c-6.08,1.15-12.77-6.86-18.08-9.18-5.9-2.57-12.63-3-17.85,1.31-2.26,1.86-3.46,4.53-6.29,5.49-3.21,1.09-6.55,1.39-9.74,2.71-6.57,2.74-12.26,7-17.89,11.28-5.46,4.15-10.7,8.53-14.14,14.57-1.88,3.29-3,5.82-6,8.28a48.84,48.84,0,0,0-6.7,6.15,39.73,39.73,0,0,0-8.12,34.69c.8,3.41,5.7,5.86,8.75,3.55l8.89-6.75-8.74-3.56A66.73,66.73,0,0,0,108,846.25c3.13,4.15,9.05,3.68,10.88-1.42,2.53-7.06,9.88-8,16-5.46,6.82,2.85,12.79,6.21,20.39,4.14a5.86,5.86,0,0,0,4.15-4.16c.83-4.56,4-7.81,8.77-7.85,7.65-.07,7.67-12,0-11.91-9.73.08-18.49,6.87-20.25,16.59l4.16-4.15c-4.13,1.12-8.23-1.67-11.91-3.26-4.37-1.89-8.77-3.25-13.57-2.71-9.06,1-16.17,7.15-19.2,15.6l10.88-1.42a58,58,0,0,1-10.15-20.9c-.87-3.37-5.65-5.9-8.75-3.56l-8.89,6.76,8.74,3.56c-2.56-11,1.88-21.34,10.46-28.25a28.12,28.12,0,0,0,5.75-5.57c1.85-2.6,2.86-5.67,4.72-8.26,3.56-5,9.06-8.67,14-12.21s10-6.78,16-8.11c3-.66,5.72-1.11,8.31-2.82,2.21-1.46,3.38-4,5.47-5.46,4.46-3.08,11.32,3.86,14.82,6.13,5.29,3.43,10.65,5.08,16.9,3.9,7.52-1.41,4.34-12.89-3.16-11.48Z" fill="#fff"/><path d="M189.62,782.81a62.58,62.58,0,0,0-56.43,8.1c-6.17,4.42-.23,14.76,6,10.28a51.4,51.4,0,0,1,47.26-6.9c7.25,2.52,10.37-9,3.16-11.48Z" fill="#fff"/><path d="M174.38,832.23a93.16,93.16,0,0,0,17.07-19.09c4.31-6.35-6-12.32-10.28-6A82.61,82.61,0,0,1,166,823.82c-5.87,4.94,2.59,13.32,8.42,8.41Z" fill="#fff"/><path d="M493.91,845.59c8.38-13,28-4.85,38.8-.75,15.43,5.84,30.52,7.75,45.84.42,11.82-5.66,27.53-20.49,20.25-35-3.08-6.12-9.5-9.88-16.13-10.82-8.69-1.23-16.83,2.36-24.55,5.9-7,3.19-.91,13.45,6,10.28,5.83-2.68,13.32-6.42,19.76-3.64,6.62,2.85,5,8.8,1.17,13.48-7.79,9.49-21,14.32-33.08,12.64-13.66-1.9-25.51-10.17-39.42-11.23-11.23-.86-22.64,2.91-28.93,12.66-4.16,6.46,6.14,12.43,10.28,6Z" fill="#fff"/><path d="M197.48,728.87a215.76,215.76,0,0,0-86-10.5c-12.54,1-26.79,2.06-37,10.29-8,6.47-11.68,18-21.41,22.22-7,3.08-1,13.34,6,10.28,9.34-4.1,13.49-13.3,20-20.48,8.35-9.21,22.59-9.69,34.2-10.55a206.83,206.83,0,0,1,81,10.22c7.29,2.43,10.41-9.07,3.17-11.48Z" fill="#fff"/><path d="M330.3,594.13c4.55-2.34,6.78,6.67,6.66,9.44-.28,6.38-2.7,12.65-3.45,19-.9,7.59,11,7.53,11.9,0,1.22-10.29,6.42-20.74.89-30.71-4.43-8-13.53-12.39-22-8-6.81,3.51-.8,13.79,6,10.28Z" fill="#fff"/></svg>