<svg id="Layer_1" data-name="Layer 1" xmlns="http://www.w3.org/2000/svg" viewBox="0 0 1332.13 1212.3"><title>1</title><path d="M1074.7,156.1a33.44,33.44,0,0,1,1.2,8.5c0,8.4-1.8,17.3-5.3,26.9a182.73,182.73,0,0,0-8.2,29.4q-5.85,34.65-14.7,76.1c-5.9,27.6-12.7,55.3-20.3,82.9s-16,54.2-25,79.7-18.8,47.6-29.4,66.3a195.21,195.21,0,0,1,23.5-1.5c14.9,0,27.5,1.8,37.7,5.3s16.7,11.1,19.4,22.9c-7.9-.7-15.6-1.3-23.3-1.8s-15.4-.8-23.2-.8c-18.8,0-36.2.8-52.1,2.3s-31.9,2.3-48,2.3c-7.1,0-14.9-1.8-23.5-5.3A52.49,52.49,0,0,1,862.3,534c3.1.3,6.3.6,9.4.8s6.3.3,9.4.3q15.3,0,31.8-1.5c11-1,21.6-2.3,31.8-4a316.73,316.73,0,0,0,17.1-42.5c5.5-16.6,10.8-34.3,15.9-53.3s10-38.4,14.7-58.6,9.2-39.8,13.5-59.1,8.4-37.4,12.4-54.3,7.7-31.7,11.2-44.5c-11.4,6.7-20.9,12.2-28.5,16.6s-14.1,7.8-19.4,10.3a75.05,75.05,0,0,1-12.7,5,32.76,32.76,0,0,1-7.1,1.3c-4.7,0-8.3-.9-10.9-2.8s-3.8-5.8-3.8-11.8c5.5-2.3,13-6.4,22.7-12.1s20.1-12.4,31.5-20.1,23.1-16.2,35.3-25.6a448.26,448.26,0,0,0,34.1-29.1A15.4,15.4,0,0,1,1074.7,156.1Z" fill="#fedcc4"/><path d="M1204.3,158.6h0c-3.3-3.7-6.8-7.4-10.3-11l-.4-.4h0l-.5-.5-.5-.5h0l-.4-.4c-3.6-3.5-7.2-7-11-10.3h0l-.2-.2-6.3-5.4-2.4-2-3.1-2.5c-1.4-1.1-2.8-2.2-4.3-3.3l-.2-.1-1.3-1c-.8-.6-1.5-1.2-2.4-1.8-.6-.4-1.1-.8-1.6-1.2s-1-.7-1.5-1.1-1-.7-1.5-1.1c-.8-.6-1.6-1.1-2.3-1.7s-1.3-.9-2-1.4c-.9-.7-1.9-1.3-2.9-2l-.1-.1-.2-.1-3.3-2.1-.9-.6c-.7-.4-1.4-.9-2.1-1.3l-.9-.6-1.6-1a40.5,40.5,0,0,0-3.5-2.1c-1-.6-2.1-1.2-3.1-1.8-1.3-.7-2.5-1.5-3.8-2.2l-.8-.4h0l-2.6-1.5-1.9-1c-2.8-1.5-5.6-2.9-8.4-4.3l-2.2-1.1h0c-4.5-2.2-9.1-4.3-13.7-6.2l-1.8-.8h0l-.5-.2c-5.2-2.1-10.4-4.1-15.7-5.9l-.2-.1c-5.7-2-11.7-3.9-18.4-5.6l-3.2-.9-6.1-1.4c-.6-.1-1.2-.3-1.8-.4l-1.4-.3-2.2-.5c-1.4-.3-2.8-.7-4.3-.9h0c-1.3-.2-2.5-.4-3.8-.7-.3,0-.5-.1-.8-.1l-3.4-.6c-.2,0-.3-.1-.5-.1l-2.1-.4c-1.3-.3-2.7-.4-4-.6a25.12,25.12,0,0,1-2.7-.4c-2.2-.3-4.4-.6-6.6-.8l-.9-.1c-1.3-.2-2.7-.3-4-.4h-.4c-3.6-.3-7.2-.6-10.8-.8h-.4c-5-.3-10-.4-15-.4h-2.6c-5,0-10,.2-15,.4h-.4c-3.6.2-7.2.5-10.8.8h-.4c-1.4.1-2.7.3-4,.4l-.9.1c-2.2.3-4.4.5-6.7.8l-2.6.3c-1.3.2-2.6.3-4,.6l-2.1.4c-.2,0-.3.1-.5.1l-3.4.6c-.3,0-.5.1-.8.1l-1.6.3-2.1.4h-.1c-1.4.2-2.8.6-4.2.9l-2.2.5-1.3.3c-1,.2-2,.5-3,.7l-5.1,1.2-3.1.9c-6.6,1.8-12.7,3.6-18.4,5.6l-.2.1c-5.3,1.8-10.6,3.8-15.7,5.9l-.5.2h0l-1.8.8c-4.6,1.9-9.2,4-13.7,6.2h0l-2.3,1.2c-2.4,1.2-4.9,2.5-7.3,3.7l-.8.4-2.2,1.1-2.5,1.5h0l-.8.4c-1.3.7-2.5,1.5-3.8,2.2-1,.6-2,1.1-3,1.7-1.2.7-2.4,1.4-3.5,2.1l-1.6,1-.9.6c-.7.5-1.4.9-2.1,1.4l-.9.6c-1,.7-2.1,1.3-3.1,2l-.4.2a.22.22,0,0,0-.2.2c-.9.6-1.8,1.2-2.7,1.9-.1,0-.1.1-.2.1-.6.4-1.2.9-1.8,1.3-.8.5-1.5,1.1-2.3,1.6a4.23,4.23,0,0,1-.7.5l-1.2.9a8.34,8.34,0,0,1-1.2.8c-1,.7-2,1.4-2.9,2.1l-1.1.8h-.1l-1.3,1-.1.1c-1.5,1.2-3,2.3-4.5,3.5l-3,2.4-2.4,2c-2.1,1.8-4.2,3.5-6.2,5.4l-.2.2h0c-3.7,3.3-7.4,6.8-11,10.3l-.4.4h0l-.6.6-.5.5h0l-.4.4c-3.5,3.6-7,7.2-10.3,11h0l-.2.2c-1.9,2.1-3.7,4.2-5.5,6.3l-2,2.3-2.4,3.1-3.5,4.4-.1.1c-.3.4-.7.9-1,1.3-.6.7-1.1,1.5-1.7,2.2-.4.6-.9,1.2-1.3,1.8s-.7,1-1.1,1.5-.7,1-1.1,1.5c-.6.8-1.1,1.6-1.7,2.4a24.26,24.26,0,0,0-1.4,2c-.7,1-1.4,2-2,3-.7,1.2-1.5,2.3-2.2,3.5l-.6.9c-.5.7-.9,1.4-1.4,2.2a8.79,8.79,0,0,0-.6,1l-1,1.5a40.5,40.5,0,0,0-2.1,3.5c-.6,1-1.2,2-1.8,3.1-.7,1.3-1.5,2.5-2.2,3.8l-.4.7h0l-1.5,2.6-1,1.9c-1.5,2.8-2.9,5.6-4.3,8.5l-1.1,2.1h0c-2.2,4.5-4.3,9.1-6.2,13.7l-.8,1.8h0l-.2.5c-2.1,5.2-4.1,10.5-5.9,15.8l-.1.2c-2,5.7-3.9,11.7-5.6,18.4l-.9,3.2-1.3,5.6a18.92,18.92,0,0,0-.5,2.3c-.1.5-.2.9-.3,1.4l-.5,2.3c-.3,1.4-.7,2.8-.9,4.2h0c-.2,1.3-.4,2.5-.7,3.8,0,.3-.1.5-.1.8l-.6,3.3c0,.2-.1.4-.1.6l-.4,2c-.3,1.3-.4,2.7-.6,4l-.3,2.7c-.3,2.2-.6,4.4-.8,6.6l-.1.9c-.2,1.3-.3,2.7-.4,4v.4c-.3,3.6-.6,7.2-.8,10.8v.4h0c-.3,5-.4,10-.4,15v.5h0v1.6h0v.5c0,5,.2,10,.4,15h0v.4c.2,3.6.5,7.2.8,10.8v.4c.1,1.4.3,2.7.4,4l.1.9c.3,2.2.5,4.4.8,6.7.1.9.2,1.7.3,2.6.2,1.3.3,2.7.6,4l.4,2.1c0,.2.1.4.1.6l.6,3.3c.1.3.1.6.2.9.2,1.2.4,2.4.7,3.7h0v.1h0a27.13,27.13,0,0,0,.9,4.1l.5,2.3c.1.4.2.9.3,1.3.2,1,.5,2,.7,3l1.2,5.1.9,3.1c1.8,6.6,3.6,12.7,5.6,18.4l.1.2c1.8,5.3,3.8,10.6,5.9,15.8l.2.5h0l.8,1.8c1.9,4.6,4,9.2,6.2,13.7h0l1.1,2.1c1.4,2.9,2.9,5.8,4.4,8.7l.9,1.8,1.5,2.5h0l.4.8c.7,1.3,1.5,2.5,2.2,3.8.6,1,1.2,2,1.8,3.1a38.7,38.7,0,0,0,2.1,3.4l1,1.6.6.9c.4.7.9,1.4,1.4,2.1l.6.9c.7,1,1.3,2.1,2,3.1l.2.4c.1.1.1.2.2.2.6.9,1.2,1.8,1.9,2.7a24.26,24.26,0,0,1,1.4,2c.6.8,1.1,1.6,1.7,2.4a2.18,2.18,0,0,0,.4.5l.3.4c.1.2.3.4.4.6.4.5.7,1,1.1,1.5.7,1,1.4,1.9,2.1,2.9l.8,1.1.1.1c.3.4.7.9,1,1.3l.1.1c1.2,1.5,2.3,3,3.5,4.5l2.4,3,2.1,2.4c1.7,2.1,3.5,4.1,5.3,6.1l.3.3h0c3.3,3.7,6.8,7.4,10.3,11l.4.4h0l.5.5.5.5h0l.4.4c3.6,3.5,7.2,7,11,10.3h0l.3.3c2,1.8,4.1,3.6,6.2,5.4l2.4,2,3,2.4,4.4,3.5.1.1,1.3,1c.7.6,1.5,1.2,2.3,1.8.6.4,1.2.8,1.7,1.2s1,.7,1.5,1.1,1,.7,1.5,1c.8.6,1.6,1.1,2.4,1.7s1.3.9,2,1.4c1,.7,2,1.4,3,2,1.2.7,2.3,1.5,3.5,2.2l.9.6c.7.5,1.4.9,2.1,1.4l.9.6,1.6,1a40.5,40.5,0,0,0,3.5,2.1c1,.6,2.1,1.2,3.1,1.8,1.3.7,2.5,1.5,3.8,2.2l.8.4h0l2.6,1.5,1.9,1c2.8,1.5,5.7,3,8.5,4.4l2.1,1.1h0c4.5,2.2,9.1,4.3,13.7,6.2l1.8.8h0l.5.2c5.2,2.1,10.5,4.1,15.8,5.9l.2.1c5.7,2,11.8,3.9,18.4,5.6l3.2.9,5.7,1.3c.7.2,1.5.3,2.2.5l1.4.3,2.3.5c1.4.3,2.8.7,4.2.9h0c1.3.2,2.5.4,3.8.7.3,0,.5.1.8.1,1.1.2,2.2.4,3.4.6.2,0,.4.1.6.1l2,.4c1.3.3,2.7.4,4,.6l2.6.3c2.2.3,4.4.6,6.7.8l.9.1c1.3.2,2.7.3,4,.4h.4c3.6.3,7.3.6,10.9.8h.3c5,.3,10,.4,15,.4h2.6c5,0,10-.2,15-.4h.3c3.6-.2,7.3-.5,10.9-.8h.4c1.4-.1,2.7-.3,4-.4l.9-.1c2.2-.3,4.5-.5,6.7-.8l2.5-.3c1.3-.2,2.7-.3,4-.6l2.1-.4c.2,0,.4-.1.6-.1l3.4-.6c.3,0,.5-.1.8-.1,1.2-.2,2.4-.4,3.7-.7h.2a27.13,27.13,0,0,0,4.1-.9l2.3-.5,1.3-.3c1-.2,2-.5,3-.7l5.1-1.2,3.1-.9c6.6-1.8,12.7-3.6,18.4-5.6l.2-.1c5.3-1.8,10.6-3.8,15.8-5.9l.5-.2h0l1.8-.8c4.6-1.9,9.2-4,13.7-6.2h0l2.2-1.2c2.5-1.2,4.9-2.5,7.4-3.8l.7-.4,2.2-1.1,2.5-1.5h0l.8-.4c1.3-.7,2.5-1.4,3.8-2.2,1-.6,2.1-1.2,3.1-1.8,1.2-.7,2.3-1.4,3.5-2.1l1.6-1,.9-.6c.7-.4,1.4-.9,2.1-1.3l.9-.6c1.2-.7,2.3-1.5,3.5-2.2h0c1-.7,2-1.3,2.9-2a24.26,24.26,0,0,1,2-1.4,19.52,19.52,0,0,0,2.3-1.7c.5-.4,1-.7,1.5-1.1s1-.7,1.5-1.1c1-.7,1.9-1.4,2.9-2.1l1.1-.9h0l1.3-1,.1-.1,4.5-3.6,3-2.4,2.4-2,6.3-5.4.2-.2h0c3.7-3.3,7.4-6.8,11-10.3l.4-.4h0l.5-.5.6-.6h0l.4-.4c3.5-3.6,7-7.2,10.3-11h0l.2-.2c1.8-2.1,3.6-4.1,5.4-6.3l2-2.4,2.5-3.1,3.4-4.3.1-.1c.3-.4.7-.9,1-1.3.6-.8,1.2-1.5,1.8-2.3.4-.6.8-1.1,1.2-1.7s.7-1,1.1-1.5c.1-.1.2-.3.3-.4l.4-.5c.1-.2.3-.4.4-.6.6-.8,1.1-1.5,1.7-2.3,1.1-1.6,2.3-3.2,3.4-4.9l.1-.1.1-.2,2.1-3.3.6-.9c.4-.7.9-1.4,1.3-2.1l.6-.9,1-1.6a40.5,40.5,0,0,0,2.1-3.5c.6-1,1.2-2,1.8-3.1.7-1.3,1.5-2.5,2.2-3.8l.4-.8h0l1.5-2.6,1-1.9c1.5-2.8,2.9-5.6,4.3-8.4l1.1-2.1h0c2.2-4.5,4.3-9.1,6.2-13.7l.8-1.8h0l.2-.5c2.1-5.2,4.1-10.4,5.9-15.7l.1-.2c2-5.7,3.9-11.8,5.6-18.4l.9-3.2,1.4-6c.1-.6.3-1.3.4-1.9s.2-.9.3-1.4l.5-2.3c.3-1.4.7-2.8.9-4.3h0c.2-1.3.4-2.5.7-3.8,0-.3.1-.5.1-.8.2-1.1.4-2.3.6-3.4,0-.2.1-.3.1-.5l.4-2.1c.3-1.3.4-2.7.6-4a25.12,25.12,0,0,1,.4-2.7c.3-2.2.6-4.4.8-6.6l.1-.9c.2-1.3.3-2.7.4-4v-.4c.3-3.6.6-7.2.8-10.8v-.4h0c.3-5,.4-10,.4-15v-.5h0v-1.6h0v-.5c0-5-.2-10-.4-15h0v-.4c-.2-3.6-.5-7.2-.8-10.8V324c-.1-1.4-.3-2.7-.4-4l-.1-.9c-.3-2.2-.5-4.4-.8-6.6-.1-.9-.2-1.7-.3-2.6-.2-1.3-.3-2.6-.6-4l-.4-2.2a.6.6,0,0,0-.1-.4c-.2-1.2-.4-2.4-.6-3.5,0-.2-.1-.5-.1-.7-.1-.5-.2-1.1-.3-1.6l-.4-2.1v-.1h0c-.2-1.4-.6-2.8-.9-4.2l-.5-2.2c-.1-.5-.2-.9-.3-1.4-.2-1-.4-1.9-.7-2.9l-1.2-5.2-.9-3.1c-1.8-6.6-3.6-12.7-5.6-18.4l-.1-.2c-1.8-5.3-3.8-10.6-5.9-15.7l-.2-.5h0l-.8-1.8c-1.9-4.6-4-9.2-6.2-13.7h0l-1.2-2.3c-1.2-2.4-2.4-4.8-3.7-7.2l-.4-.8-1.1-2.2L1242,211h0l-.4-.8c-.7-1.3-1.5-2.6-2.2-3.8-.6-1-1.1-2-1.7-3-.7-1.2-1.4-2.4-2.1-3.5l-1.1-1.7a4.05,4.05,0,0,1-.5-.9c-.4-.7-.9-1.4-1.4-2.1l-.6-.9c-.7-1.2-1.5-2.3-2.2-3.5h0c-.7-1-1.3-2-2-2.9-.5-.7-.9-1.3-1.4-2a19.52,19.52,0,0,0-1.7-2.3c-.4-.5-.7-1-1.1-1.5s-.7-1-1.1-1.5c-.7-1-1.4-1.9-2.1-2.9l-.8-1-.1-.1c-.3-.4-.7-.9-1-1.3l-.1-.1c-1.1-1.5-2.3-3-3.5-4.4l-2.4-3-2-2.4c-1.8-2.1-3.5-4.2-5.3-6.2ZM1130.7,104l1.7,1c2.6,1.5,5.3,3.1,7.9,4.8l3.1,2q4.2,2.7,8.4,5.7l1,.7c.5.4,1,.7,1.5,1.1,2.7,1.9,5.3,3.9,7.9,5.8l.3.2a14.68,14.68,0,0,1-9.4,3.6,21.59,21.59,0,0,1-13.4-3.9h0a21.07,21.07,0,0,1-5.4-4.9,18.08,18.08,0,0,1-1.9-2.9,29.17,29.17,0,0,1-1.4-3.1A14.71,14.71,0,0,1,1130.7,104Zm-14.9-8.1,6.2,3.2c1.7.9,3.5,1.9,5.2,2.8a18.22,18.22,0,0,0,0,13.4,30.06,30.06,0,0,0,1.7,3.6,26.37,26.37,0,0,0,2.3,3.5,25.33,25.33,0,0,0,6.4,5.8,25.86,25.86,0,0,0,14.4,4.6h1.5a18.16,18.16,0,0,0,12.3-5.1l2.2,1.8c1.4,1.1,2.7,2.2,4.1,3.4l3.6,3.1a26.18,26.18,0,0,1-13.4,6.7,43.19,43.19,0,0,1-5.9.6,41,41,0,0,1-23.9-7.1h0a34.18,34.18,0,0,1-5.2-4,58.93,58.93,0,0,1-4.2-4.5l-.2-.2a36.34,36.34,0,0,1-6.1-10.7C1113.6,109.5,1113.4,102.2,1115.8,95.9Zm-15.3-7.1c3.9,1.7,7.8,3.5,11.7,5.3-2.9,7.3-2.8,15.7.4,23.9a38.33,38.33,0,0,0,6.8,11.8l.2.2a50.28,50.28,0,0,0,4.5,4.8,48.17,48.17,0,0,0,18.7,10.5,40.58,40.58,0,0,0,12,1.8h1.5a49.73,49.73,0,0,0,6.5-.7,32.83,32.83,0,0,0,6.3-1.9,30.51,30.51,0,0,0,9.4-6.1c3.2,2.9,6.3,5.8,9.4,8.8a39.67,39.67,0,0,1-12.8,7.5,54.72,54.72,0,0,1-8.2,2.1c-1.4.2-2.8.4-4.3.5s-2.9.2-4.3.2a63.6,63.6,0,0,1-8.7-.6l-1.5-.3-.7-.1c-.7-.1-1.5-.3-2.2-.4-1.4-.3-2.9-.7-4.3-1.1a72.11,72.11,0,0,1-8.4-3.2,71.06,71.06,0,0,1-8-4.5h0a38.94,38.94,0,0,1-7.1-5.6,16.61,16.61,0,0,0-1.4-1.3,17,17,0,0,1-1.9-1.9c-1-1.1-2-2.2-2.9-3.3a33.2,33.2,0,0,1-2.6-3.6c-1-1.4-1.7-2.5-2.4-3.6a46.82,46.82,0,0,1-3.8-7.8l-.1-.2c-.5-1.3-1-2.6-1.4-3.9s-.8-2.7-1.2-4.1a40.52,40.52,0,0,1-1.2-8.4A41.8,41.8,0,0,1,1100.5,88.8Zm-72.7-20.2c2.6.4,5.2.8,7.9,1.2l4.6.8,9.2,1.8c.6.1,1.1.3,1.7.4l.4.1c1.5.3,3,.7,4.4,1l1.2.3c1.7.4,3.5.9,5.2,1.3a15,15,0,0,1-7.3,6.9,20.36,20.36,0,0,1-6.5,1.9,21.66,21.66,0,0,1-3.6.1c-1.3-.1-2.7-.3-3.8-.5a22,22,0,0,1-6.9-2.5,18.72,18.72,0,0,1-2.9-2,26.14,26.14,0,0,1-2.5-2.3,14.85,14.85,0,0,1-4.1-9.2Zm-12.9-1.5c1.7.2,3.5.3,5.2.5l.8.1a18.66,18.66,0,0,0,5.1,12.4,35.76,35.76,0,0,0,2.9,2.7,23.66,23.66,0,0,0,11.5,5.3h0c1.3.2,2.7.4,4.3.5h1.4a28.25,28.25,0,0,0,2.9-.2,22.76,22.76,0,0,0,7.8-2.3,18.33,18.33,0,0,0,9.4-9.4c4.1,1.2,8.2,2.4,12.3,3.8a23.45,23.45,0,0,1-5.4,7.7,32.25,32.25,0,0,1-9.7,6.5,39.25,39.25,0,0,1-11.9,3.2,34.32,34.32,0,0,1-6.4.3,31.63,31.63,0,0,1-3.2-.3c-.5-.1-1.1-.2-1.7-.3h-.1a7.77,7.77,0,0,0-1.6-.2h0a46.37,46.37,0,0,1-6.4-1.7,49.42,49.42,0,0,1-5.7-2.6l-.2-.1a37.08,37.08,0,0,1-9.8-7.5c-5.4-5.5-8.3-12.1-8.5-18.8Zm-10.8-.8c.1,7.9,3.4,15.6,9.6,21.9a39.46,39.46,0,0,0,10.8,8.3l.2.1a56.67,56.67,0,0,0,6.1,2.8,42.62,42.62,0,0,0,7,1.9l1.7.3h0l1.8.3a21.86,21.86,0,0,0,3.6.3h1.9a45.33,45.33,0,0,0,5.2-.3,41.42,41.42,0,0,0,13.1-3.5,40.67,40.67,0,0,0,10.9-7.3,30.36,30.36,0,0,0,6.4-9.3c4,1.4,8.1,2.9,12,4.5a38.65,38.65,0,0,1-9,11.8,37.24,37.24,0,0,1-6.8,5c-1.4.8-2.6,1.5-3.8,2.1s-2.6,1.3-3.9,1.9a60.49,60.49,0,0,1-8.2,2.7,62.17,62.17,0,0,1-8.7,1.6c-1.5.1-2.9.2-4.5.2-1.2,0-2.9.1-4.5,0s-3-.2-4.5-.4c-.9-.1-1.7-.3-2.6-.4l-2-.3a43.11,43.11,0,0,1-8.7-2.4,14.58,14.58,0,0,0-1.9-.7,24.43,24.43,0,0,1-2.4-1c-1.3-.6-2.7-1.2-4-1.9s-2.5-1.5-3.8-2.3l-.8-.5c-1-.6-1.9-1.3-2.8-1.9a50.07,50.07,0,0,1-6.5-5.7,56.52,56.52,0,0,1-5.6-6.6,45,45,0,0,1-4.3-7.3,40,40,0,0,1-3.8-14.4C995.6,65.9,999.8,66,1004.1,66.3Zm-85.3,8c.3-.1.7-.2,1-.3,1.4-.4,2.9-.7,4.3-1l.9-.2,1.3-.3c3.1-.7,6.2-1.3,9.3-1.9l4.6-.8,7.8-1.2,2.9-.4a14.77,14.77,0,0,1-4.1,9.2,27.25,27.25,0,0,1-2.5,2.3,29.77,29.77,0,0,1-2.9,2,22.74,22.74,0,0,1-6.9,2.5c-1.2.2-2.5.4-3.8.5a20.8,20.8,0,0,1-10.2-2,15,15,0,0,1-7.3-6.9C915.3,75.2,917.1,74.7,918.8,74.3Zm-9.1,2.4a18.7,18.7,0,0,0,9.4,9.4,23.43,23.43,0,0,0,7.8,2.3,28.25,28.25,0,0,0,2.9.2h1.4c1.5-.1,3-.3,4.2-.5h0a25.3,25.3,0,0,0,8.1-2.9,28.84,28.84,0,0,0,3.4-2.3,18.23,18.23,0,0,0,2.9-2.7,18.47,18.47,0,0,0,5.1-12.4l.8-.1c1.7-.2,3.5-.4,5.2-.5l6.8-.5c-.2,6.7-3.1,13.3-8.5,18.9a35.1,35.1,0,0,1-9.7,7.5l-.2.1a58.59,58.59,0,0,1-5.7,2.6,33.45,33.45,0,0,1-6.4,1.7h0a7.77,7.77,0,0,1-1.6.2h-.2l-1.6.3-3.2.3a34.32,34.32,0,0,1-6.4-.3,36,36,0,0,1-11.8-3.2,32.43,32.43,0,0,1-9.7-6.6,26.86,26.86,0,0,1-5.4-7.7C901.5,79.2,905.6,77.9,909.7,76.7Zm-16.1,5.1a28.72,28.72,0,0,0,6.4,9.3,39.14,39.14,0,0,0,10.9,7.3,41.42,41.42,0,0,0,13.1,3.5,45.33,45.33,0,0,0,5.2.3h1.9l3.6-.3c.6-.1,1.2-.2,1.7-.3h.1l1.7-.3a40.08,40.08,0,0,0,7-1.9,49,49,0,0,0,6.1-2.8l.2-.1a39.46,39.46,0,0,0,10.8-8.3c6.2-6.4,9.5-14.1,9.6-21.9,4.3-.2,8.5-.4,12.8-.4a38.09,38.09,0,0,1-3.8,14.4,45,45,0,0,1-4.3,7.3,66.18,66.18,0,0,1-5.6,6.6,45,45,0,0,1-6.6,5.7,27.5,27.5,0,0,1-2.8,1.9l-.8.5c-1.2.8-2.5,1.6-3.8,2.3s-2.6,1.4-4,2c-.8.3-1.5.6-2.4.9-.6.2-1.3.5-1.9.7a44,44,0,0,1-8.8,2.4l-2,.3a25.12,25.12,0,0,1-2.7.4c-1.5.2-3,.3-4.5.4s-3.3,0-4.6,0-2.9-.1-4.4-.2a64.91,64.91,0,0,1-8.7-1.6,60.49,60.49,0,0,1-8.2-2.7c-1.3-.6-2.6-1.2-3.9-1.9s-2.4-1.3-3.8-2.1a56.7,56.7,0,0,1-6.8-5,38.65,38.65,0,0,1-9-11.8C885.5,84.7,889.5,83.2,893.6,81.8ZM813.8,125c2.6-2,5.3-4,7.9-5.9.5-.4,1-.7,1.5-1.1.3-.2.7-.5,1-.7l8.4-5.7,3.1-2c2.6-1.6,5.3-3.2,7.9-4.8l1.6-.9a15,15,0,0,1-.2,10c-.4,1-.9,2-1.4,3a18.08,18.08,0,0,1-1.9,2.9,21.07,21.07,0,0,1-5.4,4.9h0a21.69,21.69,0,0,1-13.5,3.9,13.9,13.9,0,0,1-9.3-3.6Zm-9.8,7.9,3.8-3.2,2.6-2a18.16,18.16,0,0,0,12.3,5.1c.5,0,1,.1,1.5.1a25.86,25.86,0,0,0,14.4-4.6,25.33,25.33,0,0,0,6.4-5.8,26.37,26.37,0,0,0,2.3-3.5,19.64,19.64,0,0,0,1.6-3.6,18.22,18.22,0,0,0,0-13.4c1.7-.9,3.4-1.9,5.1-2.8l6.3-3.2c2.4,6.3,2.2,13.5-.6,20.7a34.59,34.59,0,0,1-6.1,10.6l-.2.2a58.93,58.93,0,0,1-4.2,4.5,34.18,34.18,0,0,1-5.2,4h0a39.37,39.37,0,0,1-11.8,5.5,35.38,35.38,0,0,1-12.1,1.6,35.29,35.29,0,0,1-11.5-2.3,23.37,23.37,0,0,1-7.9-5.1Zm-6.5,5.6a27.27,27.27,0,0,0,9.4,6.1,41.9,41.9,0,0,0,6.3,1.9,38.15,38.15,0,0,0,6.6.7h1.5a40.41,40.41,0,0,0,11.9-1.8,44.21,44.21,0,0,0,12.9-6,31.4,31.4,0,0,0,5.7-4.5,41.48,41.48,0,0,0,4.5-4.9l.2-.3a42.83,42.83,0,0,0,6.8-11.8c3.2-8.3,3.4-16.7.5-23.9,3.9-1.9,7.8-3.7,11.7-5.3a37.46,37.46,0,0,1,2,14.7,40.52,40.52,0,0,1-1.2,8.4,27.69,27.69,0,0,1-1.2,4.1c-.4,1.3-.9,2.6-1.4,4v.1a56.77,56.77,0,0,1-3.9,7.8c-.7,1.1-1.4,2.3-2.4,3.7-.8,1.2-1.7,2.4-2.6,3.6a31.09,31.09,0,0,1-2.9,3.3c-.6.6-1.2,1.2-1.9,1.8-.5.4-.9.9-1.4,1.3a43.44,43.44,0,0,1-7.2,5.6h0a48.81,48.81,0,0,1-7.9,4.5,72.11,72.11,0,0,1-8.4,3.2c-1.4.4-2.8.8-4.3,1.1-.7.1-1.4.3-2.2.4l-.7.1-1.5.3a49.08,49.08,0,0,1-8.6.6c-1.4,0-2.9-.1-4.4-.2s-2.9-.3-4.2-.5a54.72,54.72,0,0,1-8.2-2.1,38.63,38.63,0,0,1-12.8-7.5C791.1,144.3,794.3,141.4,797.5,138.5Zm-56.5,69q2.25-3.9,4.8-7.8l2-3.1c1.8-2.8,3.7-5.6,5.6-8.4.1-.1.2-.3.3-.4.5-.7,1-1.5,1.6-2.2,1.9-2.7,3.8-5.3,5.8-7.9l.2-.3a14.68,14.68,0,0,1,3.6,9.4,21.59,21.59,0,0,1-3.9,13.4h0a21.07,21.07,0,0,1-4.9,5.4,22.06,22.06,0,0,1-6,3.3,14.38,14.38,0,0,1-10,.2Zm-5.7,10.4c.9-1.7,1.9-3.4,2.8-5.2a17.52,17.52,0,0,0,6.5,1.3,19.13,19.13,0,0,0,6.9-1.3,30.06,30.06,0,0,0,3.6-1.7,26.37,26.37,0,0,0,3.5-2.3,25.33,25.33,0,0,0,5.8-6.4,25,25,0,0,0,4.5-15.8,18.16,18.16,0,0,0-5.1-12.3l1.8-2.3c1.1-1.4,2.2-2.7,3.3-4l3.1-3.6a26.85,26.85,0,0,1,5.1,7.9,24.94,24.94,0,0,1,1.6,5.5,43.19,43.19,0,0,1,.6,5.9,41,41,0,0,1-7.1,23.9h0a34.18,34.18,0,0,1-4,5.2,58.93,58.93,0,0,1-4.5,4.2l-.2.2a36.34,36.34,0,0,1-10.7,6.1c-7.2,2.8-14.4,3-20.7.6Zm-5,9.8a29.47,29.47,0,0,0,11,2.1,35.17,35.17,0,0,0,12.9-2.5,38.33,38.33,0,0,0,11.8-6.8l.2-.2c1.6-1.4,3.3-2.9,4.9-4.5a42.75,42.75,0,0,0,4.5-5.8,41.77,41.77,0,0,0,6-12.9,38.65,38.65,0,0,0,1.8-13.5,38,38,0,0,0-.7-6.5,32.83,32.83,0,0,0-1.9-6.3,30.51,30.51,0,0,0-6.1-9.4c2.9-3.2,5.8-6.3,8.8-9.4a39.67,39.67,0,0,1,7.5,12.8,54.72,54.72,0,0,1,2.1,8.2c.2,1.4.4,2.8.5,4.3s.2,2.9.2,4.3a63.6,63.6,0,0,1-.6,8.7l-.3,1.5-.1.7c-.1.7-.3,1.4-.4,2.2-.3,1.4-.7,2.9-1.1,4.3a72.11,72.11,0,0,1-3.2,8.4,71.06,71.06,0,0,1-4.5,8h0a38.94,38.94,0,0,1-5.6,7.1l-1.4,1.4a17,17,0,0,1-1.9,1.9c-1,1-2.2,2-3.3,2.9a33.2,33.2,0,0,1-3.6,2.6c-1.4,1-2.5,1.7-3.6,2.4a46.82,46.82,0,0,1-7.8,3.8l-.2.1c-1.3.5-2.6,1-3.9,1.4l-4.1,1.2a40.52,40.52,0,0,1-8.4,1.2,39.11,39.11,0,0,1-14.7-2A122.4,122.4,0,0,1,730.3,227.7Zm-25.6,84.4c.4-2.7.8-5.3,1.2-8l.8-4.4c.6-3.1,1.2-6.3,1.9-9.4a12.44,12.44,0,0,1,.4-1.6l.1-.4c.3-1.5.7-3.1,1.1-4.6.1-.4.2-.7.3-1.1.4-1.7.9-3.5,1.4-5.2a15,15,0,0,1,6.9,7.3,20.36,20.36,0,0,1,1.9,6.5,21.66,21.66,0,0,1,.1,3.6,32.2,32.2,0,0,1-.5,3.8,22,22,0,0,1-2.5,6.9,18.72,18.72,0,0,1-2,2.9,26.14,26.14,0,0,1-2.3,2.5,14.85,14.85,0,0,1-9.2,4.1ZM703.2,325c.2-1.7.3-3.5.5-5.2l.1-.8a18.66,18.66,0,0,0,12.4-5.1,35.76,35.76,0,0,0,2.7-2.9,23.66,23.66,0,0,0,5.3-11.5h0a42.76,42.76,0,0,0,.5-4.3,30.88,30.88,0,0,0-.1-4.3,22.76,22.76,0,0,0-2.3-7.8,18.33,18.33,0,0,0-9.4-9.4c1.2-4.1,2.4-8.2,3.8-12.3a23.45,23.45,0,0,1,7.7,5.4,32.25,32.25,0,0,1,6.5,9.7,39.25,39.25,0,0,1,3.2,11.9,34.32,34.32,0,0,1,.3,6.4,31.63,31.63,0,0,1-.3,3.2c-.1.5-.2,1.1-.3,1.7v.2c-.1.5-.1,1-.2,1.5h0a46.37,46.37,0,0,1-1.7,6.4,49.42,49.42,0,0,1-2.6,5.7l-.1.2a37.08,37.08,0,0,1-7.5,9.8c-5.5,5.4-12.1,8.3-18.8,8.5Zm-.8,10.8c7.9-.1,15.6-3.5,21.9-9.6a39.46,39.46,0,0,0,8.3-10.8l.1-.2a49,49,0,0,0,2.8-6.1,42.62,42.62,0,0,0,1.9-7c.1-.5.2-1.1.3-1.6v-.1l.3-1.8a21.86,21.86,0,0,0,.3-3.6,42,42,0,0,0-11.1-31,30.36,30.36,0,0,0-9.3-6.4c1.4-4,2.9-8.1,4.5-12a38.65,38.65,0,0,1,11.8,9,37.24,37.24,0,0,1,5,6.8c.8,1.4,1.5,2.6,2.1,3.8s1.3,2.6,1.9,3.9a60.49,60.49,0,0,1,2.7,8.2,64.91,64.91,0,0,1,1.6,8.7c.1,1.5.2,2.9.2,4.5,0,1.2.1,2.9,0,4.5s-.2,3-.4,4.5c-.1.9-.3,1.7-.4,2.6-.1.7-.2,1.3-.3,2a43.11,43.11,0,0,1-2.4,8.7,14.58,14.58,0,0,0-.7,1.9,24.43,24.43,0,0,1-1,2.4c-.6,1.3-1.2,2.7-1.9,4s-1.5,2.6-2.3,3.8l-.5.8c-.6,1-1.3,1.9-1.9,2.8a50.07,50.07,0,0,1-5.7,6.5,56.52,56.52,0,0,1-6.6,5.6,45,45,0,0,1-7.3,4.3,40,40,0,0,1-14.4,3.8C702,344.3,702.1,340.1,702.4,335.8Zm8,85.2c-.1-.3-.1-.6-.2-.9-.4-1.5-.7-2.9-1-4.4l-.2-1-.3-1.2c-.7-3.1-1.3-6.3-1.9-9.4l-.8-4.5c-.4-2.6-.9-5.3-1.2-7.9l-.4-2.9a14.77,14.77,0,0,1,9.2,4.1,27.25,27.25,0,0,1,2.3,2.5,29.77,29.77,0,0,1,2,2.9,22.74,22.74,0,0,1,2.5,6.9c.2,1.1.4,2.5.5,3.8a20.8,20.8,0,0,1-2,10.2,15,15,0,0,1-6.9,7.3A47.08,47.08,0,0,1,710.4,421Zm2.5,9.2a18.7,18.7,0,0,0,9.4-9.4,23.43,23.43,0,0,0,2.3-7.8,20.45,20.45,0,0,0,.1-4.3,40.52,40.52,0,0,0-.5-4.2h0a25.3,25.3,0,0,0-2.9-8.1A28.84,28.84,0,0,0,719,393a18.23,18.23,0,0,0-2.7-2.9,18.47,18.47,0,0,0-12.4-5.1l-.1-.8c-.2-1.7-.4-3.5-.5-5.2l-.5-6.8c6.7.2,13.3,3.1,18.9,8.5a35.1,35.1,0,0,1,7.5,9.7l.1.2a58.59,58.59,0,0,1,2.6,5.7,35.53,35.53,0,0,1,1.7,6.4h0a7.72,7.72,0,0,1,.2,1.5v.3c.1.5.2,1.1.3,1.6.1,1.1.2,2.2.3,3.2a34.32,34.32,0,0,1-.3,6.4,36,36,0,0,1-3.2,11.8,32.43,32.43,0,0,1-6.6,9.7,26.86,26.86,0,0,1-7.7,5.4C715.3,438.4,714,434.3,712.9,430.2Zm5,16.1a28.72,28.72,0,0,0,9.3-6.4,39.14,39.14,0,0,0,7.3-10.9,47.34,47.34,0,0,0,3.8-20.2l-.3-3.6c-.1-.6-.2-1.2-.3-1.7v-.2c-.1-.5-.2-1.1-.3-1.6a40.08,40.08,0,0,0-1.9-7,49,49,0,0,0-2.8-6.1l-.1-.2a39.46,39.46,0,0,0-8.3-10.8c-6.4-6.2-14.1-9.5-21.9-9.6-.2-4.3-.4-8.5-.4-12.8a38.09,38.09,0,0,1,14.4,3.8,45,45,0,0,1,7.3,4.3,66.18,66.18,0,0,1,6.6,5.6,45,45,0,0,1,5.7,6.6,27.5,27.5,0,0,1,1.9,2.8l.5.8c.8,1.2,1.6,2.5,2.3,3.8s1.4,2.6,2,4c.3.8.6,1.5.9,2.4.2.6.5,1.3.7,1.9a44,44,0,0,1,2.4,8.8c.1.7.2,1.3.3,2a25.12,25.12,0,0,1,.4,2.7c.2,1.5.3,3,.4,4.5s0,3.3,0,4.6-.1,2.9-.2,4.4a64.91,64.91,0,0,1-1.6,8.7,60.49,60.49,0,0,1-2.7,8.2c-.6,1.3-1.2,2.6-1.9,3.9s-1.3,2.4-2.1,3.8a56.7,56.7,0,0,1-5,6.8,38.65,38.65,0,0,1-11.8,9C720.8,454.4,719.3,450.3,717.9,446.3Zm43.4,80-.2-.3c-2-2.6-3.9-5.2-5.8-7.9-.4-.5-.7-1-1.1-1.6-.1-.2-.3-.4-.4-.6h0c-.1-.1-.2-.3-.3-.4-1.9-2.8-3.8-5.6-5.6-8.4l-2-3.1c-1.6-2.6-3.2-5.2-4.8-7.9l-.9-1.6a15,15,0,0,1,10,.2c1,.4,2.1.9,3.1,1.4a18.08,18.08,0,0,1,2.9,1.9,21.07,21.07,0,0,1,4.9,5.4h0a21.69,21.69,0,0,1,3.9,13.5A14.53,14.53,0,0,1,761.3,526.3Zm7.7,9.6c-1.1-1.3-2.2-2.6-3.2-3.9l-2-2.5a18.16,18.16,0,0,0,5.1-12.3,25.76,25.76,0,0,0-4.5-15.9,25.33,25.33,0,0,0-5.8-6.4,26.37,26.37,0,0,0-3.5-2.3,19.64,19.64,0,0,0-3.6-1.6,18.23,18.23,0,0,0-13.4,0c-.9-1.7-1.9-3.4-2.8-5.1l-3.2-6.3c6.3-2.4,13.5-2.2,20.7.6a34.59,34.59,0,0,1,10.6,6.1l.2.2a58.93,58.93,0,0,1,4.5,4.2,34.18,34.18,0,0,1,4,5.2h0a39.37,39.37,0,0,1,5.5,11.8,35.38,35.38,0,0,1,1.6,12.1,35.29,35.29,0,0,1-2.3,11.5,23.37,23.37,0,0,1-5.1,7.9Zm14.4,15.9c-3-3.1-5.9-6.2-8.8-9.4a27.27,27.27,0,0,0,6.1-9.4,41.9,41.9,0,0,0,1.9-6.3,42.27,42.27,0,0,0-1.1-20,43.05,43.05,0,0,0-6-12.9,31.4,31.4,0,0,0-4.5-5.7,51.16,51.16,0,0,0-4.9-4.5l-.3-.2a42.83,42.83,0,0,0-11.8-6.8c-8.3-3.2-16.7-3.4-23.9-.5-1.9-3.9-3.7-7.8-5.3-11.7a37.46,37.46,0,0,1,14.7-2,40.52,40.52,0,0,1,8.4,1.2,27.69,27.69,0,0,1,4.1,1.2c1.3.4,2.6.9,4,1.4h.1a56.77,56.77,0,0,1,7.8,3.9c1.1.7,2.3,1.4,3.7,2.4,1.2.8,2.4,1.7,3.6,2.6a31.09,31.09,0,0,1,3.3,2.9c.6.6,1.2,1.2,1.8,1.9.4.5.9.9,1.3,1.4a43.44,43.44,0,0,1,5.6,7.2h0a48.81,48.81,0,0,1,4.5,7.9,72.11,72.11,0,0,1,3.2,8.4c.4,1.4.8,2.8,1.1,4.3.1.7.3,1.4.4,2.2l.1.7.3,1.5a49.08,49.08,0,0,1,.6,8.6c0,1.4-.1,2.9-.2,4.4s-.3,2.9-.5,4.2a54.72,54.72,0,0,1-2.1,8.2A32.69,32.69,0,0,1,783.4,551.8Zm61.9,48-1.6-.9c-2.7-1.6-5.3-3.2-7.9-4.8l-3.1-2c-2.8-1.8-5.7-3.7-8.4-5.7-.1,0-.1-.1-.2-.1l-.9-.6a2.18,2.18,0,0,1-.5-.4c-.3-.2-.7-.5-1-.7-2.7-1.9-5.3-3.9-7.9-5.9l-.3-.2a14.68,14.68,0,0,1,9.4-3.6,21.59,21.59,0,0,1,13.4,3.9h0a21.07,21.07,0,0,1,5.4,4.9,18.08,18.08,0,0,1,1.9,2.9,29.17,29.17,0,0,1,1.4,3.1A14.71,14.71,0,0,1,845.3,599.8Zm14.9,8-6.2-3.2c-1.7-.9-3.4-1.9-5.2-2.8a18.22,18.22,0,0,0,0-13.4,30.06,30.06,0,0,0-1.7-3.6,19.18,19.18,0,0,0-2.3-3.5,25.33,25.33,0,0,0-6.4-5.8,25,25,0,0,0-15.8-4.5,18.16,18.16,0,0,0-12.3,5.1l-2.3-1.8c-1.4-1.1-2.7-2.2-4-3.3l-3.6-3.1a26.85,26.85,0,0,1,7.9-5.1,24.94,24.94,0,0,1,5.5-1.6,43.19,43.19,0,0,1,5.9-.6,41,41,0,0,1,23.9,7.1h0a34.18,34.18,0,0,1,5.2,4,58.93,58.93,0,0,1,4.2,4.5l.2.2a36.34,36.34,0,0,1,6.1,10.7C862.4,594.3,862.6,601.6,860.2,607.8Zm15.3,7.2c-3.9-1.7-7.8-3.5-11.7-5.3,2.9-7.3,2.8-15.7-.4-23.9a38.33,38.33,0,0,0-6.8-11.8l-.2-.2c-1.4-1.6-2.9-3.3-4.5-4.9a52.59,52.59,0,0,0-5.8-4.5,41.77,41.77,0,0,0-12.9-6,38.65,38.65,0,0,0-13.5-1.8,38,38,0,0,0-6.5.7,32.83,32.83,0,0,0-6.3,1.9,30.51,30.51,0,0,0-9.4,6.1c-3.2-2.9-6.3-5.8-9.4-8.8a39.67,39.67,0,0,1,12.8-7.5,54.72,54.72,0,0,1,8.2-2.1c1.3-.2,2.8-.4,4.3-.5s2.9-.2,4.4-.2a63.6,63.6,0,0,1,8.7.6l1.5.3.7.1c.7.1,1.4.3,2.2.4,1.4.3,2.9.7,4.3,1.1a72.11,72.11,0,0,1,8.4,3.2,71.06,71.06,0,0,1,8,4.5h0a38.94,38.94,0,0,1,7.1,5.6l1.4,1.4c.7.6,1.3,1.2,1.9,1.8,1,1,2,2.2,2.9,3.3a33.2,33.2,0,0,1,2.6,3.6c1,1.4,1.7,2.5,2.4,3.6a46.82,46.82,0,0,1,3.8,7.8l.1.1c.5,1.4,1,2.7,1.4,4s.8,2.7,1.2,4.1a40.52,40.52,0,0,1,1.2,8.4A42.35,42.35,0,0,1,875.5,615Zm72.7,20.1c-2.6-.4-5.2-.8-7.9-1.2l-4.5-.8c-3.1-.6-6.2-1.2-9.3-1.9a9.36,9.36,0,0,1-1.6-.4l-.6-.1c-1.5-.3-2.9-.7-4.4-1l-1.2-.3c-1.7-.4-3.5-.9-5.2-1.3a15,15,0,0,1,7.3-6.9,20.36,20.36,0,0,1,6.5-1.9,21.66,21.66,0,0,1,3.6-.1,32.2,32.2,0,0,1,3.8.5,22,22,0,0,1,6.9,2.5,18.72,18.72,0,0,1,2.9,2,26.14,26.14,0,0,1,2.5,2.3,14.85,14.85,0,0,1,4.1,9.2Zm12.9,1.6c-1.7-.2-3.4-.3-5.1-.5l-.8-.1a18.66,18.66,0,0,0-5.1-12.4,35.76,35.76,0,0,0-2.9-2.7,23.66,23.66,0,0,0-11.5-5.3h0a42.76,42.76,0,0,0-4.3-.5,30.88,30.88,0,0,0-4.3.1,22.76,22.76,0,0,0-7.8,2.3,18.33,18.33,0,0,0-9.4,9.4c-4.1-1.2-8.2-2.4-12.3-3.8a23.45,23.45,0,0,1,5.4-7.7,32.25,32.25,0,0,1,9.7-6.5,39.25,39.25,0,0,1,11.9-3.2,34.32,34.32,0,0,1,6.4-.3,31.63,31.63,0,0,1,3.2.3c.5.1,1.1.2,1.7.3h.2c.5.1,1,.1,1.5.2h0A46.37,46.37,0,0,1,944,608a49.42,49.42,0,0,1,5.7,2.6l.2.1a37.08,37.08,0,0,1,9.8,7.5c5.4,5.5,8.3,12.1,8.5,18.8Zm10.8.8c-.1-7.9-3.4-15.6-9.6-21.9a39.46,39.46,0,0,0-10.8-8.3l-.2-.1a56.67,56.67,0,0,0-6.1-2.8,42.62,42.62,0,0,0-7-1.9l-1.6-.3h-.1l-1.8-.3a21.86,21.86,0,0,0-3.6-.3,42,42,0,0,0-31,11.1,30.36,30.36,0,0,0-6.4,9.3c-4-1.4-8.1-2.9-12-4.5a38.65,38.65,0,0,1,9-11.8,37.24,37.24,0,0,1,6.8-5c1.4-.8,2.6-1.5,3.8-2.1s2.6-1.3,3.9-1.9a60.49,60.49,0,0,1,8.2-2.7,64.91,64.91,0,0,1,8.7-1.6c1.5-.1,2.9-.2,4.5-.2,1.2,0,2.9-.1,4.5,0s3,.2,4.5.4c.9.1,1.7.3,2.6.4l2,.3a43.11,43.11,0,0,1,8.7,2.4,14.58,14.58,0,0,0,1.9.7,24.43,24.43,0,0,1,2.4,1c1.3.6,2.7,1.2,4,1.9s2.6,1.5,3.8,2.3l.8.5a27.5,27.5,0,0,1,2.8,1.9,50.07,50.07,0,0,1,6.5,5.7,56.52,56.52,0,0,1,5.6,6.6,45,45,0,0,1,4.3,7.3,40,40,0,0,1,3.8,14.4C980.4,637.9,976.2,637.7,971.9,637.5Zm85.2-8a3.55,3.55,0,0,1-1,.2c-1.4.3-2.8.7-4.3,1l-1.1.3-1.2.3c-3.1.7-6.2,1.3-9.3,1.9l-4.6.8-7.9,1.2-2.9.4a14.77,14.77,0,0,1,4.1-9.2,27.25,27.25,0,0,1,2.5-2.3,29.77,29.77,0,0,1,2.9-2,22.74,22.74,0,0,1,6.9-2.5c1.1-.2,2.5-.4,3.8-.5a20.8,20.8,0,0,1,10.2,2,15,15,0,0,1,7.3,6.9C1060.7,628.6,1058.9,629,1057.1,629.5Zm9.2-2.5a18.7,18.7,0,0,0-9.4-9.4,23.43,23.43,0,0,0-7.8-2.3,20.45,20.45,0,0,0-4.3-.1,40.52,40.52,0,0,0-4.2.5h0a25.3,25.3,0,0,0-8.1,2.9,28.84,28.84,0,0,0-3.4,2.3,18.23,18.23,0,0,0-2.9,2.7,18.47,18.47,0,0,0-5.1,12.4l-.9.1c-1.7.2-3.4.4-5.1.5l-6.8.5c.2-6.7,3.1-13.3,8.5-18.9a35.1,35.1,0,0,1,9.7-7.5l.2-.1a49.42,49.42,0,0,1,5.7-2.6,33.45,33.45,0,0,1,6.4-1.7h0a7.72,7.72,0,0,1,1.5-.2h.2l1.6-.3,3.2-.3h1.7a35.93,35.93,0,0,1,4.7.3,35.3,35.3,0,0,1,11.8,3.2,32.43,32.43,0,0,1,9.7,6.6,26.86,26.86,0,0,1,5.4,7.7C1074.5,624.6,1070.4,625.8,1066.3,627Zm16.1-5.1a28.72,28.72,0,0,0-6.4-9.3,39.14,39.14,0,0,0-10.9-7.3,47.34,47.34,0,0,0-20.2-3.8l-3.6.3c-.6.1-1.2.2-1.7.3h-.2l-1.6.3a40.08,40.08,0,0,0-7,1.9,49,49,0,0,0-6.1,2.8l-.3.1a39.46,39.46,0,0,0-10.8,8.3c-6.2,6.4-9.5,14.1-9.6,21.9-4.3.2-8.6.4-12.8.4a38.09,38.09,0,0,1,3.8-14.4,45,45,0,0,1,4.3-7.3,83.16,83.16,0,0,1,5.6-6.6,45,45,0,0,1,6.6-5.7,27.5,27.5,0,0,1,2.8-1.9l.8-.5c1.2-.8,2.5-1.6,3.8-2.3s2.6-1.4,4-2c.8-.3,1.5-.6,2.4-.9.6-.2,1.3-.5,1.8-.7a44,44,0,0,1,8.8-2.4l2-.3a25.12,25.12,0,0,1,2.7-.4c1.5-.2,3-.3,4.5-.4s3.3,0,4.6,0,2.9.1,4.4.2a64.91,64.91,0,0,1,8.7,1.6,60.49,60.49,0,0,1,8.2,2.7c1.3.6,2.7,1.2,3.9,1.9s2.4,1.3,3.8,2.1a56.7,56.7,0,0,1,6.8,5,38.65,38.65,0,0,1,9,11.8C1090.5,619,1086.5,620.5,1082.4,621.9Zm14.7-35.5c-.5,1.5-.9,3-1.3,4.4a47.53,47.53,0,0,0-1.3,9.1,43.46,43.46,0,0,0,.8,10.9,43.35,43.35,0,0,0-7.2-8.3,45.86,45.86,0,0,0-7.4-5.5c-1.4-.9-2.7-1.6-4-2.3s-2.8-1.4-4.2-2a60.34,60.34,0,0,0-8.8-2.9,59.51,59.51,0,0,0-9.3-1.7,37.74,37.74,0,0,0-4.7-.2,38.2,38.2,0,0,0-4.8,0c-1.6.1-3.3.2-4.9.4a23.25,23.25,0,0,0-2.8.5l-1.9.3h0a57.49,57.49,0,0,0-9.6,2.7c-.6.2-1.2.5-1.8.7a27.73,27.73,0,0,0-2.6,1,42.5,42.5,0,0,0-4.3,2.1c-1.4.8-2.8,1.6-4.1,2.5l-.8.5a27.3,27.3,0,0,0-3,2.1,51.71,51.71,0,0,0-7.1,6.2,64.93,64.93,0,0,0-6,7,53,53,0,0,0-4.7,7.9,40.83,40.83,0,0,0-3.4,10.4,45.17,45.17,0,0,0-3.4-10.4,53,53,0,0,0-4.7-7.9,64.93,64.93,0,0,0-6-7,56.61,56.61,0,0,0-7-6.1l-3-2.1-.8-.5c-1.3-.9-2.7-1.7-4.1-2.5a34.18,34.18,0,0,0-4.3-2.1c-.9-.4-1.8-.7-2.6-1a13.36,13.36,0,0,1-1.8-.7,46.22,46.22,0,0,0-9.5-2.6h0c-.7-.1-1.3-.2-1.9-.3-.9-.2-1.9-.3-2.8-.5a40.45,40.45,0,0,0-4.9-.4c-1.8-.1-3.5,0-4.8,0-1.6,0-3.2.1-4.7.2a56.4,56.4,0,0,0-9.2,1.7,53.34,53.34,0,0,0-8.8,2.9c-1.4.6-2.8,1.3-4.2,2-1.2.7-2.5,1.4-4,2.3a56.77,56.77,0,0,0-7.4,5.5,43.35,43.35,0,0,0-7.2,8.3,43.46,43.46,0,0,0,.8-10.9,47.53,47.53,0,0,0-1.3-9.1,31.91,31.91,0,0,0-1.3-4.4c-.5-1.4-1-2.7-1.5-4.1l-.1-.2a65.21,65.21,0,0,0-4.1-8.4c-.7-1.2-1.5-2.4-2.5-3.8s-1.8-2.6-2.8-3.8-2.1-2.5-3.1-3.6l-2-2c-.4-.4-.9-.8-1.4-1.3a51.17,51.17,0,0,0-7.8-6.1,61.75,61.75,0,0,0-8.5-4.9,72.58,72.58,0,0,0-8.8-3.4c-1.5-.5-3.1-.8-4.6-1.2a22.31,22.31,0,0,0-2.3-.4l-.7-.1-1.6-.3a57.38,57.38,0,0,0-9.3-.7c-1.6,0-3.1.1-4.6.2s-3.1.3-4.6.5a50.47,50.47,0,0,0-8.9,2.3,44.9,44.9,0,0,0-9.8,4.9,44.9,44.9,0,0,0,4.9-9.8,52.83,52.83,0,0,0,2.3-8.9c.2-1.5.4-3,.5-4.5s.2-3.1.2-4.7a57.38,57.38,0,0,0-.7-9.3c-.1-.5-.2-1.1-.3-1.6l-.1-.6c-.1-.8-.3-1.6-.4-2.3a34.47,34.47,0,0,0-1.2-4.6,81,81,0,0,0-3.4-8.9,61.75,61.75,0,0,0-4.9-8.5,51.17,51.17,0,0,0-6.1-7.8l-1.3-1.3a18.88,18.88,0,0,0-2-2,37.28,37.28,0,0,0-3.6-3.2c-1.2-1-2.5-1.9-3.8-2.8l-3.9-2.6a59.85,59.85,0,0,0-8.4-4.2l-.1-.1c-1.4-.5-2.7-1-4.1-1.5s-2.9-.9-4.4-1.3a47.53,47.53,0,0,0-9.1-1.3,43.46,43.46,0,0,0-10.9.8,43.35,43.35,0,0,0,8.3-7.2,45.86,45.86,0,0,0,5.5-7.4c.9-1.4,1.6-2.7,2.3-4s1.4-2.8,2-4.2a60.34,60.34,0,0,0,2.9-8.8,59.51,59.51,0,0,0,1.7-9.3,37.74,37.74,0,0,0,.2-4.7,38.2,38.2,0,0,0,0-4.8c-.1-1.6-.2-3.3-.4-4.9a23.25,23.25,0,0,0-.5-2.8c-.1-.6-.2-1.3-.3-1.9h0a57.49,57.49,0,0,0-2.7-9.6c-.2-.6-.5-1.2-.7-1.8a27.73,27.73,0,0,0-1-2.6,42.5,42.5,0,0,0-2.1-4.3c-.8-1.4-1.6-2.8-2.5-4.1l-.5-.8a27.3,27.3,0,0,0-2.1-3,51.71,51.71,0,0,0-6.2-7.1,64.93,64.93,0,0,0-7-6,53,53,0,0,0-7.9-4.7,40.83,40.83,0,0,0-10.4-3.4,45.17,45.17,0,0,0,10.4-3.4,53,53,0,0,0,7.9-4.7,64.93,64.93,0,0,0,7-6,56.61,56.61,0,0,0,6.1-7l2.1-3,.5-.8c.9-1.3,1.7-2.7,2.5-4.1a34.18,34.18,0,0,0,2.1-4.3c.4-.9.7-1.8,1-2.6a13.36,13.36,0,0,1,.7-1.8,46.22,46.22,0,0,0,2.6-9.5h0c.1-.7.2-1.3.3-1.9.2-.9.3-1.9.5-2.8a38.86,38.86,0,0,0,.4-4.9c.1-1.8,0-3.5,0-4.8,0-1.6-.1-3.2-.2-4.7a56.4,56.4,0,0,0-1.7-9.2,53.34,53.34,0,0,0-2.9-8.8c-.6-1.4-1.3-2.9-2-4.2s-1.4-2.5-2.3-4a50.74,50.74,0,0,0-5.5-7.4,43.35,43.35,0,0,0-8.3-7.2,41.1,41.1,0,0,0,8.6.8,18.48,18.48,0,0,0,2.3-.1,47.53,47.53,0,0,0,9.1-1.3,31.91,31.91,0,0,0,4.4-1.3c1.4-.5,2.7-.9,4-1.5l.3-.1a72.66,72.66,0,0,0,8.4-4.1c1.2-.7,2.4-1.5,3.8-2.5s2.6-1.8,3.8-2.8,2.5-2.1,3.6-3.1l2-2c.4-.4.8-.9,1.3-1.4a51.17,51.17,0,0,0,6.1-7.8,61.75,61.75,0,0,0,4.9-8.5,72.58,72.58,0,0,0,3.4-8.8c.5-1.5.8-3.1,1.2-4.6a22.31,22.31,0,0,0,.4-2.3l.1-.7c.1-.5.2-1.1.3-1.6a57.38,57.38,0,0,0,.7-9.3c0-1.6-.1-3.1-.2-4.6s-.3-3.1-.5-4.6a50.47,50.47,0,0,0-2.3-8.9,44.9,44.9,0,0,0-4.9-9.8,44.9,44.9,0,0,0,9.8,4.9,52.83,52.83,0,0,0,8.9,2.3c1.5.2,3,.4,4.5.5s3.1.2,4.7.2h.6a50.24,50.24,0,0,0,8.7-.7l1.6-.3.6-.1c.8-.1,1.6-.3,2.3-.4a34.47,34.47,0,0,0,4.6-1.2,81,81,0,0,0,8.9-3.4,61.75,61.75,0,0,0,8.5-4.9,51.17,51.17,0,0,0,7.8-6.1l1.3-1.3a18.88,18.88,0,0,0,2-2,37.28,37.28,0,0,0,3.2-3.6c1-1.2,1.9-2.5,2.8-3.8,1-1.5,1.9-2.7,2.6-3.9a65.82,65.82,0,0,0,4.2-8.4l.1-.1c.5-1.4,1-2.7,1.5-4.1s.9-3,1.3-4.4a47.53,47.53,0,0,0,1.3-9.1,43.46,43.46,0,0,0-.8-10.9,43.35,43.35,0,0,0,7.2,8.3,45.86,45.86,0,0,0,7.4,5.5c1.4.9,2.7,1.6,4,2.3s2.8,1.4,4.2,2a60.34,60.34,0,0,0,8.8,2.9,59.51,59.51,0,0,0,9.3,1.7,37.74,37.74,0,0,0,4.7.2c.9,0,1.9.1,3,.1h1.8c1.6-.1,3.3-.2,4.9-.4a23.25,23.25,0,0,0,2.8-.5l1.9-.3h0a57.49,57.49,0,0,0,9.6-2.7c.6-.2,1.2-.5,1.8-.7a27.73,27.73,0,0,0,2.6-1,42.5,42.5,0,0,0,4.3-2.1c1.4-.8,2.8-1.6,4.1-2.5l.8-.5c1-.7,2-1.3,3-2.1a51.71,51.71,0,0,0,7.1-6.2,64.93,64.93,0,0,0,6-7,53,53,0,0,0,4.7-7.9,40.83,40.83,0,0,0,3.4-10.4,45.17,45.17,0,0,0,3.4,10.4,53,53,0,0,0,4.7,7.9,64.93,64.93,0,0,0,6,7,56.61,56.61,0,0,0,7,6.1l3,2.1.8.5c1.3.9,2.7,1.7,4.1,2.5a34.18,34.18,0,0,0,4.3,2.1c.9.4,1.8.7,2.6,1a13.36,13.36,0,0,1,1.8.7,46.22,46.22,0,0,0,9.5,2.6h0c.7.1,1.3.2,1.9.3.9.2,1.9.3,2.8.5a38.86,38.86,0,0,0,4.9.4h1.8a25.32,25.32,0,0,0,2.9-.1c1.6,0,3.2-.1,4.7-.2a56.4,56.4,0,0,0,9.2-1.7,53.34,53.34,0,0,0,8.8-2.9c1.4-.6,2.9-1.3,4.2-2s2.6-1.4,4-2.3a50.74,50.74,0,0,0,7.4-5.5,43.35,43.35,0,0,0,7.2-8.3,43.46,43.46,0,0,0-.8,10.9,47.53,47.53,0,0,0,1.3,9.1,31.91,31.91,0,0,0,1.3,4.4c.5,1.4,1,2.7,1.5,4.1l.1.2a72.66,72.66,0,0,0,4.1,8.4c.7,1.2,1.5,2.4,2.5,3.8s1.8,2.6,2.8,3.8,2.1,2.4,3.1,3.6l2,2c.4.4.9.8,1.4,1.3a51.17,51.17,0,0,0,7.8,6.1,61.75,61.75,0,0,0,8.5,4.9,72.58,72.58,0,0,0,8.8,3.4c1.5.4,3,.8,4.6,1.2a22.31,22.31,0,0,0,2.3.4l.6.1,1.6.3a50.24,50.24,0,0,0,8.7.7h.6c1.6,0,3.1-.1,4.6-.2s3.1-.3,4.6-.5a50.47,50.47,0,0,0,8.9-2.3,44.9,44.9,0,0,0,9.8-4.9,44.9,44.9,0,0,0-4.9,9.8,52.83,52.83,0,0,0-2.3,8.9c-.2,1.5-.4,3-.5,4.5s-.2,3.1-.2,4.7a57.38,57.38,0,0,0,.7,9.3c.1.6.2,1.1.3,1.7l.1.6c.1.8.3,1.6.4,2.3a34.47,34.47,0,0,0,1.2,4.6,81,81,0,0,0,3.4,8.9,61.75,61.75,0,0,0,4.9,8.5,51.17,51.17,0,0,0,6.1,7.8l1.3,1.3a18.88,18.88,0,0,0,2,2,37.28,37.28,0,0,0,3.6,3.2c1.2,1,2.5,1.9,3.8,2.8,1.5,1,2.7,1.9,3.9,2.6a59.85,59.85,0,0,0,8.4,4.2l.2.1c1.4.5,2.7,1,4,1.5,1.5.5,3,.9,4.4,1.3a47.53,47.53,0,0,0,9.1,1.3c.8,0,1.5.1,2.3.1a47.38,47.38,0,0,0,8.6-.8,46.6,46.6,0,0,0-8.3,7.2,45.86,45.86,0,0,0-5.5,7.4c-.9,1.4-1.6,2.7-2.3,4s-1.4,2.8-2,4.2a60.34,60.34,0,0,0-2.9,8.8,59.51,59.51,0,0,0-1.7,9.3,37.74,37.74,0,0,0-.2,4.7,38.2,38.2,0,0,0,0,4.8c.1,1.6.2,3.3.4,4.9a23.25,23.25,0,0,0,.5,2.8c.1.6.2,1.3.3,1.9h0a57.49,57.49,0,0,0,2.7,9.6c.2.6.5,1.2.7,1.8.3.8.6,1.7,1,2.6a42.5,42.5,0,0,0,2.1,4.3c.8,1.4,1.6,2.8,2.5,4.1l.5.8c.7,1,1.3,2,2.1,3a51.71,51.71,0,0,0,6.2,7.1,64.93,64.93,0,0,0,7,6,53,53,0,0,0,7.9,4.7,40.83,40.83,0,0,0,10.4,3.4,45.17,45.17,0,0,0-10.4,3.4,53,53,0,0,0-7.9,4.7,64.93,64.93,0,0,0-7,6,56.61,56.61,0,0,0-6.1,7l-2.1,3-.5.8c-.9,1.3-1.7,2.7-2.5,4.1a42.5,42.5,0,0,0-2.1,4.3c-.4.9-.7,1.8-1,2.6a13.36,13.36,0,0,1-.7,1.8,46.22,46.22,0,0,0-2.6,9.5h0c-.1.7-.2,1.3-.3,1.9-.2.9-.3,1.9-.5,2.8a38.86,38.86,0,0,0-.4,4.9c-.1,1.8,0,3.5,0,4.8,0,1.6.1,3.2.2,4.7a56.4,56.4,0,0,0,1.7,9.2,53.34,53.34,0,0,0,2.9,8.8c.6,1.4,1.3,2.8,2,4.2s1.4,2.6,2.3,4a56.77,56.77,0,0,0,5.5,7.4,43.35,43.35,0,0,0,8.3,7.2,43.46,43.46,0,0,0-10.9-.8,47.53,47.53,0,0,0-9.1,1.3c-1.5.4-3,.8-4.4,1.3s-2.7,1-4.1,1.5l-.2.1a72.66,72.66,0,0,0-8.4,4.1c-1.2.7-2.4,1.5-3.8,2.5s-2.6,1.8-3.8,2.8-2.5,2.1-3.6,3.1l-2,2c-.4.4-.8.9-1.3,1.4a51.17,51.17,0,0,0-6.1,7.8,61.75,61.75,0,0,0-4.9,8.5,72.58,72.58,0,0,0-3.4,8.8c-.4,1.5-.8,3-1.2,4.6a22.31,22.31,0,0,0-.4,2.3l-.1.6c-.1.6-.2,1.1-.3,1.6a57.38,57.38,0,0,0-.7,9.3c0,1.6.1,3.1.2,4.6s.3,3.1.5,4.6a50.47,50.47,0,0,0,2.3,8.9,44.9,44.9,0,0,0,4.9,9.8,44.9,44.9,0,0,0-9.8-4.9,55.42,55.42,0,0,0-8.9-2.3c-1.5-.2-3-.4-4.5-.5s-3.1-.2-4.7-.2a57.38,57.38,0,0,0-9.3.7l-1.6.3-.6.1c-.8.1-1.6.3-2.3.4a34.47,34.47,0,0,0-4.6,1.2,81,81,0,0,0-8.9,3.4,61.75,61.75,0,0,0-8.5,4.9,51.17,51.17,0,0,0-7.8,6.1l-1.3,1.3a18.88,18.88,0,0,0-2,2,37.28,37.28,0,0,0-3.2,3.6c-1,1.2-1.9,2.5-2.8,3.8l-2.6,3.9a59.85,59.85,0,0,0-4.2,8.4l-.1.2C1098,583.7,1097.5,585.1,1097.1,586.4Zm65.1-7.6c-2.6,2-5.2,3.9-7.9,5.8-.7.5-1.4,1-2.2,1.5-.1.1-.3.2-.4.3-2.7,1.9-5.5,3.8-8.3,5.6l-3.2,2c-2.6,1.6-5.2,3.2-7.9,4.8l-1.7,1a15,15,0,0,1,.2-10,27.51,27.51,0,0,1,1.4-3,18.08,18.08,0,0,1,1.9-2.9,21.07,21.07,0,0,1,5.4-4.9h0a22.05,22.05,0,0,1,12.2-3.9h1.3a13.9,13.9,0,0,1,9.3,3.6Zm9.8-7.9c-1.3,1.1-2.5,2.1-3.8,3.1l-2.6,2a18.16,18.16,0,0,0-12.3-5.1,27.64,27.64,0,0,0-22.3,10.3,26.37,26.37,0,0,0-2.3,3.5,19.64,19.64,0,0,0-1.6,3.6,18.23,18.23,0,0,0,0,13.4c-1.7.9-3.4,1.9-5,2.8l-6.3,3.2c-2.4-6.3-2.2-13.5.6-20.7a34.59,34.59,0,0,1,6.1-10.6l.2-.2a58.93,58.93,0,0,1,4.2-4.5,40,40,0,0,1,5.2-4h0a39.37,39.37,0,0,1,11.8-5.5,35.86,35.86,0,0,1,10.8-1.7h1.4a35.29,35.29,0,0,1,11.5,2.3,23.37,23.37,0,0,1,7.9,5.1Zm6.6-5.7a27.27,27.27,0,0,0-9.4-6.1,41.9,41.9,0,0,0-6.3-1.9,42.27,42.27,0,0,0-20,1.1,43.05,43.05,0,0,0-12.9,6,35.26,35.26,0,0,0-5.7,4.5,41.48,41.48,0,0,0-4.5,4.9l-.2.3a42.83,42.83,0,0,0-6.8,11.8c-3.2,8.3-3.4,16.7-.5,23.9-3.9,1.9-7.8,3.7-11.7,5.3a37.46,37.46,0,0,1-2-14.7,40.52,40.52,0,0,1,1.2-8.4,27.69,27.69,0,0,1,1.2-4.1c.4-1.3.9-2.6,1.4-3.9l.1-.2a56.77,56.77,0,0,1,3.9-7.8c.7-1.1,1.4-2.3,2.4-3.7.8-1.2,1.7-2.4,2.6-3.6s1.9-2.3,2.9-3.3c.6-.6,1.2-1.2,1.9-1.8.5-.4.9-.9,1.4-1.3a43.44,43.44,0,0,1,7.2-5.6h0a48.81,48.81,0,0,1,7.9-4.5,72.11,72.11,0,0,1,8.4-3.2c1.4-.4,2.8-.8,4.3-1.1.7-.1,1.4-.3,2.2-.4l.7-.1,1.5-.3a54.2,54.2,0,0,1,8.1-.6h.6c1.4,0,2.9.1,4.4.2s2.9.3,4.2.5a54.72,54.72,0,0,1,8.2,2.1,39.67,39.67,0,0,1,12.8,7.5C1184.9,559.5,1181.8,562.4,1178.6,565.2Zm56.4-69c-1.6,2.7-3.2,5.3-4.8,7.9l-2,3.1c-1.8,2.8-3.7,5.6-5.6,8.4-.2.3-.5.7-.7,1-.4.5-.7,1-1.1,1.5-1.9,2.7-3.9,5.3-5.9,7.9l-.2.3a14.68,14.68,0,0,1-3.6-9.4,21.59,21.59,0,0,1,3.9-13.4h0a21.07,21.07,0,0,1,4.9-5.4,18.08,18.08,0,0,1,2.9-1.9,29.17,29.17,0,0,1,3.1-1.4,15.64,15.64,0,0,1,5.5-1,13.3,13.3,0,0,1,4.5.8Zm5.8-10.3c-.9,1.7-1.9,3.5-2.8,5.2a18.22,18.22,0,0,0-13.4,0,30.06,30.06,0,0,0-3.6,1.7,19.18,19.18,0,0,0-3.5,2.3,25.33,25.33,0,0,0-5.8,6.4,25,25,0,0,0-4.5,15.8,18.16,18.16,0,0,0,5.1,12.3l-1.7,2.2c-1.1,1.4-2.3,2.8-3.4,4.2l-3.1,3.6a26.18,26.18,0,0,1-6.7-13.4,43.19,43.19,0,0,1-.6-5.9,41,41,0,0,1,7.1-23.9h0a34.18,34.18,0,0,1,4-5.2,58.93,58.93,0,0,1,4.5-4.2l.2-.2a36.34,36.34,0,0,1,10.7-6.1,31.84,31.84,0,0,1,11.5-2.3,25.89,25.89,0,0,1,9.2,1.7Zm4.9-9.8c-7.3-2.9-15.7-2.8-23.9.4a38.33,38.33,0,0,0-11.8,6.8l-.2.2c-1.6,1.4-3.3,2.8-4.9,4.5a52.59,52.59,0,0,0-4.5,5.8,42.86,42.86,0,0,0-6,12.9,38.65,38.65,0,0,0-1.8,13.5,49.73,49.73,0,0,0,.7,6.5,32.83,32.83,0,0,0,1.9,6.3,30.51,30.51,0,0,0,6.1,9.4c-2.9,3.2-5.8,6.3-8.8,9.4A39.67,39.67,0,0,1,1185,539a54.72,54.72,0,0,1-2.1-8.2c-.2-1.4-.4-2.8-.5-4.3s-.2-2.9-.2-4.3a63.6,63.6,0,0,1,.6-8.7l.3-1.5.1-.7c.1-.7.3-1.4.4-2.2.3-1.4.7-2.9,1.1-4.3a72.11,72.11,0,0,1,3.2-8.4,71.06,71.06,0,0,1,4.5-8h0a38.94,38.94,0,0,1,5.6-7.1l1.4-1.4c.6-.7,1.2-1.3,1.8-1.9,1-1,2.2-2,3.3-2.9a33.2,33.2,0,0,1,3.6-2.6c1.4-1,2.5-1.7,3.6-2.4a46.82,46.82,0,0,1,7.8-3.8l.1-.1c1.4-.5,2.7-1,4-1.4s2.7-.8,4.1-1.2a40.52,40.52,0,0,1,8.4-1.2h2.1a38,38,0,0,1,12.7,2.1C1249.4,468.4,1247.6,472.2,1245.7,476.1Zm25.6-84.4-1.2,7.8-.8,4.6c-.6,3.1-1.2,6.1-1.8,9.1-.1.6-.3,1.2-.4,1.7l-.1.4c-.3,1.5-.7,2.9-1,4.4-.1.4-.2.8-.3,1.3-.4,1.7-.9,3.4-1.3,5.2a15,15,0,0,1-6.9-7.3,20.36,20.36,0,0,1-1.9-6.5,21.66,21.66,0,0,1-.1-3.6c.1-1.3.3-2.7.5-3.8a22,22,0,0,1,2.5-6.9,18.72,18.72,0,0,1,2-2.9,26.14,26.14,0,0,1,2.3-2.5,14.85,14.85,0,0,1,9.2-4.1Zm1.5-12.9c-.2,1.7-.3,3.5-.5,5.2l-.1.8a18.66,18.66,0,0,0-12.4,5.1,35.76,35.76,0,0,0-2.7,2.9,23.66,23.66,0,0,0-5.3,11.5h0c-.2,1.3-.4,2.7-.5,4.3a30.88,30.88,0,0,0,.1,4.3,22.76,22.76,0,0,0,2.3,7.8,18.33,18.33,0,0,0,9.4,9.4c-1.2,4.1-2.4,8.2-3.8,12.3a23.45,23.45,0,0,1-7.7-5.4,32.25,32.25,0,0,1-6.5-9.7,39.25,39.25,0,0,1-3.2-11.9,34.32,34.32,0,0,1-.3-6.4,31.63,31.63,0,0,1,.3-3.2c.1-.5.2-1.1.3-1.7V404a7.77,7.77,0,0,0,.2-1.6h0a46.37,46.37,0,0,1,1.7-6.4,49.42,49.42,0,0,1,2.6-5.7l.1-.2a37.08,37.08,0,0,1,7.5-9.8c5.5-5.4,12.1-8.3,18.8-8.5Zm.8-10.8c-7.9.1-15.6,3.4-21.9,9.6a39.46,39.46,0,0,0-8.3,10.8l-.1.2a56.67,56.67,0,0,0-2.8,6.1,42.62,42.62,0,0,0-1.9,7c-.1.6-.2,1.1-.3,1.7v.1l-.3,1.8a21.86,21.86,0,0,0-.3,3.6,42,42,0,0,0,11.1,31,30.36,30.36,0,0,0,9.3,6.4c-1.4,4-2.9,8.1-4.5,12a38.65,38.65,0,0,1-11.8-9,37.24,37.24,0,0,1-5-6.8c-.8-1.4-1.5-2.6-2.1-3.8s-1.3-2.6-1.9-3.9a57.5,57.5,0,0,1-2.7-8.3,62.17,62.17,0,0,1-1.6-8.7c-.1-1.5-.2-2.9-.2-4.5,0-1.2-.1-2.9,0-4.5s.2-3,.4-4.5c.1-.9.3-1.7.4-2.6.1-.7.2-1.3.3-2a43.11,43.11,0,0,1,2.4-8.7,14.58,14.58,0,0,0,.7-1.9,24.43,24.43,0,0,1,1-2.4c.6-1.3,1.2-2.7,1.9-4s1.5-2.5,2.3-3.8l.5-.8c.6-1,1.3-1.9,1.9-2.8a50.07,50.07,0,0,1,5.7-6.5,56.52,56.52,0,0,1,6.6-5.6,45,45,0,0,1,7.3-4.3,40,40,0,0,1,14.4-3.8C1274,359.4,1273.9,363.7,1273.6,368Zm-8-85.3c.1.4.2.7.3,1.1.3,1.4.7,2.8,1,4.2l.3,1.1c.1.4.2.9.3,1.3.7,3.1,1.3,6.2,1.9,9.3l.8,4.6c.4,2.6.8,5.2,1.2,7.9l.4,2.9a14.77,14.77,0,0,1-9.2-4.1,27.25,27.25,0,0,1-2.3-2.5,29.77,29.77,0,0,1-2-2.9,22.74,22.74,0,0,1-2.5-6.9c-.2-1.2-.4-2.5-.5-3.8a20.8,20.8,0,0,1,2-10.2,15,15,0,0,1,6.9-7.3C1264.7,279.2,1265.1,280.9,1265.6,282.7Zm-2.5-9.1a18.7,18.7,0,0,0-9.4,9.4,23.43,23.43,0,0,0-2.3,7.8,20.45,20.45,0,0,0-.1,4.3c.1,1.5.3,3,.5,4.2h0a25.3,25.3,0,0,0,2.9,8.1,28.84,28.84,0,0,0,2.3,3.4,18.23,18.23,0,0,0,2.7,2.9,18.47,18.47,0,0,0,12.4,5.1l.1.8c.2,1.7.4,3.5.5,5.2l.5,6.8c-6.7-.2-13.3-3.1-18.9-8.5a35.1,35.1,0,0,1-7.5-9.7l-.1-.2a58.59,58.59,0,0,1-2.6-5.7,33.45,33.45,0,0,1-1.7-6.4h0a7.77,7.77,0,0,1-.2-1.6v-.2c-.1-.5-.2-1.1-.3-1.6-.1-1.1-.2-2.2-.3-3.2a34.32,34.32,0,0,1,.3-6.4,36,36,0,0,1,3.2-11.8,32.43,32.43,0,0,1,6.6-9.7,26.86,26.86,0,0,1,7.7-5.4C1260.7,265.3,1262,269.4,1263.1,273.6Zm-5-16.1a28.72,28.72,0,0,0-9.3,6.4,39.14,39.14,0,0,0-7.3,10.9,47.34,47.34,0,0,0-3.8,20.2l.3,3.6c.1.6.2,1.2.3,1.7v.1c.1.6.2,1.1.3,1.7a40.08,40.08,0,0,0,1.9,7,49,49,0,0,0,2.8,6.1l.1.2a39.46,39.46,0,0,0,8.3,10.8c6.4,6.2,14.1,9.5,21.9,9.6.2,4.3.4,8.5.4,12.8a38.09,38.09,0,0,1-14.4-3.8,45,45,0,0,1-7.3-4.3,83.16,83.16,0,0,1-6.6-5.6,45,45,0,0,1-5.7-6.6,27.5,27.5,0,0,1-1.9-2.8l-.5-.8c-.8-1.2-1.6-2.5-2.3-3.8s-1.4-2.6-2-4c-.3-.7-.6-1.5-.9-2.3-.2-.6-.5-1.3-.7-1.9a44,44,0,0,1-2.4-8.8c-.1-.7-.2-1.3-.3-2a25.12,25.12,0,0,1-.4-2.7c-.2-1.5-.3-3-.4-4.5s0-3.3,0-4.6.1-2.9.2-4.4a64.91,64.91,0,0,1,1.6-8.7,60.49,60.49,0,0,1,2.7-8.2c.6-1.3,1.2-2.7,1.9-3.9s1.3-2.4,2.1-3.8a56.7,56.7,0,0,1,5-6.8,38.65,38.65,0,0,1,11.8-9C1255.2,249.4,1256.7,253.4,1258.1,257.5Zm-12.4-29.8c1.9,3.9,3.7,7.8,5.3,11.7a37.46,37.46,0,0,1-14.7,2,40.52,40.52,0,0,1-8.4-1.2,27.69,27.69,0,0,1-4.1-1.2c-1.3-.4-2.5-.9-3.9-1.4l-.2-.1a56.77,56.77,0,0,1-7.8-3.9c-1.1-.7-2.3-1.4-3.7-2.4-1.2-.8-2.4-1.7-3.6-2.6a31.09,31.09,0,0,1-3.3-2.9c-.6-.6-1.2-1.2-1.8-1.9-.4-.5-.9-.9-1.3-1.4a43.44,43.44,0,0,1-5.6-7.2h0a48.81,48.81,0,0,1-4.5-7.9,72.11,72.11,0,0,1-3.2-8.4c-.4-1.4-.8-2.8-1.1-4.3-.1-.7-.3-1.4-.4-2.2l-.1-.6-.3-1.5a49.08,49.08,0,0,1-.6-8.6c0-1.4.1-2.9.2-4.4s.3-2.9.5-4.2a54.72,54.72,0,0,1,2.1-8.2,38.63,38.63,0,0,1,7.5-12.8c3,3.1,5.9,6.2,8.8,9.4a27.27,27.27,0,0,0-6.1,9.4,41.9,41.9,0,0,0-1.9,6.3,42.27,42.27,0,0,0,1.1,20,43.05,43.05,0,0,0,6,12.9,35.26,35.26,0,0,0,4.5,5.7,50.28,50.28,0,0,0,4.8,4.5l.3.2a42.83,42.83,0,0,0,11.8,6.8,35.17,35.17,0,0,0,12.9,2.5A30.51,30.51,0,0,0,1245.7,227.7Zm-31-50.3.2.3c2,2.6,4,5.3,5.9,7.9.4.5.7,1,1.1,1.5.2.3.5.7.7,1,1.9,2.8,3.8,5.6,5.6,8.4l2,3.1c1.6,2.6,3.2,5.2,4.8,7.9l1,1.7a15,15,0,0,1-10-.2,27.51,27.51,0,0,1-3-1.4,18.08,18.08,0,0,1-2.9-1.9,21.07,21.07,0,0,1-4.9-5.4h0a21.69,21.69,0,0,1-3.9-13.5A13.1,13.1,0,0,1,1214.7,177.4Zm-4.6-5.7,2,2.6a18.16,18.16,0,0,0-5.1,12.3,25.76,25.76,0,0,0,4.5,15.9,25.33,25.33,0,0,0,5.8,6.4c1.1.8,2.3,1.6,3.5,2.3a19.64,19.64,0,0,0,3.6,1.6,21,21,0,0,0,6.9,1.3,15.73,15.73,0,0,0,6.5-1.3c.9,1.7,1.9,3.4,2.8,5.1l3.2,6.3c-6.3,2.4-13.5,2.2-20.7-.6a34.59,34.59,0,0,1-10.6-6.1l-.2-.2a58.93,58.93,0,0,1-4.5-4.2,40,40,0,0,1-4-5.2h0a39.37,39.37,0,0,1-5.5-11.8,35.38,35.38,0,0,1-1.6-12.1,35.29,35.29,0,0,1,2.3-11.5,23.37,23.37,0,0,1,5.1-7.9l3,3.5C1208,169.1,1209.1,170.4,1210.1,171.7Z" fill="#fedcc4"/><path d="M463.3,805.7c-.7-.4-1.3-.9-2-1.3-19.1-10.9-34.3-10.9-45.1-6.7a32.87,32.87,0,0,0-14.4,10.6c-8,10.8-11,30.7,19.1,49.1,28.4,19.3,47.4,8.7,56-2.4a32,32,0,0,0,5.8-11.5,26.6,26.6,0,0,0,.5-11.3C481.9,823.7,476.3,814.4,463.3,805.7Z" fill="#fedcc4"/><path d="M732.9,966.5c-12.6-11.9-53.8-26-93.8,16.4-15.2,16.1-31.1,48.3-6.1,71.8,31.8,29.9,61.5-9.9,77.4-26.7C749.1,987,743.8,976.7,732.9,966.5Z" fill="#fedcc4"/><path d="M543.9,539.1c7,2.1,47.7,1.3,83.2,12.8,14.3,4.8,21.3,4.5,23.2-9.8,4-31.9-54.7-170.5-68.7-165-27.2,10.7-36.1,115.3-43.2,150.7C537.3,533.6,539.3,537.7,543.9,539.1Z" fill="#fedcc4"/><path d="M312,404.1c0-79.5-28.6-128.1-52.5-154.8-28.1-31.4-58.8-42.7-72.5-42.7-18.8,0-35.2,43.8-35.2,93.6v91.2c0,71.7,14.3,103,26.2,116.6,9.3,10.6,20.3,14.6,40.3,14.6,14.7,0,37.3-5.8,56.4-22.1C299.1,479.7,312,446.3,312,404.1Z" fill="#fedcc4"/><path d="M1325.5,283.7c-20.1-111-84.3-198.5-180.6-246.6C1095.5,12.5,1043.4,0,990.1,0,921.3,0,853.8,21.3,794.8,61.5c-38.4,26.2-75.3,68.8-109.7,126.4-7.2,12.1-13.6,23.6-19.1,34.2-5.5-10.6-11.9-22.1-19.1-34.2C612.6,130.3,575.7,87.7,537.2,61.5,478.2,21.3,410.7,0,341.9,0,288.6,0,236.5,12.5,187.1,37.1,90.9,85.1,26.7,172.7,6.6,283.7-5.2,348.8-1.1,418.8,18.3,486.1c19.6,67.9,54,129.5,99.5,178.3,35.9,38.5,76.4,72.1,115.5,104.5,20.5,17,41.7,34.6,61.7,52.4C338.3,860,381.9,900,424.1,938.7q24.75,22.65,49.5,45.4h0l10.6,11.2c57.4,60.7,111.6,118,158.4,184.1l23.3,32.9.2-.3.2.3,23.3-32.9c46.8-66,101-123.3,158.4-184l10.6-11.2.1-.1,49.5-45.3c42.2-38.7,85.8-78.7,129.1-117.4,20-17.9,41.2-35.4,61.7-52.4,39.1-32.4,79.6-66,115.5-104.5,45.4-48.8,79.8-110.4,99.5-178.3C1333.3,418.8,1337.3,348.8,1325.5,283.7ZM120,622.8c-33.1-41.5-58.5-91-74-144.8-2.8-9.6-5.2-19.3-7.3-29C27,395.1,25.7,340.3,35,288.8c1.9-10.6,4.3-21,7.1-31.1,5.9-21.5,13.3-42.6,23.1-62.6a259.29,259.29,0,0,1,32.6-50.7,263.7,263.7,0,0,1,21.1-22.5c4.1-3.9,8.1-9.1,13.4-11.4,4.6-2,10-1.7,14.7-2.2,5.7-.6,11.4-1.1,17-1.7,14.1-1.4,27.6-3.1,41.4-3.3a153.78,153.78,0,0,1,22.3,1.2,207.47,207.47,0,0,1,61.6,18.8c38.4,18.4,72,47.3,97.4,80.9C435.4,268.7,454,350.4,454,430.1c0,110.3-55.2,202.8-196.2,202.8H141.2A27,27,0,0,1,120,622.8ZM336.6,781.9a77.06,77.06,0,0,0-13.9,25.6c-2.9-2.6-5.7-5.2-8.6-7.7-10.9-9.7-22.1-19.3-33.3-28.8-9.8-8.2-19.6-16.4-29.2-24.4-18-14.9-36.2-30-54.1-45.7-14.4-12.6-28.5-25.6-42.1-39.2H257.6a333.33,333.33,0,0,0,38-2.2,243.81,243.81,0,0,0,63.3-16.1c28.4-11.8,52.5-29.2,71.7-51.8,34.1-40,52.1-95.8,52.1-161.4,0-96.7-24.8-166.9-54.9-216.4a317.74,317.74,0,0,0-44.4-57.3c-26.2-26.7-57.4-48.4-90.3-62.8-29.8-13.1-60.2-20-87.8-20H180.2c6.4-3.8,13.1-7.4,19.9-10.8,45.4-22.6,93.1-34.1,142-34.1,56.2,0,111.7,15.6,161.5,45.3,5.9,3.5,11.8,7.3,17.6,11.2,35,23.9,69,63.3,101.2,117.3,6.3,10.6,12.5,21.6,18.3,32.8l19.5,37.4a338.26,338.26,0,0,0-6.5,66.1,335.59,335.59,0,0,0,98.6,237.9c5.9,5.9,12.1,11.6,18.4,17.1-1.3,8.3-2.3,16.6-3,24.8-2.6,29.2-1.2,59.5,6.4,87.9l1.8,6.3a171.62,171.62,0,0,0,19,41.5c-10.6,4.5-21.1,9.2-31.4,14.2-2.8,1.3-5.5,2.7-8.3,4.1-8.9,4.5-17.8,9.2-26.3,14.4-9.4,5.7-19.3,12.1-26.4,20.5a35.42,35.42,0,0,0-4.8,7.3c-24.5-9.9-49.4-18.5-74.6-26-16.5-4.9-33.2-9.4-50.1-13.3,12.2-17.9,62.5-63.1,72-113.3,3.8-22.3-13.2-37.4-32.3-44.2-37.9-13-98.4-24.7-112.3,27.8-8.3,28.7,5.6,90.7,10.3,117.4-14.9-2.4-29.9-4.4-44.9-5.9a505.49,505.49,0,0,0-53.6-3.2c-22.6,0-47.5,4.1-65.6,18.3A55.52,55.52,0,0,0,336.6,781.9ZM441.5,915.7q-44-40.35-88.1-80.5a41.85,41.85,0,0,1-6.4-11.3c-5.1-13.7-1.7-28.7,9.5-38.3,11.3-9.8,27.4-10.4,42.3-9.8a9.15,9.15,0,0,1,1.6.1c3.1.1,6.1.3,9,.4,4.4.2,8.8.4,13.2.7,23.6,1.5,47.1,3.8,70.5,7.1,5.8.8,11.7,1.8,17.5,2.7,7.4,2,14.5,4.9,20.3,9.6a26.17,26.17,0,0,1,9.7,15.5,106.17,106.17,0,0,1-2.4,19.8c-.7,3.2-1.6,6.4-2.6,9.5-.4,1.1-.7,2.1-1.1,3.2-2.3,4.9-4.9,9.5-7.3,13.6-1.3,2.1-2.6,4.2-4.1,6.4a118,118,0,0,1-9.4,12,18.48,18.48,0,0,1-1.4,1.4,200.33,200.33,0,0,1-15.2,13.9c-11.1,9.3-23.3,17.2-36.8,22.5A92.86,92.86,0,0,1,441.5,915.7Zm96,94.2c-14.4-15.4-29-30.8-43.7-46.4a6,6,0,0,1-.8-.8c-9.2-8.4-18.4-16.8-27.5-25.2a162.92,162.92,0,0,0,43.2-24.6c22.9-18.1,42.8-40.4,51.1-69,4.4-15.1,5.4-31,4.6-46.8a830.61,830.61,0,0,1,119.3,36.8c8.8,3.5,17.5,7.1,26.2,10.9-12.8,4-25.7,7.8-38.2,12.7-20.9,8.2-41.8,19.1-60,32.5-19.2,14.1-37.1,31.7-49.4,52.4-11.7,19.7-19.5,42.2-24.1,64.6C537.9,1008.1,537.7,1009,537.5,1009.9Zm301.7-47.1a6,6,0,0,0-.8.8c-61.3,64.9-121.2,127.1-172.3,199.2a3,3,0,0,1-.3-.4h0c-30.9-43.6-65-83.5-100.7-122.6a79.34,79.34,0,0,1-4.8-21.8c3.8-20.7,10.1-40.7,19.9-58.7a128.06,128.06,0,0,1,7.2-11.8,118.21,118.21,0,0,1,8.2-9.8c4.6-5.1,9.4-10,14.5-14.7,48.9-35.4,110.7-19.1,133.9,2.8,6.2,5.8,7.6,17.3,11.7,21.2,5.9,5.5,14.7-2,18.2-5.8,14.2-15.1,19.9-37,25.8-49.7A413.88,413.88,0,0,1,852.5,929c4.1,3.4,8.1,7,12,10.5C856.2,947.2,847.7,955,839.2,962.8Zm354.1-318.1c-25.6,27.5-53.9,52.6-82.5,76.7-10.1,8.5-20.3,17-30.3,25.3-20.7,17.2-42.1,34.9-62.5,53.1-.7.6-1.3,1.2-2,1.8-62.3,19-123.6-.3-162.9,58.9-2.9,4.3-7.1,22-10.7,34.4q-19.35-14.4-39.8-27.1c-13.7-8.5-27.8-16.5-42.1-24q-20.1-10.5-40.9-19.6c.4-.5,1-1.2,1.2-1.4a53.34,53.34,0,0,1,4.2-4,27.46,27.46,0,0,0,2.6-2.2l1.3-1c4.6-3.3,9.3-6.4,14.2-9.3,19.4-11.5,40-21,60.7-29.9.4-.2,2.3-1,2.7-1.1s.9-.4,1.1-.5c1.5-.6,3.1-1.3,4.6-1.9,1.3-.5,2.7-1.1,4-1.6,8.9-3.5,11.2-12.6,5.3-20.1-19.1-24.3-28.1-56.8-30.4-86.3a270.24,270.24,0,0,1,.1-42.2c.2-3,.5-6.1.8-9.1.1-.9.2-1.7.3-2.6,2.9,2.1,5.9,4.2,8.9,6.3a333.79,333.79,0,0,0,57.9,31.5c7.4,3.1,15,6,22.6,8.6-11.1,38.2,2.7,83.7,13.3,90.8,12.3,8.2,90.1-4.2,112.3-37.7,6-9,10.6-23.1,11.5-25.6,1.6-4.4,3.1-8.1,4.6-11.2a332.53,332.53,0,0,0,88.9-21.3c2.9-1.1,5.8-2.3,8.7-3.5a338.33,338.33,0,0,0,147.4-121C1249.7,571.7,1224.2,611.4,1193.3,644.7ZM988,659.5c-169.9,0-307.6-137.7-307.6-307.6S818.1,44.3,988,44.3,1295.6,182,1295.6,351.9,1157.9,659.5,988,659.5Z" fill="#fedcc4"/></svg>