<svg id="Layer_1" data-name="Layer 1" xmlns="http://www.w3.org/2000/svg" viewBox="0 0 1332.2 1212.3"><title>3</title><path d="M731.6,972.2c-12.6-11.9-53.8-26-93.8,16.4-15.2,16.1-31.1,48.3-6.1,71.8,31.8,29.9,61.5-9.9,77.4-26.7C747.8,992.8,742.5,982.5,731.6,972.2Z" fill="#e0b3ce"/><path d="M882.7,688.7c-.7.9-.4.5,0,0S883.4,687.8,882.7,688.7Z" fill="#e0b3ce"/><path d="M477,855a32,32,0,0,0,5.8-11.5,26.6,26.6,0,0,0,.5-11.3c-1.4-8.5-7-17.7-19.9-26.4-.7-.4-1.3-.9-2-1.3-19.1-10.9-34.3-10.9-45.1-6.7a32.87,32.87,0,0,0-14.4,10.6c-8,10.8-11,30.7,19.1,49.1C449.4,876.7,468.4,866.2,477,855Z" fill="#e0b3ce"/><path d="M1325.6,283.7c-20.1-111-84.3-198.5-180.6-246.6C1095.6,12.5,1043.5,0,990.2,0,921.4,0,853.9,21.3,794.9,61.5c-38.4,26.2-75.3,68.8-109.7,126.4-7.2,12.1-13.6,23.6-19.1,34.2-5.5-10.6-11.9-22.1-19.1-34.2C612.7,130.3,575.8,87.7,537.3,61.5,478.3,21.3,410.8,0,342,0,288.7,0,236.6,12.5,187.2,37.1,90.9,85.2,26.7,172.8,6.6,283.7-5.2,348.8-1.1,418.8,18.3,486.1c19.6,67.9,54,129.5,99.5,178.3,35.9,38.5,76.4,72.1,115.5,104.5,20.5,17,41.7,34.6,61.7,52.4C338.3,860,381.9,900,424.1,938.7q24.75,22.65,49.5,45.4h0l10.6,11.2c57.4,60.7,111.6,118,158.4,184.1l23.3,32.9.2-.3.2.3,23.3-32.9c46.8-66,101-123.3,158.4-184l10.6-11.2.1-.1,49.5-45.3c42.2-38.7,85.8-78.7,129.1-117.4,20-17.9,41.2-35.4,61.7-52.4,39.1-32.4,79.6-66,115.5-104.5,45.4-48.8,79.8-110.4,99.5-178.3C1333.3,418.9,1337.4,348.9,1325.6,283.7ZM659.3,271.3l.8,1.5a338.26,338.26,0,0,0-6.5,66.1,333.33,333.33,0,0,0,8.5,75.4,324.83,324.83,0,0,0,18,55.6A340,340,0,0,0,701,511.2c-12.1,17.6-23.1,36.1-33.6,54.7-.6.5-1,.7-1.3.6-5.1-2.1-19.3-49.9-48.7-62-20.7-8.6-48.6-3.4-62.4,30.1-3,7.3-7,20.4,1.4,23.8,9.6,4,37.9-4,63,6.9,24.3,10.6,34.4,15.7,38,18.9a746.31,746.31,0,0,0-33.9,71.1c-9.1-6.8-50.2-41.8-60.9-46.2-15.3-6.3-42.9-2.6-57.1,31.9-11.5,27.9-7.3,53.3,18,63.7s68.5-6.3,85.4-9.8c-1.8,5.5-3.5,11-5.1,16.6-6.3,21.8-11,44.4-12.5,67.1a861,861,0,0,0-127.5-23.2c-14.1-1.5-28.2-2.6-42.4-3,.2-1.1.3-2.1.5-3.2q1.2-7.05,2.7-14.1c2.2-10.2,4.7-20.4,7.6-30.4,6-21.4,13.3-42.4,21.4-63.1,8.7-22.4,17.2-42,27.6-64.4,10.3-22.1,21.2-43.9,32.5-65.5,21.6-41.2,44.6-81.5,68.7-121.3,3.6-5.9,7.2-11.7,10.8-17.6q22.8-37.05,46.9-73.4C646.2,290,652.9,280.7,659.3,271.3Zm46.5,415c6.6,2.7,68.9-21.9,100.7-58,1.4-1.6,2.7-3.2,4-4.7A339.56,339.56,0,0,0,859.1,649c6.3,2.6,12.6,5.1,18.9,7.3.5.2,1.1.4,1.6.6a50.81,50.81,0,0,1-9.2,8.6c-31.9,24.4-98.3,34.7-100,38.8-1.1,2.6,2.2,8.1,3.1,10.4,6.6,16.8,12.3,34.1,15.1,51.9,2.9,18.1,1.2,35.8-2.2,53.7-1.1,5.9-2.8,11.6-2.8,17.6,0,3.2-.1,6.4.1,9.7.1,1.3,0,8.3,1,8.9l-10.5-6q-25.2-13.95-51.4-25.8a20.48,20.48,0,0,1,2-5.8c22-57.5,6.6-95.2,1.5-97.3-7.2-3-40.7,4.9-46.6,19.1-4.1,10-12.3,58.8-13.2,60.8-.1.1-.1.2-.2.4q-22.5-8.1-45.5-14.9l-6.2-1.8c.8-20,4.3-38.4,9.7-58.7a521,521,0,0,1,25.5-72.2A855.55,855.55,0,0,1,709,542.8c2-3.2,4-6.4,6-9.5A340.05,340.05,0,0,0,751.9,577c5.1,5.1,10.3,10,15.7,14.7-12.9,12.3-48.5,47.6-60.6,76.9C706.1,671.2,699.8,683.8,705.8,686.3ZM169,656.1c-7.1,4.9-12.4,6.2-15.7,3.5-1.2-1.2-2.5-2.5-3.7-3.8-33.3-40.3,12-187.6,2.1-197.3-9.8-9.4-79.7,73.1-98.4,42q-3.9-11.1-7.2-22.5C27.9,415,24,349.6,35.1,288.8,51.6,197.5,100.6,123.5,174,77.5a960.32,960.32,0,0,0-33.4,97.7c-42,131.9-42.9,203.1-35.8,209.4,9.7,8.7,59.5-43.2,100.1-185,15.3-59.3,24.9-117.5,30.2-151.9a311.62,311.62,0,0,1,79.6-17.8c-10.5,29.3-50.2,125.9-67.1,195C209.5,367,200,476.6,209.3,486.5c11.9,12.8,63.7-73.3,92.4-189.3,18.1-78.8,26.1-170.6,28.3-181,1.5-7.1,6.4-50.4,11-87.5h1A311.08,311.08,0,0,1,478.6,60.6c-3.6,9.7-7.2,19.3-10.8,29q-26.55,70.5-55.6,139.9c-.7,1.7-1.5,3.5-2.2,5.2a9.74,9.74,0,0,1-.5,1.1c-.3.7-.6,1.5-.9,2.2-1.5,3.5-3,7-4.5,10.6-3.1,7.2-6.1,14.3-9.3,21.5q-9.6,22-19.5,44c-13.7,30.3-27.9,60.5-42.7,90.3-28.4,57.1-58.8,113.5-94.5,166.5-7.9,11.7-16,23.2-24.5,34.5-.8,1-1.5,2-2.3,3,.5-.7-2.1,2.6-2.5,3.2-2,2.6-4.1,5.1-6.2,7.7-4,4.9-8.1,9.7-12.3,14.5A298.69,298.69,0,0,1,169,656.1ZM334.7,780a77,77,0,0,0-13.9,25.8c-2.2-2-4.4-3.9-6.6-5.9-20.4-18.2-41.8-36-62.5-53.1-25.2-20.9-50.9-42.2-75.4-64.9,6.3-5.5,12.4-11.3,18.2-17.2,18.8-19.2,35.5-40.5,51.1-62.3,36.6-51.2,67.5-106.5,96.1-162.5,30-58.6,57.4-118.5,83.2-179.1q32-74.7,60.9-150.8c4.8-12.6,9.5-25.3,14.2-38,7.2,4.2,14.2,8.6,21.1,13.3,35,23.9,69,63.3,101.2,117.3,6.3,10.6,12.5,21.6,18.3,32.8l6,11.5c-7.6,10.7-14.9,21.7-22.2,32.6q-22.5,33.75-44.1,68.3c-3.5-18.1-8.2-60.7-32.5-69.6-21.7-7.9-61.8,11.7-100.4,77.1-8.2,14.3-20.8,39.3-12.4,42.5,9.6,3.7,47.8-12.2,74.8-10.6,17.3,1,29.9,13.2,32,24q-21.6,36.9-41.9,74.7c-10.9,20.5-21.5,41.1-31.6,62-7.4-7.7-44.4-56.8-54.9-61-14.8-5.8-49.6,10.9-83.4,78.3-25.9,54.5-32.5,98.8-9.8,108.5s85.9-23.1,106.9-30.5c-12.5,32.9-23,66.8-28.8,101.5l-1.2,7.8C373.8,754.5,350,761.6,334.7,780ZM441.1,914.1c-8.6-4-14.9-12.6-21.9-18.8-6.8-5.9-13.3-12.1-19.9-18.2l-27.6-25.2c-8.1-7.4-17.2-13.6-22.4-23.5-4.9-9.5-5.1-20.5,1-29.5.3-.5.7-1,1-1.5,5.8-8.9,17.9-14.7,27.9-17.6,14.1-4,28.7-3.7,43.2-2.8,23.6,1.5,47.1,3.8,70.5,7.1,13.4,1.9,26.9,3.5,37.8,12.3,18.5,14.8,6.1,45.2-3.8,61.6-1.3,2.1-2.6,4.2-4.1,6.4a118,118,0,0,1-9.4,12,18.48,18.48,0,0,1-1.4,1.4,200.33,200.33,0,0,1-15.2,13.9,150.87,150.87,0,0,1-26.4,17.8,74.61,74.61,0,0,1-10.4,4.6C453.8,916.2,447.3,916.9,441.1,914.1Zm96.4,95.9c-9.9-10.5-19.8-21.1-29.9-31.8-4.6-4.9-9.2-9.7-13.8-14.6a6,6,0,0,1-.8-.8c-9.2-8.4-18.4-16.8-27.5-25.2A162.92,162.92,0,0,0,508.7,913c22.9-18.1,42.8-40.4,51.1-69,4.4-15.1,5.4-31,4.6-46.8,9.6,2.2,19.1,4.6,28.7,7.1,4.7,1.2,9.3,2.5,14,3.8,25.9,7.4,51.5,16,76.6,25.9,8.8,3.5,17.5,7.1,26.2,10.9-12.8,4-25.7,7.8-38.2,12.7-20.9,8.2-41.8,19.1-60,32.5-19.2,14.1-37.1,31.7-49.4,52.4-11.7,19.7-19.5,42.2-24.1,64.6C537.9,1008.1,537.7,1009.1,537.5,1010Zm303.8-49.1c-.7.6-1.4,1.3-2.1,1.9l-.1.1a5.72,5.72,0,0,0-.8.7c-.8.9-1.7,1.7-2.5,2.6l-8.5,9c-3.4,3.6-6.8,7.2-10.2,10.7a15.93,15.93,0,0,1-1.3,1.3c-3,3.2-6,6.4-9,9.5-.8.8-1.5,1.6-2.3,2.4-2.7,2.9-5.4,5.7-8.1,8.6-1.1,1.1-2.1,2.3-3.2,3.4-2.4,2.6-4.8,5.1-7.2,7.7l-4.1,4.4c-2.1,2.3-4.3,4.6-6.4,6.9-1.6,1.7-3.2,3.5-4.8,5.2l-3,3.3c-2.7,3-5.4,5.9-8.1,8.9-.6.7-1.2,1.3-1.8,2-3.1,3.4-6.1,6.8-9.1,10.2-.4.5-.9,1-1.3,1.5-3.1,3.5-6.2,7-9.3,10.6-.5.5-.9,1-1.4,1.6-3,3.4-5.9,6.9-8.9,10.3l-1.8,2.1c-2.6,3.1-5.2,6.1-7.8,9.2-.9,1.1-1.9,2.2-2.8,3.4-1.5,1.8-3,3.7-4.6,5.5-2,2.4-3.9,4.8-5.9,7.2l-3.7,4.6c-2.2,2.7-4.3,5.5-6.5,8.2-.9,1.2-1.9,2.4-2.8,3.6l-7.2,9.3-1.8,2.4-7.8,10.5-.9,1.2c-2.8,3.9-5.7,7.8-8.5,11.7a3,3,0,0,1-.3-.4c-2.5-3.5-5.1-7.1-7.6-10.6-.8-1.1-1.6-2.2-2.5-3.3-2.3-3.1-4.6-6.2-6.9-9.2-1-1.4-2.1-2.8-3.2-4.2-1.7-2.3-3.5-4.5-5.2-6.8-1.3-1.7-2.6-3.3-3.9-5s-2.8-3.5-4.1-5.2l-7.5-9.3c-.8-.9-1.5-1.9-2.3-2.8-5.9-7.2-11.9-14.4-18-21.5l-.3-.3c-6.5-7.6-13.4-15-19.8-22.7-5.6-6.8-12.2-12.7-17-20.3-10.1-16.1-6.2-32.1-.9-49.2a176.34,176.34,0,0,1,13.6-32.7,128.06,128.06,0,0,1,7.2-11.8,118.21,118.21,0,0,1,8.2-9.8c8.4-9.4,17.2-17.4,28.4-23.3a110.27,110.27,0,0,1,35.5-11c28.2-3.7,63,2.3,84.4,22.4,6.2,5.8,7.6,17.3,11.7,21.2,5.9,5.5,14.7-2,18.2-5.8,13.6-14.4,19.4-35.1,25-48a514.59,514.59,0,0,1,63.4,48.3C855.4,948,848.4,954.5,841.3,960.9Zm352-316.2c-34.6,37.2-74.4,70.1-112.8,102-2,1.7-4.1,3.4-6.1,5.1-18.8,15.6-38,31.6-56.4,48.1-3.6,3.2-7.2,6.4-10.8,9.7.7-16.2,4.7-50.3-17.2-72.5-10.6-10.8-32.3-21.3-46.6-9.7-16.9,14.8,1.1,36.3,9.3,48.5,13.1,19.6,15.1,45.8,5.7,67.2-5.9,13.3-15.4,24.2-25.3,34.7-11.3,12-24.3,23.6-40.1,29-16.6,5.7-31.8,1.3-45.5-8.7C827,883.3,809,851.7,810.6,820a71.29,71.29,0,0,1,8-29.7,56.57,56.57,0,0,1,4.4-5.9c13.1-15.2,31-17.6,33.3-16.1,4.4,2.8-32.3,48.5,14.4,80.3,14.4,10.4,32,11.4,43.8-2.8,14.7-16.3,3.2-35.3-5.4-47.7-32.3-39.8-47.4-69.5-37-95.1,6.1-15,19-24.6,34.5-28.6,16.9-4.3,33.6-1.9,50.6-.4a366,366,0,0,0,53.4.9,337,337,0,0,0,257.9-146.8C1249.7,571.8,1224.3,611.5,1193.3,644.7ZM988,659.6c-169.9,0-307.6-137.7-307.6-307.6S818.1,44.3,988,44.3,1295.6,182,1295.6,351.9,1157.9,659.6,988,659.6Z" fill="#e0b3ce"/><path d="M1204.3,158.7h0c-3.3-3.7-6.8-7.4-10.3-11l-.4-.4h0l-.5-.5-.5-.5h0l-.4-.4c-3.6-3.5-7.2-7-11-10.3h0l-.2-.2-6.3-5.4-2.4-2-3.1-2.5c-1.4-1.1-2.8-2.2-4.3-3.3l-.2-.1-1.3-1c-.8-.6-1.5-1.2-2.4-1.8-.6-.4-1.1-.8-1.6-1.2s-1-.7-1.5-1.1-1-.7-1.5-1.1c-.8-.6-1.6-1.1-2.3-1.7s-1.3-.9-2-1.4c-.9-.7-1.9-1.3-2.9-2l-.1-.1-.2-.1-3.3-2.1-.9-.6c-.7-.4-1.4-.9-2.1-1.3l-.9-.6-1.6-1a40.5,40.5,0,0,0-3.5-2.1c-1-.6-2.1-1.2-3.1-1.8-1.3-.7-2.5-1.5-3.8-2.2l-.8-.4h0l-2.6-1.5-1.9-1c-2.8-1.5-5.6-2.9-8.4-4.3l-2.2-1.1h0c-4.5-2.2-9.1-4.3-13.7-6.2l-1.8-.8h0l-.5-.2c-5.2-2.1-10.4-4.1-15.7-5.9l-.2-.1c-5.7-2-11.7-3.9-18.4-5.6l-3.2-.9-6.1-1.4c-.6-.1-1.2-.3-1.8-.4l-1.4-.3-2.2-.5c-1.4-.3-2.8-.7-4.3-.9h0c-1.3-.2-2.5-.4-3.8-.7-.3,0-.5-.1-.8-.1l-3.4-.6c-.2,0-.3-.1-.5-.1l-2.1-.4c-1.3-.3-2.7-.4-4-.6a25.12,25.12,0,0,1-2.7-.4c-2.2-.3-4.4-.6-6.6-.8l-.9-.1c-1.3-.2-2.7-.3-4-.4h-.4c-3.6-.3-7.2-.6-10.8-.8h-.4c-5-.3-10-.4-15-.4h-2.6c-5,0-10,.2-15,.4h-.4c-3.6.2-7.2.5-10.8.8h-.4c-1.4.1-2.7.3-4,.4l-.9.1c-2.2.3-4.4.5-6.7.8l-2.6.3c-1.3.2-2.6.3-4,.6l-2.1.4c-.2,0-.3.1-.5.1l-3.4.6c-.3,0-.5.1-.8.1l-1.6.3-2.1.4h-.1c-1.4.2-2.8.6-4.2.9l-2.2.5-1.3.3c-1,.2-2,.5-3,.7l-5.1,1.2-3.1.9c-6.6,1.8-12.7,3.6-18.4,5.6l-.2.1c-5.3,1.8-10.6,3.8-15.7,5.9l-.5.2h0l-1.8.8c-4.6,1.9-9.2,4-13.7,6.2h0l-2.3,1.2c-2.4,1.2-4.9,2.5-7.3,3.7l-.8.4L849.3,97l-2.5,1.5h0l-.8.4c-1.3.7-2.5,1.5-3.8,2.2-1,.6-2,1.1-3,1.7-1.2.7-2.4,1.4-3.5,2.1l-1.6,1-.9.6c-.7.5-1.4.9-2.1,1.4l-.9.6c-1,.7-2.1,1.3-3.1,2l-.4.2a.22.22,0,0,0-.2.2c-.9.6-1.8,1.2-2.7,1.9-.1,0-.1.1-.2.1-.6.4-1.2.9-1.8,1.3-.8.5-1.5,1.1-2.3,1.6a4.23,4.23,0,0,1-.7.5l-1.2.9a8.34,8.34,0,0,1-1.2.8c-1,.7-2,1.4-2.9,2.1l-1.1.8h-.1l-1.3,1,.1.3c-1.5,1.2-3,2.3-4.5,3.5l-3,2.4-2.4,2c-2.1,1.8-4.2,3.5-6.2,5.4l-.2.2h0c-3.7,3.3-7.4,6.8-11,10.3l-.4.4h0l-.6.6-.5.5h0l-.4.4c-3.5,3.6-7,7.2-10.3,11h0l-.2.2c-1.9,2.1-3.7,4.2-5.5,6.3l-2,2.3-2.4,3.1-3.5,4.4-.1.1c-.3.4-.7.9-1,1.3-.6.7-1.1,1.5-1.7,2.2-.4.6-.9,1.2-1.3,1.8s-.7,1-1.1,1.5-.7,1-1.1,1.5c-.6.8-1.1,1.6-1.7,2.4a24.26,24.26,0,0,0-1.4,2c-.7,1-1.4,2-2,3-.7,1.2-1.5,2.3-2.2,3.5l-.6.9c-.5.7-.9,1.4-1.4,2.2a8.79,8.79,0,0,0-.6,1l-1,1.5a40.5,40.5,0,0,0-2.1,3.5c-.6,1-1.2,2-1.8,3.1-.7,1.3-1.5,2.5-2.2,3.8l-.4.7h0l-1.5,2.6-1,1.9c-1.5,2.8-2.9,5.6-4.3,8.5l-1.1,2.1h0c-2.2,4.5-4.3,9.1-6.2,13.7l-.8,1.8h0l-.2.5c-2.1,5.2-4.1,10.5-5.9,15.8l-.1.2c-2,5.7-3.9,11.7-5.6,18.4l-.9,3.2-1.3,5.6a18.92,18.92,0,0,0-.5,2.3c-.1.5-.2.9-.3,1.4l-.5,2.3c-.3,1.4-.7,2.8-.9,4.2h0c-.2,1.3-.4,2.5-.7,3.8,0,.3-.1.5-.1.8l-.6,3.3c0,.2-.1.4-.1.6l-.4,2c-.3,1.3-.4,2.7-.6,4l-.3,2.7c-.3,2.2-.6,4.4-.8,6.6l-.1.9c-.2,1.3-.3,2.7-.4,4v.4c-.3,3.6-.6,7.2-.8,10.8v.4h0c-.3,5-.4,10-.4,15v.5h0v1.6h0v.5c0,5,.2,10,.4,15h0v.4c.2,3.6.5,7.2.8,10.8v.4c.1,1.4.3,2.7.4,4l.1.9c.3,2.2.5,4.4.8,6.7.1.9.2,1.7.3,2.6.2,1.3.3,2.7.6,4l.4,2.1c0,.2.1.4.1.6l.6,3.3c.1.3.1.6.2.9.2,1.2.4,2.4.7,3.7h0v.1h0a27.13,27.13,0,0,0,.9,4.1l.5,2.3c.1.4.2.9.3,1.3.2,1,.5,2,.7,3l1.2,5.1.9,3.1c1.8,6.6,3.6,12.7,5.6,18.4l.1.2c1.8,5.3,3.8,10.6,5.9,15.8l.2.5h0l.8,1.8c1.9,4.6,4,9.2,6.2,13.7h0l1.1,2.1c1.4,2.9,2.9,5.8,4.4,8.7l.9,1.8,1.5,2.5h0l.4.8c.7,1.3,1.5,2.5,2.2,3.8.6,1,1.2,2,1.8,3.1a38.7,38.7,0,0,0,2.1,3.4l1,1.6.6.9c.4.7.9,1.4,1.4,2.1l.6.9c.7,1,1.3,2.1,2,3.1l.2.4c.1.1.1.2.2.2.6.9,1.2,1.8,1.9,2.7a24.26,24.26,0,0,1,1.4,2c.6.8,1.1,1.6,1.7,2.4a2.18,2.18,0,0,0,.4.5l.3.4c.1.2.3.4.4.6.4.5.7,1,1.1,1.5.7,1,1.4,1.9,2.1,2.9l.8,1.1.1.1c.3.4.7.9,1,1.3l.1.1c1.2,1.5,2.3,3,3.5,4.5l2.4,3,2.1,2.4c1.7,2.1,3.5,4.1,5.3,6.1l.3.3h0c3.3,3.7,6.8,7.4,10.3,11l.4.4h0l.5.5.5.5h0l.4.4c3.6,3.5,7.2,7,11,10.3h0l.3.3c2,1.8,4.1,3.6,6.2,5.4l2.4,2,3,2.4,4.4,3.5.1.1,1.3,1c.7.6,1.5,1.2,2.3,1.8.6.4,1.2.8,1.7,1.2s1,.7,1.5,1.1,1,.7,1.5,1c.8.6,1.6,1.1,2.4,1.7l2,1.4c1,.7,2,1.4,3,2,1.2.7,2.3,1.5,3.5,2.2l.9.6c.7.5,1.4.9,2.1,1.4l.9.6,1.6,1a40.5,40.5,0,0,0,3.5,2.1c1,.6,2.1,1.2,3.1,1.8,1.3.7,2.5,1.5,3.8,2.2l.8.4h0l2.6,1.5,1.9,1c2.8,1.5,5.7,3,8.5,4.4l2.1,1.1h0c4.5,2.2,9.1,4.3,13.7,6.2l1.8.8h0l.5.2c5.2,2.1,10.5,4.1,15.8,5.9l.2.1c5.7,2,11.8,3.9,18.4,5.6l3.2.9,5.7,1.3c.7.2,1.5.3,2.2.5l1.4.3,2.3.5c1.4.3,2.8.7,4.2.9h0c1.3.2,2.5.4,3.8.7.3,0,.5.1.8.1,1.1.2,2.2.4,3.4.6.2,0,.4.1.6.1l2,.4c1.3.3,2.7.4,4,.6l2.6.3c2.2.3,4.4.6,6.7.8l.9.1c1.3.2,2.7.3,4,.4h.4c3.6.3,7.3.6,10.9.8h.3c5,.3,10,.4,15,.4h2.6c5,0,10-.2,15-.4h.3c3.6-.2,7.3-.5,10.9-.8h.4c1.4-.1,2.7-.3,4-.4l.9-.1c2.2-.3,4.5-.5,6.7-.8l2.5-.3c1.3-.2,2.7-.3,4-.6l2.1-.4c.2,0,.4-.1.6-.1l3.4-.6c.3,0,.5-.1.8-.1,1.2-.2,2.4-.4,3.7-.7h.2a27.13,27.13,0,0,0,4.1-.9l2.3-.5,1.3-.3c1-.2,2-.5,3-.7l5.1-1.2,3.1-.9c6.6-1.8,12.7-3.6,18.4-5.6l.2-.1c5.3-1.8,10.6-3.8,15.8-5.9l.5-.2h0l1.8-.8c4.6-1.9,9.2-4,13.7-6.2h0l2.2-1.2c2.5-1.2,4.9-2.5,7.4-3.8l.7-.4,2.2-1.1,2.5-1.5h0l.8-.4c1.3-.7,2.5-1.4,3.8-2.2,1-.6,2.1-1.2,3.1-1.8,1.2-.7,2.3-1.4,3.5-2.1l1.6-1,.9-.6c.7-.4,1.4-.9,2.1-1.3l.9-.6c1.2-.7,2.3-1.5,3.5-2.2h0c1-.7,2-1.3,2.9-2a24.26,24.26,0,0,1,2-1.4,19.52,19.52,0,0,0,2.3-1.7c.5-.4,1-.7,1.5-1.1s1-.7,1.5-1.1c1-.7,1.9-1.4,2.9-2.1l1.1-.9h0l1.3-1,.1-.1,4.5-3.6,3-2.4,2.4-2,6.3-5.4.2-.2h0c3.7-3.3,7.4-6.8,11-10.3l.4-.4h0l.5-.5.6-.6h0l.4-.4c3.5-3.6,7-7.2,10.3-11h0l.2-.2c1.8-2.1,3.6-4.1,5.4-6.3l2-2.4,2.5-3.1,3.4-4.3.1-.1c.3-.4.7-.9,1-1.3.6-.8,1.2-1.5,1.8-2.3.4-.6.8-1.1,1.2-1.7s.7-1,1.1-1.5c.1-.1.2-.3.3-.4l.4-.5c.1-.2.3-.4.4-.6.6-.8,1.1-1.5,1.7-2.3,1.1-1.6,2.3-3.2,3.4-4.9l.1-.1.1-.2,2.1-3.3.6-.9c.4-.7.9-1.4,1.3-2.1l.6-.9,1-1.6a40.5,40.5,0,0,0,2.1-3.5c.6-1,1.2-2,1.8-3.1.7-1.3,1.5-2.5,2.2-3.8l.4-.8h0l1.5-2.6,1-1.9c1.5-2.8,2.9-5.6,4.3-8.4l1.1-2.1h0c2.2-4.5,4.3-9.1,6.2-13.7l.8-1.8h0l.2-.5c2.1-5.2,4.1-10.4,5.9-15.7l.1-.2c2-5.7,3.9-11.8,5.6-18.4l.9-3.2,1.4-6c.1-.6.3-1.3.4-1.9s.2-.9.3-1.4l.5-2.3c.3-1.4.7-2.8.9-4.3h0c.2-1.3.4-2.5.7-3.8,0-.3.1-.5.1-.8.2-1.1.4-2.3.6-3.4,0-.2.1-.3.1-.5l.4-2.1c.3-1.3.4-2.7.6-4a25.12,25.12,0,0,1,.4-2.7c.3-2.2.6-4.4.8-6.6l.1-.9c.2-1.3.3-2.7.4-4v-.4c.3-3.6.6-7.2.8-10.8v-.4h0c.3-5,.4-10,.4-15V353h0v-1.6h0v-.5c0-5-.2-10-.4-15h0v-.4c-.2-3.6-.5-7.2-.8-10.8v-.4c-.1-1.4-.3-2.7-.4-4l-.1-.9c-.3-2.2-.5-4.4-.8-6.6-.1-.9-.2-1.7-.3-2.6-.2-1.3-.3-2.6-.6-4l-.4-2.2a.6.6,0,0,0-.1-.4c-.2-1.2-.4-2.4-.6-3.5,0-.2-.1-.5-.1-.7-.1-.5-.2-1.1-.3-1.6l-.4-2.1v-.1h0c-.2-1.4-.6-2.8-.9-4.2l-.5-2.2c-.1-.5-.2-.9-.3-1.4-.2-1-.4-1.9-.7-2.9l-1.2-5.2-.9-3.1c-1.8-6.6-3.6-12.7-5.6-18.4l-.1-.2c-1.8-5.3-3.8-10.6-5.9-15.7l-.2-.5h0l-.8-1.8c-1.9-4.6-4-9.2-6.2-13.7h0l-1.2-2.3c-1.2-2.4-2.4-4.8-3.7-7.2l-.4-.8-1.1-2.2-1.5-2.5h0l-.4-.8c-.7-1.3-1.5-2.6-2.2-3.8-.6-1-1.1-2-1.7-3-.7-1.2-1.4-2.4-2.1-3.5l-1.1-1.7a4.05,4.05,0,0,1-.5-.9c-.4-.7-.9-1.4-1.4-2.1l-.6-.9c-.7-1.2-1.5-2.3-2.2-3.5h0c-.7-1-1.3-2-2-2.9-.5-.7-.9-1.3-1.4-2a19.52,19.52,0,0,0-1.7-2.3c-.4-.5-.7-1-1.1-1.5s-.7-1-1.1-1.5c-.7-1-1.4-1.9-2.1-2.9l-.8-1-.1-.1c-.3-.4-.7-.9-1-1.3l-.1-.1c-1.1-1.5-2.3-3-3.5-4.4l-2.4-3-2-2.4c-1.8-2.1-3.5-4.2-5.3-6.2ZM1130.7,104l1.7,1c2.6,1.5,5.3,3.1,7.9,4.8l3.1,2q4.2,2.7,8.4,5.7l1,.7c.5.4,1,.7,1.5,1.1,2.7,1.9,5.3,3.9,7.9,5.8l.3.2a14.68,14.68,0,0,1-9.4,3.6,21.59,21.59,0,0,1-13.4-3.9h0a21.07,21.07,0,0,1-5.4-4.9,18.08,18.08,0,0,1-1.9-2.9,29.17,29.17,0,0,1-1.4-3.1A14.7,14.7,0,0,1,1130.7,104Zm-14.9-8,6.2,3.2c1.7.9,3.5,1.9,5.2,2.8a18.22,18.22,0,0,0,0,13.4,30.06,30.06,0,0,0,1.7,3.6,26.37,26.37,0,0,0,2.3,3.5,25.33,25.33,0,0,0,6.4,5.8,25.86,25.86,0,0,0,14.4,4.6h1.5a18.16,18.16,0,0,0,12.3-5.1l2.2,1.8c1.4,1.1,2.7,2.2,4.1,3.4l3.6,3.1a26.18,26.18,0,0,1-13.4,6.7,43.19,43.19,0,0,1-5.9.6,41,41,0,0,1-23.9-7.1h0a34.18,34.18,0,0,1-5.2-4,58.93,58.93,0,0,1-4.2-4.5l-.2-.2a36.34,36.34,0,0,1-6.1-10.7C1113.6,109.5,1113.4,102.3,1115.8,96Zm-15.2-7.1c3.9,1.7,7.8,3.5,11.7,5.3-2.9,7.3-2.8,15.7.4,23.9a38.33,38.33,0,0,0,6.8,11.8l.2.2a50.28,50.28,0,0,0,4.5,4.8,48.17,48.17,0,0,0,18.7,10.5,40.58,40.58,0,0,0,12,1.8h1.5a49.73,49.73,0,0,0,6.5-.7,32.83,32.83,0,0,0,6.3-1.9,30.51,30.51,0,0,0,9.4-6.1c3.2,2.9,6.3,5.8,9.4,8.8a39.67,39.67,0,0,1-12.8,7.5,54.72,54.72,0,0,1-8.2,2.1c-1.4.2-2.8.4-4.3.5s-2.9.2-4.3.2a63.6,63.6,0,0,1-8.7-.6l-1.5-.3-.7-.1c-.7-.1-1.5-.3-2.2-.4-1.4-.3-2.9-.7-4.3-1.1a72.11,72.11,0,0,1-8.4-3.2,71.06,71.06,0,0,1-8-4.5h0a38.94,38.94,0,0,1-7.1-5.6,16.61,16.61,0,0,0-1.4-1.3,17,17,0,0,1-1.9-1.9c-1-1.1-2-2.2-2.9-3.3a33.2,33.2,0,0,1-2.6-3.6c-1-1.4-1.7-2.5-2.4-3.6a46.82,46.82,0,0,1-3.8-7.8l-.1-.2c-.5-1.3-1-2.6-1.4-3.9s-.8-2.7-1.2-4.1a40.52,40.52,0,0,1-1.2-8.4A37.71,37.71,0,0,1,1100.6,88.9Zm-72.7-20.2c2.6.4,5.2.8,7.9,1.2l4.6.8,9.2,1.8c.6.1,1.1.3,1.7.4l.4.1c1.5.3,3,.7,4.4,1l1.2.3c1.7.4,3.5.9,5.2,1.3a15,15,0,0,1-7.3,6.9,20.36,20.36,0,0,1-6.5,1.9,21.66,21.66,0,0,1-3.6.1c-1.3-.1-2.7-.3-3.8-.5a22,22,0,0,1-6.9-2.5,18.72,18.72,0,0,1-2.9-2,26.14,26.14,0,0,1-2.5-2.3,14.85,14.85,0,0,1-4.1-9.2Zm-13-1.5c1.7.2,3.5.3,5.2.5l.8.1a18.66,18.66,0,0,0,5.1,12.4,35.76,35.76,0,0,0,2.9,2.7,23.66,23.66,0,0,0,11.5,5.3h0c1.3.2,2.7.4,4.3.5h1.4a28.25,28.25,0,0,0,2.9-.2,22.76,22.76,0,0,0,7.8-2.3,18.33,18.33,0,0,0,9.4-9.4c4.1,1.2,8.2,2.4,12.3,3.8a23.45,23.45,0,0,1-5.4,7.7,32.25,32.25,0,0,1-9.7,6.5,39.25,39.25,0,0,1-11.9,3.2,34.32,34.32,0,0,1-6.4.3,31.63,31.63,0,0,1-3.2-.3c-.5-.1-1.1-.2-1.7-.3h-.1a7.77,7.77,0,0,0-1.6-.2h0a46.37,46.37,0,0,1-6.4-1.7,49.42,49.42,0,0,1-5.7-2.6l-.2-.1a37.08,37.08,0,0,1-9.8-7.5c-5.4-5.5-8.3-12.1-8.5-18.8Zm-10.8-.9c.1,7.9,3.4,15.6,9.6,21.9a39.46,39.46,0,0,0,10.8,8.3l.2.1a56.67,56.67,0,0,0,6.1,2.8,42.62,42.62,0,0,0,7,1.9l1.7.3h0l1.8.3a21.86,21.86,0,0,0,3.6.3h1.9a45.33,45.33,0,0,0,5.2-.3,41.42,41.42,0,0,0,13.1-3.5,40.67,40.67,0,0,0,10.9-7.3,30.36,30.36,0,0,0,6.4-9.3c4,1.4,8.1,2.9,12,4.5a38.65,38.65,0,0,1-9,11.8,37.24,37.24,0,0,1-6.8,5c-1.4.8-2.6,1.5-3.8,2.1s-2.6,1.3-3.9,1.9a60.49,60.49,0,0,1-8.2,2.7,62.17,62.17,0,0,1-8.7,1.6c-1.5.1-2.9.2-4.5.2-1.2,0-2.9.1-4.5,0s-3-.2-4.5-.4c-.9-.1-1.7-.3-2.6-.4l-2-.3a43.11,43.11,0,0,1-8.7-2.4,14.58,14.58,0,0,0-1.9-.7,24.43,24.43,0,0,1-2.4-1c-1.3-.6-2.7-1.2-4-1.9s-2.5-1.5-3.8-2.3l-.8-.5c-1-.6-1.9-1.3-2.8-1.9a50.07,50.07,0,0,1-6.5-5.7,56.52,56.52,0,0,1-5.6-6.6,45,45,0,0,1-4.3-7.3,40,40,0,0,1-3.8-14.4C995.6,66,999.9,66.1,1004.1,66.3Zm-85.2,8.1c.3-.1.7-.2,1-.3,1.4-.4,2.9-.7,4.3-1l.9-.2,1.3-.3c3.1-.7,6.2-1.3,9.3-1.9l4.6-.8,7.8-1.2,2.9-.4a14.77,14.77,0,0,1-4.1,9.2,27.25,27.25,0,0,1-2.5,2.3,29.77,29.77,0,0,1-2.9,2,22.74,22.74,0,0,1-6.9,2.5c-1.2.2-2.5.4-3.8.5a20.8,20.8,0,0,1-10.2-2,15,15,0,0,1-7.3-6.9C915.4,75.3,917.1,74.8,918.9,74.4Zm-9.2,2.4a18.7,18.7,0,0,0,9.4,9.4,23.43,23.43,0,0,0,7.8,2.3,28.25,28.25,0,0,0,2.9.2h1.4c1.5-.1,3-.3,4.2-.5h0a25.3,25.3,0,0,0,8.1-2.9,28.84,28.84,0,0,0,3.4-2.3,18.23,18.23,0,0,0,2.9-2.7,18.47,18.47,0,0,0,5.1-12.4l.8-.1c1.7-.2,3.5-.4,5.2-.5l6.8-.5c-.2,6.7-3.1,13.3-8.5,18.9a35.1,35.1,0,0,1-9.7,7.5l-.2.1a58.59,58.59,0,0,1-5.7,2.6,33.45,33.45,0,0,1-6.4,1.7h0a7.77,7.77,0,0,1-1.6.2h-.2l-1.6.3-3.2.3a34.32,34.32,0,0,1-6.4-.3,36,36,0,0,1-11.8-3.2,32.43,32.43,0,0,1-9.7-6.6,26.86,26.86,0,0,1-5.4-7.7C901.5,79.3,905.6,78,909.7,76.8Zm-16.1,5.1a28.72,28.72,0,0,0,6.4,9.3,39.14,39.14,0,0,0,10.9,7.3A41.42,41.42,0,0,0,924,102a45.33,45.33,0,0,0,5.2.3h1.9l3.6-.3c.6-.1,1.2-.2,1.7-.3h.1l1.7-.3a40.08,40.08,0,0,0,7-1.9,49,49,0,0,0,6.1-2.8l.2-.1a39.46,39.46,0,0,0,10.8-8.3c6.2-6.4,9.5-14.1,9.6-21.9,4.3-.2,8.5-.4,12.8-.4a38.09,38.09,0,0,1-3.8,14.4,45,45,0,0,1-4.3,7.3,66.18,66.18,0,0,1-5.6,6.6,45,45,0,0,1-6.6,5.7,27.5,27.5,0,0,1-2.8,1.9l-.8.5c-1.2.8-2.5,1.6-3.8,2.3s-2.6,1.4-4,2c-.8.3-1.5.6-2.4.9-.6.2-1.3.5-1.9.7a44,44,0,0,1-8.8,2.4l-2,.3a25.12,25.12,0,0,1-2.7.4c-1.5.2-3,.3-4.5.4s-3.3,0-4.6,0-2.9-.1-4.4-.2A64.91,64.91,0,0,1,913,110a60.49,60.49,0,0,1-8.2-2.7c-1.3-.6-2.6-1.2-3.9-1.9s-2.4-1.3-3.8-2.1a56.7,56.7,0,0,1-6.8-5,38.65,38.65,0,0,1-9-11.8C885.6,84.8,889.6,83.3,893.6,81.9Zm-79.7,43.2c2.6-2,5.3-4,7.9-5.9.5-.4,1-.7,1.5-1.1.3-.2.7-.5,1-.7l8.4-5.7,3.1-2c2.6-1.6,5.3-3.2,7.9-4.8l1.6-.9a15,15,0,0,1-.2,10c-.4,1-.9,2-1.4,3a18.08,18.08,0,0,1-1.9,2.9,21.07,21.07,0,0,1-5.4,4.9h0a21.69,21.69,0,0,1-13.5,3.9,13.9,13.9,0,0,1-9.3-3.6ZM804,133l3.8-3.2,2.6-2a18.16,18.16,0,0,0,12.3,5.1c.5,0,1,.1,1.5.1a25.86,25.86,0,0,0,14.4-4.6,25.33,25.33,0,0,0,6.4-5.8,26.37,26.37,0,0,0,2.3-3.5,19.64,19.64,0,0,0,1.6-3.6,18.22,18.22,0,0,0,0-13.4c1.7-.9,3.4-1.9,5.1-2.8l6.3-3.2c2.4,6.3,2.2,13.5-.6,20.7a34.59,34.59,0,0,1-6.1,10.6l-.2.2a58.93,58.93,0,0,1-4.2,4.5,34.18,34.18,0,0,1-5.2,4h0a39.37,39.37,0,0,1-11.8,5.5,35.38,35.38,0,0,1-12.1,1.6,35.29,35.29,0,0,1-11.5-2.3,23.37,23.37,0,0,1-7.9-5.1Zm-6.5,5.6a27.27,27.27,0,0,0,9.4,6.1,41.9,41.9,0,0,0,6.3,1.9,38.15,38.15,0,0,0,6.6.7h1.5a40.41,40.41,0,0,0,11.9-1.8,44.21,44.21,0,0,0,12.9-6,31.4,31.4,0,0,0,5.7-4.5,41.48,41.48,0,0,0,4.5-4.9l.2-.3a42.83,42.83,0,0,0,6.8-11.8c3.2-8.3,3.4-16.7.5-23.9,3.9-1.9,7.8-3.7,11.7-5.3a37.46,37.46,0,0,1,2,14.7,40.52,40.52,0,0,1-1.2,8.4,27.69,27.69,0,0,1-1.2,4.1c-.4,1.3-.9,2.6-1.4,4v.1a56.77,56.77,0,0,1-3.9,7.8c-.7,1.1-1.4,2.3-2.4,3.7-.8,1.2-1.7,2.4-2.6,3.6a31.09,31.09,0,0,1-2.9,3.3c-.6.6-1.2,1.2-1.9,1.8-.5.4-.9.9-1.4,1.3a43.44,43.44,0,0,1-7.2,5.6h0a48.81,48.81,0,0,1-7.9,4.5,72.11,72.11,0,0,1-8.4,3.2c-1.4.4-2.8.8-4.3,1.1-.7.1-1.4.3-2.2.4l-.7.1-1.5.3a49.08,49.08,0,0,1-8.6.6c-1.4,0-2.9-.1-4.4-.2s-2.9-.3-4.2-.5a54.72,54.72,0,0,1-8.2-2.1,38.63,38.63,0,0,1-12.8-7.5C791.2,144.4,794.3,141.5,797.5,138.6Zm-56.4,69q2.25-3.9,4.8-7.8l2-3.1c1.8-2.8,3.7-5.6,5.6-8.4.1-.1.2-.3.3-.4.5-.7,1-1.5,1.6-2.2,1.9-2.7,3.8-5.3,5.8-7.9l.2-.3a14.68,14.68,0,0,1,3.6,9.4,21.59,21.59,0,0,1-3.9,13.4h0a21.07,21.07,0,0,1-4.9,5.4,22.06,22.06,0,0,1-6,3.3,14.38,14.38,0,0,1-10,.2Zm-5.8,10.3c.9-1.7,1.9-3.4,2.8-5.2a17.52,17.52,0,0,0,6.5,1.3,19.13,19.13,0,0,0,6.9-1.3,30.06,30.06,0,0,0,3.6-1.7,26.37,26.37,0,0,0,3.5-2.3,25.33,25.33,0,0,0,5.8-6.4,25,25,0,0,0,4.5-15.8,18.16,18.16,0,0,0-5.1-12.3l1.8-2.3c1.1-1.4,2.2-2.7,3.3-4l3.1-3.6a26.85,26.85,0,0,1,5.1,7.9,24.94,24.94,0,0,1,1.6,5.5,43.19,43.19,0,0,1,.6,5.9,41,41,0,0,1-7.1,23.9h0a34.18,34.18,0,0,1-4,5.2,58.93,58.93,0,0,1-4.5,4.2l-.2.2a36.34,36.34,0,0,1-10.7,6.1c-7.2,2.8-14.4,3-20.7.6Zm-5,9.8a29.47,29.47,0,0,0,11,2.1,35.17,35.17,0,0,0,12.9-2.5,38.33,38.33,0,0,0,11.8-6.8l.2-.2c1.6-1.4,3.3-2.9,4.9-4.5a42.75,42.75,0,0,0,4.5-5.8,41.77,41.77,0,0,0,6-12.9,38.65,38.65,0,0,0,1.8-13.5,38,38,0,0,0-.7-6.5,32.83,32.83,0,0,0-1.9-6.3,30.51,30.51,0,0,0-6.1-9.4c2.9-3.2,5.8-6.3,8.8-9.4a39.67,39.67,0,0,1,7.5,12.8,54.72,54.72,0,0,1,2.1,8.2c.2,1.4.4,2.8.5,4.3s.2,2.9.2,4.3a63.6,63.6,0,0,1-.6,8.7l-.3,1.5-.1.7c-.1.7-.3,1.4-.4,2.2-.3,1.4-.7,2.9-1.1,4.3a72.11,72.11,0,0,1-3.2,8.4,71.06,71.06,0,0,1-4.5,8h0a38.94,38.94,0,0,1-5.6,7.1l-1.4,1.4a17,17,0,0,1-1.9,1.9c-1,1-2.2,2-3.3,2.9a33.2,33.2,0,0,1-3.6,2.6c-1.4,1-2.5,1.7-3.6,2.4a46.82,46.82,0,0,1-7.8,3.8l-.2.1c-1.3.5-2.6,1-3.9,1.4l-4.1,1.2a40.52,40.52,0,0,1-8.4,1.2,39.11,39.11,0,0,1-14.7-2C726.6,235.5,728.4,231.6,730.3,227.7Zm-25.5,84.5c.4-2.7.8-5.3,1.2-8l.8-4.4c.6-3.1,1.2-6.3,1.9-9.4a12.44,12.44,0,0,1,.4-1.6l.1-.4c.3-1.5.7-3.1,1.1-4.6.1-.4.2-.7.3-1.1.4-1.7.9-3.5,1.4-5.2a15,15,0,0,1,6.9,7.3,20.36,20.36,0,0,1,1.9,6.5,21.66,21.66,0,0,1,.1,3.6,32.2,32.2,0,0,1-.5,3.8,22,22,0,0,1-2.5,6.9,18.72,18.72,0,0,1-2,2.9,26.14,26.14,0,0,1-2.3,2.5,14.85,14.85,0,0,1-9.2,4.1Zm-1.5,12.9c.2-1.7.3-3.5.5-5.2l.1-.8a18.66,18.66,0,0,0,12.4-5.1,35.76,35.76,0,0,0,2.7-2.9,23.66,23.66,0,0,0,5.3-11.5h0a42.76,42.76,0,0,0,.5-4.3,30.88,30.88,0,0,0-.1-4.3,22.76,22.76,0,0,0-2.3-7.8,18.33,18.33,0,0,0-9.4-9.4c1.2-4.1,2.4-8.2,3.8-12.3a23.45,23.45,0,0,1,7.7,5.4,32.25,32.25,0,0,1,6.5,9.7,39.25,39.25,0,0,1,3.2,11.9,34.32,34.32,0,0,1,.3,6.4,31.63,31.63,0,0,1-.3,3.2c-.1.5-.2,1.1-.3,1.7v.2c-.1.5-.1,1-.2,1.5h0a46.37,46.37,0,0,1-1.7,6.4,49.42,49.42,0,0,1-2.6,5.7l-.1.2a37.08,37.08,0,0,1-7.5,9.8c-5.5,5.4-12.1,8.3-18.8,8.5Zm-.9,10.8c7.9-.1,15.6-3.5,21.9-9.6a39.46,39.46,0,0,0,8.3-10.8l.1-.2a49,49,0,0,0,2.8-6.1,42.62,42.62,0,0,0,1.9-7c.1-.5.2-1.1.3-1.6v-.1l.3-1.8a21.86,21.86,0,0,0,.3-3.6,42,42,0,0,0-11.1-31,30.36,30.36,0,0,0-9.3-6.4c1.4-4,2.9-8.1,4.5-12a38.65,38.65,0,0,1,11.8,9,37.24,37.24,0,0,1,5,6.8c.8,1.4,1.5,2.6,2.1,3.8s1.3,2.6,1.9,3.9a60.49,60.49,0,0,1,2.7,8.2,64.91,64.91,0,0,1,1.6,8.7c.1,1.5.2,2.9.2,4.5,0,1.2.1,2.9,0,4.5s-.2,3-.4,4.5c-.1.9-.3,1.7-.4,2.6-.1.7-.2,1.3-.3,2a43.11,43.11,0,0,1-2.4,8.7,14.58,14.58,0,0,0-.7,1.9,24.43,24.43,0,0,1-1,2.4c-.6,1.3-1.2,2.7-1.9,4s-1.5,2.6-2.3,3.8l-.5.8c-.6,1-1.3,1.9-1.9,2.8a50.07,50.07,0,0,1-5.7,6.5,56.52,56.52,0,0,1-6.6,5.6,45,45,0,0,1-7.3,4.3,40,40,0,0,1-14.4,3.8C702,344.4,702.2,340.1,702.4,335.9Zm8,85.2c-.1-.3-.1-.6-.2-.9-.4-1.5-.7-2.9-1-4.4l-.2-1-.3-1.2c-.7-3.1-1.3-6.3-1.9-9.4l-.8-4.5c-.4-2.6-.9-5.3-1.2-7.9l-.4-2.9a14.77,14.77,0,0,1,9.2,4.1,27.25,27.25,0,0,1,2.3,2.5,29.77,29.77,0,0,1,2,2.9,22.74,22.74,0,0,1,2.5,6.9c.2,1.1.4,2.5.5,3.8a20.8,20.8,0,0,1-2,10.2,15,15,0,0,1-6.9,7.3C711.3,424.6,710.9,422.8,710.4,421.1Zm2.5,9.2a18.7,18.7,0,0,0,9.4-9.4,23.43,23.43,0,0,0,2.3-7.8,20.45,20.45,0,0,0,.1-4.3,40.52,40.52,0,0,0-.5-4.2h0a25.3,25.3,0,0,0-2.9-8.1,28.84,28.84,0,0,0-2.3-3.4,18.23,18.23,0,0,0-2.7-2.9,18.47,18.47,0,0,0-12.4-5.1l-.1-.8c-.2-1.7-.4-3.5-.5-5.2l-.5-6.8c6.7.2,13.3,3.1,18.9,8.5a35.1,35.1,0,0,1,7.5,9.7l.1.2a58.59,58.59,0,0,1,2.6,5.7,35.53,35.53,0,0,1,1.7,6.4h0a7.72,7.72,0,0,1,.2,1.5v.3c.1.5.2,1.1.3,1.6.1,1.1.2,2.2.3,3.2a34.32,34.32,0,0,1-.3,6.4,36,36,0,0,1-3.2,11.8,32.43,32.43,0,0,1-6.6,9.7,26.86,26.86,0,0,1-7.7,5.4C715.3,438.5,714.1,434.4,712.9,430.3Zm5.1,16.1a28.72,28.72,0,0,0,9.3-6.4,39.14,39.14,0,0,0,7.3-10.9,47.34,47.34,0,0,0,3.8-20.2l-.3-3.6c-.1-.6-.2-1.2-.3-1.7v-.2c-.1-.5-.2-1.1-.3-1.6a40.08,40.08,0,0,0-1.9-7,49,49,0,0,0-2.8-6.1l-.1-.2a39.46,39.46,0,0,0-8.3-10.8c-6.4-6.2-14.1-9.5-21.9-9.6-.2-4.3-.4-8.5-.4-12.8a38.09,38.09,0,0,1,14.4,3.8,45,45,0,0,1,7.3,4.3,66.18,66.18,0,0,1,6.6,5.6,45,45,0,0,1,5.7,6.6,27.5,27.5,0,0,1,1.9,2.8l.5.8c.8,1.2,1.6,2.5,2.3,3.8s1.4,2.6,2,4c.3.8.6,1.5.9,2.4.2.6.5,1.3.7,1.9a44,44,0,0,1,2.4,8.8c.1.7.2,1.3.3,2a25.12,25.12,0,0,1,.4,2.7c.2,1.5.3,3,.4,4.5s0,3.3,0,4.6-.1,2.9-.2,4.4a64.91,64.91,0,0,1-1.6,8.7,60.49,60.49,0,0,1-2.7,8.2c-.6,1.3-1.2,2.6-1.9,3.9s-1.3,2.4-2.1,3.8a56.7,56.7,0,0,1-5,6.8,38.65,38.65,0,0,1-11.8,9C720.9,454.4,719.4,450.4,718,446.4Zm43.4,80-.2-.3c-2-2.6-3.9-5.2-5.8-7.9-.4-.5-.7-1-1.1-1.6-.1-.2-.3-.4-.4-.6h0c-.1-.1-.2-.3-.3-.4-1.9-2.8-3.8-5.6-5.6-8.4l-2-3.1c-1.6-2.6-3.2-5.2-4.8-7.9l-.9-1.6a15,15,0,0,1,10,.2c1,.4,2.1.9,3.1,1.4a18.08,18.08,0,0,1,2.9,1.9,21.07,21.07,0,0,1,4.9,5.4h0a21.69,21.69,0,0,1,3.9,13.5A15.93,15.93,0,0,1,761.4,526.4Zm7.7,9.6c-1.1-1.3-2.2-2.6-3.2-3.9l-2-2.5a18.16,18.16,0,0,0,5.1-12.3,25.76,25.76,0,0,0-4.5-15.9,25.33,25.33,0,0,0-5.8-6.4,26.37,26.37,0,0,0-3.5-2.3,19.64,19.64,0,0,0-3.6-1.6,18.23,18.23,0,0,0-13.4,0c-.9-1.7-1.9-3.4-2.8-5.1l-3.2-6.3c6.3-2.4,13.5-2.2,20.7.6a34.59,34.59,0,0,1,10.6,6.1l.2.2a58.93,58.93,0,0,1,4.5,4.2,34.18,34.18,0,0,1,4,5.2h0a39.37,39.37,0,0,1,5.5,11.8,35.38,35.38,0,0,1,1.6,12.1,35.29,35.29,0,0,1-2.3,11.5,23.37,23.37,0,0,1-5.1,7.9Zm14.4,15.9c-3-3.1-5.9-6.2-8.8-9.4a27.27,27.27,0,0,0,6.1-9.4,41.9,41.9,0,0,0,1.9-6.3,42.27,42.27,0,0,0-1.1-20,43.05,43.05,0,0,0-6-12.9,31.4,31.4,0,0,0-4.5-5.7,51.16,51.16,0,0,0-4.9-4.5l-.3-.2a42.83,42.83,0,0,0-11.8-6.8c-8.3-3.2-16.7-3.4-23.9-.5-1.9-3.9-3.7-7.8-5.3-11.7a37.46,37.46,0,0,1,14.7-2,40.52,40.52,0,0,1,8.4,1.2,27.69,27.69,0,0,1,4.1,1.2c1.3.4,2.6.9,4,1.4h.1a56.77,56.77,0,0,1,7.8,3.9c1.1.7,2.3,1.4,3.7,2.4,1.2.8,2.4,1.7,3.6,2.6a31.09,31.09,0,0,1,3.3,2.9c.6.6,1.2,1.2,1.8,1.9.4.5.9.9,1.3,1.4a43.44,43.44,0,0,1,5.6,7.2h0a48.81,48.81,0,0,1,4.5,7.9,72.11,72.11,0,0,1,3.2,8.4c.4,1.4.8,2.8,1.1,4.3.1.7.3,1.4.4,2.2l.1.7.3,1.5a49.08,49.08,0,0,1,.6,8.6c0,1.4-.1,2.9-.2,4.4s-.3,2.9-.5,4.2a54.72,54.72,0,0,1-2.1,8.2A34,34,0,0,1,783.5,551.9Zm61.9,48-1.6-.9c-2.7-1.6-5.3-3.2-7.9-4.8l-3.1-2c-2.8-1.8-5.7-3.7-8.4-5.7-.1,0-.1-.1-.2-.1l-.9-.6a2.18,2.18,0,0,1-.5-.4c-.3-.2-.7-.5-1-.7-2.7-1.9-5.3-3.9-7.9-5.9l-.3-.2A14.68,14.68,0,0,1,823,575a21.59,21.59,0,0,1,13.4,3.9h0a21.07,21.07,0,0,1,5.4,4.9,18.08,18.08,0,0,1,1.9,2.9,29.17,29.17,0,0,1,1.4,3.1A14.71,14.71,0,0,1,845.4,599.9Zm14.8,8-6.2-3.2c-1.7-.9-3.4-1.9-5.2-2.8a18.22,18.22,0,0,0,0-13.4,30.06,30.06,0,0,0-1.7-3.6,19.18,19.18,0,0,0-2.3-3.5,25.33,25.33,0,0,0-6.4-5.8,25,25,0,0,0-15.8-4.5,18.16,18.16,0,0,0-12.3,5.1l-2.3-1.8c-1.4-1.1-2.7-2.2-4-3.3l-3.6-3.1a26.85,26.85,0,0,1,7.9-5.1,24.94,24.94,0,0,1,5.5-1.6,43.19,43.19,0,0,1,5.9-.6,41,41,0,0,1,23.9,7.1h0a34.18,34.18,0,0,1,5.2,4,58.93,58.93,0,0,1,4.2,4.5l.2.2a36.34,36.34,0,0,1,6.1,10.7A26.76,26.76,0,0,1,860.2,607.9Zm15.3,7.1c-3.9-1.7-7.8-3.5-11.7-5.3,2.9-7.3,2.8-15.7-.4-23.9a38.33,38.33,0,0,0-6.8-11.8l-.2-.2c-1.4-1.6-2.9-3.3-4.5-4.9a52.59,52.59,0,0,0-5.8-4.5,41.77,41.77,0,0,0-12.9-6,38.65,38.65,0,0,0-13.5-1.8,38,38,0,0,0-6.5.7,32.83,32.83,0,0,0-6.3,1.9,30.51,30.51,0,0,0-9.4,6.1c-3.2-2.9-6.3-5.8-9.4-8.8a39.67,39.67,0,0,1,12.8-7.5,54.72,54.72,0,0,1,8.2-2.1c1.3-.2,2.8-.4,4.3-.5s2.9-.2,4.4-.2a63.6,63.6,0,0,1,8.7.6l1.5.3.7.1c.7.1,1.4.3,2.2.4,1.4.3,2.9.7,4.3,1.1a72.11,72.11,0,0,1,8.4,3.2,71.06,71.06,0,0,1,8,4.5h0a38.94,38.94,0,0,1,7.1,5.6l1.4,1.4c.7.6,1.3,1.2,1.9,1.8,1,1,2,2.2,2.9,3.3a33.2,33.2,0,0,1,2.6,3.6c1,1.4,1.7,2.5,2.4,3.6a46.82,46.82,0,0,1,3.8,7.8l.1.1c.5,1.4,1,2.7,1.4,4s.8,2.7,1.2,4.1a40.52,40.52,0,0,1,1.2,8.4A39.58,39.58,0,0,1,875.5,615Zm72.7,20.2c-2.6-.4-5.2-.8-7.9-1.2l-4.5-.8c-3.1-.6-6.2-1.2-9.3-1.9a9.36,9.36,0,0,1-1.6-.4l-.6-.1c-1.5-.3-2.9-.7-4.4-1l-1.2-.3c-1.7-.4-3.5-.9-5.2-1.3a15,15,0,0,1,7.3-6.9,20.36,20.36,0,0,1,6.5-1.9,21.66,21.66,0,0,1,3.6-.1,32.2,32.2,0,0,1,3.8.5,22,22,0,0,1,6.9,2.5,18.72,18.72,0,0,1,2.9,2,26.14,26.14,0,0,1,2.5,2.3,14.85,14.85,0,0,1,4.1,9.2Zm12.9,1.5c-1.7-.2-3.4-.3-5.1-.5l-.8-.1a18.66,18.66,0,0,0-5.1-12.4,35.76,35.76,0,0,0-2.9-2.7,23.66,23.66,0,0,0-11.5-5.3h0a42.76,42.76,0,0,0-4.3-.5,30.88,30.88,0,0,0-4.3.1,22.76,22.76,0,0,0-7.8,2.3,18.33,18.33,0,0,0-9.4,9.4c-4.1-1.2-8.2-2.4-12.3-3.8a23.45,23.45,0,0,1,5.4-7.7,32.25,32.25,0,0,1,9.7-6.5,39.25,39.25,0,0,1,11.9-3.2,34.32,34.32,0,0,1,6.4-.3,31.63,31.63,0,0,1,3.2.3c.5.1,1.1.2,1.7.3h.2c.5.1,1,.1,1.5.2h0A46.37,46.37,0,0,1,944,608a49.42,49.42,0,0,1,5.7,2.6l.2.1a37.08,37.08,0,0,1,9.8,7.5c5.4,5.5,8.3,12.1,8.5,18.8Zm10.8.9c-.1-7.9-3.4-15.6-9.6-21.9a39.46,39.46,0,0,0-10.8-8.3l-.2-.1a56.67,56.67,0,0,0-6.1-2.8,42.62,42.62,0,0,0-7-1.9l-1.6-.3h-.1l-1.8-.3a21.86,21.86,0,0,0-3.6-.3,42,42,0,0,0-31,11.1,30.36,30.36,0,0,0-6.4,9.3c-4-1.4-8.1-2.9-12-4.5a38.65,38.65,0,0,1,9-11.8,37.24,37.24,0,0,1,6.8-5c1.4-.8,2.6-1.5,3.8-2.1s2.6-1.3,3.9-1.9a60.49,60.49,0,0,1,8.2-2.7,64.91,64.91,0,0,1,8.7-1.6c1.5-.1,2.9-.2,4.5-.2,1.2,0,2.9-.1,4.5,0s3,.2,4.5.4c.9.1,1.7.3,2.6.4l2,.3a43.11,43.11,0,0,1,8.7,2.4,14.58,14.58,0,0,0,1.9.7,24.43,24.43,0,0,1,2.4,1c1.3.6,2.7,1.2,4,1.9s2.6,1.5,3.8,2.3l.8.5a27.5,27.5,0,0,1,2.8,1.9,50.07,50.07,0,0,1,6.5,5.7,56.52,56.52,0,0,1,5.6,6.6,45,45,0,0,1,4.3,7.3,40,40,0,0,1,3.8,14.4C980.5,638,976.2,637.8,971.9,637.6Zm85.3-8.1a3.55,3.55,0,0,1-1,.2c-1.4.3-2.8.7-4.3,1l-1.1.3-1.2.3c-3.1.7-6.2,1.3-9.3,1.9l-4.6.8-7.9,1.2-2.9.4a14.77,14.77,0,0,1,4.1-9.2,27.25,27.25,0,0,1,2.5-2.3,29.77,29.77,0,0,1,2.9-2,22.74,22.74,0,0,1,6.9-2.5c1.1-.2,2.5-.4,3.8-.5a20.8,20.8,0,0,1,10.2,2,15,15,0,0,1,7.3,6.9C1060.7,628.6,1059,629.1,1057.2,629.5Zm9.1-2.4a18.7,18.7,0,0,0-9.4-9.4,23.43,23.43,0,0,0-7.8-2.3,20.45,20.45,0,0,0-4.3-.1,40.52,40.52,0,0,0-4.2.5h0a25.3,25.3,0,0,0-8.1,2.9,28.84,28.84,0,0,0-3.4,2.3,18.23,18.23,0,0,0-2.9,2.7,18.47,18.47,0,0,0-5.1,12.4l-.9.1c-1.7.2-3.4.4-5.1.5l-6.8.5c.2-6.7,3.1-13.3,8.5-18.9a35.1,35.1,0,0,1,9.7-7.5l.2-.1a49.42,49.42,0,0,1,5.7-2.6,33.45,33.45,0,0,1,6.4-1.7h0a7.72,7.72,0,0,1,1.5-.2h.2l1.6-.3,3.2-.3h1.7a35.93,35.93,0,0,1,4.7.3,35.3,35.3,0,0,1,11.8,3.2,32.43,32.43,0,0,1,9.7,6.6,26.86,26.86,0,0,1,5.4,7.7C1074.6,624.7,1070.5,625.9,1066.3,627.1Zm16.1-5.1a28.72,28.72,0,0,0-6.4-9.3,39.14,39.14,0,0,0-10.9-7.3,47.34,47.34,0,0,0-20.2-3.8l-3.6.3c-.6.1-1.2.2-1.7.3h-.2l-1.6.3a40.08,40.08,0,0,0-7,1.9,49,49,0,0,0-6.1,2.8l-.3.1a39.46,39.46,0,0,0-10.8,8.3c-6.2,6.4-9.5,14.1-9.6,21.9-4.3.2-8.6.4-12.8.4a38.09,38.09,0,0,1,3.8-14.4,45,45,0,0,1,4.3-7.3,83.16,83.16,0,0,1,5.6-6.6,45,45,0,0,1,6.6-5.7,27.5,27.5,0,0,1,2.8-1.9l.8-.5c1.2-.8,2.5-1.6,3.8-2.3s2.6-1.4,4-2c.8-.3,1.5-.6,2.4-.9.6-.2,1.3-.5,1.8-.7a44,44,0,0,1,8.8-2.4l2-.3a25.12,25.12,0,0,1,2.7-.4c1.5-.2,3-.3,4.5-.4s3.3,0,4.6,0,2.9.1,4.4.2a64.91,64.91,0,0,1,8.7,1.6,60.49,60.49,0,0,1,8.2,2.7c1.3.6,2.7,1.2,3.9,1.9s2.4,1.3,3.8,2.1a56.7,56.7,0,0,1,6.8,5,38.65,38.65,0,0,1,9,11.8C1090.5,619.1,1086.5,620.6,1082.4,622Zm14.7-35.5c-.5,1.5-.9,3-1.3,4.4a47.53,47.53,0,0,0-1.3,9.1,43.46,43.46,0,0,0,.8,10.9,43.35,43.35,0,0,0-7.2-8.3,45.86,45.86,0,0,0-7.4-5.5c-1.4-.9-2.7-1.6-4-2.3s-2.8-1.4-4.2-2a60.34,60.34,0,0,0-8.8-2.9,59.51,59.51,0,0,0-9.3-1.7,37.74,37.74,0,0,0-4.7-.2,38.2,38.2,0,0,0-4.8,0c-1.6.1-3.3.2-4.9.4a23.25,23.25,0,0,0-2.8.5l-1.9.3h0a57.49,57.49,0,0,0-9.6,2.7c-.6.2-1.2.5-1.8.7a27.73,27.73,0,0,0-2.6,1,42.5,42.5,0,0,0-4.3,2.1c-1.4.8-2.8,1.6-4.1,2.5l-.8.5a27.3,27.3,0,0,0-3,2.1,51.71,51.71,0,0,0-7.1,6.2,64.93,64.93,0,0,0-6,7,53,53,0,0,0-4.7,7.9,40.83,40.83,0,0,0-3.4,10.4,45.17,45.17,0,0,0-3.4-10.4,53,53,0,0,0-4.7-7.9,64.93,64.93,0,0,0-6-7,56.61,56.61,0,0,0-7-6.1l-3-2.1-.8-.5c-1.3-.9-2.7-1.7-4.1-2.5a34.18,34.18,0,0,0-4.3-2.1c-.9-.4-1.8-.7-2.6-1a13.36,13.36,0,0,1-1.8-.7,46.22,46.22,0,0,0-9.5-2.6h0c-.7-.1-1.3-.2-1.9-.3-.9-.2-1.9-.3-2.8-.5a40.45,40.45,0,0,0-4.9-.4c-1.8-.1-3.5,0-4.8,0-1.6,0-3.2.1-4.7.2a56.4,56.4,0,0,0-9.2,1.7,53.34,53.34,0,0,0-8.8,2.9c-1.4.6-2.8,1.3-4.2,2-1.2.7-2.5,1.4-4,2.3a56.77,56.77,0,0,0-7.4,5.5,43.35,43.35,0,0,0-7.2,8.3,43.46,43.46,0,0,0,.8-10.9,47.53,47.53,0,0,0-1.3-9.1,31.91,31.91,0,0,0-1.3-4.4c-.5-1.4-1-2.7-1.5-4.1l-.1-.2a65.21,65.21,0,0,0-4.1-8.4c-.7-1.2-1.5-2.4-2.5-3.8s-1.8-2.6-2.8-3.8-2.1-2.5-3.1-3.6l-2-2c-.4-.4-.9-.8-1.4-1.3a51.17,51.17,0,0,0-7.8-6.1,61.75,61.75,0,0,0-8.5-4.9,72.58,72.58,0,0,0-8.8-3.4c-1.5-.5-3.1-.8-4.6-1.2a22.31,22.31,0,0,0-2.3-.4l-.7-.1-1.6-.3a57.38,57.38,0,0,0-9.3-.7c-1.6,0-3.1.1-4.6.2s-3.1.3-4.6.5a50.47,50.47,0,0,0-8.9,2.3,44.9,44.9,0,0,0-9.8,4.9,44.9,44.9,0,0,0,4.9-9.8,52.83,52.83,0,0,0,2.3-8.9c.2-1.5.4-3,.5-4.5s.2-3.1.2-4.7a57.38,57.38,0,0,0-.7-9.3c-.1-.5-.2-1.1-.3-1.6l-.1-.6c-.1-.8-.3-1.6-.4-2.3a34.47,34.47,0,0,0-1.2-4.6,81,81,0,0,0-3.4-8.9,61.75,61.75,0,0,0-4.9-8.5,51.17,51.17,0,0,0-6.1-7.8l-1.3-1.3a18.88,18.88,0,0,0-2-2,37.28,37.28,0,0,0-3.6-3.2c-1.2-1-2.5-1.9-3.8-2.8l-3.9-2.6a59.85,59.85,0,0,0-8.4-4.2l-.1-.1c-1.4-.5-2.7-1-4.1-1.5s-2.9-.9-4.4-1.3a47.53,47.53,0,0,0-9.1-1.3,43.46,43.46,0,0,0-10.9.8,43.35,43.35,0,0,0,8.3-7.2,45.86,45.86,0,0,0,5.5-7.4c.9-1.4,1.6-2.7,2.3-4s1.4-2.8,2-4.2a60.34,60.34,0,0,0,2.9-8.8,59.51,59.51,0,0,0,1.7-9.3,37.74,37.74,0,0,0,.2-4.7,38.2,38.2,0,0,0,0-4.8c-.1-1.6-.2-3.3-.4-4.9a23.25,23.25,0,0,0-.5-2.8c-.1-.6-.2-1.3-.3-1.9h0a57.49,57.49,0,0,0-2.7-9.6c-.2-.6-.5-1.2-.7-1.8a27.73,27.73,0,0,0-1-2.6,42.5,42.5,0,0,0-2.1-4.3c-.8-1.4-1.6-2.8-2.5-4.1l-.5-.8a27.3,27.3,0,0,0-2.1-3,51.71,51.71,0,0,0-6.2-7.1,64.93,64.93,0,0,0-7-6,53,53,0,0,0-7.9-4.7,40.83,40.83,0,0,0-10.4-3.4,45.17,45.17,0,0,0,10.4-3.4,53,53,0,0,0,7.9-4.7,64.93,64.93,0,0,0,7-6,56.61,56.61,0,0,0,6.1-7l2.1-3,.5-.8c.9-1.3,1.7-2.7,2.5-4.1a34.18,34.18,0,0,0,2.1-4.3c.4-.9.7-1.8,1-2.6a13.36,13.36,0,0,1,.7-1.8,46.22,46.22,0,0,0,2.6-9.5h0c.1-.7.2-1.3.3-1.9.2-.9.3-1.9.5-2.8a38.86,38.86,0,0,0,.4-4.9c.1-1.8,0-3.5,0-4.8,0-1.6-.1-3.2-.2-4.7a56.4,56.4,0,0,0-1.7-9.2,53.34,53.34,0,0,0-2.9-8.8c-.6-1.4-1.3-2.9-2-4.2s-1.4-2.5-2.3-4a50.74,50.74,0,0,0-5.5-7.4,43.35,43.35,0,0,0-8.3-7.2,41.1,41.1,0,0,0,8.6.8,18.48,18.48,0,0,0,2.3-.1,47.53,47.53,0,0,0,9.1-1.3,31.91,31.91,0,0,0,4.4-1.3c1.4-.5,2.7-.9,4-1.5l.3-.1a72.66,72.66,0,0,0,8.4-4.1c1.2-.7,2.4-1.5,3.8-2.5s2.6-1.8,3.8-2.8,2.5-2.1,3.6-3.1l2-2c.4-.4.8-.9,1.3-1.4a51.17,51.17,0,0,0,6.1-7.8,61.75,61.75,0,0,0,4.9-8.5,72.58,72.58,0,0,0,3.4-8.8c.5-1.5.8-3.1,1.2-4.6a22.31,22.31,0,0,0,.4-2.3l.1-.7c.1-.5.2-1.1.3-1.6a57.38,57.38,0,0,0,.7-9.3c0-1.6-.1-3.1-.2-4.6s-.3-3.1-.5-4.6a50.47,50.47,0,0,0-2.3-8.9,44.9,44.9,0,0,0-4.9-9.8,44.9,44.9,0,0,0,9.8,4.9,52.83,52.83,0,0,0,8.9,2.3c1.5.2,3,.4,4.5.5s3.1.2,4.7.2h.6a50.24,50.24,0,0,0,8.7-.7l1.6-.3.6-.1c.8-.1,1.6-.3,2.3-.4a34.47,34.47,0,0,0,4.6-1.2,81,81,0,0,0,8.9-3.4,61.75,61.75,0,0,0,8.5-4.9,51.17,51.17,0,0,0,7.8-6.1l1.3-1.3a18.88,18.88,0,0,0,2-2,37.28,37.28,0,0,0,3.2-3.6c1-1.2,1.9-2.5,2.8-3.8,1-1.5,1.9-2.7,2.6-3.9a65.82,65.82,0,0,0,4.2-8.4l.1-.1c.5-1.4,1-2.7,1.5-4.1s.9-3,1.3-4.4a47.53,47.53,0,0,0,1.3-9.1,43.46,43.46,0,0,0-.8-10.9,43.35,43.35,0,0,0,7.2,8.3,45.86,45.86,0,0,0,7.4,5.5c1.4.9,2.7,1.6,4,2.3s2.8,1.4,4.2,2a60.34,60.34,0,0,0,8.8,2.9,59.51,59.51,0,0,0,9.3,1.7,37.74,37.74,0,0,0,4.7.2c.9,0,1.9.1,3,.1h1.8c1.6-.1,3.3-.2,4.9-.4a23.25,23.25,0,0,0,2.8-.5l1.9-.3h0a57.49,57.49,0,0,0,9.6-2.7c.6-.2,1.2-.5,1.8-.7a27.73,27.73,0,0,0,2.6-1,42.5,42.5,0,0,0,4.3-2.1c1.4-.8,2.8-1.6,4.1-2.5l.8-.5c1-.7,2-1.3,3-2.1a51.71,51.71,0,0,0,7.1-6.2,64.93,64.93,0,0,0,6-7,53,53,0,0,0,4.7-7.9,40.83,40.83,0,0,0,3.4-10.4,45.17,45.17,0,0,0,3.4,10.4,53,53,0,0,0,4.7,7.9,64.93,64.93,0,0,0,6,7,56.61,56.61,0,0,0,7,6.1l3,2.1.8.5c1.3.9,2.7,1.7,4.1,2.5a34.18,34.18,0,0,0,4.3,2.1c.9.4,1.8.7,2.6,1a13.36,13.36,0,0,1,1.8.7,46.22,46.22,0,0,0,9.5,2.6h0c.7.1,1.3.2,1.9.3.9.2,1.9.3,2.8.5a38.86,38.86,0,0,0,4.9.4h1.8a25.32,25.32,0,0,0,2.9-.1c1.6,0,3.2-.1,4.7-.2a56.4,56.4,0,0,0,9.2-1.7,53.34,53.34,0,0,0,8.8-2.9c1.4-.6,2.9-1.3,4.2-2s2.6-1.4,4-2.3a50.74,50.74,0,0,0,7.4-5.5,43.35,43.35,0,0,0,7.2-8.3,43.46,43.46,0,0,0-.8,10.9,47.53,47.53,0,0,0,1.3,9.1,31.91,31.91,0,0,0,1.3,4.4c.5,1.4,1,2.7,1.5,4.1l.1.2a72.66,72.66,0,0,0,4.1,8.4c.7,1.2,1.5,2.4,2.5,3.8s1.8,2.6,2.8,3.8,2.1,2.4,3.1,3.6l2,2c.4.4.9.8,1.4,1.3a51.17,51.17,0,0,0,7.8,6.1,61.75,61.75,0,0,0,8.5,4.9,72.58,72.58,0,0,0,8.8,3.4c1.5.4,3,.8,4.6,1.2a22.31,22.31,0,0,0,2.3.4l.6.1,1.6.3a50.24,50.24,0,0,0,8.7.7h.6c1.6,0,3.1-.1,4.6-.2s3.1-.3,4.6-.5a50.47,50.47,0,0,0,8.9-2.3,44.9,44.9,0,0,0,9.8-4.9,44.9,44.9,0,0,0-4.9,9.8,52.83,52.83,0,0,0-2.3,8.9c-.2,1.5-.4,3-.5,4.5s-.2,3.1-.2,4.7a57.38,57.38,0,0,0,.7,9.3c.1.6.2,1.1.3,1.7l.1.6c.1.8.3,1.6.4,2.3a34.47,34.47,0,0,0,1.2,4.6,81,81,0,0,0,3.4,8.9,61.75,61.75,0,0,0,4.9,8.5,51.17,51.17,0,0,0,6.1,7.8l1.3,1.3a18.88,18.88,0,0,0,2,2,37.28,37.28,0,0,0,3.6,3.2c1.2,1,2.5,1.9,3.8,2.8,1.5,1,2.7,1.9,3.9,2.6a59.85,59.85,0,0,0,8.4,4.2l.2.1c1.4.5,2.7,1,4,1.5,1.5.5,3,.9,4.4,1.3a47.53,47.53,0,0,0,9.1,1.3c.8,0,1.5.1,2.3.1a47.38,47.38,0,0,0,8.6-.8,46.6,46.6,0,0,0-8.3,7.2,45.86,45.86,0,0,0-5.5,7.4c-.9,1.4-1.6,2.7-2.3,4s-1.4,2.8-2,4.2a60.34,60.34,0,0,0-2.9,8.8,59.51,59.51,0,0,0-1.7,9.3,37.74,37.74,0,0,0-.2,4.7,38.2,38.2,0,0,0,0,4.8c.1,1.6.2,3.3.4,4.9a23.25,23.25,0,0,0,.5,2.8c.1.6.2,1.3.3,1.9h0a57.49,57.49,0,0,0,2.7,9.6c.2.6.5,1.2.7,1.8.3.8.6,1.7,1,2.6a42.5,42.5,0,0,0,2.1,4.3c.8,1.4,1.6,2.8,2.5,4.1l.5.8c.7,1,1.3,2,2.1,3a51.71,51.71,0,0,0,6.2,7.1,64.93,64.93,0,0,0,7,6,53,53,0,0,0,7.9,4.7,40.83,40.83,0,0,0,10.4,3.4,45.17,45.17,0,0,0-10.4,3.4,53,53,0,0,0-7.9,4.7,64.93,64.93,0,0,0-7,6,56.61,56.61,0,0,0-6.1,7l-2.1,3-.5.8c-.9,1.3-1.7,2.7-2.5,4.1a42.5,42.5,0,0,0-2.1,4.3c-.4.9-.7,1.8-1,2.6a13.36,13.36,0,0,1-.7,1.8,46.22,46.22,0,0,0-2.6,9.5h0c-.1.7-.2,1.3-.3,1.9-.2.9-.3,1.9-.5,2.8a38.86,38.86,0,0,0-.4,4.9c-.1,1.8,0,3.5,0,4.8,0,1.6.1,3.2.2,4.7a56.4,56.4,0,0,0,1.7,9.2,53.34,53.34,0,0,0,2.9,8.8c.6,1.4,1.3,2.8,2,4.2s1.4,2.6,2.3,4a56.77,56.77,0,0,0,5.5,7.4,43.35,43.35,0,0,0,8.3,7.2,43.46,43.46,0,0,0-10.9-.8,47.53,47.53,0,0,0-9.1,1.3c-1.5.4-3,.8-4.4,1.3s-2.7,1-4.1,1.5l-.2.1a72.66,72.66,0,0,0-8.4,4.1c-1.2.7-2.4,1.5-3.8,2.5s-2.6,1.8-3.8,2.8-2.5,2.1-3.6,3.1l-2,2c-.4.4-.8.9-1.3,1.4a51.17,51.17,0,0,0-6.1,7.8,61.75,61.75,0,0,0-4.9,8.5,72.58,72.58,0,0,0-3.4,8.8c-.4,1.5-.8,3-1.2,4.6a22.31,22.31,0,0,0-.4,2.3l-.1.6c-.1.6-.2,1.1-.3,1.6a57.38,57.38,0,0,0-.7,9.3c0,1.6.1,3.1.2,4.6s.3,3.1.5,4.6a50.47,50.47,0,0,0,2.3,8.9,44.9,44.9,0,0,0,4.9,9.8,44.9,44.9,0,0,0-9.8-4.9,55.42,55.42,0,0,0-8.9-2.3c-1.5-.2-3-.4-4.5-.5s-3.1-.2-4.7-.2a57.38,57.38,0,0,0-9.3.7l-1.6.3-.6.1c-.8.1-1.6.3-2.3.4a34.47,34.47,0,0,0-4.6,1.2,81,81,0,0,0-8.9,3.4,61.75,61.75,0,0,0-8.5,4.9,51.17,51.17,0,0,0-7.8,6.1l-1.3,1.3a18.88,18.88,0,0,0-2,2,37.28,37.28,0,0,0-3.2,3.6c-1,1.2-1.9,2.5-2.8,3.8l-2.6,3.9a59.85,59.85,0,0,0-4.2,8.4l-.1.2A37,37,0,0,1,1097.1,586.5Zm65.1-7.6c-2.6,2-5.2,3.9-7.9,5.8-.7.5-1.4,1-2.2,1.5-.1.1-.3.2-.4.3-2.7,1.9-5.5,3.8-8.3,5.6l-3.2,2c-2.6,1.6-5.2,3.2-7.9,4.8l-1.7,1a15,15,0,0,1,.2-10,27.51,27.51,0,0,1,1.4-3,18.08,18.08,0,0,1,1.9-2.9,21.07,21.07,0,0,1,5.4-4.9h0a22.05,22.05,0,0,1,12.2-3.9h1.3a13.9,13.9,0,0,1,9.3,3.6Zm9.8-7.9c-1.3,1.1-2.5,2.1-3.8,3.1l-2.6,2a18.16,18.16,0,0,0-12.3-5.1,27.64,27.64,0,0,0-22.3,10.3,26.37,26.37,0,0,0-2.3,3.5,19.64,19.64,0,0,0-1.6,3.6,18.23,18.23,0,0,0,0,13.4c-1.7.9-3.4,1.9-5,2.8l-6.3,3.2c-2.4-6.3-2.2-13.5.6-20.7a34.59,34.59,0,0,1,6.1-10.6l.2-.2a58.93,58.93,0,0,1,4.2-4.5,40,40,0,0,1,5.2-4h0a39.37,39.37,0,0,1,11.8-5.5,35.86,35.86,0,0,1,10.8-1.7h1.4a35.29,35.29,0,0,1,11.5,2.3,23.37,23.37,0,0,1,7.9,5.1Zm6.6-5.7a27.27,27.27,0,0,0-9.4-6.1,41.9,41.9,0,0,0-6.3-1.9,42.27,42.27,0,0,0-20,1.1,43.05,43.05,0,0,0-12.9,6,35.26,35.26,0,0,0-5.7,4.5,41.48,41.48,0,0,0-4.5,4.9l-.2.3a42.83,42.83,0,0,0-6.8,11.8c-3.2,8.3-3.4,16.7-.5,23.9-3.9,1.9-7.8,3.7-11.7,5.3a37.46,37.46,0,0,1-2-14.7,40.52,40.52,0,0,1,1.2-8.4,27.69,27.69,0,0,1,1.2-4.1c.4-1.3.9-2.6,1.4-3.9l.1-.2a56.77,56.77,0,0,1,3.9-7.8c.7-1.1,1.4-2.3,2.4-3.7.8-1.2,1.7-2.4,2.6-3.6s1.9-2.3,2.9-3.3c.6-.6,1.2-1.2,1.9-1.8.5-.4.9-.9,1.4-1.3a43.44,43.44,0,0,1,7.2-5.6h0a48.81,48.81,0,0,1,7.9-4.5,72.11,72.11,0,0,1,8.4-3.2c1.4-.4,2.8-.8,4.3-1.1.7-.1,1.4-.3,2.2-.4l.7-.1,1.5-.3a54.2,54.2,0,0,1,8.1-.6h.6c1.4,0,2.9.1,4.4.2s2.9.3,4.2.5a54.72,54.72,0,0,1,8.2,2.1,39.67,39.67,0,0,1,12.8,7.5C1184.9,559.5,1181.8,562.4,1178.6,565.3Zm56.4-69c-1.6,2.7-3.2,5.3-4.8,7.9l-2,3.1c-1.8,2.8-3.7,5.6-5.6,8.4-.2.3-.5.7-.7,1-.4.5-.7,1-1.1,1.5-1.9,2.7-3.9,5.3-5.9,7.9l-.2.3a14.68,14.68,0,0,1-3.6-9.4,21.59,21.59,0,0,1,3.9-13.4h0a21.07,21.07,0,0,1,4.9-5.4,18.08,18.08,0,0,1,2.9-1.9,29.17,29.17,0,0,1,3.1-1.4,15.64,15.64,0,0,1,5.5-1,13.3,13.3,0,0,1,4.5.8Zm5.8-10.3c-.9,1.7-1.9,3.5-2.8,5.2a18.22,18.22,0,0,0-13.4,0,30.06,30.06,0,0,0-3.6,1.7,19.18,19.18,0,0,0-3.5,2.3,25.33,25.33,0,0,0-5.8,6.4,25,25,0,0,0-4.5,15.8,18.16,18.16,0,0,0,5.1,12.3l-1.7,2.2c-1.1,1.4-2.3,2.8-3.4,4.2l-3.1,3.6a26.18,26.18,0,0,1-6.7-13.4,43.19,43.19,0,0,1-.6-5.9,41,41,0,0,1,7.1-23.9h0a34.18,34.18,0,0,1,4-5.2,58.93,58.93,0,0,1,4.5-4.2l.2-.2a36.34,36.34,0,0,1,10.7-6.1,31.84,31.84,0,0,1,11.5-2.3,25.89,25.89,0,0,1,9.2,1.7Zm5-9.8c-7.3-2.9-15.7-2.8-23.9.4a38.33,38.33,0,0,0-11.8,6.8l-.2.2c-1.6,1.4-3.3,2.8-4.9,4.5a52.59,52.59,0,0,0-4.5,5.8,42.86,42.86,0,0,0-6,12.9,38.65,38.65,0,0,0-1.8,13.5,49.73,49.73,0,0,0,.7,6.5,32.83,32.83,0,0,0,1.9,6.3,30.51,30.51,0,0,0,6.1,9.4c-2.9,3.2-5.8,6.3-8.8,9.4a39.67,39.67,0,0,1-7.5-12.8,54.72,54.72,0,0,1-2.1-8.2c-.2-1.4-.4-2.8-.5-4.3s-.2-2.9-.2-4.3a63.6,63.6,0,0,1,.6-8.7l.3-1.5.1-.7c.1-.7.3-1.4.4-2.2.3-1.4.7-2.9,1.1-4.3a72.11,72.11,0,0,1,3.2-8.4,71.06,71.06,0,0,1,4.5-8h0a38.94,38.94,0,0,1,5.6-7.1l1.4-1.4c.6-.7,1.2-1.3,1.8-1.9,1-1,2.2-2,3.3-2.9a33.2,33.2,0,0,1,3.6-2.6c1.4-1,2.5-1.7,3.6-2.4a46.82,46.82,0,0,1,7.8-3.8l.1-.1c1.4-.5,2.7-1,4-1.4s2.7-.8,4.1-1.2a40.52,40.52,0,0,1,8.4-1.2h2.1a38,38,0,0,1,12.7,2.1C1249.4,468.4,1247.6,472.3,1245.8,476.2Zm25.5-84.4-1.2,7.8-.8,4.6c-.6,3.1-1.2,6.1-1.8,9.1-.1.6-.3,1.2-.4,1.7l-.1.4c-.3,1.5-.7,2.9-1,4.4-.1.4-.2.8-.3,1.3-.4,1.7-.9,3.4-1.3,5.2a15,15,0,0,1-6.9-7.3,20.36,20.36,0,0,1-1.9-6.5,21.66,21.66,0,0,1-.1-3.6c.1-1.3.3-2.7.5-3.8a22,22,0,0,1,2.5-6.9,18.72,18.72,0,0,1,2-2.9,26.14,26.14,0,0,1,2.3-2.5,14.85,14.85,0,0,1,9.2-4.1Zm1.5-13c-.2,1.7-.3,3.5-.5,5.2l-.1.8a18.66,18.66,0,0,0-12.4,5.1,35.76,35.76,0,0,0-2.7,2.9,23.66,23.66,0,0,0-5.3,11.5h0c-.2,1.3-.4,2.7-.5,4.3a30.88,30.88,0,0,0,.1,4.3,22.76,22.76,0,0,0,2.3,7.8,18.33,18.33,0,0,0,9.4,9.4c-1.2,4.1-2.4,8.2-3.8,12.3a23.45,23.45,0,0,1-7.7-5.4,32.25,32.25,0,0,1-6.5-9.7,39.25,39.25,0,0,1-3.2-11.9,34.32,34.32,0,0,1-.3-6.4,31.63,31.63,0,0,1,.3-3.2c.1-.5.2-1.1.3-1.7V404a7.77,7.77,0,0,0,.2-1.6h0a46.37,46.37,0,0,1,1.7-6.4,49.42,49.42,0,0,1,2.6-5.7l.1-.2a37.08,37.08,0,0,1,7.5-9.8c5.5-5.4,12.1-8.3,18.8-8.5Zm.9-10.7c-7.9.1-15.6,3.4-21.9,9.6a39.46,39.46,0,0,0-8.3,10.8l-.1.2a56.67,56.67,0,0,0-2.8,6.1,42.62,42.62,0,0,0-1.9,7c-.1.6-.2,1.1-.3,1.7v.1l-.3,1.8a21.86,21.86,0,0,0-.3,3.6,42,42,0,0,0,11.1,31,30.36,30.36,0,0,0,9.3,6.4c-1.4,4-2.9,8.1-4.5,12a38.65,38.65,0,0,1-11.8-9,37.24,37.24,0,0,1-5-6.8c-.8-1.4-1.5-2.6-2.1-3.8s-1.3-2.6-1.9-3.9a57.5,57.5,0,0,1-2.7-8.3,62.17,62.17,0,0,1-1.6-8.7c-.1-1.5-.2-2.9-.2-4.5,0-1.2-.1-2.9,0-4.5s.2-3,.4-4.5c.1-.9.3-1.7.4-2.6.1-.7.2-1.3.3-2a43.11,43.11,0,0,1,2.4-8.7,14.58,14.58,0,0,0,.7-1.9,24.43,24.43,0,0,1,1-2.4c.6-1.3,1.2-2.7,1.9-4s1.5-2.5,2.3-3.8l.5-.8c.6-1,1.3-1.9,1.9-2.8a50.07,50.07,0,0,1,5.7-6.5,56.52,56.52,0,0,1,6.6-5.6,45,45,0,0,1,7.3-4.3,40,40,0,0,1,14.4-3.8C1274,359.5,1273.9,363.8,1273.7,368.1Zm-8.1-85.3c.1.4.2.7.3,1.1.3,1.4.7,2.8,1,4.2l.3,1.1c.1.4.2.9.3,1.3.7,3.1,1.3,6.2,1.9,9.3l.8,4.6c.4,2.6.8,5.2,1.2,7.9l.4,2.9a14.77,14.77,0,0,1-9.2-4.1,27.25,27.25,0,0,1-2.3-2.5,29.77,29.77,0,0,1-2-2.9,22.74,22.74,0,0,1-2.5-6.9c-.2-1.2-.4-2.5-.5-3.8a20.8,20.8,0,0,1,2-10.2,15,15,0,0,1,6.9-7.3C1264.7,279.3,1265.2,281,1265.6,282.8Zm-2.4-9.2a18.7,18.7,0,0,0-9.4,9.4,23.43,23.43,0,0,0-2.3,7.8,20.45,20.45,0,0,0-.1,4.3c.1,1.5.3,3,.5,4.2h0a25.3,25.3,0,0,0,2.9,8.1,28.84,28.84,0,0,0,2.3,3.4,18.23,18.23,0,0,0,2.7,2.9,18.47,18.47,0,0,0,12.4,5.1l.1.8c.2,1.7.4,3.5.5,5.2l.5,6.8c-6.7-.2-13.3-3.1-18.9-8.5a35.1,35.1,0,0,1-7.5-9.7l-.1-.2a58.59,58.59,0,0,1-2.6-5.7,33.45,33.45,0,0,1-1.7-6.4h0a7.77,7.77,0,0,1-.2-1.6v-.2c-.1-.5-.2-1.1-.3-1.6-.1-1.1-.2-2.2-.3-3.2a34.32,34.32,0,0,1,.3-6.4,36,36,0,0,1,3.2-11.8,32.43,32.43,0,0,1,6.6-9.7,26.86,26.86,0,0,1,7.7-5.4C1260.7,265.4,1262,269.5,1263.2,273.6Zm-5.1-16.1a28.72,28.72,0,0,0-9.3,6.4,39.14,39.14,0,0,0-7.3,10.9,47.34,47.34,0,0,0-3.8,20.2l.3,3.6c.1.6.2,1.2.3,1.7v.1c.1.6.2,1.1.3,1.7a40.08,40.08,0,0,0,1.9,7,49,49,0,0,0,2.8,6.1l.1.2a39.46,39.46,0,0,0,8.3,10.8c6.4,6.2,14.1,9.5,21.9,9.6.2,4.3.4,8.5.4,12.8a38.09,38.09,0,0,1-14.4-3.8,45,45,0,0,1-7.3-4.3,83.16,83.16,0,0,1-6.6-5.6,45,45,0,0,1-5.7-6.6,27.5,27.5,0,0,1-1.9-2.8l-.5-.8c-.8-1.2-1.6-2.5-2.3-3.8s-1.4-2.6-2-4c-.3-.7-.6-1.5-.9-2.3-.2-.6-.5-1.3-.7-1.9a44,44,0,0,1-2.4-8.8c-.1-.7-.2-1.3-.3-2a25.12,25.12,0,0,1-.4-2.7c-.2-1.5-.3-3-.4-4.5s0-3.3,0-4.6.1-2.9.2-4.4a64.91,64.91,0,0,1,1.6-8.7,60.49,60.49,0,0,1,2.7-8.2c.6-1.3,1.2-2.7,1.9-3.9s1.3-2.4,2.1-3.8a56.7,56.7,0,0,1,5-6.8,38.65,38.65,0,0,1,11.8-9C1255.2,249.5,1256.7,253.5,1258.1,257.5Zm-12.3-29.8c1.9,3.9,3.7,7.8,5.3,11.7a37.46,37.46,0,0,1-14.7,2,40.52,40.52,0,0,1-8.4-1.2,27.69,27.69,0,0,1-4.1-1.2c-1.3-.4-2.5-.9-3.9-1.4l-.2-.1a56.77,56.77,0,0,1-7.8-3.9c-1.1-.7-2.3-1.4-3.7-2.4-1.2-.8-2.4-1.7-3.6-2.6a31.09,31.09,0,0,1-3.3-2.9c-.6-.6-1.2-1.2-1.8-1.9-.4-.5-.9-.9-1.3-1.4a43.44,43.44,0,0,1-5.6-7.2h0a48.81,48.81,0,0,1-4.5-7.9,72.11,72.11,0,0,1-3.2-8.4c-.4-1.4-.8-2.8-1.1-4.3-.1-.7-.3-1.4-.4-2.2l-.1-.6-.3-1.5a49.08,49.08,0,0,1-.6-8.6c0-1.4.1-2.9.2-4.4s.3-2.9.5-4.2a54.72,54.72,0,0,1,2.1-8.2,38.63,38.63,0,0,1,7.5-12.8c3,3.1,5.9,6.2,8.8,9.4a27.27,27.27,0,0,0-6.1,9.4,41.9,41.9,0,0,0-1.9,6.3,42.27,42.27,0,0,0,1.1,20,43.05,43.05,0,0,0,6,12.9,35.26,35.26,0,0,0,4.5,5.7,50.28,50.28,0,0,0,4.8,4.5l.3.2a42.83,42.83,0,0,0,11.8,6.8,35.17,35.17,0,0,0,12.9,2.5A29.22,29.22,0,0,0,1245.8,227.7Zm-31.1-50.2.2.3c2,2.6,4,5.3,5.9,7.9.4.5.7,1,1.1,1.5.2.3.5.7.7,1,1.9,2.8,3.8,5.6,5.6,8.4l2,3.1c1.6,2.6,3.2,5.2,4.8,7.9l1,1.7a15,15,0,0,1-10-.2,27.51,27.51,0,0,1-3-1.4,18.08,18.08,0,0,1-2.9-1.9,21.07,21.07,0,0,1-4.9-5.4h0a21.69,21.69,0,0,1-3.9-13.5A13.54,13.54,0,0,1,1214.7,177.5Zm-4.5-5.8,2,2.6a18.16,18.16,0,0,0-5.1,12.3,25.76,25.76,0,0,0,4.5,15.9,25.33,25.33,0,0,0,5.8,6.4c1.1.8,2.3,1.6,3.5,2.3a19.64,19.64,0,0,0,3.6,1.6,21,21,0,0,0,6.9,1.3,15.73,15.73,0,0,0,6.5-1.3c.9,1.7,1.9,3.4,2.8,5.1l3.2,6.3c-6.3,2.4-13.5,2.2-20.7-.6a34.59,34.59,0,0,1-10.6-6.1l-.2-.2a58.93,58.93,0,0,1-4.5-4.2,40,40,0,0,1-4-5.2h0a39.37,39.37,0,0,1-5.5-11.8,35.38,35.38,0,0,1-1.6-12.1,35.29,35.29,0,0,1,2.3-11.5,23.37,23.37,0,0,1,5.1-7.9l3,3.5C1208.1,169.2,1209.1,170.5,1210.2,171.7Z" fill="#e0b3ce"/><path d="M1079.2,212.3c0-9-1.5-16.7-4.4-22.9a41.45,41.45,0,0,0-11.8-15.1,47,47,0,0,0-17.1-8.3,77.68,77.68,0,0,0-19.7-2.5,88.3,88.3,0,0,0-24.4,3.5,66.48,66.48,0,0,0-21.5,10.6A56.8,56.8,0,0,0,965,194.7a45.1,45.1,0,0,0-5.9,23.1,61.85,61.85,0,0,0,2.4,16.3,75.18,75.18,0,0,0,7.1,17.3,26.16,26.16,0,0,1-10,9.8c-4.7,2.9-9.2,4.3-13.5,4.3a13.58,13.58,0,0,1-9.4-3.8,29.25,29.25,0,0,1-6.8-9.5,58.23,58.23,0,0,1-4.1-12.8,65.08,65.08,0,0,1-1.5-13.6,56,56,0,0,1,9.7-32.4,82.78,82.78,0,0,1,25.3-23.9,128.49,128.49,0,0,1,35.3-14.6,162.39,162.39,0,0,1,39.7-5,142.11,142.11,0,0,1,34.1,4,91.57,91.57,0,0,1,28.8,12.1,67.23,67.23,0,0,1,20,20.1c5.1,8,7.7,17.6,7.7,28.6s-2.6,22.7-7.9,34.9a140.86,140.86,0,0,1-21.8,34.7,148.08,148.08,0,0,1-32.7,28.6,124.58,124.58,0,0,1-40.6,17.3c16.9,3.7,31,9.2,42.4,16.6s20.4,15.6,27.1,24.6a90.42,90.42,0,0,1,14.4,28.1,96.57,96.57,0,0,1,4.4,27.6c0,15.8-4,31.3-12.1,46.7s-19.3,29.1-33.8,41.2-31.6,21.8-51.2,29.1-40.8,11.1-63.6,11.1c-18.1,0-33.3-2.3-45.6-6.8s-22.3-10.3-29.7-17.3A63.27,63.27,0,0,1,857,508a65.84,65.84,0,0,1-5-24.1,68.45,68.45,0,0,1,2.9-19.3A53.6,53.6,0,0,1,864,447a48.07,48.07,0,0,1,15-12.6,42.36,42.36,0,0,1,20.6-4.8h5.6a26.48,26.48,0,0,1,5,.5c-5.5,4-10,10.6-13.5,19.9a75.63,75.63,0,0,0-5.3,26.9,62.42,62.42,0,0,0,4.4,23.1,65.28,65.28,0,0,0,12.4,19.9A58,58,0,0,0,927.9,534a62.8,62.8,0,0,0,25.9,5.3,81.41,81.41,0,0,0,34.7-8,97.52,97.52,0,0,0,30.6-22.9,116.72,116.72,0,0,0,21.8-35.4c5.5-13.7,8.2-29,8.2-45.7a141.48,141.48,0,0,0-3.2-29.4,86.15,86.15,0,0,0-10.9-27.1,82.21,82.21,0,0,0-20.3-21.9c-8.4-6.4-18.7-10.9-30.9-13.6a136.93,136.93,0,0,0,39.4-22.4,161.23,161.23,0,0,0,30-31.4,149.69,149.69,0,0,0,19.1-35.2C1076.9,234.4,1079.2,223,1079.2,212.3Z" fill="#e0b3ce"/></svg>