<svg id="Layer_1" data-name="Layer 1" xmlns="http://www.w3.org/2000/svg" viewBox="0 0 124.08 127.68"><title>two</title><ellipse cx="64.04" cy="59.08" rx="54.38" ry="51.99"/><path d="M114.61,67.63a1.42,1.42,0,0,0-.14.91C114.53,68.24,114.74,68,114.61,67.63Z" fill-rule="evenodd"/><path d="M114.93,68.55c0,.31-.28.57-.19.91C114.84,69.16,115.08,68.9,114.93,68.55Z" fill-rule="evenodd"/><path d="M113.79,70.8c-.15.3,0,.34-.06.82.13-.13.14-.31.21-.46S113.82,71,113.79,70.8Z" fill-rule="evenodd"/><path d="M108.21,78.33l-.29.28c.07.24-.09.37,0,.6A1,1,0,0,0,108.21,78.33Z" fill-rule="evenodd"/><path d="M114.6,70.27c-.1-.18-.34.47-.24.68.15,0,.09-.23.28-.45A.16.16,0,0,1,114.6,70.27Z" fill-rule="evenodd"/><path d="M107.66,79.53c-.13.34-.26.29-.43.41.07.21.23.19.44,0Z" fill-rule="evenodd"/><path d="M112.28,75.93c-.11-.17-.35.5-.21.78C112.32,76.52,112.07,76.14,112.28,75.93Z" fill-rule="evenodd"/><path d="M106,82.68c-.07.12-.13.39-.16.23-.17.12-.06.4-.11.59-.2,0-.39.3-.62.6.29.17,0,.73-.15,1.23.14-.24.22-.53.48-.69-.2-.11,0-.21,0-.64a.25.25,0,0,0,.23-.08,1,1,0,0,1,.34-.67C106.09,83,106.11,82.73,106,82.68Z" fill-rule="evenodd"/><path d="M111.82,77.15l-.26.32a.28.28,0,0,1,0,.34C111.67,78,111.94,77.39,111.82,77.15Z" fill-rule="evenodd"/><path d="M112.58,78.8a1.86,1.86,0,0,0-.21.92C112.51,79.43,112.78,78.9,112.58,78.8Z" fill-rule="evenodd"/><path d="M101.49,88.94c-.24.15-.45.56-.32.68A2.24,2.24,0,0,0,101.49,88.94Z" fill-rule="evenodd"/><path d="M111.42,81.65c-.14.31-.45.53-.37,1A2.24,2.24,0,0,0,111.42,81.65Z" fill-rule="evenodd"/><path d="M104.45,89.51c-.28.31-.1.38-.3.87a1.15,1.15,0,0,1,.27-.27C104.28,89.81,104.72,89.53,104.45,89.51Z" fill-rule="evenodd"/><path d="M110.58,85.17c.06.18.39-.48.66-.57C111.21,84.22,110.78,84.94,110.58,85.17Z" fill-rule="evenodd"/><path d="M108.73,88.24a5.11,5.11,0,0,0-.43,1c.28-.31.47-.67.73-1C109.12,87.84,108.65,88.61,108.73,88.24Z" fill-rule="evenodd"/><path d="M98.87,94.38c-.1-.27-.41.37-.57.48C98.37,95.1,98.71,94.5,98.87,94.38Z" fill-rule="evenodd"/><path d="M99,95.5c.26,0,.23-.39.54-.39,0-.21,0-.29-.24-.25C99.3,95.21,98.88,95.35,99,95.5Z" fill-rule="evenodd"/><path d="M93.72,97.45a1.43,1.43,0,0,0-.77.62A3.28,3.28,0,0,0,93.72,97.45Z" fill-rule="evenodd"/><path d="M111.89,87.23c-.22.11-.23.36-.42.49-.08.4.13.23.37,0Z" fill-rule="evenodd"/><path d="M109.75,89.21a2,2,0,0,0-.57.62C109.21,90,109.81,89.53,109.75,89.21Z" fill-rule="evenodd"/><path d="M110.79,89.18a.23.23,0,0,0-.09.19c-.56.65-.89,1.47-1.45,2.1-.14.49.13.32.1.63.36-.34.09-.42.3-.72s.23,0,.45-.33c-.18-.15.2-.63.27-1,.27-.12.34-.37.53-.54C111.05,89,110.65,89.66,110.79,89.18Z" fill-rule="evenodd"/><path d="M95.69,98.52c.18-.09-.17.36-.27.41,0,.31.24-.27.42-.21.23-.33,0-.25,0-.42a5.25,5.25,0,0,0-.66.36C95.1,98.94,95.51,98.69,95.69,98.52Z" fill-rule="evenodd"/><path d="M117.23,84.13c-.22.31-.52.57-.48,1A2.87,2.87,0,0,0,117.23,84.13Z" fill-rule="evenodd"/><path d="M117.53,84.16c-.07-.23-.34.49-.32.74C117.51,84.76,117.38,84.38,117.53,84.16Z" fill-rule="evenodd"/><path d="M116.67,85.5c0,.33.11.26.13.47.11-.16.13-.36.24-.51C117,85.26,116.85,85.34,116.67,85.5Z" fill-rule="evenodd"/><path d="M94.9,99.33c-.14-.23-.61.43-.89.52C94,100.24,94.67,99.57,94.9,99.33Z" fill-rule="evenodd"/><path d="M120.61,82.74a4.17,4.17,0,0,0-.28,1.6A6.38,6.38,0,0,0,120.61,82.74Z" fill-rule="evenodd"/><path d="M92.07,101.45c.07.11.57,0,.69-.31C92.69,101,92.19,101.13,92.07,101.45Z" fill-rule="evenodd"/><path d="M112.66,91.06c-.33.21-.88,1.37-.36,1C112.29,91.62,112.56,91.4,112.66,91.06Z" fill-rule="evenodd"/><path d="M106.42,95.72c-.21-.09-.8.68-.9,1.18.17-.13.15,0,.12.12C106.09,96.77,106,96,106.42,95.72Z" fill-rule="evenodd"/><path d="M117.06,88a2.09,2.09,0,0,0-.69,1.21C116.54,88.79,117,88.52,117.06,88Z" fill-rule="evenodd"/><path d="M90.58,102.38c-.12.07-.24.14-.19,0-.38.52-1,.63-1.36,1.16C89.71,103,90.31,103.2,90.58,102.38Z" fill-rule="evenodd"/><path d="M110,95.12c-.28.1-.22.49-.33.74a2.27,2.27,0,0,1,.31-.31C109.88,95.49,109.89,95.34,110,95.12Z" fill-rule="evenodd"/><path d="M88.88,103.68c.1-.27-.24.13-.38.06.28.14-.27.18-.46.51.29.09.29-.38.58-.29C88.7,103.85,88.76,103.71,88.88,103.68Z" fill-rule="evenodd"/><path d="M87.9,104.19c-.54.24-.8,0-1.12.41.55-.16,0,.34.5.2C87.16,104.52,87.72,104.47,87.9,104.19Z" fill-rule="evenodd"/><path d="M111.14,96.62c-.33.41-.7,1.08-.25.85C111.05,97,111.19,96.92,111.14,96.62Z" fill-rule="evenodd"/><path d="M85.2,105.78c-.39,0-.63.37-1,.45-.21,0,0-.19.14-.38-.63.16-.44.53-1.24.85.23.09.21,0,.59,0,.31-.32-.15,0-.33-.08C84,106.32,84.7,106.31,85.2,105.78Z" fill-rule="evenodd"/><path d="M96.21,105.39a1.66,1.66,0,0,0-.8.87C95.79,106,96.22,105.71,96.21,105.39Z" fill-rule="evenodd"/><path d="M103.05,103.11c-.28.29-.13,0-.41.19-.06.22.08.21.11.32C102.91,103.52,103,103.29,103.05,103.11Z" fill-rule="evenodd"/><path d="M95.2,109.25a3,3,0,0,0-1.07,1C94.45,109.86,95.22,109.5,95.2,109.25Z" fill-rule="evenodd"/><path d="M103.34,109a4.54,4.54,0,0,0-.69.45c-.25.34.57-.29.32,0C103.14,109.38,103.22,109.15,103.34,109Z" fill-rule="evenodd"/><path d="M109.13,106.38a2.89,2.89,0,0,0-.89,1.22C108.54,107.22,109.19,106.59,109.13,106.38Z" fill-rule="evenodd"/><path d="M85.14,113.69h-.43c0,.08,0,.15-.16.17C84.41,114.08,85.05,113.9,85.14,113.69Z" fill-rule="evenodd"/><path d="M101.73,111.66c-.45.24-.8.66-1.33.77-.12.22.17.13.25.19-.23.27-.72.44-.61.61.26-.11.38-.45.7-.47C100.74,112.37,101.44,112.21,101.73,111.66Z" fill-rule="evenodd"/><path d="M83.61,115.48c-.16.09-.36,0-.51.16s.08.29.38.18C83.9,115.54,83.2,115.77,83.61,115.48Z" fill-rule="evenodd"/><path d="M96.24,115.92c-.13-.16-1.49.59-1.43.87A5.18,5.18,0,0,1,96.24,115.92Z" fill-rule="evenodd"/><path d="M97.8,116.66a2.1,2.1,0,0,0-1,.75A3.92,3.92,0,0,0,97.8,116.66Z" fill-rule="evenodd"/><path d="M90.88,118.32a2.65,2.65,0,0,0-1.07.51A2.78,2.78,0,0,0,90.88,118.32Z" fill-rule="evenodd"/><path d="M87,119.81c-.27,0-.49.27-.76.31-.09.12.22,0,.38.06Z" fill-rule="evenodd"/><path d="M85.38,120.66c-.33,0-.59.22-.9.24C84.37,121,85.2,121,85.38,120.66Z" fill-rule="evenodd"/><path d="M68.91,118.86c-.11,0-.06.07,0,.09-.14.06-.28,0-.42,0s-.13.32-.53.28c-.35.21.57,0,.21.15C68.5,119.28,69.48,119,68.91,118.86Z" fill-rule="evenodd"/><path d="M67.75,119.32c-.14-.07-.27,0-.42.06s-.31-.1-.2-.16c-.18,0-.35.08-.53.14l.52.2C67.34,119.4,67.54,119.46,67.75,119.32Z" fill-rule="evenodd"/><path d="M65.37,118.64a1.75,1.75,0,0,0-.84.11A.92.92,0,0,0,65.37,118.64Z" fill-rule="evenodd"/><path d="M79.21,122.22c-.49.07-.4.36-.17.39C79.61,122.47,79.15,122.36,79.21,122.22Z" fill-rule="evenodd"/><path d="M80.19,122.46c-.59.15-1.46.19-1.67.59C79.07,122.81,79.69,123,80.19,122.46Z" fill-rule="evenodd"/><path d="M78.43,122.46a5.75,5.75,0,0,0-1.11.36,8.75,8.75,0,0,1,1.14-.19C78.54,122.55,78.29,122.55,78.43,122.46Z" fill-rule="evenodd"/><path d="M76.44,122.2c-1,.33-1.22.24-.52.52C76.38,122.48,76.3,122.37,76.44,122.2Z" fill-rule="evenodd"/><path d="M62.24,118.82a1.84,1.84,0,0,0-1,0A1.61,1.61,0,0,0,62.24,118.82Z" fill-rule="evenodd"/><path d="M57.22,118.15a5.37,5.37,0,0,1-1.37,0,2.27,2.27,0,0,0-1.08,0c.38.06.76.12,1.14.16a7.54,7.54,0,0,0,1.16,0c.1.06-.12.11-.24.15C57.51,118.7,57.59,118.37,57.22,118.15Z" fill-rule="evenodd"/><path d="M69.7,123.85c-.6,0-.21.36-.57.3C69.1,124.43,69.9,123.92,69.7,123.85Z" fill-rule="evenodd"/><path d="M69.13,124.06a1.76,1.76,0,0,0-1,.27A2.2,2.2,0,0,0,69.13,124.06Z" fill-rule="evenodd"/><path d="M52.43,117.77l-.36-.23c-.22,0-.14.11-.37.15C52,117.69,52.15,117.84,52.43,117.77Z" fill-rule="evenodd"/><path d="M61.59,123.39c-.18.09.1.2-.38.27C61.74,123.77,62.41,123.37,61.59,123.39Z" fill-rule="evenodd"/><path d="M44.81,124.54a.87.87,0,0,0-1.12-.1A5.08,5.08,0,0,0,44.81,124.54Z" fill-rule="evenodd"/><path d="M33.74,119.83c-.37-.37-.52,0-1-.46-.13-.25.46.12.65.1a1.37,1.37,0,0,0-1.08-.32c.27.16.36.25.33.36-.58-.07-.87-.55-1.44-.65.23.16.5.26.65.53a2.75,2.75,0,0,1,1.49.77C33.47,120,33.07,119.65,33.74,119.83Z" fill-rule="evenodd"/><path d="M29.78,117.62l-.3-.39c-.48-.12-.44-.2-.76-.19.27.35,1.06.42.55.46A.43.43,0,0,0,29.78,117.62Z" fill-rule="evenodd"/><path d="M28.41,116.49c-.06.09-.48,0-.82-.13l.22.29a.6.6,0,0,1,.33.16c.11-.12,0-.15.43,0C28.43,116.67,28.58,116.68,28.41,116.49Z" fill-rule="evenodd"/><path d="M26.93,115.32c-.43-.11-.64-.46-1.05-.6.34.38.86.58,1.15,1C27.34,115.72,27,115.56,26.93,115.32Z" fill-rule="evenodd"/><path d="M25.14,114.46c.34.14.51.15.3-.14a1.47,1.47,0,0,0-.43-.23C25,114.15,25,114.28,25.14,114.46Z" fill-rule="evenodd"/><path d="M25,114.15c-.13-.19,0-.17-.13-.38s-.21.07-.37-.13c-.15,0,.06.23.13.38Z" fill-rule="evenodd"/><path d="M24.15,114c.12,0-.43-.79-.81-.87A3.73,3.73,0,0,0,24.15,114Z" fill-rule="evenodd"/><path d="M19.29,109.08c-.32-.09-.48-.31-.76-.44.07.29.42.36.5.66C19.28,109.39,19.55,109.49,19.29,109.08Z" fill-rule="evenodd"/><path d="M16.64,106.51a1.54,1.54,0,0,0-.63-.73l.18.46Z" fill-rule="evenodd"/><path d="M15.2,104.77c-.27-.39-.58-.76-.86-1.14s.32.68,0,.44c.16.25.22.14.34.2S14.89,104.69,15.2,104.77Z" fill-rule="evenodd"/><path d="M13.8,103.84c-.11-.25-.47-.36-.57-.62-.1.14.09.39.36.76C13.8,104.09,13.53,103.65,13.8,103.84Z" fill-rule="evenodd"/><path d="M12.7,101.31a6.13,6.13,0,0,1-1.23-1.74c-.49-.26.25.86.24,1.21.27,0,.18-.18.71.43.14.51,0,.52.36,1C13.05,102.19,12.92,101.93,12.7,101.31Z" fill-rule="evenodd"/><path d="M12.16,101.49c-.25-.45-.64-.82-.86-1.29A2.12,2.12,0,0,0,12.16,101.49Z" fill-rule="evenodd"/><path d="M10.53,99.53c0-.2-.2-.34-.23-.55-.31-.21-.06.37-.41.08a1.69,1.69,0,0,0,.49.55C10.21,99.13,10.11,99.18,10.53,99.53Z" fill-rule="evenodd"/><path d="M8.65,96.6A2.32,2.32,0,0,0,8.46,96c0,.13-.28-.09-.21.23C8.41,96.22,8.38,96.37,8.65,96.6Z" fill-rule="evenodd"/><path d="M.84,57a5.26,5.26,0,0,0,.09-1.78,7,7,0,0,0-.4,1.47C.62,56.85.74,56.84.84,57Z" fill-rule="evenodd"/><path d="M2.32,45.48c.23-.2.12-.55.26-.79C2.51,44.47,2.21,45.2,2.32,45.48Z" fill-rule="evenodd"/><path d="M6.94,34.37c.14.09.58-.81.62-1.26A9.21,9.21,0,0,0,6.94,34.37Z" fill-rule="evenodd"/><path d="M9.84,29.41a10.77,10.77,0,0,0,.7-1.69C10.24,28.18,9.74,29.1,9.84,29.41Z" fill-rule="evenodd"/><path d="M16.57,20a11,11,0,0,0,.9-.91C17.41,19,16.69,19.62,16.57,20Z" fill-rule="evenodd"/><path d="M25.92,12.46c0-.11.17-.36.15-.47a1.72,1.72,0,0,0-.52.49C25.76,12.41,25.7,12.54,25.92,12.46Z" fill-rule="evenodd"/><path d="M62,15.16c.68.16,1.44-.17,2.12,0C63.8,14.81,62.63,15.07,62,15.16Z" fill-rule="evenodd"/><path d="M64.21,15a.93.93,0,0,0,.9,0A2.49,2.49,0,0,0,64.21,15Z" fill-rule="evenodd"/><path d="M45.12,2.28c.08-.1.06-.17-.15-.19a11.59,11.59,0,0,0,1.81-.53,8.67,8.67,0,0,0-2.27.56C45,2.11,44.83,2.25,45.12,2.28Z" fill-rule="evenodd"/><path d="M48.78,2c0-.13.48-.38.08-.42C48.41,1.7,48.42,2,48.78,2Z" fill-rule="evenodd"/><path d="M47.7,1.43c-.12.1.2.09.36.13.29-.16.4-.27.43-.37C48.22,1.18,48,1.5,47.7,1.43Z" fill-rule="evenodd"/><path d="M75.46.79a1.14,1.14,0,0,0,.87,0A1.83,1.83,0,0,0,75.62.7C75.71.77,75.54.77,75.46.79Z" fill-rule="evenodd"/><path d="M77.37.76a.92.92,0,0,0,.79-.05C77.67.57,77.42.61,77.37.76Z" fill-rule="evenodd"/><path d="M79.32,1.58c1,.33,2,.67,2.94,1-.13-.26.46,0,.91,0A16.48,16.48,0,0,0,81.31,2C80.71,1.89,80.1,1.72,79.32,1.58Z" fill-rule="evenodd"/><path d="M82.74,2.65A3.75,3.75,0,0,0,84,3,2.09,2.09,0,0,0,82.74,2.65Z" fill-rule="evenodd"/><path d="M84.45,3.19a7,7,0,0,0,1.33.53A1.91,1.91,0,0,0,84.45,3.19Z" fill-rule="evenodd"/><path d="M85.52,3.94a3.29,3.29,0,0,1,1,.66c.38,0,.6.09.44-.26C86.69,4.56,86,4,85.52,3.94Z" fill-rule="evenodd"/><path d="M87.39,2.21c-.23.09.59.4.87.44-.12-.18-.32-.25-.48-.38S87.59,2.37,87.39,2.21Z" fill-rule="evenodd"/><path d="M91.57,6.13c-.12,0-.08,0,0,.07l.14.2c.4,0,1.34.81,2.1,1-.1-.12-.1-.17,0-.16-.54-.22-1-.53-1.57-.71-.38-.49.32,0,.41-.14-.16-.26-.63-.09-.79-.35C91.62,6,92.08,6.56,91.57,6.13Z" fill-rule="evenodd"/><path d="M89.4,3.14a9.5,9.5,0,0,0,2.2.9A15.84,15.84,0,0,0,89.4,3.14Z" fill-rule="evenodd"/><path d="M94.3,7.68c.34.2.16.43.64.72-.07-.24.08-.27.62,0A4.45,4.45,0,0,0,94.3,7.68Z" fill-rule="evenodd"/><path d="M95.2,7.91a5.12,5.12,0,0,0,1.52.8A5.72,5.72,0,0,0,95.2,7.91Z" fill-rule="evenodd"/><path d="M99.59,11.09c.17,0-.15-.3.06-.22-.63-.52-1.55-.7-2-1.38C97.34,9.85,99.08,10.49,99.59,11.09Z" fill-rule="evenodd"/><path d="M97.56,9.22a8.86,8.86,0,0,0,2.2,1.36A8.47,8.47,0,0,0,97.56,9.22Z" fill-rule="evenodd"/><path d="M99.55,9.93c-.21.12.71.53,1,.7C100.33,10.29,99.81,10.24,99.55,9.93Z" fill-rule="evenodd"/><path d="M99.75,10.41a4.15,4.15,0,0,0,1.71,1.2C100.78,11.32,100.44,10.69,99.75,10.41Z" fill-rule="evenodd"/><path d="M102.26,12.85c-.37-.63.38-.17.66.22.12.34-.37-.05-.66-.22.09.36.54.38.64.72.44-.11,1.92.74,2.59,1.15.2-.23-1.38-1-1.56-.92.13-.22-.63-.67-.22-.62a20.53,20.53,0,0,0-2.93-1.25A3.77,3.77,0,0,0,102.26,12.85Z" fill-rule="evenodd"/><path d="M105,14.82c-.14-.05,0,.23.1.38a5.57,5.57,0,0,1,.83.58c.09,0,0-.2.26,0l-.46-.57C105.38,15,105.37,15.36,105,14.82Z" fill-rule="evenodd"/><path d="M105.77,16c.28.25,1,.77.67.25C106,16,106.05,16.18,105.77,16Z" fill-rule="evenodd"/><path d="M106.69,16.24c-.3,0,.37.41.36.65.2,0,.11-.13.52.22C107.41,16.72,107,16.54,106.69,16.24Z" fill-rule="evenodd"/><path d="M115.5,63.18c.11-.14.17.35.3-.06-.07-.19,0-.35-.09-.54-.08.84-.72-.43-.24.5a14,14,0,0,1-.35,2.67c.15.43.08.56-.09.71,0,.1.11-.11.16,0,.06.4-.17.09-.24.47.19.13.15.34.44.94a2.91,2.91,0,0,0-.13-1.19c.25-.27.12-.61.1-.93.43-.62.29-1.69.48-2-.15-.49-.35.49-.34.69C115.33,64,115.68,63.63,115.5,63.18Z" fill-rule="evenodd"/><path d="M113,71.72a5.25,5.25,0,0,0-.27,1.59c.14-.34.18-.06.31-.32C112.73,72.71,113.05,72.22,113,71.72Z" fill-rule="evenodd"/><path d="M112.46,74.17c-.08.29,0,.42.17.17,0,.15-.11.25-.19.36,0,.4.12.33.14.59a7.16,7.16,0,0,0-.4,1.79c-.6.55-.39,1.43-.8,2.07-.14-.09-.07-.37,0-.65s.11-.57,0-.67a4.45,4.45,0,0,1-.45,1.39,5,5,0,0,0-.41,1.51.8.8,0,0,0-.43.9c-.26.17-.39-.06-.3-.49-.17.1-.1.32-.22.44.2-.12.1.55.38.2-.47.54-.37,1.37-.76,2,.26-.9.24-1.56.32-1.75-.38.14-.39,1.43-.64,2-.21-.07-.46.57-.59.91,0,.11.15-.06.14.09a2.47,2.47,0,0,0-.1.29c-.07,0-.06-.19-.22,0-.37.74-.59,1.57-.92,2.34-.07,0-.07,0-.15,0,.31-.84.32-1.18.59-2a17.56,17.56,0,0,0-1,1.79c0,.3.18-.24.32-.26a1.65,1.65,0,0,1-.12.52c-.34.32-.35-.08-.59.31,0,.2.07.15,0,.37.08-.06.09-.18.12-.28.2-.13.44.1.35-.23.49-.37.2.28,0,.59.16-.5-.42.4-.38,0-.2.18-.1.58-.28.77s0-.51.13-.76-.31.07-.27-.2c-.28.24-.31.66-.6.89-.14-.13.1-.41,0-.7-.38.15-.31.65-.67.83,0,.24.29-.33.51-.34a4.41,4.41,0,0,1-.5.72c.37-.27.33,0,.42.2a2.36,2.36,0,0,0-.12.28c-.3.32,0-.31-.3,0a3.57,3.57,0,0,1-.71,1.34c-.36.48-.82.78-.88.62,0,.3-.3.51-.16.63-.41.32-.3,0-.58.13.33-.36.49-.86.85-1.18a4.66,4.66,0,0,0-1.32,1.52c-.18.1,0-.22-.3,0a2,2,0,0,1-.85,1.18c.13.19-.14.5.19.45-.31.09-.31.61-.79.84.4,0-.46.67-.3.81-.56.42.1-.48-.32-.21A1.2,1.2,0,0,1,99,97c-.09,0-.09-.19-.13-.29.58-.82,1.4-1.36,1.66-2.13-.25.06-.2.42-.49.44-.52,1.27-1.87,1.62-2.45,2.83a4,4,0,0,0-.83.63l-.88.78c-.58.51-1.1,1-1.45,1-.3.23-.58.48-.89.69,0,.39-.56.67-.91,1-.07,0,0-.19-.19-.13.09.21-.45.61-.51.43-.71.83-1.73,1.12-2.48,1.87.3-.08-.09.3-.18.44s.22-.4.08-.43a14.58,14.58,0,0,0-2.2,1.44c-.12-.3-1,.22-1.09.51-.23-.05-.34.14-.55.13-.18.73-2.2.87-3,1.71-.89-.1-2,1.31-2.77,1a3.22,3.22,0,0,0,.77-.32c-.26-.15-1,.47-1.75.61-.29.06-1.34.15-1.31.42-.15.15-.38,0-.56,0A4,4,0,0,1,76,110a3.63,3.63,0,0,0-.92.33,25.21,25.21,0,0,0-3.5.71,50.63,50.63,0,0,1-22.68-1.68A47.92,47.92,0,0,1,29.5,97.81,48.58,48.58,0,0,1,17.29,78.64a45.85,45.85,0,0,1-1.6-5.52,21.16,21.16,0,0,1-.52-2.84l-.44-2.86-.16-2.89a21.61,21.61,0,0,1-.08-2.9,46.53,46.53,0,0,1,.42-5.78c.14-.24.2,0,.27.16a12.4,12.4,0,0,0-.36,1.69c0,.58,0,1.16,0,1.75a30.6,30.6,0,0,1-.17,3.46c.18.18.17.3.23.65-.08.09,0-.15-.13-.28-.09.36.24.74,0,1.09.12.28.22,0,.34.2a4.57,4.57,0,0,0-.19,1.79c0,.34.05.68.1,1a7.42,7.42,0,0,0,.28,1,11,11,0,0,0,.46,3c0,.12-.06.14-.11.1.18.79.47,1.71.65,2.58A8.81,8.81,0,0,0,17,76.23c-.06.27-.15.06-.09.38.07.08.09-.11.13-.21a10.9,10.9,0,0,0,.88,2.71c.18.43.36.86.51,1.31s.28.94.44,1.44c.34.07.53,1.09.74,1.55.35.76.85,1.18.8,1.62a4.68,4.68,0,0,1,1,1.89c.27.32,0-.26.32,0,.12,0,.16.55,0,.38.44.32.5.83.85,1.18,0,.19-.05.14-.15.08a3.2,3.2,0,0,1,.59.75,6.06,6.06,0,0,0,.6.74c-.23.22,0,.06.17.53.09-.06.3.07.43.25-.05.05-.06.17,0,.33.51.17.66,1.13,1.43,1.64,0,.17,0,.21-.12.19a34.2,34.2,0,0,0,2.64,2.72,4.3,4.3,0,0,1,.47.65,1.38,1.38,0,0,0,.69.47c.21.48.77,1.17,1.09,1.18a24,24,0,0,0,1.77,1.73l1.94,1.48c1.24,1.06,2.68,1.85,4.09,2.86.18.05.13,0,.25,0,.16.25.27.27.55.62a26.15,26.15,0,0,1,2.85,1.43c.51.28,1,.57,1.54.81a11.47,11.47,0,0,0,1.64.45c.13.13,0,.16.15.29a13.45,13.45,0,0,1,2.35.86c0-.14-.05-.5.74-.4.17.22-.06.27.38.46.09.16-.56.16-.64,0-.39.11.47.44.48.23,1,.6,2.22.47,3.2,1.1a1.7,1.7,0,0,1,1.48.34c.2,0,.13-.09,0-.16,1,.31,2,.38,3,.71.1-.06,0-.14.14-.19,1.42.33,3.47.09,4.52.59.09,0,0-.09-.07-.13a12.23,12.23,0,0,0,2.42,0,15.2,15.2,0,0,1,2.43.09c.29-.06.62-.07,1-.13s.75-.11,1.15-.15l2.35-.23c.34-.15-.09-.19.25-.33a.74.74,0,0,1,.36,0c-.15.25.13.28.51.23a7.88,7.88,0,0,1,1.11-.23c.13-.27-.4.06-.55,0s.38-.23.51-.3c.66.4,1.79-.22,2.7-.21.32-.17-.11-.17.21-.35.11-.06.24,0,.35-.08s-.12.17-.22.27a.79.79,0,0,0,.77-.27c0-.09-.32-.06-.05-.25-.19,0-.32.19-.53.08.26-.24.58-.13.82-.45.33.14.59-.07.88-.13.13.17-.57.15-.73.39.61.08-.21.19-.39.36.9,0,.74-.31,1.58-.38.13-.13-.27-.08-.23-.19a.42.42,0,0,1,.27,0c.1-.16,0-.17-.21-.11.37-.38.82-.44,1.18-.81.29,0,.44-.06.41.12.37-.14.65-.57,1-.6.22,0-.2.29-.26.38.32,0,.47-.32.36-.38.2-.24.54-.06.74-.3.12,0-.13.25.25.16.26-.48,1.48-1.14,1.61-.84.35-.19.76-.22,1-.62.6.14,1-.66,1.37-.47.19-.71,1.56-.62,2.06-1.37a8.11,8.11,0,0,0,1-.53,5,5,0,0,1,1-.61c.26,0-.37.29.08.15.78-1.08,2.06-1.31,2.92-2.26-.15,0-.26.16-.43.18s0-.17-.09-.14a13.44,13.44,0,0,0,1.39-.87c0-.15-.17,0-.28.08s.33-.25.31-.51c.09.07.18,0,.37-.11.07-.7,1.19-.84,1.55-1.59.32-.13.39,0,.21.26.28,0,.38-.32.59-.44,0-.13-.2,0-.32,0a1.56,1.56,0,0,1,.39-.68c.15,0,.14.09,0,.33a8.52,8.52,0,0,1,1.29-1.45c.12,0,0,.28.29,0,0-.6,1.53-1.79,1.72-2.48.28,0,.68-.65.47-.06.27-.29.21-.39.12-.52.22-.32.6-.11.78-.67-.22,0-.23.3-.4.39,0-.13,0-.17,0-.16.56-.74,1.36-1.28,1.6-2.29.17.17.19.09.53,0,.05-.32-.25-.08-.44,0,0-.64.68-.72.71-1.32.43-.39.12.39.42.21.06-.39-.17-.32-.22-.53.07-.39.32-.21.36-.42.11,0,0,.22,0,.37.22-.25.39-.75.18-.68.58-.4.36-.53.87-.76a2.82,2.82,0,0,1,.61-1.16c0-.14-.3.11-.19-.36l-.39.3c-.15.3.12.27-.24.5,0,.21.05.16.14.1-.3.49-1.19,2.07-1.35,1.54-.18.1-.09.39-.16.57-.3.17-.28-.13-.15-.46-.15.13-.62.94-.26.73-.16.38-.51.6-.53,1.1-.17.08,0-.45-.09-.43-.29.17-.54,1.17-.69.72-.22.13-.1.35,0,.26a2.53,2.53,0,0,1-.71.71c0,.12.12.08.1.22s-.28.32-.36.54a.29.29,0,0,1-.1-.22,7.81,7.81,0,0,1-1.38,1.95c-.21.09.16-.23.1-.41-.25.13-.27.49-.59.56a1.53,1.53,0,0,1,.73-.81c-.09-.46.8-1,1-1.56-.83.87-1.35,1.83-2.07,2.51,0,.27.22-.17.36-.14-.23.59-.66.18-.89.77.15-.1.28-.23.43-.34,0,.34-.37.32-.38.66-.21.12-.13-.07-.08-.22-.12.1-.17.26-.34.3.09.32-1.09,1.35-1.63,1.82-.24,0,.33-.23.31-.46l-.6.71-.69.62a15.77,15.77,0,0,1-1.44,1.15c-.11,0,0-.21.08-.35-.41.09-.45.51-.34.59-.37.4-.15-.2-.6.08s.38-.07.24.19c-.29.24-.52.56-.8.81a2.56,2.56,0,0,1-1,.55c-.06.41-.4.49-.74.85-.3.12-.17-.08-.41,0a5.53,5.53,0,0,1-1.31,1.12c-.18-.06.32-.37.44-.48a1.3,1.3,0,0,0-.61.37,4,4,0,0,0-.59.57c-.34.09,0-.21-.37-.12.15-.25.53-.35.44-.51a10.42,10.42,0,0,0-2.3,1.75c-.47.14.17-.39-.23-.31a11.43,11.43,0,0,1-1.21.73,6.29,6.29,0,0,1-1.34.41c-.33.46-.7.38-1,.44s.18.11-.07.32a3.43,3.43,0,0,0-1.29.54c-.43.25-.84.35-.94.2a17.12,17.12,0,0,0-3.2,1.16c-.56,0-1.07.3-1.65.13-.33.32-.73.19-1,.55-.32,0-.13-.15-.38-.17a23.12,23.12,0,0,1-5.95.81c-.05.12-.26.25.08.2a29.74,29.74,0,0,0-5,.11c-.41.1-.78-.26-1.18-.26-.08,0,.1.13,0,.17a4.34,4.34,0,0,0-1.89-.14l-.47-.29a8.31,8.31,0,0,1-1.32,0c-.43-.07-.86-.15-1.28-.24-.85-.18-1.69-.4-2.52-.6-.06,0,0,.08-.12.1-1.44-.43-2.86-.91-4.32-1.28s-2.8-1.09-4.17-1.66c-.54.06-2.25-1.15-3.41-1.72a3.33,3.33,0,0,1-1.5-1l-.39,0c-.11-.45-1-.51-1.31-1.07a7,7,0,0,1-1.06-.53c-.34-.25-.68-.55-1-.84a14.92,14.92,0,0,0-2.17-1.62l-.15-.34a55.09,55.09,0,0,1-4.75-4.55c-.4-.9-1.45-1.34-1.75-2.31-.53-.34-.6-1-1.11-1.32-.2-.35-.4-.69-.62-1l-.34-.49-.3-.52c-.41-.69-.85-1.36-1.31-2l-.65-1.15L22,83.15c-.38-.81-.77-1.6-1.17-2.4s-.64-1.66-1-2.48a21.3,21.3,0,0,1-.82-2.53l-.24-.31c-.08-.14,0-.16.1-.1-.28-.91-.5-1.7-.72-2.49-.11-.4-.25-.79-.33-1.21s-.16-.86-.27-1.34l.13-.35c-.08-.35-.32-.11-.25-.67.06-.1.05.14.15.25,0-.24-.07-.61-.2-.6a55,55,0,0,1-.34-10.5,8.05,8.05,0,0,1,.11-1.3l.17-1.29.32-2.6.58-2.54a20.44,20.44,0,0,1,.62-2.54A46.72,46.72,0,0,1,29,29.91l.09-.29c.71-.64,1.41-1.32,2.07-2a8.72,8.72,0,0,1,2.2-1.88c.24-.24.32-.65.53-.48a3,3,0,0,1,1.22-1l.2-.36A16.86,16.86,0,0,0,37,22.67c1.43-.74,2.74-1.76,4.21-2.45.72-.39,1.45-.77,2.18-1.13a14.34,14.34,0,0,1,2.31-.71L46,18.1a2.63,2.63,0,0,0,1.63-.66c.17,0,.1.11.29.12.15-.37.49-.25.76-.22a10.47,10.47,0,0,1,2.85-.94c.16,0,.17.1.11.19.26,0,.24-.39.75-.31.07-.05-.05-.08-.1-.12.25-.11.53,0,.77-.22.18,0,.1.1,0,.17a4.39,4.39,0,0,1,1.38-.44c.26.18-.28.16-.51.33,1-.35,2.07-.64,3.12-.92l.44.21c-.08.19.25-.12-.17-.17a9.7,9.7,0,0,1,1.6-.38c.12.18.75.08.34.25.3,0,.3-.26.89,0,.41-.19-.22-.12-.35-.16.64-.24,1.25-.09,1.89-.35.09.07-.1.1-.19.17.17,0,.36-.08.52.12-.15-.25.32-.08.66-.25a6.66,6.66,0,0,0,2.4,0,9.84,9.84,0,0,1,1.19-.07,2.66,2.66,0,0,1,1,.3c.35-.33,1.29-.1,1.87-.09-.08.26-.79-.05-1.13.06.13.1.29.09.41.2-.53,0-1.08.19-1.59.18.06-.2-.27-.28-.65-.25a9.25,9.25,0,0,0-1,.17,10.6,10.6,0,0,0,3.68.16c.07.09-.19.11-.32.16.55,0,1.68.21,1.79-.16.35,0,.18.2.38.28,1,0,1.67.17,2.87.15.66.18,1.33.36,2,.48a10.14,10.14,0,0,0,2.1.41,7.21,7.21,0,0,0,2.67.57,16.71,16.71,0,0,0,3.18,1.25,7.69,7.69,0,0,1,3.28,2c-.19-.75,1.35.49,1.52,0a2.15,2.15,0,0,0,.75.26.89.89,0,0,1,.58.49,10.79,10.79,0,0,1,4.67,3.72c.28.08.58.17.58,0a1.47,1.47,0,0,1,.56.77c.36.07.49.33.71.52.26-.07.44.13.74.13-.05-.21-.33-.22-.41-.4a6.68,6.68,0,0,1,1.75,1.59,10.74,10.74,0,0,1,1.43,2.13.84.84,0,0,1,.58.21,2.7,2.7,0,0,1,.52.68,13.44,13.44,0,0,1,3.54,2.92l.06.63c.15-.28.62.65,1,1,0,.07,0,.13-.15.08.81,1.18,1.63,2.26,2.4,3.17.37.67.79,1.45,1.25,2.19a23,23,0,0,0,1.38,1.91,18.91,18.91,0,0,0,1.89,3.42,20.28,20.28,0,0,1,1,1.84,12.94,12.94,0,0,0,1,1.61c-.09-.39,0-.42.11-.64.2.25.16.54.36.8,0-.52-.26-.71-.16-1-.41-.44-.22-1.41-.56-1.52-.14-.22,0-.5,0-.75-.27-.63-.53-1.25-.76-1.88.41.52.51.78,1.12,1.49-.47-1.18-1-2.58-1.63-4-.15-.35-.3-.71-.48-1.06l-.6-1c-.4-.67-.82-1.31-1.25-1.91a1.73,1.73,0,0,1-.27-.8c-.07,0-.12.08-.15.17a6.79,6.79,0,0,0-.5-.81c.13-.58-1-1.34-1.58-1.7,0-.33.32,0,.6.19-.2-.23-.32-.67-.17-.72.42.37.33.52.73.7,0-.26-.49-.31-.4-.62-.27-.3-.22,0-.44-.26a1.36,1.36,0,0,1-.21-.37c.13-.06.48.27.6.19.07.08.1.19.19.26-.35-.09.28.6.52.92,0,.21-.08.14,0,.36.6.73,1,.72,1.48,1.46-.11.14-.58-.53-.82-.71.15.35.57,1,.66.77a10.11,10.11,0,0,0,1.7,2.67c-.14-.62-.73-1.11-1.1-1.65a3.09,3.09,0,0,1,1.28,2,4.62,4.62,0,0,1,1.14,2.24,26.18,26.18,0,0,1,1.73,3.53,38.15,38.15,0,0,0,1.31,3.71c.07-.59-.22-1.14-.06-1.75a3.91,3.91,0,0,1-.3-1.85c-.1-.19-.13-.06-.22-.19.16-.51-.28-.9-.31-1.38,0-.23.21,0,.39.26a8.29,8.29,0,0,0-.56-1.68c-.05-.46.26.16.25-.17-.16-.86-.62-1.21-1-2.15.12-.34.67.69.92,1a1.75,1.75,0,0,1-.06-.56c-.07-.09-.06.06-.08.14-.25-.4-.17-.69-.45-.81,0-.22.1-.13.09-.37a12.14,12.14,0,0,1-1-2c-.21-.22-.32-.18-.32.1a1.72,1.72,0,0,1-.43-.56,1.24,1.24,0,0,1,.3-.56,5.26,5.26,0,0,0,1.73,2,18.23,18.23,0,0,1,1.51,3.93c.21-.43.45.59.61,1.14-.12.2-.19-.56-.38-.73,0,.61.58,1.11.82,1.68,0,.45-.27-.21-.13.37.31.07.7,1.6.82,2.41a11.55,11.55,0,0,1,.83,2.31c.3,0-.13-.82-.17-1.13a13.2,13.2,0,0,1,.69,1.76,9.19,9.19,0,0,1,.27,2.3c.47.93.64,4.24,1.29,4.49-.06.86.33,1.18.23,1.88-.14,0-.12-.46-.3-.37.37,1.86.87,3.73,1.45,3.89.11-.44.21-1.23.43-1,.15-1,0-2.64.54-2.94-.26-.48-.2-1.36-.47-1.47a1,1,0,0,0,.1.49c-.15.23-.11-.06-.22-.37a1.74,1.74,0,0,0,.13-1c.08-.35.18-.23.29.13,0-.31,0-.6-.16-.61.2-.76-.31-2.44-.63-3.58a7,7,0,0,0-1.19-4l0-.24a9.33,9.33,0,0,1,1.29,2.42c.09-.25,0-.48.07-.73-.92-2-1.08-3.22-1.86-5.12,0-.07.08,0,.09-.13a7.83,7.83,0,0,0,1,2.05c0-.33-.17-.62-.14-1-.13.17-.25-.14-.26-.58a.21.21,0,0,1-.33,0,5.29,5.29,0,0,0-.37-1.32c-.17-.41-.42-.67-.53-.48-.22-.25.22-.19-.06-.6.06-.09.24.44.32.19-.13-.47-.58-.79-.64-.61-.16-.29.13-.31.1-.63-.33-.58-.32-.15-.56-.49s0-.43.08-.26c-.09-.5-.3-.32-.4-.4s-.09-.64,0-.74c.24.23.28.51.47.75-.09-.72-.49-.93-.63-.84a4.44,4.44,0,0,0-1.13-1.92c-.14-.6.24,0,.23-.31a11.42,11.42,0,0,1,.67,1.3c0-.48.17-.53.48-.12,0-.32-.21-.56-.31-.54.17-.12-.18-.55,0-.74a7.54,7.54,0,0,1-1.13-1.92c0-.21.48.51.39.76.08.1.08,0,.08,0l.18.2a3.24,3.24,0,0,0-.67-1.3c0-.28.32-.09.38-.38-.27-.17-.21-.21-.54-.59-.1-.45,0-.35,0-.65-.19-.25-.23-.17-.34-.26-.07-.34.14-.09,0-.53a10.21,10.21,0,0,1-.53-1l-.54-1c0-.35.24.21.57.43-.07-.36-.5-.59-.5-1-.06,0-.26-.17-.26,0a16,16,0,0,0-1.39-2.3c-.52-.75-1-1.51-1.49-2.25-.13-.07,0,.15,0,.28a2.61,2.61,0,0,1-.67-.6c.3-.73-1.54-1.84-2-2.73.68-.09,1.31,1.07,2.1,1.73-.19-.5-.81-.85-.67-1.16l-.64-.48c-.12-.28,0-.26,0-.4.18.27.54.44.64.76,0-.25.27.19.47.15,0-.63-1-.72-1.07-1.36a13.16,13.16,0,0,0-1.57-.9c-.22-.44,0-.3.29-.18-.08-.43-.48-.65-.72-1,0,.13-.21.11-.6-.18.12.21.4.31.4.6a2.43,2.43,0,0,1-.79-.93l-1-.61c.06-.3.3.05-.23-.58-.29-.51.36.07.12-.38-.44.13-.78-.47-1.55-.81-.47-.55-1-1.06-1.43-1.63a6.82,6.82,0,0,1-2-1c-.31-.46.46.12.43-.06A5,5,0,0,0,100.54,13c.83.74,1.41.62,2,1,.1.19,0,.25-.07.22.17.27.7.41.53.17.48.92,2.67,1.56,3.29,2.86a9.79,9.79,0,0,1-3.13-2.36c-1-.11-2.12-1.34-3.39-2.19a1.59,1.59,0,0,0,1.1-.09c-.38-.07-.57-.33-.93-.42-.54-1-1.32-.72-1.87-1.65-1-.53-.69-.35-1.61-.89.21.26-.14.07,0,.23a2.82,2.82,0,0,0-.9-.39c-.35-.42.27-.14.57.06,0-.21-1.28-.75-1.36-.58-.39-.27-.89-.39-1.14-.84-.55-.38-1.38-.39-1.87-.85-.24-.44.5-.25.93-.26-.75-.42-1.23-.37-2.25-.94-.29-.33-.06-.26-.53-.46-.43,0,.63.38.19.34a4.52,4.52,0,0,0,1,.45c0,.27,0,.18.52.51.06.11-.17,0-.3,0-.31-.11-.42-.48-.73-.59,0,.07-.31,0-.23.12a8,8,0,0,1-1-.54c-.1-.18,0-.16.31,0s0,.1.24.27c.12-.08.34-.11.11-.37-1.8-.15-3.17-.91-4.76-1.27C85,4.42,84.9,4.3,85,4.29a6.71,6.71,0,0,1-2.16-.4c0-.24,1.22.12,1.2,0,.23.28.55.3.13,0a24,24,0,0,1-3.43-1c-.25-.4,1.22.27,1.32,0-.43-.15-.54-.29-.82-.18A6.86,6.86,0,0,0,80,2.16c-.5-.11-1-.19-1.59-.26-1.1-.15-2.2-.25-3-.41-.3-.2,1,0,.34-.25a2.59,2.59,0,0,1-1.37,0,3.44,3.44,0,0,0,1,.32c0,.06,0,.08.06.15-.72,0-1.29-.55-2.08-.36-.19-.1-.05-.15-.27-.26A8.91,8.91,0,0,1,71.48,1c-.18-.1-.17-.17-.06-.23-.25-.1-.57,0-.79-.18-.25,0-.16.09,0,.17-1.06-.19-2-.34-2.84-.43S66,.27,64.9.27c-.16-.1,0-.18.28-.24-.35,0-.71,0-1.05,0-.58.07.21.24-.29.32a2.66,2.66,0,0,0-1.63,0c-.31-.11,0-.17-.43-.29-.21.09.06.21-.15.29-.63-.22-.53,0-1.4.12-.31-.07,0-.16-.43-.24-.1.08-.1.15.09.21-.73.16-2.3-.06-2.28-.35-1.09.21.88.22.2.51-.39,0-.27-.11-.79-.19-.54.19-1.19.06-1.4.4-.51,0-1.07.17-1.26-.07L53.79,1c.42.17.14-.2.57,0-.3.36-2,.38-3,.74.14-.19,0-.32.55-.46-.81-.12-.89.46-1.69.62-.55-.2-1.06.13-1.57.39a4.13,4.13,0,0,0-1.9.41c-.19-.14.57-.21.75-.4-.24-.07.28-.33.08-.41-.58.41-1.46.67-1.95,1.09a8.25,8.25,0,0,0-.91.13c-.29-.18,1.33-.39.4-.44.32-.26.68-.13,1-.38-.37-.12-1.25.47-1.26.18-.33.24-.75.28-1.31.59-.06-.37-.64.21-1.25.2a16.81,16.81,0,0,1-1.9,1c0,.17.62.09.91-.14,0,.3-1,.49-1.39.62-.14-.09.12-.32.26-.4-.11-.11-.43,0-.51-.18.07.38-.62.33-1.12.8.31.13.51-.21.8-.15-.36.16-.68.44-1.09.39-.13,0,.17-.1.29-.24-.18,0-.47.13-.35,0-.45,0-.07.3-.53.25.15.08.4.12.11.41-.5.24-.08-.12-.49,0-.25.23-.11.27,0,.34-.17.09-.36.11-.51.28-.61.09.2-.49-.26-.48-.08.16-.22.35-.11.43-.3.34-.76.15-1,.57-.43.09-.34-.06-.62,0a3.77,3.77,0,0,1-1.35.69c-.14.39-.95.68-1.46,1-.31.08.45-.46-.1-.24-.33.5-.88.68-1.53,1.11-.36.33.27.07,0,.33-.55.39-.22-.16-.73,0-.26.17-.34.27-.33.39a3.21,3.21,0,0,0-1.52.83,5.81,5.81,0,0,1-1.38,1.08c-.18.48-.4.59-.92,1.19-.16.14-.37.08-.71.38-.22-.11.49-.51.62-.78a3.39,3.39,0,0,0-1.29,1.22c-.51.29-.35,0-.74.12-.33.33-.62.39-.64.72l-.44.17c.29.05-.57.95-1.1,1-.08.49-.41.61-.88,1-.26.44.07,0,.27,0-.14.27-.4.36-.58.57-.46.15-.23-.06-.2-.27a3.07,3.07,0,0,1-1.3.78.58.58,0,0,1,.24-.27c-.08,0-.31.14-.56.37l-.65.72c.9-.82.95-.44,1.87-1.18-.58,1-1.1.65-1.61,1.33.14.12.85-.38.89-.16-.32.11-.83.72-1.15.76-.1.37,0,.51-.05.86-.12-.32-.5.12-.9.35-.23.09.18-.53-.22-.26,0,.25-.12.33.06.43-.2.24-.6.45-.26.41a3.47,3.47,0,0,1-.85.61c-.1-.08.71-.8.36-.82a16.19,16.19,0,0,1-1.09,1.58c-.41.59-.77,1-.8.66-.22.27-.29.7-.61.87,0,.67-1,1.46-1.19,2.42-.34,0-.63.68-.67.33-.28.28,0,.37-.26.86a8.76,8.76,0,0,0-1.32,2.36c-.24,0-.59.65-.49.8-.36.16-.43.55-.72.77.17,0,.27-.17.51-.2a2.21,2.21,0,0,1-.81.85c-.35.51,0,.4-.55,1,0,.08.18,0,.11.23a3.19,3.19,0,0,1,.83-1.26,18.83,18.83,0,0,0-1.19,2.27c-.06,0-.07-.05-.15,0,.1-.39.57-1,.38-1.14-.39.48-.33,1.14-.92,1.76a.79.79,0,0,1-.14.47c0,.12.08.16.23,0-.1.54-.45.91-.56,1.43-.26.34-.2,0-.42.29-.1.46.29-.12,0,.43-.28.34-.06-.35-.33.2-.08.33.15,0,.13.22-1.09,1.47-1.4,3.76-2.13,5.05-.14.15,0-.38-.14-.33-.33.59-.16,1.39-.65,1.9,0,.11.11.14.23,0,.08.29-.08.47,0,.75-.15.27-.15,0-.16-.2-.2.3-.17.69-.32,1,0,.14.13-.07.22-.16.07.28-.13.45-.11.71-.08,0-.09-.2-.23,0l0,.51c-.17.29-.17,0-.36.37-.12.56-.23,1.13-.35,1.69s-.17,1.13-.28,1.69l.18-.31c-.06.31.07.68-.08.95s-.14,0-.18-.18a8,8,0,0,0-.17,2.28c-.19.14-.28.41-.23.9.25-.56.17,0,.21.3.08-1.08.39-1.48.48-2.65-.06-.15-.05.1-.12.2-.14-.29.17-.43,0-.72A3.61,3.61,0,0,0,2,51.36c-.39,1.31-.34,3.22-.77,4.14,0,.08.08,0,.1.14,0,.47-.14-.13-.26.3A4.19,4.19,0,0,1,1,58.06c.22.24.17.72.09,1.2-.16-.19-.29-.63-.48-.33,0-.36.07-.94-.1-1,0,.46,0,.47-.22.68.18.22.12.53.25.65,0,.4-.14.77,0,1.19a4,4,0,0,0-.13,2.35c-.25,0-.22.43,0,1.06-.07.08-.14.07-.21-.15-.1.78.22,1.6.15,2.38.09.22.16-.3.26,0s-.2.45,0,.71c-.06.2-.13.21-.21.1,0,.38.23,0,.15.6-.07.3-.15.41-.24.22a6.18,6.18,0,0,1,.07,1.09,1.19,1.19,0,0,0,.22.81c0,.33-.16,0-.19.46.26,0,.12.62.12.59.14.83.51,1.08.39,2,.26.14.28,1.13.38,1.64-.06.05-.15-.14-.19.13.32.34.14.94.57,1.5.22.16.08-.62-.06-.82s.31.51.33.68c.25.19-.07-.52-.08-.69s.19.18.29.32-.11.69.27,1.14c0,.31-.07.6-.22.38-.05.44.27.83.17,1.28.13.08.25-.06.36.42a4.77,4.77,0,0,1-1.17-1.88c.06.39.06.79.1,1.18.12.16.3.18.26.57.1.1.14,0,.24.09.23.49,0,.31,0,.83.33-.15.83,1.88.59,2.19.2,0,.16.48.47.75,0-.4-.31-.73-.29-1.13.16,0,.33,1,.45,1.34.09,0,.22.12.4.4s0,.29-.17,0c.07.41.35.37.33.06s-.13-.53-.39-.76c.05-.12.13-.15.18-.27.29.49.21,1.07.52,1.56-.12.16-.72-.66-.49.1.17-.19.16.13.39.52-.22.13-.24-.35-.09.51.17,0,.24,0,.47.49-.24.27.4.8.3,1.38a22.08,22.08,0,0,1-1.45-3.9c-.09.63-.48-1-.72-.7,0,.2.08.38.06.59.34.15.47,1.14.37,1.38.13-.39.4.47.49,0,.09.31.33.58.31.91s-.29-.91-.24-.07c-.26-.19,0-.48-.31-.66,0,.23-.11.13-.09.38.49.59.35.84.22,1.06.36-.09.59,1.44,1,2.09.25.18.09-.07.06-.39.59.64.88,1.93,1.3,2.2.1.48-.22,0-.24.2A14.16,14.16,0,0,1,4.78,88c-.2-.17-.31-.13-.33.09a.56.56,0,0,1,.19.44c.08,0,.16.07.17-.05A5.56,5.56,0,0,0,6.22,91c-.51-.11.17.87,0,1.26a1.1,1.1,0,0,1,.29.54c.3.11-.18-.51-.14-.72s.46.34,1,.78c0,.58-.46-.34-.6-.28.09.62.23.41.62.91,0-.22.14-.14.21-.21.2.21.16.53.45.7-.09-.51-.68-.82-.64-1.38a6,6,0,0,1-1-1.53c0-.23.29.47.37.62.24.15-.11-.62-.19-.43.35-.23.7.54,1.17,1.52a20.55,20.55,0,0,0,1.67,2.92c0-.17-.08-.35,0-.27,0-.29-.39-.43-.37-.74.08-.1.68.63.66,1,.06-.3.79.44.82.91,0,.15-.51-.52-.55-.77-.14.25-.34-.11-.59-.12.17.49,0,.39.24.93a9.58,9.58,0,0,0-1.41-2c.07.52-.2,0,0,.76.12-.08,0-.53.51,0A22.45,22.45,0,0,0,10,97.56c-.08-.3-.06-.44.11-.32-.14-.32-.32-.63-.49-.94.11,0,.41.33.58.51s0,.16-.15.07c.24.64.29,0,.62.74-.09.1-.35-.09-.4.07.72.55,1.39,2,2.18,2.57,0,.19-.25,0-.06.43.34.31.49.72.94,1-.11-.3-.11-.44-.06-.52.41.4.66.89,1.1,1.26,0,.31-.63,0-.76-.64.05.29-.32,0-.26.3.53.23.74.74,1.56,1.37,0-.3-.42-.37-.5-.65.19-.1.48.51.87.69.08.21-.06.16.05.39.54-.07.88,1.05,1.47,1.4,0,.44-.77-.55-1-.48,0,.12.17.17.27.25.27.45-.33-.13-.06.32.38.24.69.81.72.51.4.19.44.65.77.89,0,.15-.29.08-.45-.25-.17.25,1.18,1,1,1.33l.7.33c-.15-.25-.05-.25-.08-.38.4.25.29.37.37.6.78.28,1,1,1.86,2a4.62,4.62,0,0,1,1.15,1,6.89,6.89,0,0,0,1.4,1.12c.16-.13-.35-.34-.55-.6.29-.06,1.17.7,1.6,1,0,.28-.59-.46-.62-.21.23.3.41.52.38.62.28.11.86.25,1.28.37.46.28.18.42.45.73s1.07.55.81.69a10,10,0,0,1,2.35,1.39c.38.4-.52,0-.14.37.65.27,0-.31.54-.11s.35.49.59.78c.31.11.5.37.8.52-.15,0-.12.19.19.52a.32.32,0,0,1,.38.1c.31,0-.3-.22-.3-.4.36,0,.53.35.81.5s-.31-.34-.43-.41.18-.11.27-.17c.39.23.33.34.67.27.35.4-.2.07-.28.19.37.32.44.12.65.1.53.2,1,.54,1.47.76,0,.13-.45.06-.53.16.43.29.7.81,1.34,1a2.51,2.51,0,0,0,1.27,1.12c-.24-.22-.6-.41-.51-.55a3.1,3.1,0,0,1,1,.46c.25,0-.07-.22.34-.12-.42-.18-1.09-.78-1.28-.64,0-.12-.07-.26.27-.2s.13.34.76.34c.43.31-.35,0,.08.33,0-.25.62,0,1,.3.35,0,0-.24-.35-.33a6,6,0,0,0,.61.11c.08.14.68.49.4.48.19.1,1.06.17.76.35.32.21.72-.12,1.22.21.08.11-.25,0-.43.06.54.24,1.46.85,1.77.69.18,0,.94.4.37.33a4.29,4.29,0,0,0,2.94,0,4.16,4.16,0,0,0,.81.18c.4.26-.5.15.07.46a1.28,1.28,0,0,1-.91-.26c-.59,0-.75.08-.4.33.13,0,0-.09-.07-.15a1.92,1.92,0,0,1,1.05.25c.23.19-.36-.08-.52,0,.24.25.66.07.89.34.35-.33,1.51.3,2.27.72.43,0,.82-.25,0-.47.12.26-.33.06-.71-.11-.1-.1.21,0,.35,0-.12-.23-1.35-.42-1.89-.66.48.06,1,.17,1.58.3s1.15.3,1.77.39c1.23.21,2.51.45,3.66.56.11.07-.14.09-.27.12a1.33,1.33,0,0,0,1,.08c.13.3.47.11.9.32s-.82.07-.19.27c.48-.19.69,0,1.55.11a1.45,1.45,0,0,1,1.44,0c.43-.17.8,0,1.23-.17a6.06,6.06,0,0,0,2.46.48,28.17,28.17,0,0,1,3.18,0c0-.18.51-.36.73-.11.49-.12.36-.21.38-.31a1.5,1.5,0,0,1,.47,0c-.06.13.08.25-.38.4.68.14.19-.36,1-.12.2-.31.4-.21,1.08-.26.24.09,0,.2-.37.31,1.14-.29,2.88-.39,3.67-1,.56-.17.56,0,1,0s-.29.3.13.36c.43-.17.33-.27.22-.37.59,0,.43-.15.94-.31.36.18-.37.58-.92.65.24,0,.13.11,0,.09a4.2,4.2,0,0,0,3.19-.55c.43,0-.52.35,0,.34.38-.34,1.57-.35,2.35-.58.21-.12.08-.16.32-.3,0,.07-.13.18.14.19.43-.12.14-.09.45-.29.11,0-.14.15,0,.17.53.05,1-.23.91-.4a.65.65,0,0,0,.36,0c.12,0-.1.14-.21.23a11.45,11.45,0,0,0,3.44-1.17c1.09-.15.75-.35,1.39-.41.5-.55.89-.59,1.59-1.1-.28,0-.54.15-.82.19.31-.26.7-.18,1-.45.13,0-.08.16-.17.26.69-.3,1.44-.46,2.14-.77.13,0-.08.16-.17.27a3,3,0,0,0,1-.51c.17-.63,2.64-1,3.52-1.94A28.24,28.24,0,0,1,89.15,121a5.6,5.6,0,0,1,1.31-.62c.1-.27-.58.23-.8.24l.57-.55c.23,0,.14.09.39,0,.87-.55.71-.86,1.8-1.33.15.08-.6.58-.83.82.07.07.37,0,.21.22.2-.16.51-1,1.43-1.27.19,0,.12.12-.12.36.5-.12.67-.82,1.36-1.1.48-.16-.2.38.34.18.1-.09,0-.08,0-.07s.54-.36.31-.49c.2-.08.92-.44.67-.55.25-.11.45-.36.74-.4.09.13-.56.7-.32.74.23-.2.57-.49.84-.76.32-.11.11.13.51,0,.56-.48,1.18-.86,1.76-1.3.25-.06-.35.33-.39.56.82-.45.69-1.08,1.61-1.35.17-.18.25-.52.5-.58.17-.28-.31.21-.47.14l.22-.33c.66-.3,1.18-.85,1.8-1.2.15.17-.59.85-1,.88a3.21,3.21,0,0,1-.69.73c.3-.26,1.25-.54,1.54-1.19.44-.22,0,.31.48.08a9.91,9.91,0,0,1,2.11-2.29c.3-.06-.25.3-.26.47.38-.35.29-.08.69-.28.41-.55,1-.89,1.35-1.46.82-.42.59-.69,1.31-1.87a7.59,7.59,0,0,1-1,1.2c-.14.23,0,.19.1.13a2,2,0,0,1-.7.68c-.26.14.21-.35.31-.4a2.83,2.83,0,0,0-1.6,1.11,5.76,5.76,0,0,0-2,1.6c-.28.09-.23-.09-.47.37-.27.15-.54.31-.79.48s-.54.31-.8.48a13.46,13.46,0,0,0-1.48,1.16c-.18-.22-1.09.73-.93.27a5.42,5.42,0,0,1-.82.76c.2,0,.35-.2.55-.24-.18.18-.37.32-.54.5-.11,0-.14-.07,0-.26-.32.07-.53.35-.85.41-.15.19,0,.16-.11.3-.29,0-.58.09-.74.41-.19,0-.42,0-.56.19-.32.1.45-.47-.11-.23a5.4,5.4,0,0,1-2.57,1.49c-.41.13-.07.2-.35.41a2.77,2.77,0,0,0-.29.22c-.43.14-.2-.11-.62,0-.57.65-2.07,1.05-3.11,1.48-.2.27-.46.34-.69.55.6-.07.38-.34,1-.49-.22.25-.16.18.2.23a1.77,1.77,0,0,1-1.54.63c.24-.28.63-.08.86-.41-.48.23-.78.1-.43-.21-.68.32-1.4.52-2.08.83.13-.33.08-.16-.5-.08a2.6,2.6,0,0,1,1.12-.3c.17-.17-.32,0-.07-.25a5.78,5.78,0,0,1-1.19.47c-.25.21.2.16.52.17a10,10,0,0,0-1.86.8c-.06.14.2.17.08.33-.65.3-.06-.21-.62-.09-.14,0,.17-.1.3-.24-.72,0-2.14.65-3,.6a6.9,6.9,0,0,1-2.69.83c-.35-.13.59-.34.62-.59-.72,0-.81.5-1,.13q-.27.29.06.42a9.6,9.6,0,0,1-2.39.54c-.21.37-1,.49-1.59.52-.11,0,.11-.13.22-.2a1.26,1.26,0,0,1,.58,0c.15-.08.18-.13.11-.16l.22-.14c-.43,0-.82.36-1.26.14.26-.15.53-.09.79-.2s-.67,0-.92,0c.72-.46-.89.06-1.5,0,0,.13-.08.39-.56.46.3-.26-.31-.17-.36-.42a.53.53,0,0,1-.34.09c.22.21-.55.28-.68.52a4.71,4.71,0,0,0-2,.22c-.41-.06,0-.22,0-.34a9.24,9.24,0,0,1-1.6-.18l-.47.19.45.15c.44-.25.85,0,1.27,0-.54.2-1.07,0-1.62.14,0-.51-1.24-.17-2.14-.39.33.05.69-.09,1,0,0-.22-.89-.1-1.24-.09-.12.12-.09.23-.27.35-.62.09-.29-.21-.54-.28a.53.53,0,0,1-.46,0c0,.26-.58.32-1.14,0,.32.3-.18.08-.73.29-.62-.28.84-.15.06-.42-.23.3-.66.18-1,.36-.53-.24.68-.16.51-.31a1.63,1.63,0,0,0-1.06.14c-.49-.21.4-.07.27-.24-1-.36-1.3,0-2.31,0-.25-.12-.1-.2-.51-.33a5.38,5.38,0,0,1-1.5,0c-.12-.13.14-.2.08-.33.17,0,.31,0,.47,0,.36.11,0,.17-.06.25a8.32,8.32,0,0,1,1.73,0,4.39,4.39,0,0,0-1.44-.23c-.36-.15.61,0,.26-.16.51.12,1,.12,1.56.2.11,0-.12-.12,0-.16.45-.06.11.17.53.25a.93.93,0,0,1,.57,0c.12-.52,1.08.2,1.72-.09.4.14-.12.25.42.28.35-.15-.06-.34.29-.49-.28-.14-.6,0-.88-.14-.12,0,.09.12.2.18a2.35,2.35,0,0,1-1.12-.08c0-.16.36,0,.49-.22a6.76,6.76,0,0,0,1.35,0c.39.14-.13.25.41.28.78-.65,3.18-.28,4.62-.36.07.11-.45.24-.24.34-1.35,0-2.68-.12-4,0-.23.15.49.13.67,0,.33.14.79.08.3.29.38,0,.76-.1,1.14-.12.09.11-.34.24.2.33.37-.25.48-.18,1-.16s-.11.21.32.29a5.8,5.8,0,0,0,2.28-.36c0,.07.24.11.1.2-.32.16,0-.2-.45,0,.68.1,1.36-.16,2-.09l.78-.41a1.75,1.75,0,0,0,.69.25c.45-.35-.31-.24-.46-.37.41-.2.83.18,1.24-.12.54.09-.44.4.24.48.11-.06,0-.08-.11-.12a23.55,23.55,0,0,1,2.59-.4c.44-.3-.3-.31-.69-.19.4-.17.77-.68,1.19-.59.22.12-.45.16-.31.3s.43-.22.67-.08c.23-.22-.07-.21.53-.43.27,0,.28.1,0,.25.64,0,.5-.47,1.09-.44.19.09-.57.4-.06.41.41-.2.26-.27.51-.43a1.19,1.19,0,0,1,.45-.11c0,.13-.58.28-.4.45.56-.16.45,0,1,0a9.94,9.94,0,0,0,2.84-1c-.56.52,1.78-.45,2.57-.6,0,.24-1,.33-1.38.72,1-.12,1.61-.83,2.32-.79.09-.09-.14-.07-.27-.08.24-.31.59-.21.82-.5.91,0,1.84-.84,2.42-.76.9-.64,1.56-.7,2.23-1.34-.39.17-.14,0-.48,0,1.07-.79,1.53-.59,1.74-.29.19-.31-.08-.34,0-.6a13.77,13.77,0,0,1,1.34-.65c.2,0-.48.4-.61.62-.15,0,1.58-.77,1.83-1s.35.11.07.16c.1.18.41-.24.61-.36s-.15,0-.27,0a11.74,11.74,0,0,1,1.59-.71,6,6,0,0,0,1.64-1.14l.57-.17c.15-.21.41-.22.53-.49,1-.23,1.66-1.21,2.67-1.49a7.26,7.26,0,0,1,2.52-2c-.41.55-.38.65-.7,1.08.88-.81,1.61-1.86,2.2-2-.23-.26.29-1-.19-1.07.46-.36.91-.73,1.35-1.12-.27-.24-1.56,1.48-1.84,1,.11-.24.43-.2.61-.34-.1-.28.65-.72.81-1.24,0,.16.09.31.59,0-.17-.12,0-.43.31-.9.36-.15,1-.49.8-.69.37-.23.31,0,.65-.33.27-.06,0,.11-.1.42a5,5,0,0,0,1-1.18c.37-.2-.1.53.29.32.1-.21,0-.58.38-.81,0-.13.09-.44-.28-.12.34-.61.31-.5.3-.88s.45-.21.49-.51c.22-.54-.3.12-.46.2.16-.28.44-.44.57-.76.23-.11-.14.56.24.24,0-.24.45-.72.39-.44a4.89,4.89,0,0,1,1.88-2.3c0-.09,0-.4,0-.5-.34.37-.21.18-.59.42-.13.29.07.14.23.05a16.36,16.36,0,0,1-2,2.16c.4-.76,1.14-1.19,1.53-2a11.14,11.14,0,0,1-.93.89c.21-.44.65-.67.72-1.24.23-.12,0,.3.39,0a4.24,4.24,0,0,0,.24-.57c.21-.22.13,0,.09.24.19-.14.21-.44.44-.54-.12-.26.4-.83.24-1,.45-.46.21.19.58-.13a3,3,0,0,1,1-1.32c.27-.72.47-.56.75-1.22.27-.14-.15.35-.12.51a9.16,9.16,0,0,0,1.1-1.7c0-.3,0-.38-.15-.54.21-.33.48-1.06.32-1.22.31-.43,0,.36.32-.07s.22-.7.51-.94c.1-.46-.12-.24.08-.65s0,.65.14.66c0,.32-.47.35-.4.73.22,0,.61-.86.72-1.38.26-.35.21,0,.42-.3a11,11,0,0,1,.35-1.15c.12-.4.25-.74.37-.79s0-.24-.07-.17a2.43,2.43,0,0,1,.58-1.18c0-.34.16-.55.11-.89-.06.56-.62.84-.59,1.44-.31.23-.2-.28-.62.46a1.1,1.1,0,0,1,.42-1c0-.54-.3.37-.46.28a.66.66,0,0,1-.26.66c0,.37-.16.58,0,.67.23-.32.25-.69.4-.45,0,.3-.35.43-.33.76-.23.1-.06-.41-.41.17.36-.08-.24.47-.41.85-.08,0-.24-.2,0-.43a7.47,7.47,0,0,0-.87,1.4c-.49.2-.62,1-1,1.11-.21.58,0,.61-.32,1.19-.11.07,0-.26,0-.43-.45.29-.52.85-.87,1.22,0,.22.1.15.26-.1,0,.4-.43.71-.26.83a.33.33,0,0,0-.37.29c-.25.11-.07-.1,0-.42-.44.43-.61,1.09-1.17,1.42.24.46-.61.6-.6,1.29-.14-.27-.34.35-.53.3a2.29,2.29,0,0,1,.76-1c-.07-.54.72-1.29,1.26-1.79-.08-.12-.16-.23,0-.73-.26,1.2-2.2,2.45-2.17,3.84A8,8,0,0,1,110.57,98c0,.22.08.16.26-.06l-.23.72a1.64,1.64,0,0,1-.48.5c.11-.37.43-.55.48-1-.29.2-.49.49-.78.68l-.16.49a2.6,2.6,0,0,1-.38.43c-.21.11-.11-.18,0-.49-.57.63,0,.65-.65,1.28,0,.12,0,.17.22.06a1.67,1.67,0,0,1-.36.61c0-.31-.28-.13-.63.17a13.5,13.5,0,0,1-1.07.85c.19-.29.63-.68.94-1.07s.54-.72.41-.8c.41-.55.92-1,1.3-1.58-.14-.22-.55.61-.81.79.24-.51.31-.45.37-.91.43,0,.43-.5.85-.43.23-.56,0-.45-.27-.41.21-.4.41-.23.6-.37s.28-.46.32-.78c.31-.28.22,0,.45-.2.11-.57.15-.26.46-.65s.54-.92.71-1.47c.32-.33.12.18.29.09-.24.52-.94,1.27-.63,1.41a6,6,0,0,0,.36-.9c.06,0,.12,0,.25-.08.12-.54.16-.64.51-.91.22-.65-.28-.12-.07-.77,0-.12.12-.2.15-.32.31-.29.2.11.27.2.32-.13.33-.51.61-.68.08-.23,0-.17-.13-.1.3-.63.89-1,.9-1.87a20.18,20.18,0,0,1,1.63-2.75c0-.46.29-.72.43-1.08-.12-.23-.21-.1-.19-.51a2.73,2.73,0,0,1-.67.66c.07.33.11.11.09.58a4.71,4.71,0,0,0-.55,1.41c-.26.18-.05-.61-.14-.77-.21.19-.46,1-.63.81-.38.64-.47,1.49-1.07,2,.09-.48.36-.84.46-1.31a2,2,0,0,1-.54.71c.1.21,0,.3-.2.4-.1,1-1,1.39-1.33,2.2-.3.34-.11-.15-.08-.34-.28.16-.31.51-.54.71a1.28,1.28,0,0,0,.78-.38c.07,0,.09.11.11.22a7.49,7.49,0,0,1-.45.65c-.14,0,0-.33-.32,0-.09.28,0,.28,0,.42s-.2.22-.24.38c-.28.12,0-.26-.08-.35.09-.36.47-.48.5-.88a44.47,44.47,0,0,1-3,4.18l-1.63,2c-.28.32-.54.66-.84,1l-.94.88c.08.42-.79,1.11-1.1,1.07,0,.31.33.19.28.51-.38.53-.56.23-.91.8-.11,0,0-.17,0-.3-.41.36-.65.94-1.1,1.24.2-.8-1.14.69-2,1-.28.36.14.1.31.06a5.78,5.78,0,0,1-1.08.74c-.06.15.3-.08.21.1a1.53,1.53,0,0,1-.54.37c0,.09,0,.24-.19.51-.29.43-.37,0-.66.58-.17,0-.13-.1,0-.36a13.55,13.55,0,0,0-2.23,1.56c-.11,0-.14-.08,0-.25-.7.82-1.63,1.21-2.37,2-.07,0-.14,0-.08-.15a4.52,4.52,0,0,0-.87.92c-.34.1-.38,0-.12-.23-1.08.76-2.38,1-3.32,2.08-.39.12,0-.23-.39-.12.16-.18.4-.16.53-.41a9.83,9.83,0,0,1-3.12,1.74c-.09.25.81-.23.3.23a3.42,3.42,0,0,0-1.45.41c-.21.39.42-.18.73-.2-.3.34-.7.41-1,.63a.69.69,0,0,1,.07-.51c-.48.26-.88.55-1.31.83a5,5,0,0,1-1.52.57c-.1,0,.11-.16,0-.16s-.35.08-.54,0c-.33.29-.13.23-.55.47,0-.08-.17-.12-.46-.11a10.67,10.67,0,0,1-1.51.58c-.25,0,.29-.26.39-.23-.44-.13-1.21.51-1.47.8-.56,0-.1-.21.15-.39a11.64,11.64,0,0,1-2.15.74c-.25,0,.28-.33.4-.18-.15-.15-.56-.12-1.07,0,.16-.06.62-.21.19-.22.2-.1.42,0,.6-.24-.36-.07-.68.17-1,.17.15.08-.1.36-.49.33-.1.11.18,0,.33.06a4.17,4.17,0,0,0-1.21.64c-.51,0,.2-.28-.24-.29-.29.21-.82.34-.81.52a18,18,0,0,0-2.54.26c0,.1.12.19-.31.35-.35-.2.25-.41-.64-.34.27-.22.56-.13.84-.21,0-.21-1,.17-1.37.15,0,.08.13.12-.11.23-.34,0-.57,0-.84-.15-.4.15-.13.23-.53.37s-.61-.36-1.17,0c-.29-.07,0-.17-.41-.24a1.46,1.46,0,0,1,.74-.07,10.58,10.58,0,0,0-2.86-.08l-1.61.11a9.43,9.43,0,0,1-1.53-.08c0-.12.19-.22.46-.31A5.54,5.54,0,0,1,59.7,119c-.29.08-.2.19-.15.29-.93-.06-2.56-.58-3.6-.09-.27-.22.39-.12.38-.27a5.76,5.76,0,0,1-1.34-.24c-.12.06,0,.14-.16.19-.7,0-1.72-.71-2.16-.42-.22-.14-.07-.22-.43-.38s-.69.13-.94-.12c-.62.38-1.71-.51-2.6-.44.1-.06-.32-.26-.12-.3a2.19,2.19,0,0,1-1.49-.46,1.61,1.61,0,0,1-.66,0,.28.28,0,0,0-.14-.21c-.14.1-.69-.06-.4-.12a1.73,1.73,0,0,1-.64-.09,6.43,6.43,0,0,1-.73-.38c0,.21-.22.12-.58,0-.08-.09.14-.06.26-.07-.45-.25-1-.37-1.43-.62.47,0,.49.24.77.08a2.61,2.61,0,0,0-.85-.38c-.06-.11.23-.07.39-.08.35.14.58.53,1,.46-.44-.12-.12-.36-.57-.46,0-.22.33-.09.68,0,.13.16-.15.15-.22.23.32.25.54.11.76.08a2.61,2.61,0,0,1,.92.44c-.7-.29-.64,0-1.14-.21-.25.07.58.31-.11.23-.43,0,.19-.21-.24-.23s-.1.06.09.3a.88.88,0,0,1-.39-.15,15.86,15.86,0,0,0,2.44.9c-.12-.29.39.06.49-.12a6.28,6.28,0,0,0-1.46-.24c0-.59,1.54,0,2.1,0,.66.41-.11.41.27.74.13-.25.64.26,1.06.12-.33,0-1.17-.38-.79-.53.45.42.56,0,1.27.41.37.23-.19.21.17.44l.57,0c-.13-.1-.26-.2-.14-.22,1,.11,1.93.26,2.9.33-.25-.24-.59-.15-.87-.28.61,0,1.64,0,1.79.4a1.46,1.46,0,0,0-.85,0c-.16.14.47.14.25.26.65.08,1.27-.16,1.63.29.28-.12.49,0,.72.09,0-.07.25-.1.15-.19.72.29,2.09,0,2.44.39.45,0,.91,0,1.36,0,0,.07,0,.14-.14.2.38.12.3-.14.55-.17.4.17.14.29-.06.42.46.11,1.06.06,1.21.34.16-.16-.21-.35.28-.49-.64-.17-.29.35-1.06.1-.11-.18.06-.27.46-.31a11.74,11.74,0,0,0,2.36.24c.27.22-.36.15-.65.27a2,2,0,0,0,1-.12.29.29,0,0,0-.2-.16c.28-.06.38.09.43-.1.57.16,1.19-.31,1.75.07.08-.19.95-.25,1,0a1.59,1.59,0,0,1,.87-.34,4.08,4.08,0,0,1,1.09-.06c.2-.08.08-.13.21-.2.53.07,1.13-.14,1.13.14l.71-.39c.71,0-.19.31.23.4a2.26,2.26,0,0,1,1.34-.23c0-.15.47-.35.59-.51.3.12-.47.41,0,.51,0-.41,1.26-.71,1.91-.68.5-.2.4-.44,1-.49,0,.15-.36.42.24.2.13.1-.13.29-.45.5.07,0,.13,0,.2-.05l.21,0c.31-.19.06-.25.37-.44.5-.25.48.11,1.07.09.34-.26.77-.09,1.11-.34a1.87,1.87,0,0,0-1.24.24c0-.1-.27-.14-.55-.17.45-.06.36-.24.92-.18.44-.19-.28-.11.16-.3a6.45,6.45,0,0,0,2.12-.49c.09-.15-.61.07-.81.2-.2-.28.77-.58,1.24-.66.34.09-.69.25-.36.3.55,0,.35-.28.88-.35-.48.6,1.49-.59,2.25-.44.19-.23.86-.69,1.3-1.1.07.39,1.5-.65,1.68-.88.16,0,.32,0,.24.08.11-.2.56-.25.89-.61.41.14.68-.28,1.26-.76.17,0,0,.24.38.12,1-.88,1.72-1,2.82-1.87.18,0,0,.24.36,0-.14-.33.57-.48.93-.49-.3-.1.16-.67.69-.93.24.08-.54.39-.33.5s.3-.17.49-.2c.07-.19-.19-.12.15-.37.14,0-.15.29,0,.25.59-.3.71-.54.6-.65.38-.38.13.23.53-.13-.17-.14.17-.47.5-.79.29.1.27-.19.71-.26-.1-.16.34-.45.63-.57.09.06-.15.17,0,.24,0-.32,1.37-1.19,1-1.37.35-.16.42-.73.78-.88s-.18.34-.27.7c.33-.2.56-.53.89-.74-.19-.55,1-1.3,1.27-1.64.07.14-.27.54-.38.73s-.15,0-.1-.14c-.4.23-.16.32-.53.7a2.45,2.45,0,0,1,1.31-.72c.27-.37-.16-.12-.1-.31.65-.2,2.1-2.29,2.8-2.89.08-.12.48-.77.16-.61.24-.54.84-.63.59-.91.27-.17.14.19.24.25-.08.18-.29.21-.44.31-.11.36.35,0-.06.56a3.45,3.45,0,0,0,.66-1.15.29.29,0,0,0,.25,0c.11-.38-.21.1-.27-.13.13-.31.44-.45.49-.85-1.08,1.19-2.26,2.29-3.35,3.47-.37.28.07-.32-.31,0s-.12.28-.22.55c-.39.17,0-.46.1-.86.61-.64,1.54-1.09,2.14-2.12.21-.23.51-.37.68-.64-.31.1-.24,0,.19-.39.16-.35-.12-.13,0-.35.7-.4.64-.72,1.07-1.27.24-.18.14.09.43-.16-.16-.09,0-.43.29-.73s-.2.54.19.18a.47.47,0,0,1,.25-.34c0-.06,0-.19,0-.39.63-.65.83-1,1.4-1.54-.19-.38.44-.54.51-1.06.24-.09-.17.37-.11.58a4.59,4.59,0,0,1,.64-1c.09-.21,0-.53.21-.65-.25,0-.17-.11,0-.67-.39.71-.77.83-1,1.49-.36.21,0-.31-.29-.1-.12.44,0,.54.13.5a5,5,0,0,0-.29.71c-.23-.15-.47.5-.61.84-.28.11.11-.49,0-.69a.75.75,0,0,0-.2.64,2.75,2.75,0,0,0-.78.68c.09.07,0,.43-.13.73-.18,0-.19-.21-.56,0-.08.31-.35.43-.5.66,0-.16-.23,0-.28-.12a15,15,0,0,1-2.08,2.53c-.24.65-.91.82-1.2,1.41-1,.45-1.58,2.18-2.51,2.22-.06.26-.27.31-.35.54a3.09,3.09,0,0,0-.76.34c.25-.36.6-.45.55-.78,0,.3.25-.08.56-.27.08-.31-.18,0-.4.14.23-.47.64-.7.95-1.06.18-.07-.22.45-.35.51.25,0,.81-.9,1.19-1.23-.26.05-.3.37-.56.42a12.54,12.54,0,0,0,1.3-1.72c.27-.15-.32.64.13.3l.16-.43a4.8,4.8,0,0,0,1.57-2c-.19.63.35-.19.7-.58,0-.12,0-.39-.22-.07.2-.77.62-.53.8-1.18.27-.15.27.06.34.18a.94.94,0,0,0,.22-.77c.17-.4,1-.78.75-1.08.1-.15.55-.66.54-.47a5.12,5.12,0,0,1,1.22-2.13,2,2,0,0,0-.25,1l.74-.71c.12-.29-.41.09-.12-.22-.07-.29-.24.4-.32.53-.27-.1.21-1.22.73-1.5.4-.55.22-1.49.76-1.94l0-.46c.22-.26.13.11.21.14.24-.33.14-.87.47-1.14.23-.11-.08.41-.05.57a7,7,0,0,1,1.34-2.65,2.31,2.31,0,0,0,.22-1c-.15.19-.23.22-.23,0,.33-.29.48-1.45.95-2a1,1,0,0,1-.14.72,7.64,7.64,0,0,0,.81-1.65c0-.54-.13.33-.37.39,0-.38.23-.65.21-1-.09,0-.16,0-.16-.19-.2.21-.14.35-.29.32a1.94,1.94,0,0,0,.07-.42c.46-.36.39-.55.7-1.12.11.41-.29.61-.18,1,.2-.16.17-.44.38-.61-.22.14-.09-.82,0-1.2.08-.08.08.14.1.26.26-.18.16-.52.37-.73,0-.2-.23.22-.29.11,0-.75.44-1.36.53-2.09-.21-.08-.1.51-.29.76-.06,0-.08,0-.15,0,.22-.47.1-.66.17-1.23-.24,0-.29.45-.15.7-.23.41-.12-.52-.29.11C112.64,74.44,112.78,73.76,112.46,74.17Zm-21.6,29.05c-.2.36-.56.41-.86.58A1.53,1.53,0,0,1,90.86,103.22Zm-26.47,7.63c.28-.2.9,0,.46-.31a3.5,3.5,0,0,1,1.51,0c-.24.18-.3.07-.54.35-.15-.05-.29-.16-.44-.12s.07.12,0,.17C65,110.89,64.71,111.12,64.39,110.85Zm48.7-74.56c.28.3.4.15.44.66C113.41,37,113.09,36.61,113.09,36.29ZM117,34a4.44,4.44,0,0,0,1,1.18c-.06.31.16.53.39.75a1.65,1.65,0,0,1-.11.78c.41.52.4.07.48-.14.32.93-.1,1-.54.53,0-.85-.94-1.45-1.14-2.25,0-.45.28.39.34.14C117.15,34.63,116.85,34,117,34ZM57.12.57c-.43.17-.84,0-1.27.09A2.06,2.06,0,0,1,57.12.57ZM24,14.2c-.24,0-.85.49-.81.22C23.56,14.39,24.15,13.76,24,14.2ZM6.85,35.59c.17-.26.18-.63.49-.8C7.34,35.09,6.94,35.81,6.85,35.59ZM98.59,115.3a5.08,5.08,0,0,1,1.33-.82C99.55,114.73,98.72,115.46,98.59,115.3Zm-9.71,2.62c0-.2,1.83-1,1.61-.63C89.89,117.34,89.48,117.89,88.88,117.92Zm28.69-28.46c0,.15.09.13,0,.43-.17.13-.22.34-.37.47A1.15,1.15,0,0,1,117.57,89.46ZM75.7,116.53c.92-.24,1.33-.33,2.13-.47A5.45,5.45,0,0,1,75.7,116.53Zm18.12-8.47c.27-.16.93-.73,1-.57C94.56,107.69,93.9,108.27,93.82,108.06Zm8-6.58s0-.54.32-.6S102,101.45,101.86,101.48Zm10.32-23.74c.1-.19,0-.13,0-.34.33-.2,0-.65.36-.84C112.62,77,112.31,77.79,112.18,77.74ZM105.41,90c.13-.23.16-.54.42-.67A.82.82,0,0,1,105.41,90ZM96,99.41c-.08-.15.37-.55.71-.63A1.29,1.29,0,0,1,96,99.41Zm-2.09,1.81c.18-.31.83-.79.95-.63C94.53,100.75,94.34,101.15,93.93,101.22ZM113.45,90.8a11.89,11.89,0,0,1-1.15,2A5.46,5.46,0,0,1,113.45,90.8ZM85.91,103.4c0-.2.48-.5.82-.54A1,1,0,0,1,85.91,103.4Zm13.11-3c.23-.24.37-.6.68-.74C99.59,100,99.11,100.62,99,100.41Zm15-9.16c.17-.08.34-.83.44-.52C114.34,91,114.12,91.69,114.07,91.25Zm-.29.78c-.3,0-.23.27-.52.6,0-.2-.24.13-.23,0,.31-.46.36-.24.48-.77l.28-.22C113.78,91.75,113.87,91.74,113.78,92Zm-1.57,1.51c.18-.34.26-.76.6-1A1.29,1.29,0,0,1,112.21,93.54Zm-11.5,8a1.48,1.48,0,0,1-.37.53c.23-.45-.24-.54.3-1C100.89,101.15,100.37,101.72,100.71,101.55Zm9.73-5a3.92,3.92,0,0,0,.13-.49l.27-.2A1,1,0,0,1,110.44,96.6Zm5.69-4.42c.33,0,.2-.44.49-.8C116.88,91.47,116,93,116.13,92.18Zm-17,11c-.61.3-1,1.18-1.5,1.11.11.25-.43.72-.78.87.71-.72.41-.84,1-1.63.5,0,.26-.28.61-.21.36-.4,1-1.26,1.29-1.21-.08,0-.48.45-.26.34a3,3,0,0,1,.82-.64c-.09.33-.38.42-.66.5C99.46,102.66,99,103,99.1,103.21Zm-11.29,2.26c-.09-.2.4-.43.67-.55C88.55,105.08,88.1,105.4,87.81,105.47Zm13.32-3.39-.39.18a.86.86,0,0,1,.38-.53C100.85,102.14,101.4,101.67,101.13,102.08Zm12.58-6.58c0-.42.52-.48.52-.93.29-.25.22.22.54-.32C114.58,95.13,114.11,94.93,113.71,95.5ZM108,99.43c.11-.37.19-.76.52-.9C108.37,98.81,108.35,99.27,108,99.43Zm3.89-2.57c.2-.1.2.15.11.47a2,2,0,0,1-.57.83c-.12-.11,0-.44.13-.67C111.78,97.63,111.94,97.18,111.93,96.86Zm-18.15,9.87c.12.18.37-.17.45-.44s.34-.17.42-.1c.46-.61,1.25-.73,1.64-1.43.3-.14.19.33.46-.24.33-.13.54.14,0,.42,0-.12.1-.23-.09-.14.1.23-.09.51-.37.81s-.68.56-.92.82l-.53.13c-.32.26-.54.73-1,.81,0-.35.75-1,1.21-1.2-.12,0,0-.1.12-.2a8.82,8.82,0,0,0-.92.47,2,2,0,0,1-1.14,1.1C93.85,107.05,93.58,107,93.78,106.73Zm13.87-6.58c-.07.22.29-.11.17.18-.27,0-.2.44-.47.48.11-.37,0-.4.12-.85l.29-.17Zm-29.89,6.77c-.16-.08.35-.44.54-.32C78.13,106.72,78,107,77.76,106.92Zm4.83,1c.1-.37,1.13-.44.77-.32S82.89,108,82.59,108Zm26.91-7.7.16-.49c.12,0,.29-.19.26-.06C109.74,99.86,109.91,100.06,109.5,100.27Zm-3.43,2.66c.1-.21,0-.22-.21-.07l.24-.58c.25-.23.56-.39.83-.6C106.62,102.07,106.37,102.53,106.07,102.93Zm3.35-2.41c0,.27.1.29.2.37-.2.12-.24.41-.48.49.35-1-.62.57-.62.18.37-.28.82-1.33,1.1-1.17ZM104.31,104c.32.1.52-.54.92-.82C105.28,103.67,104.3,104.47,104.31,104Zm-.66.59c-.31.27-.26-.11-.41.2s.18.09.1.32l-.42.18c.08-.17.21-.39,0-.25.13-.26.23-.55.46-.67,0,.14-.08.26.11.14.22-.37,0-.23.15-.53C104,103.7,103.63,104.37,103.65,104.57Zm-2.93,1.25a1.83,1.83,0,0,1,1.09-.92A2.76,2.76,0,0,1,100.72,105.82Zm7.68-3.88c-.31.51-.89.74-1.2,1.25a3.72,3.72,0,0,1,.93-1.2C108.09,102.11,108.25,102,108.4,101.94Zm-16.48,6.73.26-.4a.7.7,0,0,0,.67-.49l.3-.07A4.71,4.71,0,0,1,91.92,108.67Zm14.54-5.1c.3-.19.47-.51.79-.68C107.16,103.22,106.51,103.79,106.46,103.57Zm-28.25,5.88c.44-.27,1-.25,1.4-.48C79.53,109.29,78.67,109.4,78.21,109.45ZM109,102.56c.12,0,0,.3,0,.48a4.24,4.24,0,0,1-.63.7c-.17,0-.13-.23-.18-.37a3.8,3.8,0,0,1-.94,1.41c-.53.14-.81.51-1.44,1,.1-.43,1.06-1.22,1.59-1.72-.19.1-.23,0-.22-.07.47-.52.66-.61.54-.28.16-.21.5-.66.87-1.06s.72-.79,1-.82C109.11,102.19,109.32,102.18,109,102.56Zm-5.42,3c0-.3,0-.54.56-.91C103.59,105.18,104.09,105,103.55,105.54Zm4-2.15a3.8,3.8,0,0,1-.63.51C107,103.54,107.64,103,107.53,103.39Zm-16.85,6a.87.87,0,0,0-.43.31l-.53.07c-.51.54-.74.46-1.35,1,.14-.19-.19-.08.08-.34a2.28,2.28,0,0,0,1.06-.63c-.2,0-.29-.16,0-.5a4.3,4.3,0,0,1,.88-.28c-.2.29-.52.35-.7.67C89.91,109.78,90.54,109.29,90.68,109.41Zm-.36,0a1.23,1.23,0,0,1,.93-.45A2.51,2.51,0,0,1,90.32,109.38Zm15-4c-.4.31.09-.34-.32,0a1.49,1.49,0,0,1,.63-.68C105.66,104.73,105.48,105.14,105.27,105.36Zm-31,4.11c.22-.16.43-.32.69-.25A1,1,0,0,1,74.23,109.47ZM106,105.11c-.21.13-.17,0-.36.09a.91.91,0,0,1,.57-.56Zm-9.28,4.1c-.19.06-.32.07-.37,0a2.94,2.94,0,0,1,1.17-.81C97.28,108.8,96.86,108.81,96.67,109.21Zm7.71-2.95c-.54.29-.87.88-1.42,1.17.48-.38.76-1,1.32-1.31C104.21,106.28,104.41,106.14,104.38,106.26Zm-2.59,1.09-.24.45c-.16,0-.42.11-.42,0C101.42,107.74,101.51,107.4,101.79,107.35Zm3.27-1.14c0,.2.66-.39.37.09s-.12-.14-.58.2l.26-.6c.16,0,.59-.56.53-.26S105.23,106,105.06,106.21Zm-17.74,5c.41-.14.26-.36.78-.51C88,111,87.32,111.44,87.32,111.17Zm12.12-1.88a5.67,5.67,0,0,1,.91-.86A2.27,2.27,0,0,1,99.44,109.29Zm-29,.8a.77.77,0,0,1,.62-.12C71.08,110.13,70.7,110.25,70.44,110.09Zm25.87.49a5.57,5.57,0,0,1,1-.62C97.17,110.31,96.36,110.72,96.31,110.58Zm-11,1.55a8.27,8.27,0,0,1-1.32.53C84.28,112.3,85.36,111.74,85.27,112.13Zm17-2c.27-.44-.06,0-.27,0,.11-.33.46-.3.59-.59-.42.07-.66.41-1,.57-.12,0-.6.06-.08-.33-.09.3.36-.25.56-.21.2-.52.72-.59,1-1a1.72,1.72,0,0,0,1-.58c.1-.18-.27.06-.21-.09.91-.51.58,0,.44.62-.24.12-.13-.06-.21-.09-.1.19-.34.19-.46.36.2-.09.34-.11.39-.06-.25.4-.57.49-.32.57a1.39,1.39,0,0,1-.69.45c.06-.18.33-.36.19-.35A8,8,0,0,1,102.31,110.17Zm-3.46,1c.09.13-.26.32-.47.56-.29-.1-.73.44-1.2.67.3-.53-.4.3-.67.19.35-.38.84-.51,1.22-.85.59-.75.14-1,1-1.47C98.27,110.79,97.9,111.7,98.85,111.17Zm-31.42-.42c-.08-.09.45-.26.08-.31-.47.19-.24.29-.43.44-.15-.07-.3,0-.45-.06.26-.36.61-.49.87-.81a3.53,3.53,0,0,0,1.43.24A3.78,3.78,0,0,1,67.43,110.75ZM83,113.18a1.07,1.07,0,0,1,.8-.52A6.84,6.84,0,0,1,83,113.18Zm21.57-4.45c.1-.21-.33.07-.15-.2C104.84,108.11,105.07,108.41,104.61,108.73ZM96.83,112l.56-.84c.15,0,.25-.17.41-.19S97.32,111.77,96.83,112Zm-14.56,1.44c-.28,0-.5.12-.35-.1.22,0,.37-.19.6-.13C82.44,113.28,82.35,113.34,82.27,113.42Zm7.68.07c-.59.12.23-.52.57-.59C90.37,113.18,90.1,113.21,90,113.49Zm11.47-3c-.17.16-.62.32-.42,0C101.28,110.38,101.55,110.27,101.42,110.52Zm-19.67,3.35c0-.05.09-.09,0-.08a.87.87,0,0,1-.47.21,1.58,1.58,0,0,1,.94-.42C82.06,113.69,81.93,113.85,81.75,113.87Zm.51.67c.36,0,.62-.36,1-.37C83,114.45,82.25,114.77,82.26,114.54ZM105.82,110c.05-.3-.42.28-.25.29-.3.13-.26,0-.26-.17.43-.33.28-.35.9-.82A1.25,1.25,0,0,1,105.82,110Zm-44.46.73c.25-.12.48,0,.71,0A.55.55,0,0,1,61.36,110.75Zm22.51,5.64a.8.8,0,0,1,.7-.28A.82.82,0,0,1,83.87,116.39Zm-9.63-.86c-.47,0,0-.38.37-.26C74.35,115.45,74.6,115.43,74.24,115.53Zm7.84,1.28c-.4.33-1.4.62-1.56.41.49.08.87-.34,1.31-.5C81.69,116.89,82.12,116.63,82.08,116.81Zm-25.21-6.6a2,2,0,0,1,1.14.12C57.63,110.41,56.91,110.44,56.87,110.21Zm40.16,6c.23-.09.93-.58.89-.34S97,116.4,97,116.18Zm-9.56,2.59c-.41,0-.73.21-1.12.25.34-.33.79-.28,1.08-.75.25,0,.42-.18.68-.13A3.19,3.19,0,0,0,87.47,118.77Zm-16.21-1.13c-.4-.07-.57-.18-.13-.37.32,0,.44.2.94.09C71.81,117.6,71.52,117.45,71.26,117.64Zm18.11,2.48a3.22,3.22,0,0,1,1.12-.77C90.15,119.68,89.82,120.08,89.37,120.12ZM79.18,120a.89.89,0,0,1,.75-.22A.88.88,0,0,1,79.18,120Zm3.53.46A1.9,1.9,0,0,1,83.9,120,3.89,3.89,0,0,1,82.71,120.45Zm-2.95.23c-.59.06-1.15.39-1.75.48.31-.41,1-.38,1.82-.72.1-.11,0-.17.31-.16C80.12,120.38,80,120.5,79.76,120.68Zm-9.57-1.05a4.46,4.46,0,0,1,1.58-.35A4.06,4.06,0,0,1,70.19,119.63Zm16.8,2a3.47,3.47,0,0,1,.85-.49c-.17.23.14.25-.1.51C87.24,121.79,87.42,121.58,87,121.66Zm1.69-1c.25.12.48-.1.95-.17-.73.39-1.17,1.12-1.69,1C88.54,121.14,88.44,121,88.68,120.68Zm-1.9.66c.27.06,1-.53.91-.24a2.88,2.88,0,0,1-1.22.43c.18-.16.1-.2-.17-.16a3.16,3.16,0,0,1,1.06-.58C87.22,121,86.54,121.27,86.78,121.34Zm-8.24.3c.31,0,.59-.21.91-.13C79.24,121.7,78.43,121.8,78.54,121.64Zm1.33-.36c-.3.21.36.08-.06.33C79.32,121.7,79.44,121.36,79.87,121.28Zm-2.66-.14a3.41,3.41,0,0,1-.85.39,2,2,0,0,0-.9,0c.46-.2.25-.16.63-.42.21.12.37.15.77-.14C77.06,121,77.19,121.07,77.21,121.14Zm-16.87-4.38c.3-.17.72-.06.73-.25l.19.1a.2.2,0,0,1,.2,0A1.28,1.28,0,0,1,60.34,116.76Zm-10.63-7.85c-.2-.13-.44-.08-.38-.25C49.61,108.56,50,108.85,49.71,108.91ZM85.85,122a4.14,4.14,0,0,1,1-.31C86.67,122,85.78,122.1,85.85,122ZM62.4,118.27a2.38,2.38,0,0,1,1.24,0A2.61,2.61,0,0,1,62.4,118.27Zm19,5c.24,0,.11-.11.31-.25.48-.13.57.11,1.14-.31,0-.16-.69.13-.4-.18a1.15,1.15,0,0,1,1-.06C82.85,122.91,81.67,123.44,81.4,123.26Zm-16-3.56c-.46,0-.94.22-1.38,0a10.36,10.36,0,0,1,1.18-.25C65.49,119.53,65.58,119.61,65.42,119.7Zm8.66,2.77a1.21,1.21,0,0,1-.68,0C73.69,122.21,74.38,122.25,74.08,122.47Zm5.61,1.29a.41.41,0,0,0,.21-.23,2.34,2.34,0,0,1,.7,0A1.27,1.27,0,0,1,79.69,123.76Zm-7.86-1c.34-.07.66-.39,1-.27A2.21,2.21,0,0,1,71.83,122.75Zm-3.25-.29c.43-.26.58,0,.78-.32.2,0,.32.1.33.17A1.34,1.34,0,0,1,68.58,122.46Zm2.45-.25c-.45-.11-.89.3-1.34.1C70.06,122,71,122,71,122.21Zm7,1.44c.28-.29.61-.17.93-.14C78.65,123.73,78.32,123.61,78,123.65Zm-7.75-.86c.29-.21.59-.13.89-.21C71.16,122.78,70.59,122.9,70.26,122.79Zm-1.35.53c.58-.26.83-.31.9-.55.4-.06.28.1.45.19a3.53,3.53,0,0,1-.9.3c.15,0,.45,0,.34.08a2.53,2.53,0,0,1-1.46,0c.11-.08.05-.15.33-.26C69,123.1,68.74,123.24,68.91,123.32ZM67.23,123a11,11,0,0,1,2.24-.35C69.37,123.09,68,123.15,67.23,123Zm11.3,1.85a12.08,12.08,0,0,1,1.76-.4A3.9,3.9,0,0,1,78.53,124.88Zm-3.61-.43c0-.12.06-.35.56-.35A.65.65,0,0,1,74.92,124.45Zm.9.79c-.66.05.44-.31.08-.33s-.6.33-.92.22a5.67,5.67,0,0,1,1.84-.53C76.69,124.82,76.05,124.9,75.82,125.24Zm-9.46-2.69c-.74.29-1.5-.07-1.2-.34A2,2,0,0,0,66.36,122.55Zm-.14.56.57-.23c.11.05.34.1.22.16C66.75,122.92,66.47,123.34,66.22,123.11Zm4.52,1.59c-.34-.06-.06-.2.11-.32.16,0,.31,0,.46,0Zm2,.7c-.27-.12-.26-.28.1-.48C73.4,125,73.19,125.32,72.75,125.4Zm-6-1.84c-.34.21-.91,0-.89-.14C66.43,123.2,66.27,123.45,66.76,123.56Zm4,2.16a1.48,1.48,0,0,0-.59,0c.57-.19.7,0,1.06-.36.19.24.57,0,1.06.06C71.77,125.61,71.26,125.48,70.75,125.72Zm-3.27,0c.74.28,2.1-.36,2.45-.08C69.25,125.71,67.38,126.21,67.48,125.7Zm.7-.06c.23-.11-.16-.15.24-.29a1.64,1.64,0,0,1,.58.06C68.48,125.54,68.69,125.65,68.18,125.64Zm-4.12.31c-.26-.16-.55,0-.81-.1a2.1,2.1,0,0,1,1-.12C64.05,125.81,64.18,125.87,64.06,126Zm-9.82-3.38c.39.05,1.56.05,1.19.33C55.13,122.67,54.16,122.74,54.24,122.57ZM45,115.82c-.4-.29.24-.3.49-.09C45.19,115.71,45.4,115.88,45,115.82Zm9.51,7a1.12,1.12,0,0,1,.76.18c-.31,0-.34.3-.62.19C54.78,123.11,54.53,123,54.52,122.83Zm-.43.32c-.54-.22,0-.43.41-.23C54.46,123,54.56,123.13,54.09,123.15Zm4.26,2.44c-.31-.26-.72,0-1-.2a7.48,7.48,0,0,1,1.77,0ZM54,123.48l.49-.09.31.18A1.15,1.15,0,0,1,54,123.48Zm-1.78-1.18c-.63.11-.45-.22-1-.35C51.56,121.94,52.23,122.14,52.22,122.3Zm-1.37-.45-.39-.25c.28-.1,1.07,0,.88.16A.39.39,0,0,0,50.85,121.85Zm-9-7.18a2,2,0,0,1,.62.38c-.69-.25-1.38-.49-2-.77a13.58,13.58,0,0,1-1.88-1.1c.53-.08.66.51,1.15.5-.2-.21-.44-.29-.17-.33.41.21.14.28.49.59.5,0,.78.45,1.3.42-.23-.14-.51-.19-.68-.46.25,0,.39.15.66.08.31.2-.24.27.26.38.32,0-.21-.29.23-.22a1.25,1.25,0,0,1,.54.3C42.27,114.55,41.82,114.5,41.88,114.67Zm10.17,8.21c-.45-.32-1-.22-1.51-.44.34-.12,0-.32.67-.27.5.2.06.24.12.37a5.11,5.11,0,0,0,1,0C52.74,122.77,52.43,122.83,52.05,122.88Zm3.64,2.4a1.8,1.8,0,0,1,1.2-.09C56.49,125.23,56.05,125.44,55.69,125.28Zm-7.37-4.91.48,0,.28.21A.84.84,0,0,1,48.32,120.37Zm-3.6,0a1,1,0,0,1-.52-.2c.86,0,1.07.63,1.47.82l.62,0a6.76,6.76,0,0,0,2.45.82,1.11,1.11,0,0,1,.79-.22c-.05.34.44,0,.85.26a15.75,15.75,0,0,0-1.85.21c-.58-.55-2-.51-2.87-.72.13,0,.76,0,.53-.12-.44,0-.82-.15-1.28-.14.13.08.44.15.28.21-.35-.25-1.43-.26-1.36-.53.49.27,1.43.2,1-.13-.09.13-.47.06-.83-.07s-.67-.36-.66-.43C43.75,120.33,44.87,120.77,44.72,120.41Zm-.6.27c0,.1-.55,0-.84-.09.25,0-.46-.21-.56-.4A4.75,4.75,0,0,1,44.12,120.68Zm11.59,4.51a5.55,5.55,0,0,1-1.72-.3C54.55,124.91,55.58,125,55.71,125.19ZM51.43,123c.21.09.48,0,.65.2C51.85,123.37,51.2,123.06,51.43,123Zm-2.08-.52c.3,0,1.16,0,1,.24C50,122.57,49.65,122.63,49.35,122.46Zm3.59,2.3c0-.13.64-.12,1,.07A1.6,1.6,0,0,1,52.94,124.76ZM37.62,112.54c.17-.12.57.26.62,0C38.63,112.87,37.83,112.8,37.62,112.54Zm-1-.49c.1-.15.54.14.92.1l.2.25C37.3,112.34,36.85,112.34,36.59,112.05Zm9.82,9.54c.28,0,1.15.13,1,.32C47.07,121.77,46.69,121.8,46.41,121.59ZM48,123.42a.93.93,0,0,1,.8.17A.93.93,0,0,1,48,123.42Zm-5.83-3.7c-.27-.13-.56-.21-.83-.34.4,0,.48-.14,1,.11C42.09,119.49,42.52,119.75,42.2,119.72Zm-2-1.21a1.42,1.42,0,0,0-.46-.32H40s-.08-.1,0-.08c.49.4.23-.1.54-.06s.5.15.66.4A5.27,5.27,0,0,0,40.19,118.51Zm.9,1.17c-.11-.11-.36-.29-.22-.31.45.26,1.05.24,1.43.66C41.7,119.93,41.48,119.65,41.09,119.68ZM25.53,92.51c-.09-.33.13-.2.38,0a.71.71,0,0,0,.14.33C26,92.88,25.66,92.71,25.53,92.51Zm7,17.19a1.59,1.59,0,0,1-.81-.63c.36.05.58-.19,1,.27C32.33,109.31,32.06,109.3,32.54,109.7Zm5.37,7.66c.38.19.4.36.27.42.78.22,2,.73,2.27,1.19a9.54,9.54,0,0,0-2.52-1c.18,0,.11-.2,0-.4-.13.14-.17.13-.61-.07-.19-.18,0-.16,0-.23-.32.09-.25-.05-.64-.24.19.3-.45,0-.65-.24.08-.13.48.13.86.11C37.54,117.32,37.52,117.45,37.91,117.36Zm6.45,6.43c-.52-.34-1.12-.07-1.47-.17-.38-.38.29-.08.63-.25.16.22.47.12.72.12C44.5,123.65,44.57,123.76,44.36,123.79Zm-6.64-5.67c-.4-.29-.83-.52-1.24-.78a3.86,3.86,0,0,1,1,.35C37.23,117.65,38.25,118.13,37.72,118.12Zm2.94,3.63c.05-.11.61-.11.86.11C41.25,121.8,40.88,121.93,40.66,121.75Zm.27,1c.33,0,.54.15.87.11-.24-.21-.53-.26-.24-.32.32.18,1.26.45,1.12.66A3.82,3.82,0,0,1,40.93,122.77Zm-5.39-6.25c-.07-.26-.91-.34-.62-.47C35.22,116.16,36,116.45,35.54,116.52Zm1.28,2.42c.44.15.84.39,1.27.55C38,119.58,36.74,119.13,36.82,118.94ZM40,122a.41.41,0,0,0,.3-.07c.22.18,1.06.47.89.58C40.83,122.28,40.3,122.35,40,122Zm-8.56-7.82c.66.27,1.58.9,2.37,1.31-.09-.16-.27-.37.07-.3-.08.36.37.29.85.73-.46,0-.76-.2-.77.13C33.53,115.39,32.24,114.92,31.43,114.21Zm-9.1-26.53c.08.29.45.43.43.78C22.58,88.28,22.12,87.72,22.33,87.68Zm4.35,17.54a.52.52,0,0,0-.45-.43c-.1-.47.88.08,1.22.56C26.86,105.08,26.89,105.09,26.68,105.22Zm11.15,15.86a17,17,0,0,1,2,.79l-.39,0C38.92,121.53,38.33,121.4,37.83,121.08Zm-7.11-9c.37.26,1.26.74,1.19,1C31.6,112.74,30.6,112.37,30.72,112.09Zm.39,1.26c-.38-.46-1-.66-1.38-1.09a4.29,4.29,0,0,1,1.74,1.18A.28.28,0,0,0,31.11,113.35Zm5.83,7.4c.21,0-.16-.23,0-.23.24.21.59.24.81.48A1.1,1.1,0,0,1,36.94,120.75ZM35,119.63a2,2,0,0,1,1.09.46A3.32,3.32,0,0,1,35,119.63Zm-4.34-5.91c-.66-.19-.63-.42-.89-.83.21.06.36.07.41,0l.14.19C30,113.14,30.24,113.37,30.67,113.72Zm5.07,7a7.2,7.2,0,0,1-1.64-.94c.57.25.54-.08,1,.15s-.23.32.23.5c.21,0,0-.22.48-.09C36.07,120.55,35.86,120.58,35.74,120.67Zm-2.2-1.8c.09-.06.24-.07.57,0,.16.32.54.3.74.58l-.26,0C34.37,119.11,34,119.17,33.54,118.87Zm-5.93-7.4c.41.34,1.82.92,1.43,1.09C28.66,112.1,28,112,27.61,111.47Zm-2.14-2.57a2.08,2.08,0,0,1,.75.49C26.14,109.48,25.63,109.2,25.47,108.9Zm-.42.26c.47.49,2,1.32,1.69,1.61C26.33,110.17,25.14,109.55,25.05,109.16ZM23,105.81a1.48,1.48,0,0,1,.69.56C23.59,106.46,23.16,106.09,23,105.81Zm.07,1c-.18-.67-.85-.92-1.19-1.45.47.09,1.18,1.08,1.7,1.58C23.29,106.74,23.43,107,23.07,106.77Zm-.28,0c-.3-.6-.76-.29-1.14-.92.55.33.3.15.63.2C22.52,106.21,23.2,106.79,22.79,106.72ZM20.19,104a1.92,1.92,0,0,1,.77.66C20.82,104.76,20.23,104.4,20.19,104Zm3.08,7.35c.47.09.68.42,1,.67A3.17,3.17,0,0,1,23.27,111.35Zm.06.27c.28.06.91.6.67.64C23.83,112,23.41,112,23.33,111.62Zm-1-1.47c.2.08-.11-.33,0-.33a1,1,0,0,1,.62.53C22.66,110.15,22.74,110.62,22.35,110.15Zm-.57.68c.08,0,.52.21.53,0a1.21,1.21,0,0,1-.5-.65,5.37,5.37,0,0,1,1.46,1C22.44,110.78,22.44,111.73,21.78,110.83Zm-3.66-10.35c.28,0,.71.65.46.61C18.47,100.86,18.14,100.78,18.12,100.48ZM21,109.19a1,1,0,0,1,.62.54A1,1,0,0,1,21,109.19ZM18.21,102c-.37-.37-1.06-1.08-1-1.34-.4-.21-.63-1-.92-.85l-.12-.46c.31.16.37.43.5.35.27.58.5.82.82.78.24.41-.08.16-.07.31l.54.3C18.14,101.66,17.68,101.31,18.21,102ZM16,98.73c-.14-.63.79.37.86.77-.14-.07-.13.07-.25,0C16.13,99,16.54,99,16,98.73Zm-1-.85c-.19-.53.27-.15.59,0,.05.18.28.27.28.48C15.41,98.21,15.43,97.94,15,97.88Zm-.72-2.73c.24.24.53.46.59.79A1.25,1.25,0,0,1,14.29,95.15Zm.93-29.31c-.09-.22-.2-.9,0-.81-.1.24.07.55.18.55C15.35,65.74,15.29,65.83,15.22,65.84ZM10.77,90.23c0-.33.22-.14.42.14s.41.63.23.67C11.29,90.59,11,90.76,10.77,90.23ZM15.1,64.39c-.1-.49-.29-1.46,0-1.61-.1.64.22.29.35.57-.14.32-.3.19-.45.23C15.24,63.88,15.33,64.4,15.1,64.39Zm0-2.8c-.05.24,0,.49-.05.72C14.75,62.34,14.89,61.24,15.07,61.59ZM7.74,91.74a3.25,3.25,0,0,1,.53,1.05A1.4,1.4,0,0,1,7.74,91.74ZM6.63,89.9c-.44-.17-.24-.51-.39-.86-.08.35-.47-.13-.67-.28-.06-.58.63.53.57-.05-.12-.1-.16,0-.35-.27s-.23-.87,0-.71c.14.66,1.89,2.66,1.06,2.36.19.43.81,1.36.6,1.53A3.22,3.22,0,0,1,6.63,89.9Zm-.69-.52A7.13,7.13,0,0,1,6.79,91,4.06,4.06,0,0,1,5.94,89.38Zm9.11-33.87c.17-.36,0-1.32.27-1.33C15.23,54.59,15.38,55.46,15.05,55.51Zm-10.14,32c0-.16-.06-.47.06-.38.11.57.25.79.55.94C5.44,88.45,5.16,87.85,4.91,87.48ZM4.6,85.25c.06-.3-.27-.5-.15-.81C4.65,84.73,4.87,85.54,4.6,85.25ZM4,86.37c0-.31,0-.44.16-.29a.87.87,0,0,0,.08.48.67.67,0,0,1,.15.32ZM15.92,51c0,.12.12.09.12.33-.21.15-.17.39-.29.58A1.18,1.18,0,0,1,15.92,51ZM3.16,81.24c.09.06,0-.52,0-.59s-.14,0-.23-.08c-.18-.6,0-.84.29-.41,0,.31.13.62.2.92a7.43,7.43,0,0,1,.23.9A7.86,7.86,0,0,1,3.16,81.24Zm13.5-31.65-.25.29C16.3,49.54,16.65,49.14,16.66,49.59Zm-14,28.64a1.77,1.77,0,0,1-.2-1,1.83,1.83,0,0,1,.28,1C2.66,78.16,2.62,78.11,2.62,78.23ZM17.36,45.55c.13-.17.16-.4.34-.54,0,.15.3.05.09.35,0-.22-.2-.07-.21.2a.16.16,0,0,1,.22.11c-.13.13-.07.36-.27.47C17.58,45.66,17.31,46,17.36,45.55ZM1.44,74.82c0-.52-.3-1.63-.11-1.76a7.69,7.69,0,0,0,.18,1c.07-.2,0-.39.05-.59.12.32.24.82.4.8A1.07,1.07,0,0,1,1.44,74.82ZM18,43.84c0,.17.16.13.17.4C18,44.38,17.74,44.19,18,43.84ZM1.32,72.35c.11-.58.3-.53.5-.36a1.49,1.49,0,0,0,0,.47C1.61,72.2,1.55,72.93,1.32,72.35ZM18.54,43.21a.6.6,0,0,1-.25.58A.6.6,0,0,1,18.54,43.21ZM1,70.83a8.07,8.07,0,0,1,.24,1.88C1.11,72,1,71.91,1,71.42c.05.06.09,0,.11-.12A.56.56,0,0,1,1,70.83Zm0-.93c.09.14.13-.12.2-.11a4.85,4.85,0,0,1,.3,2c-.16-.37-.24-.1-.4-.47C1.15,70.83,1,70.37,1,69.9ZM19.3,41c0,.37,0,.65.12.61-.21.19-.22.5-.4.71,0-.6-.25.15-.28-.18C19.06,41.87,19.05,41.36,19.3,41ZM.48,69.07c0-.25.13-.12.19-.35s-.09,0-.13-.12c.08-.51.18-.21.29.13a.7.7,0,0,0,0,.47c0-.12.12.06.2.23l-.09.35C.64,69.15.71,69.26.48,69.07ZM1,67.45a4.61,4.61,0,0,1,0-1.17C1.18,66.68,1.24,67.43,1,67.45ZM.58,64.84A3,3,0,0,1,.5,63.77c.21.34.07.64.11.95,0-.06.08-.21.13-.1A.31.31,0,0,1,.58,64.84Zm.25-2.66c-.13.37.06.78-.09,1.15a2.54,2.54,0,0,1-.1-.74C.67,62.33.73,62.13.83,62.18Zm.07.24a.56.56,0,0,0,0-.36c.1-.28.19-.38.26-.19s0,.38-.08.57C1,62.28,1,62.53.9,62.42Zm.21-2.68a4,4,0,0,1,0,1.88A11.78,11.78,0,0,1,1.11,59.74Zm-.43-.43c.27.28.19,1,.11,1.56A2.72,2.72,0,0,1,.68,59.31Zm.74-2.81c.08-.1.13,0,.23-.3a2.31,2.31,0,0,1-.07,1.52C1.6,57.11,1.53,56.54,1.42,56.5Zm.55-7c0,.31.11-.34.28-.39.07.24-.26,1-.33.75C2.05,49.65,1.87,49.71,2,49.51ZM28.32,10.59a3.19,3.19,0,0,1,.86-.33,4.33,4.33,0,0,1-1.07,1l-.35.06C28.27,10.85,28.2,10.94,28.32,10.59Zm3.36-1.77c-.52.07-.95.74-1,.34C31,9.11,31.68,8.56,31.68,8.82Zm39.65,5.86c-.89.08.83.31-.15.48-.25-.25-.16-.23-.56-.32A.53.53,0,0,1,71.33,14.68Zm-1,.32c-.11-.07-.2-.17-.33-.15s0,.39-.44.27c0-.11.2-.17,0-.3.48,0,.52-.32,1-.26C70.58,14.73,70.72,14.91,70.3,15ZM41.88,3.86a2.7,2.7,0,0,1,1-.38c0,.14-.45.26-.71.56C41.76,4.09,42.12,3.87,41.88,3.86ZM72.65,15c.2.2,0,.29,0,.45-.2-.15-.51,0-.69-.2C72.3,15.13,72.35,15.17,72.65,15ZM44.21,3.24c-.56.07-.38.28-.87.34C43.2,3.49,44.3,2.92,44.21,3.24ZM72.9,15.13a.55.55,0,0,1,.52.15.42.42,0,0,1-.41.06C73.12,15.32,73,15.22,72.9,15.13ZM77.79,2.2c-.36-.25-.88-.11-1.25-.31C77,1.77,77.9,2,77.79,2.2Zm1.82.43A9.41,9.41,0,0,1,78,2.11,2.57,2.57,0,0,1,79.61,2.63Zm.86.09L80,2.7l-.27-.23C80,2.38,80.23,2.6,80.47,2.72Zm24.07,25.77c.08.35-.18.23-.48.05a10.47,10.47,0,0,0-1.42-1.42c0-.11-.1-.3,0-.25A8.8,8.8,0,0,1,104.54,28.49Zm1.66,2.29c0,.19,0,.31-.11.29-.44-.55-1-1-1.34-1.62C105.26,29.88,105.69,30.35,106.2,30.78ZM99.56,12.47a2.37,2.37,0,0,1-1.29-.7A4.22,4.22,0,0,1,99.56,12.47Zm8.63,20.82c-.65-.68-1.12-1.33-1.64-1.53a3.21,3.21,0,0,0-.07-.43C106.9,31.81,107.73,32.19,108.19,33.29Zm-1.5-16a1.89,1.89,0,0,1,.5.38c.25.59-.57-.06-.16.71-.32-.31-.77-.52-.9-1C106.64,18,107,18,106.69,17.31Zm4.85,23c0,.32-.23,0-.33.1,0-.24-.24-.43-.17-.7C111.23,39.88,111.28,40.12,111.54,40.29ZM113,35.16c.08.3.45.38.59.49.12.47-.12.15-.14.29a.52.52,0,0,1,.09.32c-.27-.49-.43-.94-.59-.61C112.78,35.4,112.84,35.17,113,35.16Zm1.46-5.67c0-.29-.39-.43-.37-.75C114.31,28.85,114.65,29.58,114.41,29.49Zm1.65,2.9a4.19,4.19,0,0,1-1-1.51C115.37,31.39,115.9,31.82,116.06,32.39Zm.9,2.2a1.27,1.27,0,0,1-.39-.87A1.45,1.45,0,0,1,117,34.59Zm.7-.49c0,.33,0,.44.2.44.09.54-.51-.37-.46-.61C117.52,34.07,117.59,34.09,117.66,34.1Zm4.22,20.65c-.15,0-.33-.59-.37-.92C121.62,53.82,122,54.41,121.88,54.75Z" fill-rule="evenodd"/><path d="M53.22,126c.16-.06-.3-.09-.09-.15-1.4.18-2.6-.35-4-.39a17.61,17.61,0,0,0,3.26.66c.14,0-.08-.13-.18-.2A6.22,6.22,0,0,1,53.22,126Z" fill-rule="evenodd"/><path d="M106.57,81.92c-.2.24-.19.61-.33.89C106.39,82.53,106.62,82.3,106.57,81.92Z" fill-rule="evenodd"/><path d="M98.05,96.68c.12-.23,0-.25,0-.37-.13.08-.16.28-.23.44a.29.29,0,0,0-.24,0C97.58,97.05,97.82,96.8,98.05,96.68Z" fill-rule="evenodd"/><path d="M111.4,88.32c.16-.42-.32.59-.49.43,0,.22.13.18.2.26C111.42,88.66,111.09,88.67,111.4,88.32Z" fill-rule="evenodd"/><path d="M105.9,92.74c.06-.26,0-.31-.2-.16.08.07,0,.31-.18.51C105.49,93.34,105.8,92.81,105.9,92.74Z" fill-rule="evenodd"/><path d="M107.33,92.35c.07,0,0,.2.21,0s.08-.43,0-.51c-.17.13-.14.42-.33.53C107.23,92.53,107.31,92.41,107.33,92.35Z" fill-rule="evenodd"/><path d="M94.07,98.83c-.36.07-.11.24-.18.38s-.1-.08-.37.11a2.18,2.18,0,0,1-1,1.05c0,.13,0,.21,0,.34a4.6,4.6,0,0,1,1.42-1.33C93.94,99.08,94.15,99,94.07,98.83Z" fill-rule="evenodd"/><path d="M108.67,92.09l-.87,1.5-.38.72c-.14.24-.28.5-.42.79.15-.07.3-.34.28-.17.34-.33.13-.26.35-.69.12.22.88-1.33.78-.85C108.68,93.25,108.72,92.4,108.67,92.09Z" fill-rule="evenodd"/><path d="M89.58,100.7a4.26,4.26,0,0,0-1.52,1.07Z" fill-rule="evenodd"/><path d="M121.1,82c-.16-.06.09-.4,0-.79a2.31,2.31,0,0,0-.24,1.08C120.88,82.48,121,82.15,121.1,82Z" fill-rule="evenodd"/><path d="M107.19,94.42a3.46,3.46,0,0,0-.61,1C107,95.26,107,94.76,107.19,94.42Z" fill-rule="evenodd"/><path d="M91.71,101.92c.17-.21-.11-.09,0-.24-.21.07-.33.28-.5.42S91.48,101.8,91.71,101.92Z" fill-rule="evenodd"/><path d="M114.33,92c0,.12.09,0,.16,0,0,.26-.23.4-.23.69a2,2,0,0,0,.61-1.26C114.59,91.76,114.63,92,114.33,92Z" fill-rule="evenodd"/><path d="M105.28,100.68c-.3.51-.39.3-.8.75a2.39,2.39,0,0,1-.08.58C104.66,101.57,105.29,100.9,105.28,100.68Z" fill-rule="evenodd"/><path d="M82.55,106.77c.21.07-.41.27-.24.39s.34-.3.59-.23c-.14-.13.28-.42-.17-.48a1.41,1.41,0,0,1-.63.39C82,107,82.43,106.75,82.55,106.77Z" fill-rule="evenodd"/><path d="M81,107.3c-.43,0-.7.57-1.18.43-.23.25.27,0,.14.17A4.53,4.53,0,0,0,81,107.3Z" fill-rule="evenodd"/><path d="M79.31,108.22c.18,0,.11.11.31.12a3.05,3.05,0,0,1,.72-.32,3.25,3.25,0,0,1,.73-.23c-.19-.31-.89.36-1.37.16-.22.31-.55.28-.88.21a4.83,4.83,0,0,0-.87.62c.18,0,.36-.08.54-.1s-.08-.12,0-.23.17-.06.25-.13-.16.23.24.18C79.23,108.41,79.31,108.34,79.31,108.22Z" fill-rule="evenodd"/><path d="M111,104.82c0-.13-.08,0-.11.06s-.33.19-.28.06c-.17.11-.23.35-.33.55C110.55,105.29,110.76,105,111,104.82Z" fill-rule="evenodd"/><path d="M101.93,112.21a4.22,4.22,0,0,0-1.76,1.24c.16-.07.69-.66.62-.36C101.22,112.88,101.46,112.34,101.93,112.21Z" fill-rule="evenodd"/><path d="M96.73,115.3c-.43.24-.78,0-1.28.61.27.23,1.15-.63,1.2-.24C97,115.28,96.34,115.69,96.73,115.3Z" fill-rule="evenodd"/><path d="M74.74,118c.2-.22-.4,0-.53,0s-.07.2-.29.2,0,.07,0,.09l.21,0c-.12,0,.46-.43.3-.2C74.64,118.15,74.52,118,74.74,118Z" fill-rule="evenodd"/><path d="M84.78,121.15c0-.15-1,.24-1.36.31.06-.29-.88-.14-1.21-.11.08.23.44.35.7.52,0-.45.72-.19,1.45-.48C84.37,121.27,84.48,121.19,84.78,121.15Z" fill-rule="evenodd"/><path d="M81,121.65c-.19-.14-1.24.38-1.79.4-.32.24.79-.12.49.14A3.35,3.35,0,0,1,81,121.65Z" fill-rule="evenodd"/><path d="M82.21,121.93c.42-.26-.08-.13-.24,0s-.23-.07-.15-.17c-.19,0-.37.13-.56.15.22,0,.43.22-.31.24-.1.11.21.08.37.1A1.52,1.52,0,0,1,82.21,121.93Z" fill-rule="evenodd"/><path d="M76.45,123.38c.2,0,.38-.1.58-.1.41-.2-.12-.17.3-.38C77,123,77,123.12,76.45,123.38Z" fill-rule="evenodd"/><path d="M71.47,126.22c0-.16.16-.07.47-.23-.46,0,.26-.24-.36-.25l-.35.17c.22.09.43.18-.24.21C70.72,126.28,71.36,126.08,71.47,126.22Z" fill-rule="evenodd"/><path d="M63,123.9c.29,0,.06-.12-.11,0-.07-.08,0-.17.25-.26-.36,0-.87.27-.49.35A.55.55,0,0,1,63,123.9Z" fill-rule="evenodd"/><path d="M51.54,117.49c-.12-.07-.16,0-.11,0-.35.08-.55-.31-.93-.13.27.28.66.17,1,.27C51.6,117.61,51.39,117.52,51.54,117.49Z" fill-rule="evenodd"/><path d="M58.68,127a2.65,2.65,0,0,0,1.42.18c-.52-.27-1.09-.23-1.61-.45-.31.28-1.1.06-1.72.14C56.89,126.88,58.51,127.25,58.68,127Z" fill-rule="evenodd"/><path d="M57.19,126.62a8,8,0,0,1-1.9-.14c-.23.47-1.83-.41-2.74-.33,0,.07.21.18.06.23.52.05,1.09-.07,1.52.3a6.23,6.23,0,0,1,1.15.1c.37,0,.74.09,1.12.12.14-.06-.17-.15-.31-.23C56.47,126.62,56.79,126.79,57.19,126.62Z" fill-rule="evenodd"/><path d="M58.31,127.68c-.09-.46-2.83-.59-3.44-.49C56,127.35,57.65,127.24,58.31,127.68Z" fill-rule="evenodd"/><path d="M49.48,126c-.45-.12-.91-.26-1.37-.41C48.06,125.76,49.07,126,49.48,126Z" fill-rule="evenodd"/><path d="M43.3,124.15a26.64,26.64,0,0,0-3.41-1.43c.35.4,1,.34,1,.66.21-.24.88.4,1.41.38.37.26-.45.14.21.39C42.4,123.86,42.72,124,43.3,124.15Z" fill-rule="evenodd"/><path d="M43.35,124.6c0-.1-.2-.18-.5-.26a6.61,6.61,0,0,1-.83-.28c-.3,0,.41.21.47.41C43,124.46,42.87,124.35,43.35,124.6Z" fill-rule="evenodd"/><path d="M39.67,122.63a13.31,13.31,0,0,0-2.27-1C37.5,122.2,38.9,122.42,39.67,122.63Z" fill-rule="evenodd"/><path d="M28.52,116.36a9.64,9.64,0,0,0-1.12-.68l.21.29C28,116,28.15,116.3,28.52,116.36Z" fill-rule="evenodd"/><path d="M22.66,112.75l.74.27c-.43-.42-.68-.18-1.12-.73C22,112.21,22.59,112.62,22.66,112.75Z" fill-rule="evenodd"/><path d="M17.73,107.92c.15-.38-.66-.39-.72-1.1a.41.41,0,0,1-.29-.08A4.07,4.07,0,0,0,17.73,107.92Z" fill-rule="evenodd"/><path d="M10.58,99.1c.13.28.14,0,0-.11s.22,0,.33,0c-.21-.34-.62-.57-.67-1-.61-.23-.7-.91-1.08-1.46s0,.33-.35-.1a18.7,18.7,0,0,0,1.13,1.71c.05.23-.07.15,0,.39C10,98.44,10.4,98.83,10.58,99.1Z" fill-rule="evenodd"/><path d="M2.57,81.46c0-.64-.53-1.2-.45-1.85C2,79.49,2,79.82,2,80,2.38,80.45,2.18,81,2.57,81.46Z" fill-rule="evenodd"/><path d="M0,69.17a3.1,3.1,0,0,0,0-1.54A13.19,13.19,0,0,1,0,69.17Z" fill-rule="evenodd"/><path d="M1,57.46c-.1-.19-.21-.17-.31-.3a2.22,2.22,0,0,0,0,1c.16-.21,0-.48,0-.71S.76,58.18,1,57.46Z" fill-rule="evenodd"/><path d="M19.43,17.09c.09.23.67-.52,1-.65.07-.1,0-.09,0-.07l-.22.09C20,16.77,19.66,16.87,19.43,17.09Z" fill-rule="evenodd"/><path d="M56.44,15.7a6.11,6.11,0,0,1,1.48,0c.21-.26.86-.16,1.32-.16,0-.05,0-.09.09-.13-.09,0,0-.06,0-.09C58.37,15.52,57.39,15.37,56.44,15.7Z" fill-rule="evenodd"/><path d="M83.11,2.43c.64.13,0-.25.61-.12a3.07,3.07,0,0,1-.31-.17h-.27C83.69,2.45,82.58,2.11,83.11,2.43Z" fill-rule="evenodd"/><path d="M87.9,4.8c.47.51.11-.32.65.09.27,0-.4-.38-.64-.33C88.12,4.75,88.14,4.84,87.9,4.8Z" fill-rule="evenodd"/><path d="M36.44,90.74c0-9.3,7.2-16.5,20-25.6,8.7-6.2,14.7-10.5,14.7-16,0-4.3-3.4-7-8.9-7-6,0-8.8,2.6-10.1,8.4l-5.7-1.1c1.4-8.1,7-12.8,16.1-12.8S77,41.14,77,48.84c0,7.3-5.1,12-17.8,20.8s-17.3,14-17.3,21v4.6h45.6v5.3H36.44Zm10.3-.8c0-4.6,2.5-8.3,15.1-17,11.3-7.8,19.8-13.9,19.8-24.1,0-9.9-7.5-16.2-19.1-16.2-11.3,0-18.5,6.6-20.1,16l-5.5-1c2-12.9,11.6-20.5,26.1-20.5,15.3,0,24.6,8.4,24.6,21.4,0,12.5-9.7,19.7-23,28.9A71.23,71.23,0,0,0,54,86.24c2.2-.2,5.7-.4,10.6-.4h22.9v5.3H46.74Z" fill="#fff"/></svg>